<svg xmlns="http://www.w3.org/2000/svg" viewBox="0 -0.5 960 600" shape-rendering="crispEdges">
<metadata>Made with Pixels to Svg https://codepen.io/shshaw/pen/XbxvNj</metadata>
<path stroke="#4d3a8f" d="M0 0h3M0 1h3M0 2h3M0 3h3M0 6h3M0 7h3M0 8h3M0 9h3M0 10h3M0 11h3M0 12h3M0 13h3M0 15h3M0 16h3M0 17h3M0 18h3M0 19h3M0 20h3M0 21h3M0 22h3M0 23h3M0 24h3M0 25h3M0 26h3M0 27h3M0 28h3M0 29h3M0 30h3M0 31h3M0 32h3M0 33h3M0 34h3M0 35h3M0 36h3M0 37h3M0 38h3M0 39h3M0 40h3M0 41h3M0 42h3M0 43h3M0 44h3M0 45h3M0 46h3M0 47h3M0 48h3M0 49h3M0 50h3M0 51h3M0 52h3M0 53h3M0 54h3M0 55h3M0 56h3M0 57h3M0 58h3M0 59h3M0 60h3M0 61h3M0 62h3M0 63h3M0 64h3M0 65h3M0 66h3M0 67h3M0 68h3M0 69h3M0 70h3M0 71h3M0 72h3M0 73h3M0 74h3M0 75h3M0 76h3M0 77h3M0 95h34M46 97h1M68 97h1M0 98h44M46 98h20M68 98h23M92 98h7M0 99h44M46 99h20M68 99h23M92 99h8M0 100h44M46 100h20M68 100h32M0 101h44M46 101h20M68 101h32M89 102h11M0 103h44M46 103h20M68 103h32M0 104h44M46 104h20M68 104h32M0 105h44M46 105h20M68 105h32M0 106h44M46 106h20M68 106h32M0 107h44M46 107h20M68 107h32M0 108h44M46 108h20M68 108h32M0 109h44M46 109h20M68 109h32M0 110h44M46 110h20M68 110h32M0 111h44M46 111h20M68 111h32M0 112h44M46 112h20M68 112h32M0 113h44M46 113h20M68 113h32M0 114h44M46 114h20M68 114h32M0 115h44M46 115h20M68 115h32M0 116h44M46 116h20M68 116h32M0 117h44M46 117h20M68 117h32M0 118h45M46 118h21M68 118h32M46 119h1M68 119h1M46 120h1M68 120h1M0 121h44M46 121h20M68 121h32M0 122h44M46 122h20M68 122h32M0 123h44M46 123h20M68 123h32M0 124h44M46 124h20M68 124h32M0 125h44M46 125h20M68 125h32M0 126h44M46 126h20M68 126h32M0 127h44M46 127h20M68 127h32M0 128h44M46 128h20M68 128h32M25 129h19M46 129h20M68 129h32M29 130h15M46 130h20M68 130h32M30 131h14M46 131h20M68 131h32M30 132h14M46 132h20M68 132h32M31 133h13M46 133h20M68 133h32M32 134h12M46 134h20M68 134h32M30 135h1M33 135h11M46 135h20M68 135h32M56 136h10M68 136h32M57 137h9M68 137h32M54 138h2M58 138h8M68 138h32M54 139h3M59 139h7M68 139h32M54 140h4M59 140h7M68 140h32M54 141h5M60 141h6M68 141h32M54 142h5M60 142h6M68 142h1M54 143h5M60 143h6M68 143h1M60 144h6M68 144h32M54 145h5M60 145h6M68 145h32M54 146h5M60 146h6M68 146h32M54 147h5M60 147h6M68 147h32M54 148h5M60 148h6M68 148h32M54 149h5M60 149h6M68 149h32M54 150h5M60 150h6M68 150h32M54 151h5M60 151h6M68 151h32M54 152h5M60 152h6M54 153h5M60 153h6M68 153h6M75 153h25M54 154h5M60 154h6M68 154h6M75 154h25M54 155h5M60 155h6M68 155h6M75 155h25M54 156h5M60 156h6M68 156h6M75 156h25M54 157h5M60 157h6M68 157h6M75 157h25M54 158h5M60 158h6M68 158h6M75 158h25M54 159h5M60 159h6M68 159h6M75 159h25M54 160h5M60 160h6M68 160h6M75 160h25M54 161h5M60 161h6M68 161h6M75 161h25M54 162h5M60 162h6M68 162h6M75 162h25M54 163h5M60 163h6M68 163h6M75 163h25M54 164h5M60 164h6M68 164h6M75 164h25M54 165h5M60 165h6M68 165h6M75 165h25M54 166h5M60 166h6M68 166h6M75 166h25M54 167h5M60 167h6M68 167h6M75 167h25M54 168h5M60 168h6M68 168h6M75 168h25M54 169h5M60 169h6M68 169h6M75 169h25M54 170h5M60 170h6M68 170h6M75 170h25M54 171h5M60 171h6M68 171h6M75 171h25M54 172h5M60 172h6M68 172h6M75 172h25M54 173h5M60 173h6M68 173h6M75 173h25M54 174h5M60 174h6M68 174h6M75 174h25M54 175h5M60 175h6M68 175h6M75 175h25M54 176h5M60 176h6M68 176h6M75 176h25M54 177h5M60 177h6M68 177h6M75 177h25M54 178h5M60 178h6M68 178h6M75 178h25M54 179h5M60 179h6M68 179h6M75 179h25M54 180h5M60 180h6M68 180h6M75 180h25M54 181h5M60 181h6M68 181h6M75 181h25M54 182h5M60 182h6M68 182h6M75 182h25M54 183h5M60 183h6M68 183h6M75 183h25M54 184h5M60 184h6M68 184h6M75 184h25M54 185h5M60 185h6M68 185h6M75 185h25M54 186h5M60 186h6M68 186h6M75 186h25M54 187h5M60 187h6M68 187h6M75 187h25M54 188h5M60 188h6M68 188h6M75 188h25M54 189h5M60 189h6M68 189h6M75 189h25M54 190h5M60 190h6M68 190h6M75 190h25M54 191h5M60 191h6M68 191h6M75 191h25M54 192h5M60 192h6M68 192h6M75 192h25M54 193h5M60 193h6M68 193h6M75 193h25M54 194h5M60 194h6M68 194h6M75 194h25M54 195h5M60 195h6M68 195h6M75 195h25M54 196h5M60 196h6M68 196h6M75 196h25M54 197h5M60 197h6M68 197h6M75 197h25M54 198h5M60 198h6M68 198h6M75 198h25M54 199h5M60 199h6M68 199h6M75 199h25M54 200h5M60 200h6M68 200h6M75 200h25M54 201h5M60 201h6M68 201h6M75 201h25M54 202h5M60 202h6M68 202h6M75 202h25M54 203h5M60 203h6M68 203h6M75 203h25M54 204h5M60 204h6M68 204h6M75 204h25M54 205h5M60 205h6M68 205h6M75 205h25M54 206h5M60 206h6M68 206h6M75 206h25M54 207h5M60 207h6M68 207h6M75 207h25M54 208h5M60 208h6M68 208h6M75 208h25M54 209h5M60 209h6M68 209h6M75 209h25M54 210h5M60 210h6M68 210h6M75 210h25M54 211h5M60 211h6M68 211h6M75 211h25M54 212h5M60 212h6M68 212h6M75 212h25M54 213h5M60 213h6M68 213h6M75 213h25M54 214h5M60 214h6M68 214h6M75 214h25M54 215h5M60 215h6M68 215h6M75 215h25M54 216h5M60 216h6M68 216h6M75 216h25M54 217h5M60 217h6M68 217h6M75 217h25M54 218h5M60 218h6M68 218h6M75 218h25M54 219h5M60 219h6M54 220h5M60 220h6M68 220h1M54 221h5M60 221h6M68 221h32M54 222h5M60 222h6M68 222h32M54 223h5M60 223h6M68 223h32M54 224h5M60 224h6M68 224h32M54 225h5M60 225h6M68 225h32M54 226h5M60 226h6M68 226h32M54 227h4M60 227h6M68 227h32M54 228h3M59 228h7M68 228h32M54 229h3M58 229h8M68 229h32M0 230h56M57 230h9M68 230h1M57 231h9M68 231h31M0 232h66M68 232h31M1 263h35M46 265h1M68 265h1M0 266h44M46 266h20M68 266h33M0 267h44M46 267h20M68 267h33M0 268h44M46 268h20M68 268h33M0 269h44M46 269h20M68 269h33M0 270h44M46 270h20M68 270h33M0 271h44M46 271h20M68 271h33M0 272h44M46 272h20M68 272h33M0 273h44M46 273h20M68 273h33M0 274h44M46 274h20M68 274h33M0 275h44M46 275h20M68 275h33M0 276h44M46 276h20M68 276h33M0 277h44M46 277h20M68 277h33M0 278h44M46 278h20M68 278h33M0 279h44M46 279h20M68 279h33M0 280h44M46 280h20M68 280h33M0 281h44M46 281h20M68 281h33M0 282h44M46 282h20M68 282h33M0 283h44M46 283h20M68 283h33M0 284h44M46 284h20M68 284h33M0 285h44M46 285h20M68 285h33M0 286h45M46 286h21M68 286h33M46 287h1M68 287h1M46 288h1M68 288h1M0 289h44M46 289h20M68 289h33M0 290h44M46 290h20M68 290h33M0 291h44M46 291h20M68 291h33M0 292h44M46 292h20M68 292h33M0 293h44M46 293h20M68 293h33M0 294h44M46 294h20M68 294h33M0 295h44M46 295h20M68 295h33M0 296h44M46 296h20M68 296h33M27 297h17M46 297h20M68 297h33M29 298h15M46 298h20M68 298h33M30 299h14M46 299h20M68 299h33M30 300h14M46 300h20M68 300h33M30 301h14M46 301h20M68 301h33M32 302h12M46 302h20M68 302h33M32 303h12M46 303h20M68 303h33M56 304h10M68 304h33M57 305h9M68 305h33M58 306h8M68 306h33M56 307h1M59 307h7M68 307h33M56 308h2M59 308h7M68 308h33M56 309h3M60 309h6M68 309h33M56 310h3M60 310h6M68 310h1M56 311h3M60 311h6M68 311h1M60 312h6M68 312h33M56 313h3M60 313h6M68 313h33M56 314h3M60 314h6M68 314h33M56 315h3M60 315h6M68 315h33M56 316h3M60 316h6M68 316h33M56 317h3M60 317h6M68 317h33M56 318h3M60 318h6M68 318h33M56 319h3M60 319h6M68 319h33M56 320h3M60 320h6M56 321h3M60 321h6M68 321h6M75 321h26M56 322h3M60 322h6M68 322h6M75 322h26M56 323h3M60 323h6M68 323h6M75 323h26M56 324h3M60 324h6M68 324h6M75 324h26M56 325h3M60 325h6M68 325h6M75 325h26M56 326h3M60 326h6M68 326h6M75 326h26M56 327h3M60 327h6M68 327h6M75 327h26M56 328h3M60 328h6M68 328h6M75 328h26M56 329h3M60 329h6M68 329h6M75 329h26M56 330h3M60 330h6M68 330h6M75 330h26M56 331h3M60 331h6M68 331h6M75 331h26M56 332h3M60 332h6M68 332h6M75 332h26M56 333h3M60 333h6M68 333h6M75 333h26M56 334h3M60 334h6M68 334h6M75 334h26M56 335h3M60 335h6M68 335h6M75 335h26M56 336h3M60 336h6M68 336h6M75 336h26M56 337h3M60 337h6M68 337h6M75 337h26M56 338h3M60 338h6M68 338h6M75 338h26M56 339h3M60 339h6M68 339h6M75 339h26M56 340h3M60 340h6M68 340h6M75 340h26M56 341h3M60 341h6M68 341h6M75 341h26M56 342h3M60 342h6M68 342h6M75 342h26M56 343h3M60 343h6M68 343h6M75 343h26M56 344h3M60 344h6M68 344h6M75 344h26M56 345h3M60 345h6M68 345h6M75 345h26M56 346h3M60 346h6M68 346h6M75 346h26M56 347h3M60 347h6M68 347h6M75 347h26M56 348h3M60 348h6M68 348h6M75 348h26M56 349h3M60 349h6M68 349h6M75 349h26M56 350h3M60 350h6M68 350h6M75 350h26M56 351h3M60 351h6M68 351h6M75 351h26M56 352h3M60 352h6M68 352h6M75 352h26M56 353h3M60 353h6M68 353h6M75 353h26M56 354h3M60 354h6M68 354h6M75 354h26M56 355h3M60 355h6M68 355h6M75 355h26M56 356h3M60 356h6M68 356h6M75 356h26M56 357h3M60 357h6M68 357h6M75 357h26M56 358h3M60 358h6M68 358h6M75 358h26M56 359h3M60 359h6M68 359h6M75 359h26M56 360h3M60 360h6M68 360h6M75 360h26M56 361h3M60 361h6M68 361h6M75 361h26M56 362h3M60 362h6M68 362h6M75 362h26M56 363h3M60 363h6M68 363h6M75 363h26M56 364h3M60 364h6M68 364h6M75 364h26M56 365h3M60 365h6M68 365h6M75 365h26M56 366h3M60 366h6M68 366h6M75 366h26M56 367h3M60 367h6M68 367h6M75 367h26M56 368h3M60 368h6M68 368h6M75 368h26M56 369h3M60 369h6M68 369h6M75 369h26M56 370h3M60 370h6M68 370h6M75 370h26M56 371h3M60 371h6M68 371h6M75 371h26M56 372h3M60 372h6M68 372h6M75 372h26M56 373h3M60 373h6M68 373h6M75 373h26M56 374h3M60 374h6M68 374h6M75 374h26M56 375h3M60 375h6M68 375h6M75 375h26M56 376h3M60 376h6M68 376h6M75 376h26M56 377h3M60 377h6M68 377h6M75 377h26M56 378h3M60 378h6M68 378h6M75 378h26M56 379h3M60 379h6M68 379h6M75 379h26M56 380h3M60 380h6M68 380h6M75 380h26M56 381h3M60 381h6M68 381h6M75 381h26M56 382h3M60 382h6M68 382h6M75 382h26M56 383h3M60 383h6M68 383h6M75 383h26M56 384h3M60 384h6M68 384h6M75 384h26M56 385h3M60 385h6M68 385h6M75 385h26M56 386h3M60 386h6M68 386h6M75 386h26M56 387h3M60 387h6M56 388h3M60 388h6M68 388h1M56 389h3M60 389h6M68 389h33M56 390h3M60 390h6M68 390h33M56 391h3M60 391h6M68 391h33M56 392h3M60 392h6M68 392h33M56 393h3M60 393h6M68 393h33M56 394h3M60 394h6M68 394h33M56 395h2M60 395h6M68 395h33M56 396h1M59 396h7M68 396h33M56 397h1M58 397h8M68 397h32M101 397h1M0 398h56M57 398h9M68 398h1M57 399h9M68 399h33M0 400h66M68 400h33M1 439h35M46 441h1M68 441h1M0 442h44M46 442h20M68 442h33M0 443h44M46 443h20M68 443h33M0 444h44M46 444h20M68 444h33M0 445h44M46 445h20M68 445h33M0 446h44M46 446h20M68 446h33M0 447h44M46 447h20M68 447h33M0 448h44M46 448h20M68 448h33M0 449h44M46 449h20M68 449h33M0 450h44M46 450h20M68 450h33M0 451h44M46 451h20M68 451h33M0 452h44M46 452h20M68 452h33M0 453h44M46 453h20M68 453h33M0 454h44M46 454h20M68 454h33M0 455h44M46 455h20M68 455h33M0 456h44M46 456h20M68 456h33M0 457h44M46 457h20M68 457h33M0 458h44M46 458h20M68 458h33M0 459h44M46 459h20M68 459h33M0 460h44M46 460h20M68 460h33M0 461h44M46 461h20M68 461h33M0 462h45M46 462h21M68 462h33M46 463h1M68 463h1M46 464h1M68 464h1M0 465h44M46 465h20M68 465h33M0 466h44M46 466h20M68 466h33M0 467h44M46 467h20M68 467h33M18 468h26M46 468h20M68 468h33M27 469h17M46 469h20M68 469h33M33 470h11M46 470h20M68 470h33M34 471h10M46 471h20M68 471h25M98 471h3M35 472h9M46 472h20M68 472h24M99 472h2M36 473h8M46 473h20M68 473h23M100 473h1M100 479h1M99 480h2M100 481h1M65 485h1M68 485h22M56 492h1M100 499h1M99 500h2M98 501h3M87 502h4M97 502h4M86 503h15M56 504h3M60 504h6M68 504h6M75 504h26" />
<path stroke="#060019" d="M3 0h4M3 1h4M3 2h30M3 3h4M0 4h8M3 5h4M3 6h4M3 7h4M3 8h4M3 9h4M3 10h4M3 11h4M3 12h4M3 13h4M0 14h7M3 15h4M3 16h4M3 17h4M3 18h4M3 19h4M3 20h4M3 21h4M3 22h4M3 23h4M3 24h4M3 25h4M3 26h4M3 27h4M3 28h4M3 29h4M3 30h4M3 31h4M3 32h4M3 33h4M3 34h4M3 35h4M3 36h4M3 37h4M3 38h4M3 39h4M3 40h4M3 41h4M3 42h4M3 43h4M3 44h4M3 45h4M3 46h4M3 47h4M3 48h4M3 49h4M3 50h4M3 51h4M3 52h4M3 53h4M3 54h4M3 55h4M3 56h4M3 57h4M3 58h4M3 59h4M3 60h4M3 61h4M3 62h4M6 63h1M6 64h1M6 65h1M6 66h1M6 67h1M6 68h1M6 69h1M6 70h1M6 71h1M6 72h1M6 73h1M6 74h1M6 75h1M6 76h1M6 77h1M33 78h30M64 78h29M33 79h60M98 79h3M0 80h92M101 80h1M101 81h1M101 82h1M102 83h1M96 84h1M96 85h1M96 86h1M101 86h1M96 87h1M96 88h1M96 89h1M101 89h1M97 90h6M101 91h1M101 92h1M101 93h1M101 94h1M101 95h1M93 96h4M101 96h1M45 97h1M67 97h1M101 97h3M45 98h1M67 98h1M101 98h3M45 99h1M67 99h1M101 99h3M45 100h1M67 100h1M101 100h4M45 101h1M67 101h1M101 101h4M101 102h4M45 103h1M67 103h1M101 103h4M45 104h1M67 104h1M101 104h4M45 105h1M67 105h1M101 105h4M45 106h1M67 106h1M101 106h4M45 107h1M67 107h1M101 107h4M45 108h1M67 108h1M101 108h4M45 109h1M67 109h1M101 109h4M45 110h1M67 110h1M101 110h4M45 111h1M67 111h1M101 111h4M45 112h1M67 112h1M101 112h4M45 113h1M67 113h1M101 113h4M45 114h1M67 114h1M101 114h4M45 115h1M67 115h1M101 115h4M45 116h1M67 116h1M101 116h4M45 117h1M67 117h1M101 117h4M45 118h1M67 118h1M101 118h4M155 118h1M0 119h46M47 119h21M69 119h31M101 119h4M45 120h1M67 120h1M101 120h4M45 121h1M67 121h1M101 121h4M45 122h1M67 122h1M101 122h4M45 123h1M67 123h1M101 123h4M45 124h1M67 124h1M101 124h4M45 125h1M67 125h1M101 125h4M45 126h1M67 126h1M101 126h4M45 127h1M67 127h1M101 127h4M45 128h1M67 128h1M101 128h4M45 129h1M67 129h1M101 129h4M27 130h2M45 130h1M67 130h1M101 130h4M177 130h2M27 131h3M45 131h1M67 131h1M101 131h4M176 131h1M179 131h1M28 132h2M45 132h1M67 132h1M101 132h4M175 132h1M27 133h4M45 133h1M67 133h1M101 133h4M174 133h1M29 134h3M45 134h1M67 134h1M101 134h4M173 134h1M182 134h1M31 135h2M45 135h1M67 135h1M101 135h4M172 135h1M32 136h24M67 136h1M101 136h4M172 136h1M54 137h3M67 137h1M101 137h4M173 137h1M56 138h2M67 138h1M101 138h4M173 138h1M57 139h2M67 139h1M101 139h4M174 139h1M58 140h1M67 140h1M101 140h26M128 140h2M175 140h1M59 141h1M67 141h1M101 141h4M176 141h1M59 142h1M67 142h1M69 142h37M177 142h1M21 143h5M59 143h1M67 143h1M101 143h4M178 143h1M22 144h6M54 144h6M67 144h1M101 144h4M179 144h1M0 145h24M59 145h1M67 145h1M101 145h4M176 145h1M2 146h3M59 146h1M67 146h1M101 146h4M175 146h1M31 147h1M59 147h1M67 147h1M101 147h4M174 147h1M182 147h1M32 148h9M44 148h2M59 148h1M67 148h1M101 148h4M173 148h1M59 149h1M67 149h1M101 149h4M173 149h1M59 150h1M67 150h1M101 150h4M172 150h1M59 151h1M67 151h1M101 151h4M172 151h1M59 152h1M67 152h33M101 152h4M173 152h1M59 153h1M67 153h1M74 153h1M101 153h4M59 154h1M67 154h1M74 154h1M101 154h4M175 154h1M59 155h1M67 155h1M74 155h1M101 155h4M176 155h1M59 156h1M67 156h1M74 156h1M101 156h4M177 156h1M59 157h1M67 157h1M74 157h1M101 157h4M178 157h1M59 158h1M67 158h1M74 158h1M101 158h4M180 158h1M59 159h1M67 159h1M74 159h1M101 159h4M180 159h1M59 160h1M67 160h1M74 160h1M101 160h4M181 160h1M59 161h1M67 161h1M74 161h1M101 161h4M182 161h1M185 161h1M59 162h1M67 162h1M74 162h1M101 162h4M182 162h1M59 163h1M67 163h1M74 163h1M101 163h4M184 163h1M59 164h1M67 164h1M74 164h1M101 164h4M59 165h1M67 165h1M74 165h1M101 165h4M59 166h1M67 166h1M74 166h1M101 166h4M59 167h1M67 167h1M74 167h1M101 167h4M59 168h1M67 168h1M74 168h1M101 168h4M59 169h1M67 169h1M74 169h1M101 169h4M59 170h1M67 170h1M74 170h1M101 170h4M59 171h1M67 171h1M74 171h1M101 171h4M59 172h1M67 172h1M74 172h1M101 172h4M59 173h1M67 173h1M74 173h1M101 173h4M59 174h1M67 174h1M74 174h1M101 174h4M59 175h1M67 175h1M74 175h1M101 175h4M59 176h1M67 176h1M74 176h1M101 176h4M59 177h1M67 177h1M74 177h1M101 177h4M59 178h1M67 178h1M74 178h1M101 178h4M59 179h1M67 179h1M74 179h1M101 179h4M59 180h1M67 180h1M74 180h1M101 180h4M59 181h1M67 181h1M74 181h1M101 181h4M59 182h1M67 182h1M74 182h1M101 182h4M59 183h1M67 183h1M74 183h1M101 183h4M59 184h1M67 184h1M74 184h1M101 184h4M59 185h1M67 185h1M74 185h1M101 185h4M59 186h1M67 186h1M74 186h1M101 186h4M59 187h1M67 187h1M74 187h1M101 187h4M59 188h1M67 188h1M74 188h1M101 188h4M59 189h1M67 189h1M74 189h1M101 189h4M59 190h1M67 190h1M74 190h1M101 190h4M59 191h1M67 191h1M74 191h1M101 191h4M59 192h1M67 192h1M74 192h1M101 192h4M59 193h1M67 193h1M74 193h1M101 193h4M59 194h1M67 194h1M74 194h1M101 194h4M59 195h1M67 195h1M74 195h1M101 195h4M59 196h1M67 196h1M74 196h1M101 196h4M59 197h1M67 197h1M74 197h1M101 197h4M59 198h1M67 198h1M74 198h1M101 198h4M59 199h1M67 199h1M74 199h1M101 199h4M59 200h1M67 200h1M74 200h1M101 200h4M59 201h1M67 201h1M74 201h1M101 201h4M59 202h1M67 202h1M74 202h1M101 202h4M59 203h1M67 203h1M74 203h1M101 203h4M59 204h1M67 204h1M74 204h1M101 204h4M59 205h1M67 205h1M74 205h1M101 205h4M59 206h1M67 206h1M74 206h1M101 206h4M59 207h1M67 207h1M74 207h1M101 207h4M59 208h1M67 208h1M74 208h1M101 208h4M59 209h1M67 209h1M74 209h1M101 209h4M59 210h1M67 210h1M74 210h1M101 210h4M59 211h1M67 211h1M74 211h1M101 211h4M59 212h1M67 212h1M74 212h1M101 212h4M59 213h1M67 213h1M74 213h1M101 213h4M59 214h1M67 214h1M74 214h1M101 214h26M128 214h2M59 215h1M67 215h1M74 215h1M101 215h4M59 216h1M67 216h1M74 216h1M101 216h4M59 217h1M67 217h1M74 217h1M101 217h4M59 218h1M67 218h1M74 218h1M101 218h4M59 219h1M67 219h38M59 220h1M67 220h1M101 220h4M59 221h1M67 221h1M101 221h4M59 222h1M67 222h1M101 222h4M59 223h1M67 223h1M101 223h4M59 224h1M67 224h1M101 224h3M59 225h1M67 225h1M101 225h4M59 226h1M67 226h1M101 226h4M58 227h2M67 227h1M101 227h4M57 228h2M67 228h1M101 228h4M57 229h1M67 229h1M100 229h1M102 229h3M56 230h1M67 230h1M100 230h1M102 230h3M0 231h57M67 231h1M101 231h4M67 232h1M101 232h4M0 233h99M102 233h25M102 234h1M0 238h127M128 238h39M101 248h1M101 249h1M103 249h2M101 250h4M96 251h9M96 252h1M101 252h4M96 253h1M101 253h4M96 254h1M101 254h4M96 255h1M101 255h4M96 256h1M101 256h4M96 257h1M101 257h4M97 258h8M101 259h1M103 259h2M101 260h1M103 260h2M101 261h1M103 261h2M101 262h1M103 262h2M101 263h1M103 263h2M0 264h45M95 264h4M101 264h1M103 264h2M45 265h1M67 265h1M101 265h4M45 266h1M67 266h1M101 266h4M45 267h1M67 267h1M101 267h4M45 268h1M67 268h1M101 268h4M45 269h1M67 269h1M101 269h4M45 270h1M67 270h1M101 270h4M45 271h1M67 271h1M101 271h4M45 272h1M67 272h1M101 272h4M45 273h1M67 273h1M101 273h4M45 274h1M67 274h1M101 274h4M45 275h1M67 275h1M101 275h4M45 276h1M67 276h1M101 276h4M45 277h1M67 277h1M101 277h4M45 278h1M67 278h1M101 278h4M45 279h1M67 279h1M101 279h4M45 280h1M67 280h1M101 280h4M45 281h1M67 281h1M101 281h4M45 282h1M67 282h1M101 282h4M45 283h1M67 283h1M101 283h4M45 284h1M67 284h1M101 284h4M45 285h1M67 285h1M101 285h4M45 286h1M67 286h1M101 286h4M0 287h46M47 287h21M69 287h36M45 288h1M67 288h1M101 288h4M45 289h1M67 289h1M101 289h4M45 290h1M67 290h1M101 290h4M45 291h1M67 291h1M101 291h4M45 292h1M67 292h1M101 292h4M45 293h1M67 293h1M101 293h4M45 294h1M67 294h1M101 294h4M45 295h1M67 295h1M101 295h4M45 296h1M67 296h1M101 296h4M45 297h1M67 297h1M101 297h4M45 298h1M67 298h1M101 298h4M29 299h1M45 299h1M67 299h1M101 299h4M45 300h1M67 300h1M101 300h4M45 301h1M67 301h1M101 301h4M45 302h1M67 302h1M101 302h4M45 303h1M67 303h1M101 303h4M33 304h23M67 304h1M101 304h4M56 305h1M67 305h1M101 305h4M56 306h2M67 306h1M101 306h4M57 307h2M67 307h1M101 307h4M58 308h1M67 308h1M101 308h26M128 308h3M59 309h1M67 309h1M101 309h4M59 310h1M67 310h1M69 310h37M59 311h1M67 311h1M101 311h4M56 312h4M67 312h1M101 312h4M0 313h26M59 313h1M67 313h1M101 313h4M2 314h3M59 314h1M67 314h1M101 314h4M31 315h1M59 315h1M67 315h1M101 315h4M32 316h11M59 316h1M67 316h1M101 316h4M59 317h1M67 317h1M101 317h4M59 318h1M67 318h1M101 318h4M59 319h1M67 319h1M101 319h4M59 320h1M67 320h38M59 321h1M67 321h1M74 321h1M101 321h4M59 322h1M67 322h1M74 322h1M101 322h4M59 323h1M67 323h1M74 323h1M101 323h4M59 324h1M67 324h1M74 324h1M101 324h4M59 325h1M67 325h1M74 325h1M101 325h4M59 326h1M67 326h1M74 326h1M101 326h4M59 327h1M67 327h1M74 327h1M101 327h4M59 328h1M67 328h1M74 328h1M101 328h4M59 329h1M67 329h1M74 329h1M101 329h4M59 330h1M67 330h1M74 330h1M101 330h4M59 331h1M67 331h1M74 331h1M101 331h4M59 332h1M67 332h1M74 332h1M101 332h4M59 333h1M67 333h1M74 333h1M101 333h4M59 334h1M67 334h1M74 334h1M101 334h4M59 335h1M67 335h1M74 335h1M101 335h4M59 336h1M67 336h1M74 336h1M101 336h4M59 337h1M67 337h1M74 337h1M101 337h4M59 338h1M67 338h1M74 338h1M101 338h4M59 339h1M67 339h1M74 339h1M101 339h4M59 340h1M67 340h1M74 340h1M101 340h4M59 341h1M67 341h1M74 341h1M101 341h4M59 342h1M67 342h1M74 342h1M101 342h4M59 343h1M67 343h1M74 343h1M101 343h4M59 344h1M67 344h1M74 344h1M101 344h4M59 345h1M67 345h1M74 345h1M101 345h4M59 346h1M67 346h1M74 346h1M101 346h4M59 347h1M67 347h1M74 347h1M101 347h4M59 348h1M67 348h1M74 348h1M101 348h4M59 349h1M67 349h1M74 349h1M101 349h4M59 350h1M67 350h1M74 350h1M101 350h4M59 351h1M67 351h1M74 351h1M101 351h4M59 352h1M67 352h1M74 352h1M101 352h4M59 353h1M67 353h1M74 353h1M101 353h4M59 354h1M67 354h1M74 354h1M101 354h4M59 355h1M67 355h1M74 355h1M101 355h4M59 356h1M67 356h1M74 356h1M101 356h4M59 357h1M67 357h1M74 357h1M101 357h4M59 358h1M67 358h1M74 358h1M101 358h4M59 359h1M67 359h1M74 359h1M101 359h4M59 360h1M67 360h1M74 360h1M101 360h4M59 361h1M67 361h1M74 361h1M101 361h4M59 362h1M67 362h1M74 362h1M101 362h4M59 363h1M67 363h1M74 363h1M101 363h4M59 364h1M67 364h1M74 364h1M101 364h4M59 365h1M67 365h1M74 365h1M101 365h4M59 366h1M67 366h1M74 366h1M101 366h4M59 367h1M67 367h1M74 367h1M101 367h4M59 368h1M67 368h1M74 368h1M101 368h4M59 369h1M67 369h1M74 369h1M101 369h4M59 370h1M67 370h1M74 370h1M101 370h4M59 371h1M67 371h1M74 371h1M101 371h4M59 372h1M67 372h1M74 372h1M101 372h4M59 373h1M67 373h1M74 373h1M101 373h4M59 374h1M67 374h1M74 374h1M101 374h4M59 375h1M67 375h1M74 375h1M101 375h4M59 376h1M67 376h1M74 376h1M101 376h4M59 377h1M67 377h1M74 377h1M101 377h4M59 378h1M67 378h1M74 378h1M101 378h4M59 379h1M67 379h1M74 379h1M101 379h4M59 380h1M67 380h1M74 380h1M101 380h4M59 381h1M67 381h1M74 381h1M101 381h4M59 382h1M67 382h1M74 382h1M101 382h26M128 382h4M59 383h1M67 383h1M74 383h1M101 383h4M59 384h1M67 384h1M74 384h1M101 384h4M59 385h1M67 385h1M74 385h1M101 385h4M59 386h1M67 386h1M74 386h1M101 386h4M59 387h1M67 387h38M59 388h1M67 388h1M101 388h4M59 389h1M67 389h1M101 389h4M59 390h1M67 390h1M101 390h4M59 391h1M67 391h1M101 391h3M59 392h1M67 392h1M101 392h3M59 393h1M67 393h1M101 393h3M59 394h1M67 394h1M101 394h4M58 395h2M67 395h1M101 395h4M57 396h2M67 396h1M101 396h4M57 397h1M67 397h1M100 397h1M102 397h3M56 398h1M67 398h1M100 398h1M102 398h3M0 399h57M67 399h1M101 399h4M67 400h1M101 400h4M0 401h101M102 401h25M128 401h2M102 402h1M0 406h127M128 406h95M141 414h83M140 415h84M0 422h104M0 423h104M101 424h1M101 425h1M103 425h2M101 426h4M96 427h9M96 428h1M101 428h4M96 429h1M101 429h4M96 430h1M101 430h4M96 431h1M101 431h4M96 432h1M101 432h4M96 433h1M101 433h4M97 434h8M101 435h1M103 435h2M101 436h1M103 436h2M101 437h1M103 437h2M101 438h1M103 438h2M101 439h1M103 439h2M0 440h45M95 440h4M101 440h1M103 440h2M45 441h1M67 441h1M101 441h4M45 442h1M67 442h1M101 442h4M45 443h1M67 443h1M101 443h4M45 444h1M67 444h1M101 444h4M45 445h1M67 445h1M101 445h4M45 446h1M67 446h1M101 446h4M45 447h1M67 447h1M101 447h4M45 448h1M67 448h1M101 448h4M45 449h1M67 449h1M101 449h4M45 450h1M67 450h1M101 450h4M45 451h1M67 451h1M101 451h4M45 452h1M67 452h1M101 452h4M45 453h1M67 453h1M101 453h4M45 454h1M67 454h1M101 454h4M45 455h1M67 455h1M101 455h4M45 456h1M67 456h1M101 456h4M45 457h1M67 457h1M101 457h4M45 458h1M67 458h1M101 458h4M45 459h1M67 459h1M101 459h4M45 460h1M67 460h1M101 460h4M45 461h1M67 461h1M101 461h4M45 462h1M67 462h1M101 462h4M0 463h46M47 463h21M69 463h36M45 464h1M67 464h1M101 464h4M45 465h1M67 465h1M101 465h4M45 466h1M67 466h1M101 466h4M45 467h1M67 467h1M101 467h4M45 468h1M67 468h1M101 468h4M45 469h1M67 469h1M101 469h4M45 470h1M67 470h1M101 470h4M45 471h1M67 471h1M101 471h4M45 472h1M67 472h1M101 472h4M0 473h24M45 473h1M67 473h1M101 473h4M0 474h29M45 474h1M67 474h1M101 474h4M0 475h30M45 475h1M67 475h1M101 475h4M0 476h30M45 476h1M67 476h1M101 476h4M0 477h30M45 477h1M67 477h1M101 477h4M0 478h29M45 478h1M67 478h1M101 478h4M0 479h5M8 479h6M17 479h5M45 479h1M67 479h1M101 479h4M1 480h5M9 480h6M18 480h5M33 480h23M67 480h1M101 480h4M7 481h1M10 481h6M19 481h5M33 481h24M67 481h1M101 481h4M3 482h6M12 482h5M20 482h6M56 482h2M67 482h1M101 482h4M4 483h6M13 483h5M21 483h6M57 483h2M67 483h1M101 483h4M6 484h5M14 484h6M22 484h6M58 484h1M67 484h1M101 484h26M128 484h3M0 485h1M7 485h5M15 485h6M24 485h5M59 485h1M67 485h1M101 485h4M0 486h3M8 486h5M16 486h6M25 486h5M59 486h1M67 486h1M69 486h37M0 487h4M9 487h5M18 487h5M26 487h5M59 487h1M67 487h1M101 487h4M0 488h5M10 488h4M19 488h4M27 488h4M45 488h15M67 488h1M101 488h4M0 489h31M45 489h1M59 489h1M67 489h1M101 489h4M2 490h3M29 490h2M45 490h1M59 490h1M67 490h1M101 490h4M31 491h1M45 491h1M59 491h1M67 491h1M101 491h4M32 492h14M59 492h1M67 492h1M101 492h4M59 493h1M67 493h1M101 493h4M59 494h1M67 494h1M101 494h4M59 495h1M67 495h1M101 495h4M59 496h1M67 496h38M59 497h1M67 497h1M74 497h1M101 497h4M59 498h1M67 498h1M74 498h1M101 498h4M59 499h1M67 499h1M74 499h1M101 499h4M59 500h1M67 500h1M74 500h1M101 500h4M59 501h1M67 501h1M74 501h1M101 501h4M59 502h1M67 502h1M74 502h1M101 502h4M59 503h1M67 503h1M74 503h1M101 503h4M59 504h1M67 504h1M74 504h1M101 504h4M101 505h3" />
<path stroke="#604da2" d="M7 0h25M7 1h25M11 3h2M8 4h3M13 4h19M7 5h25M7 6h25M7 7h25M7 8h25M7 9h25M7 10h25M7 11h25M7 12h25M7 13h25M7 14h25M7 15h25M7 16h25M7 17h25M7 18h25M7 19h25M7 20h25M7 21h25M7 22h25M7 23h25M7 24h25M7 25h25M7 26h25M7 27h25M7 28h25M7 29h25M7 30h25M7 31h25M7 32h25M7 33h25M7 34h25M7 35h25M7 36h25M7 37h25M7 38h25M7 39h25M7 40h25M7 41h25M7 42h25M7 43h25M7 44h25M7 45h25M7 46h25M7 47h25M7 48h25M7 49h25M7 50h25M7 51h25M7 52h25M7 53h25M7 54h25M7 55h25M7 56h25M7 57h25M7 58h25M7 59h25M7 60h25M7 61h25M7 62h25M7 63h25M7 64h25M7 65h25M7 66h23M7 67h25M7 68h25M7 69h25M7 70h25M7 71h25M7 72h25M7 73h25M7 74h25M7 75h25M85 83h3M92 83h2M92 84h2M92 85h4M93 86h3M93 87h2M93 88h2M93 89h3M95 90h2M96 91h4M99 92h1M94 94h6M105 94h1M105 95h2M105 96h3M105 97h4M105 98h5M105 99h6M105 100h7M105 101h8M105 102h9M105 103h10M105 104h11M105 105h12M105 106h13M105 107h14M105 108h15M105 109h16M105 110h17M105 111h18M105 112h19M105 113h20M105 114h21M105 115h22M128 115h1M105 116h22M128 116h1M130 116h13M105 117h22M128 117h1M130 117h19M150 117h1M105 118h22M128 118h1M130 118h19M150 118h5M105 119h22M128 119h1M130 119h19M150 119h9M105 120h20M126 120h1M128 120h1M130 120h19M150 120h12M105 121h22M128 121h1M130 121h19M150 121h14M105 122h22M128 122h1M130 122h1M147 122h2M160 122h5M105 123h22M148 123h1M165 123h2M105 124h22M166 124h2M105 125h22M105 126h22M105 127h22M105 128h22M105 129h22M105 130h22M105 131h22M105 132h22M105 133h22M105 134h22M105 135h22M105 136h22M105 137h22M105 138h22M105 139h22M109 141h2M106 142h3M111 142h16M105 143h22M128 143h1M105 144h22M128 144h1M105 145h22M128 145h1M105 146h22M128 146h1M105 147h22M128 147h1M105 148h22M128 148h1M105 149h22M128 149h1M105 150h22M105 151h22M105 152h22M105 153h22M105 154h22M105 155h22M105 156h22M105 157h22M105 158h22M105 159h22M105 160h22M105 161h22M105 162h22M105 163h22M105 164h22M105 165h22M105 166h22M105 167h22M105 168h22M105 169h22M105 170h22M105 171h22M105 172h22M105 173h22M105 174h22M105 175h22M105 176h22M105 177h22M105 178h22M105 179h22M105 180h22M105 181h22M105 182h22M105 183h22M105 184h22M105 185h22M105 186h22M105 187h22M105 188h22M105 189h22M105 190h22M105 191h22M105 192h22M105 193h22M105 194h22M105 195h22M105 196h22M105 197h22M105 198h22M105 199h22M105 200h22M105 201h22M105 202h22M105 203h22M105 204h22M105 205h22M105 206h22M105 207h22M105 208h22M105 209h22M105 210h22M105 211h22M105 212h22M105 213h22M105 249h22M128 249h2M105 250h22M128 250h2M105 251h22M128 251h2M105 252h22M128 252h2M105 253h22M128 253h2M105 254h22M128 254h2M105 255h22M128 255h2M105 256h22M128 256h2M105 257h22M128 257h2M105 258h22M128 258h2M105 259h22M128 259h2M105 260h22M128 260h2M105 261h22M128 261h2M105 262h22M128 262h2M105 263h22M128 263h2M105 264h22M128 264h2M105 265h22M128 265h2M105 266h22M128 266h2M105 267h22M128 267h2M105 268h22M128 268h2M105 269h22M128 269h2M105 270h22M128 270h2M105 271h22M128 271h2M105 272h22M128 272h2M105 273h22M128 273h2M105 274h22M128 274h2M105 275h22M128 275h2M105 276h22M128 276h2M105 277h22M128 277h2M105 278h22M128 278h2M105 279h22M128 279h2M105 280h22M128 280h2M105 281h22M128 281h2M105 282h22M128 282h2M105 283h22M128 283h2M105 284h22M128 284h2M105 285h22M128 285h2M105 286h22M128 286h2M105 287h22M128 287h2M105 288h22M128 288h2M105 289h22M128 289h2M105 290h22M128 290h2M105 291h22M128 291h2M105 292h22M128 292h2M105 293h22M128 293h2M105 294h22M128 294h2M105 295h22M128 295h2M105 296h22M128 296h2M105 297h22M128 297h2M105 298h22M128 298h2M105 299h22M128 299h2M105 300h22M128 300h2M105 301h22M128 301h2M105 302h22M128 302h2M105 303h22M128 303h2M105 304h22M128 304h2M105 305h22M128 305h2M105 306h22M128 306h2M105 307h22M128 307h2M109 309h2M106 310h3M111 310h16M128 310h2M105 311h22M128 311h2M105 312h22M128 312h2M105 313h22M128 313h2M105 314h22M128 314h2M105 315h22M128 315h2M105 316h22M128 316h2M105 317h22M128 317h2M105 318h22M128 318h2M105 319h22M128 319h2M105 320h22M128 320h2M105 321h22M128 321h2M105 322h22M128 322h2M105 323h22M128 323h2M105 324h22M128 324h2M105 325h22M128 325h2M105 326h22M128 326h2M105 327h22M128 327h2M105 328h22M128 328h2M105 329h22M128 329h2M105 330h22M128 330h2M105 331h22M128 331h2M105 332h22M128 332h2M105 333h22M128 333h2M105 334h22M128 334h2M105 335h22M128 335h2M105 336h22M128 336h2M105 337h22M128 337h2M105 338h22M128 338h2M105 339h22M128 339h2M105 340h22M128 340h2M105 341h22M128 341h2M105 342h22M128 342h2M105 343h22M128 343h2M105 344h22M128 344h2M105 345h22M128 345h2M105 346h22M128 346h2M105 347h22M128 347h2M105 348h22M128 348h2M105 349h22M128 349h2M105 350h22M128 350h2M105 351h22M128 351h2M105 352h22M128 352h2M105 353h22M128 353h2M105 354h22M128 354h2M105 355h22M128 355h2M105 356h22M128 356h2M105 357h22M128 357h2M105 358h22M128 358h2M105 359h22M128 359h2M105 360h22M128 360h2M105 361h22M128 361h2M105 362h22M128 362h2M105 363h22M128 363h2M105 364h22M128 364h2M105 365h22M128 365h2M105 366h22M128 366h2M105 367h22M128 367h2M105 368h22M128 368h2M105 369h22M128 369h2M105 370h22M128 370h2M105 371h22M128 371h2M105 372h22M128 372h2M105 373h22M128 373h2M105 374h22M128 374h2M105 375h22M128 375h2M105 376h22M128 376h2M105 377h22M128 377h2M105 378h22M128 378h2M105 379h22M128 379h2M105 380h22M128 380h2M105 381h22M128 381h2M105 425h22M128 425h2M105 426h22M128 426h2M105 427h22M128 427h2M105 428h22M128 428h2M105 429h22M128 429h2M105 430h22M128 430h2M105 431h22M128 431h2M105 432h22M128 432h2M105 433h22M128 433h2M105 434h22M128 434h2M105 435h22M128 435h2M105 436h22M128 436h2M105 437h22M128 437h2M105 438h22M128 438h2M105 439h22M128 439h2M105 440h22M128 440h2M105 441h22M128 441h2M105 442h22M128 442h2M105 443h22M128 443h2M105 444h22M128 444h2M105 445h22M128 445h2M105 446h22M128 446h2M105 447h22M128 447h2M105 448h22M128 448h2M105 449h22M128 449h2M105 450h22M128 450h2M105 451h22M128 451h2M105 452h22M128 452h2M105 453h22M128 453h2M105 454h22M128 454h2M105 455h22M128 455h2M105 456h22M128 456h2M105 457h22M128 457h2M105 458h22M128 458h2M105 459h22M128 459h2M105 460h22M128 460h2M105 461h22M128 461h2M105 462h22M128 462h2M105 463h22M128 463h2M105 464h22M128 464h2M105 465h22M128 465h2M105 466h22M128 466h2M105 467h22M128 467h2M105 468h22M128 468h2M105 469h22M128 469h2M105 470h22M128 470h2M105 471h22M128 471h2M105 472h22M128 472h2M105 473h22M128 473h2M44 474h1M66 474h1M105 474h22M128 474h2M44 475h1M66 475h1M105 475h22M128 475h2M44 476h1M66 476h1M105 476h22M128 476h2M44 477h1M66 477h1M105 477h22M128 477h2M44 478h1M66 478h1M105 478h22M128 478h2M44 479h1M66 479h1M105 479h22M128 479h2M66 480h1M105 480h22M128 480h2M66 481h1M105 481h22M128 481h2M66 482h1M105 482h22M128 482h2M66 483h1M105 483h22M128 483h2M66 484h1M109 485h2M66 486h1M106 486h3M111 486h16M128 486h2M66 487h1M69 487h32M105 487h22M128 487h2M66 488h1M105 488h22M128 488h2M66 489h1M105 489h22M128 489h2M66 490h1M105 490h22M128 490h2M66 491h1M105 491h22M128 491h2M66 492h1M105 492h22M128 492h2M66 493h1M105 493h22M128 493h2M66 494h1M105 494h22M128 494h2M66 495h1M105 495h22M128 495h2M66 496h1M105 496h22M128 496h2M66 497h1M105 497h22M128 497h2M66 498h1M105 498h22M128 498h2M66 499h1M105 499h22M128 499h2M66 500h1M105 500h22M128 500h2M66 501h1M105 501h22M128 501h2M66 502h1M105 502h21M128 502h2M105 503h21M128 503h2M105 504h21M128 504h2" />
<path stroke="#8572c7" d="M32 0h1M32 1h1M7 3h4M13 3h20M11 4h2M32 4h1M32 5h1M32 6h1M32 7h1M32 8h1M32 9h1M32 10h1M32 11h1M32 12h1M32 13h1M32 14h1M32 15h1M32 16h1M32 17h1M32 18h1M32 19h1M32 20h1M32 21h1M32 22h1M32 23h1M32 24h1M32 25h1M32 26h1M32 27h1M32 28h1M32 29h1M32 30h1M32 31h1M32 32h1M32 33h1M32 34h1M32 35h1M32 36h1M32 37h1M32 38h1M32 39h1M32 40h1M32 41h1M32 42h1M32 43h1M32 44h1M32 45h1M32 46h1M32 47h1M32 48h1M32 49h1M32 50h1M32 51h1M32 52h1M32 53h1M32 54h1M32 55h1M32 56h1M32 57h1M32 58h1M32 59h1M32 60h1M32 61h1M32 62h1M32 63h1M32 64h1M32 65h1M32 67h1M32 68h1M32 69h1M32 70h1M32 71h1M32 72h1M32 73h1M32 74h1M105 141h4M111 141h16M109 142h2M130 249h1M130 250h1M130 251h1M130 252h1M130 253h1M130 254h1M130 255h1M130 256h1M130 257h1M130 258h1M130 259h1M130 260h1M130 261h1M130 262h1M130 263h1M130 264h1M130 265h1M130 266h1M130 267h1M130 268h1M130 269h1M130 270h1M130 271h1M130 272h1M130 273h1M130 274h1M130 275h1M130 276h1M130 277h1M130 278h1M130 279h1M130 280h1M130 281h1M130 282h1M130 283h1M130 284h1M130 285h1M130 286h1M130 287h1M130 288h1M130 289h1M130 290h1M130 291h1M130 292h1M130 293h1M130 294h1M130 295h1M130 296h1M130 297h1M130 298h1M130 299h1M130 300h1M130 301h1M130 302h1M130 303h1M130 304h1M130 305h1M130 306h1M130 307h1M105 309h4M111 309h16M128 309h3M109 310h2M130 310h1M130 311h1M130 312h1M130 313h1M130 314h1M130 315h1M130 316h1M130 317h1M130 318h1M130 319h1M130 320h1M130 321h1M130 322h1M130 323h1M130 324h1M130 325h1M130 326h1M130 327h1M130 328h1M130 329h1M130 330h1M130 331h1M130 332h1M130 333h1M130 334h1M130 335h1M130 336h1M130 337h1M130 338h1M130 339h1M130 340h1M130 341h1M130 342h1M130 343h1M130 344h1M130 345h1M130 346h1M130 347h1M130 348h1M130 349h1M130 350h1M130 351h1M130 352h1M130 353h1M130 354h1M130 355h1M130 356h1M130 357h1M130 358h1M130 359h1M130 360h1M130 361h1M130 362h1M130 363h1M130 364h1M130 365h1M130 366h1M130 367h1M130 368h1M130 369h1M130 370h1M130 371h1M130 372h1M130 373h1M130 374h1M130 375h1M130 376h1M130 377h1M130 378h1M130 379h1M130 380h1M130 425h1M130 426h1M130 427h1M130 428h1M130 429h1M130 430h1M130 431h1M130 432h1M130 433h1M130 434h1M130 435h1M130 436h1M130 437h1M130 438h1M130 439h1M130 440h1M130 441h1M130 442h1M130 443h1M130 444h1M130 445h1M130 446h1M130 447h1M130 448h1M130 449h1M130 450h1M130 451h1M130 452h1M130 453h1M130 454h1M130 455h1M130 456h1M130 457h1M130 458h1M130 459h1M130 460h1M130 461h1M130 462h1M130 463h1M130 464h1M130 465h1M130 466h1M130 467h1M130 468h1M130 469h1M130 470h1M130 471h1M130 472h1M130 473h1M130 474h1M130 475h1M130 476h1M130 477h1M130 478h1M130 479h1M130 480h1M130 481h1M130 482h1M130 483h1M105 485h4M111 485h16M128 485h3M109 486h2M130 486h1M130 487h1M130 488h1M130 489h1M130 490h1M130 491h1M130 492h1M130 493h1M130 494h1M130 495h1M130 496h1M130 497h1M130 498h1M130 499h1M130 500h1M130 501h1M130 502h1" />
<path stroke="#130055" d="M33 0h1M36 0h1M46 0h1M53 0h1M65 0h1M67 0h1M79 0h1M82 0h1M85 0h1M33 1h1M36 1h1M46 1h1M53 1h1M65 1h1M67 1h1M79 1h1M82 1h1M85 1h1M33 2h1M36 2h1M46 2h1M53 2h1M65 2h1M67 2h1M79 2h1M82 2h1M85 2h1M33 3h1M36 3h1M46 3h1M53 3h1M65 3h1M67 3h1M79 3h1M82 3h1M85 3h1M33 4h1M36 4h1M46 4h1M53 4h1M65 4h1M67 4h1M79 4h1M82 4h1M85 4h1M33 5h1M36 5h1M46 5h1M53 5h1M65 5h1M67 5h1M79 5h1M82 5h1M85 5h1M33 6h1M36 6h1M46 6h1M53 6h1M65 6h1M67 6h1M79 6h1M82 6h1M85 6h1M33 7h1M36 7h1M46 7h1M53 7h1M65 7h1M67 7h1M79 7h1M82 7h1M85 7h1M33 8h1M36 8h1M46 8h1M53 8h1M65 8h1M67 8h1M79 8h1M82 8h1M85 8h1M33 9h1M36 9h1M46 9h1M53 9h1M65 9h1M67 9h1M79 9h1M82 9h1M85 9h1M33 10h1M36 10h1M46 10h1M53 10h1M65 10h1M67 10h1M79 10h1M82 10h1M85 10h1M33 11h1M36 11h1M46 11h1M53 11h1M65 11h1M67 11h1M79 11h1M82 11h1M85 11h1M33 12h1M36 12h1M46 12h1M53 12h1M65 12h1M67 12h1M79 12h1M82 12h1M85 12h1M33 13h1M36 13h1M46 13h1M53 13h1M65 13h1M67 13h1M79 13h1M82 13h1M85 13h1M33 14h1M36 14h1M46 14h1M53 14h1M65 14h1M67 14h1M79 14h1M82 14h1M85 14h1M33 15h1M36 15h1M46 15h1M53 15h1M65 15h1M67 15h1M79 15h1M82 15h1M85 15h1M33 16h1M36 16h1M46 16h1M53 16h1M65 16h1M67 16h1M79 16h1M82 16h1M85 16h1M33 17h1M36 17h1M46 17h1M53 17h1M65 17h1M67 17h1M79 17h1M82 17h1M85 17h1M33 18h1M36 18h1M46 18h1M53 18h1M65 18h1M67 18h1M79 18h1M82 18h1M85 18h1M33 19h1M36 19h1M46 19h1M53 19h1M65 19h1M67 19h1M79 19h1M82 19h1M85 19h1M33 20h1M36 20h1M46 20h1M53 20h1M65 20h1M67 20h1M79 20h1M82 20h1M85 20h1M33 21h1M36 21h1M46 21h1M53 21h1M65 21h1M67 21h1M79 21h1M82 21h1M85 21h1M33 22h1M36 22h1M46 22h1M53 22h1M65 22h1M67 22h1M79 22h1M82 22h1M85 22h1M33 23h1M36 23h1M46 23h1M53 23h1M65 23h1M67 23h1M79 23h1M82 23h1M85 23h1M33 24h1M36 24h1M46 24h1M53 24h1M65 24h1M67 24h1M79 24h1M82 24h1M85 24h1M33 25h1M36 25h1M46 25h1M53 25h1M65 25h1M67 25h1M79 25h1M82 25h1M85 25h1M33 26h1M36 26h1M46 26h1M53 26h1M65 26h1M67 26h1M79 26h1M82 26h1M85 26h1M33 27h1M36 27h1M46 27h1M53 27h1M65 27h1M67 27h1M79 27h1M82 27h1M85 27h1M33 28h1M36 28h1M46 28h1M53 28h1M65 28h1M67 28h1M79 28h1M82 28h1M85 28h1M33 29h1M36 29h1M46 29h1M53 29h1M65 29h1M67 29h1M79 29h1M82 29h1M85 29h1M33 30h1M36 30h1M46 30h1M53 30h1M65 30h1M67 30h1M79 30h1M82 30h1M85 30h1M33 31h1M36 31h1M46 31h1M53 31h1M65 31h1M67 31h1M79 31h1M82 31h1M85 31h1M33 32h1M36 32h1M46 32h1M53 32h1M65 32h1M67 32h1M79 32h1M82 32h1M85 32h1M33 33h1M36 33h1M46 33h1M53 33h1M65 33h1M67 33h1M79 33h1M82 33h1M85 33h1M33 34h1M36 34h1M46 34h1M53 34h1M65 34h1M67 34h1M79 34h1M82 34h1M85 34h1M33 35h1M36 35h1M46 35h1M53 35h1M65 35h1M67 35h1M79 35h1M82 35h1M85 35h1M33 36h1M36 36h1M46 36h1M53 36h1M65 36h1M67 36h1M79 36h1M82 36h1M85 36h1M33 37h1M36 37h1M46 37h1M53 37h1M65 37h1M67 37h1M79 37h1M82 37h1M85 37h1M33 38h1M36 38h1M46 38h1M53 38h1M65 38h1M67 38h1M79 38h1M82 38h1M85 38h1M33 39h1M36 39h1M46 39h1M53 39h1M65 39h1M67 39h1M79 39h1M82 39h1M85 39h1M33 40h1M36 40h1M46 40h1M53 40h1M65 40h1M67 40h1M79 40h1M82 40h1M85 40h1M33 41h1M36 41h1M46 41h1M53 41h1M65 41h1M67 41h1M79 41h1M82 41h1M85 41h1M33 42h1M36 42h1M46 42h1M53 42h1M65 42h1M67 42h1M79 42h1M82 42h1M85 42h1M33 43h1M36 43h1M46 43h1M53 43h1M65 43h1M67 43h1M79 43h1M82 43h1M85 43h1M33 44h1M36 44h1M46 44h37M85 44h1M33 45h1M36 45h1M46 45h1M52 45h1M82 45h1M85 45h1M33 46h1M36 46h1M46 46h1M52 46h1M82 46h1M85 46h1M33 47h1M36 47h1M46 47h37M33 48h1M36 48h1M46 48h1M82 48h1M158 48h1M33 49h1M36 49h1M46 49h1M83 49h1M157 49h4M33 50h1M36 50h1M46 50h1M83 50h1M86 50h1M157 50h1M159 50h1M161 50h1M33 51h1M36 51h1M46 51h1M84 51h1M86 51h1M155 51h2M160 51h2M33 52h1M36 52h1M46 52h1M84 52h3M155 52h1M161 52h2M33 53h1M36 53h1M46 53h1M85 53h2M154 53h1M162 53h2M33 54h1M36 54h1M46 54h1M86 54h1M153 54h1M162 54h2M33 55h1M36 55h1M46 55h1M86 55h11M154 55h1M161 55h2M33 56h1M36 56h1M46 56h47M96 56h1M155 56h1M161 56h1M33 57h1M36 57h1M47 57h1M92 57h2M96 57h1M156 57h1M160 57h1M33 58h1M36 58h1M47 58h1M49 58h42M92 58h1M96 58h1M157 58h3M33 59h1M47 59h1M49 59h42M92 59h2M96 59h1M157 59h1M159 59h1M33 60h1M47 60h1M49 60h42M92 60h1M96 60h1M157 60h1M159 60h1M33 61h1M47 61h1M49 61h42M92 61h2M96 61h1M157 61h1M159 61h1M33 62h1M47 62h1M49 62h42M92 62h1M96 62h1M157 62h1M159 62h1M33 63h1M47 63h1M49 63h42M92 63h2M96 63h1M157 63h1M159 63h1M33 64h1M47 64h1M49 64h42M92 64h1M96 64h1M157 64h1M159 64h1M33 65h1M47 65h1M49 65h42M92 65h2M96 65h1M157 65h1M159 65h1M47 66h1M92 66h1M96 66h1M157 66h1M159 66h1M33 67h61M95 67h2M157 67h1M159 67h1M33 68h1M92 68h1M94 68h2M157 68h1M159 68h1M33 69h1M92 69h1M94 69h2M157 69h1M159 69h1M33 70h1M92 70h1M94 70h2M157 70h1M159 70h1M33 71h1M92 71h1M94 71h2M157 71h1M159 71h1M33 72h1M92 72h1M94 72h2M157 72h1M159 72h1M33 73h1M92 73h1M94 73h2M157 73h1M159 73h1M33 74h1M92 74h1M94 74h2M157 74h1M159 74h1M33 75h1M92 75h1M95 75h1M157 75h1M159 75h1M92 76h1M95 76h1M157 76h1M159 76h1M31 77h1M33 77h1M92 77h1M157 77h1M159 77h1M157 78h1M159 78h1M157 79h1M159 79h1M92 80h1M157 80h1M159 80h1M105 81h2M157 81h1M159 81h1M107 82h1M109 82h4M157 82h1M159 82h1M94 83h1M113 83h3M157 83h1M159 83h1M94 84h2M116 84h3M157 84h1M159 84h1M97 85h1M100 85h1M119 85h2M157 85h1M159 85h1M97 86h2M105 86h1M121 86h1M157 86h1M159 86h1M95 87h1M97 87h3M106 87h1M122 87h1M157 87h1M159 87h1M95 88h1M97 88h4M107 88h1M123 88h1M157 88h1M159 88h1M97 89h4M108 89h1M124 89h1M157 89h1M159 89h1M105 90h1M109 90h1M125 90h1M157 90h1M159 90h1M100 91h1M106 91h1M110 91h1M126 91h1M157 91h1M159 91h1M100 92h1M107 92h1M111 92h1M127 92h1M157 92h1M159 92h1M100 93h1M105 93h1M108 93h1M112 93h1M127 93h1M157 93h1M159 93h1M100 94h1M106 94h1M109 94h1M113 94h1M128 94h1M157 94h1M159 94h1M34 95h10M45 95h56M107 95h1M110 95h1M114 95h1M128 95h1M157 95h1M159 95h1M108 96h1M111 96h1M115 96h1M128 96h1M157 96h1M159 96h1M109 97h1M112 97h1M116 97h1M129 97h1M157 97h1M159 97h1M99 98h2M110 98h1M113 98h1M117 98h1M129 98h1M157 98h1M159 98h1M100 99h1M111 99h1M114 99h1M118 99h1M129 99h1M157 99h1M159 99h1M100 100h1M112 100h1M115 100h1M119 100h1M157 100h1M159 100h1M100 101h1M113 101h1M116 101h1M120 101h1M157 101h1M159 101h1M100 102h1M114 102h1M121 102h1M157 102h1M159 102h1M100 103h1M115 103h1M118 103h1M122 103h1M157 103h1M159 103h1M100 104h1M116 104h1M119 104h1M123 104h1M157 104h1M159 104h1M100 105h1M117 105h1M120 105h1M124 105h1M153 105h5M159 105h1M100 106h1M118 106h1M121 106h1M125 106h1M131 106h1M153 106h1M156 106h2M159 106h1M100 107h1M119 107h1M122 107h1M126 107h1M131 107h1M153 107h1M156 107h2M159 107h1M100 108h1M120 108h1M123 108h1M127 108h1M131 108h1M153 108h1M156 108h2M159 108h1M100 109h1M121 109h1M124 109h1M128 109h1M131 109h1M153 109h1M156 109h2M159 109h1M100 110h1M122 110h1M125 110h1M129 110h1M131 110h1M153 110h1M156 110h2M159 110h1M100 111h1M123 111h1M126 111h1M131 111h1M153 111h1M156 111h2M159 111h1M100 112h1M124 112h1M127 112h1M131 112h1M153 112h1M156 112h2M159 112h1M100 113h1M125 113h1M128 113h2M131 113h19M153 113h1M156 113h2M159 113h1M100 114h1M126 114h1M150 114h4M156 114h2M159 114h1M100 115h1M130 115h14M153 115h5M159 115h1M100 116h1M143 116h7M158 116h3M100 117h1M161 117h3M100 118h1M164 118h2M166 119h2M125 120h1M168 120h1M100 121h1M170 121h1M100 122h1M172 122h1M100 123h1M174 123h1M100 124h1M176 124h1M100 125h1M178 125h2M100 126h1M180 126h2M100 127h1M182 127h2M100 128h1M184 128h2M24 129h1M100 129h1M186 129h1M100 130h1M187 130h1M100 131h1M188 131h1M100 132h1M189 132h1M100 133h1M190 133h1M100 134h1M191 134h1M100 135h1M192 135h1M100 136h1M193 136h1M100 137h1M193 137h1M52 138h2M100 138h1M194 138h1M100 139h1M185 139h1M194 139h1M100 140h1M187 140h1M194 140h1M100 141h1M188 141h1M195 141h1M189 142h1M195 142h1M4 143h5M14 143h4M190 143h3M195 143h1M5 144h5M14 144h5M100 144h1M180 144h1M191 144h2M195 144h1M100 145h1M192 145h1M195 145h1M100 146h1M185 146h1M193 146h1M195 146h1M100 147h1M179 147h1M186 147h1M194 147h2M100 148h1M178 148h1M185 148h1M187 148h1M195 148h1M100 149h1M177 149h1M186 149h1M188 149h1M196 149h1M100 150h1M176 150h1M185 150h1M187 150h1M189 150h1M197 150h1M100 151h1M173 151h1M175 151h1M186 151h1M188 151h1M190 151h1M198 151h1M174 152h1M185 152h1M187 152h1M189 152h1M191 152h1M199 152h1M100 153h1M174 153h2M186 153h1M188 153h1M190 153h1M192 153h1M200 153h1M100 154h1M176 154h1M189 154h1M191 154h1M193 154h1M201 154h1M0 155h1M100 155h1M177 155h1M190 155h1M192 155h1M194 155h1M202 155h1M100 156h1M178 156h5M191 156h1M193 156h1M195 156h1M203 156h1M100 157h1M179 157h5M192 157h1M194 157h1M196 157h1M204 157h1M100 158h1M181 158h3M185 158h1M193 158h1M195 158h1M197 158h1M205 158h1M100 159h1M181 159h6M194 159h1M196 159h1M198 159h1M206 159h1M100 160h1M182 160h6M195 160h1M197 160h1M199 160h1M207 160h1M100 161h1M184 161h1M186 161h3M196 161h1M198 161h1M200 161h1M208 161h1M100 162h1M185 162h5M197 162h1M199 162h1M201 162h1M209 162h1M100 163h1M182 163h1M185 163h6M198 163h1M200 163h1M202 163h1M210 163h1M100 164h1M182 164h1M186 164h6M199 164h1M201 164h1M203 164h1M211 164h1M100 165h1M182 165h1M185 165h1M187 165h6M200 165h1M202 165h1M204 165h1M212 165h1M34 166h1M100 166h1M182 166h1M186 166h1M188 166h6M201 166h1M203 166h1M205 166h1M212 166h1M100 167h1M182 167h1M187 167h1M189 167h6M202 167h1M204 167h1M206 167h1M212 167h1M100 168h1M182 168h1M188 168h1M190 168h6M203 168h1M207 168h1M212 168h1M100 169h1M182 169h1M189 169h1M191 169h6M202 169h2M208 169h1M212 169h1M100 170h1M182 170h1M190 170h1M192 170h6M201 170h2M204 170h1M209 170h1M100 171h1M182 171h1M190 171h2M193 171h6M200 171h2M203 171h1M210 171h1M100 172h1M182 172h1M194 172h7M202 172h1M100 173h1M182 173h1M195 173h5M201 173h1M100 174h1M182 174h1M196 174h3M200 174h1M100 175h1M182 175h1M197 175h1M199 175h1M100 176h1M182 176h1M198 176h1M100 177h1M182 177h1M100 178h1M182 178h1M100 179h1M182 179h1M100 180h1M182 180h1M100 181h1M182 181h1M100 182h1M182 182h1M100 183h1M100 184h1M100 185h1M100 186h1M100 187h1M100 188h1M100 189h1M100 190h1M100 191h1M100 192h1M100 193h1M100 194h1M100 195h1M100 196h1M100 197h1M100 198h1M100 199h1M100 200h1M100 201h1M100 202h1M100 203h1M100 204h1M100 205h1M100 206h1M100 207h1M100 208h1M100 209h1M100 210h1M100 211h1M100 212h1M100 213h1M100 214h1M100 215h1M100 216h1M100 221h1M100 222h1M100 223h1M100 224h1M109 224h11M100 225h1M100 226h1M100 227h1M100 228h1M99 231h2M99 232h2M171 236h8M181 236h1M170 237h9M181 237h1M178 238h1M181 238h1M177 239h2M181 239h1M177 240h2M181 240h1M177 241h2M181 241h1M136 245h1M256 245h1M134 246h3M178 246h81M133 247h3M258 247h3M0 248h101M105 248h22M128 248h7M145 248h118M131 249h9M131 250h9M131 251h8M131 252h8M131 253h7M131 254h6M131 255h6M131 256h5M131 257h4M131 258h3M131 259h3M100 260h1M131 260h3M135 260h1M100 261h1M131 261h3M135 261h1M98 262h3M131 262h3M135 262h1M0 263h1M36 263h8M45 263h44M91 263h10M131 263h3M135 263h1M131 264h3M135 264h1M131 265h3M135 265h1M131 266h3M135 266h1M131 267h3M135 267h1M131 268h3M135 268h1M131 269h3M135 269h1M131 270h3M135 270h1M131 271h3M135 271h1M131 272h3M135 272h1M131 273h3M135 273h1M131 274h3M135 274h1M131 275h3M135 275h1M131 276h3M135 276h1M131 277h3M135 277h1M131 278h3M135 278h1M131 279h3M135 279h1M131 280h3M135 280h1M131 281h3M135 281h1M131 282h3M135 282h1M131 283h3M135 283h1M131 284h3M135 284h1M131 285h3M135 285h1M131 286h3M131 287h3M131 288h3M131 289h3M131 290h3M131 291h3M131 292h3M131 293h3M131 294h3M131 295h3M131 296h3M24 297h3M131 297h3M131 298h3M131 299h3M131 300h3M131 301h3M131 302h3M131 303h3M131 304h3M131 305h3M54 306h2M131 306h3M131 307h3M131 308h3M131 309h3M131 310h3M4 311h5M14 311h4M131 311h3M5 312h5M14 312h5M23 312h2M131 312h3M131 313h3M131 314h3M131 315h3M131 316h3M131 317h3M131 318h3M131 319h3M131 320h3M131 321h3M131 322h3M2 323h1M131 323h3M131 324h3M131 325h3M131 326h3M131 327h3M131 328h3M131 329h3M131 330h3M131 331h3M131 332h3M131 333h3M36 334h1M131 334h3M131 335h3M131 336h3M131 337h3M131 338h3M131 339h3M131 340h3M131 341h3M131 342h3M131 343h3M131 344h3M131 345h3M131 346h3M131 347h3M131 348h3M131 349h3M131 350h3M131 351h3M131 352h3M131 353h3M131 354h3M131 355h3M131 356h3M131 357h3M131 358h3M131 359h3M131 360h3M131 361h3M131 362h3M131 363h3M131 364h3M131 365h3M131 366h3M131 367h3M131 368h3M131 369h3M131 370h3M131 371h3M131 372h3M131 373h3M131 374h3M131 375h3M131 376h3M131 377h3M131 378h3M131 379h3M131 380h3M131 381h3M132 382h2M129 383h1M131 383h3M131 384h3M131 385h3M132 386h2M132 387h2M132 388h2M136 388h40M132 389h2M132 390h2M132 391h3M173 391h6M105 392h2M111 392h11M132 392h3M174 392h6M105 393h1M132 393h3M174 393h7M132 394h3M175 394h7M132 395h3M176 395h7M132 396h3M177 396h7M132 397h3M179 397h6M132 398h3M179 398h7M131 399h4M180 399h7M131 400h181M229 401h83M222 402h92M236 403h81M223 404h96M223 405h98M231 406h92M233 407h92M233 408h47M278 409h2M278 410h2M278 411h2M278 412h2M233 413h48M233 414h49M231 415h52M224 416h60M0 417h127M128 417h101M0 418h127M128 418h101M0 419h127M128 419h76M214 419h14M322 419h44M223 420h5M320 420h45M0 421h127M128 421h76M213 421h14M318 421h45M104 422h23M128 422h76M213 422h14M316 422h6M324 422h37M104 423h23M128 423h76M212 423h14M314 423h6M324 423h35M0 424h101M105 424h22M128 424h76M212 424h14M312 424h6M131 425h4M211 425h14M310 425h6M131 426h4M211 426h14M246 426h77M131 427h4M210 427h14M243 427h79M131 428h4M210 428h14M242 428h79M131 429h4M209 429h14M241 429h79M131 430h4M209 430h14M240 430h79M131 431h4M208 431h14M250 431h69M131 432h4M207 432h15M250 432h4M131 433h4M207 433h47M131 434h4M206 434h48M131 435h4M206 435h48M100 436h1M131 436h4M205 436h49M100 437h1M131 437h4M205 437h49M98 438h3M131 438h4M204 438h50M0 439h1M36 439h8M45 439h56M131 439h4M204 439h14M131 440h4M203 440h15M131 441h4M203 441h14M131 442h4M202 442h15M131 443h4M202 443h14M131 444h4M201 444h15M131 445h4M201 445h14M131 446h4M200 446h15M131 447h4M199 447h15M131 448h4M199 448h15M131 449h4M198 449h15M131 450h4M198 450h15M131 451h4M197 451h15M131 452h4M197 452h14M131 453h4M196 453h15M131 454h4M196 454h14M131 455h4M195 455h15M131 456h4M195 456h14M131 457h4M194 457h15M131 458h4M194 458h14M131 459h4M193 459h15M131 460h4M193 460h14M131 461h4M192 461h15M131 462h4M191 462h15M131 463h4M191 463h15M131 464h4M190 464h15M131 465h4M190 465h15M131 466h5M189 466h15M131 467h5M189 467h15M131 468h6M188 468h15M131 469h6M188 469h15M131 470h6M187 470h15M131 471h7M187 471h15M131 472h7M186 472h15M131 473h8M186 473h15M131 474h8M185 474h15M131 475h8M184 475h16M131 476h9M184 476h15M131 477h9M183 477h16M131 478h10M183 478h15M131 479h10M182 479h16M131 480h10M182 480h15M131 481h11M181 481h16M131 482h11M181 482h15M131 483h12M180 483h16M131 484h12M180 484h15M131 485h12M179 485h16M131 486h13M179 486h15M131 487h13M178 487h15M131 488h14M178 488h15M131 489h14M177 489h15M131 490h14M176 490h16M131 491h15M176 491h15M131 492h15M175 492h16M131 493h16M175 493h15M131 494h16M174 494h16M131 495h16M174 495h15M131 496h17M173 496h16M131 497h17M173 497h15M131 498h18M172 498h16M131 499h18M172 499h15M131 500h18M171 500h16M131 501h19M171 501h15M131 502h19M170 502h16M131 503h20M170 503h15M131 504h20M169 504h16M0 505h59M60 505h7M68 505h6M75 505h26M105 505h21M128 505h2M131 505h20M168 505h16M0 506h59M60 506h7M68 506h6M75 506h26M105 506h21M128 506h24M168 506h16M0 507h59M60 507h7M68 507h6M75 507h26M105 507h21M128 507h24M167 507h16M0 508h59M60 508h7M68 508h6M75 508h29M105 508h19M125 508h1M128 508h25M167 508h16M0 509h124M125 509h1M128 509h25M166 509h16M0 510h121M122 510h2M125 510h1M128 510h3M132 510h4M138 510h3M142 510h11M166 510h16M0 511h121M122 511h1M125 511h1M128 511h3M132 511h4M138 511h3M142 511h8M151 511h3M165 511h16M0 512h119M120 512h1M122 512h1M125 512h1M128 512h3M132 512h4M138 512h3M142 512h4M148 512h2M152 512h2M165 512h16M0 513h119M120 513h1M122 513h1M125 513h1M128 513h3M132 513h4M139 513h2M142 513h5M148 513h3M154 513h1M165 513h15M0 514h119M120 514h1M122 514h1M125 514h1M128 514h2M134 514h2M139 514h2M142 514h7M151 514h1M154 514h1M165 514h15M0 515h120M124 515h1M128 515h2M134 515h2M142 515h9M152 515h1M165 515h2M168 515h11M0 516h120M122 516h3M134 516h2M142 516h8M151 516h1M153 516h1M166 516h1M168 516h11M0 517h122M168 517h10M170 518h8" />
<path stroke="#5fbac2" d="M34 0h2M52 0h1M66 0h1M83 0h2M34 1h2M52 1h1M66 1h1M83 1h2M34 2h2M52 2h1M66 2h1M83 2h2M34 3h2M52 3h1M66 3h1M83 3h2M34 4h2M52 4h1M66 4h1M83 4h2M34 5h2M52 5h1M66 5h1M83 5h2M34 6h2M52 6h1M66 6h1M83 6h2M34 7h2M52 7h1M66 7h1M83 7h2M34 8h2M52 8h1M66 8h1M83 8h2M34 9h2M52 9h1M66 9h1M83 9h2M34 10h2M52 10h1M66 10h1M83 10h2M34 11h2M52 11h1M66 11h1M83 11h2M34 12h2M52 12h1M66 12h1M83 12h2M34 13h2M52 13h1M66 13h1M83 13h2M34 14h2M52 14h1M66 14h1M83 14h2M34 15h2M52 15h1M66 15h1M83 15h2M34 16h2M52 16h1M66 16h1M83 16h2M34 17h2M52 17h1M66 17h1M83 17h2M34 18h2M52 18h1M66 18h1M83 18h2M34 19h2M52 19h1M66 19h1M83 19h2M34 20h2M52 20h1M66 20h1M83 20h2M34 21h2M52 21h1M66 21h1M83 21h2M34 22h2M52 22h1M66 22h1M83 22h2M34 23h2M52 23h1M66 23h1M83 23h2M34 24h2M52 24h1M66 24h1M83 24h2M34 25h2M52 25h1M66 25h1M83 25h2M34 26h2M52 26h1M66 26h1M83 26h2M34 27h2M52 27h1M66 27h1M83 27h2M34 28h2M52 28h1M66 28h1M83 28h2M34 29h2M52 29h1M66 29h1M83 29h2M34 30h2M52 30h1M66 30h1M83 30h2M34 31h2M52 31h1M66 31h1M83 31h2M34 32h2M52 32h1M66 32h1M83 32h2M34 33h2M52 33h1M66 33h1M83 33h2M34 34h2M52 34h1M66 34h1M83 34h2M34 35h2M52 35h1M66 35h1M83 35h2M34 36h2M52 36h1M66 36h1M83 36h2M34 37h2M52 37h1M66 37h1M83 37h2M34 38h2M52 38h1M66 38h1M83 38h2M34 39h2M52 39h1M66 39h1M83 39h2M34 40h2M52 40h1M66 40h1M83 40h2M34 41h2M52 41h1M66 41h1M83 41h2M34 42h2M52 42h1M66 42h1M83 42h2M34 43h2M52 43h1M66 43h1M83 43h2M34 44h2M83 44h2M34 45h2M53 45h27M83 45h2M34 46h2M53 46h27M83 46h2M34 47h2M83 47h2M34 48h2M83 48h2M34 49h2M84 49h1M34 50h2M84 50h1M34 51h2M85 51h1M34 52h2M34 53h2M34 54h2M34 55h2M34 56h2M93 56h3M34 57h2M46 57h1M94 57h2M34 58h2M46 58h1M93 58h3M34 59h3M46 59h1M94 59h2M34 60h3M46 60h1M93 60h3M34 61h3M46 61h1M94 61h2M34 62h3M46 62h1M93 62h3M34 63h3M46 63h1M94 63h2M34 64h3M46 64h1M93 64h3M34 65h3M46 65h1M94 65h2M33 66h14M93 66h3M94 67h1M93 68h1M93 69h1M93 70h1M93 71h1M93 72h1M93 73h1M93 74h1M93 75h1M93 76h1M93 77h1M93 80h1M93 82h4M95 83h1M97 84h2M98 85h2M99 86h2M100 87h1M105 91h1M105 92h2M106 93h2M107 94h2M108 95h2M109 96h2M110 97h2M111 98h2M112 99h2M113 100h2M114 101h2M115 102h3M116 103h2M117 104h2M118 105h2M119 106h2M120 107h2M121 108h2M122 109h2M123 110h2M124 111h2M125 112h2M126 113h2M127 114h1M129 114h1M131 114h19M127 115h1M144 115h9M127 116h1M151 116h7M127 117h1M155 117h6M127 118h1M160 118h4M127 119h1M162 119h4M164 120h4M127 121h1M167 121h3M127 122h1M169 122h3M171 123h3M176 123h2M173 124h3M178 124h1M175 125h3M177 126h3M179 127h3M182 128h2M185 129h1M186 130h1M187 131h1M188 132h1M189 133h1M190 134h1M191 135h1M182 136h1M192 136h1M192 137h1M192 138h2M193 139h1M193 140h1M186 141h2M194 141h1M185 142h4M194 142h1M184 143h6M194 143h1M183 144h8M194 144h1M182 145h2M185 145h7M194 145h1M181 146h2M184 146h1M186 146h7M194 146h1M183 147h1M185 147h1M187 147h7M184 148h1M186 148h1M188 148h7M185 149h1M187 149h1M189 149h7M186 150h1M188 150h1M190 150h7M187 151h1M189 151h1M191 151h7M188 152h1M190 152h1M192 152h7M189 153h1M191 153h1M193 153h7M190 154h1M192 154h1M194 154h7M191 155h1M193 155h1M195 155h7M192 156h1M194 156h1M196 156h7M193 157h1M195 157h1M197 157h7M194 158h1M196 158h1M198 158h7M195 159h1M197 159h1M199 159h7M196 160h1M198 160h1M200 160h7M197 161h1M199 161h1M201 161h7M198 162h1M200 162h1M202 162h7M199 163h1M201 163h1M203 163h7M185 164h1M200 164h1M202 164h1M204 164h7M186 165h1M201 165h1M203 165h1M205 165h7M187 166h1M202 166h1M204 166h1M206 166h6M188 167h1M203 167h1M208 167h4M189 168h1M204 168h1M209 168h3M190 169h1M205 169h1M210 169h2M191 170h1M211 170h1M192 171h1M190 172h2M193 172h1M189 173h2M194 173h1M188 174h2M195 174h1M187 175h2M196 175h1M187 176h2M197 176h1M187 177h2M198 177h1M187 178h2M187 179h2M187 180h2M186 181h2M185 182h2M182 183h1M185 183h1M182 184h1M127 215h1M250 234h1M187 235h63M179 236h2M183 236h1M187 236h1M191 236h1M195 236h1M199 236h1M203 236h1M207 236h1M211 236h1M215 236h1M219 236h1M223 236h1M227 236h1M231 236h1M235 236h1M239 236h1M243 236h1M247 236h1M179 237h2M182 237h1M184 237h1M186 237h1M188 237h1M190 237h1M192 237h1M194 237h1M196 237h1M198 237h1M200 237h1M202 237h1M204 237h1M206 237h1M208 237h1M210 237h1M212 237h1M214 237h1M216 237h1M218 237h1M220 237h1M222 237h1M224 237h1M226 237h1M228 237h1M230 237h1M232 237h1M234 237h1M236 237h1M238 237h1M240 237h1M242 237h1M244 237h1M246 237h1M248 237h1M179 238h2M183 238h1M187 238h1M191 238h1M195 238h1M199 238h1M203 238h1M207 238h1M211 238h1M215 238h1M219 238h1M223 238h1M227 238h1M231 238h1M235 238h1M239 238h1M243 238h1M247 238h1M179 239h2M182 239h69M179 240h2M251 240h1M179 241h2M252 241h1M253 242h1M255 244h2M257 245h2M259 246h2M261 247h2M127 248h1M263 248h2M140 249h127M140 250h2M139 251h3M139 252h2M138 253h3M137 254h3M137 255h2M136 256h2M135 257h2M134 258h3M134 259h2M134 260h1M134 261h1M134 262h1M134 263h1M134 264h1M134 265h1M134 266h1M134 267h1M134 268h1M134 269h1M134 270h1M134 271h1M134 272h1M134 273h1M134 274h1M134 275h1M134 276h1M134 277h1M134 278h1M134 279h1M134 280h1M134 281h1M134 282h1M134 283h1M134 284h1M134 285h1M134 286h1M134 287h1M134 288h1M134 289h1M134 290h1M134 291h1M134 292h1M134 293h1M134 294h1M134 295h1M134 296h1M134 297h1M134 298h1M134 299h1M134 300h1M134 301h1M134 302h1M134 303h1M134 304h1M134 305h1M134 306h1M134 307h1M134 308h1M134 309h1M134 310h1M134 311h1M134 312h1M134 313h1M134 314h1M134 315h1M134 316h1M134 317h1M134 318h1M134 319h1M134 320h1M134 321h1M134 322h1M134 323h1M134 324h1M134 325h1M134 326h1M134 327h1M134 328h1M134 329h1M134 330h1M134 331h1M134 332h1M134 333h1M134 334h1M134 335h1M134 336h1M134 337h1M134 338h1M134 339h1M134 340h1M134 341h1M134 342h1M134 343h1M134 344h1M134 345h1M134 346h1M134 347h1M134 348h1M134 349h1M134 350h1M134 351h1M134 352h1M134 353h1M134 354h1M134 355h1M134 356h1M134 357h1M134 358h1M134 359h1M134 360h1M134 361h1M134 362h1M134 363h1M134 364h1M134 365h1M134 366h1M134 367h1M134 368h1M134 369h1M134 370h1M134 371h1M134 372h1M134 373h1M134 374h1M134 375h1M134 376h1M134 377h1M134 378h1M134 379h1M134 380h1M134 381h1M134 382h1M134 383h1M134 384h1M134 385h1M134 386h1M134 387h1M134 388h1M134 389h2M172 389h5M134 390h44M127 417h1M127 418h1M127 419h1M127 421h1M127 422h1M127 423h1M127 424h1M127 505h1M127 506h1M127 507h1M127 508h1M127 509h1M127 510h1M127 511h1M127 512h1" />
<path stroke="#6b58ad" d="M47 0h5M80 0h2M47 1h5M80 1h2M47 2h5M80 2h2M47 3h5M80 3h2M47 4h5M80 4h2M47 5h5M80 5h2M47 6h5M80 6h2M47 7h5M80 7h2M47 8h5M80 8h2M47 9h5M80 9h2M47 10h5M80 10h2M47 11h5M80 11h2M47 12h5M80 12h2M47 13h5M80 13h2M47 14h5M80 14h2M47 15h5M80 15h2M47 16h5M80 16h2M47 17h5M80 17h2M47 18h5M80 18h2M47 19h5M80 19h2M47 20h5M80 20h2M47 21h5M80 21h2M47 22h5M80 22h2M47 23h5M80 23h2M47 24h5M80 24h2M47 25h5M80 25h2M47 26h5M80 26h2M47 27h5M80 27h2M47 28h5M80 28h2M47 29h5M80 29h2M47 30h5M80 30h2M47 31h5M80 31h2M47 32h5M80 32h2M47 33h5M80 33h2M47 34h5M80 34h2M47 35h5M80 35h2M47 36h5M80 36h2M47 37h5M80 37h2M47 38h5M80 38h2M47 39h5M80 39h2M47 40h5M80 40h2M47 41h5M80 41h2M47 42h5M80 42h2M47 43h5M80 43h2M47 45h5M80 45h2M47 46h5M80 46h2M47 48h35M47 49h36M47 50h36M47 51h37M47 52h37M47 53h38M47 54h39M47 55h39M48 57h44M48 58h1M91 58h1M48 59h1M91 59h1M48 60h1M91 60h1M48 61h1M91 61h1M48 62h1M91 62h1M48 63h1M91 63h1M48 64h1M91 64h1M48 65h1M91 65h1M48 66h44M34 68h58M34 69h58M34 70h58M34 71h58M34 72h58M34 73h58M34 74h58M34 75h58M34 76h58M34 77h58M34 82h59M4 83h1M34 83h51M88 83h4M0 84h3M4 84h1M34 84h58M0 85h92M0 86h93M0 87h93M0 88h93M0 89h93M0 90h95M0 91h96M0 92h99M0 93h100M0 94h94M0 250h101M0 251h96M0 252h96M97 252h4M0 253h96M97 253h4M0 254h96M97 254h4M0 255h96M97 255h4M0 256h96M97 256h4M0 257h96M97 257h4M0 258h97M0 259h101M0 260h100M0 261h100M0 262h90M91 262h7M0 426h101M0 427h96M0 428h96M97 428h4M0 429h96M97 429h4M0 430h96M97 430h4M0 431h96M97 431h4M0 432h96M97 432h4M0 433h96M97 433h4M0 434h97M0 435h101M0 436h100M0 437h100M0 438h98" />
<path stroke="#715eb3" d="M0 5h3M0 97h45M47 97h20M69 97h22M92 97h7M44 98h1M66 98h1M44 99h1M66 99h1M44 100h1M66 100h1M44 101h1M66 101h1M44 103h1M66 103h1M44 104h1M66 104h1M44 105h1M66 105h1M44 106h1M66 106h1M44 107h1M66 107h1M44 108h1M66 108h1M44 109h1M66 109h1M44 110h1M66 110h1M44 111h1M66 111h1M44 112h1M66 112h1M44 113h1M66 113h1M44 114h1M66 114h1M44 115h1M66 115h1M44 116h1M66 116h1M44 117h1M66 117h1M0 120h45M47 120h20M69 120h31M44 121h1M66 121h1M44 122h1M66 122h1M44 123h1M66 123h1M44 124h1M66 124h1M44 125h1M66 125h1M44 126h1M66 126h1M44 127h1M66 127h1M44 128h1M66 128h1M44 129h1M66 129h1M44 130h1M66 130h1M44 131h1M66 131h1M44 132h1M66 132h1M44 133h1M66 133h1M44 134h1M66 134h1M44 135h1M66 135h1M66 136h1M66 137h1M66 138h1M66 139h1M66 140h1M66 141h1M66 142h1M66 143h1M69 143h31M66 144h1M66 145h1M66 146h1M66 147h1M66 148h1M66 149h1M66 150h1M66 151h1M66 152h1M66 153h1M66 154h1M66 155h1M66 156h1M66 157h1M66 158h1M66 159h1M66 160h1M66 161h1M66 162h1M66 163h1M66 164h1M66 165h1M66 166h1M66 167h1M66 168h1M66 169h1M66 170h1M66 171h1M66 172h1M66 173h1M66 174h1M66 175h1M66 176h1M66 177h1M66 178h1M66 179h1M66 180h1M66 181h1M66 182h1M66 183h1M66 184h1M66 185h1M66 186h1M66 187h1M66 188h1M66 189h1M66 190h1M66 191h1M66 192h1M66 193h1M66 194h1M66 195h1M66 196h1M66 197h1M66 198h1M66 199h1M66 200h1M66 201h1M66 202h1M66 203h1M66 204h1M66 205h1M66 206h1M66 207h1M66 208h1M66 209h1M66 210h1M66 211h1M66 212h1M66 213h1M66 214h1M66 215h1M66 216h1M66 217h1M66 218h1M66 219h1M66 220h1M69 220h31M66 221h1M66 222h1M66 223h1M66 224h1M66 225h1M66 226h1M66 227h1M66 228h1M66 229h1M66 230h1M69 230h31M66 231h1M66 232h1M67 234h4M84 234h14M0 265h45M47 265h20M69 265h32M44 266h1M66 266h1M44 267h1M66 267h1M44 268h1M66 268h1M44 269h1M66 269h1M44 270h1M66 270h1M44 271h1M66 271h1M44 272h1M66 272h1M44 273h1M66 273h1M44 274h1M66 274h1M44 275h1M66 275h1M44 276h1M66 276h1M44 277h1M66 277h1M44 278h1M66 278h1M44 279h1M66 279h1M44 280h1M66 280h1M44 281h1M66 281h1M44 282h1M66 282h1M44 283h1M66 283h1M44 284h1M66 284h1M44 285h1M66 285h1M0 288h45M47 288h20M69 288h32M44 289h1M66 289h1M44 290h1M66 290h1M44 291h1M66 291h1M44 292h1M66 292h1M44 293h1M66 293h1M44 294h1M66 294h1M44 295h1M66 295h1M44 296h1M66 296h1M44 297h1M66 297h1M44 298h1M66 298h1M44 299h1M66 299h1M44 300h1M66 300h1M44 301h1M66 301h1M44 302h1M66 302h1M44 303h1M66 303h1M66 304h1M66 305h1M66 306h1M66 307h1M66 308h1M66 309h1M66 310h1M66 311h1M69 311h32M66 312h1M66 313h1M66 314h1M66 315h1M66 316h1M66 317h1M66 318h1M66 319h1M66 320h1M66 321h1M66 322h1M66 323h1M66 324h1M66 325h1M66 326h1M66 327h1M66 328h1M66 329h1M66 330h1M66 331h1M66 332h1M66 333h1M66 334h1M66 335h1M66 336h1M66 337h1M66 338h1M66 339h1M66 340h1M66 341h1M66 342h1M66 343h1M66 344h1M66 345h1M66 346h1M66 347h1M66 348h1M66 349h1M66 350h1M66 351h1M66 352h1M66 353h1M66 354h1M66 355h1M66 356h1M66 357h1M66 358h1M66 359h1M66 360h1M66 361h1M66 362h1M66 363h1M66 364h1M66 365h1M66 366h1M66 367h1M66 368h1M66 369h1M66 370h1M66 371h1M66 372h1M66 373h1M66 374h1M66 375h1M66 376h1M66 377h1M66 378h1M66 379h1M66 380h1M66 381h1M66 382h1M66 383h1M66 384h1M66 385h1M66 386h1M66 387h1M66 388h1M69 388h32M66 389h1M66 390h1M66 391h1M66 392h1M66 393h1M66 394h1M66 395h1M66 396h1M66 397h1M66 398h1M69 398h31M101 398h1M66 399h1M66 400h1M69 402h4M86 402h14M0 441h45M47 441h20M69 441h32M44 442h1M66 442h1M44 443h1M66 443h1M44 444h1M66 444h1M44 445h1M66 445h1M44 446h1M66 446h1M44 447h1M66 447h1M44 448h1M66 448h1M44 449h1M66 449h1M44 450h1M66 450h1M44 451h1M66 451h1M44 452h1M66 452h1M44 453h1M66 453h1M44 454h1M66 454h1M44 455h1M66 455h1M44 456h1M66 456h1M44 457h1M66 457h1M44 458h1M66 458h1M44 459h1M66 459h1M44 460h1M66 460h1M44 461h1M66 461h1M0 464h45M47 464h20M69 464h32M44 465h1M66 465h1M44 466h1M66 466h1M44 467h1M66 467h1M44 468h1M66 468h1M44 469h1M66 469h1M44 470h1M66 470h1M44 471h1M66 471h1M44 472h1M66 472h1M44 473h1M66 473h1M66 485h1" />
<path stroke="#9974bf" d="M85 47h1M85 48h1M85 49h1M85 50h1M94 75h1M94 76h1M94 77h2M99 84h1M182 135h1M205 167h1M206 168h1M207 169h1M206 170h1M208 170h1M212 170h1M205 171h1M209 171h1M212 171h1M204 172h1M210 172h3M203 173h1M212 173h1M202 174h1M201 175h1M200 176h1M199 177h1M253 243h2M135 286h1M135 287h1M135 288h1M135 289h1M135 290h1M135 291h1M135 292h1M135 293h1M135 294h1M135 295h1M135 296h1M135 297h1M135 298h1M135 299h1M135 300h1M135 301h1M135 302h1M135 303h1M135 304h1M135 305h1M135 306h1M135 307h1M135 308h1M135 309h1M135 310h1M135 311h1M135 312h1M135 313h1M135 314h1M135 315h1M135 316h1M135 317h1M135 318h1M135 319h1M135 320h1M135 321h1M135 322h1M135 323h1M135 324h1M135 325h1M135 326h1M135 327h1M135 328h1M135 329h1M135 330h1M135 331h1M135 332h1M135 333h1M135 334h1M135 335h1M135 336h1M135 337h1M135 338h1M135 339h1M135 340h1M135 341h1M135 342h1M135 343h1M135 344h1M135 345h1M135 346h1M135 347h1M135 348h1M135 349h1M135 350h1M135 351h1M135 352h1M135 353h1M135 354h1M135 355h1M135 356h1M135 357h1M135 358h1M135 359h1M135 360h1M135 361h1M135 362h1M135 363h1M135 364h1M135 365h1M135 366h1M135 367h1M135 368h1M135 369h1M135 370h1M135 371h1M135 372h1M135 373h1M135 374h1M135 375h1M135 376h1M135 377h1M135 378h1M135 379h1M135 380h1M135 381h1M135 382h1M135 383h1M135 384h1M135 385h1M135 386h1M135 387h1M135 388h1M136 389h36" />
<path stroke="#ff265c" d="M158 50h1M157 51h3M156 52h5M155 53h7M154 54h8M155 55h6M156 56h5M157 57h3M102 82h5M103 83h10M104 84h12M105 85h14M106 86h15M107 87h15M108 88h15M109 89h15M110 90h15M111 91h15M112 92h15M113 93h14M114 94h14M115 95h13M116 96h12M117 97h12M118 98h11M119 99h10M120 100h10M121 101h9M122 102h8M123 103h7M124 104h6M125 105h5M126 106h4M127 107h3M128 108h2M129 109h1" />
<path stroke="#8f3b67" d="M158 59h1M158 60h1M158 61h1M158 62h1M158 63h1M158 64h1M158 65h1M158 66h1M158 67h1M158 68h1M158 69h1M158 70h1M158 71h1M158 72h1M158 73h1M158 74h1M158 75h1M158 76h1M158 77h1M158 78h1M158 79h1M94 80h7M158 80h1M158 81h1M97 82h4M158 82h1M158 83h1M100 84h1M158 84h1M158 85h1M158 86h1M105 87h1M158 87h1M105 88h2M158 88h1M105 89h3M158 89h1M106 90h3M158 90h1M107 91h3M158 91h1M108 92h3M158 92h1M109 93h3M158 93h1M110 94h3M158 94h1M111 95h3M158 95h1M112 96h3M158 96h1M113 97h3M158 97h1M114 98h3M158 98h1M115 99h3M158 99h1M116 100h3M158 100h1M117 101h3M158 101h1M118 102h3M158 102h1M119 103h3M158 103h1M120 104h3M158 104h1M121 105h3M158 105h1M122 106h3M154 106h2M158 106h1M123 107h3M154 107h2M158 107h1M124 108h3M154 108h2M158 108h1M125 109h3M154 109h2M158 109h1M126 110h3M154 110h2M158 110h1M127 111h3M154 111h2M158 111h1M128 112h2M154 112h2M158 112h1M154 113h2M158 113h1M154 114h2M158 114h1M158 115h1" />
<path stroke="#080125" d="M3 63h1M5 63h1" />
<path stroke="#06001b" d="M4 63h1" />
<path stroke="#1c095e" d="M3 64h1M176 240h1" />
<path stroke="#09002a" d="M4 64h1" />
<path stroke="#220f64" d="M5 64h1" />
<path stroke="#200d62" d="M3 65h1M3 66h1M3 67h1M3 68h1M3 69h1M3 70h1M3 71h1M3 72h1M3 73h1M3 74h1M3 75h1M3 76h1M3 77h1M176 238h1" />
<path stroke="#0a002e" d="M4 65h1M4 66h1M4 67h1M4 68h1M4 69h1M4 70h1M4 71h1M4 72h1M4 73h1M4 74h1M4 75h1M4 76h1M33 76h1M4 77h1" />
<path stroke="#271469" d="M5 65h1M5 66h1M5 67h1M5 68h1M5 69h1M5 70h1M5 71h1M5 72h1M5 73h1M5 74h1M5 75h1M5 76h1M29 76h3" />
<path stroke="#46a1a9" d="M30 66h2M127 123h1M127 124h1M127 125h1M127 126h1M127 127h1M127 128h1M127 129h1M127 130h1M127 131h1M127 132h1M127 133h1M127 134h1M127 135h1M127 136h1M127 137h1M127 138h1M127 139h1M127 142h1M127 143h1M127 144h1M127 145h1M127 146h1M127 147h1M127 148h1M127 149h1M127 150h1M127 151h1M127 152h1M127 153h1M127 154h1M127 155h1M127 156h1M127 157h1M127 158h1M127 159h1M127 160h1M127 161h1M127 162h1M127 163h1M127 164h1M127 165h1M127 166h1M127 167h1M127 168h1M127 169h1M127 170h1M127 171h1M127 172h1M127 173h1M127 174h1M127 175h1M127 176h1M127 177h1M127 178h1M127 179h1M127 180h1M127 181h1M127 182h1M127 183h1M127 184h1M127 185h1M127 186h1M127 187h1M127 188h1M127 189h1M127 190h1M127 191h1M127 192h1M127 193h1M127 194h1M127 195h1M127 196h1M127 197h1M127 198h1M127 199h1M127 200h1M127 201h1M127 202h1M127 203h1M127 204h1M127 205h1M127 206h1M127 207h1M127 208h1M127 209h1M127 210h1M127 211h1M127 212h1M127 213h1M127 249h1M127 250h1M127 251h1M127 252h1M127 253h1M127 254h1M127 255h1M127 256h1M127 257h1M127 258h1M127 259h1M127 260h1M127 261h1M127 262h1M127 263h1M127 264h1M127 265h1M127 266h1M127 267h1M127 268h1M127 269h1M127 270h1M127 271h1M127 272h1M127 273h1M127 274h1M127 275h1M127 276h1M127 277h1M127 278h1M127 279h1M127 280h1M127 281h1M127 282h1M127 283h1M127 284h1M127 285h1M127 286h1M127 287h1M127 288h1M127 289h1M127 290h1M127 291h1M127 292h1M127 293h1M127 294h1M127 295h1M127 296h1M127 297h1M127 298h1M127 299h1M127 300h1M127 301h1M127 302h1M127 303h1M127 304h1M127 305h1M127 306h1M127 307h1M127 310h1M127 311h1M127 312h1M127 313h1M127 314h1M127 315h1M127 316h1M127 317h1M127 318h1M127 319h1M127 320h1M127 321h1M127 322h1M127 323h1M127 324h1M127 325h1M127 326h1M127 327h1M127 328h1M127 329h1M127 330h1M127 331h1M127 332h1M127 333h1M127 334h1M127 335h1M127 336h1M127 337h1M127 338h1M127 339h1M127 340h1M127 341h1M127 342h1M127 343h1M127 344h1M127 345h1M127 346h1M127 347h1M127 348h1M127 349h1M127 350h1M127 351h1M127 352h1M127 353h1M127 354h1M127 355h1M127 356h1M127 357h1M127 358h1M127 359h1M127 360h1M127 361h1M127 362h1M127 363h1M127 364h1M127 365h1M127 366h1M127 367h1M127 368h1M127 369h1M127 370h1M127 371h1M127 372h1M127 373h1M127 374h1M127 375h1M127 376h1M127 377h1M127 378h1M127 379h1M127 380h1M127 381h1M127 425h1M127 426h1M127 427h1M127 428h1M127 429h1M127 430h1M127 431h1M127 432h1M127 433h1M127 434h1M127 435h1M127 436h1M127 437h1M127 438h1M127 439h1M127 440h1M127 441h1M127 442h1M127 443h1M127 444h1M127 445h1M127 446h1M127 447h1M127 448h1M127 449h1M127 450h1M127 451h1M127 452h1M127 453h1M127 454h1M127 455h1M127 456h1M127 457h1M127 458h1M127 459h1M127 460h1M127 461h1M127 462h1M127 463h1M127 464h1M127 465h1M127 466h1M127 467h1M127 468h1M127 469h1M127 470h1M127 471h1M127 472h1M127 473h1M127 474h1M127 475h1M127 476h1M127 477h1M127 478h1M127 479h1M127 480h1M127 481h1M127 482h1M127 483h1M127 486h1M127 487h1M127 488h1M127 489h1M127 490h1M127 491h1M127 492h1M127 493h1M127 494h1M127 495h1M127 496h1M127 497h1M127 498h1M127 499h1M127 500h1M127 501h1M127 502h1M127 503h1M127 504h1" />
<path stroke="#6bc6ce" d="M32 66h1M127 141h1M127 309h1M127 485h1" />
<path stroke="#423181" d="M32 75h1M32 77h1M86 81h7M99 97h2M130 100h1M130 101h1M130 102h1M130 103h1M130 104h1M130 105h1M130 111h1M130 113h1M100 120h1M100 143h1M0 234h67M71 234h13M98 234h4M103 234h1M126 234h1M130 381h1M130 383h1M0 402h69M73 402h13M100 402h2M103 402h3M128 402h94M0 420h127M128 420h76M214 420h9" />
<path stroke="#1b085d" d="M7 76h22M5 77h1M169 236h1" />
<path stroke="#1d0a5f" d="M32 76h1M168 237h1" />
<path stroke="#3d2a7f" d="M7 77h24M105 215h22M105 216h22M100 217h1M105 217h22M100 218h1M105 218h22M105 219h22M105 220h22M105 221h22M105 222h22M105 223h22M105 224h4M120 224h7M105 225h22M105 226h22M105 227h22M105 228h22M101 229h1M105 229h22M105 230h22M105 231h22M105 232h22M105 383h22M128 383h1M105 384h22M128 384h2M105 385h22M128 385h2M105 386h22M128 386h2M131 386h1M105 387h22M128 387h2M131 387h1M105 388h22M128 388h2M131 388h1M105 389h22M128 389h2M131 389h1M105 390h22M128 390h2M131 390h1M105 391h22M128 391h2M131 391h1M107 392h4M122 392h5M128 392h2M131 392h1M106 393h21M128 393h2M131 393h1M105 394h22M128 394h2M131 394h1M105 395h22M128 395h2M131 395h1M105 396h22M128 396h2M131 396h1M105 397h22M128 397h2M131 397h1M105 398h22M128 398h2M131 398h1M105 399h22M128 399h2M105 400h22M128 400h2" />
<path stroke="#17112b" d="M0 78h3M0 79h3" />
<path stroke="#0a041d" d="M3 78h1M3 79h1" />
<path stroke="#03000e" d="M4 78h1" />
<path stroke="#08021c" d="M5 78h1M4 79h2" />
<path stroke="#020009" d="M6 78h1" />
<path stroke="#120d26" d="M7 78h25M7 79h25" />
<path stroke="#1d1831" d="M32 78h1M32 79h1" />
<path stroke="rgba(0,0,0,0.7019607843137254)" d="M63 78h1M96 78h8M96 79h2M101 79h3" />
<path stroke="#1c373a" d="M93 78h1M93 79h1M96 83h2M101 87h1M101 88h1M0 96h43M45 102h1M67 102h1M127 140h1M127 214h1M127 233h1M127 238h1M127 308h1M127 382h1M127 401h1M127 406h1M127 484h1" />
<path stroke="#2e2339" d="M94 78h2M94 79h2M98 83h1" />
<path stroke="#050018" d="M6 79h1" />
<path stroke="rgba(0,0,0,0.5254901960784314)" d="M102 80h3M90 264h1" />
<path stroke="#9988d6" d="M0 81h1" />
<path stroke="#9a89d7" d="M1 81h1M3 81h1" />
<path stroke="#9b8ad8" d="M2 81h1" />
<path stroke="#9786d4" d="M4 81h1" />
<path stroke="#9785d4" d="M5 81h1" />
<path stroke="#9886d5" d="M6 81h1" />
<path stroke="#9c8ad9" d="M7 81h25M33 81h1" />
<path stroke="#a695e3" d="M32 81h1" />
<path stroke="#8f7ecc" d="M34 81h52M0 249h101M0 425h101" />
<path stroke="#69c4cc" d="M93 81h1M130 114h1M127 234h1M127 420h1" />
<path stroke="#aa85d0" d="M94 81h4" />
<path stroke="#ab5783" d="M98 81h3M130 112h1" />
<path stroke="#0a012d" d="M102 81h2M99 233h3M102 249h1M101 401h1M130 401h97M102 425h1" />
<path stroke="#090028" d="M104 81h1M103 84h1M104 85h1M102 87h1M103 88h1M104 89h1M102 91h2M102 92h3M102 93h3M102 94h3M102 95h3M92 96h1M97 96h4M102 96h3M104 97h1M104 98h1M104 99h1M0 235h127M102 248h3M102 259h1M102 260h1M102 261h1M102 262h1M102 263h1M45 264h45M91 264h4M99 264h2M102 264h1M227 401h2M0 403h127M128 403h108M102 424h3M102 435h1M102 436h1M102 437h1M102 438h1M102 439h1M45 440h50M99 440h2M102 440h1" />
<path stroke="rgba(201,201,201,0.25882352941176473)" d="M130 81h1M130 82h1M130 83h1M130 84h1M130 85h1M130 86h1M130 87h1M130 88h1M130 89h1M130 90h1M130 91h1M130 92h1M130 93h1M130 94h1M130 95h1M130 96h1M130 97h1M130 98h1M130 99h1M204 420h10" />
<path stroke="#8774c9" d="M0 82h4" />
<path stroke="#826fc4" d="M4 82h1M130 503h1" />
<path stroke="#7764b9" d="M5 82h27M33 82h1M1 83h1M5 83h29" />
<path stroke="#7865ba" d="M32 82h1M2 83h1" />
<path stroke="#7663b8" d="M0 83h1" />
<path stroke="#7a67bc" d="M3 83h1" />
<path stroke="#2b121f" d="M99 83h3M101 84h1M101 85h1" />
<path stroke="#6c59ae" d="M3 84h1M5 84h1" />
<path stroke="#6d5aaf" d="M6 84h28" />
<path stroke="#441c31" d="M102 84h1M102 85h2M102 86h3M103 87h2M104 88h1" />
<path stroke="#2d585c" d="M102 88h1M102 89h2M103 90h2M104 91h1M43 96h49M127 235h1M127 403h1" />
<path stroke="#1f0c61" d="M44 95h1M100 119h1M16 129h8M20 130h7M24 131h3M46 137h8M0 143h4M9 143h5M0 144h5M10 144h4M19 144h3M43 148h1M100 152h1M104 224h1M0 236h127M128 236h1M130 236h38M0 237h127M128 237h40M44 263h1M18 297h6M22 298h7M26 299h3M48 305h8M0 311h4M9 311h5M18 311h2M0 312h5M10 312h4M19 312h4M45 316h1M104 391h1M104 392h1M104 393h1M0 404h127M128 404h95M0 405h127M128 405h95M140 416h84M44 439h1M59 505h1M67 505h1M74 505h1M104 505h1M59 506h1M67 506h1M74 506h1M104 506h1M67 507h1M74 507h1M104 507h1" />
<path stroke="#57b2ba" d="M91 97h1M44 102h1M66 102h1" />
<path stroke="rgba(0,0,0,0.01568627450980392)" d="M135 97h1" />
<path stroke="rgba(0,0,0,0.12549019607843137)" d="M136 97h1" />
<path stroke="rgba(0,0,0,0.27058823529411763)" d="M137 97h1" />
<path stroke="#338e96" d="M91 98h1M91 99h1M0 102h44M46 102h20M68 102h21" />
<path stroke="#ff4976" d="M130 106h1M130 107h1M130 108h1M130 109h1M130 110h1" />
<path stroke="#010708" d="M128 114h1M150 116h1M151 117h4M156 118h4M159 119h3M162 120h2M164 121h3M167 122h2M169 123h2M172 124h1" />
<path stroke="#06011c" d="M129 115h1M129 116h1M129 117h1M149 117h1M129 118h1M149 118h1M129 119h1M149 119h1M129 120h1M149 120h1M129 121h1M149 121h1M129 122h1M166 122h1M129 123h1M167 123h2M129 124h1M168 124h4M129 125h1M171 125h4M129 126h1M172 126h5M129 127h1M176 127h3M129 128h1M178 128h4M129 129h1M182 129h3M129 130h1M184 130h2M129 131h1M185 131h2M129 132h1M180 132h1M186 132h2M129 133h1M181 133h1M187 133h2M129 134h1M188 134h2M129 135h1M189 135h2M129 136h1M190 136h2M129 137h1M191 137h1M129 138h1M191 138h1M129 139h1M192 139h1M192 140h1M128 141h1M192 141h2M129 142h1M192 142h2M129 143h1M193 143h1M129 144h1M193 144h1M129 145h1M193 145h1M129 146h1M129 147h1M129 148h1M129 149h1M129 150h1M129 151h1M129 152h1M129 153h1M129 154h1M129 155h1M129 156h1M129 157h1M129 158h1M129 159h1M129 160h1M129 161h1M129 162h1M129 163h1M129 164h1M129 165h1M129 166h1M129 167h1M129 168h1M129 169h1M129 170h1M129 171h1M129 172h1M129 173h1M129 174h1M129 175h1M129 176h1M129 177h1M129 178h1M129 179h1M129 180h1M129 181h1M129 182h1M129 183h1M129 184h1M129 185h1M129 186h1M129 187h1M129 188h1M129 189h1M129 190h1M129 191h1M129 192h1M129 193h1M129 194h1M129 195h1M129 196h1M129 197h1M129 198h1M129 199h1M129 200h1M129 201h1M129 202h1M129 203h1M129 204h1M129 205h1M129 206h1M129 207h1M129 208h1M129 209h1M129 210h1M129 211h1M129 212h1M129 213h1M129 215h1M129 216h1M129 217h1M129 218h1M129 219h1M129 220h1M129 221h1M129 222h1M129 223h1M129 224h1M129 225h1M129 226h1M129 227h1M129 228h1M129 229h1M129 230h1M129 231h1M129 232h1M128 233h2M129 236h1" />
<path stroke="#207b83" d="M127 120h1M178 132h1M179 133h1M176 134h1M180 134h1M175 135h1M177 135h1M181 135h1M176 136h1M178 136h1M175 137h1M177 137h1M179 137h1M176 138h1M178 138h1M180 138h1M175 139h1M177 139h1M179 139h1M176 140h1M178 140h1M180 140h1M177 141h1M179 141h1M181 141h1M178 142h1M180 142h1M179 143h1M180 183h2M179 184h3M179 185h3M179 186h3M179 187h3M179 188h3M179 189h3M179 190h3M179 191h3M179 192h3M179 193h3M179 194h3M179 195h3M179 196h3M179 197h3M179 198h3M179 199h3M179 200h3M179 201h3M179 202h3M179 203h3M179 204h3M179 205h3M179 206h3M179 207h3M179 208h3M179 209h3M179 210h3M179 211h3M179 212h3M179 213h3M179 214h3M179 215h3M179 216h3M179 217h3M179 218h3M179 219h3M179 220h3M179 221h3M179 222h3M179 223h3M179 224h3M179 227h3M179 228h3M179 229h3M181 230h1M181 231h1M181 232h1M181 233h1M181 234h1M179 235h2" />
<path stroke="rgba(18,0,85,0.8156862745098039)" d="M169 120h1" />
<path stroke="rgba(19,0,85,0.9098039215686274)" d="M171 121h1" />
<path stroke="#6552a7" d="M131 122h16M150 122h10M165 122h1M128 123h1M131 123h17M150 123h15M128 124h1M131 124h18M150 124h16M128 125h1M150 125h1M128 126h1M150 126h1M128 127h1M131 127h17M150 127h26M128 128h1M131 128h17M150 128h3M154 128h24M128 129h1M131 129h17M150 129h32M128 130h1M131 130h17M150 130h27M179 130h5M128 131h1M131 131h17M150 131h26M177 131h1M180 131h5M128 132h1M131 132h17M150 132h25M176 132h1M181 132h5M128 133h1M131 133h17M150 133h24M175 133h1M177 133h2M182 133h5M128 134h1M131 134h17M150 134h23M174 134h1M177 134h3M183 134h5M128 135h1M131 135h17M150 135h22M176 135h1M178 135h3M184 135h5M128 136h1M131 136h17M150 136h22M175 136h1M177 136h1M179 136h3M185 136h5M128 137h1M131 137h17M150 137h23M174 137h1M176 137h1M178 137h1M180 137h3M185 137h6M128 138h1M131 138h17M150 138h23M175 138h1M177 138h1M179 138h1M181 138h3M186 138h5M128 139h1M131 139h17M150 139h24M176 139h1M178 139h1M180 139h5M187 139h5M131 140h12M144 140h4M150 140h25M177 140h1M179 140h1M181 140h5M188 140h4M131 141h17M150 141h7M158 141h18M178 141h1M180 141h1M182 141h3M189 141h3M131 142h17M150 142h27M179 142h1M181 142h3M190 142h2M131 143h17M150 143h28M180 143h3M131 144h17M150 144h29M181 144h1M131 145h17M150 145h26M177 145h4M131 146h17M150 146h25M176 146h4M131 147h17M150 147h24M175 147h4M180 147h2M131 148h17M150 148h1M174 148h4M179 148h4M131 149h17M150 149h1M174 149h3M178 149h4M183 149h1M131 150h17M150 150h22M173 150h3M177 150h6M184 150h1M131 151h17M150 151h22M174 151h1M176 151h8M185 151h1M131 152h17M150 152h23M175 152h10M186 152h1M131 153h17M150 153h3M154 153h20M176 153h10M187 153h1M131 154h17M150 154h25M177 154h12M131 155h17M150 155h26M178 155h12M131 156h17M150 156h27M183 156h8M128 157h1M131 157h17M150 157h4M155 157h23M184 157h8M128 158h1M131 158h17M186 158h7M128 159h1M131 159h14M146 159h2M150 159h6M157 159h23M187 159h7M128 160h1M131 160h17M150 160h6M157 160h24M188 160h7M128 161h1M131 161h17M150 161h6M157 161h25M189 161h7M128 162h1M131 162h17M150 162h6M157 162h25M190 162h7M128 163h1M131 163h17M150 163h6M157 163h25M191 163h7M128 164h1M131 164h17M150 164h6M157 164h25M183 164h1M192 164h7M128 165h1M131 165h17M150 165h6M157 165h25M184 165h1M193 165h7M128 166h1M131 166h17M150 166h6M157 166h25M184 166h2M194 166h7M128 167h1M131 167h17M150 167h6M157 167h25M184 167h3M195 167h7M128 168h1M131 168h17M150 168h6M157 168h25M184 168h4M196 168h7M128 169h1M131 169h17M150 169h6M157 169h25M184 169h5M197 169h5M128 170h1M131 170h17M150 170h6M157 170h25M184 170h6M198 170h3M128 171h1M131 171h17M150 171h6M157 171h25M184 171h6M199 171h1M128 172h1M131 172h17M150 172h6M157 172h25M184 172h6M128 173h1M131 173h17M150 173h6M157 173h25M184 173h5M128 174h1M131 174h17M150 174h6M157 174h22M180 174h2M184 174h4M128 175h1M131 175h17M150 175h6M157 175h25M184 175h3M128 176h1M131 176h17M150 176h6M157 176h25M184 176h3M128 177h1M131 177h17M150 177h6M157 177h25M184 177h3M128 178h1M131 178h17M150 178h6M157 178h25M184 178h3M128 179h1M131 179h17M150 179h6M157 179h25M184 179h3M128 180h1M131 180h17M150 180h6M157 180h25M184 180h3M128 181h1M131 181h17M150 181h6M157 181h25M184 181h2M128 182h1M131 182h17M150 182h6M157 182h25M128 183h1M131 183h17M150 183h6M157 183h23M128 184h1M131 184h17M150 184h6M157 184h22M128 185h1M131 185h17M150 185h6M157 185h22M128 186h1M131 186h17M150 186h6M157 186h22M128 187h1M131 187h17M150 187h6M157 187h22M128 188h1M131 188h17M150 188h6M157 188h22M128 189h1M131 189h17M150 189h6M157 189h22M128 190h1M131 190h17M150 190h6M157 190h22M128 191h1M131 191h17M150 191h6M157 191h22M128 192h1M131 192h17M150 192h6M157 192h22M128 193h1M131 193h17M150 193h6M157 193h22M128 194h1M131 194h17M150 194h6M157 194h22M128 195h1M131 195h17M150 195h6M157 195h22M128 196h1M131 196h17M150 196h6M157 196h22M128 197h1M131 197h17M150 197h6M157 197h22M128 198h1M131 198h17M150 198h6M157 198h22M128 199h1M131 199h17M150 199h6M157 199h22M128 200h1M131 200h17M150 200h6M157 200h22M128 201h1M131 201h17M150 201h6M157 201h22M128 202h1M131 202h17M150 202h6M157 202h22M128 203h1M131 203h17M150 203h6M157 203h22M128 204h1M131 204h17M150 204h6M157 204h22M128 205h1M131 205h17M150 205h6M157 205h22M128 206h1M131 206h17M150 206h6M157 206h22M128 207h1M131 207h17M150 207h6M157 207h22M128 208h1M131 208h17M150 208h6M157 208h22M128 209h1M131 209h17M150 209h6M157 209h22M128 210h1M131 210h17M150 210h6M157 210h22M128 211h1M131 211h17M150 211h6M157 211h22M128 212h1M131 212h17M150 212h6M157 212h22M128 213h1M131 213h17M150 213h6M157 213h22M132 214h16M150 214h6M157 214h22M128 215h1M131 215h17M150 215h6M157 215h22M128 216h1M131 216h17M150 216h6M157 216h22M128 217h1M131 217h17M150 217h6M157 217h22M128 218h1M131 218h17M150 218h6M157 218h22M131 219h17M150 219h5M157 219h22M131 220h17M150 220h6M157 220h22M131 221h17M150 221h6M157 221h22M131 222h17M150 222h6M157 222h22M131 223h17M150 223h6M157 223h22M131 224h17M150 224h6M157 224h22M131 225h17M131 226h17M150 226h1M131 227h17M150 227h29M131 228h17M150 228h29M131 229h17M150 229h29M131 230h17M150 230h27M131 231h17M150 231h27M131 232h10M142 232h6M150 232h27M171 233h3M172 235h7M181 235h1" />
<path stroke="#000000" d="M149 122h1M149 123h1M149 124h1M130 125h20M151 125h20M149 126h1M149 127h1M149 128h1M149 129h1M149 130h1M149 131h1M149 132h1M149 133h1M149 134h1M149 135h1M183 135h1M149 136h1M183 136h2M149 137h1M183 137h2M149 138h1M184 138h2M149 139h1M186 139h1M149 140h1M186 140h1M149 141h1M185 141h1M128 142h1M149 142h1M184 142h1M149 143h1M183 143h1M149 144h1M182 144h1M149 145h1M181 145h1M184 145h1M149 146h1M180 146h1M183 146h1M149 147h1M184 147h1M149 148h1M151 148h22M183 148h1M149 149h1M184 149h1M149 150h1M183 150h1M149 151h1M184 151h1M149 152h1M149 153h1M149 154h1M149 155h1M149 156h1M149 157h1M149 158h31M184 158h1M149 159h1M156 159h1M149 160h1M156 160h1M149 161h1M156 161h1M183 161h1M149 162h1M156 162h1M183 162h2M149 163h1M156 163h1M183 163h1M149 164h1M156 164h1M184 164h1M149 165h1M156 165h1M183 165h1M149 166h1M156 166h1M183 166h1M149 167h1M156 167h1M183 167h1M149 168h1M156 168h1M183 168h1M149 169h1M156 169h1M183 169h1M149 170h1M156 170h1M183 170h1M149 171h1M156 171h1M183 171h1M149 172h1M156 172h1M183 172h1M149 173h1M156 173h1M183 173h1M149 174h1M156 174h1M183 174h1M149 175h1M156 175h1M183 175h1M149 176h1M156 176h1M183 176h1M149 177h1M156 177h1M183 177h1M149 178h1M156 178h1M183 178h1M149 179h1M156 179h1M183 179h1M149 180h1M156 180h1M183 180h1M149 181h1M156 181h1M183 181h1M149 182h1M156 182h1M183 182h2M149 183h1M156 183h1M183 183h2M149 184h1M156 184h1M183 184h2M149 185h1M156 185h1M183 185h2M149 186h1M156 186h1M183 186h2M149 187h1M156 187h1M183 187h2M149 188h1M156 188h1M183 188h2M149 189h1M156 189h1M183 189h2M149 190h1M156 190h1M183 190h2M149 191h1M156 191h1M183 191h2M149 192h1M156 192h1M183 192h2M149 193h1M156 193h1M183 193h2M149 194h1M156 194h1M183 194h2M149 195h1M156 195h1M183 195h2M149 196h1M156 196h1M183 196h2M149 197h1M156 197h1M183 197h2M149 198h1M156 198h1M183 198h2M149 199h1M156 199h1M183 199h2M149 200h1M156 200h1M183 200h2M149 201h1M156 201h1M183 201h2M149 202h1M156 202h1M183 202h2M149 203h1M156 203h1M183 203h2M149 204h1M156 204h1M183 204h2M149 205h1M156 205h1M183 205h2M149 206h1M156 206h1M183 206h2M149 207h1M156 207h1M183 207h2M149 208h1M156 208h1M183 208h2M149 209h1M156 209h1M183 209h2M149 210h1M156 210h1M183 210h2M149 211h1M156 211h1M183 211h2M149 212h1M156 212h1M183 212h2M149 213h1M156 213h1M183 213h2M149 214h1M156 214h1M183 214h2M149 215h1M156 215h1M183 215h2M149 216h1M156 216h1M183 216h2M149 217h1M156 217h1M183 217h2M149 218h1M156 218h1M183 218h2M149 219h1M156 219h1M183 219h2M149 220h1M156 220h1M183 220h2M149 221h1M156 221h1M183 221h2M149 222h1M156 222h1M183 222h2M149 223h1M156 223h1M183 223h2M149 224h1M156 224h1M183 224h2M149 225h36M149 226h1M183 226h2M149 227h1M183 227h2M149 228h1M183 228h3M149 229h1M183 229h3M149 230h1M183 230h3M149 231h1M183 231h3M149 232h1M183 232h3M149 233h1M183 233h4M149 234h1M183 234h4M149 235h1M182 235h1M184 235h3" />
<path stroke="rgba(19,0,85,0.9254901960784314)" d="M173 122h1" />
<path stroke="#6453a3" d="M130 123h1M130 124h1M130 127h1M130 128h1M130 129h1M130 130h1M130 131h1M130 132h1M130 133h1M130 134h1M130 135h1M130 136h1M130 137h1M130 138h1M130 139h1M130 141h1M130 142h1M130 143h1M130 144h1M130 145h1M130 146h1M130 147h1M130 148h1M130 149h1M130 150h1M130 151h1M130 152h1M130 153h1M130 154h1M130 155h1M130 156h1M130 157h1M130 158h1M130 159h1M130 160h1M130 161h1M130 162h1M130 163h1M130 164h1M130 165h1M130 166h1M130 167h1M130 168h1M130 169h1M130 170h1M130 171h1M130 172h1M130 173h1M130 174h1M130 175h1M130 176h1M130 177h1M130 178h1M130 179h1M130 180h1M130 181h1M130 182h1M130 183h1M130 184h1M130 185h1M130 186h1M130 187h1M130 188h1M130 189h1M130 190h1M130 191h1M130 192h1M130 193h1M130 194h1M130 195h1M130 196h1M130 197h1M130 198h1M130 199h1M130 200h1M130 201h1M130 202h1M130 203h1M130 204h1M130 205h1M130 206h1M130 207h1M130 208h1M130 209h1M130 210h1M130 211h1M130 212h1M130 213h1M130 215h1M130 216h1M130 217h1M130 218h1M130 219h1M130 220h1M130 221h1M130 222h1M130 223h1M130 224h1M130 225h1M130 226h1M130 227h1M130 228h1M130 229h1M130 230h1M130 231h1M130 232h1M174 233h3M130 234h18M150 234h27" />
<path stroke="rgba(19,0,85,0.6980392156862745)" d="M175 123h1" />
<path stroke="rgba(19,0,85,0.984313725490196)" d="M177 124h1" />
<path stroke="rgba(19,0,85,0.9333333333333333)" d="M179 124h1" />
<path stroke="#9887d7" d="M130 126h1M148 234h1" />
<path stroke="#9986db" d="M131 126h18M151 126h21M148 127h1M148 128h1M148 129h1M148 130h1M148 131h1M148 132h1M148 133h1M148 134h1M148 135h1M148 136h1M148 137h1M148 138h1M148 139h1M148 140h1M148 141h1M148 142h1M148 143h1M148 144h1M148 145h1M148 146h1M148 147h1M148 148h1M148 149h1M151 149h22M148 150h1M148 151h1M148 152h1M148 153h1M148 154h1M148 155h1M148 156h1M148 157h1M148 158h1M148 159h1M148 160h1M148 161h1M148 162h1M148 163h1M148 164h1M148 165h1M148 166h1M148 167h1M148 168h1M148 169h1M148 170h1M148 171h1M148 172h1M148 173h1M148 174h1M148 175h1M148 176h1M148 177h1M148 178h1M148 179h1M148 180h1M148 181h1M148 182h1M148 183h1M148 184h1M148 185h1M148 186h1M148 187h1M148 188h1M148 189h1M148 190h1M148 191h1M148 192h1M148 193h1M148 194h1M148 195h1M148 196h1M148 197h1M148 198h1M148 199h1M148 200h1M148 201h1M148 202h1M148 203h1M148 204h1M148 205h1M148 206h1M148 207h1M148 208h1M148 209h1M148 210h1M148 211h1M148 212h1M148 213h1M148 214h1M148 215h1M148 216h1M148 217h1M148 218h1M148 219h1M148 220h1M148 221h1M148 222h1M148 223h1M148 224h1M148 225h1M148 226h1M151 226h28M148 227h1M148 228h1M148 229h1M148 230h1M148 231h1M148 232h1" />
<path stroke="#656156" d="M153 128h1M143 140h1M157 141h1M153 153h1M154 157h1M145 159h1M179 174h1M155 219h1M177 230h4M177 231h4M141 232h1M177 232h4" />
<path stroke="#0d013d" d="M0 129h16M0 130h20M0 131h24M0 132h28M0 133h27M0 134h29M0 135h5M8 135h6M17 135h5M1 136h5M9 136h6M18 136h5M2 137h6M10 137h6M19 137h5M33 137h13M3 138h6M12 138h5M20 138h6M4 139h6M13 139h5M21 139h6M6 140h5M14 140h6M22 140h6M0 141h1M7 141h5M15 141h6M24 141h5M0 142h3M8 142h5M16 142h6M25 142h5M18 143h3M26 143h5M28 144h3M45 144h9M24 145h7M45 145h1M29 146h2M45 146h1M45 147h1M41 148h2M0 297h18M0 298h22M0 299h26M0 300h30M0 301h30M0 302h29M0 303h5M8 303h6M17 303h5M1 304h5M9 304h6M18 304h5M2 305h6M10 305h6M19 305h5M33 305h15M3 306h6M12 306h5M20 306h6M4 307h6M13 307h5M21 307h6M6 308h5M14 308h6M22 308h6M0 309h1M7 309h5M15 309h6M24 309h5M0 310h3M8 310h5M16 310h6M25 310h5M20 311h3M26 311h5M27 312h4M45 312h11M26 313h5M45 313h1M29 314h2M45 314h1M45 315h1M43 316h2M2 481h5" />
<path stroke="#734e99" d="M178 131h1M177 132h1M179 132h1M176 133h1M180 133h1M175 134h1M181 134h1M173 135h2M173 136h2M174 138h1" />
<path stroke="#816ec3" d="M5 135h3M14 135h3M22 135h8M0 136h1M6 136h3M15 136h3M23 136h9M0 137h2M8 137h2M16 137h3M24 137h9M0 138h3M9 138h3M17 138h3M26 138h26M0 139h4M10 139h3M18 139h3M27 139h27M0 140h6M11 140h3M20 140h2M28 140h26M1 141h6M12 141h3M21 141h3M29 141h25M3 142h5M13 142h3M22 142h3M30 142h24M31 143h23M31 144h14M31 145h14M46 145h8M26 146h3M31 146h14M46 146h8M36 147h9M46 147h6M29 302h3M5 303h3M14 303h3M22 303h10M0 304h1M6 304h3M15 304h3M23 304h10M0 305h2M8 305h2M16 305h3M24 305h9M0 306h3M9 306h3M17 306h3M26 306h28M0 307h4M10 307h3M18 307h3M27 307h29M0 308h6M11 308h3M20 308h2M28 308h28M1 309h6M12 309h3M21 309h3M29 309h27M3 310h5M13 310h3M22 310h3M30 310h26M23 311h3M31 311h25M25 312h2M31 312h14M31 313h14M46 313h10M28 314h1M31 314h14M46 314h10M38 315h7M46 315h8M0 481h2" />
<path stroke="#625c75" d="M130 140h1M130 214h2" />
<path stroke="#06011d" d="M129 141h1M129 234h1M129 235h1" />
<path stroke="#6754a9" d="M0 146h2M5 146h21M0 147h31M32 147h4M52 147h2M0 148h32M46 148h8M0 149h54M0 150h54M0 151h54M0 152h54M0 153h54M0 154h54M1 155h53M0 156h54M0 157h54M0 158h54M0 159h54M0 160h54M0 161h54M0 162h54M0 163h54M0 164h54M0 165h54M0 166h34M35 166h19M0 167h54M0 168h54M0 169h54M0 170h54M0 171h54M0 172h54M0 173h54M0 174h54M0 175h54M0 176h54M0 177h54M0 178h54M0 179h54M0 180h54M0 181h54M0 182h54M0 183h54M0 184h54M0 185h54M0 186h54M0 187h54M0 188h54M0 189h54M0 190h54M0 191h54M0 192h54M0 193h54M0 194h54M0 195h54M0 196h54M0 197h54M0 198h54M0 199h54M0 200h54M0 201h54M0 202h54M0 203h54M0 204h54M0 205h54M0 206h54M0 207h54M0 208h54M0 209h54M0 210h54M0 211h54M0 212h54M0 213h54M0 214h54M0 215h54M0 216h54M0 217h54M0 218h54M0 219h54M0 220h54M0 221h54M0 222h54M0 223h54M0 224h54M0 225h54M0 226h54M0 227h54M0 228h54M0 229h54M0 314h2M5 314h23M0 315h31M32 315h6M54 315h2M0 316h32M46 316h10M0 317h56M0 318h56M0 319h56M0 320h56M0 321h56M0 322h56M0 323h2M3 323h53M0 324h56M0 325h56M0 326h56M0 327h56M0 328h56M0 329h56M0 330h56M0 331h56M0 332h56M0 333h56M0 334h36M37 334h19M0 335h56M0 336h56M0 337h56M0 338h56M0 339h56M0 340h56M0 341h56M0 342h56M0 343h56M0 344h56M0 345h56M0 346h56M0 347h56M0 348h56M0 349h56M0 350h56M0 351h56M0 352h56M0 353h56M0 354h56M0 355h56M0 356h56M0 357h56M0 358h56M0 359h56M0 360h56M0 361h56M0 362h56M0 363h56M0 364h56M0 365h56M0 366h56M0 367h56M0 368h56M0 369h56M0 370h56M0 371h56M0 372h56M0 373h56M0 374h56M0 375h56M0 376h56M0 377h56M0 378h56M0 379h56M0 380h56M0 381h56M0 382h56M0 383h56M0 384h56M0 385h56M0 386h56M0 387h56M0 388h56M0 389h56M0 390h56M0 391h56M0 392h56M0 393h56M0 394h56M0 395h56M0 396h56M0 397h56M0 504h56" />
<path stroke="#564594" d="M182 149h1" />
<path stroke="#0b0133" d="M128 150h1" />
<path stroke="#b09df2" d="M128 151h1M128 152h1M128 153h1" />
<path stroke="#8b78cd" d="M128 154h1M128 155h1M128 156h1M128 219h1M128 220h1M128 221h1M128 222h1M128 223h1M128 224h1M128 225h1M128 226h1M128 227h1M128 228h1M128 229h1M128 230h1M128 231h1M128 232h1" />
<path stroke="#ff0038" d="M207 167h1M205 168h1M208 168h1M204 169h1M206 169h1M209 169h1M203 170h1M205 170h1M210 170h1M202 171h1M204 171h1M211 171h1M201 172h1M203 172h1M200 173h1M202 173h1M199 174h1M201 174h1M198 175h1M200 175h1M199 176h1" />
<path stroke="#237e86" d="M127 216h1M127 217h1M127 218h1M127 219h1M127 220h1M127 221h1M127 222h1M127 223h1M127 224h1M127 225h1M127 226h1M127 227h1M127 228h1M127 229h1M127 230h1M127 231h1M127 232h1M127 383h1M127 384h1M127 385h1M127 386h1M127 387h1M127 388h1M127 389h1M127 390h1M127 391h1M127 392h1M127 393h1M127 394h1M127 395h1M127 396h1M127 397h1M127 398h1M127 399h1M127 400h1" />
<path stroke="#624fa4" d="M100 220h1M101 230h1M104 234h22M130 384h1M130 385h1M130 386h1M130 387h1M130 388h1M130 389h1M130 390h1M130 391h1M130 392h1M130 393h1M130 394h1M130 395h1M130 396h1M130 397h1M130 398h1M130 399h1M130 400h1M106 402h21" />
<path stroke="#4e4b46" d="M182 223h1M182 224h1" />
<path stroke="#54afb7" d="M179 226h3" />
<path stroke="#827f7a" d="M182 226h1" />
<path stroke="#625985" d="M130 233h18M150 233h20" />
<path stroke="#968db9" d="M148 233h1" />
<path stroke="#635693" d="M170 233h1" />
<path stroke="#646159" d="M177 233h4M177 234h3" />
<path stroke="rgba(255,255,255,0.00392156862745098)" d="M182 233h1M216 577h3" />
<path stroke="#8a79c9" d="M128 234h1" />
<path stroke="#646158" d="M180 234h1" />
<path stroke="#8980a8" d="M128 235h1" />
<path stroke="#635a82" d="M130 235h18M150 235h18" />
<path stroke="#978eb6" d="M148 235h1" />
<path stroke="#635a83" d="M168 235h1" />
<path stroke="#635987" d="M169 235h1" />
<path stroke="#645696" d="M170 235h1" />
<path stroke="#6553a5" d="M171 235h1" />
<path stroke="#0a656d" d="M183 235h1" />
<path stroke="#2e747b" d="M127 236h1M127 237h1M127 404h1M127 405h1" />
<path stroke="#1e0b60" d="M168 236h1M176 239h1M134 245h1M59 507h1" />
<path stroke="#150257" d="M170 236h1M137 244h1M59 508h1M67 508h1M74 508h1M104 508h1" />
<path stroke="#18055a" d="M169 237h1" />
<path stroke="#080121" d="M167 238h1" />
<path stroke="#170459" d="M168 238h1M132 247h1" />
<path stroke="#2c196e" d="M169 238h1M144 241h1" />
<path stroke="#332075" d="M170 238h5M0 239h127M128 239h47M0 240h127M128 240h47M0 241h127M128 241h12M0 242h127M128 242h6M0 243h127M128 243h6M0 244h127M128 244h3M132 244h1M0 245h127M128 245h3M104 246h23M128 246h3M104 247h23M128 247h2M223 406h8M0 407h127M128 407h105M0 408h127M128 408h105M142 413h91M224 414h9M224 415h7" />
<path stroke="#301d72" d="M175 238h1M130 247h1" />
<path stroke="#140156" d="M177 238h1M130 505h1" />
<path stroke="#1d737b" d="M127 239h1M127 240h1M127 241h1M127 242h1M127 243h1M127 244h1M127 245h1M127 246h1M127 247h1M127 407h1M127 408h1" />
<path stroke="#2e1b70" d="M175 239h1M143 241h1M134 244h1" />
<path stroke="#2d1a6f" d="M175 240h1" />
<path stroke="#321f74" d="M140 241h1M133 244h1" />
<path stroke="#311e73" d="M141 241h1M132 245h1" />
<path stroke="#2f1c71" d="M142 241h1M138 242h1" />
<path stroke="#2b186d" d="M145 241h1" />
<path stroke="#2a176c" d="M146 241h1M158 241h1M133 245h1" />
<path stroke="#29166b" d="M147 241h11M159 241h16" />
<path stroke="#241166" d="M175 241h1" />
<path stroke="#19065b" d="M176 241h1M133 246h1" />
<path stroke="#4a378c" d="M134 242h3M134 243h1M131 244h1M131 245h1" />
<path stroke="#4b388d" d="M137 242h1M135 243h1" />
<path stroke="#4f3c91" d="M139 242h1" />
<path stroke="#523f94" d="M140 242h1M135 244h1" />
<path stroke="#554297" d="M141 242h1" />
<path stroke="#58459a" d="M142 242h1M136 244h1" />
<path stroke="#5a479c" d="M143 242h1" />
<path stroke="#5b489d" d="M144 242h1M139 243h1" />
<path stroke="#5c499e" d="M145 242h1" />
<path stroke="#5d4a9f" d="M146 242h30M140 243h1M135 245h1" />
<path stroke="#5e4ba0" d="M176 242h3M181 242h1M141 243h38M181 243h3M138 244h41M137 245h119M137 246h41M136 247h122M135 248h10M135 391h38M135 392h39M135 393h39M135 394h40M135 395h41M135 396h42M135 397h44M135 398h44M135 399h45M234 409h44M234 410h44M234 411h44M234 412h44" />
<path stroke="#47a2aa" d="M179 242h2M179 243h2M184 243h24M179 244h76" />
<path stroke="rgba(131,125,113,0.6784313725490196)" d="M182 242h70M255 242h2M256 243h2M258 244h1" />
<path stroke="#4e3b90" d="M136 243h1" />
<path stroke="#261368" d="M137 243h1M132 246h1" />
<path stroke="#574499" d="M138 243h1" />
<path stroke="#926db8" d="M208 243h45" />
<path stroke="#2d2740" d="M0 246h104M0 247h104" />
<path stroke="#4c398e" d="M131 246h1" />
<path stroke="#534095" d="M131 247h1" />
<path stroke="rgba(162,142,73,0.7019607843137254)" d="M90 262h1" />
<path stroke="#48a3ab" d="M127 402h1" />
<path stroke="#6855aa" d="M0 409h127M128 409h106M0 410h127M128 410h106M0 411h127M128 411h106M0 412h127M128 412h106M0 413h127M128 413h14" />
<path stroke="#358b93" d="M127 409h1M127 410h1M127 411h1M127 412h1M127 413h1" />
<path stroke="#57516a" d="M0 414h127M128 414h13M0 415h127M128 415h12" />
<path stroke="#516c6f" d="M127 414h1M127 415h1" />
<path stroke="#614ea3" d="M0 416h127M128 416h12" />
<path stroke="#42888f" d="M127 416h1" />
<path stroke="#3c297e" d="M0 468h18M0 469h27M0 470h33M0 471h34M93 471h5M0 472h35M92 472h7M24 473h12M91 473h9M29 474h15M46 474h20M68 474h33M30 475h14M46 475h20M68 475h33M30 476h14M46 476h20M68 476h33M30 477h14M46 477h20M68 477h33M29 478h15M46 478h20M68 478h33M5 479h3M14 479h3M22 479h22M46 479h20M68 479h32M0 480h1M6 480h3M15 480h3M23 480h10M56 480h10M68 480h31M8 481h2M16 481h3M24 481h9M57 481h9M68 481h32M0 482h3M9 482h3M17 482h3M26 482h30M58 482h8M68 482h33M0 483h4M10 483h3M18 483h3M27 483h30M59 483h7M68 483h33M0 484h6M11 484h3M20 484h2M28 484h30M59 484h7M68 484h33M1 485h6M12 485h3M21 485h3M29 485h30M60 485h5M90 485h11M3 486h5M13 486h3M22 486h3M30 486h29M60 486h6M68 486h1M4 487h5M14 487h4M23 487h3M31 487h28M60 487h6M68 487h1M5 488h5M14 488h5M23 488h4M31 488h14M60 488h6M68 488h33M31 489h14M46 489h13M60 489h6M68 489h33M0 490h2M5 490h24M31 490h14M46 490h13M60 490h6M68 490h33M0 491h31M32 491h13M46 491h13M60 491h6M68 491h33M0 492h32M46 492h10M57 492h2M60 492h6M68 492h33M0 493h59M60 493h6M68 493h33M0 494h59M60 494h6M68 494h33M0 495h59M60 495h6M68 495h33M0 496h59M60 496h6M0 497h59M60 497h6M68 497h6M75 497h26M0 498h59M60 498h6M68 498h6M75 498h26M0 499h59M60 499h6M68 499h6M75 499h25M0 500h59M60 500h6M68 500h6M75 500h24M0 501h59M60 501h6M68 501h6M75 501h23M0 502h59M60 502h6M68 502h6M75 502h12M91 502h6M0 503h59M60 503h6M68 503h6M75 503h11" />
<path stroke="#7b4bc2" d="M126 502h1M126 503h1M126 504h1M126 505h1M126 506h1M159 506h2M126 507h1M159 507h2M124 508h1M126 508h1M155 508h2M159 508h2M124 509h1M126 509h1M155 509h2M159 509h3M164 509h1M121 510h1M124 510h1M126 510h1M131 510h1M136 510h2M141 510h1M153 510h1M155 510h2M159 510h1M161 510h1M164 510h1M121 511h1M123 511h2M126 511h1M131 511h1M136 511h2M141 511h1M150 511h1M155 511h2M159 511h3M164 511h1M119 512h1M121 512h1M123 512h2M126 512h1M131 512h1M136 512h2M141 512h1M146 512h2M150 512h2M155 512h2M159 512h3M163 512h2M119 513h1M121 513h1M123 513h2M126 513h2M131 513h1M136 513h3M141 513h1M147 513h1M151 513h3M155 513h2M159 513h3M163 513h2M119 514h1M121 514h1M123 514h2M126 514h2M130 514h4M136 514h3M141 514h1M149 514h2M152 514h2M155 514h2M159 514h3M163 514h2M120 515h4M125 515h3M130 515h4M136 515h6M151 515h1M153 515h4M159 515h2M162 515h3M167 515h1M120 516h2M125 516h9M136 516h6M150 516h1M152 516h1M154 516h3M158 516h8M167 516h1M122 517h15M138 517h4M147 517h21M151 518h19" />
<path stroke="#564398" d="M66 503h1" />
<path stroke="#503d92" d="M66 504h1" />
<path stroke="#7360b5" d="M130 504h1" />
<path stroke="#06001d" d="M101 506h1" />
<path stroke="#06001c" d="M102 506h2" />
<path stroke="#11004b" d="M101 507h1" />
<path stroke="#100049" d="M102 507h1" />
<path stroke="#100047" d="M103 507h1" />
<path stroke="rgba(170,170,170,0.011764705882352941)" d="M219 577h1" />
<path stroke="rgba(191,191,191,0.01568627450980392)" d="M220 577h1" />
<path stroke="rgba(213,213,213,0.023529411764705882)" d="M221 577h1" />
<path stroke="rgba(191,191,191,0.03137254901960784)" d="M222 577h1" />
<path stroke="rgba(209,209,209,0.043137254901960784)" d="M223 577h1" />
<path stroke="rgba(196,196,196,0.050980392156862744)" d="M224 577h1" />
<path stroke="rgba(191,191,191,0.06274509803921569)" d="M225 577h1" />
<path stroke="rgba(204,204,204,0.0784313725490196)" d="M226 577h1" />
</svg>