<svg xmlns="http://www.w3.org/2000/svg" viewBox="0 -0.5 960 600" shape-rendering="crispEdges">
<metadata>Made with Pixels to Svg https://codepen.io/shshaw/pen/XbxvNj</metadata>
<path stroke="#88f7ff" d="M391 535h13M442 535h13M390 536h1M404 536h1M441 536h1M455 536h1M389 537h1M405 537h1M440 537h1M456 537h1M388 538h1M393 538h2M397 538h1M400 538h1M406 538h1M439 538h1M445 538h1M448 538h1M451 538h2M457 538h1M387 539h1M392 539h3M397 539h1M400 539h1M406 539h1M439 539h1M445 539h1M448 539h1M451 539h3M458 539h1M386 540h1M391 540h4M397 540h1M400 540h1M406 540h1M439 540h1M445 540h1M448 540h1M451 540h4M459 540h1M385 541h1M390 541h5M397 541h1M400 541h1M406 541h1M439 541h1M445 541h1M448 541h1M451 541h5M460 541h1M384 542h1M389 542h6M397 542h1M400 542h1M406 542h1M439 542h1M445 542h1M448 542h1M451 542h6M461 542h1M383 543h1M388 543h7M397 543h1M400 543h1M406 543h1M439 543h1M445 543h1M448 543h1M451 543h7M462 543h1M383 544h1M387 544h8M397 544h1M400 544h1M406 544h1M439 544h1M445 544h1M448 544h1M451 544h8M462 544h1M383 545h1M386 545h9M397 545h1M400 545h1M406 545h1M439 545h1M445 545h1M448 545h1M451 545h9M462 545h1M383 546h1M386 546h9M397 546h1M400 546h1M406 546h1M410 546h1M414 546h13M430 546h1M434 546h3M439 546h1M445 546h1M448 546h1M451 546h9M462 546h1M383 547h1M386 547h9M397 547h1M400 547h1M406 547h1M439 547h1M445 547h1M448 547h1M451 547h9M462 547h1M383 548h1M387 548h8M397 548h1M400 548h1M406 548h1M439 548h1M445 548h1M448 548h1M451 548h8M462 548h1M383 549h1M388 549h7M397 549h1M400 549h1M406 549h1M439 549h1M445 549h1M448 549h1M451 549h7M462 549h1M384 550h1M389 550h6M397 550h1M400 550h1M406 550h1M439 550h1M445 550h1M448 550h1M451 550h6M461 550h1M385 551h1M390 551h5M397 551h1M400 551h1M406 551h1M439 551h1M445 551h1M448 551h1M451 551h5M460 551h1M386 552h1M391 552h4M397 552h1M400 552h1M406 552h1M439 552h1M445 552h1M448 552h1M451 552h4M459 552h1M387 553h1M392 553h3M397 553h1M400 553h1M406 553h1M439 553h1M445 553h1M448 553h1M451 553h3M458 553h1M388 554h1M406 554h1M439 554h1M457 554h1M389 555h1M405 555h1M440 555h1M456 555h1M390 556h1M404 556h1M441 556h1M455 556h1M391 557h13M442 557h13" />
</svg>