<svg xmlns="http://www.w3.org/2000/svg" viewBox="0 -0.5 960 600" shape-rendering="crispEdges">
<metadata>Made with Pixels to Svg https://codepen.io/shshaw/pen/XbxvNj</metadata>
<path stroke="rgba(220,156,220,0.23137254901960785)" d="M180 259h10M176 260h18M174 261h22M172 262h26M171 263h28M169 264h32M168 265h34M167 266h36M0 267h204M0 268h205M0 269h205M0 270h206M0 271h207M0 272h207M0 273h208M0 274h208M0 275h209M0 276h209M0 277h209M0 278h209M0 279h210M0 280h210M0 281h210M0 282h210M0 283h210M0 284h210M0 285h210M0 286h210M0 287h210M0 288h210M0 289h210M0 290h210M0 291h210M0 292h210M0 293h210M0 294h209M216 294h8M0 295h209M213 295h14M0 296h209M211 296h18M0 297h208M209 297h22M0 298h232M0 299h233M0 300h234M357 300h10M0 301h235M354 301h16M0 302h235M351 302h22M0 303h236M350 303h24M0 304h236M348 304h28M0 305h237M347 305h30M0 306h237M346 306h32M0 307h237M345 307h34M0 308h238M344 308h36M0 309h238M240 309h5M343 309h38M0 310h247M342 310h40M0 311h248M342 311h40M0 312h248M303 312h10M341 312h42M0 313h249M299 313h18M340 313h44M0 314h249M296 314h24M340 314h44M0 315h249M293 315h29M340 315h44M0 316h249M291 316h32M339 316h46M0 317h249M290 317h35M339 317h46M0 318h248M288 318h38M339 318h46M0 319h248M287 319h40M338 319h48M0 320h247M286 320h42M338 320h48M0 321h247M248 321h8M285 321h44M338 321h48M0 322h260M284 322h46M338 322h48M0 323h263M283 323h48M338 323h48M0 324h265M282 324h49M338 324h48M0 325h267M282 325h50M338 325h48M0 326h268M281 326h52M338 326h48M0 327h270M280 327h53M338 327h48M0 328h271M280 328h54M338 328h48M0 329h272M279 329h55M339 329h46M0 330h272M279 330h55M339 330h46M0 331h273M279 331h56M339 331h46M0 332h274M278 332h57M340 332h44M0 333h274M278 333h57M340 333h44M0 334h275M278 334h57M340 334h44M0 335h336M341 335h42M0 336h336M342 336h40M0 337h336M342 337h40M0 338h336M343 338h38M0 339h336M344 339h36M0 340h336M345 340h34M0 341h338M346 341h32M0 342h341M347 342h30M0 343h343M348 343h28M0 344h345M350 344h24M0 345h346M351 345h22M0 346h348M354 346h16M0 347h349M357 347h10M0 348h350M0 349h350M0 350h351M0 351h352M0 352h352M363 352h11M0 353h353M359 353h19M0 354h353M357 354h23M0 355h383M0 356h384M0 357h386M0 358h387M0 359h388M0 360h389M0 361h390M0 362h391M0 363h392M404 363h9M0 364h393M401 364h15M0 365h393M398 365h21M0 366h394M397 366h23M0 367h422M0 368h423M0 369h424M0 370h425M0 371h426M445 371h9M0 372h426M442 372h15M0 373h427M439 373h21M0 374h428M438 374h23M0 375h428M436 375h27M0 376h428M435 376h29M0 377h429M434 377h31M0 378h429M433 378h33M0 379h429M432 379h35M0 380h430M432 380h35M0 381h430M431 381h37M0 382h469M0 383h469M0 384h469M0 385h470M0 386h470M529 386h10M0 387h470M526 387h16M0 388h471M524 388h20M0 389h471M475 389h11M507 389h8M522 389h24M605 389h10M0 390h490M505 390h12M521 390h26M602 390h16M0 391h492M503 391h46M600 391h20M0 392h495M502 392h48M582 392h5M598 392h24M0 393h496M501 393h50M580 393h9M597 393h26M0 394h498M500 394h51M579 394h11M595 394h30M0 395h552M578 395h13M594 395h32M0 396h553M578 396h13M593 396h34M0 397h553M577 397h15M593 397h34M0 398h554M577 398h51M0 399h554M556 399h10M577 399h52M0 400h569M577 400h52M0 401h571M577 401h53M0 402h573M578 402h52M0 403h574M578 403h53M0 404h576M579 404h52M0 405h577M580 405h51M0 406h578M582 406h5M588 406h44M0 407h578M588 407h44M0 408h579M588 408h47M0 409h580M588 409h50M0 410h580M588 410h52M0 411h581M586 411h56M0 412h581M585 412h58M0 413h582M583 413h62M0 414h646M0 415h647M0 416h647M0 417h648M0 418h649M0 419h649M0 420h650M0 421h650M0 422h651M0 423h651M0 424h651M0 425h652M0 426h652M0 427h652M0 428h652M0 429h652M653 429h10M0 430h666M0 431h668M0 432h670M0 433h671M0 434h673M0 435h674M0 436h675M0 437h675M0 438h676M0 439h677M0 440h677M0 441h678M0 442h678M0 443h679M0 444h679M0 445h679M0 446h680M0 447h680M0 448h680M0 449h680M0 450h680M0 451h680M0 452h680M0 453h680M0 454h680M0 455h680M0 456h679M0 457h679M0 458h679M0 459h678M0 460h678M0 461h677M0 462h677M0 463h676M0 464h675M0 465h675M0 466h674M0 467h673M0 468h671M0 469h670M0 470h645M648 470h20M0 471h643M650 471h16M0 472h642M653 472h10M0 473h660M622 474h16M625 475h10" />
</svg>