<svg xmlns="http://www.w3.org/2000/svg" viewBox="0 -0.5 960 600" shape-rendering="crispEdges">
<metadata>Made with Pixels to Svg https://codepen.io/shshaw/pen/XbxvNj</metadata>
<path stroke="#161751" d="M216 350h10M214 351h2M218 351h6M226 351h2M212 352h2M216 352h10M228 352h2M211 353h1M215 353h13M230 353h1M210 354h1M214 354h15M231 354h1M209 355h1M213 355h5M221 355h9M231 355h1M208 356h1M212 356h5M222 356h8M232 356h1M208 357h1M212 357h4M223 357h8M232 357h1M207 358h1M212 358h4M223 358h8M233 358h1M207 359h1M212 359h4M223 359h9M233 359h1M206 360h1M212 360h5M222 360h11M234 360h1M206 361h1M212 361h6M221 361h12M234 361h1M205 362h1M213 362h21M235 362h1M205 363h1M214 363h20M235 363h1M205 364h1M215 364h19M235 364h1M205 365h1M216 365h18M235 365h1M205 366h1M217 366h17M235 366h1M205 367h1M218 367h16M235 367h1M205 368h1M218 368h16M235 368h1M205 369h2M218 369h16M235 369h1M206 370h2M218 370h3M234 370h1M207 371h5M215 371h4M207 372h2M212 372h1M214 372h1M207 373h1M213 373h1M221 373h1M207 374h1M213 374h1M215 374h6M207 375h1M213 375h3M208 376h1M212 376h1M218 376h1M208 377h4M219 377h1M232 377h1M206 378h5M219 378h2M231 378h1M205 379h6M220 379h2M230 379h2M205 380h6M221 380h10M204 381h7M222 381h8M204 382h6M211 382h1M203 383h6M211 383h1M203 384h4M211 384h1M203 385h1M210 385h2M203 386h1M210 386h2M220 386h12M202 387h1M209 387h3M218 387h2M202 388h1M209 388h3M216 388h2M201 389h1M208 389h4M215 389h1M201 390h1M208 390h4M214 390h1M200 391h1M207 391h5M213 391h1M200 392h1M207 392h2M210 392h3M199 393h1M207 393h1M210 393h1M212 393h2M199 394h1M206 394h1M214 394h1M218 394h2M223 394h1M205 395h1M214 395h2M214 396h2M196 397h1M199 397h1M215 397h1M195 398h1" />
<path stroke="#a92d42" d="M216 351h2M214 352h1M234 366h1M234 367h1M215 368h1M234 368h1M215 369h1M234 369h1M224 370h1M230 370h1M219 371h1M245 371h1M225 373h1" />
<path stroke="#f73e68" d="M224 351h2M226 352h2M228 353h2M229 354h2M230 355h1M230 356h2M231 357h1M231 358h2M232 359h1M233 360h1M233 361h1M234 362h1M234 363h1M234 364h1M234 365h1" />
<path stroke="#f85763" d="M215 352h1M234 372h2M236 373h1M236 374h1M246 374h1M232 375h1M234 375h2M247 375h1M232 376h2M246 376h2M231 377h1M233 377h1M245 377h1M247 377h3M230 378h1M233 378h2M244 378h1M234 379h1M242 379h2M236 381h2M236 382h3M246 382h1M236 383h5M243 383h3M236 384h7M236 385h4M236 386h1M228 388h3M232 388h1" />
<path stroke="#c197db" d="M212 353h1M211 354h1M210 355h1M209 356h1M209 357h1M208 358h1M208 359h1M207 360h1M207 361h2M206 362h2M206 363h3M206 364h2M206 365h3M207 366h3M208 367h2M209 368h1M211 368h1M212 371h1M211 375h1" />
<path stroke="#faa1c7" d="M213 353h2M212 354h2M211 355h2M210 356h2M210 357h2M209 358h3M209 359h3M209 360h3M210 361h2M211 362h2M212 363h2M213 364h2M214 365h2M215 366h2M216 367h2M217 368h1M217 369h1M222 371h10M250 371h3M220 372h14M245 372h2M250 372h4M230 373h6M245 373h2M251 373h3M221 374h9M233 374h3M247 374h4M252 374h2M220 375h12M248 375h3M252 375h2M221 376h11M248 376h3M222 377h9M246 377h1M223 378h7M232 378h1M245 378h4M232 379h2M244 379h5M231 380h4M240 380h9M230 381h5M238 381h10M225 382h10M239 382h7M227 383h8M241 383h2M227 384h8M228 385h6M232 391h1M234 391h2" />
<path stroke="#701634" d="M218 355h3M217 356h1M216 357h1M216 358h1M216 359h1M217 360h1M221 360h1M218 361h3" />
<path stroke="#d5182e" d="M218 356h3M217 357h2M220 357h2M217 358h1M221 358h1M217 359h2M220 359h2M218 360h3" />
<path stroke="#9f1738" d="M221 356h1M222 357h1M222 358h1M222 359h1" />
<path stroke="#f74450" d="M219 357h1M218 358h3M219 359h1" />
<path stroke="#f7fcfc" d="M208 360h1M209 361h1M208 362h3M209 363h3M208 364h5M209 365h5M210 366h5M211 367h3M212 368h3M213 369h2M214 370h1M216 372h4M216 373h5M219 375h1M219 376h2M220 377h2M215 378h1M217 378h1M221 378h2M214 379h1M216 379h1M218 379h2M222 379h8M215 380h1M217 380h4M214 381h1M216 381h6M215 382h10M214 383h1M216 383h11M215 384h12M216 385h12M208 386h1M217 386h3M207 387h1M206 388h1M208 388h1M221 388h7M207 389h1M219 389h3M223 389h4M228 389h1M230 389h1M206 390h1M220 390h4M225 390h2M230 390h1M204 391h1M206 391h1M221 391h1M223 391h1M226 391h1M228 391h3M203 392h2M228 392h1M202 393h2M205 393h2M202 394h1M225 394h1" />
<path stroke="#8f5ed7" d="M206 366h1M206 367h2M206 368h3M207 369h3M208 370h3" />
<path stroke="#c097db" d="M210 367h1M210 368h1M210 369h3M211 370h3M213 371h2M213 372h1M210 373h2M209 374h3M210 375h1M214 377h5M213 378h2M216 378h1M218 378h1M212 379h1M215 379h1M217 379h1M214 380h1M216 380h1M215 381h1M213 382h2M213 383h1M215 383h1M207 384h3M213 384h2M206 385h4M213 385h3M206 386h2M209 386h1M213 386h4M205 387h2M208 387h1M214 387h4M204 388h2M207 388h1M214 388h2M204 389h3M203 390h2M207 390h1M216 390h4M202 391h2M217 391h4M201 392h2M218 392h4M201 393h1M219 393h4M200 394h1M200 395h1M200 396h1M219 396h6M218 397h2M221 397h1M223 397h1M225 397h1M197 398h4M217 398h2M220 398h1M222 398h1M224 398h1M196 399h5M217 399h1M219 399h1M221 399h1M196 400h2M217 400h2M220 400h1M196 401h1M217 401h1M219 401h1M217 402h2M218 403h2M237 407h1M235 409h1" />
<path stroke="#a82d42" d="M214 367h1M216 369h1M215 370h3M221 370h3M225 370h5M231 370h3M220 371h2M232 371h3M246 371h1M244 372h1M247 372h1M222 373h3M226 373h4M244 373h1M247 373h4M230 374h3M245 374h1M251 374h1M233 375h1M246 375h1M251 375h1M254 375h1M234 376h1M251 376h3M234 377h1M250 377h3M235 378h1M243 378h1M249 378h2M235 379h2M240 379h2M249 379h1M235 380h5M249 380h1M235 381h1M248 381h1M235 382h1M247 382h1M235 383h1M246 383h1M235 384h1M243 384h3M234 385h2M240 385h3M232 386h4M237 386h3M229 387h8M233 388h2M234 389h1M235 390h1M236 391h1M237 392h1M238 393h1M239 394h1M240 395h1M241 396h1M242 397h1M242 398h1" />
<path stroke="#fcfcfb" d="M215 367h1M216 368h1" />
<path stroke="#6830e3" d="M209 372h3M215 372h1M208 373h2M212 373h1M214 373h2M208 374h1M212 374h1M214 374h1M208 375h2M212 375h1M216 375h3M209 376h3M213 376h5M212 377h2M211 378h2M211 379h1M211 380h2M211 381h2M210 382h1M212 382h1M209 383h2M212 383h1M210 384h1M212 384h1M204 385h2M212 385h1M204 386h2M212 386h1M203 387h2M212 387h2M220 387h9M203 388h1M212 388h2M218 388h3M202 389h2M212 389h3M216 389h3M202 390h1M212 390h2M215 390h1M201 391h1M214 391h3M214 392h4M200 393h1M215 393h4M199 395h1M216 395h8M198 396h2M216 396h3M200 397h1M216 397h2M196 398h1M201 398h1M216 400h1" />
<path stroke="#ab79e0" d="M213 379h1M213 380h1M213 381h1" />
<path stroke="#f85764" d="M231 388h1M231 389h2M234 390h1" />
<path stroke="#f6fcfc" d="M222 389h1M227 389h1M229 389h1M205 390h1M224 390h1M227 390h3M205 391h1M222 391h1M224 391h2M227 391h1M231 391h1M205 392h2M222 392h6M229 392h4M204 393h1M223 393h11M201 394h1M203 394h3M224 394h1M226 394h9M201 395h4M225 395h11M201 396h3M226 396h11M201 397h2M220 397h1M222 397h1M224 397h1M227 397h11M202 398h1M219 398h1M221 398h1M223 398h1M225 398h2M228 398h11M218 399h1M220 399h1M222 399h6M229 399h11M198 400h3M219 400h1M221 400h8M230 400h10M197 401h4M218 401h1M220 401h9M231 401h10M196 402h4M219 402h10M232 402h9M220 403h9M233 403h8M219 404h1M221 404h8M234 404h7M220 405h9M235 405h4M240 405h1M221 406h8M222 407h5M223 408h3M236 410h1M235 411h1M234 412h1M234 413h1M234 414h3M234 415h4M235 416h3M236 417h2" />
<path stroke="#f85864" d="M233 389h1M240 396h1M241 397h1M241 398h1M242 399h1M242 400h1M242 401h1M242 402h1M242 403h1M242 405h1M242 406h1M241 407h1M240 408h1M239 409h1M238 410h1" />
<path stroke="#faa2c7" d="M231 390h3M233 391h1M233 392h2M235 393h1M238 394h1" />
<path stroke="#161752" d="M212 391h1M209 392h1M213 392h1M211 393h1M214 393h1M211 394h3M215 394h3M220 394h3M198 395h1M212 395h2M224 395h1M197 396h1M204 396h1M213 396h1M225 396h1M197 397h2M203 397h1M214 397h1M226 397h1M203 398h1M214 398h2M227 398h1M195 399h1M202 399h1M214 399h2M228 399h1M195 400h1M202 400h1M214 400h1M229 400h1M195 401h1M201 401h1M214 401h1M229 401h2M195 402h1M200 402h1M215 402h1M229 402h2M196 403h4M215 403h2M229 403h3M216 404h1M229 404h1M232 404h1M216 405h2M229 405h1M233 405h1M217 406h2M229 406h1M234 406h1M218 407h2M228 407h1M235 407h1M219 408h1M228 408h1M234 408h1M219 409h1M227 409h1M233 409h1M218 410h1M226 410h1M232 410h1M217 411h1M225 411h1M231 411h1M217 412h1M224 412h1M231 412h1M217 413h1M223 413h2M231 413h1M217 414h1M223 414h2M231 414h1M217 415h1M223 415h2M218 416h1M223 416h2M219 417h1M223 417h2M220 418h1M223 418h2M220 419h5" />
<path stroke="#faa2c8" d="M235 392h2M234 393h1M236 393h2M235 394h3M236 395h4M237 396h3M238 397h3M239 398h2M240 399h2M240 400h2M241 401h1M241 402h1M241 403h1M241 404h1M241 405h1M240 406h2M239 407h2M238 408h2M237 409h2M237 410h1M236 411h2M235 412h2M235 413h1" />
<path stroke="#6730e3" d="M216 398h1M201 399h1M216 399h1M201 400h1M215 400h1M215 401h2M216 402h1M231 402h1M217 403h1M232 403h1M217 404h2M233 404h1M218 405h2M234 405h1M219 406h2M235 406h4M220 407h1M236 407h1M220 408h2M235 408h1M220 409h1M222 409h1M226 409h1M234 409h1M219 410h1M223 410h3M233 410h1M218 411h1M218 412h1M218 413h1" />
<path stroke="#bf97db" d="M220 404h1M239 406h1M221 407h1M227 407h1M238 407h1M222 408h1M226 408h2M236 408h2M221 409h1M224 409h2M236 409h1M220 410h3M234 410h2M220 411h2M223 411h2M234 411h1M221 412h1M233 412h1M221 413h2M232 413h2M232 414h1" />
<path stroke="#1a1c4f" d="M231 404h1M232 405h1M233 406h1M234 407h1M240 409h1M239 410h1M238 411h1M237 412h1M236 413h2M237 414h1M231 415h1M238 415h1M232 416h1M238 416h1M233 417h1M238 417h1M234 418h1M238 418h1M235 419h4" />
<path stroke="#a82d43" d="M242 404h1" />
<path stroke="#6731e3" d="M219 411h1M232 411h1M219 412h1M218 414h1M222 414h1M218 415h1M232 415h1" />
<path stroke="#bf98dc" d="M222 411h1M233 411h1M220 412h1M222 412h2M232 412h1M219 413h2M219 414h3M233 414h1M219 415h4M233 415h1M219 416h4M233 416h2M220 417h3M234 417h2M221 418h2M235 418h3" />
</svg>