<svg xmlns="http://www.w3.org/2000/svg" viewBox="0 -0.5 960 600" shape-rendering="crispEdges">
<metadata>Made with Pixels to Svg https://codepen.io/shshaw/pen/XbxvNj</metadata>
<path stroke="#3e2d70" d="M427 447h11M425 448h2M438 448h2M424 449h1M440 449h1M423 450h1M441 450h1M422 451h1M428 451h12M442 451h1M421 452h2M427 452h14M443 452h1M421 453h1M426 453h2M433 453h2M438 453h4M420 454h1M425 454h1M427 454h1M429 454h1M431 454h1M433 454h1M437 454h2M440 454h1M442 454h1M433 455h1M437 455h1M442 455h1" />
<path stroke="#faa3c9" d="M427 448h11M425 449h15M424 450h17M423 451h5M440 451h2M423 452h2M422 453h2M421 454h2M420 455h2M420 456h2M420 457h1M420 458h1" />
<path stroke="#a52e42" d="M425 452h2M441 452h2M443 453h1" />
<path stroke="#a52e43" d="M424 453h2M442 453h1M423 454h1M443 454h2M422 455h1M444 455h1M422 456h1M444 456h2M421 457h1M445 457h1M421 458h1M445 458h1M421 459h1M445 459h1M421 460h1M445 460h1M421 461h1" />
<path stroke="#3d2d71" d="M428 453h5M435 453h3M444 453h1M419 454h1M426 454h1M428 454h1M430 454h1M432 454h1M434 454h3M439 454h1M441 454h1M445 454h1M419 455h1M424 455h9M434 455h3M438 455h4M443 455h1M445 455h1M419 456h1M424 456h20M446 456h1M419 457h1M423 457h22M446 457h1M419 458h1M423 458h5M431 458h8M442 458h3M446 458h1M419 459h1M423 459h4M432 459h6M443 459h2M446 459h1M419 460h1M423 460h3M433 460h4M444 460h1M446 460h1M419 461h1M423 461h3M433 461h4M444 461h1M446 461h1M419 462h1M423 462h3M433 462h4M444 462h1M446 462h1M419 463h1M423 463h4M432 463h1M434 463h4M443 463h2M446 463h1M419 464h1M425 464h2M431 464h1M433 464h1M435 464h1M437 464h2M444 464h1M446 464h1M442 465h1" />
<path stroke="#f75965" d="M424 454h1M423 455h1M423 456h1M422 457h1M422 458h1" />
<path stroke="#721630" d="M428 458h3M439 458h3M427 459h1M431 459h1M438 459h1M442 459h1M426 460h1M432 460h1M437 460h1M443 460h1M426 461h1M432 461h1M437 461h1M443 461h1M426 462h1M432 462h1M437 462h1M443 462h1M427 463h1M431 463h1M438 463h1M442 463h1M428 464h2M439 464h1M441 464h1" />
<path stroke="#faa4c9" d="M420 459h1M420 460h1M420 461h1M420 462h1M420 463h1M420 464h2M420 465h3M421 466h2" />
<path stroke="#f75967" d="M422 459h1M422 460h1M422 461h1M422 462h1M422 463h1M422 464h2M423 465h1M424 466h1" />
<path stroke="#bc1722" d="M428 459h3M439 459h3M427 460h2M430 460h2M438 460h2M441 460h2M427 461h1M431 461h1M438 461h1M442 461h1M427 462h2M430 462h2M438 462h2M441 462h2M428 463h3M439 463h3" />
<path stroke="#f84652" d="M429 460h1M440 460h1M428 461h3M439 461h3M429 462h1M440 462h1" />
<path stroke="#a42e43" d="M445 461h1M421 462h1M445 462h1M421 463h1" />
<path stroke="#3d2e71" d="M433 463h1M424 464h1M427 464h1M432 464h1M434 464h1M436 464h1M442 464h2M419 465h1M424 465h18M443 465h2M446 465h1M419 466h2M425 466h20M446 466h1M420 467h1M425 467h20M446 467h1M420 468h1M426 468h18M446 468h1M420 469h2M426 469h18M446 469h1M417 470h6M427 470h16M445 470h1M416 471h7M427 471h16M444 471h1M415 472h1M417 472h7M428 472h14M444 472h1M416 473h1M419 473h6M429 473h5M435 473h2M438 473h2M443 473h1M445 473h1M431 474h2M436 474h1M442 474h1" />
<path stroke="#a42f43" d="M445 463h1M445 464h1M445 465h1M445 466h1M445 467h1M444 468h2M444 469h2M443 470h2M443 471h1" />
<path stroke="#721631" d="M430 464h1M440 464h1" />
<path stroke="#faa4ca" d="M423 466h1M421 467h3M421 468h4M422 469h3M423 470h3M423 471h4M424 472h4M425 473h4M426 474h4M428 475h10M427 476h1M431 476h7M428 477h3M439 477h2M429 478h12M429 479h12M431 480h2M434 480h3M438 480h1M443 480h1M438 481h1" />
<path stroke="#f75a66" d="M424 467h1M425 468h1M425 469h1M426 470h1M443 472h1M442 473h1M440 474h2" />
<path stroke="#3d2e72" d="M416 472h1M415 473h1M417 473h2M434 473h1M437 473h1M444 473h1M414 474h8M425 474h1M430 474h1M433 474h3M437 474h2M444 474h3M414 475h7M426 475h2M440 475h2M444 475h4M413 476h7M428 476h3M438 476h3M445 476h4M413 477h6M431 477h8M446 477h3M413 478h5M447 478h2M413 479h1M428 479h1M443 479h1M448 479h1M412 480h2M429 480h1M442 480h1M449 480h1M412 481h1M419 481h1M429 481h2M441 481h2M450 481h1M411 482h2M419 482h1M430 482h2M440 482h2M451 482h1M410 483h2M420 483h1M431 483h10M452 483h1M410 484h1M420 484h1M432 484h8M410 485h1M421 485h1M410 486h1M421 486h1M410 487h1M421 487h2M410 488h1M421 488h2M410 489h1M421 489h2M445 489h1M410 490h1" />
<path stroke="#a32f43" d="M442 472h1M440 473h2M439 474h1M443 474h1M442 475h2M443 476h2M444 477h2M444 478h3M444 479h4M444 480h3M444 481h2M445 482h1" />
<path stroke="#6632e4" d="M422 474h1M424 474h1" />
<path stroke="#6532e4" d="M423 474h1M421 475h2M420 476h2" />
<path stroke="#bb9add" d="M423 475h1M425 475h1M424 476h1M426 476h1" />
<path stroke="#ba9add" d="M424 475h1M422 476h2M425 476h1M421 477h1M423 477h1M425 477h3M420 478h1M422 478h1M424 478h1M426 478h3M419 479h1M421 479h1M423 479h1M425 479h1M427 479h1M416 480h2M419 480h2M422 480h1M424 480h1M426 480h1M415 481h3M420 481h2M423 481h1M425 481h1M414 482h4M420 482h1M422 482h1M424 482h1M413 483h4M421 483h1M423 483h1M413 484h3M417 484h1M422 484h1M424 484h1M412 485h3M416 485h1M418 485h1M423 485h1M412 486h4M417 486h1M422 486h1M424 486h1M412 487h3M416 487h1M423 487h1M425 487h1M412 488h4M423 488h2M412 489h3M423 489h3M413 490h1M423 490h1M426 490h1" />
<path stroke="#f65a66" d="M438 475h2M441 476h2M441 477h3M441 478h3M441 479h2" />
<path stroke="#6532e5" d="M419 477h2M418 478h2M414 479h5M414 480h2M418 480h1M413 481h2M418 481h1M413 482h1M418 482h1M412 483h1M418 483h2M411 484h2M418 484h2M411 485h1M419 485h2M411 486h1M419 486h2M411 487h1M420 487h1M411 488h1M411 489h1M411 490h1M412 491h1M412 492h1M444 492h1M412 493h1M423 493h4M443 493h1M412 494h1M422 494h3M427 494h3M442 494h1M413 495h1M419 495h1M422 495h3M429 495h13M413 496h2M419 496h1M422 496h2M414 497h5M421 497h3M414 498h1M421 498h2" />
<path stroke="#f4fcfb" d="M422 477h1M424 477h1M421 478h1M423 478h1M425 478h1M420 479h1M422 479h1M424 479h1M426 479h1M421 480h1M425 480h1M427 480h2" />
<path stroke="#f3fcfb" d="M423 480h1M422 481h1M424 481h1M426 481h3M421 482h1M423 482h1M425 482h5M417 483h1M422 483h1M424 483h7M416 484h1M421 484h1M423 484h1M425 484h7M415 485h1M417 485h1M422 485h1M424 485h16M416 486h1M418 486h1M423 486h1M425 486h16M415 487h1M417 487h3M424 487h1M426 487h15M416 488h5M425 488h17M415 489h6M426 489h16M415 490h6M427 490h16M415 491h6M427 491h16M415 492h6M428 492h15M415 493h6M430 493h12M416 494h5M417 495h1M419 497h1M429 497h1M431 497h9M419 498h1M428 498h1M430 498h3M434 498h1M436 498h1M439 498h1M433 499h1" />
<path stroke="#faa5ca" d="M430 480h1M433 480h1M437 480h1M439 480h2M448 480h1M431 481h7M439 481h2M443 481h1M448 481h2M432 482h8M442 482h2M448 482h3M441 483h4M448 483h4M440 484h5M448 484h5M440 485h5M448 485h5M441 486h4M448 486h6M442 487h3M449 487h5M444 488h1M449 488h1" />
<path stroke="#f65a67" d="M441 480h1M447 480h1M446 481h2M446 482h2M446 483h2M446 484h2M446 485h2M446 486h2M446 487h3M446 488h1M448 488h1" />
<path stroke="#a12f43" d="M444 482h1M445 483h1M445 484h1M445 485h1" />
<path stroke="#a12f44" d="M445 486h1M445 487h1M445 488h1M446 490h1M445 491h3M445 492h4M446 493h1M449 493h1" />
<path stroke="#faa5cb" d="M441 487h1M442 488h2M450 488h5M442 489h3M450 489h5M443 490h2M450 490h6M443 491h1M451 491h6M451 492h7M452 493h5M453 494h4M443 495h1M454 495h2M457 495h2M442 496h3M456 496h3M440 497h5M455 497h4M441 498h4M458 498h1" />
<path stroke="#f65c67" d="M447 488h1M446 489h4M447 490h3M448 491h3M449 492h2M444 493h1M450 493h2M457 493h1M443 494h3M451 494h2M457 494h1M444 495h3M452 495h2M456 495h1M445 496h3M453 496h3M445 497h3M454 497h1M445 498h3M456 498h1" />
<path stroke="#ba9bdd" d="M412 490h1M414 490h1M424 490h2M413 491h2M423 491h4M413 492h2M427 492h1M414 493h1M415 494h1" />
<path stroke="#3d2e73" d="M421 490h2M445 490h1M411 491h1M421 491h2M444 491h1M411 492h1M421 492h6M443 492h1M411 493h1M421 493h2M427 493h3M442 493h1M411 494h1M421 494h1M430 494h12M412 495h1M420 495h2M412 496h1M420 496h2M413 497h1M420 497h1M413 498h1M420 498h1" />
<path stroke="#b99bdd" d="M413 493h1M413 494h2M425 494h2M414 495h3M418 495h1M425 495h4M442 495h1M415 496h4M424 496h18M424 497h5M415 498h2M423 498h1M425 498h1" />
<path stroke="#a02f44" d="M445 493h1M447 493h2M446 494h3M450 494h1M447 495h2M451 495h1M448 496h1M452 496h1M448 497h1M453 497h1M448 498h1M454 498h1" />
<path stroke="#b99bdf" d="M430 497h1M417 498h1M424 498h1M426 498h2M429 498h1M415 499h2M423 499h4M428 499h1M430 499h1M415 500h4M422 500h4M427 500h1M436 500h2M415 501h5M422 501h3M426 501h1M435 501h3M416 502h4M422 502h2M437 502h1M421 503h1M424 503h1" />
<path stroke="#f1fcfb" d="M418 498h1M433 498h1M435 498h1M437 498h2M417 499h3M427 499h1M429 499h1M431 499h2M434 499h7M419 500h1M426 500h1M428 500h8M438 500h3M425 501h1M427 501h8M438 501h4M424 502h1M426 502h8M438 502h4M423 503h1M425 503h9M438 503h4M422 504h1M424 504h9M438 504h4M423 505h9M438 505h5M422 506h1M424 506h8M438 506h5M423 507h8M438 507h5M422 508h1M424 508h7M438 508h5M423 509h8M438 509h5M422 510h1M424 510h6M438 510h5M423 511h7M439 511h4M422 512h1M424 512h6M439 512h4M423 513h6M439 513h4M422 514h1M424 514h4M439 514h4M423 515h2M426 515h1M439 515h2M442 515h1M440 516h2" />
<path stroke="#faa6cb" d="M440 498h1M441 499h4M441 500h5M442 501h4M442 502h4M442 503h4M442 504h4M443 505h3M443 506h3M443 507h3M443 508h3" />
<path stroke="#f65c68" d="M455 498h1M457 498h1M459 498h1M445 499h3M446 500h2M446 501h2M446 502h2M446 503h2M446 504h2M446 505h2M446 506h2M446 507h2M446 508h1" />
<path stroke="#3e2f73" d="M413 499h1M420 499h1M413 500h1M420 500h1M414 501h1M420 501h1M415 502h1M420 502h1M434 502h1M416 503h1M419 503h1M434 503h1M417 504h3M433 504h1M418 505h1M432 505h1M432 506h1M432 507h1" />
<path stroke="#6433e5" d="M414 499h1M421 499h2M414 500h1M421 500h1M421 501h1M421 502h1M436 502h1M420 503h1M436 503h1M420 504h1M436 504h1M419 505h2M436 505h1M419 506h1M436 506h1M419 507h1M436 507h1M419 508h1M436 508h1M419 509h1M436 509h1M419 510h1M436 510h1M419 511h1M436 511h2M419 512h1M436 512h2M419 513h1M436 513h2M419 514h1M436 514h2M419 515h1M428 515h1M436 515h2M420 516h1M426 516h2M436 516h2M420 517h6M436 517h3M436 518h1M439 518h1M440 519h1" />
<path stroke="#a03043" d="M448 499h1M448 500h1M448 501h1M448 502h1M448 503h1" />
<path stroke="#b89bdf" d="M425 502h1M417 503h2M422 503h1M437 503h1M421 504h1M423 504h1M437 504h1M421 505h2M437 505h1M420 506h2M423 506h1" />
<path stroke="#3f3373" d="M435 502h1M435 503h1M435 504h1M435 505h1M435 506h1" />
<path stroke="#9f3044" d="M448 504h1M448 505h1M448 506h1M448 507h1M448 508h1M448 509h1M448 510h1M447 511h1M447 512h1M447 513h1" />
<path stroke="#3e2f74" d="M418 506h1M418 507h1M418 508h1M431 508h1M418 509h1M431 509h1M418 510h1M431 510h1M418 511h1M430 511h1M418 512h1M430 512h1M418 513h1M430 513h1M418 514h1M429 514h1M418 515h1M429 515h1M418 516h2M428 516h1M419 517h1M428 517h1M418 518h1M428 518h1M418 519h1M418 520h1M418 521h1M435 521h1M418 522h1M435 522h1" />
<path stroke="#b89cdf" d="M437 506h1M420 507h3M431 507h1M437 507h1M420 508h2M423 508h1M437 508h1M420 509h3M437 509h1M420 510h2M423 510h1M430 510h1M437 510h1M420 511h1M438 511h1" />
<path stroke="#3f3374" d="M435 507h1M435 508h1M435 509h1M435 510h1M435 511h1M435 512h1M435 513h1M435 514h1M435 515h1M435 516h1M435 517h1M435 518h1M435 519h1M434 520h2M434 521h1" />
<path stroke="#f65d68" d="M447 508h1M446 509h2M446 510h2M446 511h1M446 512h1M446 513h1" />
<path stroke="#faa6cc" d="M443 509h3M443 510h3M443 511h3M443 512h3M443 513h3M443 514h3M443 515h3" />
<path stroke="#b79cdf" d="M421 511h2M420 512h2M423 512h1M438 512h1M420 513h3M429 513h1M438 513h1M420 514h2M423 514h1M428 514h1M438 514h1M420 515h3M427 515h1M438 515h1M421 516h5M438 516h1M439 517h1M420 518h2M423 518h1M437 518h2M440 518h1M420 519h3M436 519h4M420 520h3M436 520h5" />
<path stroke="#9e3044" d="M446 514h1M446 515h1" />
<path stroke="#f0fcfb" d="M425 515h1M441 515h1M439 516h1M442 516h1M426 517h2M440 517h3M422 518h1M424 518h4M441 518h1M423 519h5M424 520h4M423 521h1M425 521h3M439 521h3M424 522h1M426 522h1M438 522h4M425 523h1M438 523h4M438 524h4M438 525h4M438 526h4M439 527h4M440 528h3" />
<path stroke="#faa8cc" d="M443 516h3M443 517h3M442 518h3M441 519h3M442 520h1M442 522h1M442 523h1M442 524h1M442 525h1M442 526h1M443 527h1M443 528h1" />
<path stroke="#6433e6" d="M419 518h1M419 519h1M419 520h1M441 520h1M442 521h1" />
<path stroke="#b69cdf" d="M423 520h1M420 521h3M424 521h1M436 521h3M422 522h2M425 522h1M436 522h2" />
<path stroke="#6333e6" d="M419 521h1M419 522h1M419 523h2M419 524h2M420 525h2M421 526h2" />
<path stroke="#b69ddf" d="M420 522h2M427 522h1M421 523h4M426 523h2M436 523h2M421 524h7M437 524h1M422 525h7M437 525h1M423 526h7M437 526h1M422 527h8M438 527h1M423 528h7M439 528h1" />
<path stroke="#3d2f75" d="M418 523h1M435 523h1M418 524h1M436 524h1M419 525h1M436 525h1M420 526h1M436 526h1M421 527h1M437 527h1M422 528h1M438 528h1M423 529h7M439 529h3" />
<path stroke="#3f3375" d="M443 524h1M443 525h1M443 526h2M445 527h1M445 528h1M442 529h4" />
<path stroke="#fab1da" d="M444 527h1M444 528h1" />
</svg>