<svg xmlns="http://www.w3.org/2000/svg" viewBox="0 -0.5 960 600" shape-rendering="crispEdges">
<metadata>Made with Pixels to Svg https://codepen.io/shshaw/pen/XbxvNj</metadata>
<path stroke="rgba(0,217,255,0.5490196078431373)" d="M928 215h17M925 216h23M922 217h29M919 218h34M916 219h39M913 220h44M910 221h49M908 222h52M906 223h33M950 223h10M904 224h32M953 224h7M902 225h31M956 225h4M900 226h31M958 226h2M898 227h31M897 228h30M896 229h30M895 230h30M894 231h30M892 232h31M890 233h32M888 234h32M886 235h32M878 239h33M878 240h33M876 241h32M874 242h32M821 245h21M867 245h33M818 246h27M864 246h35M815 247h33M861 247h37M812 248h85M809 249h86M806 250h87M803 251h88M800 252h89M798 253h89M796 254h89M794 255h89M792 256h89M790 257h88M788 258h87M786 259h86M784 260h85M782 261h66M780 262h66M778 263h66M777 264h65M776 265h64M775 266h63M774 267h63M773 268h63M772 269h63M771 270h63M770 271h63M769 272h63M768 273h63M767 274h63M766 275h63M765 276h64M764 277h64M763 278h65M763 279h64M762 280h65M761 281h65M761 282h65M760 283h66M760 284h65M760 285h65M759 286h66M759 287h66M759 288h66M758 289h67M758 290h67M758 291h67M758 292h67M758 293h67M758 294h68M758 295h68M758 296h68M758 297h69M940 297h20M759 298h68M936 298h24M759 299h69M933 299h27M759 300h69M930 300h30M760 301h69M927 301h33M760 302h69M925 302h35M761 303h69M923 303h37M761 304h70M921 304h39M762 305h70M919 305h41M762 306h71M917 306h43M763 307h71M916 307h44M763 308h70M834 308h1M915 308h45M764 309h72M914 309h46M764 310h74M913 310h47M765 311h74M912 311h48M765 312h76M911 312h49M766 313h76M910 313h50M766 314h77M909 314h51M767 315h76M908 315h52M767 316h77M907 316h53M768 317h77M906 317h54M769 318h76M905 318h55M770 319h76M904 319h56M771 320h75M903 320h57M772 321h74M902 321h58M773 322h74M901 322h59M774 323h73M900 323h60M775 324h72M899 324h61M775 325h72M898 325h62M775 326h72M898 326h62M776 327h71M897 327h63M776 328h71M897 328h63M776 329h71M896 329h64M777 330h70M896 330h64M777 331h69M895 331h65M777 332h69M895 332h65M777 333h69M894 333h66M777 334h68M894 334h66M777 335h68M893 335h67M777 336h67M893 336h67M777 337h66M892 337h68M777 338h66M892 338h68M776 339h66M891 339h69M776 340h65M891 340h69M775 341h65M890 341h70M775 342h64M890 342h70M774 343h62M837 343h1M890 343h70M708 344h11M774 344h63M890 344h70M705 345h17M773 345h63M890 345h70M702 346h23M772 346h63M890 346h70M700 347h26M771 347h63M890 347h61M698 348h30M770 348h63M890 348h58M696 349h33M769 349h63M890 349h55M695 350h2M698 350h32M768 350h63M890 350h53M694 351h37M767 351h63M890 351h51M693 352h39M766 352h63M891 352h48M692 353h41M765 353h63M891 353h46M691 354h43M764 354h63M892 354h44M690 355h45M763 355h63M892 355h43M689 356h47M762 356h63M893 356h41M688 357h49M761 357h63M893 357h40M688 358h50M760 358h63M893 358h39M687 359h52M759 359h64M894 359h37M687 360h52M758 360h64M894 360h36M686 361h55M757 361h65M894 361h35M686 362h56M757 362h64M894 362h34M685 363h58M756 363h65M894 363h33M685 364h59M756 364h64M894 364h33M684 365h61M755 365h65M894 365h33M684 366h63M755 366h64M894 366h32M683 367h136M894 367h32M683 368h135M893 368h33M682 369h136M893 369h32M682 370h135M893 370h32M681 371h136M892 371h33M681 372h135M892 372h32M680 373h136M853 373h7M891 373h33M680 374h136M850 374h13M891 374h33M679 375h136M849 375h15M890 375h33M679 376h136M847 376h19M889 376h34M678 377h137M845 377h22M888 377h34M678 378h136M844 378h24M887 378h35M677 379h137M843 379h1M845 379h24M886 379h35M677 380h137M842 380h28M885 380h36M677 381h136M841 381h30M884 381h36M676 382h137M840 382h32M882 382h38M676 383h137M839 383h80M676 384h136M838 384h81M675 385h137M837 385h81M675 386h137M836 386h82M675 387h137M835 387h82M674 388h138M835 388h81M674 389h138M834 389h81M674 390h138M834 390h80M673 391h139M833 391h80M673 392h140M833 392h79M672 393h141M832 393h79M672 394h141M832 394h78M671 395h143M831 395h78M670 396h144M830 396h78M669 397h146M829 397h78M668 398h148M828 398h78M667 399h150M827 399h78M666 400h152M826 400h78M665 401h154M825 401h78M664 402h239M663 403h239M662 404h240M661 405h241M659 406h242M656 407h245M653 408h248M650 409h251M647 410h254M645 411h256M643 412h258M641 413h260M639 414h262M637 415h265M635 416h267M634 417h268M632 418h271M630 419h273M629 420h274M628 421h276M627 422h277M626 423h279M625 424h280M624 425h282M623 426h283M622 427h285M621 428h286M620 429h288M619 430h290M619 431h291M618 432h293M617 433h295M617 434h296M616 435h298M615 436h300M615 437h301M614 438h303M614 439h304M613 440h306M613 441h307M612 442h309M612 443h310M611 444h311M611 445h312M611 446h312M610 447h314M610 448h314M609 449h316M609 450h316M609 451h316M608 452h317M608 453h317M607 454h318M607 455h318M606 456h319M606 457h319M606 458h319M606 459h319M604 460h321M604 461h321M604 462h321M604 463h321M604 464h321M602 465h323M602 466h323M602 467h323M602 468h323M602 469h323M602 470h323" />
</svg>