<svg xmlns="http://www.w3.org/2000/svg" viewBox="0 -0.5 960 600" shape-rendering="crispEdges">
<metadata>Made with Pixels to Svg https://codepen.io/shshaw/pen/XbxvNj</metadata>
<path stroke="#130055" d="M597 471h329M597 472h329M597 473h329M596 474h331M596 475h331M595 476h333M595 477h333M594 478h335M594 479h335M593 480h337M593 481h337M592 482h339M592 483h339M591 484h341M591 485h341M590 486h343M590 487h343M590 488h343M590 489h343M590 490h343M590 491h343M590 492h343M590 493h343M589 494h345M588 495h347M587 496h349M586 497h351M585 498h353" />
</svg>