<svg xmlns="http://www.w3.org/2000/svg" viewBox="0 -0.5 960 600" shape-rendering="crispEdges">
<metadata>Made with Pixels to Svg https://codepen.io/shshaw/pen/XbxvNj</metadata>
<path stroke="rgba(0,217,255,0.5490196078431373)" d="M933 212h17M930 213h23M927 214h29M924 215h34M921 216h39M918 217h42M915 218h45M913 219h47M911 220h33M955 220h5M909 221h32M958 221h2M907 222h31M905 223h31M903 224h31M902 225h30M901 226h30M900 227h30M899 228h30M897 229h31M895 230h32M893 231h32M884 235h35M883 236h33M883 237h33M881 238h32M873 241h36M826 242h21M872 242h33M823 243h27M869 243h35M820 244h33M866 244h37M817 245h85M814 246h86M811 247h87M808 248h88M805 249h89M803 250h89M801 251h89M799 252h89M797 253h89M795 254h88M793 255h87M791 256h86M789 257h85M787 258h66M785 259h66M783 260h66M782 261h65M781 262h64M780 263h63M779 264h63M778 265h63M777 266h63M776 267h63M775 268h63M774 269h63M773 270h63M772 271h63M771 272h63M770 273h64M769 274h64M768 275h65M768 276h64M767 277h64M766 278h65M766 279h64M765 280h65M765 281h65M765 282h64M764 283h65M764 284h65M764 285h65M763 286h66M763 287h66M763 288h66M763 289h66M763 290h66M763 291h67M763 292h67M763 293h67M763 294h68M945 294h15M764 295h67M941 295h19M764 296h68M938 296h22M764 297h69M935 297h25M765 298h69M932 298h28M765 299h70M930 299h30M766 300h70M928 300h32M766 301h71M926 301h34M767 302h72M924 302h36M767 303h75M922 303h38M768 304h79M921 304h39M768 305h80M920 305h40M769 306h80M919 306h41M769 307h81M918 307h42M770 308h80M917 308h43M770 309h81M916 309h44M771 310h80M915 310h45M771 311h81M914 311h46M772 312h80M913 312h47M772 313h80M912 313h48M773 314h80M911 314h49M774 315h79M910 315h50M775 316h78M909 316h51M776 317h77M908 317h52M777 318h76M907 318h53M778 319h75M906 319h54M779 320h74M905 320h55M780 321h73M904 321h56M780 322h72M903 322h57M780 323h72M903 323h57M781 324h71M902 324h58M781 325h71M902 325h58M781 326h71M901 326h59M782 327h70M901 327h59M782 328h69M900 328h60M782 329h69M900 329h60M782 330h69M899 330h61M782 331h68M899 331h61M782 332h68M898 332h62M782 333h67M898 333h62M782 334h66M897 334h63M782 335h66M897 335h63M782 336h65M896 336h64M782 337h64M896 337h64M781 338h64M895 338h65M781 339h63M895 339h58M781 340h60M842 340h1M895 340h55M708 341h16M780 341h62M895 341h53M705 342h22M780 342h61M895 342h51M704 343h26M779 343h61M895 343h49M702 344h29M779 344h60M895 344h48M701 345h32M778 345h60M895 345h47M700 346h34M777 346h60M895 346h45M698 347h37M777 347h59M895 347h44M697 348h39M776 348h59M895 348h43M696 349h41M775 349h59M896 349h41M695 350h43M773 350h60M896 350h40M694 351h44M772 351h60M897 351h38M693 352h46M771 352h60M897 352h38M692 353h48M770 353h60M898 353h36M691 354h51M768 354h61M898 354h36M690 355h53M767 355h61M898 355h35M689 356h56M765 356h63M899 356h34M688 357h59M763 357h64M899 357h33M688 358h62M760 358h67M899 358h33M687 359h139M899 359h33M687 360h139M899 360h32M686 361h139M899 361h32M686 362h139M899 362h32M685 363h139M899 363h32M685 364h139M899 364h31M684 365h139M898 365h32M684 366h139M898 366h32M683 367h139M898 367h32M683 368h139M897 368h33M682 369h139M897 369h32M682 370h139M858 370h7M896 370h33M681 371h140M855 371h13M896 371h33M681 372h139M854 372h15M895 372h33M680 373h140M852 373h19M894 373h34M680 374h140M850 374h22M893 374h34M679 375h140M849 375h24M892 375h35M679 376h140M848 376h1M850 376h24M891 376h35M678 377h141M847 377h28M890 377h36M678 378h140M846 378h30M889 378h36M677 379h141M845 379h32M887 379h38M677 380h141M844 380h80M677 381h140M843 381h81M676 382h141M842 382h81M676 383h141M841 383h82M676 384h141M840 384h82M675 385h142M840 385h81M675 386h142M839 386h81M675 387h142M839 387h80M674 388h143M838 388h80M674 389h144M838 389h79M674 390h144M837 390h79M673 391h145M837 391h78M673 392h146M836 392h78M672 393h147M835 393h78M672 394h148M834 394h78M671 395h150M833 395h78M670 396h152M832 396h78M669 397h154M831 397h78M668 398h156M830 398h78M667 399h241M666 400h241M665 401h242M664 402h243M663 403h243M662 404h244M661 405h245M659 406h247M656 407h250M653 408h253M650 409h256M647 410h259M645 411h261M643 412h263M641 413h265M639 414h267M637 415h269M635 416h270M634 417h271M632 418h273M630 419h275M629 420h275M628 421h276M627 422h277M626 423h279M625 424h280M624 425h282M623 426h283M622 427h285M621 428h286M620 429h288M619 430h290M619 431h291M618 432h293M617 433h295M617 434h296M616 435h298M615 436h300M615 437h301M614 438h303M614 439h304M613 440h306M613 441h307M612 442h309M612 443h310M611 444h311M611 445h312M611 446h312M610 447h314M610 448h314M609 449h316M609 450h316M609 451h316M608 452h317M608 453h317M607 454h318M607 455h318M606 456h319M606 457h319M606 458h319M606 459h319M604 460h321M604 461h321M604 462h321M604 463h321M604 464h321M602 465h323M602 466h323M602 467h323M602 468h323M602 469h323M602 470h323" />
</svg>