<svg xmlns="http://www.w3.org/2000/svg" viewBox="0 -0.5 960 600" shape-rendering="crispEdges">
<metadata>Made with Pixels to Svg https://codepen.io/shshaw/pen/XbxvNj</metadata>
<path stroke="rgba(0,217,255,0.47058823529411764)" d="M917 214h17M914 215h14M937 215h8M911 216h14M940 216h8M908 217h14M942 217h9M905 218h14M944 218h9M902 219h14M946 219h9M899 220h14M948 220h9M897 221h13M949 221h10M895 222h13M928 222h11M949 222h11M893 223h13M925 223h14M942 223h7M950 223h10M891 224h13M922 224h14M945 224h4M953 224h7M889 225h13M920 225h13M947 225h2M956 225h4M887 226h13M918 226h13M958 226h2M886 227h12M916 227h13M885 228h12M915 228h12M884 229h12M914 229h12M883 230h12M913 230h12M881 231h13M912 231h12M879 232h13M911 232h12M877 233h13M909 233h13M875 234h13M907 234h13M886 235h32M867 238h33M867 239h11M900 239h11M865 240h13M897 240h14M863 241h13M895 241h13M874 242h32M810 244h21M856 244h33M807 245h14M834 245h8M853 245h14M888 245h12M804 246h14M837 246h8M850 246h14M887 246h12M801 247h14M848 247h13M886 247h12M798 248h14M884 248h13M795 249h14M882 249h13M792 250h14M880 250h13M789 251h14M878 251h13M787 252h13M876 252h13M785 253h13M874 253h13M783 254h13M872 254h13M781 255h13M870 255h13M779 256h13M867 256h14M777 257h13M864 257h14M775 258h13M861 258h14M773 259h13M858 259h14M771 260h13M837 260h32M769 261h13M835 261h13M767 262h13M833 262h13M766 263h12M831 263h13M765 264h12M829 264h13M764 265h12M827 265h13M763 266h12M826 266h12M762 267h12M825 267h12M761 268h12M824 268h12M760 269h12M823 269h12M759 270h12M822 270h12M758 271h12M821 271h12M757 272h12M820 272h12M756 273h12M819 273h12M755 274h12M818 274h12M754 275h12M818 275h11M753 276h12M817 276h12M752 277h12M817 277h11M752 278h11M816 278h12M751 279h12M816 279h11M750 280h12M815 280h12M750 281h11M815 281h11M749 282h12M815 282h11M749 283h11M814 283h12M749 284h11M814 284h11M748 285h12M814 285h11M748 286h11M814 286h11M748 287h11M814 287h11M747 288h12M814 288h11M747 289h11M814 289h11M747 290h11M814 290h11M747 291h11M814 291h11M747 292h11M814 292h11M747 293h11M815 293h10M747 294h11M815 294h11M747 295h11M815 295h11M747 296h11M816 296h10M929 296h20M748 297h10M816 297h11M925 297h15M949 297h11M748 298h11M817 298h10M922 298h14M949 298h11M748 299h11M817 299h11M919 299h14M949 299h11M749 300h10M818 300h10M916 300h14M949 300h11M749 301h11M818 301h11M914 301h13M949 301h11M750 302h10M819 302h10M912 302h13M949 302h11M750 303h11M820 303h10M910 303h13M949 303h11M751 304h10M821 304h10M908 304h13M949 304h11M751 305h11M822 305h10M906 305h13M949 305h11M752 306h10M823 306h10M905 306h12M949 306h11M752 307h11M822 307h1M824 307h10M904 307h12M949 307h11M753 308h10M825 308h8M834 308h1M903 308h12M949 308h11M753 309h11M827 309h9M902 309h12M949 309h11M754 310h10M828 310h10M901 310h12M949 310h11M754 311h11M830 311h9M900 311h12M949 311h11M755 312h10M831 312h10M899 312h12M949 312h11M755 313h11M832 313h10M898 313h12M949 313h11M756 314h10M832 314h11M897 314h12M949 314h11M756 315h11M833 315h10M896 315h12M949 315h11M757 316h10M834 316h10M895 316h12M949 316h11M758 317h10M834 317h11M894 317h12M949 317h11M759 318h10M835 318h10M893 318h12M949 318h11M760 319h10M835 319h11M892 319h12M949 319h11M761 320h10M835 320h11M891 320h12M949 320h11M762 321h10M836 321h10M890 321h12M949 321h11M763 322h10M836 322h11M889 322h12M949 322h11M764 323h10M836 323h11M888 323h12M949 323h11M764 324h11M836 324h11M887 324h12M949 324h11M764 325h11M836 325h11M887 325h11M949 325h11M765 326h10M836 326h11M886 326h12M949 326h11M765 327h11M836 327h11M886 327h11M949 327h11M765 328h11M836 328h11M885 328h12M949 328h11M766 329h10M836 329h11M885 329h11M949 329h11M766 330h11M835 330h12M884 330h12M949 330h11M766 331h11M835 331h11M884 331h11M949 331h11M766 332h11M835 332h11M883 332h12M949 332h11M766 333h11M834 333h12M883 333h11M949 333h11M766 334h11M834 334h11M882 334h12M949 334h11M766 335h11M833 335h12M882 335h11M949 335h11M766 336h11M832 336h12M881 336h12M949 336h11M766 337h11M832 337h11M881 337h11M949 337h11M765 338h12M831 338h12M880 338h12M949 338h11M765 339h11M830 339h12M880 339h11M949 339h11M764 340h12M829 340h12M879 340h12M949 340h11M764 341h11M828 341h12M879 341h11M949 341h11M763 342h12M825 342h1M827 342h12M879 342h11M949 342h11M697 343h11M763 343h11M826 343h10M837 343h1M879 343h11M949 343h11M694 344h14M711 344h8M762 344h12M825 344h12M879 344h11M949 344h11M691 345h14M714 345h8M761 345h12M824 345h12M879 345h11M949 345h11M689 346h13M715 346h10M760 346h12M823 346h12M879 346h11M940 346h20M687 347h13M717 347h9M759 347h12M822 347h12M879 347h11M937 347h14M685 348h13M718 348h10M758 348h12M821 348h12M879 348h11M934 348h14M684 349h2M687 349h9M719 349h10M757 349h12M820 349h12M879 349h11M932 349h13M683 350h12M697 350h1M720 350h10M756 350h12M819 350h12M879 350h11M930 350h13M682 351h12M721 351h10M755 351h12M818 351h12M880 351h10M928 351h13M681 352h12M722 352h10M754 352h12M817 352h12M880 352h11M926 352h13M680 353h12M723 353h10M753 353h12M816 353h12M881 353h10M925 353h12M679 354h12M724 354h10M752 354h12M815 354h12M881 354h11M924 354h12M678 355h12M725 355h10M751 355h12M814 355h12M882 355h10M923 355h12M677 356h12M726 356h10M750 356h12M813 356h12M882 356h11M922 356h12M677 357h11M727 357h10M749 357h12M812 357h12M882 357h11M921 357h12M676 358h12M728 358h10M748 358h12M812 358h11M883 358h10M920 358h12M676 359h11M728 359h11M747 359h12M811 359h12M883 359h11M919 359h12M675 360h12M730 360h9M746 360h12M811 360h11M883 360h11M918 360h12M675 361h11M731 361h10M746 361h11M810 361h12M883 361h11M917 361h12M674 362h12M732 362h10M745 362h12M810 362h11M883 362h11M916 362h12M674 363h11M733 363h10M745 363h11M809 363h12M883 363h11M916 363h11M673 364h12M734 364h22M809 364h11M883 364h11M916 364h11M673 365h11M736 365h8M745 365h10M808 365h12M883 365h11M915 365h12M672 366h12M747 366h8M808 366h11M883 366h11M915 366h11M672 367h11M807 367h12M882 367h12M915 367h11M671 368h12M807 368h11M882 368h11M914 368h12M671 369h11M806 369h12M882 369h11M914 369h11M670 370h12M806 370h11M881 370h12M914 370h11M670 371h11M805 371h12M881 371h11M913 371h12M669 372h12M805 372h11M842 372h7M880 372h12M913 372h11M669 373h11M805 373h11M839 373h13M853 373h7M880 373h11M913 373h11M668 374h12M804 374h12M838 374h12M853 374h10M879 374h12M912 374h12M668 375h11M804 375h11M836 375h13M855 375h9M878 375h12M912 375h11M667 376h12M804 376h11M834 376h13M856 376h10M877 376h12M911 376h12M667 377h11M803 377h12M833 377h12M857 377h10M876 377h12M911 377h11M666 378h12M803 378h11M832 378h1M834 378h10M858 378h10M875 378h12M910 378h12M666 379h11M803 379h11M831 379h12M844 379h1M859 379h10M874 379h12M910 379h11M666 380h11M802 380h12M830 380h12M860 380h10M873 380h12M909 380h12M665 381h12M802 381h11M829 381h12M861 381h23M909 381h11M665 382h11M802 382h11M828 382h12M872 382h10M908 382h12M665 383h11M801 383h12M827 383h12M908 383h11M664 384h12M801 384h11M826 384h12M907 384h12M664 385h11M801 385h11M825 385h12M907 385h11M664 386h11M801 386h11M824 386h12M906 386h12M663 387h12M801 387h11M824 387h11M905 387h12M663 388h11M801 388h11M823 388h12M904 388h12M663 389h11M801 389h11M823 389h11M903 389h12M662 390h12M801 390h11M822 390h12M902 390h12M662 391h11M802 391h10M822 391h11M901 391h12M661 392h12M802 392h11M821 392h12M900 392h12M661 393h11M802 393h11M821 393h11M899 393h12M660 394h12M803 394h10M820 394h12M898 394h12M659 395h12M803 395h11M819 395h12M897 395h12M658 396h12M804 396h10M818 396h12M896 396h12M657 397h12M805 397h10M817 397h12M895 397h12M656 398h12M806 398h22M894 398h12M655 399h12M807 399h8M817 399h10M893 399h12M654 400h12M808 400h6M818 400h8M892 400h12M653 401h12M819 401h6M892 401h11M652 402h12M891 402h12M651 403h12M891 403h11M650 404h12M891 404h11M648 405h13M890 405h12M645 406h14M890 406h11M642 407h14M890 407h11M639 408h14M890 408h11M636 409h14M890 409h11M634 410h13M890 410h11M632 411h13M890 411h11M630 412h13M890 412h11M628 413h13M890 413h11M626 414h13M891 414h10M624 415h13M891 415h11M623 416h12M891 416h11M621 417h13M892 417h10M619 418h13M892 418h11M618 419h12M892 419h11M617 420h12M893 420h10M616 421h12M893 421h11M615 422h12M894 422h10M614 423h12M894 423h11M613 424h12M895 424h10M612 425h12M895 425h11M611 426h12M896 426h10M610 427h12M896 427h11M609 428h12M897 428h10M608 429h12M898 429h10M608 430h11M899 430h10M607 431h12M900 431h10M606 432h12M901 432h10M606 433h11M902 433h10M605 434h12M903 434h10M604 435h12M904 435h10M604 436h11M905 436h10M603 437h12M906 437h10M603 438h11M907 438h10M602 439h12M908 439h10M602 440h11M909 440h10M601 441h12M910 441h10M601 442h11M911 442h10M600 443h12M911 443h11M600 444h11M912 444h10M600 445h11M912 445h11M599 446h12M913 446h10M600 447h10M913 447h11M600 448h10M914 448h10M600 449h9M914 449h11M600 450h9M914 450h11M600 451h9M914 451h11M600 452h8M914 452h11M600 453h8M914 453h11M600 454h7M914 454h11M600 455h7M914 455h11M601 456h5M913 456h12M601 457h5M913 457h12M601 458h5M912 458h13M602 459h4M912 459h13M603 460h1M912 460h13M603 461h1M911 461h14M911 462h14M604 463h1M911 463h14M604 464h1M910 464h15M602 465h4M909 465h16M602 466h4M908 466h17M602 467h4M908 467h17M602 468h5M907 468h18M602 469h6M906 469h19M602 470h323" />
<path stroke="rgba(0,218,255,0.7215686274509804)" d="M928 215h9M925 216h15M922 217h20M919 218h25M916 219h30M913 220h35M910 221h39M908 222h20M939 222h10M906 223h19M904 224h18M902 225h18M900 226h18M898 227h18M897 228h18M896 229h18M895 230h18M894 231h18M892 232h19M890 233h19M888 234h19M878 239h22M878 240h19M876 241h19M821 245h13M867 245h21M818 246h19M864 246h23M815 247h33M861 247h25M812 248h72M809 249h73M806 250h74M803 251h75M800 252h76M798 253h76M796 254h76M794 255h76M792 256h75M790 257h74M788 258h73M786 259h72M784 260h53M782 261h53M780 262h53M778 263h53M777 264h52M776 265h51M775 266h51M774 267h51M773 268h51M772 269h51M771 270h51M770 271h51M769 272h51M768 273h51M767 274h51M766 275h52M765 276h52M764 277h53M763 278h53M763 279h53M762 280h53M761 281h54M761 282h54M760 283h54M760 284h54M760 285h54M759 286h55M759 287h55M759 288h55M758 289h56M758 290h56M758 291h56M758 292h56M758 293h57M758 294h57M758 295h57M758 296h58M758 297h58M940 297h9M759 298h58M936 298h13M759 299h58M933 299h16M759 300h59M930 300h19M760 301h58M927 301h22M760 302h59M925 302h24M761 303h59M923 303h26M761 304h60M921 304h28M762 305h60M919 305h30M762 306h61M917 306h32M763 307h59M823 307h1M916 307h33M763 308h62M915 308h34M764 309h63M914 309h35M764 310h64M913 310h36M765 311h65M912 311h37M765 312h66M911 312h38M766 313h66M910 313h39M766 314h66M909 314h40M767 315h66M908 315h41M767 316h67M907 316h42M768 317h66M906 317h43M769 318h66M905 318h44M770 319h65M904 319h45M771 320h64M903 320h46M772 321h64M902 321h47M773 322h63M901 322h48M774 323h62M900 323h49M775 324h61M899 324h50M775 325h61M898 325h51M775 326h61M898 326h51M776 327h60M897 327h52M776 328h60M897 328h52M776 329h60M896 329h53M777 330h58M896 330h53M777 331h58M895 331h54M777 332h58M895 332h54M777 333h57M894 333h55M777 334h57M894 334h55M777 335h56M893 335h56M777 336h55M893 336h56M777 337h55M892 337h57M777 338h54M892 338h57M776 339h54M891 339h58M776 340h53M891 340h58M775 341h53M890 341h59M775 342h50M826 342h1M890 342h59M774 343h52M890 343h59M708 344h3M774 344h51M890 344h59M705 345h9M773 345h51M890 345h59M702 346h13M772 346h51M890 346h50M700 347h17M771 347h51M890 347h47M698 348h20M770 348h51M890 348h44M696 349h23M769 349h51M890 349h42M695 350h2M698 350h22M768 350h51M890 350h40M694 351h27M767 351h51M890 351h38M693 352h29M766 352h51M891 352h35M692 353h31M765 353h51M891 353h34M691 354h33M764 354h51M892 354h32M690 355h35M763 355h51M892 355h31M689 356h37M762 356h51M893 356h29M688 357h39M761 357h51M893 357h28M688 358h40M760 358h52M893 358h27M687 359h41M759 359h52M894 359h25M687 360h43M758 360h53M894 360h24M686 361h45M757 361h53M894 361h23M686 362h46M757 362h53M894 362h22M685 363h48M756 363h53M894 363h22M685 364h49M756 364h53M894 364h22M684 365h52M744 365h1M755 365h53M894 365h21M684 366h63M755 366h53M894 366h21M683 367h124M894 367h21M683 368h124M893 368h21M682 369h124M893 369h21M682 370h124M893 370h21M681 371h124M892 371h21M681 372h124M892 372h21M680 373h125M891 373h22M680 374h124M850 374h3M891 374h21M679 375h125M849 375h6M890 375h22M679 376h125M847 376h9M889 376h22M678 377h125M845 377h12M888 377h23M678 378h125M844 378h14M887 378h23M677 379h126M843 379h1M845 379h14M886 379h24M677 380h125M842 380h18M885 380h24M677 381h125M841 381h20M884 381h25M676 382h126M840 382h32M882 382h26M676 383h125M839 383h69M676 384h125M838 384h69M675 385h126M837 385h70M675 386h126M836 386h70M675 387h126M835 387h70M674 388h127M835 388h69M674 389h127M834 389h69M674 390h127M834 390h68M673 391h129M833 391h68M673 392h129M833 392h67M672 393h130M832 393h67M672 394h131M832 394h66M671 395h132M831 395h66M670 396h134M830 396h66M669 397h136M829 397h66M668 398h138M828 398h66M667 399h140M815 399h2M827 399h66M666 400h142M814 400h4M826 400h66M665 401h154M825 401h67M664 402h227M663 403h228M662 404h229M661 405h229M659 406h231M656 407h234M653 408h237M650 409h240M647 410h243M645 411h245M643 412h247M641 413h249M639 414h252M637 415h254M635 416h256M634 417h258M632 418h260M630 419h262M629 420h264M628 421h265M627 422h267M626 423h268M625 424h270M624 425h271M623 426h273M622 427h274M621 428h276M620 429h278M619 430h280M619 431h281M618 432h283M617 433h285M617 434h286M616 435h288M615 436h290M615 437h291M614 438h293M614 439h294M613 440h296M613 441h297M612 442h299M612 443h299M611 444h301M611 445h301M611 446h302M610 447h303M610 448h304M609 449h305M609 450h305M609 451h305M608 452h306M608 453h306M607 454h307M607 455h307M606 456h307M606 457h307M606 458h306M606 459h306M604 460h308M604 461h307M604 462h307M605 463h306M605 464h305M606 465h303M606 466h302M606 467h302M607 468h300M608 469h298" />
<path stroke="#130055" d="M597 471h329M597 472h329M597 473h329M596 474h331M596 475h331M595 476h333M595 477h333M594 478h335M594 479h335M593 480h337M593 481h337M592 482h339M592 483h339M591 484h341M591 485h341M590 486h343M590 487h343M590 488h343M590 489h343M590 490h343M590 491h343M590 492h343M590 493h343M589 494h345M588 495h347M587 496h349M586 497h351M585 498h353" />
</svg>