<svg xmlns="http://www.w3.org/2000/svg" viewBox="0 -0.5 960 600" shape-rendering="crispEdges">
<metadata>Made with Pixels to Svg https://codepen.io/shshaw/pen/XbxvNj</metadata>
<path stroke="#cffbd8" d="M225 189h23M224 190h1M248 190h1M223 191h1M225 191h1M227 191h1M229 191h1M231 191h1M233 191h1M235 191h1M237 191h1M239 191h1M241 191h1M243 191h1M245 191h1M247 191h1M249 191h1M222 192h1M250 192h1M221 193h1M227 193h3M251 193h1M220 194h1M226 194h1M252 194h1M219 195h1M225 195h1M253 195h1M218 196h1M224 196h1M254 196h1M218 197h1M223 197h1M254 197h1M218 198h1M222 198h1M254 198h1M218 199h1M222 199h1M254 199h1M218 200h1M222 200h1M254 200h1M218 201h1M254 201h1M218 202h1M222 202h1M254 202h1M218 203h1M254 203h1M218 204h1M254 204h1M189 205h24M218 205h1M254 205h1M187 206h1M213 206h1M218 206h1M254 206h1M186 207h1M188 207h1M190 207h1M192 207h1M194 207h1M196 207h1M198 207h1M200 207h1M202 207h1M204 207h1M206 207h1M208 207h1M210 207h1M212 207h1M214 207h1M218 207h1M254 207h1M185 208h1M215 208h1M218 208h1M254 208h1M184 209h1M216 209h1M218 209h1M254 209h1M184 210h1M216 210h1M218 210h1M254 210h1M184 211h1M216 211h1M218 211h1M254 211h1M184 212h1M216 212h1M218 212h1M254 212h1M184 213h1M216 213h1M218 213h1M254 213h1M184 214h1M216 214h1M218 214h1M254 214h1M184 215h1M216 215h1M218 215h1M254 215h1M184 216h1M216 216h1M218 216h1M254 216h1M184 217h1M216 217h1M218 217h1M254 217h1M184 218h1M216 218h1M218 218h1M254 218h1M184 219h1M216 219h1M218 219h1M254 219h1M184 220h1M216 220h1M218 220h1M254 220h1M184 221h1M216 221h1M218 221h1M254 221h1M184 222h1M216 222h1M218 222h2M254 222h1M184 223h1M216 223h1M218 223h2M253 223h2M184 224h1M216 224h1M218 224h2M253 224h2M184 225h1M216 225h1M218 225h2M253 225h2M184 226h1M216 226h1M218 226h3M252 226h1M254 226h1M184 227h1M216 227h1M219 227h3M251 227h1M253 227h1M185 228h1M187 228h1M189 228h1M191 228h1M193 228h1M195 228h1M197 228h1M199 228h1M201 228h1M203 228h1M205 228h1M207 228h1M209 228h1M211 228h1M213 228h1M215 228h1M220 228h3M224 228h1M226 228h1M228 228h1M230 228h1M232 228h1M234 228h1M236 228h1M238 228h1M240 228h1M242 228h1M244 228h1M246 228h1M248 228h3M252 228h1M186 229h1M188 229h1M190 229h1M192 229h1M194 229h1M196 229h1M198 229h1M200 229h1M202 229h1M204 229h1M206 229h1M208 229h1M210 229h1M212 229h1M214 229h1M221 229h3M225 229h1M227 229h1M229 229h1M231 229h1M233 229h1M235 229h1M237 229h1M239 229h1M241 229h1M243 229h1M245 229h1M247 229h1M249 229h1M251 229h1M182 230h4M187 230h27M222 230h29M184 231h1M190 231h1M210 231h1M225 231h1M247 231h1M183 232h1M191 232h1M209 232h1M227 232h1M246 232h1M182 233h1M192 233h1M208 233h1M228 233h1M245 233h1M193 234h15M229 234h16" />
<path stroke="#151e42" d="M239 198h6M229 199h5M238 199h1M245 199h2M228 200h2M234 200h4M247 200h1M227 201h1M237 201h1M248 201h1M226 202h1M237 202h1M249 202h1M225 203h1M237 203h1M240 203h3M250 203h1M224 204h1M237 204h3M243 204h2M251 204h1M223 205h1M237 205h1M245 205h2M252 205h1M222 206h3M226 206h1M228 206h1M230 206h1M232 206h1M234 206h1M236 206h2M247 206h1M253 206h1M222 207h2M225 207h1M227 207h1M229 207h1M231 207h1M233 207h1M235 207h1M237 207h1M248 207h1M253 207h1M222 208h1M225 208h8M234 208h1M236 208h2M251 208h2M222 209h5M231 209h8M250 209h1M222 210h4M239 210h1M249 210h1M222 211h3M240 211h9M222 212h2M222 213h2M223 214h2M223 215h3M224 216h3M225 217h4M245 217h1M226 218h12M245 218h2M228 219h12M245 219h1M247 219h1M234 220h7M245 220h1M235 221h7M245 221h1M249 221h1M224 222h3M236 222h6M245 222h1M249 222h1M226 223h1M237 223h6M244 223h1M249 223h1M227 224h1M231 224h14M249 224h1M228 225h2M233 225h12M249 225h1M230 226h2M234 226h7M243 226h1M249 226h1M229 227h11M244 227h1M248 227h2M229 228h1M231 228h1M245 228h1M247 228h1M228 229h1M244 229h1" />
<path stroke="#1a6247" d="M234 199h1M230 202h7M227 203h10M226 204h11M225 205h12M225 206h1M227 206h1M229 206h1M231 206h1M233 206h1M235 206h1M224 207h1M226 207h1M228 207h1M230 207h1M232 207h1M234 207h1M236 207h1M223 208h2M233 208h1M235 208h1M233 210h3M234 211h1M236 211h1M234 212h1M237 212h1M234 213h1M238 213h1M247 221h2M247 222h2M227 223h1M229 223h1M246 223h3M228 224h3M246 224h3M230 225h3M245 225h4M232 226h2M241 226h2M244 226h5M240 227h4M245 227h3M233 228h1M235 228h1M237 228h1M239 228h1M241 228h1M243 228h1M230 229h1M232 229h1M234 229h1M236 229h1M238 229h1M240 229h1M242 229h1" />
<path stroke="#8451a7" d="M239 199h4M244 200h1M245 201h2M246 202h2M247 203h2M247 204h3M247 205h3M246 206h1M248 206h1M245 207h3M250 207h1M244 208h2M247 208h1M244 209h2M247 209h1M240 210h5M248 210h1" />
<path stroke="#dc6de8" d="M243 199h2M245 200h2M247 201h1M248 202h1M249 203h1M250 205h1M249 206h2M249 207h1M248 208h1M246 209h1M248 209h1M245 210h3" />
<path stroke="#bed7b7" d="M230 200h4M228 201h9M227 202h3M226 203h1M225 204h1M224 205h1M246 219h1M246 220h3M246 221h1M227 222h2M246 222h1M228 223h1M230 223h1M245 223h1M245 224h1" />
<path stroke="#4e3363" d="M238 200h6M238 201h7M238 202h8M238 203h2M243 203h4M240 204h3M245 204h2M238 205h7M238 206h8M238 207h7M238 208h6M246 208h1M239 209h5" />
<path stroke="#f84cbc" d="M250 204h1M251 205h1M251 206h2M251 207h2M250 208h1M249 209h1" />
<path stroke="#f8a052" d="M197 206h1M209 206h1M195 209h1M203 209h1M205 212h1M209 212h1M192 213h1M196 213h1M198 213h1M204 213h3M196 214h2M200 214h1M203 214h5M196 215h3M205 215h3M196 216h4M205 216h3M209 216h1M195 217h1M197 217h2M206 217h2M209 217h1M194 218h1M196 218h2M199 218h7M208 218h2M195 219h1M197 219h1M203 219h2M207 219h2M201 220h2M204 220h4M197 221h5M205 221h2M213 223h1M211 224h3M210 225h4M202 226h1M209 226h4M202 227h1M208 227h3M196 228h1M202 228h1M208 228h1" />
<path stroke="#1a223f" d="M249 208h1" />
<path stroke="#f8ea55" d="M199 210h1M196 211h3M204 211h2M195 212h2M198 212h3M203 212h2M206 212h1M194 213h2M199 213h2M202 213h2M207 213h1M195 214h1M208 215h2M195 216h1M210 216h1M196 217h1M210 217h1M210 218h1" />
<path stroke="#dc3319" d="M199 211h2M197 212h1M201 212h2M197 213h1M201 213h1M198 214h1M201 214h1M199 215h1M201 215h1M203 215h1M193 216h2M200 216h1M204 216h1M208 216h1M193 217h2M199 217h1M205 217h1M208 217h1M195 218h1M198 218h1M206 218h2M196 219h1M198 219h5M205 219h2M197 220h4" />
<path stroke="#82161d" d="M194 214h1M199 214h1M202 214h1M208 214h2M194 215h2M200 215h1M202 215h1M204 215h1M201 216h3M200 217h2M203 217h2M203 223h4M201 224h1M203 224h3M201 225h1M203 225h1M201 226h1M201 227h1M201 229h1" />
<path stroke="#3d1517" d="M202 217h1M193 218h1M194 219h1M209 219h1M195 220h2M203 220h1M208 220h1M196 221h1M202 221h3M207 221h1M197 222h10M198 223h5M199 224h2M202 224h1M200 225h1M202 225h1" />
<path stroke="#d4af70" d="M214 220h1M213 221h2M212 222h3M210 223h3M214 223h1M208 224h3M214 224h1M194 225h1M207 225h3M195 226h2M206 226h2M195 227h3M205 227h2M198 228h1M204 228h1" />
<path stroke="#96503d" d="M214 225h1M194 226h1M203 226h1M208 226h1M213 226h1M194 227h1M203 227h1M207 227h1M211 227h2M200 228h1M206 228h1M210 228h1M197 229h1M199 229h1M203 229h1M205 229h1M207 229h1" />
<path stroke="#6fc0c2" d="M179 229h2M179 230h3M179 231h5M191 231h19M226 231h21M179 232h4M192 232h17M228 232h18M179 233h2M193 233h15M229 233h16M179 234h3M180 235h1M180 236h1" />
</svg>