<svg xmlns="http://www.w3.org/2000/svg" viewBox="0 -0.5 1920 600" shape-rendering="crispEdges">
<metadata>Made with Pixels to Svg https://codepen.io/shshaw/pen/XbxvNj</metadata>
<path stroke="#b0ffd4" d="M225 189h23M1185 189h23M224 190h1M248 190h1M1184 190h1M1208 190h1M223 191h1M225 191h1M227 191h1M229 191h1M231 191h1M233 191h1M235 191h1M237 191h1M239 191h1M241 191h1M243 191h1M245 191h1M247 191h1M249 191h1M1183 191h1M1185 191h1M1187 191h1M1189 191h1M1191 191h1M1193 191h1M1195 191h1M1197 191h1M1199 191h1M1201 191h1M1203 191h1M1205 191h1M1207 191h1M1209 191h1M222 192h1M250 192h1M1182 192h1M1210 192h1M221 193h1M227 193h3M251 193h1M1181 193h1M1187 193h3M1211 193h1M220 194h1M226 194h1M252 194h1M1180 194h1M1186 194h1M1212 194h1M219 195h1M225 195h1M253 195h1M1179 195h1M1185 195h1M1213 195h1M218 196h1M224 196h1M254 196h1M1178 196h1M1184 196h1M1214 196h1M218 197h1M223 197h1M254 197h1M1178 197h1M1183 197h1M1214 197h1M218 198h1M222 198h1M254 198h1M1178 198h1M1182 198h1M1214 198h1M218 199h1M222 199h1M254 199h1M1178 199h1M1182 199h1M1214 199h1M218 200h1M222 200h1M254 200h1M1178 200h1M1182 200h1M1214 200h1M218 201h1M254 201h1M1178 201h1M1214 201h1M218 202h1M222 202h1M254 202h1M1178 202h1M1182 202h1M1214 202h1M218 203h1M254 203h1M1178 203h1M1214 203h1M218 204h1M254 204h1M1178 204h1M1214 204h1M189 205h24M218 205h1M254 205h1M1149 205h24M1178 205h1M1214 205h1M187 206h1M213 206h1M218 206h1M254 206h1M1147 206h1M1173 206h1M1178 206h1M1214 206h1M186 207h1M188 207h1M190 207h1M192 207h1M194 207h1M196 207h1M198 207h1M200 207h1M202 207h1M204 207h1M206 207h1M208 207h1M210 207h1M212 207h1M214 207h1M218 207h1M254 207h1M1146 207h1M1148 207h1M1150 207h1M1152 207h1M1154 207h1M1156 207h1M1158 207h1M1160 207h1M1162 207h1M1164 207h1M1166 207h1M1168 207h1M1170 207h1M1172 207h1M1174 207h1M1178 207h1M1214 207h1M185 208h1M215 208h1M218 208h1M254 208h1M1145 208h1M1175 208h1M1178 208h1M1214 208h1M184 209h1M216 209h1M218 209h1M254 209h1M1144 209h1M1176 209h1M1178 209h1M1214 209h1M184 210h1M216 210h1M218 210h1M254 210h1M1144 210h1M1176 210h1M1178 210h1M1214 210h1M184 211h1M216 211h1M218 211h1M254 211h1M1144 211h1M1176 211h1M1178 211h1M1214 211h1M184 212h1M216 212h1M218 212h1M254 212h1M1144 212h1M1176 212h1M1178 212h1M1214 212h1M184 213h1M216 213h1M218 213h1M254 213h1M1144 213h1M1176 213h1M1178 213h1M1214 213h1M184 214h1M216 214h1M218 214h1M254 214h1M1144 214h1M1176 214h1M1178 214h1M1214 214h1M184 215h1M216 215h1M218 215h1M254 215h1M1144 215h1M1176 215h1M1178 215h1M1214 215h1M184 216h1M216 216h1M218 216h1M254 216h1M1144 216h1M1176 216h1M1178 216h1M1214 216h1M184 217h1M216 217h1M218 217h1M254 217h1M1144 217h1M1176 217h1M1178 217h1M1214 217h1M184 218h1M216 218h1M218 218h1M254 218h1M1144 218h1M1176 218h1M1178 218h1M1214 218h1M184 219h1M216 219h1M218 219h1M254 219h1M1144 219h1M1176 219h1M1178 219h1M1214 219h1M184 220h1M216 220h1M218 220h1M254 220h1M1144 220h1M1176 220h1M1178 220h1M1214 220h1M184 221h1M216 221h1M218 221h1M254 221h1M1144 221h1M1176 221h1M1178 221h1M1214 221h1M184 222h1M216 222h1M218 222h2M254 222h1M1144 222h1M1176 222h1M1178 222h2M1214 222h1M184 223h1M216 223h1M218 223h2M253 223h2M1144 223h1M1176 223h1M1178 223h2M1213 223h2M184 224h1M216 224h1M218 224h2M253 224h2M1144 224h1M1176 224h1M1178 224h2M1213 224h2M184 225h1M216 225h1M218 225h2M253 225h2M1144 225h1M1176 225h1M1178 225h2M1213 225h2M184 226h1M216 226h1M218 226h3M252 226h1M254 226h1M1144 226h1M1176 226h1M1178 226h3M1212 226h1M1214 226h1M184 227h1M216 227h1M219 227h3M251 227h1M253 227h1M1144 227h1M1176 227h1M1179 227h3M1211 227h1M1213 227h1M185 228h1M187 228h1M189 228h1M191 228h1M193 228h1M195 228h1M197 228h1M199 228h1M201 228h1M203 228h1M205 228h1M207 228h1M209 228h1M211 228h1M213 228h1M215 228h1M220 228h3M224 228h1M226 228h1M228 228h1M230 228h1M232 228h1M234 228h1M236 228h1M238 228h1M240 228h1M242 228h1M244 228h1M246 228h1M248 228h3M252 228h1M1145 228h1M1147 228h1M1149 228h1M1151 228h1M1153 228h1M1155 228h1M1157 228h1M1159 228h1M1161 228h1M1163 228h1M1165 228h1M1167 228h1M1169 228h1M1171 228h1M1173 228h1M1175 228h1M1180 228h3M1184 228h1M1186 228h1M1188 228h1M1190 228h1M1192 228h1M1194 228h1M1196 228h1M1198 228h1M1200 228h1M1202 228h1M1204 228h1M1206 228h1M1208 228h3M1212 228h1M186 229h1M188 229h1M190 229h1M192 229h1M194 229h1M196 229h1M198 229h1M200 229h1M202 229h1M204 229h1M206 229h1M208 229h1M210 229h1M212 229h1M214 229h1M221 229h3M225 229h1M227 229h1M229 229h1M231 229h1M233 229h1M235 229h1M237 229h1M239 229h1M241 229h1M243 229h1M245 229h1M247 229h1M249 229h1M251 229h1M1146 229h1M1148 229h1M1150 229h1M1152 229h1M1154 229h1M1156 229h1M1158 229h1M1160 229h1M1162 229h1M1164 229h1M1166 229h1M1168 229h1M1170 229h1M1172 229h1M1174 229h1M1181 229h3M1185 229h1M1187 229h1M1189 229h1M1191 229h1M1193 229h1M1195 229h1M1197 229h1M1199 229h1M1201 229h1M1203 229h1M1205 229h1M1207 229h1M1209 229h1M1211 229h1M182 230h4M187 230h27M222 230h29M1142 230h4M1147 230h27M1182 230h29M184 231h1M190 231h1M210 231h1M225 231h1M247 231h1M1144 231h1M1150 231h1M1170 231h1M1185 231h1M1207 231h1M183 232h1M191 232h1M209 232h1M227 232h1M246 232h1M1143 232h1M1151 232h1M1169 232h1M1187 232h1M1206 232h1M182 233h1M192 233h1M208 233h1M228 233h1M245 233h1M1142 233h1M1152 233h1M1168 233h1M1188 233h1M1205 233h1M193 234h15M229 234h16M1153 234h15M1189 234h16" />
<path stroke="#0d1a45" d="M239 198h5M1199 198h6M229 199h5M238 199h1M244 199h1M1189 199h5M1198 199h1M1205 199h2M228 200h1M234 200h4M245 200h1M1188 200h2M1194 200h4M1207 200h1M227 201h1M237 201h1M246 201h1M1187 201h1M1197 201h1M1208 201h1M226 202h1M237 202h1M247 202h1M1186 202h1M1197 202h1M1209 202h1M225 203h1M237 203h1M248 203h1M1185 203h1M1197 203h1M1210 203h1M224 204h1M237 204h3M249 204h1M1184 204h1M1197 204h3M1211 204h1M223 205h1M237 205h1M240 205h3M249 205h1M1183 205h1M1197 205h1M1200 205h3M1211 205h1M222 206h3M226 206h1M228 206h1M230 206h1M232 206h1M234 206h1M236 206h2M243 206h2M250 206h1M1182 206h3M1186 206h1M1188 206h1M1190 206h1M1192 206h1M1194 206h1M1196 206h2M1203 206h2M1212 206h1M222 207h2M225 207h1M227 207h1M229 207h1M231 207h1M233 207h1M235 207h1M237 207h1M245 207h1M250 207h1M1182 207h2M1185 207h1M1187 207h1M1189 207h1M1191 207h1M1193 207h1M1195 207h1M1197 207h1M1205 207h2M1212 207h1M222 208h1M225 208h8M234 208h1M236 208h2M246 208h1M251 208h1M1182 208h1M1185 208h8M1194 208h1M1196 208h2M1207 208h1M1212 208h1M222 209h5M231 209h7M247 209h1M251 209h1M1182 209h5M1191 209h8M1208 209h1M1211 209h1M222 210h4M233 210h4M238 210h1M248 210h1M252 210h1M1182 210h4M1199 210h1M1209 210h2M222 211h3M239 211h1M248 211h2M251 211h1M1182 211h3M1200 211h1M1208 211h2M222 212h2M241 212h2M246 212h2M250 212h1M1182 212h2M1201 212h7M222 213h2M243 213h3M1182 213h2M223 214h2M1183 214h2M223 215h3M1183 215h3M224 216h3M1184 216h3M225 217h4M1185 217h4M1205 217h1M226 218h12M249 218h1M1186 218h12M1205 218h2M228 219h12M248 219h1M1188 219h12M1205 219h1M1207 219h1M234 220h7M247 220h1M1194 220h7M1205 220h1M235 221h7M246 221h1M249 221h1M1195 221h7M1205 221h1M1209 221h1M224 222h3M236 222h6M245 222h1M249 222h1M1184 222h3M1196 222h6M1205 222h1M1209 222h1M226 223h1M237 223h6M244 223h1M249 223h1M1186 223h1M1197 223h6M1204 223h1M1209 223h1M227 224h1M231 224h14M249 224h1M1187 224h1M1191 224h14M1209 224h1M228 225h2M233 225h12M249 225h1M1188 225h2M1193 225h12M1209 225h1M230 226h2M234 226h7M243 226h1M249 226h1M1190 226h2M1194 226h7M1203 226h1M1209 226h1M229 227h11M244 227h1M248 227h2M1189 227h11M1204 227h1M1208 227h2M229 228h1M231 228h1M245 228h1M247 228h1M1189 228h1M1191 228h1M1205 228h1M1207 228h1M228 229h1M244 229h1M1188 229h1M1204 229h1" />
<path stroke="#7851a8" d="M239 199h4M1199 199h4M1204 200h1M1205 201h2M1206 202h2M1207 203h2M247 204h1M1207 204h3M246 205h2M1206 205h4M246 206h3M1206 206h3M246 207h3M1207 207h2M1210 207h1M244 208h2M247 208h1M1204 208h2M244 209h2M1204 209h2M1207 209h1M239 210h6M1200 210h5M1208 210h1M240 211h3M1201 211h2" />
<path stroke="#cd6de3" d="M243 199h1M1203 199h2M244 200h1M1205 200h2M245 201h1M1207 201h1M246 202h1M1208 202h1M247 203h1M1209 203h1M248 204h1M1210 204h1M248 205h1M1210 205h1M249 206h1M1209 206h2M249 207h1M1209 207h1M248 208h3M1208 208h2M246 209h1M248 209h2M1206 209h1M245 210h3M1205 210h3M243 211h3M1203 211h3M243 212h3" />
<path stroke="#14664e" d="M1194 199h1M1190 202h7M230 203h7M1187 203h10M226 204h11M1186 204h11M225 205h12M1185 205h12M225 206h1M227 206h1M229 206h1M231 206h1M233 206h1M235 206h1M1185 206h1M1187 206h1M1189 206h1M1191 206h1M1193 206h1M1195 206h1M224 207h1M226 207h1M228 207h1M230 207h1M232 207h1M234 207h1M236 207h1M1184 207h1M1186 207h1M1188 207h1M1190 207h1M1192 207h1M1194 207h1M1196 207h1M223 208h2M233 208h1M235 208h1M1183 208h2M1193 208h1M1195 208h1M1193 210h3M233 211h3M1194 211h1M1196 211h1M234 212h1M236 212h1M1194 212h1M1197 212h1M234 213h1M237 213h1M1194 213h1M1198 213h1M234 214h1M238 214h1M250 215h1M250 216h1M250 217h1M250 218h1M250 219h1M249 220h2M248 221h1M250 221h1M1207 221h2M247 222h2M1207 222h2M227 223h1M229 223h1M246 223h3M1187 223h1M1189 223h1M1206 223h3M228 224h3M246 224h3M1188 224h3M1206 224h3M230 225h3M245 225h4M1190 225h3M1205 225h4M232 226h2M241 226h2M244 226h5M1192 226h2M1201 226h2M1204 226h5M240 227h4M245 227h3M1200 227h4M1205 227h3M233 228h1M235 228h1M237 228h1M239 228h1M241 228h1M243 228h1M1193 228h1M1195 228h1M1197 228h1M1199 228h1M1201 228h1M1203 228h1M230 229h1M232 229h1M234 229h1M236 229h1M238 229h1M240 229h1M242 229h1M1190 229h1M1192 229h1M1194 229h1M1196 229h1M1198 229h1M1200 229h1M1202 229h1" />
<path stroke="#9fd1b5" d="M230 200h4M238 200h2M1190 200h4M228 201h9M1188 201h9M227 202h10M1187 202h3M226 203h4M1186 203h1M225 204h1M1185 204h1M224 205h1M1184 205h1M249 219h1M1206 219h1M248 220h1M1206 220h3M247 221h1M1206 221h1M227 222h2M246 222h1M1187 222h2M1206 222h1M228 223h1M230 223h1M245 223h1M1188 223h1M1190 223h1M1205 223h1M245 224h1M1205 224h1" />
<path stroke="#493166" d="M240 200h4M1198 200h6M238 201h7M1198 201h7M238 202h8M1198 202h8M238 203h9M1198 203h9M240 204h7M1200 204h7M238 205h2M243 205h3M1198 205h2M1203 205h3M238 206h5M245 206h1M1198 206h5M1205 206h1M238 207h7M1198 207h7M238 208h6M1198 208h6M1206 208h1M238 209h6M1199 209h5" />
<path stroke="#fbaa51" d="M197 206h1M209 206h1M195 209h1M203 209h1M205 212h1M209 212h1M1165 212h1M192 213h1M196 213h1M198 213h1M204 213h3M1156 213h1M1158 213h1M1164 213h3M196 214h2M200 214h1M203 214h5M1156 214h2M1160 214h1M1163 214h5M196 215h3M205 215h3M1156 215h3M1165 215h3M196 216h4M205 216h3M209 216h1M1156 216h4M1165 216h3M1169 216h1M195 217h1M197 217h2M206 217h2M209 217h1M1155 217h1M1157 217h2M1166 217h2M1169 217h1M194 218h1M196 218h2M199 218h7M208 218h2M1154 218h1M1156 218h2M1159 218h7M1168 218h2M195 219h1M197 219h1M203 219h2M207 219h2M1155 219h1M1157 219h1M1163 219h2M1167 219h2M201 220h2M204 220h4M1161 220h2M1164 220h4M197 221h5M205 221h2M1157 221h5M1165 221h2M213 223h1M1173 223h1M211 224h3M1171 224h3M210 225h4M1170 225h4M202 226h1M209 226h4M1162 226h1M1169 226h4M202 227h1M208 227h3M1162 227h1M1168 227h3M196 228h1M202 228h1M208 228h1M1156 228h1M1162 228h1M1168 228h1" />
<path stroke="#ff4ab1" d="M1211 206h1M1211 207h1M1210 208h2M250 209h1M1209 209h2M249 210h3M246 211h2M250 211h1M1206 211h2" />
<path stroke="#c43e00" d="M1163 207h1M1155 208h1M1172 208h1M1157 210h1M1169 210h1M199 211h2M1159 211h2M197 212h1M201 212h2M1152 212h1M1157 212h1M1161 212h2M197 213h1M201 213h1M1157 213h1M1161 213h1M198 214h1M201 214h1M1158 214h1M1161 214h1M199 215h1M201 215h1M203 215h1M1159 215h1M1161 215h1M1163 215h1M193 216h2M200 216h1M204 216h1M208 216h1M1153 216h2M1160 216h1M1164 216h1M1168 216h1M193 217h2M199 217h1M205 217h1M208 217h1M1153 217h2M1159 217h1M1165 217h1M1168 217h1M195 218h1M198 218h1M206 218h2M1155 218h1M1158 218h1M1166 218h2M196 219h1M198 219h5M205 219h2M1156 219h1M1158 219h5M1165 219h2M197 220h4M1157 220h4" />
<path stroke="#ffee54" d="M199 210h1M1159 210h1M196 211h3M204 211h2M1156 211h3M1164 211h2M195 212h2M198 212h3M203 212h2M206 212h1M1155 212h2M1158 212h3M1163 212h2M1166 212h1M194 213h2M199 213h2M202 213h2M207 213h1M1154 213h2M1159 213h2M1162 213h2M1167 213h1M195 214h1M1155 214h1M208 215h2M1168 215h2M195 216h1M210 216h1M1155 216h1M1170 216h1M196 217h1M210 217h1M1156 217h1M1170 217h1M210 218h1M1170 218h1" />
<path stroke="#730000" d="M194 214h1M199 214h1M202 214h1M208 214h2M1154 214h1M1159 214h1M1162 214h1M1168 214h2M194 215h2M200 215h1M202 215h1M204 215h1M1154 215h2M1160 215h1M1162 215h1M1164 215h1M201 216h3M1161 216h3M200 217h2M203 217h2M1160 217h2M1163 217h2M203 223h4M1163 223h4M201 224h1M203 224h3M1161 224h1M1163 224h3M201 225h1M203 225h1M1161 225h1M1163 225h1M201 226h1M1161 226h1M201 227h1M1161 227h1M201 229h1M1161 229h1" />
<path stroke="#380000" d="M202 217h1M1162 217h1M193 218h1M1153 218h1M194 219h1M209 219h1M1154 219h1M1169 219h1M195 220h2M203 220h1M208 220h1M1155 220h2M1163 220h1M1168 220h1M196 221h1M202 221h3M207 221h1M1156 221h1M1162 221h3M1167 221h1M197 222h10M1157 222h10M198 223h5M1158 223h5M199 224h2M202 224h1M1159 224h2M1162 224h1M200 225h1M202 225h1M1160 225h1M1162 225h1" />
<path stroke="#bab570" d="M214 220h1M1174 220h1M213 221h2M1173 221h2M212 222h3M1172 222h3M210 223h3M214 223h1M1170 223h3M1174 223h1M208 224h3M214 224h1M1168 224h3M1174 224h1M194 225h1M207 225h3M1154 225h1M1167 225h3M195 226h2M206 226h2M1155 226h2M1166 226h2M195 227h3M205 227h2M1155 227h3M1165 227h2M198 228h1M204 228h1M1158 228h1M1164 228h1" />
<path stroke="#82583c" d="M214 225h1M1174 225h1M194 226h1M203 226h1M208 226h1M213 226h1M1154 226h1M1163 226h1M1168 226h1M1173 226h1M194 227h1M203 227h1M207 227h1M211 227h2M1154 227h1M1163 227h1M1167 227h1M1171 227h2M200 228h1M206 228h1M210 228h1M1160 228h1M1166 228h1M1170 228h1M197 229h1M199 229h1M203 229h1M205 229h1M207 229h1M1157 229h1M1159 229h1M1163 229h1M1165 229h1M1167 229h1" />
<path stroke="#5fbac2" d="M179 229h2M1139 229h2M179 230h3M1139 230h3M179 231h5M191 231h19M226 231h21M1139 231h5M1151 231h19M1186 231h21M179 232h4M192 232h17M228 232h18M1139 232h4M1152 232h17M1188 232h18M179 233h2M193 233h15M229 233h16M1139 233h2M1153 233h15M1189 233h16M179 234h3M1139 234h3M180 235h1M1140 235h1M180 236h1M1140 236h1" />
</svg>