<svg xmlns="http://www.w3.org/2000/svg" viewBox="0 -0.5 960 600" shape-rendering="crispEdges">
<metadata>Made with Pixels to Svg https://codepen.io/shshaw/pen/XbxvNj</metadata>
<path stroke="#e461a1" d="M664 410h39M661 411h45M658 412h55M655 413h68M652 414h63M649 415h63M631 416h78M628 417h78M625 418h78M622 419h78M619 420h78M824 420h4M616 421h52M682 421h12M828 421h4M613 422h55M682 422h9M832 422h4M532 423h53M610 423h58M671 423h1M673 423h1M675 423h1M677 423h1M682 423h5M835 423h5M527 424h8M537 424h52M615 424h1M617 424h1M619 424h1M621 424h1M623 424h1M625 424h1M627 424h41M682 424h2M838 424h8M522 425h13M537 425h57M620 425h1M622 425h1M624 425h1M626 425h1M628 425h40M671 425h1M673 425h1M675 425h1M677 425h1M841 425h11M514 426h6M522 426h13M537 426h54M625 426h1M627 426h1M629 426h1M631 426h1M633 426h1M635 426h1M637 426h27M844 426h15M507 427h13M522 427h13M537 427h51M628 427h1M630 427h1M632 427h1M634 427h1M636 427h1M638 427h1M640 427h24M846 427h2M849 427h19M497 428h23M522 428h13M537 428h48M631 428h1M633 428h1M635 428h1M637 428h27M848 428h1M850 428h1M852 428h24M489 429h26M516 429h1M518 429h1M522 429h10M533 429h1M537 429h45M634 429h1M636 429h1M638 429h26M849 429h1M851 429h1M853 429h1M855 429h28M479 430h2M482 430h1M484 430h1M486 430h28M515 430h1M517 430h1M526 430h5M532 430h1M537 430h42M635 430h1M637 430h1M639 430h25M850 430h1M852 430h1M854 430h1M856 430h29M471 431h10M483 431h1M485 431h3M489 431h1M491 431h1M493 431h20M514 431h1M516 431h1M526 431h4M531 431h1M533 431h1M537 431h39M636 431h1M638 431h1M640 431h24M851 431h1M853 431h1M855 431h1M857 431h13M874 431h13M462 432h7M471 432h10M482 432h1M484 432h1M486 432h1M488 432h24M513 432h1M515 432h1M527 432h4M532 432h1M538 432h25M564 432h9M634 432h1M637 432h1M639 432h1M641 432h1M643 432h19M852 432h1M854 432h1M856 432h1M858 432h24M883 432h6M454 433h2M460 433h9M474 433h7M483 433h1M485 433h1M487 433h1M489 433h23M514 433h1M516 433h1M522 433h4M529 433h3M534 433h1M539 433h1M541 433h1M543 433h1M545 433h25M636 433h1M638 433h1M640 433h20M853 433h1M855 433h1M857 433h1M859 433h32M98 434h51M445 434h6M453 434h1M455 434h1M460 434h9M474 434h7M482 434h1M484 434h1M486 434h1M488 434h1M490 434h1M492 434h1M494 434h1M496 434h1M498 434h1M500 434h1M502 434h1M504 434h1M506 434h1M508 434h1M510 434h1M515 434h1M522 434h4M529 434h3M533 434h1M540 434h1M542 434h1M544 434h1M546 434h1M548 434h21M637 434h1M639 434h1M641 434h17M854 434h1M856 434h1M858 434h31M890 434h3M65 435h98M429 435h21M452 435h1M454 435h1M460 435h2M463 435h1M465 435h1M467 435h2M475 435h1M477 435h1M479 435h1M489 435h1M491 435h1M493 435h1M495 435h17M522 435h4M529 435h2M532 435h1M534 435h1M541 435h1M543 435h1M545 435h1M547 435h1M549 435h11M638 435h1M640 435h16M853 435h1M855 435h1M857 435h38M41 436h138M410 436h24M442 436h6M453 436h1M455 436h1M457 436h1M462 436h5M474 436h1M476 436h1M478 436h1M480 436h1M484 436h2M490 436h1M492 436h1M494 436h1M496 436h1M498 436h1M500 436h1M502 436h9M533 436h1M639 436h1M641 436h14M854 436h1M856 436h43M951 436h9M41 437h154M395 437h38M434 437h1M442 437h5M454 437h1M456 437h1M463 437h3M489 437h1M491 437h1M493 437h1M495 437h1M497 437h1M499 437h1M501 437h1M503 437h1M505 437h1M507 437h1M509 437h1M511 437h1M532 437h1M534 437h1M640 437h1M642 437h1M644 437h1M646 437h1M648 437h1M650 437h1M652 437h1M851 437h1M853 437h1M855 437h1M857 437h47M951 437h9M18 438h189M380 438h51M442 438h4M447 438h1M455 438h1M457 438h1M490 438h1M492 438h1M494 438h1M496 438h1M498 438h1M500 438h1M502 438h1M504 438h1M506 438h1M508 438h1M641 438h1M643 438h1M645 438h1M647 438h1M649 438h1M651 438h1M852 438h1M854 438h1M856 438h1M858 438h52M928 438h32M0 439h233M365 439h65M454 439h1M456 439h1M495 439h1M497 439h1M499 439h1M851 439h1M853 439h1M855 439h1M857 439h103M0 440h232M233 440h195M850 440h1M852 440h1M854 440h1M856 440h1M858 440h1M860 440h100M0 441h214M216 441h26M339 441h58M849 441h1M851 441h1M853 441h1M855 441h1M857 441h1M859 441h1M861 441h99M0 442h217M850 442h1M852 442h1M854 442h1M856 442h1M858 442h1M860 442h1M862 442h1M864 442h1M866 442h94M0 443h202M850 443h2M853 443h1M855 443h1M857 443h1M859 443h1M861 443h1M863 443h1M865 443h1M867 443h1M869 443h91M0 444h181M182 444h1M184 444h1M852 444h1M854 444h1M856 444h1M858 444h1M860 444h1M862 444h1M864 444h1M866 444h1M868 444h1M870 444h1M872 444h88M0 445h170M171 445h1M173 445h1M175 445h1M177 445h1M179 445h1M181 445h1M861 445h1M863 445h1M865 445h1M867 445h1M869 445h1M871 445h1M873 445h1M875 445h1M877 445h1M879 445h1M881 445h1M883 445h77M0 446h167M168 446h1M170 446h1M172 446h1M174 446h1M176 446h1M178 446h1M870 446h1M872 446h1M874 446h1M876 446h1M878 446h1M880 446h1M882 446h1M884 446h17M902 446h58M0 447h166M167 447h1M169 447h1M171 447h1M883 447h1M885 447h1M887 447h1M889 447h1M891 447h1M893 447h12M906 447h54M0 448h73M74 448h1M76 448h1M78 448h1M80 448h83M164 448h1M166 448h1M168 448h1M170 448h1M896 448h64M79 449h1M81 449h1M83 449h1M85 449h1M87 449h1M89 449h1M91 449h1M93 449h1M95 449h1M97 449h65M163 449h1M165 449h1M167 449h1M90 450h1M92 450h1M94 450h1M96 450h1M98 450h1M100 450h1M102 450h1M104 450h1M106 450h1M108 450h1M110 450h1M112 450h1M114 450h1M116 450h1M118 450h41M160 450h1M162 450h1M93 451h1M95 451h1M97 451h1M99 451h1M101 451h1M103 451h1M105 451h1M107 451h1M109 451h1M111 451h1M113 451h1M115 451h1M117 451h1M119 451h1M121 451h1M123 451h1M125 451h1M127 451h1M129 451h1M131 451h1M133 451h1M135 451h1M137 451h1M139 451h1M141 451h1M143 451h1M145 451h1M147 451h1M149 451h1M151 451h1M153 451h1M155 451h1M157 451h1M159 451h1M161 451h1" />
<path stroke="#cf5697" d="M712 415h23M709 416h84M706 417h101M703 418h112M700 419h120M697 420h127M694 421h134M691 422h141M687 423h148M684 424h154M682 425h159M678 426h166M675 427h171M672 428h119M829 428h19M849 428h1M669 429h104M840 429h6M847 429h2M850 429h1M666 430h101M842 430h1M844 430h1M846 430h1M848 430h2M851 430h1M664 431h96M843 431h1M845 431h1M847 431h1M849 431h2M852 431h1M563 432h1M662 432h90M846 432h1M848 432h1M850 432h2M853 432h1M660 433h87M849 433h1M851 433h2M854 433h1M658 434h83M850 434h1M852 434h1M855 434h1M560 435h15M656 435h78M851 435h1M655 436h73M852 436h1M551 437h44M598 437h4M649 437h1M651 437h1M653 437h69M543 438h61M652 438h64M717 438h1M541 439h63M646 439h1M648 439h1M650 439h1M652 439h1M654 439h1M656 439h1M658 439h1M660 439h1M662 439h1M664 439h1M666 439h1M668 439h1M670 439h1M672 439h1M674 439h1M676 439h1M678 439h1M680 439h1M682 439h1M684 439h1M686 439h1M688 439h1M690 439h1M692 439h21M714 439h1M716 439h1M551 440h54M606 440h1M647 440h1M649 440h1M651 440h1M653 440h1M655 440h1M657 440h1M659 440h1M683 440h1M685 440h1M687 440h1M689 440h1M691 440h1M693 440h1M695 440h1M697 440h7M705 440h1M707 440h1M709 440h1M711 440h1M713 440h1M562 441h40M603 441h1M605 441h1M607 441h1M648 441h1M650 441h1M652 441h1M654 441h1M690 441h1M692 441h1M694 441h1M696 441h1M698 441h1M700 441h1M702 441h1M704 441h1M706 441h1M708 441h1M710 441h1M570 442h31M602 442h1M604 442h1M606 442h1M649 442h1M651 442h1M687 442h1M689 442h1M691 442h1M693 442h1M695 442h1M697 442h1M699 442h1M701 442h1M703 442h1M705 442h1M578 443h1M580 443h16M597 443h1M599 443h1M601 443h1M603 443h1M605 443h1M684 443h1M686 443h1M688 443h1M690 443h1M692 443h1M694 443h1M579 444h1M581 444h1M583 444h1M585 444h1M587 444h1M589 444h1M591 444h4M596 444h1M598 444h1M600 444h1M683 444h1M685 444h1M687 444h1M689 444h1M691 444h1M584 445h1M586 445h1M588 445h1M590 445h1M592 445h1M594 445h1M680 445h1M682 445h1M684 445h1M686 445h1M688 445h1M587 446h1M589 446h1M591 446h1M593 446h1M592 447h1M594 447h1M596 447h1M595 448h1M597 448h1M598 449h1" />
<path stroke="#992874" d="M668 421h14M458 422h4M521 422h1M668 422h14M456 423h1M458 423h4M520 423h2M668 423h3M672 423h1M674 423h1M676 423h1M678 423h4M457 424h4M462 424h1M520 424h2M535 424h2M668 424h14M456 425h1M458 425h4M469 425h1M520 425h2M535 425h2M668 425h3M672 425h1M674 425h1M676 425h1M678 425h4M456 426h5M462 426h1M469 426h1M520 426h2M535 426h2M664 426h14M456 427h4M461 427h1M469 427h1M520 427h2M535 427h2M664 427h11M454 428h7M469 428h1M520 428h2M535 428h2M664 428h8M454 429h8M469 429h1M482 429h1M515 429h1M517 429h1M519 429h3M532 429h1M534 429h3M664 429h5M454 430h7M469 430h2M481 430h1M483 430h1M485 430h1M514 430h1M516 430h1M518 430h8M531 430h1M533 430h4M664 430h2M454 431h7M469 431h2M481 431h2M484 431h1M488 431h1M490 431h1M492 431h1M513 431h1M515 431h1M517 431h9M530 431h1M532 431h1M534 431h3M456 432h4M469 432h2M481 432h1M483 432h1M485 432h1M487 432h1M512 432h1M514 432h1M516 432h11M531 432h1M533 432h5M451 433h1M456 433h4M469 433h5M481 433h2M484 433h1M486 433h1M488 433h1M512 433h2M515 433h1M517 433h5M526 433h3M532 433h2M535 433h4M540 433h1M542 433h1M544 433h1M451 434h2M454 434h1M456 434h4M469 434h5M481 434h1M483 434h1M485 434h1M487 434h1M489 434h1M491 434h1M493 434h1M495 434h1M497 434h1M499 434h1M501 434h1M503 434h1M505 434h1M507 434h1M509 434h1M511 434h4M516 434h6M526 434h3M532 434h1M534 434h6M541 434h1M543 434h1M545 434h1M547 434h1M450 435h2M453 435h1M455 435h5M462 435h1M464 435h1M466 435h1M469 435h6M476 435h1M478 435h1M480 435h9M490 435h1M492 435h1M494 435h1M512 435h10M526 435h3M531 435h1M533 435h1M535 435h6M542 435h1M544 435h1M546 435h1M548 435h1M434 436h8M448 436h5M454 436h1M456 436h1M458 436h4M467 436h7M475 436h1M477 436h1M479 436h1M481 436h3M486 436h4M491 436h1M493 436h1M495 436h1M497 436h1M499 436h1M501 436h1M511 436h22M534 436h15M433 437h1M435 437h7M447 437h7M455 437h1M457 437h6M466 437h23M490 437h1M492 437h1M494 437h1M496 437h1M498 437h1M500 437h1M502 437h1M504 437h1M506 437h1M508 437h1M510 437h1M512 437h20M533 437h1M535 437h7M431 438h11M446 438h1M448 438h7M456 438h1M458 438h32M491 438h1M493 438h1M495 438h1M497 438h1M499 438h1M501 438h1M503 438h1M505 438h1M507 438h1M509 438h31M430 439h24M455 439h1M457 439h38M496 439h1M498 439h1M500 439h37M428 440h2M435 440h20M456 440h1M458 440h44M435 441h55" />
<path stroke="#7e408d" d="M603 424h12M616 424h1M618 424h1M620 424h1M622 424h1M624 424h1M626 424h1M594 425h26M621 425h1M623 425h1M625 425h1M627 425h1M591 426h34M626 426h1M628 426h1M630 426h1M632 426h1M634 426h1M636 426h1M588 427h40M629 427h1M631 427h1M633 427h1M635 427h1M637 427h1M639 427h1M848 427h1M585 428h46M632 428h1M634 428h1M636 428h1M851 428h1M582 429h52M635 429h1M637 429h1M852 429h1M854 429h1M579 430h56M636 430h1M638 430h1M853 430h1M855 430h1M576 431h60M637 431h1M639 431h1M854 431h1M856 431h1M870 431h4M573 432h61M635 432h2M638 432h1M640 432h1M642 432h1M855 432h1M857 432h1M882 432h1M570 433h66M637 433h1M639 433h1M856 433h1M858 433h1M569 434h68M638 434h1M640 434h1M857 434h1M889 434h1M575 435h63M639 435h1M856 435h1M598 436h41M640 436h1M602 437h38M641 437h1M643 437h1M645 437h1M647 437h1M604 438h37M642 438h1M644 438h1M646 438h1M648 438h1M650 438h1M604 439h38M643 439h1M645 439h1M647 439h1M649 439h1M651 439h1M653 439h1M655 439h1M657 439h1M659 439h1M661 439h1M663 439h1M665 439h1M667 439h1M669 439h1M671 439h1M673 439h1M675 439h1M677 439h1M679 439h1M681 439h1M683 439h1M685 439h1M687 439h1M689 439h1M691 439h1M605 440h1M607 440h36M644 440h1M646 440h1M648 440h1M650 440h1M652 440h1M654 440h1M656 440h1M658 440h1M660 440h23M684 440h1M686 440h1M688 440h1M690 440h1M692 440h1M694 440h1M696 440h1M602 441h1M604 441h1M606 441h1M608 441h36M645 441h1M647 441h1M649 441h1M651 441h1M653 441h1M655 441h35M691 441h1M693 441h1M695 441h1M697 441h1M699 441h1M701 441h1M601 442h1M603 442h1M605 442h1M607 442h38M646 442h1M648 442h1M650 442h1M652 442h35M688 442h1M690 442h1M692 442h1M694 442h1M696 442h1M698 442h1M700 442h1M596 443h1M598 443h1M600 443h1M602 443h1M604 443h1M606 443h78M685 443h1M687 443h1M689 443h1M691 443h1M693 443h1M595 444h1M597 444h1M599 444h1M601 444h82M684 444h1M686 444h1M170 445h1M596 445h1M598 445h1M600 445h80M882 445h1M595 446h1M597 446h1M599 446h74M901 446h1M598 447h1M600 447h69M886 447h1M888 447h1M890 447h1M892 447h1M905 447h1M599 448h1M601 448h1M603 448h61M600 449h1M602 449h1M604 449h1M606 449h53M699 449h1M701 449h1M703 449h1M705 449h1M707 449h1M709 449h1M711 449h1M713 449h1M715 449h1M717 449h1M719 449h1M721 449h1M723 449h1M725 449h1M727 449h1M729 449h1M601 450h1M603 450h1M605 450h1M607 450h1M609 450h1M611 450h1M613 450h1M615 450h1M617 450h1M619 450h1M621 450h1M623 450h1M625 450h1M627 450h28M692 450h1M694 450h1M696 450h1M698 450h1M700 450h1M702 450h1M704 450h1M706 450h1M708 450h1M710 450h1M712 450h1M714 450h22M630 451h21M691 451h1M693 451h1M695 451h1M697 451h1M699 451h1M701 451h1M703 451h1M705 451h1M707 451h1M709 451h40M750 451h1M752 451h1M754 451h1M628 452h1M688 452h1M690 452h1M692 452h1M694 452h1M696 452h1M698 452h1M700 452h1M702 452h48M751 452h1M753 452h1M755 452h1M757 452h1M759 452h1M761 452h1M687 453h1M689 453h1M691 453h1M693 453h1M695 453h1M697 453h1M699 453h56M756 453h1M758 453h1M760 453h1M762 453h1M764 453h1M766 453h1M768 453h1M686 454h1M688 454h1M690 454h1M692 454h1M694 454h1M696 454h62M759 454h1M761 454h1M763 454h1M765 454h1M767 454h1M769 454h1M685 455h1M687 455h1M689 455h1M691 455h1M693 455h68M762 455h1M764 455h1M766 455h1M768 455h1M770 455h1M43 456h67M477 456h42M684 456h1M686 456h1M688 456h1M690 456h1M692 456h72M765 456h1M767 456h1M769 456h1M771 456h1M947 456h13M44 457h103M473 457h83M683 457h1M685 457h1M687 457h1M689 457h76M766 457h1M768 457h1M770 457h1M772 457h1M943 457h17M44 458h131M469 458h118M588 458h1M682 458h1M684 458h1M686 458h26M739 458h27M767 458h1M769 458h1M771 458h1M773 458h1M939 458h21M45 459h150M466 459h124M591 459h1M681 459h1M683 459h1M685 459h18M742 459h25M768 459h1M770 459h1M772 459h1M935 459h25M45 460h182M284 460h66M463 460h128M592 460h1M594 460h1M596 460h1M680 460h1M682 460h16M746 460h20M767 460h1M769 460h1M771 460h1M931 460h29M46 461h297M460 461h20M518 461h76M595 461h1M597 461h1M599 461h1M679 461h1M681 461h13M747 461h18M766 461h1M768 461h1M770 461h1M927 461h33M46 462h281M458 462h19M522 462h77M600 462h1M680 462h13M749 462h13M763 462h1M765 462h1M767 462h1M906 462h10M924 462h36M47 463h265M530 463h66M597 463h1M599 463h1M679 463h14M749 463h10M760 463h1M762 463h1M764 463h1M902 463h10M916 463h44M47 464h240M535 464h62M598 464h1M678 464h18M748 464h8M757 464h1M759 464h1M761 464h1M898 464h13M913 464h47M47 465h229M539 465h55M595 465h1M597 465h1M677 465h20M744 465h11M756 465h1M758 465h1M894 465h66M48 466h220M539 466h50M590 466h1M592 466h1M594 466h1M596 466h1M676 466h26M741 466h13M755 466h1M891 466h69M48 467h113M195 467h64M543 467h42M587 467h1M589 467h1M591 467h1M593 467h1M595 467h1M675 467h78M887 467h73M48 468h93M228 468h24M545 468h36M674 468h75M882 468h78M48 469h96M543 469h33M671 469h1M673 469h73M877 469h83M48 470h102M539 470h33M668 470h1M670 470h1M672 470h71M872 470h88M49 471h107M535 471h33M667 471h1M669 471h1M671 471h69M864 471h96M49 472h114M528 472h34M664 472h1M666 472h1M668 472h1M670 472h67M855 472h105M49 473h126M528 473h33M663 473h1M665 473h1M667 473h1M669 473h65M805 473h155M49 474h136M527 474h29M659 474h1M661 474h1M663 474h68M777 474h183M49 475h154M527 475h28M658 475h1M660 475h1M662 475h298M49 476h156M526 476h26M655 476h1M657 476h1M659 476h301M49 477h148M525 477h27M647 477h313M49 478h145M525 478h1M527 478h1M529 478h431M49 479h141M324 479h3M526 479h1M528 479h1M530 479h430M49 480h120M525 480h1M527 480h1M529 480h431M49 481h122M177 481h1M185 481h1M187 481h1M189 481h1M191 481h1M193 481h1M195 481h1M522 481h1M524 481h1M526 481h1M528 481h432M49 482h122M176 482h1M178 482h1M180 482h1M182 482h1M184 482h1M521 482h1M523 482h1M525 482h1M527 482h433M48 483h124M520 483h1M522 483h1M524 483h436M48 484h126M519 484h1M521 484h439M48 485h127M518 485h1M520 485h1M522 485h438M48 486h127M624 486h336M48 487h129M625 487h335M47 488h69M170 488h9M626 488h334M47 489h47M807 489h153M808 490h152M809 491h151M834 492h47M835 493h45M0 504h7M830 504h1M832 504h1M834 504h1M836 504h1M838 504h1M840 504h1M842 504h1M844 504h1M846 504h1M848 504h1M850 504h1M852 504h1M854 504h1M856 504h1M877 504h1M879 504h1M881 504h39M950 504h1M952 504h8M829 505h1M831 505h1M833 505h1M835 505h1M837 505h1M839 505h1M841 505h1M843 505h1M845 505h1M847 505h1M849 505h1M851 505h1M853 505h1M855 505h1M857 505h1M859 505h1M878 505h1M880 505h40M949 505h1M951 505h9M828 506h1M830 506h1M832 506h1M834 506h1M836 506h1M838 506h1M840 506h1M842 506h1M844 506h1M846 506h1M848 506h1M850 506h1M852 506h1M854 506h1M856 506h1M858 506h1M881 506h39M950 506h10M881 507h39M949 507h11M881 508h79M881 509h79M891 510h69M0 511h3M891 511h69M891 512h44M955 512h5M891 513h44M955 513h5M891 514h44" />
<path stroke="#b347b0" d="M791 428h38M773 429h67M846 429h1M767 430h75M843 430h1M845 430h1M847 430h1M760 431h83M844 431h1M846 431h1M848 431h1M752 432h94M847 432h1M849 432h1M747 433h102M850 433h1M741 434h109M851 434h1M853 434h1M734 435h117M852 435h1M854 435h1M549 436h49M728 436h124M853 436h1M855 436h1M542 437h9M595 437h3M722 437h129M852 437h1M854 437h1M856 437h1M207 438h1M540 438h3M716 438h1M718 438h134M853 438h1M855 438h1M857 438h1M537 439h4M642 439h1M644 439h1M713 439h1M715 439h1M717 439h134M852 439h1M854 439h1M856 439h1M232 440h1M430 440h5M455 440h1M457 440h1M502 440h49M643 440h1M645 440h1M704 440h1M706 440h1M708 440h1M710 440h1M712 440h1M714 440h136M851 440h1M853 440h1M855 440h1M857 440h1M859 440h1M214 441h2M242 441h97M397 441h38M490 441h72M644 441h1M646 441h1M703 441h1M705 441h1M707 441h1M709 441h1M711 441h138M850 441h1M852 441h1M854 441h1M856 441h1M858 441h1M860 441h1M217 442h353M645 442h1M647 442h1M702 442h1M704 442h1M706 442h144M851 442h1M853 442h1M855 442h1M857 442h1M859 442h1M861 442h1M863 442h1M865 442h1M202 443h376M579 443h1M695 443h155M852 443h1M854 443h1M856 443h1M858 443h1M860 443h1M862 443h1M864 443h1M866 443h1M868 443h1M202 444h377M580 444h1M582 444h1M584 444h1M586 444h1M588 444h1M590 444h1M688 444h1M690 444h1M692 444h160M853 444h1M855 444h1M857 444h1M859 444h1M861 444h1M863 444h1M865 444h1M867 444h1M869 444h1M871 444h1M201 445h383M585 445h1M587 445h1M589 445h1M591 445h1M593 445h1M595 445h1M597 445h1M599 445h1M681 445h1M683 445h1M685 445h1M687 445h1M689 445h172M862 445h1M864 445h1M866 445h1M868 445h1M870 445h1M872 445h1M874 445h1M876 445h1M878 445h1M880 445h1M201 446h386M588 446h1M590 446h1M592 446h1M594 446h1M596 446h1M598 446h1M673 446h197M871 446h1M873 446h1M875 446h1M877 446h1M879 446h1M881 446h1M883 446h1M200 447h392M593 447h1M595 447h1M597 447h1M599 447h1M669 447h214M884 447h1M200 448h395M596 448h1M598 448h1M600 448h1M602 448h1M664 448h232M199 449h399M599 449h1M601 449h1M603 449h1M605 449h1M659 449h40M700 449h1M702 449h1M704 449h1M706 449h1M708 449h1M710 449h1M712 449h1M714 449h1M716 449h1M718 449h1M720 449h1M722 449h1M724 449h1M726 449h1M728 449h1M730 449h230M199 450h402M602 450h1M604 450h1M606 450h1M608 450h1M610 450h1M612 450h1M614 450h1M616 450h1M618 450h1M620 450h1M622 450h1M624 450h1M626 450h1M655 450h37M693 450h1M695 450h1M697 450h1M699 450h1M701 450h1M703 450h1M705 450h1M707 450h1M709 450h1M711 450h1M713 450h1M736 450h224M198 451h432M651 451h40M692 451h1M694 451h1M696 451h1M698 451h1M700 451h1M702 451h1M704 451h1M706 451h1M708 451h1M749 451h1M751 451h1M753 451h1M755 451h205M198 452h430M629 452h59M689 452h1M691 452h1M693 452h1M695 452h1M697 452h1M699 452h1M701 452h1M750 452h1M752 452h1M754 452h1M756 452h1M758 452h1M760 452h1M762 452h198M197 453h490M688 453h1M690 453h1M692 453h1M694 453h1M696 453h1M698 453h1M755 453h1M757 453h1M759 453h1M761 453h1M763 453h1M765 453h1M767 453h1M769 453h191M196 454h490M687 454h1M689 454h1M691 454h1M693 454h1M695 454h1M758 454h1M760 454h1M762 454h1M764 454h1M766 454h1M768 454h1M770 454h190M196 455h489M686 455h1M688 455h1M690 455h1M692 455h1M761 455h1M763 455h1M765 455h1M767 455h1M769 455h1M771 455h189M195 456h282M519 456h165M685 456h1M687 456h1M689 456h1M691 456h1M764 456h1M766 456h1M768 456h1M770 456h1M772 456h175M194 457h279M556 457h127M684 457h1M686 457h1M688 457h1M765 457h1M767 457h1M769 457h1M771 457h1M773 457h170M193 458h276M587 458h1M589 458h93M683 458h1M685 458h1M712 458h27M766 458h1M768 458h1M770 458h1M772 458h1M774 458h165M195 459h271M590 459h1M592 459h89M682 459h1M684 459h1M703 459h39M767 459h1M769 459h1M771 459h1M773 459h162M227 460h57M350 460h113M591 460h1M593 460h1M595 460h1M597 460h83M681 460h1M698 460h48M766 460h1M768 460h1M770 460h1M772 460h159M343 461h117M480 461h38M594 461h1M596 461h1M598 461h1M600 461h79M680 461h1M694 461h53M765 461h1M767 461h1M769 461h1M771 461h156M327 462h131M477 462h45M599 462h1M601 462h79M693 462h56M762 462h1M764 462h1M766 462h1M768 462h138M916 462h8M312 463h218M596 463h1M598 463h1M600 463h79M693 463h56M759 463h1M761 463h1M763 463h1M765 463h137M912 463h4M287 464h248M597 464h1M599 464h79M696 464h52M756 464h1M758 464h1M760 464h1M762 464h136M911 464h2M276 465h263M594 465h1M596 465h1M598 465h79M697 465h47M755 465h1M757 465h1M759 465h135M268 466h271M589 466h1M591 466h1M593 466h1M595 466h1M597 466h79M702 466h39M754 466h1M756 466h135M180 467h15M259 467h284M585 467h2M588 467h1M590 467h1M592 467h1M594 467h1M596 467h79M753 467h134M178 468h50M252 468h293M581 468h93M749 468h133M175 469h368M576 469h95M672 469h1M746 469h131M170 470h369M572 470h96M669 470h1M671 470h1M743 470h129M166 471h369M568 471h99M668 471h1M670 471h1M740 471h124M164 472h364M562 472h102M665 472h1M667 472h1M669 472h1M737 472h118M175 473h353M561 473h102M664 473h1M666 473h1M668 473h1M734 473h71M185 474h342M556 474h103M660 474h1M662 474h1M731 474h46M203 475h324M555 475h103M659 475h1M661 475h1M205 476h321M552 476h103M656 476h1M658 476h1M197 477h328M552 477h95M194 478h331M190 479h134M327 479h199M169 480h356M171 481h6M178 481h7M186 481h1M188 481h1M190 481h1M192 481h1M194 481h1M196 481h326M523 481h1M171 482h5M177 482h1M179 482h1M181 482h1M183 482h1M185 482h336M172 483h348M174 484h345M175 485h343M175 486h330M177 487h327M179 488h136M392 488h111M473 489h14" />
<path stroke="#cd5f96" d="M426 432h30M460 432h2M408 433h43M452 433h2M407 434h38M385 435h44M384 436h26M368 437h27M367 438h13M337 439h28" />
<path stroke="#b448b1" d="M197 437h1M181 444h1M183 444h1M185 444h17M172 445h1M174 445h1M176 445h1M178 445h1M180 445h1M182 445h19M167 446h1M169 446h1M171 446h1M173 446h1M175 446h1M177 446h1M179 446h22M166 447h1M168 447h1M170 447h1M172 447h28M73 448h1M75 448h1M77 448h1M79 448h1M163 448h1M165 448h1M167 448h1M169 448h1M171 448h29M0 449h79M80 449h1M82 449h1M84 449h1M86 449h1M88 449h1M90 449h1M92 449h1M94 449h1M96 449h1M162 449h1M164 449h1M166 449h1M168 449h31M0 450h90M91 450h1M93 450h1M95 450h1M97 450h1M99 450h1M101 450h1M103 450h1M105 450h1M107 450h1M109 450h1M111 450h1M113 450h1M115 450h1M117 450h1M159 450h1M161 450h1M163 450h36M0 451h93M94 451h1M96 451h1M98 451h1M100 451h1M102 451h1M104 451h1M106 451h1M108 451h1M110 451h1M112 451h1M114 451h1M116 451h1M118 451h1M120 451h1M122 451h1M124 451h1M126 451h1M128 451h1M130 451h1M132 451h1M134 451h1M136 451h1M138 451h1M140 451h1M142 451h1M144 451h1M146 451h1M148 451h1M150 451h1M152 451h1M154 451h1M156 451h1M158 451h1M160 451h1M162 451h36M0 452h198M0 453h197M0 454h196M0 455h196M0 456h37M110 456h85M0 457h33M147 457h47M0 458h29M175 458h18M0 459h25M0 460h21M0 461h17M161 467h19M141 468h37M144 469h31M150 470h20M156 471h10M163 472h1" />
<path stroke="#7f418e" d="M37 456h6M33 457h11M29 458h15M25 459h20M21 460h24M17 461h29M0 462h46M0 463h47M0 464h47M0 465h47M0 466h48M0 467h48M0 468h48M0 469h48M0 470h48M0 471h49M0 472h49M0 473h49M0 474h49M0 475h49M0 476h49M0 477h49M0 478h49M0 479h49M0 480h49M0 481h49M0 482h49M0 483h48M0 484h48M0 485h48M0 486h48M0 487h48M0 488h26M45 488h2M0 489h20M46 489h1M0 490h16M0 491h11M0 503h8M7 504h6M0 505h16M0 506h20M0 507h23M24 507h1M0 508h22M23 508h1M25 508h1M0 509h23M24 509h1M0 510h20M3 511h7" />
<path stroke="#847d82" d="M526 478h1M528 478h1M527 479h1M529 479h1M526 480h1M528 480h1M525 481h1M527 481h1M522 482h1M524 482h1M526 482h1M521 483h1M523 483h1M520 484h1M519 485h1M521 485h1" />
<path stroke="#3f005e" d="M505 486h119M504 487h121M26 488h19M116 488h54M315 488h77M503 488h123M20 489h26M94 489h379M487 489h320M16 490h792M11 491h798M0 492h834M881 492h79M0 493h835M880 493h80M0 494h960M0 495h960M0 496h960M0 497h960M0 498h960M0 499h960M0 500h282M309 500h651M0 501h282M349 501h195M595 501h365M0 502h126M127 502h155M349 502h36M386 502h158M595 502h365M8 503h118M127 503h155M349 503h36M386 503h158M625 503h335M13 504h113M127 504h110M383 504h1M385 504h48M482 504h29M625 504h205M831 504h1M833 504h1M835 504h1M837 504h1M839 504h1M841 504h1M843 504h1M845 504h1M847 504h1M849 504h1M851 504h1M853 504h1M855 504h1M857 504h20M878 504h1M880 504h1M920 504h30M951 504h1M16 505h110M127 505h110M383 505h1M385 505h1M387 505h25M424 505h9M482 505h29M625 505h204M830 505h1M832 505h1M834 505h1M836 505h1M838 505h1M840 505h1M842 505h1M844 505h1M846 505h1M848 505h1M850 505h1M852 505h1M854 505h1M856 505h1M858 505h1M860 505h18M879 505h1M920 505h29M950 505h1M20 506h106M127 506h32M161 506h76M383 506h1M385 506h1M387 506h25M482 506h29M643 506h185M829 506h1M831 506h1M833 506h1M835 506h1M837 506h1M839 506h1M841 506h1M843 506h1M845 506h1M847 506h1M849 506h1M851 506h1M853 506h1M855 506h1M857 506h1M859 506h22M920 506h30M23 507h1M25 507h101M127 507h32M161 507h102M383 507h1M387 507h4M392 507h6M399 507h13M482 507h29M643 507h238M920 507h29M22 508h1M24 508h1M26 508h98M125 508h1M127 508h28M157 508h2M161 508h102M644 508h237M23 509h1M25 509h99M125 509h1M127 509h28M157 509h2M162 509h2M165 509h98M644 509h237M20 510h101M122 510h2M125 510h1M127 510h4M132 510h4M138 510h3M142 510h11M154 510h1M157 510h2M160 510h1M162 510h2M165 510h98M658 510h233M10 511h111M122 511h1M125 511h1M127 511h4M132 511h4M138 511h3M142 511h8M151 511h4M157 511h2M162 511h2M165 511h121M290 511h5M297 511h3M301 511h1M303 511h2M308 511h1M310 511h25M658 511h41M700 511h78M779 511h112M0 512h119M120 512h1M122 512h1M125 512h1M127 512h4M132 512h4M138 512h3M142 512h4M148 512h2M152 512h3M157 512h2M162 512h1M165 512h121M290 512h5M297 512h3M303 512h2M308 512h1M310 512h25M368 512h11M386 512h1M388 512h3M392 512h3M396 512h2M400 512h1M402 512h1M405 512h7M496 512h1M498 512h21M520 512h4M558 512h58M658 512h33M692 512h7M700 512h78M779 512h53M837 512h54M935 512h20M0 513h119M120 513h1M122 513h1M125 513h1M128 513h3M132 513h4M139 513h2M142 513h5M148 513h3M154 513h1M157 513h2M162 513h1M165 513h121M290 513h2M308 513h27M368 513h7M376 513h3M386 513h1M388 513h3M393 513h2M396 513h2M399 513h2M402 513h1M496 513h1M498 513h21M520 513h4M558 513h58M658 513h22M681 513h4M686 513h2M692 513h7M700 513h75M776 513h1M778 513h53M839 513h52M935 513h20M0 514h119M120 514h1M122 514h1M125 514h1M128 514h2M134 514h2M139 514h2M142 514h7M151 514h1M154 514h1M157 514h2M162 514h1M165 514h159M347 514h25M373 514h3M377 514h2M386 514h1M388 514h3M393 514h2M396 514h2M399 514h2M402 514h1M405 514h52M459 514h2M464 514h8M476 514h1M478 514h19M498 514h21M520 514h23M570 514h108M679 514h1M681 514h7M690 514h9M700 514h73M774 514h1M776 514h1M778 514h1M780 514h50M841 514h50M935 514h25M0 515h120M124 515h1M128 515h2M134 515h2M142 515h9M152 515h1M157 515h2M161 515h1M165 515h2M168 515h156M347 515h25M374 515h1M377 515h2M383 515h1M386 515h1M388 515h3M392 515h1M394 515h1M396 515h2M399 515h2M402 515h1M405 515h52M459 515h2M464 515h8M473 515h4M478 515h19M498 515h21M520 515h23M570 515h108M679 515h1M681 515h6M690 515h1M692 515h6M700 515h69M770 515h3M774 515h1M776 515h1M778 515h1M780 515h49M842 515h118M0 516h120M122 516h3M134 516h2M142 516h8M151 516h1M153 516h1M157 516h1M166 516h1M168 516h156M347 516h26M374 516h1M378 516h1M383 516h1M388 516h3M392 516h1M394 516h1M396 516h2M399 516h2M402 516h1M405 516h52M459 516h2M463 516h6M470 516h2M473 516h4M478 516h19M498 516h21M520 516h23M570 516h108M679 516h1M681 516h7M690 516h2M693 516h2M696 516h2M700 516h73M774 516h1M776 516h1M780 516h4M785 516h6M792 516h36M843 516h117M0 517h122M137 517h1M142 517h5M168 517h204M396 517h2M405 517h53M459 517h2M463 517h6M470 517h2M473 517h4M478 517h16M495 517h2M498 517h19M518 517h1M520 517h28M550 517h2M554 517h124M679 517h1M681 517h7M691 517h1M693 517h2M696 517h2M700 517h2M703 517h70M775 517h2M781 517h3M785 517h6M792 517h33M844 517h116M0 518h151M170 518h195M366 518h89M456 518h2M459 518h2M463 518h1M465 518h4M470 518h2M473 518h4M478 518h1M480 518h14M495 518h2M499 518h18M518 518h1M520 518h28M550 518h2M555 518h2M558 518h120M679 518h1M683 518h5M690 518h3M694 518h1M696 518h2M700 518h2M703 518h67M772 518h1M775 518h2M779 518h1M781 518h3M785 518h6M792 518h31M845 518h11M859 518h101M0 519h455M456 519h2M459 519h2M463 519h1M465 519h4M470 519h2M473 519h4M478 519h1M480 519h11M492 519h2M495 519h2M499 519h1M501 519h13M515 519h2M518 519h1M520 519h4M525 519h4M531 519h3M535 519h11M547 519h1M550 519h2M553 519h1M555 519h2M558 519h119M679 519h1M683 519h5M690 519h3M694 519h1M696 519h2M701 519h1M703 519h68M776 519h1M779 519h1M781 519h3M785 519h6M792 519h4M797 519h24M846 519h10M857 519h33M891 519h69M0 520h455M456 520h2M463 520h1M465 520h4M471 520h1M473 520h4M478 520h1M480 520h11M492 520h2M495 520h2M499 520h1M501 520h13M515 520h1M518 520h1M520 520h4M525 520h4M531 520h3M535 520h8M544 520h4M550 520h2M555 520h2M558 520h121M683 520h5M690 520h3M694 520h1M696 520h2M701 520h1M703 520h63M767 520h5M779 520h1M781 520h3M785 520h6M792 520h2M795 520h1M797 520h22M847 520h9M857 520h33M891 520h69M0 521h455M456 521h2M463 521h1M465 521h4M471 521h1M473 521h4M478 521h1M480 521h9M490 521h1M492 521h2M495 521h2M499 521h1M501 521h11M513 521h1M515 521h1M518 521h1M520 521h4M525 521h4M531 521h3M535 521h4M541 521h2M545 521h3M550 521h2M555 521h1M558 521h121M683 521h5M690 521h3M696 521h2M701 521h1M703 521h69M779 521h1M781 521h3M785 521h3M789 521h2M793 521h1M795 521h1M798 521h19M848 521h7M857 521h33M891 521h69M0 522h455M456 522h2M460 522h1M463 522h1M465 522h3M471 522h1M473 522h4M478 522h11M490 522h1M492 522h2M495 522h2M499 522h1M501 522h11M513 522h1M515 522h1M518 522h1M521 522h3M525 522h4M532 522h2M535 522h5M541 522h3M547 522h1M550 522h2M555 522h1M558 522h121M683 522h2M701 522h67M769 522h3M779 522h1M781 522h3M786 522h2M789 522h2M792 522h2M795 522h1M798 522h17M849 522h1M851 522h3M857 522h13M871 522h19M891 522h69M0 523h455M456 523h1M463 523h1M465 523h2M471 523h1M473 523h3M478 523h10M490 523h1M492 523h2M495 523h2M499 523h1M501 523h3M505 523h7M513 523h1M515 523h1M518 523h1M521 523h2M527 523h2M532 523h2M535 523h7M544 523h1M547 523h1M550 523h2M555 523h1M558 523h207M766 523h3M770 523h2M779 523h1M781 523h3M786 523h2M789 523h2M792 523h2M795 523h1M798 523h15M852 523h2M857 523h8M869 523h1M871 523h19M891 523h69M0 524h455M459 524h1M463 524h1M466 524h1M471 524h1M473 524h3M478 524h10M490 524h1M492 524h2M495 524h1M499 524h1M501 524h3M505 524h7M517 524h1M521 524h2M527 524h2M535 524h9M545 524h1M550 524h2M554 524h1M558 524h2M561 524h204M767 524h1M770 524h2M776 524h1M779 524h1M781 524h3M785 524h1M787 524h1M789 524h2M792 524h2M795 524h1M798 524h13M852 524h2M857 524h8M866 524h4M871 524h19M891 524h69M0 525h455M459 525h1M463 525h1M466 525h1M471 525h1M473 525h2M478 525h10M490 525h1M492 525h2M495 525h1M499 525h1M501 525h3M505 525h7M515 525h3M527 525h2M535 525h8M544 525h1M546 525h1M550 525h1M559 525h1M561 525h205M767 525h1M771 525h1M776 525h1M781 525h3M785 525h1M787 525h1M789 525h2M792 525h2M795 525h1M798 525h11M852 525h2M856 525h6M863 525h2M866 525h4M871 525h19M891 525h69M0 526h455M459 526h1M463 526h1M466 526h1M471 526h1M473 526h2M478 526h10M490 526h1M492 526h2M495 526h1M499 526h1M501 526h3M505 526h7M513 526h2M530 526h1M535 526h5M561 526h111M733 526h32M789 526h2M798 526h9M853 526h1M856 526h6M863 526h2M866 526h4M871 526h16M888 526h2M891 526h69M0 527h447M448 527h7M459 527h1M463 527h1M471 527h1M474 527h1M478 527h10M490 527h1M492 527h2M499 527h1M502 527h2M506 527h6M513 527h31M563 527h109M733 527h25M759 527h46M856 527h1M858 527h4M863 527h2M866 527h4M871 527h1M873 527h14M888 527h2M892 527h68M12 528h153M238 528h210M449 528h7M459 528h1M463 528h1M471 528h1M474 528h1M478 528h9M490 528h1M492 528h2M499 528h1M502 528h2M506 528h5M513 528h142M745 528h58M856 528h1M858 528h4M863 528h2M866 528h4M871 528h1M873 528h11M885 528h2M888 528h2M892 528h1M894 528h45M49 529h116M238 529h210M449 529h2M452 529h1M454 529h2M459 529h1M463 529h1M471 529h1M474 529h1M478 529h9M490 529h1M492 529h2M499 529h1M502 529h2M507 529h4M514 529h6M521 529h134M745 529h57M856 529h1M858 529h4M864 529h1M866 529h4M871 529h1M873 529h11M885 529h2M888 529h2M892 529h1M894 529h45M49 530h106M238 530h211M451 530h2M454 530h2M459 530h1M463 530h1M471 530h1M474 530h1M478 530h2M481 530h6M490 530h1M492 530h2M499 530h1M502 530h2M507 530h4M514 530h6M521 530h87M778 530h23M858 530h4M864 530h1M866 530h4M871 530h1M873 530h9M883 530h1M885 530h2M888 530h2M892 530h1M894 530h45M288 531h162M451 531h2M454 531h2M459 531h1M463 531h1M474 531h1M478 531h2M481 531h5M490 531h1M492 531h2M499 531h1M502 531h2M507 531h4M514 531h6M521 531h87M778 531h22M858 531h3M864 531h1M866 531h4M871 531h11M883 531h1M885 531h2M888 531h2M892 531h1M894 531h45M288 532h152M502 532h2M508 532h3M514 532h6M521 532h87M894 532h3M898 532h31M288 533h152M508 533h3M514 533h6M521 533h11M534 533h1M542 533h3M894 533h3M898 533h7M906 533h23M288 534h56M500 534h11M514 534h5M521 534h24M894 534h3M898 534h7M906 534h23M527 535h5M524 536h8M874 545h23M874 546h23M874 547h23M869 548h35M869 549h35M869 550h34M873 551h30M328 579h13M343 579h3M547 579h27M328 580h13M344 580h2M547 580h27M328 581h13M344 581h2M547 581h27M328 582h13M345 582h1M347 582h4M356 582h6M547 582h27M328 583h13M345 583h1M347 583h4M356 583h6M547 583h27M307 584h6M317 584h3M328 584h13M345 584h1M347 584h4M356 584h6M527 584h47M307 585h6M317 585h3M328 585h13M345 585h1M347 585h4M356 585h6M527 585h51M307 586h6M317 586h3M328 586h13M346 586h1M348 586h3M356 586h6M527 586h60M307 587h5M317 587h3M328 587h13M565 587h22" />
<path stroke="#1f0040" d="M282 500h27M282 501h67M544 501h51M282 502h24M307 502h42M544 502h51M282 503h16M299 503h7M307 503h42M544 503h81M237 504h50M288 504h4M293 504h2M299 504h7M307 504h75M433 504h49M511 504h114M237 505h48M286 505h1M288 505h7M297 505h9M307 505h73M381 505h1M412 505h12M433 505h49M511 505h114M237 506h48M286 506h1M288 506h6M297 506h1M299 506h6M307 506h69M377 506h3M381 506h1M412 506h70M511 506h132M263 507h22M286 507h1M288 507h7M297 507h2M300 507h2M303 507h2M307 507h73M381 507h1M412 507h70M511 507h132M263 508h22M286 508h1M288 508h7M298 508h1M300 508h2M303 508h2M307 508h2M310 508h70M382 508h2M388 508h3M392 508h6M399 508h245M263 509h22M286 509h1M290 509h5M297 509h3M301 509h1M303 509h2M307 509h2M310 509h67M379 509h1M382 509h2M386 509h1M388 509h3M392 509h6M399 509h64M466 509h178M263 510h21M286 510h1M290 510h5M297 510h3M301 510h1M303 510h2M308 510h1M310 510h68M383 510h1M386 510h1M388 510h3M392 510h6M399 510h4M404 510h59M464 510h33M498 510h160M335 511h38M374 511h5M386 511h1M388 511h3M392 511h6M399 511h2M402 511h1M404 511h59M464 511h33M498 511h21M520 511h138M335 512h33M412 512h50M464 512h32M524 512h34M616 512h42M335 513h33M405 513h52M458 513h3M464 513h13M478 513h18M524 513h34M616 513h42M324 514h23M543 514h27M324 515h23M543 515h9M554 515h16M324 516h23M543 516h9M554 516h16M672 526h61M672 527h61M0 528h12M165 528h73M655 528h90M939 528h21M0 529h49M165 529h73M655 529h90M939 529h21M0 530h49M155 530h83M608 530h170M939 530h21M0 531h247M259 531h29M608 531h170M939 531h21M0 532h244M262 532h26M440 532h10M451 532h2M454 532h2M459 532h1M463 532h1M474 532h1M478 532h2M481 532h5M490 532h1M492 532h2M499 532h1M608 532h192M859 532h1M864 532h1M866 532h3M871 532h10M883 532h1M885 532h2M888 532h2M892 532h1M929 532h31M0 533h242M264 533h24M440 533h7M481 533h5M532 533h2M535 533h7M545 533h255M864 533h1M866 533h3M871 533h10M883 533h1M885 533h2M888 533h1M892 533h1M929 533h31M0 534h241M265 534h23M344 534h156M545 534h255M864 534h1M866 534h2M871 534h10M883 534h1M885 534h2M888 534h1M892 534h1M929 534h31M0 535h240M266 535h244M532 535h268M864 535h1M866 535h2M871 535h10M883 535h1M885 535h2M888 535h1M892 535h1M894 535h3M898 535h7M906 535h54M0 536h240M266 536h258M532 536h268M864 536h1M867 536h1M871 536h10M883 536h1M885 536h2M892 536h1M895 536h2M899 536h6M906 536h54M0 537h240M267 537h533M864 537h1M867 537h1M871 537h9M883 537h1M885 537h2M892 537h1M895 537h2M899 537h5M906 537h54M0 538h240M267 538h533M867 538h1M871 538h9M883 538h1M885 538h2M892 538h1M895 538h2M900 538h4M907 538h6M914 538h46M0 539h240M267 539h533M867 539h1M871 539h2M874 539h6M883 539h1M885 539h2M892 539h1M895 539h2M900 539h4M907 539h6M914 539h46M0 540h240M267 540h533M867 540h1M871 540h2M874 540h5M883 540h1M885 540h2M892 540h1M895 540h2M900 540h4M907 540h6M914 540h46M0 541h240M268 541h532M867 541h1M871 541h2M874 541h5M883 541h1M885 541h2M892 541h1M895 541h2M901 541h3M907 541h6M914 541h46M0 542h241M268 542h56M327 542h473M874 542h5M901 542h3M907 542h6M914 542h46M0 543h242M264 543h1M268 543h33M302 543h1M306 543h18M327 543h442M781 543h19M867 543h37M907 543h5M914 543h46M0 544h244M262 544h1M264 544h1M268 544h35M306 544h18M327 544h439M784 544h16M867 544h36M920 544h40M0 545h247M259 545h4M264 545h1M270 545h30M301 545h2M306 545h18M327 545h437M786 545h13M867 545h7M897 545h63M0 546h263M264 546h1M270 546h30M301 546h2M306 546h18M327 546h436M787 546h12M867 546h7M897 546h63M0 547h263M264 547h1M270 547h30M301 547h2M306 547h18M327 547h435M788 547h10M867 547h7M897 547h63M0 548h263M264 548h1M272 548h28M301 548h2M306 548h18M327 548h435M788 548h9M867 548h2M904 548h56M0 549h263M264 549h1M272 549h28M301 549h2M306 549h18M327 549h435M788 549h8M867 549h2M904 549h56M0 550h263M264 550h1M272 550h28M301 550h2M306 550h18M327 550h435M788 550h7M867 550h2M903 550h57M0 551h263M264 551h1M272 551h28M301 551h2M306 551h18M327 551h28M356 551h406M788 551h6M867 551h6M903 551h57M0 552h263M264 552h1M272 552h28M301 552h2M306 552h18M327 552h28M356 552h406M788 552h5M867 552h93M0 553h263M264 553h1M272 553h28M301 553h2M306 553h18M327 553h28M356 553h406M788 553h4M866 553h94M0 554h263M264 554h1M272 554h13M286 554h14M301 554h2M306 554h18M327 554h28M356 554h314M676 554h87M787 554h4M866 554h94M0 555h256M258 555h5M264 555h1M272 555h13M286 555h14M301 555h2M306 555h18M327 555h28M356 555h312M677 555h87M786 555h4M866 555h94M0 556h255M258 556h5M264 556h1M272 556h13M286 556h14M301 556h2M306 556h18M327 556h28M356 556h310M678 556h88M784 556h5M866 556h94M0 557h255M258 557h5M264 557h1M272 557h13M286 557h14M301 557h2M306 557h18M327 557h28M356 557h304M661 557h1M680 557h89M781 557h7M866 557h94M0 558h255M258 558h5M264 558h1M272 558h13M286 558h14M301 558h2M306 558h18M327 558h27M356 558h304M681 558h106M866 558h94M0 559h255M258 559h5M264 559h1M272 559h13M286 559h14M301 559h2M306 559h18M329 559h25M356 559h301M682 559h104M866 559h94M0 560h255M258 560h5M264 560h1M274 560h11M286 560h14M301 560h2M306 560h8M316 560h8M329 560h25M356 560h298M684 560h102M866 560h94M0 561h253M258 561h5M264 561h1M274 561h11M286 561h17M306 561h8M316 561h8M329 561h25M356 561h24M384 561h270M686 561h100M865 561h95M0 562h253M258 562h5M264 562h1M274 562h11M286 562h17M306 562h8M316 562h8M329 562h25M356 562h24M384 562h269M654 562h1M687 562h99M856 562h104M0 563h253M258 563h5M264 563h1M274 563h6M283 563h2M286 563h16M306 563h7M316 563h8M329 563h25M356 563h24M384 563h269M688 563h98M855 563h105M0 564h253M258 564h5M264 564h1M274 564h6M283 564h2M286 564h16M306 564h7M316 564h8M329 564h24M356 564h24M384 564h269M655 564h1M688 564h98M854 564h106M0 565h253M258 565h5M264 565h1M274 565h6M283 565h2M286 565h12M300 565h2M307 565h6M316 565h6M323 565h1M329 565h24M356 565h24M384 565h271M688 565h98M853 565h107M0 566h219M220 566h33M258 566h5M264 566h1M274 566h6M283 566h2M286 566h12M300 566h2M307 566h6M316 566h6M323 566h1M329 566h24M356 566h24M384 566h270M689 566h97M851 566h109M0 567h219M220 567h28M252 567h1M258 567h7M274 567h6M283 567h2M286 567h12M300 567h1M307 567h6M316 567h6M323 567h1M329 567h24M356 567h24M384 567h268M655 567h6M686 567h4M691 567h95M830 567h7M849 567h111M0 568h219M220 568h28M252 568h1M258 568h7M274 568h6M283 568h2M286 568h13M300 568h1M307 568h6M316 568h6M323 568h1M329 568h24M356 568h24M384 568h278M686 568h100M828 568h9M849 568h111M0 569h219M221 569h27M252 569h1M258 569h7M274 569h6M284 569h1M286 569h3M290 569h11M307 569h6M317 569h5M323 569h1M329 569h24M356 569h24M384 569h278M679 569h107M827 569h10M849 569h111M0 570h213M214 570h5M221 570h27M252 570h1M258 570h7M274 570h6M284 570h5M290 570h4M297 570h4M307 570h6M317 570h5M323 570h1M329 570h23M356 570h16M374 570h5M385 570h278M677 570h109M817 570h22M849 570h111M0 571h213M214 571h5M221 571h32M258 571h7M274 571h6M283 571h6M290 571h4M297 571h3M307 571h6M317 571h3M321 571h1M323 571h1M329 571h23M356 571h16M374 571h5M385 571h278M677 571h109M814 571h26M847 571h113M0 572h212M214 572h5M222 572h31M259 572h6M274 572h6M283 572h6M290 572h4M297 572h3M307 572h6M317 572h3M321 572h1M323 572h1M329 572h12M342 572h10M356 572h16M374 572h4M385 572h279M676 572h110M813 572h147M0 573h212M214 573h5M222 573h31M259 573h6M274 573h6M283 573h6M290 573h4M297 573h2M307 573h6M317 573h3M321 573h3M329 573h12M342 573h10M356 573h16M374 573h4M385 573h281M673 573h119M812 573h148M0 574h212M214 574h5M222 574h15M238 574h15M259 574h6M274 574h6M283 574h6M290 574h4M297 574h2M307 574h6M317 574h3M329 574h12M342 574h10M356 574h11M368 574h4M374 574h3M385 574h415M811 574h149M0 575h212M214 575h5M223 575h14M238 575h15M259 575h6M274 575h6M286 575h3M290 575h4M297 575h2M307 575h6M317 575h3M329 575h12M342 575h10M356 575h11M368 575h4M374 575h3M385 575h416M811 575h149M0 576h212M214 576h5M223 576h14M238 576h15M259 576h6M274 576h6M286 576h3M290 576h4M297 576h1M307 576h6M317 576h3M329 576h12M342 576h10M356 576h11M369 576h3M374 576h2M385 576h417M810 576h150M0 577h212M214 577h5M223 577h14M238 577h15M259 577h6M274 577h6M286 577h3M290 577h4M297 577h1M307 577h6M317 577h3M328 577h13M342 577h10M356 577h6M364 577h4M369 577h3M374 577h2M385 577h418M809 577h151M0 578h212M214 578h5M224 578h13M238 578h15M259 578h6M274 578h1M276 578h1M279 578h1M286 578h3M290 578h4M297 578h1M307 578h6M317 578h3M328 578h13M342 578h10M356 578h6M364 578h2M369 578h3M374 578h1M385 578h575M0 579h212M214 579h5M224 579h13M238 579h9M249 579h4M259 579h6M274 579h1M276 579h1M279 579h1M286 579h3M290 579h4M297 579h1M307 579h6M317 579h3M346 579h6M356 579h6M364 579h2M368 579h4M374 579h1M385 579h162M574 579h386M0 580h208M211 580h1M214 580h5M224 580h13M238 580h9M249 580h4M259 580h6M274 580h1M276 580h1M279 580h1M286 580h3M290 580h4M297 580h1M307 580h6M317 580h3M346 580h6M356 580h6M364 580h1M367 580h5M374 580h1M385 580h162M574 580h386M0 581h208M211 581h8M224 581h13M238 581h9M249 581h4M259 581h6M274 581h1M276 581h1M279 581h1M286 581h3M290 581h4M297 581h1M307 581h6M317 581h3M346 581h6M356 581h6M364 581h1M367 581h5M385 581h162M574 581h386M0 582h208M211 582h8M225 582h12M238 582h9M249 582h4M259 582h6M274 582h1M276 582h1M279 582h1M286 582h1M288 582h6M297 582h1M307 582h6M317 582h3M364 582h1M367 582h5M386 582h161M574 582h386M0 583h208M212 583h7M225 583h12M238 583h9M249 583h4M259 583h6M274 583h1M276 583h1M279 583h1M288 583h5M297 583h1M307 583h6M317 583h3M364 583h1M367 583h5M386 583h6M393 583h154M574 583h386M0 584h208M212 584h7M226 584h11M238 584h9M249 584h4M259 584h6M274 584h1M276 584h1M279 584h1M288 584h5M297 584h1M364 584h1M367 584h5M386 584h6M393 584h134M574 584h386M0 585h208M212 585h7M226 585h10M237 585h10M248 585h2M259 585h6M274 585h1M276 585h1M279 585h1M288 585h5M297 585h1M364 585h1M367 585h5M386 585h5M393 585h134M578 585h382M0 586h208M213 586h6M227 586h9M237 586h10M248 586h2M259 586h6M274 586h1M276 586h1M279 586h1M288 586h5M297 586h1M364 586h1M367 586h5M386 586h5M393 586h134M587 586h373M0 587h208M213 587h6M227 587h9M237 587h10M248 587h2M259 587h6M274 587h1M276 587h1M279 587h1M288 587h5M297 587h1M346 587h1M348 587h1M350 587h1M356 587h6M364 587h1M367 587h5M386 587h5M393 587h172M587 587h373M0 588h208M214 588h5M228 588h8M237 588h10M248 588h2M259 588h5M274 588h3M279 588h1M288 588h5M297 588h1M307 588h5M317 588h3M328 588h13M348 588h1M350 588h1M356 588h6M364 588h1M367 588h5M386 588h4M393 588h567M0 589h208M214 589h5M228 589h4M235 589h1M237 589h11M249 589h1M259 589h5M274 589h3M279 589h1M288 589h5M297 589h1M307 589h5M317 589h3M328 589h13M348 589h1M350 589h1M356 589h6M364 589h1M367 589h5M386 589h4M393 589h567M0 590h209M215 590h4M229 590h3M235 590h1M237 590h11M249 590h1M259 590h5M274 590h3M279 590h1M288 590h5M297 590h1M307 590h5M318 590h2M328 590h10M339 590h2M350 590h1M356 590h6M364 590h1M366 590h6M386 590h4M393 590h567M0 591h209M215 591h4M229 591h3M235 591h1M237 591h13M259 591h5M274 591h3M279 591h1M288 591h5M297 591h1M307 591h5M318 591h1M328 591h10M339 591h2M350 591h1M356 591h6M364 591h8M386 591h3M393 591h567M0 592h206M207 592h2M216 592h3M230 592h2M235 592h1M237 592h13M259 592h5M274 592h3M279 592h1M288 592h5M297 592h1M307 592h5M318 592h1M327 592h11M339 592h2M350 592h1M356 592h6M366 592h6M386 592h3M393 592h567M0 593h206M207 593h3M216 593h3M230 593h2M235 593h15M259 593h5M274 593h6M288 593h5M297 593h1M307 593h5M327 593h11M339 593h2M356 593h6M366 593h6M386 593h3M393 593h567M0 594h206M207 594h3M217 594h2M230 594h2M235 594h15M274 594h1M276 594h1M279 594h1M288 594h5M297 594h1M307 594h5M327 594h11M340 594h1M356 594h6M366 594h6M386 594h2M393 594h567M0 595h206M209 595h1M217 595h2M231 595h1M235 595h15M274 595h1M279 595h1M288 595h5M297 595h1M307 595h4M327 595h11M340 595h1M356 595h6M366 595h6M386 595h2M393 595h567M0 596h206M209 596h2M218 596h1M231 596h1M235 596h15M274 596h1M279 596h1M288 596h3M297 596h1M307 596h4M327 596h11M340 596h1M356 596h6M366 596h6M386 596h2M393 596h567M0 597h206M209 597h2M231 597h1M235 597h15M274 597h1M279 597h1M297 597h1M307 597h4M327 597h11M340 597h1M356 597h6M367 597h5M386 597h1M393 597h567M0 598h206M209 598h2M231 598h1M235 598h15M274 598h1M279 598h1M297 598h1M307 598h3M327 598h11M356 598h6M386 598h1M393 598h567M0 599h206M209 599h2M231 599h19M274 599h1M279 599h1M297 599h1M307 599h3M327 599h11M356 599h6M386 599h1M393 599h567" />
<path stroke="#8847b2" d="M126 502h1M385 502h1M126 503h1M298 503h1M385 503h1M126 504h1M287 504h1M292 504h1M296 504h3M382 504h1M384 504h1M126 505h1M285 505h1M382 505h1M384 505h1M386 505h1M126 506h1M159 506h2M285 506h1M294 506h1M296 506h1M298 506h1M305 506h1M376 506h1M382 506h1M384 506h1M386 506h1M126 507h1M159 507h2M285 507h1M296 507h1M299 507h1M302 507h1M305 507h1M382 507h1M384 507h1M386 507h1M391 507h1M124 508h1M126 508h1M155 508h2M159 508h2M285 508h1M296 508h2M299 508h1M302 508h1M305 508h1M381 508h1M384 508h1M386 508h2M391 508h1M124 509h1M126 509h1M155 509h2M159 509h3M164 509h1M285 509h1M288 509h2M296 509h1M300 509h1M302 509h1M305 509h1M377 509h2M381 509h1M384 509h1M387 509h1M391 509h1M463 509h3M121 510h1M124 510h1M126 510h1M131 510h1M136 510h2M141 510h1M153 510h1M155 510h2M159 510h1M161 510h1M164 510h1M284 510h2M288 510h2M296 510h1M300 510h1M302 510h1M305 510h1M307 510h1M378 510h2M381 510h2M384 510h1M387 510h1M391 510h1M403 510h1M463 510h1M497 510h1M121 511h1M123 511h2M126 511h1M131 511h1M136 511h2M141 511h1M150 511h1M155 511h2M159 511h3M164 511h1M286 511h1M288 511h2M296 511h1M300 511h1M302 511h1M305 511h1M307 511h1M373 511h1M379 511h1M381 511h1M383 511h2M387 511h1M391 511h1M401 511h1M403 511h1M463 511h1M497 511h1M519 511h1M778 511h1M119 512h1M121 512h1M123 512h2M126 512h1M131 512h1M136 512h2M141 512h1M146 512h2M150 512h2M155 512h2M159 512h3M163 512h2M286 512h4M296 512h1M300 512h3M305 512h3M380 512h5M387 512h1M391 512h1M399 512h1M401 512h1M403 512h2M462 512h2M497 512h1M519 512h1M691 512h1M778 512h1M119 513h1M121 513h1M123 513h2M126 513h2M131 513h1M136 513h3M141 513h1M147 513h1M151 513h3M155 513h2M159 513h3M163 513h2M286 513h4M292 513h3M296 513h12M375 513h1M379 513h3M383 513h2M387 513h1M391 513h2M401 513h1M403 513h2M457 513h1M462 513h2M497 513h1M519 513h1M680 513h1M685 513h1M689 513h3M775 513h1M777 513h1M119 514h1M121 514h1M123 514h2M126 514h2M130 514h4M136 514h3M141 514h1M149 514h2M152 514h2M155 514h2M159 514h3M163 514h2M372 514h1M379 514h3M383 514h2M387 514h1M391 514h2M401 514h1M403 514h2M457 514h1M462 514h2M472 514h4M497 514h1M519 514h1M678 514h1M775 514h1M777 514h1M779 514h1M120 515h4M125 515h3M130 515h4M136 515h6M151 515h1M153 515h4M159 515h2M162 515h3M167 515h1M372 515h2M375 515h1M379 515h3M384 515h1M387 515h1M391 515h1M393 515h1M395 515h1M401 515h1M403 515h2M457 515h1M462 515h2M472 515h1M497 515h1M519 515h1M552 515h2M678 515h1M687 515h1M689 515h1M691 515h1M698 515h1M769 515h1M775 515h1M777 515h1M779 515h1M120 516h2M125 516h9M136 516h6M150 516h1M152 516h1M154 516h3M158 516h8M167 516h1M373 516h1M375 516h1M377 516h1M379 516h3M384 516h1M386 516h2M391 516h1M393 516h1M395 516h1M398 516h1M401 516h1M403 516h2M457 516h1M462 516h1M469 516h1M472 516h1M477 516h1M497 516h1M519 516h1M552 516h2M678 516h1M689 516h1M692 516h1M695 516h1M698 516h1M775 516h1M777 516h1M779 516h1M784 516h1M122 517h15M138 517h4M147 517h21M372 517h13M386 517h10M398 517h7M458 517h1M462 517h1M469 517h1M472 517h1M477 517h1M497 517h1M517 517h1M519 517h1M548 517h2M552 517h2M678 517h1M689 517h2M692 517h1M695 517h1M698 517h1M774 517h1M777 517h1M779 517h2M784 517h1M151 518h19M365 518h1M455 518h1M458 518h1M461 518h2M464 518h1M469 518h1M472 518h1M477 518h1M497 518h2M517 518h1M519 518h1M548 518h2M552 518h3M557 518h1M678 518h1M681 518h2M689 518h1M693 518h1M695 518h1M698 518h1M770 518h2M774 518h1M777 518h1M780 518h1M784 518h1M856 518h3M455 519h1M458 519h1M461 519h2M464 519h1M469 519h1M472 519h1M477 519h1M497 519h2M500 519h1M514 519h1M517 519h1M519 519h1M524 519h1M529 519h2M534 519h1M546 519h1M548 519h2M552 519h1M554 519h1M557 519h1M677 519h2M681 519h2M689 519h1M693 519h1M695 519h1M698 519h1M700 519h1M771 519h2M774 519h2M777 519h1M780 519h1M784 519h1M796 519h1M856 519h1M890 519h1M455 520h1M458 520h5M464 520h1M469 520h2M472 520h1M477 520h1M497 520h2M500 520h1M514 520h1M516 520h2M519 520h1M524 520h1M529 520h2M534 520h1M543 520h1M548 520h2M552 520h3M557 520h1M679 520h1M681 520h2M689 520h1M693 520h1M695 520h1M698 520h1M700 520h1M766 520h1M772 520h1M774 520h1M776 520h2M780 520h1M784 520h1M794 520h1M796 520h1M856 520h1M890 520h1M455 521h1M458 521h2M461 521h2M464 521h1M469 521h2M472 521h1M477 521h1M489 521h1M497 521h2M500 521h1M512 521h1M514 521h1M516 521h2M519 521h1M524 521h1M529 521h2M534 521h1M539 521h2M543 521h2M548 521h2M552 521h3M556 521h2M679 521h4M689 521h1M693 521h3M698 521h3M773 521h5M780 521h1M784 521h1M792 521h1M794 521h1M796 521h2M855 521h2M890 521h1M455 522h1M458 522h2M461 522h2M464 522h1M469 522h2M472 522h1M497 522h2M500 522h1M512 522h1M514 522h1M516 522h2M519 522h2M524 522h1M529 522h3M534 522h1M540 522h1M544 522h3M548 522h2M552 522h3M556 522h2M679 522h4M685 522h3M689 522h12M768 522h1M772 522h3M776 522h2M780 522h1M784 522h2M794 522h1M796 522h2M850 522h1M855 522h2M890 522h1M455 523h1M457 523h6M464 523h1M468 523h3M472 523h1M476 523h1M489 523h1M497 523h2M500 523h1M504 523h1M512 523h1M514 523h1M516 523h2M519 523h2M523 523h4M529 523h3M534 523h1M542 523h2M545 523h2M548 523h2M552 523h3M556 523h2M765 523h1M772 523h3M776 523h2M780 523h1M784 523h2M794 523h1M796 523h2M850 523h1M855 523h2M865 523h4M890 523h1M455 524h4M460 524h3M464 524h2M468 524h3M472 524h1M476 524h1M489 524h1M496 524h3M500 524h1M504 524h1M512 524h5M518 524h3M523 524h4M529 524h6M544 524h1M546 524h4M552 524h2M555 524h3M560 524h1M765 524h2M768 524h1M772 524h3M777 524h1M780 524h1M784 524h1M786 524h1M788 524h1M794 524h1M796 524h2M855 524h2M865 524h1M890 524h1M455 525h4M460 525h3M464 525h2M468 525h3M472 525h1M475 525h1M489 525h1M496 525h3M500 525h1M504 525h1M513 525h2M518 525h9M529 525h6M543 525h1M545 525h1M547 525h3M551 525h8M560 525h1M766 525h1M768 525h1M770 525h1M772 525h3M777 525h1M779 525h2M784 525h1M786 525h1M788 525h1M791 525h1M794 525h1M796 525h2M855 525h1M862 525h1M865 525h1M870 525h1M890 525h1M455 526h4M460 526h3M464 526h2M468 526h3M472 526h1M475 526h2M489 526h1M491 526h1M494 526h1M496 526h3M500 526h1M504 526h1M515 526h15M531 526h4M540 526h21M765 526h13M779 526h10M791 526h7M855 526h1M862 526h1M865 526h1M870 526h1M890 526h1M447 527h1M455 527h4M460 527h3M464 527h2M468 527h3M472 527h2M476 527h2M488 527h2M491 527h1M494 527h5M500 527h2M504 527h2M544 527h19M758 527h1M854 527h2M857 527h1M862 527h1M865 527h1M870 527h1M890 527h2M448 528h1M456 528h3M460 528h3M464 528h1M466 528h1M468 528h3M472 528h2M476 528h2M487 528h3M491 528h1M494 528h5M500 528h2M504 528h2M511 528h1M855 528h1M857 528h1M862 528h1M865 528h1M870 528h1M890 528h2M893 528h1M448 529h1M451 529h1M453 529h1M456 529h3M460 529h3M464 529h1M466 529h1M468 529h3M472 529h2M476 529h2M487 529h3M491 529h1M494 529h5M500 529h2M504 529h3M511 529h1M513 529h1M520 529h1M857 529h1M862 529h2M865 529h1M870 529h1M890 529h2M893 529h1M449 530h2M453 530h1M456 530h3M460 530h3M464 530h1M466 530h1M468 530h3M472 530h2M476 530h2M480 530h1M488 530h2M491 530h1M494 530h2M497 530h2M500 530h2M504 530h3M511 530h3M520 530h1M857 530h1M862 530h2M865 530h1M870 530h1M882 530h1M890 530h2M893 530h1M450 531h1M453 531h1M456 531h3M460 531h3M464 531h1M466 531h1M468 531h2M471 531h2M475 531h3M480 531h1M487 531h3M491 531h1M494 531h2M497 531h2M500 531h2M504 531h3M511 531h3M520 531h1M862 531h2M865 531h1M890 531h2M893 531h1M450 532h1M453 532h1M456 532h3M460 532h3M464 532h3M468 532h2M471 532h2M475 532h3M480 532h1M486 532h4M491 532h1M494 532h5M500 532h2M504 532h4M511 532h3M520 532h1M861 532h3M865 532h1M869 532h1M882 532h1M890 532h2M893 532h1M897 532h1M447 533h34M486 533h22M511 533h3M520 533h1M861 533h3M865 533h1M869 533h1M882 533h1M889 533h3M893 533h1M897 533h1M905 533h1M511 534h3M519 534h2M861 534h3M865 534h1M868 534h1M882 534h1M889 534h3M893 534h1M897 534h1M510 535h17M862 535h2M865 535h1M868 535h2M882 535h1M884 535h1M887 535h1M889 535h3M893 535h1M897 535h1M863 536h1M865 536h2M869 536h2M881 536h2M884 536h1M887 536h5M893 536h2M897 536h2M865 537h2M869 537h2M880 537h3M884 537h1M887 537h5M893 537h2M897 537h2M904 537h1M865 538h2M869 538h2M880 538h3M884 538h1M887 538h5M893 538h2M897 538h3M904 538h1M906 538h1M913 538h1M866 539h1M869 539h2M873 539h1M881 539h2M884 539h1M887 539h2M890 539h2M893 539h2M897 539h3M904 539h3M913 539h1M868 540h3M873 540h1M880 540h3M884 540h1M887 540h2M890 540h2M893 540h2M897 540h3M904 540h3M913 540h1M868 541h3M873 541h1M879 541h4M884 541h1M887 541h5M893 541h2M897 541h4M904 541h3M913 541h1M867 542h7M879 542h22M904 542h3M913 542h1M904 543h3M912 543h2M903 544h17" />
<path stroke="#af79d2" d="M306 502h1M306 503h1M295 504h1M306 504h1M287 505h1M295 505h2M306 505h1M380 505h1M287 506h1M295 506h1M306 506h1M380 506h1M287 507h1M295 507h1M306 507h1M380 507h1M385 507h1M398 507h1M287 508h1M295 508h1M306 508h1M309 508h1M380 508h1M385 508h1M398 508h1M287 509h1M295 509h1M306 509h1M309 509h1M380 509h1M385 509h1M398 509h1M287 510h1M295 510h1M306 510h1M309 510h1M380 510h1M385 510h1M398 510h1M287 511h1M295 511h1M306 511h1M309 511h1M380 511h1M382 511h1M385 511h1M398 511h1M699 511h1M295 512h1M309 512h1M379 512h1M385 512h1M395 512h1M398 512h1M699 512h1M295 513h1M382 513h1M385 513h1M395 513h1M398 513h1M461 513h1M477 513h1M688 513h1M699 513h1M376 514h1M382 514h1M385 514h1M395 514h1M398 514h1M458 514h1M461 514h1M477 514h1M680 514h1M688 514h2M699 514h1M773 514h1M376 515h1M382 515h1M385 515h1M398 515h1M458 515h1M461 515h1M477 515h1M680 515h1M688 515h1M699 515h1M773 515h1M376 516h1M382 516h1M385 516h1M458 516h1M461 516h1M680 516h1M688 516h1M699 516h1M773 516h1M778 516h1M791 516h1M385 517h1M461 517h1M494 517h1M680 517h1M688 517h1M699 517h1M702 517h1M773 517h1M778 517h1M791 517h1M479 518h1M494 518h1M680 518h1M688 518h1M699 518h1M702 518h1M773 518h1M778 518h1M791 518h1M479 519h1M491 519h1M494 519h1M680 519h1M688 519h1M699 519h1M702 519h1M773 519h1M778 519h1M791 519h1M479 520h1M491 520h1M494 520h1M680 520h1M688 520h1M699 520h1M702 520h1M773 520h1M775 520h1M778 520h1M791 520h1M460 521h1M479 521h1M491 521h1M494 521h1M688 521h1M702 521h1M772 521h1M778 521h1M788 521h1M791 521h1M468 522h1M477 522h1M489 522h1M491 522h1M494 522h1M688 522h1M775 522h1M778 522h1M788 522h1M791 522h1M854 522h1M870 522h1M467 523h1M477 523h1M488 523h1M491 523h1M494 523h1M769 523h1M775 523h1M778 523h1M788 523h1M791 523h1M851 523h1M854 523h1M870 523h1M467 524h1M477 524h1M488 524h1M491 524h1M494 524h1M769 524h1M775 524h1M778 524h1M791 524h1M851 524h1M854 524h1M870 524h1M467 525h1M476 525h2M488 525h1M491 525h1M494 525h1M512 525h1M769 525h1M775 525h1M778 525h1M854 525h1M467 526h1M477 526h1M488 526h1M512 526h1M778 526h1M854 526h1M887 526h1M466 527h2M475 527h1M512 527h1M872 527h1M887 527h1M465 528h1M467 528h1M475 528h1M512 528h1M872 528h1M884 528h1M887 528h1M465 529h1M467 529h1M475 529h1M512 529h1M872 529h1M884 529h1M887 529h1M465 530h1M467 530h1M475 530h1M487 530h1M496 530h1M872 530h1M884 530h1M887 530h1M465 531h1M467 531h1M470 531h1M473 531h1M486 531h1M496 531h1M861 531h1M870 531h1M882 531h1M884 531h1M887 531h1M467 532h1M470 532h1M473 532h1M860 532h1M870 532h1M881 532h1M884 532h1M887 532h1M860 533h1M870 533h1M881 533h1M884 533h1M887 533h1M869 534h2M881 534h1M884 534h1M887 534h1M905 534h1M870 535h1M881 535h1M905 535h1M868 536h1M905 536h1M868 537h1M905 537h1M868 538h1M905 538h1M868 539h1M880 539h1M889 539h1M879 540h1M889 540h1" />
<path stroke="#1c1143" d="M832 512h5M831 513h1M837 513h2M830 514h1M839 514h2M829 515h1M841 515h1M828 516h1M842 516h1M825 517h3M843 517h1M823 518h2M844 518h1M821 519h2M845 519h1M819 520h2M846 520h1M817 521h2M847 521h1M815 522h2M848 522h1M813 523h2M849 523h1M811 524h2M850 524h1M809 525h2M851 525h1M807 526h2M852 526h1M805 527h2M853 527h1M803 528h2M854 528h1M802 529h1M855 529h1M801 530h1M856 530h1M800 531h1M857 531h1M800 532h1M858 532h1M800 533h1M859 533h1M800 534h1M860 534h1M800 535h1M861 535h1M800 536h1M862 536h1M800 537h1M863 537h1M800 538h1M864 538h1M800 539h1M865 539h1M800 540h1M866 540h1M800 541h1M866 541h1M800 542h1M866 542h1M800 543h1M866 543h1M800 544h1M866 544h1M799 545h1M799 546h1M798 547h1M797 548h1M796 549h1M795 550h1M794 551h1M793 552h1M865 552h1M792 553h1M865 553h1M791 554h1M865 554h1M790 555h1M865 555h1M789 556h1M865 556h1M788 557h1M865 557h1M787 558h1M865 558h1M786 559h1M865 559h1M786 560h1M865 560h1M786 561h1M856 561h9M786 562h1M855 562h1M786 563h1M854 563h1M786 564h1M853 564h1M786 565h1M851 565h2M786 566h1M849 566h2M786 567h1M848 567h1M786 568h1M848 568h1M786 569h1M817 569h2M837 569h1M848 569h1M786 570h1M814 570h3M839 570h1M847 570h2M786 571h1M813 571h1M840 571h7M786 572h2M812 572h1M792 573h8M811 573h1M800 574h2M810 574h1M801 575h1M810 575h1M802 576h1M808 576h2M803 577h6" />
<path stroke="#856fa2" d="M832 513h3M831 514h6M830 515h8M829 516h9M828 517h10M825 518h13M823 519h15M821 520h17M819 521h19M817 522h21M816 523h23M815 524h24M814 525h26M813 526h27M811 527h30M810 528h32M808 529h35M807 530h37M806 531h39M247 532h12M805 532h41M244 533h17M805 533h33M839 533h6M242 534h20M805 534h33M840 534h3M241 535h21M805 535h33M241 536h21M805 536h33M241 537h21M806 537h32M242 538h19M807 538h32M243 539h17M807 539h33M244 540h14M807 540h34M246 541h10M808 541h41M248 542h5M803 542h2M809 542h29M844 542h7M804 543h3M809 543h27M846 543h6M805 544h4M810 544h25M844 544h2M847 544h6M800 545h2M807 545h23M842 545h12M800 546h3M809 546h18M841 546h13M799 547h5M812 547h12M840 547h13M798 548h7M815 548h6M839 548h13M797 549h9M838 549h12M796 550h11M838 550h10M795 551h13M839 551h7M795 552h14M840 552h4M794 553h16M670 554h6M793 554h18M668 555h9M793 555h18M666 556h12M792 556h19M663 557h17M792 557h19M662 558h19M792 558h19M661 559h21M793 559h18M658 560h25M794 560h17M657 561h27M797 561h13M659 562h26M799 562h9M660 563h25M801 563h5M661 564h23M663 565h17M664 566h14M666 567h8M668 568h4" />
<path stroke="#482d6e" d="M835 513h2M837 514h2M838 515h3M838 516h4M838 517h5M838 518h6M838 519h7M838 520h8M838 521h9M838 522h10M839 523h10M839 524h11M840 525h11M840 526h12M841 527h12M842 528h12M843 529h7M854 529h1M844 530h5M855 530h1M845 531h3M852 531h1M856 531h1M846 532h1M850 532h2M856 532h2M848 533h3M857 533h2M847 534h4M858 534h2M846 535h4M859 535h2M847 536h3M859 536h3M847 537h3M859 537h3M847 538h3M858 538h4M848 539h2M857 539h6M848 540h2M856 540h8M849 541h3M855 541h7M838 542h6M851 542h2M836 543h10M853 543h1M801 544h2M835 544h9M846 544h1M802 545h2M833 545h9M803 546h3M832 546h9M804 547h3M830 547h10M805 548h3M828 548h11M806 549h3M825 549h13M855 549h3M807 550h3M821 550h16M852 550h6M808 551h3M819 551h17M849 551h10M809 552h2M819 552h16M847 552h13M810 553h2M819 553h15M845 553h15M811 554h2M822 554h11M843 554h17M811 555h2M823 555h9M841 555h19M811 556h3M824 556h8M839 556h20M811 557h4M824 557h7M837 557h22M811 558h4M824 558h7M836 558h22M811 559h5M825 559h5M835 559h22M811 560h5M817 560h1M825 560h5M834 560h22M810 561h6M817 561h2M825 561h4M834 561h21M809 562h7M817 562h3M825 562h4M834 562h20M809 563h8M818 563h3M825 563h3M835 563h17M809 564h8M818 564h3M825 564h3M836 564h14M810 565h7M818 565h4M824 565h3M837 565h10M811 566h7M819 566h3M824 566h3M830 566h14M812 567h6M819 567h4M824 567h3M828 567h2M837 567h5M813 568h5M819 568h4M825 568h3M837 568h3M801 569h3M814 569h3M825 569h2M800 570h4M798 571h6M807 571h2M792 572h11M806 572h4M800 573h1M806 573h5M805 574h5M805 575h5M805 576h3" />
<path stroke="#b47cc6" d="M815 523h1M813 524h2M811 525h3M809 526h4M807 527h4M805 528h5M803 529h5M802 530h5M801 531h5M801 532h4M801 533h4M801 534h4M801 535h4M801 536h4M801 537h5M801 538h6M801 539h6M801 540h6M801 541h7M805 542h4M807 543h2M809 544h1M794 552h1M793 553h1M792 554h1M791 555h2M790 556h2M789 557h3M788 558h4M787 559h6M787 560h7M787 561h10M787 562h12M787 563h11M787 564h9M787 565h8M787 566h6M787 567h6M787 568h4M787 569h3M787 570h2M787 571h2" />
<path stroke="#774e94" d="M850 529h4M849 530h6M848 531h4M853 531h3M847 532h3M852 532h4M261 533h1M838 533h1M845 533h3M851 533h6M262 534h2M838 534h2M843 534h4M851 534h7M262 535h3M838 535h8M850 535h9M262 536h2M838 536h9M850 536h9M262 537h1M838 537h9M850 537h9M241 538h1M261 538h1M839 538h8M850 538h8M241 539h2M260 539h1M840 539h8M850 539h7M241 540h3M258 540h1M841 540h7M850 540h6M241 541h5M256 541h2M852 541h3M242 542h6M253 542h4M801 542h2M853 542h3M244 543h10M801 543h3M852 543h1M854 543h1M247 544h9M803 544h2M853 544h1M804 545h3M830 545h3M806 546h3M827 546h5M807 547h5M824 547h6M808 548h7M821 548h7M809 549h16M850 549h1M810 550h11M837 550h1M848 550h1M811 551h8M836 551h3M846 551h2M812 552h7M835 552h5M844 552h2M813 553h6M834 553h11M814 554h8M833 554h10M815 555h8M832 555h9M816 556h8M832 556h7M660 557h1M817 557h7M831 557h6M660 558h1M818 558h6M831 558h5M657 559h3M819 559h6M830 559h5M654 560h3M683 560h1M820 560h5M830 560h4M654 561h3M684 561h2M821 561h4M829 561h5M655 562h4M685 562h2M808 562h1M821 562h4M829 562h5M655 563h5M685 563h3M806 563h3M822 563h3M828 563h7M656 564h5M684 564h4M803 564h6M823 564h2M828 564h7M656 565h7M680 565h8M800 565h10M823 565h1M827 565h7M660 566h4M678 566h10M798 566h13M827 566h3M662 567h4M674 567h8M794 567h18M827 567h1M663 568h5M672 568h8M791 568h22M663 569h4M668 569h11M790 569h11M804 569h10M664 570h8M673 570h2M789 570h11M804 570h10M665 571h8M789 571h9M804 571h3M809 571h4M666 572h6M789 572h3M803 572h3M810 572h2M801 573h5M802 574h3M802 575h3M803 576h2" />
<path stroke="#1e1147" d="M247 531h12M244 532h3M259 532h3M242 533h2M262 533h2M241 534h1M264 534h1M240 535h1M265 535h1M240 536h1M264 536h2M240 537h1M263 537h3M240 538h1M262 538h4M240 539h1M261 539h5M240 540h1M259 540h7M240 541h1M258 541h8M241 542h1M257 542h8M242 543h2M254 543h10M769 543h12M244 544h3M256 544h6M766 544h3M781 544h3M247 545h12M764 545h2M784 545h2M763 546h1M786 546h1M762 547h1M787 547h1M762 548h1M786 548h2M762 549h1M785 549h3M762 550h1M784 550h4M762 551h1M783 551h5M762 552h1M781 552h7M762 553h1M780 553h8M763 554h1M779 554h8M764 555h2M776 555h10M766 556h3M778 556h6M769 557h12" />
<path stroke="#6f4c99" d="M266 537h1M266 538h1M266 539h1M266 540h1M266 541h2M265 542h3M324 542h3M265 543h3M301 543h1M303 543h3M324 543h3M263 544h1M265 544h3M303 544h3M324 544h3M263 545h1M265 545h1M267 545h3M300 545h1M303 545h3M324 545h3M263 546h1M265 546h1M267 546h3M300 546h1M303 546h3M324 546h3M263 547h1M265 547h1M267 547h3M300 547h1M303 547h3M324 547h3M263 548h1M265 548h7M300 548h1M303 548h3M324 548h3M263 549h1M265 549h7M300 549h1M303 549h3M324 549h3M263 550h1M265 550h7M300 550h1M303 550h3M324 550h3M263 551h1M265 551h7M300 551h1M303 551h3M324 551h3M355 551h1M263 552h1M265 552h7M300 552h1M303 552h3M324 552h3M355 552h1M263 553h1M265 553h7M300 553h1M303 553h3M324 553h3M355 553h1M263 554h1M265 554h7M285 554h1M300 554h1M303 554h3M324 554h3M355 554h1M256 555h1M263 555h1M265 555h7M285 555h1M300 555h1M303 555h3M324 555h3M355 555h1M255 556h2M263 556h1M265 556h7M285 556h1M300 556h1M303 556h3M324 556h3M355 556h1M255 557h2M263 557h1M265 557h1M267 557h5M285 557h1M300 557h1M303 557h3M324 557h3M355 557h1M255 558h2M263 558h1M265 558h1M267 558h5M285 558h1M300 558h1M303 558h3M324 558h3M354 558h2M255 559h2M263 559h1M265 559h1M267 559h5M285 559h1M300 559h1M303 559h3M324 559h5M354 559h2M255 560h2M263 560h1M265 560h1M267 560h7M285 560h1M300 560h1M303 560h3M314 560h1M324 560h5M354 560h2M253 561h4M263 561h1M265 561h1M267 561h7M285 561h1M303 561h3M314 561h1M324 561h5M354 561h2M380 561h4M253 562h3M257 562h1M263 562h1M265 562h1M267 562h7M285 562h1M303 562h3M314 562h1M324 562h5M354 562h2M380 562h4M253 563h3M257 563h1M263 563h1M265 563h1M267 563h7M280 563h2M285 563h1M302 563h4M313 563h2M324 563h5M354 563h2M380 563h4M253 564h3M257 564h1M263 564h1M265 564h9M280 564h2M285 564h1M302 564h4M313 564h2M324 564h5M354 564h2M380 564h4M253 565h3M257 565h1M263 565h1M265 565h9M280 565h2M285 565h1M299 565h1M302 565h5M313 565h2M324 565h5M354 565h2M380 565h4M253 566h3M257 566h1M263 566h1M265 566h9M280 566h2M285 566h1M299 566h1M302 566h5M313 566h2M324 566h5M354 566h2M380 566h4M248 567h1M251 567h1M253 567h3M257 567h1M265 567h9M280 567h2M285 567h1M298 567h2M301 567h6M313 567h2M324 567h5M354 567h2M380 567h4M248 568h1M250 568h2M253 568h3M257 568h1M265 568h9M280 568h1M285 568h1M299 568h1M301 568h6M313 568h2M324 568h5M354 568h2M380 568h4M220 569h1M250 569h2M253 569h3M257 569h1M265 569h9M280 569h1M283 569h1M285 569h1M289 569h1M301 569h6M313 569h2M324 569h5M354 569h2M380 569h4M213 570h1M220 570h1M250 570h2M253 570h3M257 570h1M265 570h9M280 570h1M282 570h2M289 570h1M294 570h3M302 570h5M313 570h3M324 570h5M354 570h2M372 570h1M379 570h6M213 571h1M220 571h1M253 571h3M257 571h1M265 571h9M280 571h1M282 571h1M289 571h1M294 571h3M300 571h1M302 571h5M313 571h3M324 571h5M354 571h2M372 571h1M379 571h6M212 572h2M220 572h2M253 572h3M257 572h2M265 572h9M280 572h1M282 572h1M289 572h1M294 572h3M300 572h1M302 572h5M313 572h3M324 572h5M353 572h3M372 572h1M378 572h7M212 573h2M220 573h2M253 573h6M265 573h9M280 573h1M282 573h1M289 573h1M294 573h3M299 573h2M302 573h5M313 573h3M324 573h5M353 573h3M372 573h1M378 573h7M212 574h2M220 574h2M237 574h1M253 574h6M265 574h9M280 574h3M289 574h1M294 574h3M299 574h2M302 574h5M313 574h3M321 574h8M353 574h3M367 574h1M372 574h1M377 574h8M212 575h2M220 575h3M237 575h1M253 575h6M265 575h9M280 575h6M289 575h1M294 575h3M299 575h2M302 575h5M313 575h3M321 575h8M353 575h3M367 575h1M372 575h1M377 575h8M212 576h2M220 576h3M237 576h1M253 576h6M265 576h9M280 576h6M289 576h1M294 576h3M298 576h3M302 576h5M313 576h3M321 576h8M353 576h3M367 576h2M372 576h1M376 576h9M212 577h2M220 577h3M237 577h1M253 577h6M265 577h9M280 577h6M289 577h1M294 577h3M298 577h2M302 577h5M313 577h3M321 577h7M353 577h3M362 577h2M368 577h1M372 577h1M376 577h9M212 578h2M220 578h4M237 578h1M253 578h6M265 578h9M275 578h1M280 578h6M289 578h1M294 578h3M298 578h2M301 578h6M313 578h3M321 578h7M353 578h3M362 578h2M367 578h2M372 578h1M375 578h10M212 579h2M220 579h1M222 579h2M237 579h1M247 579h1M253 579h6M265 579h9M275 579h1M280 579h6M289 579h1M294 579h3M298 579h1M301 579h6M313 579h3M320 579h8M342 579h1M353 579h3M362 579h2M367 579h1M372 579h1M376 579h9M210 580h1M212 580h2M220 580h1M222 580h2M237 580h1M247 580h1M253 580h6M265 580h9M275 580h1M280 580h6M289 580h1M294 580h3M298 580h1M300 580h7M313 580h3M320 580h8M341 580h3M353 580h3M362 580h2M365 580h1M372 580h1M376 580h9M210 581h1M220 581h1M222 581h2M237 581h1M247 581h1M253 581h6M265 581h9M275 581h1M277 581h2M280 581h6M289 581h1M294 581h3M298 581h1M300 581h7M313 581h3M320 581h8M341 581h3M353 581h3M362 581h2M365 581h1M372 581h3M376 581h9M210 582h1M220 582h1M222 582h3M237 582h1M247 582h1M253 582h6M265 582h9M275 582h1M277 582h2M280 582h6M287 582h1M294 582h3M298 582h1M300 582h7M314 582h2M320 582h8M341 582h4M353 582h3M362 582h2M365 582h1M372 582h3M376 582h10M210 583h2M220 583h1M222 583h3M237 583h1M247 583h1M253 583h6M265 583h2M268 583h6M275 583h1M277 583h2M280 583h8M293 583h4M298 583h1M300 583h7M314 583h3M320 583h8M341 583h4M352 583h4M362 583h2M365 583h1M372 583h3M376 583h10M392 583h1M210 584h2M220 584h1M222 584h4M237 584h1M247 584h1M253 584h6M265 584h2M268 584h6M275 584h1M277 584h2M280 584h8M293 584h4M298 584h1M300 584h7M314 584h3M320 584h8M341 584h4M352 584h4M362 584h2M365 584h1M372 584h3M376 584h10M392 584h1M210 585h2M220 585h1M222 585h4M236 585h1M247 585h1M250 585h9M265 585h2M268 585h6M275 585h1M277 585h2M280 585h8M293 585h4M298 585h1M300 585h7M314 585h3M320 585h8M341 585h3M352 585h4M362 585h2M365 585h1M372 585h3M376 585h10M391 585h2M208 586h5M220 586h1M223 586h4M236 586h1M247 586h1M250 586h9M265 586h2M268 586h6M275 586h1M277 586h2M280 586h8M293 586h4M298 586h1M300 586h7M314 586h3M320 586h8M341 586h3M345 586h1M352 586h4M362 586h2M365 586h2M372 586h3M376 586h10M391 586h2M208 587h5M220 587h1M223 587h4M236 587h1M247 587h1M250 587h9M265 587h2M268 587h6M275 587h1M277 587h2M280 587h8M293 587h4M298 587h1M300 587h7M314 587h3M320 587h8M341 587h3M345 587h1M352 587h4M362 587h2M365 587h2M372 587h3M376 587h10M391 587h2M208 588h6M220 588h1M223 588h5M236 588h1M247 588h1M250 588h9M264 588h3M268 588h1M270 588h4M277 588h2M280 588h8M293 588h4M298 588h9M314 588h3M320 588h8M341 588h3M345 588h2M351 588h5M362 588h2M365 588h2M372 588h3M376 588h10M390 588h3M208 589h6M220 589h1M223 589h5M232 589h3M236 589h1M248 589h1M250 589h9M264 589h3M268 589h1M270 589h4M277 589h2M280 589h8M293 589h4M298 589h9M313 589h4M320 589h8M341 589h2M345 589h2M351 589h5M362 589h2M365 589h2M372 589h3M376 589h10M390 589h3M209 590h6M220 590h1M223 590h6M232 590h3M236 590h1M248 590h1M250 590h9M264 590h3M268 590h1M270 590h4M277 590h2M280 590h8M293 590h4M298 590h9M313 590h5M320 590h8M341 590h6M348 590h2M351 590h5M362 590h2M365 590h1M372 590h3M376 590h10M390 590h3M209 591h6M220 591h1M223 591h6M232 591h3M236 591h1M250 591h9M264 591h3M268 591h1M270 591h4M277 591h2M280 591h8M293 591h4M298 591h9M313 591h5M319 591h9M341 591h6M348 591h2M351 591h5M362 591h2M372 591h14M389 591h4M206 592h1M209 592h7M219 592h2M223 592h7M232 592h3M236 592h1M250 592h9M264 592h3M268 592h1M270 592h4M277 592h2M280 592h8M293 592h4M298 592h9M313 592h5M319 592h8M341 592h6M348 592h2M351 592h5M362 592h4M372 592h14M389 592h4M206 593h1M210 593h6M220 593h1M223 593h7M232 593h3M250 593h9M264 593h3M268 593h1M270 593h4M280 593h8M293 593h4M298 593h9M313 593h14M341 593h6M348 593h8M362 593h4M372 593h14M389 593h4M206 594h1M210 594h7M219 594h2M224 594h6M232 594h3M250 594h17M268 594h1M270 594h4M275 594h1M277 594h2M280 594h8M293 594h4M298 594h9M313 594h14M338 594h2M341 594h6M348 594h8M362 594h4M372 594h14M388 594h5M206 595h3M210 595h7M219 595h2M224 595h7M232 595h3M250 595h17M268 595h1M271 595h3M275 595h4M280 595h8M293 595h4M298 595h9M311 595h1M313 595h14M338 595h2M341 595h15M362 595h4M372 595h14M388 595h5M206 596h3M211 596h7M219 596h2M224 596h7M232 596h3M250 596h17M268 596h1M271 596h3M275 596h4M280 596h8M291 596h6M298 596h9M311 596h1M313 596h14M338 596h2M341 596h15M362 596h4M372 596h14M388 596h5M206 597h3M211 597h10M224 597h7M232 597h3M250 597h17M268 597h1M271 597h3M275 597h4M280 597h17M298 597h9M311 597h1M313 597h14M338 597h2M341 597h15M362 597h5M372 597h14M387 597h6M206 598h3M211 598h10M224 598h7M232 598h3M250 598h17M268 598h1M271 598h3M275 598h4M280 598h17M298 598h1M300 598h7M310 598h2M313 598h14M338 598h18M362 598h24M387 598h6M206 599h3M211 599h10M224 599h7M250 599h17M268 599h1M271 599h3M275 599h4M280 599h17M298 599h1M300 599h7M310 599h2M313 599h14M338 599h18M362 599h24M387 599h6" />
<path stroke="#22144f" d="M862 537h1M862 538h2M863 539h2M864 540h2M864 541h2M864 542h2M863 543h3M862 544h4M861 545h5M860 546h6M859 547h7M858 548h8M858 549h8M858 550h8M859 551h7M811 552h1M860 552h5M812 553h1M860 553h5M813 554h1M860 554h5M813 555h2M860 555h5M814 556h2M859 556h6M815 557h2M859 557h6M815 558h3M858 558h7M816 559h3M857 559h8M816 560h1M818 560h2M856 560h9M816 561h1M819 561h2M816 562h1M820 562h1M817 563h1M821 563h1M817 564h1M821 564h2M817 565h1M822 565h1M818 566h1M822 566h2M818 567h1M823 567h1M818 568h1M823 568h2M819 569h6" />
<path stroke="#8153a1" d="M862 541h2M856 542h8M855 543h8M854 544h8M854 545h7M854 546h6M853 547h6M852 548h6M851 549h4M849 550h3M848 551h1M846 552h1M835 564h1M834 565h3" />
<path stroke="#a4a3bc" d="M769 544h12M766 545h17M764 546h20M763 547h21M763 548h21M763 549h21M764 550h19M765 551h17M766 552h14M768 553h10M770 554h5" />
<path stroke="#b67fda" d="M266 545h1M266 546h1M266 547h1M257 555h1M257 556h1M257 557h1M266 557h1M257 558h1M266 558h1M257 559h1M266 559h1M257 560h1M266 560h1M315 560h1M257 561h1M266 561h1M315 561h1M256 562h1M266 562h1M315 562h1M256 563h1M266 563h1M282 563h1M315 563h1M256 564h1M282 564h1M315 564h1M353 564h1M256 565h1M282 565h1M298 565h1M315 565h1M322 565h1M353 565h1M219 566h1M256 566h1M282 566h1M298 566h1M315 566h1M322 566h1M353 566h1M219 567h1M249 567h2M256 567h1M282 567h1M315 567h1M322 567h1M353 567h1M219 568h1M249 568h1M256 568h1M281 568h2M315 568h1M322 568h1M353 568h1M219 569h1M248 569h2M256 569h1M281 569h2M315 569h2M322 569h1M353 569h1M219 570h1M248 570h2M256 570h1M281 570h1M301 570h1M316 570h1M322 570h1M352 570h2M373 570h1M219 571h1M256 571h1M281 571h1M301 571h1M316 571h1M320 571h1M322 571h1M352 571h2M373 571h1M219 572h1M256 572h1M281 572h1M301 572h1M316 572h1M320 572h1M322 572h1M341 572h1M352 572h1M373 572h1M219 573h1M281 573h1M301 573h1M316 573h1M320 573h1M341 573h1M352 573h1M373 573h1M219 574h1M301 574h1M316 574h1M320 574h1M341 574h1M352 574h1M373 574h1M219 575h1M301 575h1M316 575h1M320 575h1M341 575h1M352 575h1M373 575h1M219 576h1M301 576h1M316 576h1M320 576h1M341 576h1M352 576h1M373 576h1M219 577h1M300 577h2M316 577h1M320 577h1M341 577h1M352 577h1M373 577h1M219 578h1M277 578h2M300 578h1M316 578h1M320 578h1M341 578h1M352 578h1M366 578h1M373 578h1M219 579h1M221 579h1M248 579h1M277 579h2M299 579h2M316 579h1M341 579h1M352 579h1M366 579h1M373 579h1M375 579h1M208 580h2M219 580h1M221 580h1M248 580h1M277 580h2M299 580h1M316 580h1M352 580h1M366 580h1M373 580h1M375 580h1M208 581h2M219 581h1M221 581h1M248 581h1M299 581h1M316 581h1M352 581h1M366 581h1M375 581h1M208 582h2M219 582h1M221 582h1M248 582h1M299 582h1M313 582h1M316 582h1M346 582h1M351 582h2M366 582h1M375 582h1M208 583h2M219 583h1M221 583h1M248 583h1M267 583h1M299 583h1M313 583h1M346 583h1M351 583h1M366 583h1M375 583h1M208 584h2M219 584h1M221 584h1M248 584h1M267 584h1M299 584h1M313 584h1M346 584h1M351 584h1M366 584h1M375 584h1M208 585h2M219 585h1M221 585h1M267 585h1M299 585h1M313 585h1M344 585h1M346 585h1M351 585h1M366 585h1M375 585h1M219 586h1M221 586h2M267 586h1M299 586h1M313 586h1M344 586h1M347 586h1M351 586h1M375 586h1M219 587h1M221 587h2M267 587h1M299 587h1M312 587h2M344 587h1M347 587h1M349 587h1M351 587h1M375 587h1M219 588h1M221 588h2M267 588h1M269 588h1M312 588h2M344 588h1M347 588h1M349 588h1M375 588h1M219 589h1M221 589h2M267 589h1M269 589h1M312 589h1M343 589h2M347 589h1M349 589h1M375 589h1M219 590h1M221 590h2M267 590h1M269 590h1M312 590h1M338 590h1M347 590h1M375 590h1M219 591h1M221 591h2M267 591h1M269 591h1M312 591h1M338 591h1M347 591h1M221 592h2M267 592h1M269 592h1M312 592h1M338 592h1M347 592h1M219 593h1M221 593h2M267 593h1M269 593h1M312 593h1M338 593h1M347 593h1M221 594h3M267 594h1M269 594h1M312 594h1M347 594h1M221 595h3M267 595h1M269 595h2M312 595h1M221 596h3M267 596h1M269 596h2M312 596h1M221 597h3M267 597h1M269 597h2M312 597h1M221 598h3M267 598h1M269 598h2M299 598h1M312 598h1M221 599h3M267 599h1M269 599h2M299 599h1M312 599h1" />
<path stroke="#54506a" d="M783 545h1M784 546h2M784 547h3M784 548h2M784 549h1M763 550h1M783 550h1M763 551h2M782 551h1M763 552h3M780 552h1M763 553h5M778 553h2M764 554h6M775 554h4M766 555h10M769 556h9" />
<path stroke="#11002b" d="M866 545h1M866 546h1M866 547h1M866 548h1M866 549h1M866 550h1M866 551h1M866 552h1" />
<path stroke="#ccc4f6" d="M662 557h1M661 558h1M660 559h1M657 560h1M667 569h1" />
<path stroke="#432869" d="M855 561h1M854 562h1M852 563h2M850 564h3M847 565h4M844 566h5M842 567h6M840 568h8M838 569h10M840 570h7" />
<path stroke="#0c0612" d="M653 562h1M653 563h2M653 564h2M655 565h1M654 566h6M688 566h1M652 567h3M661 567h1M682 567h4M690 567h1M662 568h1M680 568h6M662 569h1M663 570h1M672 570h1M675 570h2M663 571h2M673 571h4M664 572h2M672 572h4M666 573h7" />
<path stroke="#a562b9" d="M798 563h3M796 564h7M795 565h5M793 566h5M793 567h1M788 572h1" />
</svg>