<svg xmlns="http://www.w3.org/2000/svg" viewBox="0 -0.5 960 600" shape-rendering="crispEdges">
<metadata>Made with Pixels to Svg https://codepen.io/shshaw/pen/XbxvNj</metadata>
<path stroke="rgba(215,90,90,0.2)" d="M53 0h100M335 0h102M52 1h100M336 1h102M51 2h99M338 2h101M51 3h98M339 3h100M50 4h97M341 4h99M49 5h97M342 5h99M49 6h96M343 6h98M48 7h96M344 7h98M47 8h95M346 8h97M47 9h94M347 9h96M46 10h94M348 10h96M45 11h93M350 11h95M45 12h92M351 12h94M44 13h92M352 13h94M44 14h91M353 14h93M43 15h91M354 15h93M43 16h90M355 16h92M42 17h90M356 17h92M41 18h90M357 18h92M41 19h89M358 19h91M40 20h89M359 20h91M40 21h88M360 21h90M39 22h88M361 22h90M38 23h88M362 23h90M38 24h87M363 24h89M37 25h87M364 25h89M37 26h86M365 26h88M36 27h86M366 27h88M36 28h85M367 28h87M35 29h85M368 29h87M35 30h84M369 30h86M34 31h85M369 31h87M34 32h84M370 32h86M34 33h83M371 33h85M33 34h83M372 34h85M33 35h83M372 35h85M32 36h83M373 36h85M32 37h82M374 37h84M31 38h82M375 38h84M31 39h81M376 39h83M30 40h82M376 40h84M30 41h81M377 41h83M29 42h81M378 42h83M29 43h81M378 43h83M28 44h81M379 44h83M28 45h80M380 45h82M28 46h79M381 46h81M27 47h80M381 47h82M27 48h79M382 48h81M26 49h80M382 49h82M26 50h79M383 50h81M26 51h79M383 51h81M25 52h79M384 52h81M25 53h78M385 53h80M24 54h79M385 54h81M24 55h78M386 55h80M24 56h77M387 56h79M23 57h78M387 57h80M23 58h78M387 58h80M23 59h77M388 59h79M22 60h77M389 60h79M22 61h77M389 61h79M22 62h76M390 62h78M21 63h77M390 63h79M21 64h76M391 64h78M21 65h76M391 65h78M20 66h76M392 66h78M20 67h76M392 67h78M20 68h76M392 68h78M19 69h76M393 69h78M19 70h76M393 70h78M19 71h75M394 71h77M19 72h75M394 72h77M18 73h75M395 73h77M18 74h75M395 74h77M18 75h75M395 75h77M17 76h75M396 76h77M17 77h75M396 77h77M17 78h74M397 78h76M17 79h74M397 79h76M17 80h74M397 80h76M16 81h74M398 81h76M16 82h74M398 82h76M16 83h73M399 83h75M16 84h73M399 84h75M15 85h74M399 85h76M15 86h74M399 86h76M15 87h73M400 87h75M15 88h73M400 88h75M15 89h73M400 89h75M14 90h73M401 90h75M14 91h73M401 91h75M14 92h73M401 92h75M14 93h73M401 93h75M14 94h72M402 94h74M13 95h73M402 95h75M13 96h73M402 96h75M13 97h73M402 97h75M13 98h72M403 98h74M13 99h72M403 99h74M13 100h72M403 100h74M12 101h73M403 101h75M12 102h72M404 102h74M12 103h72M404 103h74M12 104h72M404 104h74M12 105h72M404 105h74M12 106h72M404 106h74M12 107h71M405 107h73M12 108h71M405 108h73M12 109h71M405 109h73M11 110h72M405 110h74M11 111h72M405 111h74M11 112h72M405 112h74M11 113h72M405 113h74M11 114h71M406 114h73M11 115h71M406 115h73M11 116h71M406 116h73M11 117h71M406 117h73M11 118h71M406 118h73M11 119h71M406 119h73M10 120h72M406 120h74M10 121h72M406 121h74M10 122h72M406 122h74M10 123h71M407 123h73M10 124h71M407 124h73M10 125h71M407 125h73M10 126h71M407 126h73M10 127h71M407 127h73M10 128h71M407 128h73M10 129h71M407 129h73M10 130h71M407 130h73M10 131h71M407 131h73M10 132h71M407 132h73M10 133h71M407 133h73M10 134h71M407 134h73M10 135h71M407 135h73M10 136h71M407 136h73M10 137h71M407 137h73M10 138h71M407 138h73M10 139h71M407 139h73M10 140h71M407 140h73M10 141h71M407 141h73M10 142h71M407 142h73M10 143h71M407 143h73M10 144h71M407 144h73M10 145h71M407 145h73M10 146h71M407 146h73M10 147h71M407 147h73M10 148h71M407 148h73M10 149h72M406 149h74M10 150h72M406 150h74M10 151h72M406 151h74M11 152h71M406 152h73M11 153h71M406 153h73M11 154h71M406 154h73M11 155h71M406 155h73M11 156h71M406 156h73M11 157h71M406 157h73M11 158h72M405 158h74M11 159h72M405 159h74M11 160h72M405 160h74M11 161h72M405 161h74M12 162h71M405 162h73M12 163h71M405 163h73M12 164h71M405 164h73M12 165h72M404 165h74M12 166h72M404 166h74M12 167h72M404 167h74M12 168h72M404 168h74M12 169h72M404 169h74M12 170h73M403 170h75M13 171h72M403 171h74M13 172h72M403 172h74M13 173h72M403 173h74M13 174h73M402 174h75M13 175h73M402 175h75M13 176h73M402 176h75M14 177h72M402 177h74M14 178h73M401 178h75M14 179h73M401 179h75M14 180h73M401 180h75M14 181h73M401 181h75M15 182h73M400 182h75M15 183h73M400 183h75M15 184h73M400 184h75M15 185h74M399 185h76M15 186h74M399 186h76M16 187h73M399 187h75M16 188h73M399 188h75M16 189h74M398 189h76M16 190h74M398 190h76M17 191h74M397 191h76M17 192h74M397 192h76M17 193h74M397 193h76M17 194h75M396 194h77M17 195h75M396 195h77M18 196h75M395 196h77M18 197h75M395 197h77M18 198h75M395 198h77M19 199h75M394 199h77M19 200h75M394 200h77M19 201h76M393 201h78M19 202h76M393 202h78M20 203h76M392 203h78M20 204h76M392 204h78M20 205h76M392 205h78M21 206h76M391 206h78M21 207h76M391 207h78M21 208h77M390 208h79M22 209h76M390 209h78M22 210h77M389 210h79M22 211h77M389 211h79M23 212h77M388 212h79M23 213h78M387 213h80M23 214h78M387 214h80M24 215h77M387 215h79M24 216h78M386 216h80M24 217h79M385 217h81M25 218h78M385 218h80M25 219h79M384 219h81M26 220h79M383 220h81M26 221h79M383 221h81M26 222h80M382 222h82M27 223h79M382 223h81M27 224h80M381 224h82M28 225h79M381 225h81M28 226h80M380 226h82M28 227h81M379 227h83M29 228h81M378 228h83M29 229h81M378 229h83M30 230h81M377 230h83M30 231h82M376 231h84M31 232h81M376 232h83M31 233h82M375 233h84M32 234h82M374 234h84M32 235h83M373 235h85M33 236h83M372 236h85M33 237h83M372 237h85M34 238h83M371 238h85M34 239h84M370 239h86M34 240h85M369 240h87M35 241h84M369 241h86M35 242h85M368 242h87M36 243h85M367 243h87M36 244h86M366 244h88M37 245h86M365 245h88M37 246h87M364 246h89M38 247h87M363 247h89M38 248h88M362 248h90M39 249h88M361 249h90M40 250h88M360 250h90M40 251h89M359 251h91M41 252h89M358 252h91M41 253h90M357 253h92M42 254h90M356 254h92M43 255h90M355 255h92M43 256h91M354 256h93M44 257h91M353 257h93M44 258h92M352 258h94M45 259h92M351 259h94M45 260h93M350 260h95M46 261h94M348 261h96M47 262h94M347 262h96M47 263h95M346 263h97M48 264h96M344 264h98M49 265h96M343 265h98M49 266h97M342 266h99M50 267h97M341 267h99M51 268h98M339 268h100M51 269h99M338 269h101M52 270h100M336 270h102M53 271h100M335 271h102M53 272h101M334 272h103M54 273h102M332 273h104M55 274h103M330 274h105M56 275h104M328 275h106M56 276h105M327 276h107M57 277h106M325 277h108M58 278h106M324 278h108M58 279h109M321 279h111M59 280h109M320 280h111M60 281h110M318 281h112M61 282h111M316 282h113M62 283h112M314 283h114M63 284h114M311 284h116M63 285h116M309 285h118M64 286h117M307 286h119M65 287h119M304 287h121M66 288h120M302 288h122M67 289h122M299 289h124M67 290h124M297 290h126M68 291h127M293 291h129M70 292h128M290 292h130M71 293h131M286 293h133M71 294h135M282 294h137M72 295h138M278 295h140M73 296h142M273 296h144M74 297h148M266 297h150M75 298h156M257 298h158M76 299h338M77 300h336M78 301h334M79 302h332M80 303h330M81 304h328M82 305h326M83 306h324M84 307h322M85 308h320M86 309h318M88 310h314M89 311h312M89 312h312M90 313h310M92 314h306M93 315h304M94 316h302M95 317h300M97 318h296M98 319h294M99 320h292M100 321h290M101 322h288M103 323h284M104 324h282M106 325h278M107 326h276M108 327h274M110 328h270M111 329h268M113 330h264M114 331h262M116 332h258M117 333h256M119 334h252M120 335h250M122 336h246M124 337h242M126 338h238M127 339h236M129 340h232M131 341h228M132 342h226M134 343h222M136 344h218M138 345h214M140 346h210M143 347h204M145 348h200M147 349h196M149 350h192M151 351h188M153 352h184M156 353h178M158 354h174M161 355h168M163 356h164M166 357h158M169 358h152M172 359h146M175 360h140M178 361h134M182 362h126M185 363h120M190 364h110M194 365h102M199 366h92M204 367h82M210 368h70M219 369h52M229 370h32" />
<path stroke="rgba(214,92,92,0.4588235294117647)" d="M153 0h182M152 1h184M150 2h188M149 3h190M147 4h194M146 5h196M145 6h198M144 7h200M142 8h204M141 9h206M140 10h208M138 11h212M137 12h214M136 13h216M135 14h218M134 15h220M133 16h222M132 17h224M131 18h226M130 19h228M129 20h230M128 21h232M127 22h234M126 23h236M125 24h238M124 25h240M123 26h242M122 27h244M121 28h246M120 29h248M119 30h250M119 31h250M118 32h252M117 33h254M116 34h256M116 35h256M115 36h258M114 37h260M113 38h262M112 39h264M112 40h264M111 41h266M110 42h268M110 43h268M109 44h270M108 45h272M107 46h274M107 47h274M106 48h276M106 49h276M105 50h278M105 51h278M104 52h280M103 53h282M103 54h282M102 55h284M101 56h286M101 57h286M101 58h286M100 59h288M99 60h290M99 61h290M98 62h292M98 63h292M97 64h294M97 65h294M96 66h296M96 67h296M96 68h296M95 69h298M95 70h298M94 71h300M94 72h300M93 73h302M93 74h302M93 75h302M92 76h304M92 77h304M91 78h306M91 79h306M91 80h306M90 81h308M90 82h308M89 83h310M89 84h310M89 85h310M89 86h310M88 87h312M88 88h312M88 89h312M87 90h314M87 91h154M252 91h149M87 92h149M257 92h144M87 93h145M261 93h140M86 94h144M263 94h139M86 95h141M266 95h136M86 96h139M268 96h134M86 97h138M269 97h133M85 98h137M271 98h132M85 99h136M272 99h131M85 100h134M274 100h129M85 101h133M275 101h128M84 102h133M276 102h128M84 103h132M277 103h127M84 104h131M278 104h126M84 105h130M279 105h125M84 106h129M280 106h124M83 107h129M281 107h124M83 108h128M282 108h123M83 109h128M282 109h123M83 110h127M283 110h122M83 111h126M284 111h121M83 112h126M284 112h121M83 113h125M285 113h120M82 114h125M286 114h120M82 115h125M286 115h120M82 116h124M287 116h119M82 117h124M287 117h119M82 118h124M287 118h119M82 119h123M288 119h118M82 120h123M288 120h118M82 121h122M289 121h117M82 122h122M289 122h117M81 123h123M289 123h118M81 124h123M289 124h118M81 125h122M290 125h117M81 126h122M290 126h117M81 127h122M290 127h117M81 128h122M290 128h117M81 129h122M290 129h117M81 130h121M291 130h116M81 131h121M291 131h116M81 132h121M291 132h116M81 133h121M291 133h116M81 134h121M291 134h116M81 135h121M291 135h116M81 136h121M291 136h116M81 137h121M291 137h116M81 138h121M291 138h116M81 139h121M291 139h116M81 140h121M291 140h116M81 141h122M290 141h117M81 142h122M290 142h117M81 143h122M290 143h117M81 144h122M290 144h117M81 145h122M290 145h117M81 146h123M289 146h118M81 147h123M289 147h118M81 148h123M289 148h118M82 149h122M289 149h117M82 150h123M288 150h118M82 151h123M288 151h118M82 152h124M287 152h119M82 153h124M287 153h119M82 154h124M287 154h119M82 155h125M286 155h120M82 156h125M286 156h120M82 157h126M285 157h121M83 158h126M284 158h121M83 159h126M284 159h121M83 160h127M283 160h122M83 161h128M282 161h123M83 162h128M282 162h123M83 163h129M281 163h124M83 164h130M280 164h125M84 165h130M279 165h125M84 166h131M278 166h126M84 167h132M277 167h127M84 168h133M276 168h128M84 169h134M275 169h129M85 170h134M274 170h129M85 171h136M272 171h131M85 172h137M271 172h132M85 173h139M269 173h134M86 174h139M268 174h134M86 175h141M266 175h136M86 176h144M263 176h139M86 177h146M261 177h141M87 178h149M257 178h144M87 179h154M252 179h149M87 180h314M87 181h314M88 182h312M88 183h312M88 184h312M89 185h310M89 186h310M89 187h310M89 188h310M90 189h308M90 190h308M91 191h306M91 192h306M91 193h306M92 194h304M92 195h304M93 196h302M93 197h302M93 198h302M94 199h300M94 200h300M95 201h298M95 202h298M96 203h296M96 204h296M96 205h296M97 206h294M97 207h294M98 208h292M98 209h292M99 210h290M99 211h290M100 212h288M101 213h286M101 214h286M101 215h286M102 216h284M103 217h282M103 218h282M104 219h280M105 220h278M105 221h278M106 222h276M106 223h276M107 224h274M107 225h274M108 226h272M109 227h270M110 228h268M110 229h268M111 230h266M112 231h264M112 232h264M113 233h262M114 234h260M115 235h258M116 236h256M116 237h256M117 238h254M118 239h252M119 240h250M119 241h250M120 242h248M121 243h246M122 244h244M123 245h242M124 246h240M125 247h238M126 248h236M127 249h234M128 250h232M129 251h230M130 252h228M131 253h226M132 254h224M133 255h222M134 256h220M135 257h218M136 258h216M137 259h214M138 260h212M140 261h208M141 262h206M142 263h204M144 264h200M145 265h198M146 266h196M147 267h194M149 268h190M150 269h188M152 270h184M153 271h182M154 272h180M156 273h176M158 274h172M160 275h168M161 276h166M163 277h162M164 278h160M167 279h154M168 280h152M170 281h148M172 282h144M174 283h140M177 284h134M179 285h130M181 286h126M184 287h120M186 288h116M189 289h110M191 290h106M195 291h98M198 292h92M202 293h84M206 294h76M210 295h68M215 296h58M222 297h44M231 298h26" />
<path stroke="rgba(231,69,69,0.592156862745098)" d="M241 91h11M236 92h21M232 93h29M230 94h33M227 95h39M225 96h43M224 97h45M222 98h49M221 99h51M219 100h55M218 101h57M217 102h59M216 103h61M215 104h63M214 105h65M213 106h67M212 107h69M211 108h71M211 109h71M210 110h73M209 111h75M209 112h75M208 113h77M207 114h79M207 115h79M206 116h81M206 117h81M206 118h81M205 119h83M205 120h83M204 121h85M204 122h85M204 123h85M204 124h85M203 125h87M203 126h87M203 127h87M203 128h87M203 129h87M202 130h89M202 131h89M202 132h89M202 133h89M202 134h89M202 135h89M202 136h89M202 137h89M202 138h89M202 139h89M202 140h89M203 141h87M203 142h87M203 143h87M203 144h87M203 145h87M204 146h85M204 147h85M204 148h85M204 149h85M205 150h83M205 151h83M206 152h81M206 153h81M206 154h81M207 155h79M207 156h79M208 157h77M209 158h75M209 159h75M210 160h73M211 161h71M211 162h71M212 163h69M213 164h67M214 165h65M215 166h63M216 167h61M217 168h59M218 169h57M219 170h55M221 171h51M222 172h49M224 173h45M225 174h43M227 175h39M230 176h33M232 177h29M236 178h21M241 179h11" />
</svg>