<svg xmlns="http://www.w3.org/2000/svg" viewBox="0 -0.5 960 600" shape-rendering="crispEdges">
<metadata>Made with Pixels to Svg https://codepen.io/shshaw/pen/XbxvNj</metadata>
<path stroke="rgba(255,0,0,0.1607843137254902)" d="M190 169h1M190 170h2M190 171h3M189 172h5M189 173h6M189 174h7M189 175h8M188 176h10M188 177h11M188 178h11M187 179h12M187 180h12M186 181h13M186 182h13M185 183h14M184 184h15M183 185h16M181 186h18M180 187h19M181 188h18M181 189h18M181 190h17M181 191h17M181 192h17M181 193h17M181 194h17M181 195h17M181 196h17M181 197h17M181 198h17M182 199h16M182 200h16M182 201h16M182 202h15M182 203h15M182 204h15M182 205h7M182 206h15M182 207h15M182 208h15M182 209h15M182 210h15M182 211h14M182 212h13M182 213h13M182 214h12M182 215h13M197 215h4M182 216h19M181 217h20M181 218h19M181 219h19M181 220h19M180 221h20M181 222h19M181 223h19M181 224h20M182 225h19M183 226h18M184 227h18M185 228h18M172 229h32M190 230h15M189 231h2M188 232h22M188 233h1M229 235h1M234 235h3M240 235h1M232 236h4M239 236h1M242 236h1M231 237h4M238 237h1M241 237h1M232 238h1M237 238h1M240 238h1M236 239h1M239 239h1M234 240h2M238 240h1" />
<path stroke="rgba(255,160,0,0.4196078431372549)" d="M207 170h2M206 171h5M205 172h7M204 173h9M203 174h11M202 175h13M201 176h15M200 177h17M200 178h18M201 179h18M202 180h18M203 181h18M204 182h18M205 183h18M206 184h18M207 185h18M208 186h18M215 187h12M210 188h18M211 189h24M212 190h18M213 191h18M214 192h18M216 193h17M218 194h16M217 195h1M222 195h14M219 196h19M224 197h13M238 197h4M225 198h14M221 199h2M227 199h17M222 200h3M228 200h17M222 201h4M229 201h12M243 201h4M223 202h4M230 202h12M245 202h3M224 203h4M230 203h12M225 204h16M226 205h11M227 206h5" />
<path stroke="rgba(255,119,0,0.5137254901960784)" d="M199 178h1M199 179h2M199 180h3M199 181h4M199 182h5M199 183h6M199 184h7M199 185h8M199 186h9M199 187h16M199 188h11M199 189h12M198 190h14M198 191h15M198 192h16M198 193h18M198 194h20M198 195h19M218 195h4M198 196h21M198 197h26M198 198h27M198 199h23M223 199h4M198 200h24M225 200h3M198 201h24M226 201h3M197 202h26M227 202h3M197 203h27M228 203h2M197 204h28M193 205h33M198 206h29M205 207h20" />
<path stroke="rgba(255,117,0,0.4196078431372549)" d="M246 203h3M241 204h2M247 204h3M237 205h7M248 205h2M232 206h13M228 207h18M229 208h18M230 209h18M230 210h1M232 210h17M233 211h17M234 212h16M251 212h1M235 213h18M234 214h1M236 214h18M234 215h1M237 215h18M234 216h1M238 216h16M255 216h1M234 217h1M238 217h16M255 217h2M234 218h1M238 218h16M255 218h3M234 219h1M238 219h16M255 219h3M234 220h1M238 220h2M241 220h13M255 220h3M234 221h1M238 221h2M241 221h13M255 221h3M234 222h1M238 222h2M241 222h13M255 222h3M260 222h1M234 223h1M238 223h2M242 223h12M255 223h3M260 223h1M233 224h2M238 224h2M242 224h12M255 224h3M260 224h1M233 225h1M238 225h2M242 225h12M255 225h3M260 225h2M237 226h3M242 226h3M246 226h7M255 226h3M260 226h2M237 227h3M242 227h3M246 227h7M254 227h4M260 227h2M237 228h3M242 228h2M245 228h12M260 228h2M265 228h1M236 229h3M241 229h3M245 229h12M260 229h2M265 229h1M236 230h3M241 230h2M244 230h13M260 230h2M264 230h1M235 231h3M240 231h3M244 231h12M259 231h2M264 231h1M230 232h1M234 232h3M239 232h3M243 232h13M259 232h2M263 232h1M209 233h21M233 233h3M239 233h3M243 233h12M258 233h2M263 233h1M208 234h20M231 234h4M238 234h3M242 234h8M251 234h3M257 234h2M262 234h1M208 235h1M250 235h3M256 235h3M262 235h1M248 236h3M255 236h3M261 236h1M249 237h1M254 237h3M260 237h1M252 238h4M259 238h1M262 238h1M251 239h4M258 239h1M261 239h1M252 240h1M257 240h1M260 240h1M256 241h1M259 241h1M254 242h2M258 242h1" />
<path stroke="rgba(255,80,0,0.5137254901960784)" d="M189 205h4M197 206h1M197 207h8M225 207h3M197 208h32M197 209h33M197 210h33M231 210h1M196 211h37M195 212h39M195 213h40M194 214h40M235 214h1M195 215h2M201 215h33M235 215h2M201 216h33M235 216h3M201 217h33M235 217h3M200 218h34M235 218h3M200 219h34M235 219h3M200 220h34M235 220h3M240 220h1M200 221h34M235 221h3M240 221h1M200 222h34M235 222h3M240 222h1M200 223h34M235 223h3M240 223h2M201 224h32M235 224h3M240 224h2M201 225h32M234 225h4M240 225h2M201 226h36M240 226h2M245 226h1M202 227h35M240 227h2M245 227h1M203 228h34M240 228h2M244 228h1M204 229h32M239 229h2M244 229h1M205 230h31M239 230h2M243 230h1M191 231h44M238 231h2M243 231h1M210 232h20M231 232h3M237 232h2M242 232h1M230 233h3M236 233h3M242 233h1M228 234h3M235 234h3M241 234h1" />
</svg>