<svg xmlns="http://www.w3.org/2000/svg" viewBox="0 -0.5 960 600" shape-rendering="crispEdges">
<metadata>Made with Pixels to Svg https://codepen.io/shshaw/pen/XbxvNj</metadata>
<path stroke="#262261" d="M245 118h1M244 119h1M246 119h1M243 120h1M247 120h1M242 121h1M248 121h1M241 122h1M249 122h1M240 123h1M250 123h1M239 124h1M251 124h1M238 125h1M252 125h1M237 126h1M253 126h1M236 127h1M254 127h1M235 128h1M255 128h1M234 129h1M256 129h1M233 130h1M257 130h1M232 131h1M258 131h1M231 132h1M259 132h1M230 133h1M260 133h1M229 134h1M261 134h1M228 135h1M262 135h1M229 136h1M253 136h1M261 136h1M230 137h1M252 137h1M260 137h1M231 138h1M251 138h1M259 138h1M232 139h1M250 139h1M258 139h1M233 140h1M243 140h1M247 140h1M249 140h1M257 140h1M234 141h1M244 141h3M248 141h1M256 141h1M235 142h1M245 142h1M247 142h1M255 142h1M236 143h1M246 143h1M254 143h2M236 144h2M253 144h3M236 145h3M252 145h4M236 146h4M251 146h5M236 147h1M240 147h1M250 147h1M254 147h2M237 148h1M241 148h1M249 148h1M253 148h2M237 149h1M242 149h1M248 149h1M253 149h2M237 150h1M243 150h1M247 150h1M253 150h2M238 151h1M244 151h1M246 151h1M252 151h2M238 152h1M245 152h1M252 152h2M238 153h1M252 153h2M239 154h1M252 154h1M239 155h1M251 155h2M239 156h1M251 156h2M240 157h1M250 157h2M240 158h1M248 158h4M240 159h12M243 160h6M243 161h6M243 162h4M243 163h1M243 164h1M243 165h1M243 166h1M243 167h1M243 168h1M243 169h1M243 170h1M243 171h1M243 172h1M248 172h1M243 173h1M248 173h1M243 174h1M247 174h2M243 175h1M247 175h2M243 176h1M245 176h4M243 177h1M245 177h4M243 178h1M245 178h4M243 179h1M245 179h4M243 180h1M245 180h4M243 181h1M245 181h4M243 182h1M245 182h4M243 183h1M245 183h4M243 184h1M245 184h4M243 185h1M245 185h4M243 186h1M245 186h4M243 187h6M243 188h1M245 188h4M243 189h6M243 190h6M243 191h1M245 191h4M243 192h1M245 192h4M243 193h1M245 193h4M243 194h1M245 194h4M243 195h1M245 195h4M243 196h1M245 196h4M243 197h1M245 197h4M248 387h1M247 388h2M246 389h3M246 390h3M245 391h4M245 392h2M145 516h2M145 517h2M145 518h2M145 519h2M145 520h2M145 521h2M145 522h2M145 523h2M145 524h2M145 525h2M145 526h2M145 527h2M145 528h2M145 529h3" />
<path stroke="#ffc2de" d="M245 119h1M245 120h1M245 121h1M245 122h1M245 123h1M245 124h1M245 125h1M245 126h1M245 127h1M244 128h1M246 128h1M243 129h1M245 129h1M242 130h1M248 130h1M241 131h1M249 131h1M240 132h1M250 132h1M239 133h1M251 133h1M238 134h1M252 134h1M229 135h8M241 135h1M253 135h9" />
<path stroke="#ff0000" d="M244 120h1M243 121h2M242 122h3M241 123h4M240 124h5M246 124h1M239 125h5M246 125h2M238 126h5M247 126h2M237 127h5M248 127h2M236 128h5M245 128h1M249 128h2M235 129h5M244 129h1M246 129h1M250 129h2M234 130h5M243 130h1M245 130h1M247 130h1M251 130h2M233 131h5M242 131h1M244 131h1M246 131h1M248 131h1M252 131h2M232 132h5M241 132h9M253 132h2M231 133h5M240 133h11M254 133h2M231 134h1M233 134h1M239 134h13M255 134h2M243 135h10M235 136h3M257 136h1M259 136h1M236 137h3M256 137h1M258 137h1M237 138h3M255 138h1M257 138h1M238 139h3M254 139h1M256 139h1M239 140h3M253 140h1M255 140h1M240 141h3M252 141h1M254 141h1M241 142h3M251 142h1M253 142h1M242 143h3M250 143h1M252 143h1M243 144h2M249 144h1M251 144h1M244 145h1M248 145h1M250 145h1M247 146h1M249 146h1M246 147h1M248 147h1M247 148h1M246 149h1M233 405h6M233 406h6M233 407h6M233 408h6M233 409h6M233 410h6M233 411h6M233 412h6M233 413h6M233 414h6M233 415h6M233 416h6M233 417h6M233 418h6M233 419h6M233 420h6M233 421h6M233 422h6" />
<path stroke="#5c0a2e" d="M246 120h1M246 121h2M246 122h3M246 123h1M248 123h2M247 124h1M249 124h2M244 125h1M248 125h1M250 125h2M243 126h2M249 126h1M251 126h2M242 127h3M250 127h1M252 127h2M241 128h3M251 128h1M253 128h2M240 129h3M252 129h1M254 129h2M239 130h3M253 130h1M255 130h2M238 131h3M254 131h1M256 131h2M237 132h3M255 132h1M257 132h2M236 133h3M256 133h1M258 133h2M230 134h1M232 134h1M234 134h4M257 134h1M259 134h2M230 136h5M254 136h3M235 137h1M253 137h3M236 138h1M252 138h3M237 139h1M251 139h3M238 140h1M250 140h3M239 141h1M249 141h3M240 142h1M248 142h3M241 143h1M247 143h3M242 144h1M246 144h3M243 145h1M246 145h2M244 146h1M246 146h1M244 147h1M244 148h1M244 149h1M244 150h1" />
<path stroke="#7f002b" d="M247 123h1M248 124h1M249 125h1M250 126h1M251 127h1M252 128h1M253 129h1M254 130h1M255 131h1M256 132h1M239 135h2M242 135h1M239 136h2" />
<path stroke="#ff8291" d="M246 126h1M246 127h2M247 128h2M247 129h3M249 130h2M250 131h2M251 132h2M252 133h2M253 134h2M237 135h2M238 136h1M252 136h1M258 136h1M260 136h1M239 137h1M251 137h1M257 137h1M259 137h1M240 138h1M250 138h1M256 138h1M258 138h1M241 139h1M249 139h1M255 139h1M257 139h1M242 140h1M248 140h1M254 140h1M256 140h1M243 141h1M247 141h1M253 141h1M255 141h1M244 142h1M246 142h1M252 142h1M254 142h1M245 143h1M251 143h1M253 143h1M245 144h1M250 144h1M252 144h1M245 145h1M249 145h1M251 145h1M245 146h1M248 146h1M250 146h1M245 147h1M247 147h1M249 147h1M245 148h2M248 148h1M245 149h1M247 149h1M245 150h2M245 151h1" />
<path stroke="#ff5566" d="M244 130h1M246 130h1M243 131h1M245 131h1M247 131h1M242 136h1" />
<path stroke="#8f0030" d="M257 133h1M258 134h1M241 136h1M243 136h9M231 137h4M240 137h11M232 138h4M241 138h9M233 139h4M242 139h7M234 140h4M244 140h3M235 141h4M236 142h4M237 143h4M238 144h4M239 145h4M240 146h4M241 147h3M242 148h2M243 149h1" />
<path stroke="#2f079e" d="M237 147h3M251 147h3M238 148h3M250 148h3M238 149h4M249 149h4M238 150h5M248 150h5M239 151h5M247 151h5M239 152h6M246 152h6M239 153h13M240 154h12M240 155h11M240 156h11M241 157h9M241 158h7" />
<path stroke="#3500c8" d="M247 162h2M244 163h5M244 164h5M244 165h5M244 166h5M244 167h5M244 168h5M244 169h5M244 170h5M244 171h5M244 172h4M244 173h4M244 174h3M244 175h3M244 176h1M244 177h1M244 178h1M244 179h1M244 180h1M244 181h1M244 183h1M244 184h1M244 185h1" />
<path stroke="#9c30ff" d="M244 182h1M244 186h1" />
<path stroke="#8d5cd6" d="M244 188h1M244 191h1M244 192h1M244 193h1M244 194h1M244 195h1M244 196h1M244 197h1M244 198h1M244 199h1M244 200h1M244 201h1M244 202h1M244 203h1M244 204h1M244 205h1M244 206h1M244 207h1M244 208h1M244 209h1M244 210h1M244 211h1M244 212h1M244 213h1M244 214h1M244 215h1M244 216h1M244 217h1M244 218h1M244 219h1M244 220h1M244 221h1M244 222h1M244 223h1M244 224h1M244 225h1M244 226h1M244 227h1M244 228h1M244 229h1M244 230h1M244 231h1M244 232h1M244 233h1M244 234h1M244 235h1M244 236h1M244 237h1M244 238h1M244 239h1M244 240h1M244 241h1M244 242h1M244 243h1M244 244h1M244 245h1M244 246h1M244 247h1M244 248h1M244 249h1M244 250h1M244 251h1M244 252h1M244 253h1M244 254h1M244 255h1M244 256h1M244 257h1M244 258h1M244 259h1M244 260h1M244 261h1M244 262h1M244 263h1M244 264h1M244 265h1M244 266h1M244 267h1M244 268h1M244 269h1M244 270h1M244 271h1M244 272h1M244 273h1M244 274h1M244 275h1M244 276h1M244 277h1M244 278h1M244 279h1M244 280h1M244 281h1M244 282h1M244 283h1M244 284h1M244 285h1M244 286h1M244 287h1M244 288h1M244 289h1M244 290h1M244 291h1M244 292h1M244 293h1M244 294h1M244 295h1M244 296h1M244 297h1M244 298h1M244 299h1M244 300h1M244 301h1M244 302h1M244 303h1M244 304h1M244 305h1M244 306h1M244 307h1M244 308h1M244 309h1M244 310h1M244 311h1M244 312h1M244 313h1M244 314h1M244 315h1M244 316h1M244 317h1M244 318h1M244 319h1M244 320h1M244 321h1M244 322h1M244 323h1M244 324h1M244 325h1M244 326h1M244 327h1M244 328h1M244 329h1M244 330h1M244 331h1M244 332h1M244 333h1M244 334h1M244 335h1M244 336h1M244 337h1M244 338h1M244 339h1M244 340h1M244 341h1M244 342h1M244 343h1M244 344h1M244 345h1M244 346h1M244 347h1M244 348h1M244 349h1M244 350h1M244 351h1M244 352h1M244 353h1M244 354h1M244 355h1M244 356h1M244 357h1M244 358h1M244 359h1M244 360h1M244 361h1M244 362h1M244 363h1M244 364h1M244 365h1M244 366h1M244 367h1M244 368h1M244 369h1M244 370h1M244 371h1M244 372h1M244 373h1M244 374h1M244 375h1M244 376h1M244 377h1M244 378h1M244 379h1M244 380h1M244 381h1M244 382h1M244 383h1M244 384h1M244 385h1M244 386h1M244 387h1M244 388h1M244 389h1M244 390h1M244 391h1M244 392h1M244 393h1M244 394h1M244 395h1M244 396h1M244 397h1M244 398h1M244 399h1M244 400h1M244 401h1M244 402h1M244 403h1M244 405h1M244 406h1M244 407h1M244 408h1M244 409h1M244 410h1M244 411h1M244 412h1M244 413h1M244 414h1M244 415h1M244 416h1M244 417h1M244 418h1M244 419h1M244 420h1M244 421h1M244 422h1M244 423h1M244 424h1M244 425h1M244 426h1M244 427h1M244 428h1M244 429h1M244 430h1M244 431h1M244 432h1M244 433h1M244 434h1M244 435h1M244 436h1M244 437h1M244 438h1M244 439h1M244 440h1M244 441h1M244 442h1M244 443h1M244 444h1M244 445h1M244 446h1M244 447h1M244 448h1M244 449h1M244 450h1M244 451h1M244 452h1M244 453h1M244 454h1M244 455h1M244 456h1M244 457h1M244 458h1M244 459h1M244 460h1M244 461h1M244 462h1M244 463h1M244 464h1M244 465h1M244 466h1M244 467h1M244 468h1M244 469h1M244 470h1M244 471h1M244 472h1M244 473h1M214 475h60M214 476h1M214 479h1M214 481h1M214 483h1M214 485h1M214 487h1M174 496h79M255 496h17M264 497h46M174 498h1M174 501h1M174 503h1M174 505h1M174 507h1M174 510h1M144 515h73M220 515h74M285 516h60M144 517h1M144 519h1M144 521h1M144 524h1M144 526h1M144 528h1" />
<path stroke="#130055" d="M243 198h1M245 198h4M243 199h1M245 199h4M243 200h1M245 200h4M243 201h1M245 201h4M243 202h1M245 202h4M243 203h1M245 203h4M243 204h1M245 204h4M243 205h1M245 205h4M243 206h1M245 206h4M243 207h1M245 207h4M243 208h1M245 208h4M243 209h1M245 209h4M243 210h1M245 210h4M243 211h1M245 211h4M243 212h1M245 212h4M243 213h1M245 213h4M243 214h1M245 214h4M243 215h1M245 215h4M243 216h1M245 216h4M243 217h1M245 217h4M243 218h1M245 218h4M243 219h1M245 219h4M243 220h1M245 220h4M243 221h1M245 221h4M243 222h1M245 222h4M243 223h1M245 223h4M243 224h1M245 224h4M243 225h1M245 225h4M243 226h1M245 226h4M243 227h1M245 227h4M243 228h1M245 228h4M243 229h1M245 229h4M243 230h1M245 230h4M243 231h1M245 231h4M243 232h1M245 232h4M243 233h1M245 233h4M243 234h1M245 234h4M243 235h1M245 235h4M243 236h1M245 236h4M243 237h1M245 237h4M243 238h1M245 238h4M243 239h1M245 239h4M243 240h1M245 240h4M243 241h1M245 241h4M243 242h1M245 242h4M243 243h1M245 243h4M243 244h1M245 244h4M243 245h1M245 245h4M243 246h1M245 246h4M243 247h1M245 247h4M243 248h1M245 248h4M243 249h1M245 249h4M243 250h1M245 250h4M243 251h1M245 251h4M243 252h1M245 252h4M243 253h1M245 253h4M243 254h1M245 254h4M243 255h1M245 255h4M243 256h1M245 256h4M243 257h1M245 257h4M243 258h1M245 258h4M243 259h1M245 259h4M243 260h1M245 260h4M243 261h1M245 261h4M243 262h1M245 262h4M243 263h1M245 263h4M243 264h1M245 264h4M243 265h1M245 265h4M243 266h1M245 266h4M243 267h1M245 267h4M243 268h1M245 268h4M243 269h1M245 269h4M243 270h1M245 270h4M243 271h1M245 271h4M243 272h1M245 272h4M243 273h1M245 273h4M243 274h1M245 274h4M243 275h1M245 275h4M243 276h1M245 276h4M243 277h1M245 277h4M243 278h1M245 278h4M243 279h1M245 279h4M243 280h1M245 280h4M243 281h1M245 281h4M243 282h1M245 282h4M243 283h1M245 283h4M243 284h1M245 284h4M243 285h1M245 285h4M243 286h1M245 286h4M243 287h1M245 287h4M243 288h1M245 288h4M243 289h1M245 289h4M243 290h1M245 290h4M243 291h1M245 291h4M243 292h1M245 292h4M243 293h1M245 293h4M243 294h1M245 294h4M243 295h1M245 295h4M243 296h1M245 296h4M243 297h1M245 297h4M243 298h1M245 298h4M243 299h1M245 299h4M243 300h1M245 300h4M243 301h1M245 301h4M243 302h1M245 302h4M243 303h1M245 303h4M243 304h1M245 304h4M243 305h1M245 305h4M243 306h1M245 306h4M243 307h1M245 307h4M243 308h1M245 308h4M243 309h1M245 309h4M243 310h1M245 310h4M243 311h1M245 311h4M243 312h1M245 312h4M243 313h1M245 313h4M243 314h1M245 314h4M243 315h1M245 315h4M243 316h1M245 316h4M243 317h1M245 317h4M243 318h1M245 318h4M243 319h1M245 319h4M243 320h1M245 320h4M243 321h1M245 321h4M243 322h1M245 322h4M243 323h1M245 323h4M243 324h1M245 324h4M243 325h1M245 325h4M243 326h1M245 326h4M243 327h1M245 327h4M243 328h1M245 328h4M243 329h1M245 329h4M243 330h1M245 330h4M243 331h1M245 331h4M243 332h1M245 332h4M243 333h1M245 333h4M243 334h1M245 334h4M243 335h1M245 335h4M243 336h1M245 336h4M243 337h1M245 337h4M243 338h1M245 338h4M243 339h1M245 339h4M243 340h1M245 340h4M243 341h1M245 341h4M243 342h1M245 342h4M243 343h1M245 343h4M243 344h1M245 344h4M243 345h1M245 345h4M243 346h1M245 346h4M243 347h1M245 347h4M243 348h1M245 348h4M243 349h1M245 349h4M243 350h1M245 350h4M243 351h1M245 351h4M243 352h1M245 352h4M243 353h1M245 353h4M243 354h1M245 354h4M243 355h1M245 355h4M243 356h1M245 356h4M243 357h1M245 357h4M243 358h1M245 358h4M243 359h1M245 359h4M243 360h1M245 360h4M243 361h1M245 361h4M243 362h1M245 362h4M243 363h1M245 363h4M243 364h1M245 364h4M243 365h1M245 365h4M243 366h1M245 366h4M243 367h1M245 367h4M243 368h1M245 368h4M243 369h1M245 369h4M243 370h1M245 370h4M243 371h1M245 371h4M243 372h1M245 372h4M243 373h1M245 373h4M243 374h1M245 374h4M243 375h1M245 375h4M243 376h1M245 376h4M243 377h1M245 377h4M243 378h1M245 378h4M243 379h1M245 379h4M243 380h1M245 380h4M243 381h1M245 381h4M243 382h1M245 382h4M243 383h1M245 383h4M243 384h1M245 384h4M243 385h1M245 385h4M243 386h1M245 386h4M243 387h1M245 387h3M243 388h1M245 388h2M243 389h1M245 389h1M243 390h1M245 390h1M243 391h1M243 392h1M247 392h2M243 393h1M245 393h4M243 394h1M245 394h4M243 395h1M245 395h4M243 396h1M245 396h4M243 397h1M245 397h4M243 398h1M245 398h4M243 399h1M245 399h4M243 400h1M245 400h4M243 401h1M245 401h4M243 402h1M245 402h4M243 403h1M245 403h4M243 404h1M245 404h4M243 405h1M245 405h4M243 406h1M245 406h4M243 407h1M245 407h4M243 408h1M245 408h4M243 409h1M245 409h4M243 410h1M245 410h4M243 411h1M245 411h4M243 412h1M245 412h4M243 413h1M245 413h4M243 414h1M245 414h4M243 415h1M245 415h4M243 416h1M245 416h4M243 417h1M245 417h4M243 418h1M245 418h4M243 419h1M245 419h4M243 420h1M245 420h4M243 421h1M245 421h4M243 422h1M245 422h4M243 423h1M245 423h4M243 424h1M245 424h4M243 425h1M245 425h4M243 426h1M245 426h4M243 427h1M245 427h4M243 428h1M245 428h4M243 429h1M245 429h4M243 430h1M245 430h4M243 431h1M245 431h4M243 432h1M245 432h4M243 433h1M245 433h4M243 434h1M245 434h4M243 435h1M245 435h4M243 436h1M245 436h4M243 437h1M245 437h4M243 438h1M245 438h4M243 439h1M245 439h4M243 440h1M245 440h4M243 441h1M245 441h4M243 442h1M245 442h4M243 443h1M245 443h4M243 444h1M245 444h4M243 445h1M245 445h4M243 446h1M245 446h4M243 447h1M245 447h4M243 448h1M245 448h4M243 449h1M245 449h4M243 450h1M245 450h4M243 451h1M245 451h4M243 452h1M245 452h4M243 453h1M245 453h4M243 454h1M245 454h4M243 455h1M245 455h4M243 456h1M245 456h4M243 457h1M245 457h4M243 458h1M245 458h4M243 459h1M245 459h4M243 460h1M245 460h4M243 461h1M245 461h4M243 462h1M245 462h4M243 463h1M245 463h4M243 464h1M245 464h4M243 465h1M245 465h4M243 466h1M245 466h4M243 467h1M245 467h4M243 468h1M245 468h4M243 469h1M245 469h4M243 470h1M245 470h4M243 471h1M245 471h4M243 472h1M245 472h4M245 473h4M274 475h3M214 477h63M214 478h63M215 479h62M214 480h63M215 481h62M214 482h63M215 483h62M214 484h63M215 485h62M214 486h63M215 487h62M214 488h63M253 496h2M272 496h40M176 497h88M310 497h3M176 498h137M176 499h137M176 500h137M176 501h137M176 502h137M176 503h137M176 504h137M176 505h137M176 506h137M176 507h137M176 508h137M294 515h51M147 516h24M176 516h109M147 517h198M147 518h198M147 519h198M147 520h198M147 521h198M147 522h198M147 523h198M147 524h198M147 525h198M147 526h198M147 527h198M147 528h198M148 529h197" />
<path stroke="#1a0042" d="M232 404h8M232 405h1M239 405h1M232 406h1M239 406h1M232 407h1M239 407h1M232 408h1M239 408h1M232 409h1M239 409h1M232 410h1M239 410h1M232 411h1M239 411h1M232 412h1M239 412h1M232 413h1M239 413h1M232 414h1M239 414h1M232 415h1M239 415h1M232 416h1M239 416h1M232 417h1M239 417h1M232 418h1M239 418h1M232 419h1M239 419h1M232 420h1M239 420h1M232 421h1M239 421h1M232 422h1M239 422h1M232 423h8M235 424h2M235 425h2M235 426h2M232 427h8M232 428h1M239 428h1M232 429h1M239 429h1M230 430h3M239 430h1M230 431h1M232 431h1M239 431h1M230 432h1M232 432h1M239 432h1M230 433h1M232 433h1M239 433h1M230 434h1M232 434h1M239 434h1M230 435h1M232 435h1M239 435h1M230 436h1M232 436h1M239 436h1M230 437h1M232 437h1M239 437h1M230 438h1M232 438h1M239 438h1M230 439h1M232 439h1M239 439h1M230 440h1M232 440h1M239 440h1M230 441h1M232 441h1M239 441h1M230 442h1M232 442h1M239 442h1M230 443h1M232 443h1M239 443h1M230 444h1M232 444h1M239 444h1M230 445h1M232 445h1M239 445h1M230 446h1M232 446h8M230 447h1M235 447h2M230 448h1M235 448h2M230 449h1M232 449h8M230 450h1M232 450h1M239 450h1M230 451h1M232 451h1M239 451h1M230 452h1M232 452h1M239 452h1M230 453h1M232 453h1M239 453h1M230 454h1M232 454h1M239 454h1M230 455h1M232 455h1M239 455h1M230 456h1M232 456h1M239 456h1M230 457h1M232 457h1M239 457h1M230 458h1M232 458h1M239 458h1M230 459h1M232 459h1M239 459h1M230 460h1M232 460h1M239 460h1M230 461h1M232 461h1M239 461h1M230 462h1M232 462h1M239 462h1M230 463h1M232 463h1M239 463h1M230 464h1M232 464h1M239 464h1M230 465h1M232 465h1M239 465h1M230 466h1M232 466h1M239 466h1M230 467h1M232 467h1M239 467h1M230 468h1M232 468h8M230 469h1M234 469h1M236 469h1M238 469h1M230 470h1M234 470h1M236 470h1M238 470h1M229 471h1M234 471h1M236 471h1M238 471h1M228 472h1M233 472h1M236 472h1M238 472h1M210 473h23M236 473h8M210 474h1M226 474h1M210 475h1M210 476h1M210 477h1M210 478h1M210 479h1M210 480h1M210 481h1M210 482h1M210 483h1M210 484h1M210 485h1M210 486h1M210 487h1M210 488h1M210 489h1M210 490h1M210 491h1M210 492h1M210 493h1" />
<path stroke="#ff5100" d="M233 428h6M233 429h6M233 430h6M233 431h6M233 432h6M233 433h6M233 434h6M233 435h6M233 436h6M233 437h6M233 438h6M233 439h6M233 440h6M233 441h6M233 442h6M233 443h6M233 444h6M233 445h6" />
<path stroke="#44ba00" d="M233 450h6M233 451h6M233 452h6M233 453h6M233 454h6M233 455h6M233 456h6M233 457h6M233 458h6M233 459h6M233 460h6M233 461h6M233 462h6M233 463h6M233 464h6M233 465h6M233 466h6M233 467h6" />
<path stroke="#0c0038" d="M211 474h15M227 474h50M211 475h3M211 476h3M215 476h62M211 477h3M211 478h3M211 479h3M211 480h3M211 481h3M211 482h3M211 483h3M211 484h3M211 485h3M211 486h3M211 487h3M211 488h3M211 489h66M211 490h66M172 494h144M172 495h144M172 496h2M312 496h4M172 497h4M313 497h3M172 498h2M175 498h1M313 498h3M172 499h4M313 499h3M172 500h4M313 500h3M172 501h2M175 501h1M313 501h3M172 502h4M313 502h3M172 503h2M175 503h1M313 503h3M172 504h4M313 504h3M172 505h2M175 505h1M313 505h3M172 506h4M313 506h3M172 507h2M175 507h1M313 507h3M172 508h4M313 508h3M172 509h144M172 510h2M175 510h141M172 511h144M141 514h206M141 515h3M217 515h3M345 515h2M141 516h4M171 516h5M345 516h2M141 517h3M345 517h2M141 518h4M345 518h2M141 519h3M345 519h2M141 520h4M345 520h2M141 521h3M345 521h2M141 522h4M345 522h2M141 523h4M345 523h2M141 524h3M345 524h2M141 525h4M345 525h2M141 526h3M345 526h2M141 527h4M345 527h2M141 528h3M345 528h2M141 529h4M345 529h2M141 530h206M141 531h206" />
</svg>