<svg xmlns="http://www.w3.org/2000/svg" viewBox="0 -0.5 960 600" shape-rendering="crispEdges">
<metadata>Made with Pixels to Svg https://codepen.io/shshaw/pen/XbxvNj</metadata>
<path stroke="#19f2ee" d="M253 139h4M253 140h1M256 140h1M253 141h1M253 142h1" />
<path stroke="#19f3ed" d="M256 141h1M254 142h3" />
<path stroke="#272428" d="M253 144h4M253 145h1M256 145h1M253 146h1M256 146h1M256 147h1M253 148h1M256 148h1M253 149h1M256 149h1M253 150h1M256 150h1M253 151h1M256 151h1M253 152h1M256 152h1M253 153h1M256 153h1M253 154h1M256 154h1M253 155h1M256 155h1M253 156h1M256 156h1M253 157h1M256 157h1M253 158h1M256 158h1M253 159h1M256 159h2M253 160h1M256 160h1M258 160h1M253 161h1M256 161h1M259 161h1M253 162h1M256 162h1M259 162h1M253 163h1M256 163h1M259 163h1M253 164h1M256 164h1M259 164h1M253 165h1M256 165h1M259 165h1M253 166h1M256 166h1M259 166h1M253 167h1M256 167h1M259 167h1M253 168h1M256 168h1M259 168h1M253 169h1M256 169h1M259 169h1M253 170h1M256 170h1M259 170h1M253 171h1M256 171h1M259 171h1M253 172h1M256 172h1M259 172h1M253 173h1M256 173h1M259 173h1M253 174h1M256 174h1M259 174h1M253 175h1M256 175h1M259 175h1M253 176h1M256 176h1M259 176h1M253 177h1M256 177h1M259 177h1M253 178h1M256 178h1M259 178h1M253 179h1M256 179h1M259 179h1M253 180h1M256 180h1M259 180h1M253 181h1M256 181h1M259 181h1M253 182h1M256 182h1M259 182h1M253 183h1M256 183h1M259 183h1M253 184h1M256 184h1M259 184h1M253 185h1M256 185h1M259 185h1M253 186h1M256 186h1M259 186h1M253 187h1M256 187h1M259 187h1M253 188h1M256 188h1M259 188h1M253 189h1M256 189h1M259 189h1M253 190h1M256 190h1M259 190h1M253 191h1M256 191h1M259 191h1M247 192h7M256 192h1M259 192h1M246 193h1M249 193h1M253 193h1M256 193h1M259 193h1M245 194h1M249 194h1M254 194h1M256 194h1M259 194h1M244 195h1M248 195h1M255 195h2M259 195h1M243 196h1M248 196h1M256 196h1M259 196h1M243 197h1M247 197h1M256 197h1M259 197h1M243 198h1M247 198h1M256 198h1M259 198h1M243 199h1M247 199h1M256 199h1M259 199h1M243 200h1M247 200h1M256 200h1M259 200h1M243 201h1M247 201h1M256 201h1M259 201h1M244 202h1M248 202h1M255 202h2M259 202h1M245 203h1M248 203h1M254 203h1M256 203h1M259 203h1M246 204h1M249 204h1M253 204h1M256 204h1M259 204h1M247 205h7M256 205h1M259 205h1M246 206h1M253 206h1M256 206h1M259 206h1M245 207h1M253 207h2M256 207h1M259 207h1M243 208h14M259 208h1M242 209h1M256 209h1M259 209h1M242 210h1M256 210h1M259 210h1M242 211h1M256 211h1M259 211h1M242 212h1M256 212h1M259 212h1M242 213h1M256 213h1M259 213h1M242 214h1M256 214h1M259 214h1M242 215h1M256 215h1M259 215h1M242 216h1M256 216h1M259 216h1M242 217h1M256 217h1M259 217h1M242 218h1M256 218h1M259 218h1M242 219h1M256 219h1M259 219h1M242 220h1M256 220h1M259 220h1M242 221h1M256 221h1M259 221h1M242 222h1M256 222h1M259 222h1M242 223h1M256 223h1M259 223h1M242 224h1M256 224h1M259 224h1M242 225h1M256 225h1M259 225h1M242 226h1M256 226h1M259 226h1M242 227h1M256 227h1M259 227h1M242 228h1M256 228h1M259 228h1M242 229h1M256 229h1M259 229h1M242 230h1M256 230h1M259 230h1M242 231h1M256 231h1M259 231h1M242 232h1M256 232h1M259 232h1M242 233h1M256 233h1M259 233h1M242 234h1M256 234h1M259 234h1M242 235h1M256 235h1M259 235h1M242 236h1M256 236h1M259 236h1M242 237h1M245 237h9M256 237h1M259 237h1M242 238h1M245 238h1M253 238h1M256 238h1M259 238h1M242 239h1M245 239h1M253 239h1M256 239h1M259 239h1M242 240h1M245 240h1M253 240h1M256 240h1M259 240h1M242 241h1M245 241h1M253 241h1M256 241h1M259 241h1M242 242h1M245 242h1M253 242h1M256 242h1M259 242h1M242 243h1M245 243h1M253 243h1M256 243h1M259 243h1M242 244h1M245 244h1M253 244h1M256 244h1M259 244h1M242 245h1M245 245h1M253 245h1M256 245h1M259 245h1M242 246h1M245 246h1M253 246h1M256 246h1M259 246h1M242 247h1M245 247h1M253 247h1M256 247h1M259 247h1M242 248h1M245 248h1M253 248h1M256 248h1M259 248h1M242 249h1M245 249h1M253 249h1M256 249h1M259 249h1M242 250h1M245 250h1M253 250h1M256 250h1M259 250h1M242 251h1M245 251h1M253 251h1M256 251h1M259 251h1M242 252h1M245 252h1M253 252h1M256 252h1M259 252h1M242 253h1M245 253h1M253 253h1M256 253h1M259 253h1M242 254h1M245 254h1M253 254h1M256 254h1M259 254h1M242 255h1M245 255h1M253 255h1M256 255h1M259 255h1M242 256h1M245 256h1M253 256h1M256 256h1M259 256h1M242 257h1M245 257h1M253 257h1M256 257h1M259 257h1M242 258h1M245 258h1M253 258h1M256 258h1M259 258h1M242 259h1M245 259h1M253 259h1M256 259h1M259 259h1M242 260h1M245 260h1M253 260h1M256 260h1M259 260h1M242 261h1M245 261h1M253 261h1M256 261h1M259 261h1M242 262h1M245 262h1M253 262h1M256 262h1M259 262h1M242 263h1M245 263h1M253 263h1M256 263h1M259 263h1M242 264h1M245 264h1M253 264h1M256 264h1M259 264h1M242 265h1M245 265h1M253 265h1M256 265h1M259 265h1M242 266h1M245 266h1M253 266h1M256 266h1M259 266h1M242 267h1M245 267h1M253 267h1M256 267h1M259 267h1M242 268h1M245 268h1M253 268h1M256 268h1M259 268h1M242 269h1M245 269h1M253 269h1M256 269h1M259 269h1M242 270h1M245 270h1M253 270h1M256 270h1M259 270h1M242 271h1M245 271h1M253 271h1M256 271h1M258 271h1M242 272h1M245 272h1M253 272h1M256 272h2M242 273h1M245 273h1M253 273h1M256 273h1M242 274h1M245 274h1M253 274h1M256 274h1M242 275h1M245 275h1M253 275h1M256 275h1M242 276h1M245 276h1M253 276h1M256 276h1M242 277h1M245 277h1M253 277h1M256 277h1M242 278h1M245 278h1M253 278h1M256 278h1M242 279h1M245 279h1M253 279h1M256 279h1M242 280h1M245 280h1M253 280h1M256 280h1M242 281h1M245 281h1M253 281h1M256 281h1M242 282h1M245 282h1M253 282h1M256 282h1M242 283h1M245 283h1M253 283h1M256 283h1M242 284h1M245 284h1M253 284h1M256 284h1M242 285h1M245 285h1M253 285h1M256 285h1M245 286h1M253 286h1M256 286h1M253 287h1M256 287h1M253 288h1M256 288h1M253 289h1M256 289h1" />
<path stroke="#435355" d="M254 145h1M254 146h1M253 147h2M254 148h1M254 149h1M254 150h1M254 151h1M254 152h1M254 153h1M254 154h1M254 155h1M254 156h1M254 157h1M254 158h1M254 159h1M254 160h1M257 160h1M254 161h1M257 161h2M254 162h1M257 162h1M254 163h1M257 163h1M254 164h1M257 164h1M254 165h1M257 165h1M254 166h1M257 166h1M254 167h1M257 167h1M254 168h1M257 168h1M254 169h1M257 169h1M254 170h1M257 170h1M254 171h1M257 171h1M254 172h1M257 172h1M254 173h1M257 173h1M254 174h1M257 174h1M254 175h1M257 175h1M254 176h1M257 176h1M254 177h1M257 177h1M254 178h1M257 178h1M254 179h1M257 179h1M254 180h1M257 180h1M254 181h1M257 181h1M254 182h1M257 182h1M254 183h1M257 183h1M254 184h1M257 184h1M254 185h1M257 185h1M254 186h1M257 186h1M254 187h1M257 187h1M254 188h1M257 188h1M254 189h1M257 189h1M254 190h1M257 190h1M254 191h1M257 191h1M254 192h1M257 192h1M254 193h1M257 193h1M257 194h1M257 195h1M257 196h1M257 197h1M257 198h1M257 199h1M257 200h1M257 201h1M257 202h1M257 203h1M254 204h1M257 204h1M254 205h1M257 205h1M254 206h1M257 206h1M257 207h1M257 208h1M257 209h1M243 210h12M257 210h1M243 211h12M257 211h1M243 212h12M257 212h1M243 213h12M257 213h1M243 214h12M257 214h1M243 215h12M257 215h1M243 216h12M257 216h1M243 217h12M257 217h1M243 218h12M257 218h1M243 219h12M257 219h1M243 220h12M257 220h1M243 221h12M257 221h1M243 222h12M257 222h1M243 223h12M257 223h1M243 224h12M257 224h1M243 225h12M257 225h1M243 226h12M257 226h1M243 227h12M257 227h1M243 228h12M257 228h1M243 229h12M257 229h1M243 230h12M257 230h1M243 231h12M257 231h1M243 232h12M257 232h1M243 233h12M257 233h1M243 234h12M257 234h1M243 235h12M257 235h1M243 236h12M257 236h1M243 237h2M254 237h1M257 237h1M243 238h2M254 238h1M257 238h1M243 239h2M254 239h1M257 239h1M243 240h2M254 240h1M257 240h1M243 241h2M254 241h1M257 241h1M243 242h2M254 242h1M257 242h1M243 243h2M254 243h1M257 243h1M243 244h2M254 244h1M257 244h1M243 245h2M254 245h1M257 245h1M243 246h2M254 246h1M257 246h1M243 247h2M254 247h1M257 247h1M243 248h2M254 248h1M257 248h1M243 249h2M254 249h1M257 249h1M243 250h2M254 250h1M257 250h1M243 251h2M254 251h1M257 251h1M243 252h2M254 252h1M257 252h1M243 253h2M254 253h1M257 253h1M243 254h2M254 254h1M257 254h1M243 255h2M254 255h1M257 255h1M243 256h2M254 256h1M257 256h1M243 257h2M254 257h1M257 257h1M243 258h2M254 258h1M257 258h1M243 259h2M254 259h1M257 259h1M243 260h2M254 260h1M257 260h1M243 261h2M254 261h1M257 261h1M254 262h1M257 262h1M254 263h1M257 263h1M254 264h1M257 264h1M257 265h1" />
<path stroke="#6f757a" d="M255 145h1M255 146h1M255 147h1M255 148h1M255 149h1M255 150h1M255 151h1M255 152h1M255 153h1M255 154h1M255 155h1M255 156h1M255 157h1M255 158h1M255 159h1M255 160h1M255 161h1M255 162h1M258 162h1M255 163h1M258 163h1M255 164h1M258 164h1M255 165h1M258 165h1M255 166h1M258 166h1M255 167h1M258 167h1M255 168h1M258 168h1M255 169h1M258 169h1M255 170h1M258 170h1M255 171h1M258 171h1M255 172h1M258 172h1M255 173h1M258 173h1M255 174h1M258 174h1M255 175h1M258 175h1M255 176h1M258 176h1M255 177h1M258 177h1M255 178h1M258 178h1M255 179h1M258 179h1M255 180h1M258 180h1M255 181h1M258 181h1M255 182h1M258 182h1M255 183h1M258 183h1M255 184h1M258 184h1M255 185h1M258 185h1M255 186h1M258 186h1M255 187h1M258 187h1M255 188h1M258 188h1M255 189h1M258 189h1M255 190h1M258 190h1M255 191h1M258 191h1M255 192h1M258 192h1M255 193h1M258 193h1M255 194h1M258 194h1M258 195h1M258 196h1M258 197h1M258 198h1M258 199h1M258 200h1M258 201h1M258 202h1M255 203h1M258 203h1M255 204h1M258 204h1M255 205h1M258 205h1M247 206h6M255 206h1M258 206h1M246 207h7M255 207h1M258 207h1M258 208h1M243 209h13M258 209h1M255 210h1M258 210h1M255 211h1M258 211h1M255 212h1M258 212h1M255 213h1M258 213h1M255 214h1M258 214h1M255 215h1M258 215h1M255 216h1M258 216h1M255 217h1M258 217h1M255 218h1M258 218h1M255 219h1M258 219h1M255 220h1M258 220h1M255 221h1M258 221h1M255 222h1M258 222h1M255 223h1M258 223h1M255 224h1M258 224h1M255 225h1M258 225h1M255 226h1M258 226h1M255 227h1M258 227h1M255 228h1M258 228h1M255 229h1M258 229h1M255 230h1M258 230h1M255 231h1M258 231h1M255 232h1M258 232h1M255 233h1M258 233h1M255 234h1M258 234h1M255 235h1M258 235h1M255 236h1M258 236h1M255 237h1M258 237h1M255 238h1M258 238h1M255 239h1M258 239h1M255 240h1M258 240h1M255 241h1M258 241h1M255 242h1M258 242h1M255 243h1M258 243h1M255 244h1M258 244h1M255 245h1M258 245h1M255 246h1M258 246h1M255 247h1M258 247h1M255 248h1M258 248h1M255 249h1M258 249h1M255 250h1M258 250h1M255 251h1M258 251h1M255 252h1M258 252h1M255 253h1M258 253h1M255 254h1M258 254h1M255 255h1M258 255h1M255 256h1M258 256h1M255 257h1M258 257h1M255 258h1M258 258h1M255 259h1M258 259h1M255 260h1M258 260h1M255 261h1M258 261h1M255 262h1M258 262h1M255 263h1M258 263h1M255 264h1M258 264h1M258 265h1" />
<path stroke="#19f7d3" d="M247 193h2M250 193h3M246 194h3M250 194h4M245 195h3M249 195h6M244 196h4M249 196h7M244 197h3M248 197h8M244 198h3M248 198h8M244 199h3M248 199h8M244 200h3M248 200h8M244 201h3M248 201h8M245 202h3M249 202h6M246 203h2M249 203h5M247 204h2M250 204h3" />
<path stroke="#58e9e7" d="M246 238h4M246 239h4M246 240h4M246 241h4M246 242h4M246 243h4M246 244h4M246 245h4M246 246h4M246 247h4M246 248h4M246 249h4M246 250h4M246 251h4M246 252h4M246 253h4M246 254h4M247 255h3" />
<path stroke="#28aea1" d="M250 238h3M250 239h3M250 240h3M250 241h3M250 242h3M250 243h3M250 244h3M250 245h3M250 246h3M250 247h3M250 248h3M250 249h3M250 250h3M250 251h3M250 252h3M250 253h3M250 254h3M250 255h3M251 256h2" />
<path stroke="#59e8e8" d="M246 255h1M246 256h4M246 257h4M246 258h4M246 259h4M246 260h4M246 261h4M246 262h4M246 263h4M246 264h4M247 265h3M249 266h1" />
<path stroke="#29ada1" d="M250 256h1M250 257h3M250 258h3M250 259h3M250 260h3M250 261h3M250 262h3M250 263h3M250 264h3M250 265h3M250 266h3M252 267h1" />
<path stroke="#455355" d="M243 262h2M243 263h2M243 264h2M243 265h2M254 265h1M243 266h2M254 266h1M257 266h1M243 267h2M254 267h1M257 267h1M254 268h1M257 268h1M254 269h1M257 269h1M254 270h1M257 270h1M257 271h1" />
<path stroke="#70757a" d="M255 265h1M255 266h1M258 266h1M255 267h1M258 267h1M255 268h1M258 268h1M255 269h1M258 269h1M255 270h1M258 270h1M255 271h1M255 272h1M255 273h1M255 274h1" />
<path stroke="#5ce8e9" d="M247 266h2M247 267h3" />
<path stroke="#2aaca1" d="M250 267h2M250 268h3M250 269h3" />
<path stroke="#455255" d="M243 268h2M243 269h2M243 270h2M243 271h2M254 271h1M243 272h2M254 272h1M243 273h2M254 273h1M243 274h2M254 274h1M243 275h2M254 275h1M243 276h2M254 276h1M243 277h2M254 277h1M243 278h2M254 278h1M243 279h2M254 279h1M243 280h2M254 280h1M254 281h1M254 282h1M254 283h1M254 284h1" />
<path stroke="#70747a" d="M255 275h1M255 276h1M255 277h1M255 278h1M255 279h1M255 280h1M255 281h1M255 282h1M255 283h1M255 284h1" />
<path stroke="#465255" d="M243 281h2M243 282h2M243 283h2M243 284h2M243 285h2M254 285h1M243 286h2M254 286h1M243 287h2M254 287h1M243 288h2M254 288h1M243 289h2M254 289h1M243 290h2M254 290h1M254 291h1M254 292h1M254 293h1" />
<path stroke="#71747a" d="M255 285h1M255 286h1M255 287h1M255 288h1M255 289h1M255 290h1M255 291h1M255 292h1M255 293h1M255 294h1M255 295h1M255 296h1" />
<path stroke="#282428" d="M242 286h1M242 287h1M245 287h1M242 288h1M245 288h1M242 289h1M245 289h1M242 290h1M245 290h1M253 290h1M256 290h1M242 291h1M245 291h1M253 291h1M256 291h1M242 292h1M245 292h1M253 292h1M256 292h1M242 293h1M245 293h1M253 293h1M256 293h1M242 294h1M245 294h1M253 294h1M256 294h1M242 295h1M245 295h1M253 295h1M256 295h1M242 296h1M245 296h1M253 296h1M256 296h1M242 297h1M245 297h1M253 297h1M256 297h1M242 298h1M245 298h1M253 298h1M256 298h1M242 299h1M245 299h1M253 299h1M256 299h1M242 300h1M245 300h1M253 300h1M256 300h1M242 301h1M245 301h1M253 301h1M256 301h1M242 302h1M245 302h1M253 302h1M256 302h1M242 303h1M245 303h1M253 303h1M256 303h1M242 304h1M245 304h1M253 304h1M256 304h1M242 305h1M245 305h1M253 305h1M256 305h1M242 306h1M245 306h1M253 306h1M256 306h1M242 307h1M245 307h1M253 307h1M256 307h1M242 308h1M245 308h1M253 308h1M256 308h1M242 309h1M245 309h1M253 309h1M256 309h1M242 310h1M245 310h1M253 310h1M256 310h1M242 311h1M245 311h1M253 311h1M256 311h1M242 312h1M245 312h1M253 312h1M256 312h1M242 313h1M245 313h1M253 313h1M256 313h1M242 314h1M245 314h1M253 314h1M256 314h1M242 315h1M245 315h1M253 315h1M256 315h1M242 316h1M245 316h1M253 316h1M256 316h1M245 317h1M253 317h1M256 317h1M253 318h1M256 318h1M253 319h1M256 319h1" />
<path stroke="#62e3ed" d="M246 288h2" />
<path stroke="#64e3ed" d="M246 289h2M247 290h1M250 291h1" />
<path stroke="#64e2ed" d="M246 290h1M246 291h4M249 292h2" />
<path stroke="#465155" d="M243 291h2M243 292h2M243 293h2M243 294h2M254 294h1M254 295h1M254 296h1M254 297h1" />
<path stroke="#65e1ed" d="M246 292h3M246 293h5M246 294h5M246 295h5M249 296h2" />
<path stroke="#475155" d="M243 295h2M243 296h2M243 297h2M243 298h2M254 298h1M243 299h2M254 299h1M243 300h2M254 300h1M243 301h2M254 301h1M243 302h2M254 302h1M243 303h2M254 303h1M254 304h1M254 305h1M254 306h1" />
<path stroke="#32a8a7" d="M251 295h1M251 296h2M251 297h2M252 298h1" />
<path stroke="#31a9a6" d="M252 295h1" />
<path stroke="#66e0ed" d="M246 296h3M248 297h3" />
<path stroke="#71737a" d="M255 297h1" />
<path stroke="#67e0ed" d="M248 298h3M250 299h1" />
<path stroke="#34a8a7" d="M251 298h1M251 299h2" />
<path stroke="#72737a" d="M255 298h1M255 299h1M255 300h1M255 301h1M255 302h1M255 303h1M255 304h1M255 305h1M255 306h1" />
<path stroke="#67dfed" d="M248 299h2M250 300h1" />
<path stroke="#68dfed" d="M248 300h2" />
<path stroke="#34a7a9" d="M251 300h2" />
<path stroke="#35a7a9" d="M251 301h2" />
<path stroke="#36a7a9" d="M251 302h2" />
<path stroke="#485155" d="M243 304h2M254 307h1" />
<path stroke="#485055" d="M243 305h2M243 306h2M243 307h2M243 308h2M254 308h1M243 309h2M254 309h1M243 310h2M254 310h1M254 311h1M254 312h1M254 313h1" />
<path stroke="#73737a" d="M255 307h1M255 308h1M255 309h1" />
<path stroke="#70d8ee" d="M246 310h1" />
<path stroke="#72727a" d="M255 310h1M255 311h1M255 312h1M255 313h1" />
<path stroke="#495055" d="M243 311h2M243 312h2M243 313h2M243 314h2M254 314h1M243 315h2M254 315h1M254 316h1M254 317h1M254 318h1" />
<path stroke="#72d7ee" d="M246 311h1" />
<path stroke="#73d7ee" d="M246 312h1M248 313h2" />
<path stroke="#73d6ee" d="M246 313h2M247 314h3" />
<path stroke="#74d5ee" d="M246 314h1M246 315h4M248 316h2" />
<path stroke="#74727a" d="M255 314h1M255 315h1M255 316h1M255 317h1M255 318h1M255 319h1M255 320h1" />
<path stroke="#494f55" d="M243 316h2M243 317h2M254 319h1" />
<path stroke="#75d4ee" d="M246 316h2M249 317h1" />
<path stroke="#292528" d="M242 317h1M242 318h1M245 318h1M242 319h1M245 319h1M242 320h1M245 320h1M253 320h1M256 320h1M242 321h1M245 321h1M253 321h1M256 321h1M242 322h1M245 322h1M253 322h1M256 322h1M242 323h1M245 323h1M253 323h1M256 323h1M242 324h1M245 324h1M253 324h1M256 324h1M242 325h1M245 325h1M253 325h1M256 325h1M242 326h1M245 326h1M253 326h1M256 326h1M242 327h1M245 327h1M253 327h1M256 327h1M242 328h1M245 328h1M253 328h1M256 328h1M242 329h1M245 329h1M253 329h1M256 329h1M242 330h1M245 330h1M253 330h1M256 330h1M242 331h1M245 331h1M253 331h1M256 331h1M242 332h1M245 332h1M253 332h1M256 332h1M242 333h1M245 333h1M253 333h1M256 333h1M242 334h1M245 334h1M253 334h1M256 334h1M242 335h1M245 335h1M253 335h1M256 335h1M242 336h1M245 336h1M253 336h1M256 336h1M245 337h1M253 337h1M256 337h1M253 338h1M256 338h1M253 339h1M256 339h1" />
<path stroke="#76d3ee" d="M247 317h1M248 318h1" />
<path stroke="#76d4ee" d="M248 317h1M249 318h1" />
<path stroke="#3e9eac" d="M250 317h2M251 318h2" />
<path stroke="#3d9fac" d="M252 317h1" />
<path stroke="#4a4f55" d="M243 318h2M243 319h2M243 320h2M254 320h1M243 321h2M254 321h1M243 322h2M254 322h1M243 323h2M254 323h1M254 324h1M254 325h1M254 326h1" />
<path stroke="#78d3ee" d="M247 318h1M249 319h1" />
<path stroke="#3f9dac" d="M250 318h1M251 319h2" />
<path stroke="#78d0ee" d="M247 319h2" />
<path stroke="#3f9cac" d="M250 319h1M252 320h1" />
<path stroke="#409cac" d="M250 320h2M252 321h1" />
<path stroke="#409bac" d="M250 321h2" />
<path stroke="#75717a" d="M255 321h1M255 322h1M255 323h1M255 324h1M255 325h1M255 326h1" />
<path stroke="#4b4f55" d="M243 324h2M244 325h1M254 327h1" />
<path stroke="#4b4e55" d="M243 325h1M243 326h2M243 327h2M244 328h1M254 328h1M254 329h1M254 330h1" />
<path stroke="#76717a" d="M255 327h1M255 328h1" />
<path stroke="#4c4e55" d="M243 328h1M243 329h2M243 330h2M243 331h2M254 331h1M243 332h2M254 332h1M254 333h1M254 334h1M254 335h1" />
<path stroke="#76707a" d="M255 329h1M255 330h1M255 331h1" />
<path stroke="#77707a" d="M255 332h1M255 333h1M255 334h1M255 335h1M255 336h1" />
<path stroke="#4c4d56" d="M243 333h2M243 334h1M254 336h1" />
<path stroke="#4d4d56" d="M244 334h1M243 335h2M243 336h2M243 337h2M254 337h1M243 338h2M254 338h1M254 339h1M254 340h1M254 341h1" />
<path stroke="#2a2529" d="M242 337h1M242 338h1M245 338h1M242 339h1M245 339h1M242 340h1M245 340h1M253 340h1M256 340h1M242 341h1M245 341h1M253 341h1M256 341h1M242 342h1M245 342h1M253 342h1M256 342h1M242 343h1M245 343h1M253 343h1M256 343h1M242 344h1M245 344h1M253 344h1M256 344h1M242 345h1M245 345h1M253 345h1M256 345h1M242 346h1M245 346h1M253 346h1M256 346h1M242 347h1M245 347h1M253 347h1M256 347h1M242 348h1M245 348h1M253 348h1M256 348h1M242 349h1M245 349h1M253 349h1M256 349h1M242 350h1M245 350h1M253 350h1M256 350h1M242 351h1M245 351h1M253 351h1M256 351h1M242 352h1M245 352h1M253 352h1M256 352h1M242 353h1M245 353h1M253 353h1M256 353h1M242 354h1M245 354h1M253 354h1M256 354h1M245 355h1M253 355h1M256 355h1M253 356h1M256 356h1M253 357h1M256 357h1" />
<path stroke="#78707a" d="M255 337h1" />
<path stroke="#786f7a" d="M255 338h1M255 339h1M255 340h1M255 341h1" />
<path stroke="#4e4d56" d="M243 339h2M243 340h2M254 342h1" />
<path stroke="#4e4c56" d="M243 341h2M243 342h2M243 343h2M254 343h1M243 344h2M254 344h1M254 345h1M254 346h1" />
<path stroke="#7a6f7a" d="M255 342h1M255 343h1M255 344h1" />
<path stroke="#4f4c56" d="M243 345h2M243 346h2M244 347h1M254 347h1M254 348h1" />
<path stroke="#93b8f1" d="M246 345h2" />
<path stroke="#7a6e7a" d="M255 345h1M255 346h1" />
<path stroke="#95b6f1" d="M246 346h1" />
<path stroke="#95b8f1" d="M247 346h1" />
<path stroke="#4f4b56" d="M243 347h1M243 348h2M254 349h1M254 350h1" />
<path stroke="#96b6f1" d="M246 347h2" />
<path stroke="#7b6e7b" d="M255 347h1M255 348h1M255 349h1M255 350h1" />
<path stroke="#97b4f1" d="M246 348h2M250 349h1" />
<path stroke="#504b56" d="M243 349h2M243 350h2M243 351h2M254 351h1M243 352h2M254 352h1M243 353h2M254 353h1M254 354h1M254 355h1" />
<path stroke="#98b4f1" d="M246 349h4" />
<path stroke="#9ab2f1" d="M246 350h1M250 350h1M246 351h1M248 351h3M250 352h1" />
<path stroke="#99b3f1" d="M247 350h3" />
<path stroke="#9cb1f1" d="M247 351h1M249 352h1M250 353h1" />
<path stroke="#7c6e7b" d="M255 351h1M255 352h1" />
<path stroke="#9cb0f1" d="M246 352h3M249 353h1" />
<path stroke="#5d7fae" d="M251 352h2" />
<path stroke="#9eaff1" d="M246 353h3M246 354h5" />
<path stroke="#5e7eae" d="M251 353h2" />
<path stroke="#7c6d7b" d="M255 353h1M255 354h1M255 355h1" />
<path stroke="#514a56" d="M243 354h1M243 355h2M243 356h2M244 357h1M254 357h1M254 358h1M254 359h1" />
<path stroke="#514b56" d="M244 354h1M254 356h1" />
<path stroke="#5f7eaf" d="M251 354h1" />
<path stroke="#5f7faf" d="M252 354h1" />
<path stroke="#2b2529" d="M242 355h1M242 356h1M245 356h1M242 357h1M245 357h1M242 358h1M245 358h1M253 358h1M256 358h1M242 359h1M245 359h1M253 359h1M256 359h1M242 360h1M245 360h1M253 360h1M256 360h1M242 361h1M245 361h1M253 361h1M256 361h1M242 362h1M245 362h1M253 362h1M256 362h1M242 363h1M245 363h1M253 363h1M256 363h1M242 364h1M245 364h1M253 364h1M256 364h1M242 365h1M245 365h1M253 365h1M256 365h1M242 366h1M245 366h1M253 366h1M256 366h1M242 367h1M245 367h1M253 367h1M256 367h1M242 368h1M245 368h1M253 368h1M256 368h1M242 369h1M245 369h1M253 369h1M256 369h1M242 370h1M245 370h1M253 370h1M256 370h1M245 371h1M253 371h1M256 371h1M253 372h1M256 372h1M253 373h1M256 373h1" />
<path stroke="#9fadf1" d="M246 355h1M249 356h1" />
<path stroke="#9faef1" d="M247 355h4M250 356h1" />
<path stroke="#607db0" d="M251 355h2M251 356h1" />
<path stroke="#a0adf1" d="M246 356h3" />
<path stroke="#617cb0" d="M252 356h1M252 357h1" />
<path stroke="#7d6d7b" d="M255 356h1M255 357h1M255 358h1M255 359h1" />
<path stroke="#524a56" d="M243 357h1M243 358h2M243 359h2M243 360h2M254 360h1M254 361h1M254 362h1" />
<path stroke="#a1abf1" d="M246 357h5" />
<path stroke="#637bb0" d="M251 357h1M251 358h2" />
<path stroke="#a3a9f1" d="M246 358h2" />
<path stroke="#a3aaf1" d="M248 358h3" />
<path stroke="#a4a7f1" d="M246 359h3M248 360h3" />
<path stroke="#a4a9f1" d="M249 359h2" />
<path stroke="#647ab0" d="M251 359h2" />
<path stroke="#a4a5f1" d="M246 360h2" />
<path stroke="#6578b0" d="M251 360h2" />
<path stroke="#7f6c7b" d="M255 360h1M255 361h1M255 362h1M255 363h1M255 364h1" />
<path stroke="#524956" d="M243 361h2M243 362h1M254 363h1M254 364h1" />
<path stroke="#a4a2f1" d="M246 361h2M249 362h2" />
<path stroke="#a3a4f1" d="M248 361h3" />
<path stroke="#6777b0" d="M251 361h2M251 362h1" />
<path stroke="#534956" d="M244 362h1M243 363h2M243 364h2M243 365h2M254 365h1M243 366h2M254 366h1M254 367h1" />
<path stroke="#a4a1f1" d="M246 362h3M248 363h3" />
<path stroke="#6677b0" d="M252 362h1" />
<path stroke="#a59ef1" d="M246 363h2" />
<path stroke="#6875b0" d="M251 363h2" />
<path stroke="#a69df1" d="M246 364h1" />
<path stroke="#a59df1" d="M247 364h4" />
<path stroke="#6a74b0" d="M251 364h2" />
<path stroke="#a79cf1" d="M246 365h5" />
<path stroke="#6b73b0" d="M251 365h2" />
<path stroke="#816c7c" d="M255 365h1M255 366h1" />
<path stroke="#a89bf1" d="M246 366h5M247 367h4" />
<path stroke="#6c73b0" d="M251 366h2" />
<path stroke="#544956" d="M243 367h2M254 368h1" />
<path stroke="#a99af1" d="M246 367h1M249 368h2" />
<path stroke="#6c6fb1" d="M251 367h2" />
<path stroke="#816a7c" d="M255 367h1M255 368h1" />
<path stroke="#544856" d="M243 368h2M243 369h2M254 369h1M243 370h2M254 370h1M254 371h1M254 372h1M254 373h1" />
<path stroke="#a999f1" d="M246 368h3M248 369h3" />
<path stroke="#6c6db1" d="M251 368h2M252 369h1" />
<path stroke="#aa98f1" d="M246 369h2M250 370h1" />
<path stroke="#6d6bb1" d="M251 369h1M252 370h1" />
<path stroke="#826a7c" d="M255 369h1M255 370h1M255 371h1M255 372h1M255 373h1" />
<path stroke="#ab97f1" d="M246 370h4M250 371h1" />
<path stroke="#6c69b1" d="M251 370h1" />
<path stroke="#2c2629" d="M242 371h1M242 372h1M245 372h1M242 373h1M245 373h1M242 374h1M245 374h1M253 374h1M256 374h1M242 375h1M245 375h1M253 375h1M256 375h1M204 376h10M242 376h1M245 376h1M253 376h1M256 376h1M213 377h1M242 377h1M245 377h1M253 377h1M256 377h1M297 377h8M213 378h1M242 378h1M245 378h1M253 378h1M256 378h1M269 378h21M297 378h1M304 378h1M213 379h1M242 379h1M245 379h1M253 379h1M256 379h1M269 379h1M289 379h1M297 379h1M304 379h1M242 380h1M245 380h1M253 380h1M256 380h1M269 380h1M289 380h1M297 380h1M304 380h1M242 381h1M245 381h1M253 381h1M256 381h1M269 381h1M289 381h1M297 381h1M304 381h1M242 382h1M245 382h2M253 382h1M256 382h1M269 382h1M289 382h1M297 382h1M304 382h1M228 383h19M253 383h1M256 383h1M269 383h1M289 383h9M304 383h1M228 384h1M246 384h1M253 384h1M256 384h1M269 384h1M289 384h1M304 384h1M246 385h1M253 385h1M256 385h1M269 385h1M289 385h1M304 385h1M246 386h1M253 386h1M256 386h1M269 386h1M289 386h1M304 386h1M246 387h1M253 387h1M256 387h1M269 387h1M289 387h1M304 387h1M246 388h1M253 388h1M256 388h1M269 388h1M289 388h1M304 388h1M249 389h12M269 389h1M289 389h1M304 389h1M260 390h1M269 390h1M289 390h1M304 390h1M260 391h1M269 391h1M289 391h1M304 391h1M289 392h1M304 392h1" />
<path stroke="#554856" d="M243 371h2M243 372h2M243 373h2M243 374h2M254 374h1M254 375h1M254 376h1M300 379h2" />
<path stroke="#ac96f1" d="M246 371h4M249 372h2" />
<path stroke="#6c68b1" d="M251 371h2" />
<path stroke="#ad96f2" d="M246 372h3M249 373h2" />
<path stroke="#6d68b1" d="M251 372h2" />
<path stroke="#ae95f2" d="M246 373h3M250 374h1" />
<path stroke="#6e67b1" d="M251 373h2" />
<path stroke="#85687d" d="M210 374h1M210 375h1M255 382h1M255 383h1M238 384h8M255 384h1M243 385h3M255 385h1M290 385h1M293 385h4M299 385h1M255 386h1M286 386h3M290 386h10M255 387h1M286 387h3M286 388h3M286 389h3" />
<path stroke="#af93f2" d="M246 374h4M247 375h1M249 375h2" />
<path stroke="#6f67b1" d="M251 374h2" />
<path stroke="#83697c" d="M255 374h1M255 375h1M255 376h1M255 377h1M255 378h1M268 378h1M298 378h6M268 379h1M270 379h19M298 379h2M274 380h4M280 380h9M298 380h2M287 381h1" />
<path stroke="#544756" d="M243 375h2M254 377h1" />
<path stroke="#b092f2" d="M246 375h1M248 375h1M249 376h2" />
<path stroke="#7165b1" d="M251 375h2M252 376h1" />
<path stroke="#2e2629" d="M192 376h12M192 378h1M192 379h1M192 380h1M213 380h1M192 381h1M213 381h1M192 382h1M213 382h1M192 383h1M213 383h1M192 384h1M213 384h1M192 385h1M213 385h1M228 385h1M192 386h1M213 386h16M192 387h1M213 387h1M192 388h1M213 388h1M192 389h1M213 389h1M246 389h3M192 390h1M213 390h1M246 390h1M192 391h1M213 391h1M246 391h1M213 392h1M246 392h1M260 392h1M269 392h1M192 393h1M213 393h1M246 393h1M260 393h1M269 393h1M289 393h1M304 393h1M213 394h1M246 394h1M260 394h1M269 394h1M289 394h1M304 394h1M213 395h1M246 395h1M260 395h10M289 395h1M304 395h1M213 396h1M246 396h1M260 396h1M269 396h1M289 396h1M304 396h1M213 397h1M246 397h1M269 397h1M289 397h1M304 397h1M213 398h1M246 398h1M269 398h1M289 398h1M304 398h1M213 399h1M246 399h1M269 399h1M289 399h1M304 399h1M213 400h1M246 400h1M269 400h1M289 400h1M304 400h1M246 401h1M269 401h1M289 401h1M304 401h1M246 402h1M269 402h1M289 402h1M304 402h1M246 403h1M269 403h1M289 403h1M304 403h1M246 404h1M269 404h1M289 404h1M304 404h1M233 405h3M238 405h42M289 405h1M304 405h1M279 406h1M289 406h1M304 406h1M279 407h1M289 407h1M304 407h1M279 408h1M289 408h1M304 408h1M279 409h1M289 409h1M304 409h1M279 410h1M289 410h1M304 410h1M279 411h1M289 411h1M304 411h1M279 412h1M289 412h1M304 412h1M289 413h1" />
<path stroke="#584757" d="M243 376h2M243 377h2M243 378h2M254 378h1M243 379h2M254 379h1M243 380h2M254 380h1M254 381h1M273 381h13M254 382h1M273 382h13M273 383h13M274 384h12M278 385h2M283 385h2" />
<path stroke="#b191f2" d="M246 376h3M249 377h2" />
<path stroke="#7264b1" d="M251 376h1M251 377h2" />
<path stroke="#392d33" d="M192 377h1M193 378h2M193 379h2M214 385h2M214 387h2M226 387h6M214 388h2M226 388h6M270 388h3M300 388h4M226 389h6M270 389h3M290 389h14M225 390h7M270 390h3M290 390h14M226 391h6M270 391h3M290 391h14M229 392h3M270 392h3M290 392h14M270 393h3M290 393h14M270 394h3M290 394h3M270 395h3M290 395h3M270 396h3M290 396h3M270 397h3M290 397h3M270 398h3M290 398h3M271 399h2M290 399h3" />
<path stroke="#87667d" d="M193 377h1M210 384h1M210 385h3M210 386h3M212 387h1M243 394h3M243 395h3M286 399h3M288 400h1" />
<path stroke="#87677d" d="M194 377h8M210 381h2M210 382h3M210 383h3M211 384h2M243 390h2M243 391h3M243 392h3M243 393h3M286 395h3M286 396h3M286 397h3M286 398h3" />
<path stroke="#86677c" d="M202 377h11M210 378h3M210 379h3M210 380h3M212 381h1M229 384h8M229 385h14M229 386h15M243 387h3M243 388h3M243 389h3M245 390h1M286 391h3M286 392h3M286 393h3M286 394h3" />
<path stroke="#b38ff2" d="M246 377h2M246 378h4M250 379h1" />
<path stroke="#b390f2" d="M248 377h1M250 378h1" />
<path stroke="#5b4758" d="M195 378h8M195 379h8M195 380h8M197 381h6M201 382h2M201 383h2M232 388h2M232 389h7M232 390h11M232 391h11M232 392h11M235 393h8M239 394h4M242 395h1M273 395h11M285 395h1M299 395h2M302 395h2M273 396h13M299 396h5M273 397h13M299 397h5M273 398h13M299 398h5M273 399h1M276 399h10M299 399h5M299 400h5" />
<path stroke="#534149" d="M203 378h7M203 379h7M203 380h7M203 381h7M203 382h7M203 383h7M203 384h7M207 385h3M209 386h1M216 387h10M216 388h10M217 389h9M218 390h7M247 390h13M247 391h13M247 392h13M231 393h1M247 393h13M247 394h13M293 394h6M247 395h13M293 395h6M247 396h13M261 396h8M293 396h6M250 397h19M293 397h6M254 398h15M293 398h6M260 399h3M265 399h4M293 399h6M293 400h6M295 401h1M297 401h1" />
<path stroke="#7263b1" d="M251 378h2M252 379h1" />
<path stroke="#b58ef2" d="M246 379h4M250 380h1" />
<path stroke="#7362b1" d="M251 379h1" />
<path stroke="#84697d" d="M255 379h1M268 380h1M270 380h4M278 380h2M286 381h1M288 381h1M298 381h2M286 382h3M298 382h2M286 383h2" />
<path stroke="#382d33" d="M302 379h2M300 380h4M270 381h3M300 381h4M270 382h3M300 382h4M270 383h3M300 383h4M270 384h3M300 384h4M270 385h3M300 385h4M270 386h3M300 386h4M270 387h3M290 387h14M290 388h10" />
<path stroke="#3a2d33" d="M193 380h2M193 381h2M193 382h2M193 383h2M193 384h2M193 385h2M193 386h2M193 387h2M193 388h2M193 389h2M214 389h2M193 390h2M214 390h2M193 391h2M214 391h2M225 391h1M193 392h2M214 392h2M225 392h4M193 393h2M214 393h2M227 393h4M193 394h2M214 394h2M214 395h2M194 396h1M214 396h2M214 397h2M220 397h3M214 398h9M214 399h9M270 399h1M214 400h9M247 400h10M270 400h3M290 400h3M214 401h9M247 401h10M270 401h3M290 401h3M215 402h8M247 402h10M270 402h3M290 402h3M214 403h2M217 403h6M247 403h10M270 403h3M290 403h3M217 404h1M220 404h3M247 404h10M270 404h3M290 404h3M222 405h1M290 405h3M290 406h3M290 407h3M290 408h3M290 409h3M290 410h3M290 411h4M290 412h9M290 413h11M293 414h3M298 414h1" />
<path stroke="#b68df2" d="M246 380h1M247 381h4" />
<path stroke="#b68ef2" d="M247 380h3" />
<path stroke="#7461b1" d="M251 380h2" />
<path stroke="#84687d" d="M255 380h1M255 381h1M288 383h1M298 383h2M286 384h3M290 384h10M286 385h3M291 385h2M297 385h2" />
<path stroke="#5c4758" d="M195 381h2M197 382h4M199 383h2M232 393h3M232 394h7M234 395h8M240 396h3M274 399h2M273 400h13M273 401h2M279 401h7M299 401h2M302 401h2" />
<path stroke="#594757" d="M243 381h2M243 382h2M254 383h1M254 384h1M273 384h1M254 385h1M273 385h5M280 385h3M285 385h1M254 386h1M273 386h13M254 387h1M273 387h13M273 388h13M273 389h9M283 389h2" />
<path stroke="#b78cf2" d="M246 381h1M247 382h4" />
<path stroke="#7660b1" d="M251 381h2" />
<path stroke="#5c4658" d="M195 382h2M195 383h4M195 384h8M195 385h8M197 386h6M201 387h2M203 388h1M232 395h2M232 396h8M232 397h11M235 398h8M238 399h3M242 399h1M275 401h4M301 401h1M273 402h13M299 402h5M273 403h13M299 403h5M273 404h13M299 404h5M285 405h1M299 405h1M303 405h1" />
<path stroke="#775fb1" d="M251 382h2" />
<path stroke="#b98af2" d="M248 383h1M250 384h1" />
<path stroke="#b98bf2" d="M249 383h2" />
<path stroke="#785eb1" d="M251 383h2" />
<path stroke="#87687d" d="M237 384h1M244 386h2M255 388h1M286 390h3" />
<path stroke="#b989f1" d="M248 384h2M249 385h2" />
<path stroke="#785db1" d="M251 384h2" />
<path stroke="#544149" d="M203 385h4M203 386h6M203 387h7M204 388h6M204 389h6M216 389h1M207 390h3M216 390h2M207 391h3M216 391h9M207 392h3M216 392h9M207 393h3M216 393h11M207 394h3M216 394h16M207 395h3M216 395h16M207 396h3M216 396h16M207 397h3M216 397h4M223 397h9M247 397h3M209 398h1M223 398h9M247 398h7M223 399h9M247 399h13M263 399h2M223 400h9M257 400h12M223 401h9M257 401h12M293 401h2M296 401h1M298 401h1M225 402h7M257 402h12M293 402h6M228 403h4M257 403h12M293 403h6M257 404h12M293 404h6M293 405h6M293 406h6M293 407h6M293 408h6M293 409h6M265 410h12M293 410h6M270 411h1M294 411h5" />
<path stroke="#ba88f1" d="M248 385h1" />
<path stroke="#795cb1" d="M251 385h2" />
<path stroke="#5d4658" d="M195 386h2M195 387h6M195 388h8M195 389h9M197 390h10M197 391h10M201 392h6M202 393h2M206 393h1M232 398h3M232 399h6M241 399h1M232 400h11M232 401h11M236 402h7M239 403h2M240 404h1M280 405h5M300 405h3M280 406h6M299 406h5M280 407h6M299 407h5M282 408h3M299 408h5M300 409h3" />
<path stroke="#795bb1" d="M251 386h2" />
<path stroke="#88667d" d="M210 387h2M210 388h3M210 389h3M210 390h3M211 391h2M243 396h3M243 397h3M243 398h3M243 399h3M243 400h1M286 400h2M286 401h3M286 402h3M286 403h3M286 404h3M286 405h1" />
<path stroke="#5a4757" d="M232 387h11M234 388h9M254 388h1M239 389h4M282 389h1M285 389h1M273 390h13M273 391h13M273 392h13M273 393h13M273 394h13M299 394h5M284 395h1M301 395h1" />
<path stroke="#7b5bb1" d="M251 387h1" />
<path stroke="#7b59b1" d="M252 387h1" />
<path stroke="#7c58b1" d="M251 388h2" />
<path stroke="#5d4458" d="M195 390h2M195 391h2M195 392h6M201 393h1M204 393h2M202 394h5M204 395h3M232 402h4M233 403h1M235 403h4M241 403h2M238 404h2M241 404h2M280 408h2M285 408h1M280 409h6M299 409h1M303 409h1M281 410h2M284 410h2M299 410h2" />
<path stroke="#89667d" d="M210 391h1M210 392h3M210 393h3M210 394h3M210 395h3M210 396h3M210 397h3M244 400h2M243 401h3M243 402h3M243 403h3M243 404h3M287 405h2M244 406h4M249 406h30M286 406h3M250 407h4M256 407h23M286 407h3M252 408h1M260 408h19M286 408h3M267 409h2M270 409h9M286 409h3M286 410h1" />
<path stroke="#2f2629" d="M192 392h1M192 394h1M192 395h1M192 396h1M192 397h1M192 398h1M192 399h1M192 400h1M192 401h1M213 401h1M192 402h1M213 402h1M192 403h1M213 403h1M192 404h1M213 404h1M192 405h1M213 405h1M223 405h10M236 405h2M192 406h1M213 406h1M223 406h1M192 407h1M213 407h1M223 407h1M192 408h1M213 408h1M223 408h1M192 409h1M213 409h1M223 409h1M192 410h1M213 410h1M223 410h1M192 411h1M213 411h1M223 411h1M192 412h1M213 412h1M223 412h1M192 413h1M213 413h1M223 413h1M279 413h1M304 413h1M192 414h1M213 414h1M223 414h1M279 414h1M289 414h1M304 414h1M192 415h1M213 415h1M223 415h1M279 415h1M289 415h1M304 415h1M192 416h1M213 416h1M223 416h1M279 416h1M289 416h1M304 416h1M192 417h1M213 417h1M223 417h1M279 417h1M289 417h1M304 417h1M192 418h1M213 418h1M223 418h1M279 418h1M289 418h1M304 418h1M192 419h1M213 419h1M223 419h1M279 419h1M289 419h1M304 419h1M213 420h1M223 420h1M279 420h1M289 420h1M304 420h1M213 421h1M223 421h1M279 421h1M289 421h1M304 421h1M213 422h1M223 422h1M279 422h1M289 422h1M304 422h1M213 423h1M223 423h1M279 423h1M289 423h1M304 423h1M213 424h1M223 424h1M279 424h1M289 424h1M304 424h1M213 425h1M223 425h1M279 425h1M289 425h1M304 425h1M213 426h1M223 426h1M279 426h1M289 426h1M304 426h1M223 427h1M279 427h1M289 427h1M304 427h1M223 428h1M279 428h1M289 428h1M304 428h1M279 429h1M289 429h1M304 429h1M279 430h1M289 430h1M304 430h1M279 431h1M289 431h1M304 431h1M279 432h1M289 432h1M304 432h1M279 433h1M289 433h1M304 433h1M279 434h1M289 434h1M304 434h1M279 435h1M289 435h1M304 435h1" />
<path stroke="#5e4458" d="M195 393h6M195 394h7M195 395h9M195 396h12M195 397h12M196 398h11M198 399h9M200 400h1M204 400h3M204 401h3M232 403h1M234 403h1M232 404h6M248 410h17M277 410h2M280 410h1M283 410h1M301 410h3M237 411h1M248 411h17M280 411h6M299 411h5M248 412h17M280 412h6M299 412h5M251 413h1M256 413h15M280 413h6M301 413h3M265 414h6M280 414h6M301 414h3M269 415h2M280 415h6M296 415h2M301 415h3M283 416h2" />
<path stroke="#3b2d33" d="M193 395h2M193 396h1M193 397h2M193 398h2M193 399h2M193 400h2M193 401h2M193 402h2M214 402h1M193 403h2M216 403h1M193 404h2M214 404h3M218 404h2M193 405h2M214 405h8M193 406h2M214 406h9M193 407h2M214 407h9M193 408h2M214 408h9M193 409h2M214 409h9M193 410h2M214 410h9M193 411h2M214 411h9M214 412h9M214 413h9M214 414h9M290 414h3M296 414h2M299 414h2M214 415h9M290 415h3M298 415h3M214 416h9M290 416h3M298 416h3M214 417h9M290 417h3M298 417h3M216 418h7M290 418h3M298 418h3M218 419h5M290 419h3M298 419h3M219 420h4M290 420h3M298 420h3M290 421h3M298 421h3M290 422h3M298 422h3M290 423h3M298 423h3M290 424h3M298 424h3M290 425h3M298 425h3M290 426h3M298 426h3M290 427h3M298 427h3M290 428h3M298 428h3M292 429h1M298 429h3M298 430h1" />
<path stroke="#604459" d="M195 398h1M195 399h3M197 400h3M201 400h3M200 401h4M202 402h5M233 410h2M235 411h2M248 413h3M252 413h4M250 414h15M252 415h17M257 416h5M265 416h6M280 416h3M285 416h1M295 416h3M301 416h3M280 417h6M295 417h3M301 417h2M301 418h1" />
<path stroke="#554249" d="M207 398h2M207 399h3M207 400h3M207 401h3M207 402h3M223 402h2M207 403h3M223 403h5M207 404h3M223 404h9M207 405h3M207 406h3M224 406h1M207 407h3M224 407h1M207 408h3M224 408h1M207 409h3M224 409h1M207 410h3M224 410h9M235 410h13M224 411h9M238 411h10M265 411h5M271 411h5M224 412h8M238 412h10M265 412h11M224 413h8M241 413h7M271 413h5M224 414h8M241 414h7M271 414h5M224 415h8M244 415h4M271 415h5M293 415h3M224 416h8M244 416h4M271 416h5M293 416h2M230 417h2M244 417h4M271 417h5M293 417h2M245 418h3M271 418h5M293 418h2M245 419h3M274 419h2M293 419h2M245 420h3M274 420h2M293 420h2M245 421h1M274 421h2M293 421h2M274 422h2M293 422h2M301 422h3M274 423h2M293 423h2M301 423h3M302 424h1" />
<path stroke="#8a667d" d="M210 398h3M210 399h3M210 400h3M210 401h3M210 402h3M225 406h19M248 406h1M226 407h24M254 407h2M231 408h21M253 408h7M234 409h33M269 409h1M287 410h2M276 411h3M286 411h3M276 412h3M286 412h3M276 413h3M286 413h3M276 414h3M286 414h3M276 415h2M287 415h2" />
<path stroke="#60435b" d="M195 400h2M195 401h5M195 402h7M195 403h12M195 404h12M199 405h8M201 406h6M203 407h4M233 411h2M232 412h6M232 413h9M232 414h9M248 414h2M232 415h12M248 415h4M236 416h8M248 416h9M262 416h3M236 417h4M242 417h2M248 417h23M303 417h1M248 418h5M266 418h5M280 418h6M295 418h3M302 418h2M250 419h3M266 419h8M280 419h6M295 419h3M301 419h3M266 420h8M280 420h6M295 420h3M301 420h3M265 421h9M280 421h6M295 421h3M301 421h3M272 422h1M280 422h1M283 422h3M295 422h3M295 423h2" />
<path stroke="#8c657d" d="M210 403h1M212 403h1M210 404h3M210 405h3M210 406h3M210 407h3M210 408h3M225 408h2M210 409h3M225 409h3M210 410h2M276 416h3M286 416h3M276 417h3M286 417h3M253 418h13M276 418h3M286 418h3M253 419h13M276 419h3M286 419h3M255 420h6M262 420h4M276 420h3M286 420h3M276 421h3M286 421h3M277 422h1M286 422h3M288 423h1" />
<path stroke="#8a657d" d="M211 403h1M225 407h1M227 408h4M228 409h6M278 415h1M286 415h1" />
<path stroke="#61435b" d="M195 405h4M195 406h6M195 407h8M195 408h12M196 409h11M200 410h7M200 411h7M201 412h6M206 413h1M232 416h4M232 417h4M240 417h2M232 418h4M232 419h4M248 419h2M235 420h1M248 420h5M237 421h7M248 421h17M239 422h4M248 422h2M253 422h19M273 422h1M281 422h2M248 423h2M253 423h21M280 423h6M297 423h1M254 424h20M280 424h6M293 424h5M258 425h16M280 425h6M293 425h5M269 426h2M280 426h1M283 426h3M293 426h5M284 427h2M294 427h1M297 427h1" />
<path stroke="#61425a" d="M195 409h1M195 410h5M197 411h3M197 412h4M204 413h2M206 414h1M206 415h1M227 420h2M232 420h3M232 421h1M236 421h1M236 422h3M243 422h2M237 423h8M244 424h1M248 424h2M253 424h1M248 425h2M253 425h5M256 426h13M271 426h3M281 426h2M260 427h2M264 427h10M280 427h4M293 427h1M295 427h2M268 428h2M271 428h3M280 428h1M283 428h1M285 428h1M293 428h5M296 429h2" />
<path stroke="#8d657d" d="M212 410h1M210 411h3M210 412h3M236 418h9M236 419h9M236 420h3M241 420h4M253 420h2M261 420h1M247 422h1M276 422h1M278 422h1M276 423h3M286 423h2M276 424h3M286 424h3M278 425h1M286 425h3" />
<path stroke="#62425a" d="M195 411h2M195 412h2M195 413h9M195 414h11M195 415h11M195 416h12M195 417h12M195 418h12M195 419h12M195 420h12M198 421h9M227 421h2M202 422h5M227 422h2M232 422h1M203 423h4M227 423h2M232 423h1M236 423h1M206 424h1M227 424h2M232 424h1M236 424h8M224 425h9M236 425h9M224 426h9M236 426h9M248 426h2M253 426h3M224 427h9M236 427h9M248 427h2M253 427h7M262 427h2M224 428h9M236 428h9M248 428h2M253 428h15M270 428h1M281 428h2M284 428h1M224 429h9M236 429h9M248 429h2M253 429h21M280 429h6M293 429h3M228 430h5M236 430h9M248 430h2M253 430h21M280 430h6M293 430h5M237 431h8M248 431h2M253 431h21M280 431h6M293 431h5M241 432h4M248 432h2M253 432h21M280 432h6M293 432h5M248 433h5M264 433h10M280 433h6M293 433h5M249 434h1M264 434h10M283 434h3M293 434h5M264 435h2M267 435h7M283 435h3M293 435h5M283 436h3M293 436h1M295 436h3M285 437h1M295 437h1" />
<path stroke="#584349" d="M207 411h3M207 412h3M207 413h3M207 414h3M207 415h3M207 416h3M207 417h3M224 417h6M207 418h3M224 418h8M207 419h3M224 419h8M224 420h3M229 420h3M224 421h3M229 421h3M244 421h1M246 421h2M224 422h3M229 422h3M225 423h2M229 423h3M229 424h1M231 424h1M274 424h2M301 424h1M303 424h1M274 425h2M301 425h3M274 426h2M301 426h3M274 427h2M301 427h3M274 428h2M301 428h3M274 429h2M301 429h3M274 430h2M301 430h3M274 431h2M301 431h3" />
<path stroke="#3c2d33" d="M193 412h2M193 413h2M193 414h2M193 415h2M193 416h2M193 417h2M193 418h2M214 418h2M193 419h2M214 419h4M214 420h5M214 421h9M214 422h9M214 423h9M214 424h9M214 425h9M217 426h6M217 427h6M216 428h1M219 428h4M290 429h2M290 430h3M299 430h2M290 431h3M298 431h3M290 432h3M298 432h3M290 433h3M298 433h3M290 434h3M298 434h3M290 435h3M298 435h3M292 436h1" />
<path stroke="#8d647d" d="M210 413h3M210 414h3M210 415h3M212 416h1M239 420h2M233 421h3M235 422h1M245 422h2M250 422h3M245 423h3M250 423h3M245 424h3M250 424h3M246 425h2M250 425h3M276 425h2M276 426h3M286 426h3M276 427h3M286 427h3M276 428h3M286 428h3M286 429h3" />
<path stroke="#8e647d" d="M210 416h2M210 417h3M210 418h3M210 419h3M210 420h3M210 421h3M210 422h3M233 422h2M210 423h3M233 423h3M210 424h3M233 424h3M211 425h2M233 425h3M245 425h1M212 426h1M233 426h3M245 426h3M250 426h3M233 427h3M245 427h3M250 427h3M233 428h3M245 428h3M250 428h3M233 429h3M245 429h3M250 429h3M276 429h3M233 430h3M245 430h3M250 430h3M276 430h3M286 430h3M245 431h3M250 431h3M276 431h3M286 431h3M245 432h3M250 432h3M276 432h3M286 432h3M247 433h1M253 433h11M276 433h3M286 433h3M258 434h6M276 434h3M286 434h3M258 435h4M276 435h3M286 435h3M278 436h1M286 436h3" />
<path stroke="#312729" d="M192 420h1M192 421h1M192 422h1M146 423h22M192 423h1M146 424h4M167 424h1M192 424h1M146 425h4M167 425h1M192 425h1M146 426h4M167 426h1M192 426h1M146 427h4M167 427h1M192 427h1M213 427h1M146 428h5M168 428h1M192 428h1M213 428h1M146 429h5M168 429h1M192 429h1M213 429h1M223 429h1M146 430h6M169 430h1M192 430h1M213 430h1M223 430h1M146 431h6M169 431h1M192 431h1M213 431h1M223 431h1M146 432h7M170 432h1M192 432h1M213 432h1M223 432h1M146 433h7M170 433h1M192 433h1M213 433h1M223 433h1M146 434h8M171 434h1M192 434h1M213 434h1M223 434h1M146 435h8M171 435h1M192 435h1M213 435h1M223 435h1M146 436h9M172 436h1M192 436h1M213 436h1M223 436h1M279 436h1M289 436h1M304 436h1M146 437h9M172 437h1M192 437h1M213 437h1M223 437h1M279 437h1M289 437h1M304 437h1M146 438h10M173 438h1M192 438h1M213 438h1M223 438h1M279 438h1M289 438h1M304 438h1M146 439h10M173 439h1M192 439h1M213 439h1M223 439h1M279 439h1M289 439h1M304 439h1M146 440h10M173 440h1M192 440h1M213 440h1M223 440h1M279 440h1M289 440h1M304 440h1M146 441h10M173 441h1M192 441h1M213 441h1M223 441h1M279 441h1M289 441h1M304 441h1M146 442h10M173 442h1M192 442h1M213 442h1M223 442h1M279 442h1M289 442h1M304 442h1M146 443h10M173 443h1M192 443h1M213 443h1M223 443h1M279 443h1M289 443h1M304 443h1M146 444h10M173 444h1M192 444h1M213 444h1M223 444h1M279 444h1M289 444h1M304 444h1M146 445h10M173 445h1M192 445h1M213 445h1M223 445h1M279 445h1M289 445h1M304 445h1M149 446h7M173 446h1M192 446h1M213 446h1M223 446h1M279 446h1M289 446h1M304 446h1M147 447h1M150 447h6M173 447h1M192 447h1M213 447h1M223 447h1M279 447h1M289 447h1M304 447h1M151 448h5M173 448h1M192 448h1M213 448h1M223 448h1M279 448h1M289 448h1M304 448h1M152 449h4M173 449h1M192 449h1M213 449h1M223 449h1M279 449h1M289 449h1M304 449h1M152 450h4M173 450h1M192 450h1M213 450h1M223 450h1M279 450h1M289 450h1M304 450h1M173 451h1M192 451h1M213 451h1M223 451h1M279 451h1M289 451h1M304 451h1M173 452h1M192 452h1M213 452h1M223 452h1M279 452h1M289 452h1M304 452h1M173 453h1M192 453h11M213 453h1M223 453h1M279 453h1M289 453h1M304 453h1M173 454h1M191 454h2M202 454h1M213 454h1M223 454h1M279 454h1M289 454h1M304 454h1M173 455h1M190 455h1M202 455h1M213 455h1M223 455h1M279 455h1M289 455h1M304 455h1M173 456h1M184 456h7M202 456h1M213 456h1M223 456h1M279 456h1M289 456h1M304 456h1M173 457h1M184 457h1M202 457h1M213 457h1M223 457h1M279 457h1M289 457h1M304 457h1M173 458h1M184 458h1M202 458h1M213 458h1M223 458h1M279 458h1M289 458h1M304 458h1M184 459h1M202 459h1M213 459h1M223 459h1M279 459h1M289 459h1M304 459h1M184 460h1M202 460h1M213 460h1M223 460h1M279 460h1M289 460h1M304 460h1M184 461h1M202 461h1M213 461h1M223 461h1M279 461h1M289 461h1M304 461h1M184 462h1M202 462h1M213 462h1M223 462h1M279 462h1M289 462h1M304 462h1M202 463h1M213 463h1M223 463h1M279 463h1M289 463h1M304 463h1M202 464h1M213 464h1M223 464h1M279 464h1M289 464h1M304 464h1M202 465h1M213 465h1M223 465h1M279 465h1M289 465h1M304 465h1M202 466h1M213 466h1M223 466h1M279 466h1M289 466h1M304 466h1M202 467h1M213 467h1M223 467h1M279 467h1M289 467h1M304 467h1M206 468h118M324 469h1M325 470h1M326 471h1M327 472h1M327 473h1M327 474h1M327 475h1M327 476h1M327 477h1M327 478h1M327 479h1M298 481h1M298 482h1" />
<path stroke="#3c2d32" d="M193 420h2M193 421h2M193 422h2M193 423h2M193 424h2M193 425h2M193 426h2M214 426h3M193 427h2M214 427h3M193 428h2M214 428h2M217 428h2M193 429h2M214 429h9M193 430h2M214 430h9M193 431h2M214 431h9M193 432h2M214 432h9M193 433h2M214 433h9M193 434h2M214 434h9M193 435h2M214 435h9M193 436h2M214 436h9M290 436h2M194 437h1M214 437h9M290 437h3M296 437h3M214 438h9M290 438h3M296 438h3M214 439h9M290 439h3M296 439h3M214 440h9M290 440h3M296 440h3M214 441h9M290 441h3M296 441h3M214 442h9M290 442h3M296 442h3M215 443h8M290 443h3M296 443h3M218 444h5M290 444h3M296 444h3M219 445h1M290 445h3M296 445h3M290 446h3M296 446h3M290 447h3M296 447h3M290 448h3M296 448h3M290 449h3M296 449h3M290 450h3M296 450h3M290 451h3M296 451h3M290 452h3M296 452h2M292 453h1" />
<path stroke="#584348" d="M207 420h3M207 421h3M207 422h3M207 423h3M224 423h1M207 424h3M224 424h3M230 424h1M197 425h1M207 425h3M207 426h3M209 427h1M274 432h2M301 432h3M274 433h2M301 433h3M274 434h2M280 434h3M301 434h3M274 435h2M280 435h3M301 435h3M274 436h2M280 436h3M298 436h6M274 437h2M280 437h3M299 437h5M274 438h2M280 438h3M280 439h3" />
<path stroke="#63425b" d="M195 421h3M195 422h7M198 423h5M200 424h6M206 425h1M224 430h4M224 431h9M236 431h1M228 432h5M236 432h5M229 433h4M236 433h9M248 434h1M250 434h3M248 435h6M266 435h1M253 436h11M267 436h7M294 436h1M267 437h3M283 437h2M293 437h2M285 438h1M293 438h1M295 438h1M299 438h1M303 438h1" />
<path stroke="#63415b" d="M195 423h3M195 424h5M198 425h8M198 426h9M198 427h9M198 428h9M198 429h9M198 430h9M198 431h9M202 432h1M204 432h3M224 432h4M205 433h2M224 433h5M224 434h9M236 434h9M224 435h9M236 435h9M224 436h9M236 436h9M248 436h5M227 437h6M236 437h9M248 437h16M270 437h4M227 438h6M236 438h9M248 438h16M267 438h7M283 438h2M294 438h1M300 438h3M227 439h6M236 439h9M248 439h16M267 439h7M283 439h3M293 439h3M299 439h5M229 440h3M236 440h9M248 440h16M267 440h7M283 440h3M293 440h3M299 440h5M236 441h9M248 441h16M267 441h9M283 441h3M293 441h3M299 441h5M240 442h1M243 442h2M248 442h16M267 442h9M283 442h3M293 442h3M299 442h5M250 443h14M267 443h9M283 443h3M293 443h3M299 443h5M253 444h2M257 444h7M267 444h9M283 444h3M293 444h3M299 444h5M253 445h2M257 445h3M261 445h3M267 445h9M283 445h3M293 445h3M300 445h4M270 446h1M273 446h3M293 446h1" />
<path stroke="#8d627d" d="M150 424h16M150 425h16M166 426h1M166 427h1M166 428h2M167 429h1M167 430h2M168 431h1M168 432h2M169 433h1M169 434h2M170 435h1M170 436h2M171 437h1M163 438h10M162 439h11M171 440h2M171 441h2M171 442h2M171 443h2" />
<path stroke="#8c627d" d="M166 424h1M166 425h1" />
<path stroke="#594348" d="M195 425h2M195 426h3M195 427h3M207 427h2M195 428h3M207 428h3M195 429h3M207 429h3M195 430h3M207 430h3M195 431h3M207 431h3M195 432h3M207 432h3M195 433h3M207 433h3M195 434h3M207 434h3M195 435h3M207 435h3M195 436h3M207 436h3M195 437h3M207 437h3M224 437h3M195 438h3M207 438h3M224 438h3M195 439h3M207 439h3M224 439h3M274 439h2M195 440h3M207 440h3M224 440h3M274 440h2M280 440h3M195 441h3M207 441h3M224 441h3M280 441h3M195 442h3M207 442h3M224 442h3M280 442h3M195 443h3M207 443h3M224 443h3M280 443h3M195 444h3M207 444h3M224 444h5M280 444h3M195 445h3M207 445h3M224 445h5M280 445h3M197 446h1M200 446h10M224 446h5M280 446h6M197 447h1M200 447h10M224 447h8M273 447h3M280 447h6M293 447h3M201 448h3M205 448h5M224 448h8M273 448h3M280 448h6M293 448h3M201 449h1M206 449h1M209 449h1M224 449h8M267 449h3M273 449h3M280 449h6M293 449h3M209 450h1M224 450h8M267 450h3M273 450h3M280 450h6M293 450h3M209 451h1M224 451h8M267 451h3M273 451h3M280 451h6M293 451h3M224 452h8M267 452h3M273 452h3M280 452h6M293 452h3M224 453h8M267 453h3M273 453h3M280 453h8M293 453h3M224 454h4M231 454h1M267 454h3M273 454h6M280 454h8M293 454h3M232 455h1M235 455h1M251 455h2M262 455h17M280 455h8M293 455h3M237 456h2M240 456h5M251 456h28M280 456h8M293 456h3M235 457h2M252 457h27M280 457h8M293 457h3M299 457h5M262 458h4M269 458h10M280 458h8M293 458h3M299 458h5M269 459h10M280 459h2M285 459h3M293 459h3M299 459h5M271 460h7M281 460h1M285 460h3M293 460h1M299 460h3M293 461h1M302 461h1" />
<path stroke="#8f647e" d="M210 425h1M210 426h2M210 427h3M210 428h3M210 429h3M210 430h3M210 431h3M233 431h3M210 432h3M233 432h3M210 433h3M233 433h3M245 433h2M210 434h3M233 434h3M245 434h3M253 434h5M210 435h3M233 435h3M245 435h3M254 435h4M262 435h2M233 436h3M245 436h3M264 436h3M276 436h2M233 437h3M245 437h3M264 437h3M276 437h3M286 437h3M233 438h3M245 438h3M264 438h3M276 438h3M286 438h3M233 439h3M245 439h3M264 439h3M276 439h3M286 439h3M233 440h3M245 440h3M264 440h3M276 440h3M286 440h3M235 441h1M245 441h3M264 441h3M276 441h3M286 441h3M245 442h3M264 442h3M276 442h3M286 442h3M245 443h1M264 443h3M276 443h3M286 443h3M264 444h3M276 444h3M286 444h3M264 445h3M276 445h3M286 445h3M286 446h3M287 447h1" />
<path stroke="#6e1658" d="M150 426h2M150 427h4M151 428h1M151 429h5M152 430h2M152 431h10M153 432h3M161 432h3M156 433h12M156 434h13M157 435h13M160 436h10M160 437h1M164 437h7" />
<path stroke="#6d1658" d="M152 426h6M159 426h5M154 427h10M157 428h9M156 429h4M161 429h3M165 429h2M159 430h8M162 431h6M165 432h3M168 433h1" />
<path stroke="#6b1658" d="M158 426h1M164 426h2M164 427h2M164 429h1" />
<path stroke="#e398ca" d="M152 428h5M160 429h1M154 430h5M156 432h5M164 432h1" />
<path stroke="#64415b" d="M198 432h4M203 432h1M198 433h7M198 434h9M198 435h9M198 436h9M198 437h9M198 438h9M198 439h9M201 440h6M227 440h2M232 440h1M202 441h5M227 441h6M204 442h2M227 442h6M236 442h4M241 442h2M227 443h6M236 443h9M248 443h2M229 444h4M236 444h9M248 444h5M255 444h2M229 445h4M236 445h9M248 445h5M255 445h2M260 445h1M299 445h1M229 446h4M236 446h9M248 446h2M263 446h1M267 446h3M271 446h2M294 446h2M299 446h5M232 447h4M245 447h5M263 447h10M299 447h5M234 448h2M245 448h5M263 448h10M299 448h5M245 449h22M270 449h3M299 449h5M242 450h25M270 450h3M299 450h5M247 451h6M254 451h4M259 451h8M270 451h3M299 451h5M250 452h1M259 452h8M270 452h3M299 452h5M272 453h1M288 453h1M299 453h5M288 454h1M299 454h5" />
<path stroke="#6f1658" d="M153 433h3M154 434h2M154 435h3M155 436h5M155 437h5M161 437h3" />
<path stroke="#91647e" d="M210 436h3M210 437h3M210 438h3M210 439h3M210 440h3M212 441h1M233 441h2M212 442h1M233 442h3M233 443h3M246 443h2M233 444h3M245 444h3M233 445h3M245 445h3M233 446h1M235 446h1M245 446h3M250 446h13M264 446h3M276 446h3M237 447h1M241 447h4M250 447h13M276 447h3M286 447h1M288 447h1M241 448h4M250 448h13M276 448h3M286 448h3M276 449h3M286 449h3M276 450h3M286 450h3M276 451h3M286 451h3" />
<path stroke="#3d2d33" d="M193 437h1M193 438h2M193 439h2M193 440h2M193 441h2M193 442h2M193 443h2M214 443h1M193 444h2M214 444h4M193 445h2M214 445h5M220 445h3M193 446h2M214 446h9M193 447h2M214 447h9M193 448h2M214 448h9M193 449h2M214 449h9M193 450h2M214 450h9M193 451h2M214 451h9M193 452h2M214 452h9M298 452h1M207 453h3M214 453h9M290 453h2M296 453h3M207 454h3M214 454h9M290 454h3M296 454h3M207 455h3M214 455h9M290 455h3M296 455h3M207 456h3M214 456h9M290 456h3M296 456h3M207 457h3M214 457h9M290 457h3M296 457h3M207 458h3M214 458h9M266 458h3M290 458h3M296 458h3M207 459h3M214 459h9M263 459h6M282 459h3M290 459h3M296 459h3M207 460h3M214 460h9M263 460h6M282 460h3M290 460h3M296 460h3M207 461h3M214 461h9M263 461h6M282 461h3M290 461h3M296 461h3M207 462h3M214 462h9M224 462h8M235 462h3M257 462h12M282 462h3M290 462h9M207 463h3M214 463h9M224 463h8M235 463h3M257 463h12M282 463h3M290 463h9M203 464h7M214 464h9M224 464h8M235 464h3M257 464h12M282 464h3M290 464h9M203 465h7M214 465h9M224 465h20M247 465h29M280 465h5M290 465h14M203 466h7M214 466h9M224 466h20M247 466h29M280 466h5M290 466h14M203 467h7M214 467h9M224 467h20M247 467h29M280 467h5M290 467h14" />
<path stroke="#8e627e" d="M156 438h7M156 439h6M159 443h11M169 444h1M171 444h2M169 445h1M171 445h2M169 446h1M171 446h2M169 447h1M171 447h2M169 448h1M171 448h2M169 449h1M171 449h2M169 450h1M171 450h2" />
<path stroke="#643e58" d="M156 440h5M156 441h5M163 441h1M156 442h2M156 443h2M157 444h1M159 444h7M157 445h1M159 445h2M163 445h6M165 446h4M165 447h4M162 448h4M168 448h1" />
<path stroke="#633e58" d="M161 440h10M161 441h2M164 441h7M166 444h3" />
<path stroke="#64405b" d="M198 440h3M198 441h4M203 442h1M206 442h1M206 443h1M232 448h2M232 449h4M234 450h1M240 450h2M242 451h1M246 451h1M253 451h1M258 451h1M249 452h1M251 452h1M253 452h6M262 453h2M265 453h2M270 453h2M270 454h3M303 455h1" />
<path stroke="#91637e" d="M210 441h2M210 442h2M210 443h3M234 446h1M236 447h1M238 447h3M236 448h5M236 449h9M276 452h3M286 452h3M254 453h4M260 453h2M276 453h3M261 454h1" />
<path stroke="#4e3c3f" d="M158 442h13M158 443h1M170 443h1M158 444h1M170 444h1M158 445h1M170 445h1M158 446h1M170 446h1M158 447h1M170 447h1M158 448h1M170 448h1M158 449h1M170 449h1M158 450h1M170 450h1M158 451h1M170 451h1M158 452h1M168 452h1M170 452h1M158 453h1M168 453h1M170 453h1M158 454h1M168 454h1M170 454h1M158 455h1M168 455h1M170 455h1M158 456h1M168 456h1M170 456h1M158 457h1M170 457h1M158 458h1M170 458h1M158 459h1M170 459h1M158 460h1M170 460h1M158 461h1M170 461h1M158 462h1M170 462h1M158 463h1M170 463h1M158 464h1M170 464h1M170 465h1M161 466h10M175 473h1M189 473h6M204 473h7M178 474h1M189 474h2M193 474h2M204 474h7M188 475h1M195 475h2M202 475h2M211 475h2M325 475h2M195 476h2M202 476h2M211 476h2M325 476h2M195 477h2M202 477h2M211 477h2M324 477h3M195 478h2M202 478h2M211 478h2M324 478h3M211 479h2M322 479h5M211 480h2M310 480h1M314 480h12M216 485h1M243 485h26M273 485h9M286 485h9M299 485h8M311 485h9M315 486h1M318 486h3M316 487h1M318 487h3M315 488h1M317 488h1M261 491h1M266 491h6M274 491h1M280 491h2M288 491h1M299 491h2M305 491h2M312 491h1M315 491h1M321 491h1" />
<path stroke="#65405b" d="M198 442h5M198 443h8M198 444h9M198 445h9M198 446h2M198 447h2M198 448h2M198 449h2M198 450h2M232 450h2M235 450h5M198 451h2M232 451h10M243 451h3M198 452h2M232 452h17M252 452h1M232 453h4M246 453h1M250 453h3M264 453h1M193 454h1M196 454h6M232 454h4M246 454h1M250 454h3M262 454h5M196 455h6M246 455h1M250 455h1M288 455h1M299 455h4M197 456h3M245 456h6M288 456h1M299 456h5M288 457h1M254 458h1M258 458h1M288 458h1M254 459h1M258 459h1M288 459h1M245 460h3M254 460h1M258 460h1M288 460h1M245 461h3M254 461h7M288 461h1M245 462h3M254 462h3M288 462h1M288 463h1M288 464h1M288 465h1M288 466h1M288 467h1M261 469h3M273 469h3M278 469h14M294 469h1M298 469h1M301 469h1M305 469h2M308 469h2M311 469h1M315 469h2M262 470h2M278 470h2M286 470h3M294 470h1M298 470h1M301 470h1M310 470h1M277 471h2" />
<path stroke="#643d58" d="M156 444h1M156 445h1M161 445h2M156 446h2M159 446h6M156 447h2M159 447h6M156 448h2M159 448h3M166 448h2M156 449h2M159 449h10M156 450h2M159 450h10M156 451h2M159 451h10M156 452h2M159 452h9M156 453h2M159 453h9M156 454h2M159 454h9M156 455h2M159 455h9M156 456h2M159 456h9M156 457h2M159 457h10M156 458h2M159 458h10M156 459h2M159 459h10M160 460h9M159 461h10M162 462h7M168 463h1" />
<path stroke="#93637e" d="M210 444h3M210 445h3M210 446h3M210 447h3M210 448h3M210 449h3M210 450h3M210 451h3M210 452h3M210 453h3M236 453h10M247 453h3M253 453h1M258 453h2M210 454h3M236 454h10M247 454h3M253 454h8M210 455h3M236 455h10M247 455h3M253 455h9M210 456h3M210 457h3M239 457h13M210 458h3M239 458h13M255 458h3M259 458h3M210 459h3M239 459h13M255 459h3M259 459h3M255 460h3M259 460h3M260 469h1M307 469h1M310 469h1M317 469h1M311 470h1" />
<path stroke="#322729" d="M146 446h3M146 447h1M148 447h2M147 448h4M147 449h5M147 450h5M148 451h8M148 452h8M148 453h8M148 454h8M148 455h8M148 456h8M148 457h8M148 458h8M148 459h8M173 459h1M148 460h8M173 460h1M148 461h8M173 461h1M148 462h8M173 462h1M148 463h8M173 463h1M184 463h1M148 464h8M173 464h1M184 464h1M148 465h8M173 465h1M184 465h1M148 466h8M173 466h1M184 466h1M148 467h8M173 467h1M184 467h1M147 468h59M146 469h1M145 470h1M144 471h1M143 472h1M143 473h1M143 474h1M143 475h1M143 476h1M143 477h1M143 478h1M143 479h1M143 480h1M326 480h2M143 481h155M299 481h28M144 482h154M299 482h27M145 483h180M142 484h182M141 485h1M151 485h4M163 485h4M176 485h4M189 485h4M269 485h4M282 485h4M295 485h4M307 485h4M320 485h1M140 486h1M152 486h4M164 486h4M177 486h4M190 486h4M268 486h4M281 486h4M294 486h4M306 486h4M321 486h1M140 487h1M153 487h4M165 487h4M178 487h4M191 487h4M267 487h4M280 487h4M293 487h4M305 487h4M321 487h1M140 488h1M154 488h4M166 488h4M179 488h4M192 488h4M266 488h4M279 488h4M292 488h4M304 488h4M321 488h1M139 489h183M139 490h183M138 491h1M322 491h1M138 492h1M322 492h1M138 493h1M322 493h1M138 494h1M322 494h1M138 495h1M322 495h1M136 496h188M136 497h188M135 498h1M251 498h73M134 499h1M251 499h1M296 499h1M300 499h1M306 499h1M310 499h1M134 500h1M251 500h1M296 500h1M300 500h1M306 500h1M310 500h1M134 501h1M251 501h1M296 501h1M300 501h1M306 501h1M310 501h1M134 502h1M251 502h1M296 502h1M300 502h1M306 502h1M310 502h1M134 503h1M251 503h1M296 503h1M300 503h1M306 503h1M310 503h1M134 504h1M250 504h1M296 504h1M300 504h1M306 504h1M310 504h1M131 505h119M296 505h1M300 505h1M306 505h1M310 505h1M131 506h116M296 506h1M300 506h1M306 506h1M310 506h1M130 507h115M296 507h1M300 507h1M306 507h1M310 507h1M129 508h1M241 508h1M296 508h1M300 508h1M306 508h1M310 508h1M128 509h1M242 509h1M296 509h1M300 509h1M306 509h1M310 509h1M128 510h1M242 510h1M296 510h1M300 510h1M306 510h1M310 510h1M128 511h1M242 511h1M296 511h1M300 511h1M306 511h1M310 511h1M128 512h1M242 512h1M296 512h1M300 512h1M306 512h1M310 512h1M128 513h1M242 513h1M296 513h1M300 513h1M306 513h1M310 513h1M128 514h1M242 514h1M296 514h1M300 514h1M306 514h1M310 514h1M128 515h197" />
<path stroke="#5a4348" d="M195 446h2M195 447h2M195 448h3M200 448h1M204 448h1M195 449h3M200 449h1M202 449h4M207 449h2M195 450h3M200 450h9M195 451h3M200 451h9M195 452h3M200 452h10M203 453h4M203 454h4M228 454h3M203 455h4M224 455h8M233 455h2M203 456h4M224 456h13M239 456h1M203 457h4M224 457h11M237 457h2M203 458h4M224 458h15M252 458h2M203 459h4M224 459h15M252 459h2M262 459h1M203 460h4M224 460h21M248 460h6M262 460h1M269 460h2M278 460h1M280 460h1M294 460h2M302 460h2M203 461h4M224 461h21M248 461h6M261 461h2M269 461h10M280 461h2M285 461h3M294 461h2M299 461h3M303 461h1M203 462h4M232 462h3M238 462h7M248 462h6M269 462h10M280 462h2M285 462h3M299 462h5M203 463h4M232 463h3M238 463h19M269 463h10M280 463h2M285 463h3M299 463h5M232 464h3M238 464h19M269 464h10M280 464h2M285 464h3M299 464h5M244 465h3M276 465h3M285 465h3M244 466h3M276 466h3M285 466h3M244 467h3M276 467h3M285 467h3" />
<path stroke="#8e617e" d="M169 451h1M171 451h2M169 452h1M171 452h2M169 453h1M171 453h2M169 454h1M171 454h2M169 455h1M171 455h2M169 456h1M171 456h2M169 457h1M171 457h2M169 458h1M171 458h2M169 459h1M171 459h2M169 460h1M171 460h2M169 461h1M171 461h2M172 462h1M171 464h1" />
<path stroke="#67405b" d="M194 454h2M191 455h5M191 456h6M200 456h2M187 457h15M190 458h12M191 459h11M193 460h1M196 460h6M198 461h1M201 461h1M198 462h1M265 469h1M267 469h6M276 469h2M292 469h2M295 469h3M299 469h2M302 469h3M312 469h1M319 469h2M261 470h1M267 470h11M280 470h6M289 470h5M295 470h3M299 470h2M302 470h7M312 470h1M315 470h2M319 470h2M256 471h3M261 471h1M264 471h13M279 471h1M281 471h4M287 471h20M309 471h3M313 471h2M317 471h2M321 471h2M264 472h8M275 472h4M280 472h1M283 472h2M289 472h18M317 472h1M321 472h2M264 473h2M276 473h2M284 473h3M290 473h15M287 474h1M290 474h3M295 474h3M315 474h2M292 475h1" />
<path stroke="#673f5b" d="M185 457h2M185 458h5M185 459h6M185 460h8M194 460h2M185 461h13M199 461h2M185 462h13M199 462h3M185 463h17M185 464h17M185 465h17M185 466h17M185 467h17M173 469h1M178 469h2M182 469h1M185 469h9M198 469h2M204 469h2M181 470h2M184 470h10M198 470h2M204 470h2M182 471h3M187 471h69M259 471h2M262 471h2M280 471h1M285 471h2M307 471h2M187 472h77M272 472h3M279 472h1M281 472h2M285 472h4M307 472h8M318 472h1M187 473h2M195 473h9M211 473h8M224 473h1M230 473h6M241 473h2M249 473h15M266 473h10M278 473h6M287 473h3M305 473h9M315 473h2M319 473h2M323 473h2M186 474h1M195 474h9M211 474h8M224 474h1M230 474h6M241 474h2M248 474h39M288 474h2M293 474h2M298 474h17M319 474h2M323 474h2M197 475h5M204 475h7M213 475h6M224 475h1M230 475h6M241 475h2M248 475h44M293 475h23M317 475h1M319 475h1M321 475h2M197 476h1M204 476h2M208 476h3M213 476h6M224 476h1M230 476h6M241 476h2M248 476h69M318 476h1M320 476h1M322 476h1M209 477h1M213 477h6M224 477h1M230 477h6M241 477h2M248 477h72M321 477h3M215 478h5M222 478h7M230 478h91M322 478h2M218 479h2M221 479h1M228 479h1M230 479h2M233 479h89M228 480h4M233 480h77M311 480h3M240 486h1M249 486h1M259 486h1M264 486h2M274 486h2M278 486h3M285 486h9M298 486h4M303 486h3M310 486h2M314 486h1M254 487h1M262 487h4M271 487h1M274 487h1M278 487h1M285 487h8M298 487h1M301 487h1M304 487h1M311 487h1M241 488h1M272 488h1M285 488h1M302 488h2M311 488h2" />
<path stroke="#653d58" d="M156 460h2M159 460h1M156 461h2M156 462h2M159 462h3M156 463h2M159 463h9M156 464h2M159 464h10M156 465h2M159 465h11M156 466h2M156 467h15" />
<path stroke="#94627e" d="M210 460h3M210 461h3M210 462h3M210 463h3M210 464h3M210 465h3M210 466h3M210 467h3M194 469h4M200 469h4M206 469h45M253 469h6M321 469h2M194 470h4M200 470h4M206 470h55M265 470h2M313 470h2M317 470h2M321 470h3M312 471h1M315 471h2M319 471h2M323 471h3M315 472h2M319 472h2M323 472h4M219 473h5M225 473h5M236 473h5M243 473h6M314 473h1M317 473h2M321 473h2M325 473h2M219 474h5M225 474h5M236 474h5M243 474h5M317 474h2M321 474h2M325 474h2M219 475h5M225 475h5M236 475h5M243 475h5M316 475h1M318 475h1M320 475h1M323 475h2M219 476h5M225 476h5M236 476h5M243 476h5M317 476h1M319 476h1M321 476h1M323 476h2M219 477h1M221 477h3M225 477h5M236 477h5M243 477h5M320 477h1M321 478h1M240 485h1" />
<path stroke="#8f617e" d="M169 462h1M171 462h1M169 463h1M171 463h2M169 464h1M172 464h1M171 465h2M171 466h2M171 467h2" />
<path stroke="#4f3c3f" d="M158 465h1M158 466h3M149 469h2M153 469h2M146 470h1M149 470h2M153 470h2M145 471h4M151 471h2M155 471h2M159 471h1M144 472h5M151 472h2M155 472h2M144 473h7M153 473h2M157 473h2M174 473h1M176 473h4M144 474h7M153 474h2M157 474h2M174 474h4M179 474h1M191 474h2M144 475h9M155 475h2M159 475h1M172 475h2M180 475h2M187 475h1M144 476h9M155 476h2M172 476h2M180 476h2M187 476h2M144 477h11M157 477h2M172 477h2M180 477h2M187 477h2M144 478h11M157 478h2M172 478h2M180 478h2M187 478h2M144 479h13M159 479h2M172 479h2M180 479h2M187 479h2M195 479h2M202 479h2M144 480h13M159 480h2M172 480h2M180 480h2M187 480h2M195 480h2M202 480h2M142 485h9M155 485h8M167 485h9M180 485h9M193 485h23M217 485h4M241 485h2M141 486h11M141 487h12M141 488h13M320 488h1M139 491h74M216 491h2M223 491h2M244 491h17M262 491h4M272 491h2M275 491h5M282 491h6M289 491h10M301 491h4M307 491h5M313 491h2M316 491h5M139 492h18M158 492h1M160 492h1M169 492h1M173 492h1M175 492h1M177 492h1M179 492h1M181 492h1M183 492h1M185 492h1M139 493h19M159 493h1M161 493h1M163 493h1M174 493h10M190 493h1M194 493h1M199 493h1M205 493h1M139 494h20M160 494h1M173 494h12M139 495h21M161 495h1M172 495h14M136 498h115M135 499h21M158 499h2M162 499h1M180 499h11M213 499h2M297 499h3M307 499h3M135 500h23M160 500h2M163 500h1M172 500h1M182 500h11M215 500h5M222 500h2M297 500h3M307 500h3M135 501h23M160 501h2M164 501h1M177 501h1M183 501h13M216 501h6M224 501h2M228 501h2M232 501h2M297 501h1M135 502h25M162 502h2M165 502h1M167 502h1M185 502h13M216 502h6M224 502h2M228 502h2M232 502h2M297 502h1M135 503h25M162 503h3M166 503h1M168 503h1M185 503h1M187 503h13M218 503h6M226 503h2M230 503h2M234 503h1M297 503h1M135 504h27M165 504h1M167 504h1M169 504h1M186 504h1M189 504h13M218 504h6M226 504h2M230 504h2M297 504h1M297 505h1M297 506h1M297 507h1M130 508h111M297 508h1M129 509h31M162 509h2M166 509h2M170 509h2M182 509h1M184 509h1M186 509h1M297 509h1M129 510h33M164 510h2M168 510h2M183 510h1M185 510h1M187 510h4M297 510h1M129 511h33M164 511h2M168 511h2M172 511h1M184 511h1M186 511h6M297 511h1M129 512h35M170 512h1M185 512h8M297 512h1M129 513h35M171 513h1M184 513h10M297 513h1M129 514h37M183 514h12M297 514h1" />
<path stroke="#683f5b" d="M147 469h2M151 469h2M155 469h18M174 469h4M180 469h2M183 469h2M147 470h2M151 470h2M155 470h26M183 470h1M149 471h2M153 471h2M157 471h2M160 471h22M185 471h2M149 472h2M153 472h2M157 472h30M151 473h2M155 473h2M159 473h15M180 473h7M151 474h2M155 474h2M159 474h15M180 474h6M187 474h2M153 475h2M157 475h2M160 475h12M174 475h6M182 475h5M189 475h6M153 476h2M157 476h15M174 476h6M182 476h5M189 476h6M198 476h4M206 476h2M155 477h2M159 477h13M174 477h6M182 477h5M189 477h6M197 477h5M204 477h5M210 477h1M155 478h2M159 478h13M174 478h6M182 478h5M189 478h6M197 478h5M204 478h7M213 478h2M220 478h2M229 478h1M157 479h2M161 479h11M174 479h6M182 479h5M189 479h6M197 479h5M204 479h7M213 479h5M220 479h1M222 479h6M229 479h1M232 479h1M157 480h2M162 480h10M174 480h6M182 480h5M189 480h6M197 480h5M204 480h7M213 480h15M232 480h1M221 485h6M235 485h2M238 485h2M161 486h1M169 486h1M171 486h6M181 486h9M194 486h46M241 486h8M250 486h9M260 486h4M266 486h2M272 486h2M276 486h2M302 486h1M312 486h2M316 486h2M163 487h2M169 487h9M182 487h9M195 487h59M255 487h7M266 487h1M272 487h2M275 487h3M279 487h1M284 487h1M297 487h1M299 487h2M302 487h2M309 487h2M312 487h4M317 487h1M163 488h2M170 488h3M174 488h5M183 488h9M196 488h45M242 488h24M270 488h2M273 488h6M283 488h2M286 488h6M296 488h6M308 488h3M313 488h2M316 488h1M318 488h2M178 492h1M180 492h1M182 492h1M184 492h1M186 492h136M187 493h3M191 493h3M195 493h4M200 493h5M206 493h116M187 494h8M197 494h125M187 495h1M189 495h1M192 495h4M197 495h125M197 499h1M199 499h2M206 499h6M237 499h14M204 500h5M211 500h4M220 500h2M225 500h26M202 501h1M211 501h3M215 501h1M226 501h2M230 501h2M234 501h17M298 501h2M307 501h3M211 502h2M215 502h1M223 502h1M227 502h1M230 502h1M234 502h17M298 502h2M307 502h3M214 503h1M224 503h1M228 503h1M233 503h1M235 503h16M298 503h2M307 503h3M217 504h1M228 504h1M233 504h17M298 504h2M307 504h3M298 505h2M307 505h3M298 506h2M307 506h3M298 507h2M307 507h3M298 508h2M307 508h1M298 509h2M307 509h1M299 510h1M309 510h1M299 511h1M299 512h1M307 512h1M299 513h1M307 513h2" />
<path stroke="#94637e" d="M251 469h2M259 469h1M264 469h1M266 469h1M313 469h2M318 469h1M323 469h1M264 470h1M309 470h1M324 470h1" />
<path stroke="#95627e" d="M220 477h1M227 485h8M237 485h1M213 491h3M218 491h5M225 491h19M216 499h1M225 499h1M228 499h1M231 499h6" />
<path stroke="#683e5b" d="M161 480h1M156 486h5M162 486h2M168 486h1M170 486h1M157 487h6M158 488h5M165 488h1M173 488h1M157 492h1M159 492h1M161 492h8M170 492h3M174 492h1M176 492h1M158 493h1M160 493h1M162 493h1M164 493h10M184 493h3M159 494h1M161 494h12M185 494h2M195 494h2M160 495h1M162 495h10M186 495h1M188 495h1M190 495h2M196 495h1M160 499h2M165 499h15M191 499h6M198 499h1M201 499h5M212 499h1M162 500h1M164 500h3M169 500h3M173 500h9M193 500h11M209 500h2M224 500h1M165 501h2M169 501h8M180 501h3M196 501h6M203 501h8M214 501h1M222 501h2M166 502h1M170 502h3M180 502h5M198 502h13M213 502h2M222 502h1M226 502h1M231 502h1M167 503h1M170 503h3M178 503h1M181 503h4M200 503h14M215 503h3M225 503h1M229 503h1M232 503h1M181 504h2M202 504h15M224 504h2M229 504h1M232 504h1M308 508h2M176 509h1M188 509h1M193 509h3M201 509h6M208 509h1M211 509h1M214 509h28M308 509h2M206 510h1M215 510h27M298 510h1M307 510h2M192 511h1M206 511h3M213 511h4M219 511h23M298 511h1M307 511h3M207 512h3M212 512h5M220 512h22M298 512h1M308 512h2M207 513h3M212 513h1M215 513h4M222 513h20M298 513h1M309 513h1M210 514h3M217 514h3M222 514h20M298 514h2M307 514h3" />
<path stroke="#693e5b" d="M156 499h2M163 499h2M158 500h2M167 500h2M158 501h2M162 501h2M167 501h2M178 501h2M160 502h2M164 502h1M168 502h2M173 502h7M160 503h2M165 503h1M169 503h1M173 503h5M179 503h2M186 503h1M162 504h3M166 504h1M168 504h1M170 504h11M183 504h3M187 504h2M160 509h2M164 509h2M168 509h2M172 509h4M177 509h5M183 509h1M185 509h1M187 509h1M189 509h4M196 509h5M207 509h1M209 509h2M212 509h2M162 510h2M166 510h2M170 510h13M184 510h1M186 510h1M191 510h15M207 510h8M162 511h2M166 511h2M170 511h2M173 511h11M185 511h1M193 511h13M209 511h4M217 511h2M164 512h6M171 512h14M193 512h14M210 512h2M217 512h3M164 513h7M172 513h12M194 513h13M210 513h2M213 513h2M219 513h3M166 514h17M195 514h15M213 514h4M220 514h2" />
<path stroke="#95617e" d="M215 499h1M217 499h8M226 499h2M229 499h2" />
</svg>