<svg xmlns="http://www.w3.org/2000/svg" viewBox="0 -0.5 960 600" shape-rendering="crispEdges">
<metadata>Made with Pixels to Svg https://codepen.io/shshaw/pen/XbxvNj</metadata>
<path stroke="rgba(191,13,153,0.0784313725490196)" d="M351 48h1M353 48h1M355 48h1M357 48h1M359 48h1M361 48h1M363 48h1M365 48h1M367 48h1M369 48h1M346 49h1M348 49h1M350 49h1M352 49h1M354 49h1M356 49h1M358 49h1M360 49h1M362 49h1M364 49h1M366 49h1M368 49h1M370 49h1M372 49h1M374 49h1M343 50h1M345 50h1M347 50h1M349 50h1M351 50h1M353 50h1M355 50h1M357 50h1M359 50h1M361 50h1M363 50h1M365 50h1M367 50h1M369 50h1M371 50h1M373 50h1M375 50h1M377 50h1M338 51h1M340 51h1M342 51h1M344 51h1M346 51h1M348 51h1M350 51h1M352 51h1M354 51h1M356 51h1M358 51h1M360 51h1M362 51h1M364 51h1M366 51h1M368 51h1M370 51h1M372 51h1M374 51h1M376 51h1M378 51h1M380 51h1M382 51h1M335 52h1M337 52h1M339 52h1M341 52h1M343 52h1M345 52h1M347 52h1M349 52h1M351 52h1M353 52h1M355 52h1M357 52h1M359 52h1M361 52h1M363 52h1M365 52h1M367 52h1M369 52h1M371 52h1M373 52h1M375 52h1M377 52h1M379 52h1M381 52h1M383 52h1M385 52h1M332 53h1M334 53h1M336 53h1M338 53h1M340 53h1M342 53h1M344 53h1M346 53h29M376 53h1M378 53h1M380 53h1M382 53h1M384 53h1M386 53h1M388 53h1M329 54h1M331 54h1M333 54h1M335 54h1M337 54h1M339 54h37M377 54h1M379 54h1M381 54h1M383 54h1M385 54h1M387 54h1M389 54h1M326 55h1M328 55h1M330 55h1M332 55h1M334 55h1M336 55h45M382 55h1M384 55h1M386 55h1M388 55h1M390 55h1M392 55h1M325 56h1M327 56h1M329 56h1M331 56h1M333 56h1M335 56h51M387 56h1M389 56h1M391 56h1M393 56h1M322 57h1M324 57h1M326 57h1M328 57h1M330 57h1M332 57h1M334 57h55M390 57h1M392 57h1M394 57h1M396 57h1M321 58h1M323 58h1M325 58h1M327 58h1M329 58h1M331 58h61M393 58h1M395 58h1M397 58h1M318 59h1M320 59h1M322 59h1M324 59h1M326 59h1M328 59h1M330 59h63M394 59h1M396 59h1M398 59h1M400 59h1M317 60h1M319 60h1M321 60h1M323 60h1M325 60h1M327 60h69M397 60h1M399 60h1M401 60h1M314 61h1M316 61h1M318 61h1M320 61h1M322 61h1M324 61h75M400 61h1M402 61h1M404 61h1M313 62h1M315 62h1M317 62h1M319 62h1M321 62h1M323 62h77M401 62h1M403 62h1M405 62h1M312 63h1M314 63h1M316 63h1M318 63h1M320 63h81M402 63h1M404 63h1M406 63h1M408 63h1M311 64h1M313 64h1M315 64h1M317 64h1M319 64h83M403 64h1M405 64h1M407 64h1M409 64h1M310 65h1M312 65h1M314 65h1M316 65h87M404 65h1M406 65h1M408 65h1M410 65h1M309 66h1M311 66h1M313 66h91M405 66h1M407 66h1M409 66h1M411 66h1M308 67h1M310 67h1M312 67h93M406 67h1M408 67h1M410 67h1M412 67h1M307 68h1M309 68h1M311 68h95M407 68h1M409 68h1M411 68h1M413 68h1M306 69h1M308 69h1M310 69h39M350 69h1M352 69h1M354 69h1M356 69h1M358 69h1M360 69h1M362 69h1M364 69h1M366 69h1M368 69h39M408 69h1M410 69h1M412 69h1M414 69h1M305 70h1M307 70h1M309 70h2M312 70h34M347 70h1M349 70h1M351 70h1M353 70h1M355 70h1M357 70h1M359 70h1M361 70h1M363 70h1M365 70h1M367 70h1M369 70h1M371 70h1M373 70h35M409 70h1M411 70h1M413 70h1M415 70h1M304 71h1M306 71h1M308 71h1M310 71h33M344 71h1M346 71h1M348 71h1M350 71h1M352 71h1M354 71h1M356 71h1M358 71h1M360 71h1M362 71h1M364 71h1M366 71h1M368 71h1M370 71h1M372 71h1M374 71h1M376 71h35M412 71h1M414 71h1M416 71h1M303 72h1M305 72h1M307 72h1M309 72h31M341 72h1M343 72h1M345 72h1M347 72h1M373 72h1M375 72h1M377 72h1M379 72h33M413 72h1M415 72h1M417 72h1M302 73h1M304 73h1M306 73h1M308 73h29M338 73h1M340 73h1M342 73h1M344 73h1M374 73h1M376 73h1M378 73h1M380 73h1M382 73h31M414 73h1M416 73h1M418 73h1M301 74h1M303 74h1M305 74h1M307 74h27M335 74h1M337 74h1M339 74h1M341 74h1M377 74h1M379 74h1M381 74h1M383 74h31M415 74h1M417 74h1M419 74h1M300 75h1M302 75h1M304 75h1M306 75h27M334 75h1M336 75h1M338 75h1M382 75h1M384 75h1M386 75h29M416 75h1M418 75h1M420 75h1M299 76h1M301 76h1M303 76h1M305 76h25M331 76h1M333 76h1M335 76h1M383 76h1M385 76h1M387 76h29M417 76h1M419 76h1M421 76h1M298 77h1M300 77h1M302 77h1M304 77h25M330 77h1M332 77h1M386 77h1M388 77h1M390 77h27M418 77h1M420 77h1M422 77h1M297 78h1M299 78h1M301 78h1M303 78h23M327 78h1M329 78h1M331 78h1M387 78h1M389 78h1M391 78h27M419 78h1M421 78h1M423 78h1M296 79h1M298 79h1M300 79h1M302 79h23M326 79h1M328 79h1M388 79h1M390 79h1M392 79h1M394 79h25M420 79h1M422 79h1M424 79h1M295 80h1M297 80h1M299 80h1M301 80h23M325 80h1M327 80h1M391 80h1M393 80h1M395 80h25M421 80h1M423 80h1M294 81h1M296 81h1M298 81h1M300 81h21M322 81h1M324 81h1M326 81h1M392 81h1M394 81h1M396 81h25M422 81h1M424 81h1M293 82h1M295 82h1M297 82h1M299 82h21M321 82h1M323 82h1M325 82h1M393 82h1M395 82h1M397 82h25M423 82h1M425 82h1M292 83h1M294 83h1M296 83h1M298 83h21M320 83h1M322 83h1M396 83h1M398 83h23M422 83h1M424 83h1M426 83h1M293 84h1M295 84h1M297 84h21M319 84h1M321 84h1M397 84h1M399 84h23M423 84h1M425 84h1M427 84h1M292 85h1M294 85h1M296 85h21M318 85h1M398 85h1M400 85h23M424 85h1M426 85h1M428 85h1M291 86h1M293 86h1M295 86h1M297 86h19M317 86h1M399 86h1M401 86h23M425 86h1M427 86h1M429 86h1M290 87h1M292 87h1M294 87h1M296 87h19M316 87h1M400 87h1M402 87h23M426 87h1M428 87h1M289 88h1M291 88h1M293 88h1M295 88h19M315 88h1M401 88h1M403 88h23M427 88h1M429 88h1M290 89h1M292 89h1M294 89h19M314 89h1M402 89h1M404 89h23M428 89h1M430 89h1M291 90h1M293 90h19M313 90h1M403 90h1M405 90h23M429 90h1M431 90h1M290 91h1M292 91h1M294 91h17M312 91h1M404 91h1M406 91h23M430 91h1M432 91h1M287 92h1M291 92h1M293 92h17M311 92h1M313 92h1M405 92h1M407 92h23M431 92h1M288 93h1M290 93h1M292 93h17M310 93h1M312 93h1M406 93h1M408 93h21M430 93h1M432 93h1M287 94h1M289 94h1M291 94h19M311 94h1M407 94h1M409 94h21M431 94h1M433 94h1M286 95h1M288 95h1M290 95h19M310 95h1M408 95h1M410 95h21M432 95h1M434 95h1M285 96h1M287 96h1M289 96h1M291 96h17M309 96h1M409 96h1M411 96h19M431 96h1M433 96h1M286 97h1M288 97h1M290 97h17M308 97h1M310 97h1M410 97h21M432 97h1M434 97h1M285 98h1M287 98h1M289 98h19M309 98h1M411 98h21M433 98h1M435 98h1M284 99h1M286 99h1M288 99h1M290 99h17M308 99h1M410 99h1M412 99h21M434 99h1M285 100h1M287 100h1M289 100h17M307 100h1M411 100h1M413 100h21M435 100h1M284 101h1M286 101h1M288 101h17M306 101h1M412 101h21M434 101h1M436 101h1M283 102h1M285 102h1M287 102h19M307 102h1M411 102h1M413 102h21M435 102h1M284 103h1M286 103h1M288 103h17M306 103h1M412 103h1M414 103h19M434 103h1M436 103h1M283 104h1M285 104h1M287 104h17M305 104h1M413 104h1M415 104h19M435 104h1M437 104h1M284 105h1M286 105h17M304 105h1M414 105h21M436 105h1M283 106h1M285 106h1M287 106h17M305 106h1M413 106h1M415 106h19M435 106h1M437 106h1M282 107h1M284 107h1M286 107h17M304 107h1M414 107h1M416 107h19M436 107h1M438 107h1M283 108h1M285 108h1M287 108h15M303 108h1M415 108h1M417 108h19M437 108h1M282 109h1M284 109h1M286 109h17M304 109h1M414 109h1M416 109h19M436 109h1M438 109h1M281 110h1M283 110h1M285 110h1M287 110h15M303 110h1M415 110h1M417 110h19M437 110h1M282 111h1M284 111h1M286 111h15M302 111h1M416 111h1M418 111h19M438 111h1M281 112h1M283 112h1M285 112h17M303 112h1M415 112h1M417 112h19M437 112h1M439 112h1M282 113h1M284 113h1M286 113h15M302 113h1M416 113h1M418 113h19M438 113h1M281 114h1M283 114h1M285 114h15M301 114h1M417 114h1M419 114h17M437 114h1M439 114h1M280 115h1M282 115h1M284 115h1M286 115h15M302 115h1M416 115h1M418 115h19M438 115h1M440 115h1M281 116h1M283 116h1M285 116h15M301 116h1M417 116h1M419 116h19M439 116h1M280 117h1M282 117h1M284 117h15M300 117h1M418 117h19M438 117h1M440 117h1M279 118h1M281 118h1M283 118h17M301 118h1M417 118h1M419 118h19M439 118h1M280 119h1M282 119h1M284 119h15M300 119h1M418 119h1M420 119h17M438 119h1M440 119h1M279 120h1M281 120h1M283 120h15M299 120h1M417 120h1M419 120h19M439 120h1M441 120h1M280 121h1M282 121h1M284 121h15M300 121h1M418 121h1M420 121h17M438 121h1M440 121h1M279 122h1M281 122h1M283 122h15M299 122h1M417 122h1M419 122h19M439 122h1M441 122h1M280 123h1M282 123h1M284 123h15M300 123h1M418 123h1M420 123h17M438 123h1M440 123h1M279 124h1M281 124h1M283 124h15M299 124h1M417 124h1M419 124h19M439 124h1M441 124h1M280 125h1M282 125h1M284 125h15M300 125h1M418 125h1M420 125h17M438 125h1M440 125h1M279 126h1M281 126h1M283 126h15M299 126h1M417 126h1M419 126h19M439 126h1M441 126h1M280 127h1M282 127h1M284 127h15M300 127h1M418 127h1M420 127h17M438 127h1M440 127h1M279 128h1M281 128h1M283 128h15M299 128h1M417 128h1M419 128h19M439 128h1M441 128h1M280 129h1M282 129h1M284 129h15M300 129h1M418 129h1M420 129h17M438 129h1M440 129h1M279 130h1M281 130h1M283 130h15M299 130h1M417 130h1M419 130h19M439 130h1M441 130h1M280 131h1M282 131h1M284 131h15M300 131h1M418 131h1M420 131h17M438 131h1M440 131h1M279 132h1M281 132h1M283 132h15M299 132h1M417 132h1M419 132h19M439 132h1M441 132h1M280 133h1M282 133h1M284 133h15M300 133h1M418 133h1M420 133h17M438 133h1M440 133h1M279 134h1M281 134h1M283 134h15M299 134h1M417 134h1M419 134h19M439 134h1M441 134h1M280 135h1M282 135h1M284 135h15M300 135h1M418 135h1M420 135h17M438 135h1M440 135h1M279 136h1M281 136h1M283 136h15M299 136h1M417 136h1M419 136h17M437 136h1M439 136h1M441 136h1M280 137h1M282 137h1M284 137h15M300 137h1M418 137h1M420 137h17M438 137h1M440 137h1M279 138h1M281 138h1M283 138h15M299 138h1M417 138h1M419 138h17M437 138h1M439 138h1M441 138h1M280 139h1M282 139h1M284 139h15M300 139h1M418 139h19M438 139h1M440 139h1M279 140h1M281 140h1M283 140h1M285 140h15M301 140h1M417 140h1M419 140h17M437 140h1M439 140h1M441 140h1M280 141h1M282 141h1M284 141h15M300 141h1M418 141h19M438 141h1M440 141h1M279 142h1M281 142h1M283 142h1M285 142h15M301 142h1M417 142h1M419 142h17M437 142h1M439 142h1M280 143h1M282 143h1M284 143h1M286 143h13M300 143h1M302 143h1M418 143h19M438 143h1M440 143h1M281 144h1M283 144h1M285 144h15M301 144h1M417 144h19M437 144h1M439 144h1M280 145h1M282 145h1M284 145h1M286 145h15M302 145h1M416 145h1M418 145h19M438 145h1M281 146h1M283 146h1M285 146h15M301 146h1M415 146h1M417 146h19M437 146h1M439 146h1M282 147h1M284 147h1M286 147h15M302 147h1M416 147h21M438 147h1M281 148h1M283 148h1M285 148h17M303 148h1M415 148h1M417 148h19M437 148h1M439 148h1M282 149h1M284 149h1M286 149h15M302 149h1M304 149h1M414 149h1M416 149h19M436 149h1M438 149h1M281 150h1M283 150h1M285 150h17M303 150h1M413 150h1M415 150h21M437 150h1M282 151h1M284 151h1M286 151h17M304 151h1M414 151h1M416 151h19M436 151h1M438 151h1M283 152h1M285 152h17M303 152h1M305 152h1M413 152h1M415 152h21M437 152h1M282 153h1M284 153h1M286 153h17M304 153h1M306 153h1M412 153h1M414 153h21M436 153h1M283 154h1M285 154h1M287 154h17M305 154h1M413 154h1M415 154h21M437 154h1M284 155h1M286 155h19M306 155h1M412 155h1M414 155h21M436 155h1M283 156h1M285 156h1M287 156h17M305 156h1M307 156h1M411 156h1M413 156h21M435 156h1M284 157h1M286 157h1M288 157h17M306 157h1M410 157h1M412 157h23M436 157h1M285 158h1M287 158h1M289 158h17M307 158h1M411 158h1M413 158h21M435 158h1M284 159h1M286 159h1M288 159h19M308 159h1M410 159h1M412 159h21M434 159h1M285 160h1M287 160h1M289 160h17M307 160h1M309 160h1M409 160h1M411 160h23M435 160h1M286 161h1M288 161h1M290 161h17M308 161h1M408 161h1M410 161h23M434 161h1M287 162h1M289 162h19M309 162h1M409 162h1M411 162h23M286 163h1M288 163h1M290 163h19M310 163h1M408 163h1M410 163h23M434 163h1M287 164h1M289 164h1M291 164h17M309 164h1M311 164h1M407 164h1M409 164h23M433 164h1M288 165h1M290 165h1M292 165h17M310 165h1M312 165h1M406 165h1M408 165h23M432 165h1M289 166h1M291 166h19M311 166h1M405 166h1M407 166h1M409 166h23M433 166h1M288 167h1M290 167h1M292 167h19M312 167h1M404 167h1M406 167h1M408 167h23M432 167h1M289 168h1M291 168h1M293 168h19M313 168h1M405 168h1M407 168h23M431 168h1M290 169h1M292 169h1M294 169h19M314 169h1M404 169h1M406 169h23M430 169h1M291 170h1M293 170h1M295 170h19M315 170h1M403 170h1M405 170h25M431 170h1M292 171h1M294 171h1M296 171h19M316 171h1M402 171h1M404 171h25M430 171h1M291 172h1M293 172h1M295 172h1M297 172h19M317 172h1M401 172h1M403 172h25M429 172h1M292 173h1M294 173h1M296 173h21M318 173h1M400 173h1M402 173h25M428 173h1M293 174h1M295 174h1M297 174h21M319 174h1M399 174h1M401 174h27M429 174h1M294 175h1M296 175h1M298 175h21M320 175h1M322 175h1M396 175h1M398 175h1M400 175h27M428 175h1M293 176h1M295 176h1M297 176h1M299 176h21M321 176h1M323 176h1M395 176h1M397 176h1M399 176h27M427 176h1M294 177h1M296 177h1M298 177h1M300 177h21M322 177h1M324 177h1M394 177h1M396 177h1M398 177h27M426 177h1M295 178h1M297 178h1M299 178h1M301 178h21M323 178h1M325 178h1M393 178h1M395 178h1M397 178h27M425 178h1M296 179h1M298 179h1M300 179h1M302 179h21M324 179h1M326 179h1M328 179h1M392 179h1M394 179h29M424 179h1M297 180h1M299 180h1M301 180h1M303 180h23M327 180h1M329 180h1M389 180h1M391 180h1M393 180h27M421 180h1M423 180h1M298 181h1M300 181h1M302 181h1M304 181h23M328 181h1M330 181h1M386 181h1M388 181h1M390 181h1M392 181h27M420 181h1M422 181h1M299 182h1M301 182h1M303 182h1M305 182h23M329 182h1M331 182h1M333 182h1M385 182h1M387 182h1M389 182h29M419 182h1M421 182h1M300 183h1M302 183h1M304 183h1M306 183h25M332 183h1M334 183h1M382 183h1M384 183h1M386 183h1M388 183h29M418 183h1M420 183h1M301 184h1M303 184h1M305 184h1M307 184h25M333 184h1M335 184h1M337 184h1M379 184h1M381 184h1M383 184h1M385 184h31M417 184h1M419 184h1M302 185h1M304 185h1M306 185h1M308 185h27M336 185h1M338 185h1M340 185h1M378 185h1M380 185h1M382 185h1M384 185h31M416 185h1M418 185h1M303 186h1M305 186h1M307 186h1M309 186h27M337 186h1M339 186h1M341 186h1M375 186h1M377 186h1M379 186h1M381 186h33M415 186h1M417 186h1M304 187h1M306 187h1M308 187h1M310 187h29M340 187h1M342 187h1M344 187h1M372 187h1M374 187h1M376 187h1M378 187h35M414 187h1M416 187h1M305 188h1M307 188h1M309 188h1M311 188h31M343 188h1M345 188h1M347 188h1M349 188h1M351 188h1M353 188h1M355 188h1M357 188h1M359 188h1M361 188h1M363 188h1M365 188h1M367 188h1M369 188h1M371 188h1M373 188h1M375 188h37M413 188h1M415 188h1M306 189h1M308 189h1M310 189h1M312 189h33M346 189h1M348 189h1M350 189h1M352 189h1M354 189h1M356 189h1M358 189h1M360 189h1M362 189h1M364 189h1M366 189h1M368 189h1M370 189h1M372 189h39M412 189h1M414 189h1M307 190h1M309 190h1M311 190h1M313 190h37M351 190h1M353 190h1M355 190h1M357 190h1M359 190h1M361 190h1M363 190h1M365 190h1M367 190h1M369 190h41M411 190h1M413 190h1M308 191h1M310 191h1M314 191h95M410 191h1M412 191h1M309 192h1M311 192h1M313 192h1M315 192h93M409 192h1M411 192h1M310 193h1M312 193h1M314 193h1M316 193h91M408 193h1M410 193h1M313 194h1M315 194h1M317 194h87M405 194h1M407 194h1M409 194h1M314 195h1M316 195h1M318 195h85M404 195h1M406 195h1M315 196h1M317 196h1M319 196h1M321 196h79M401 196h1M403 196h1M405 196h1M318 197h1M320 197h1M322 197h77M400 197h1M402 197h1M404 197h1M319 198h1M321 198h1M323 198h1M325 198h73M399 198h1M401 198h1M403 198h1M320 199h1M322 199h1M324 199h1M326 199h67M394 199h1M396 199h1M398 199h1M400 199h1M323 200h1M325 200h1M327 200h1M329 200h63M393 200h1M395 200h1M397 200h1M399 200h1M324 201h1M326 201h1M328 201h1M330 201h61M392 201h1M394 201h1M396 201h1M327 202h1M329 202h1M331 202h1M333 202h55M389 202h1M391 202h1M393 202h1M395 202h1M328 203h1M330 203h1M332 203h1M334 203h1M336 203h49M386 203h1M388 203h1M390 203h1M392 203h1M331 204h1M333 204h1M335 204h1M337 204h47M385 204h1M387 204h1M389 204h1M332 205h1M334 205h1M336 205h1M338 205h1M340 205h1M342 205h1M344 205h1M346 205h35M382 205h1M384 205h1M386 205h1M388 205h1M335 206h1M337 206h1M339 206h1M341 206h1M343 206h1M345 206h1M347 206h1M349 206h1M351 206h21M373 206h1M375 206h1M377 206h1M379 206h1M381 206h1M383 206h1M385 206h1M338 207h1M340 207h1M342 207h1M344 207h1M346 207h1M348 207h1M350 207h1M352 207h1M354 207h1M356 207h1M358 207h1M360 207h1M362 207h1M364 207h1M366 207h1M368 207h1M370 207h1M372 207h1M374 207h1M376 207h1M378 207h1M380 207h1M382 207h1M343 208h1M345 208h1M347 208h1M349 208h1M351 208h1M353 208h1M355 208h1M357 208h1M359 208h1M361 208h1M363 208h1M365 208h1M367 208h1M369 208h1M371 208h1M373 208h1M375 208h1M377 208h1M346 209h1M348 209h1M350 209h1M352 209h1M354 209h1M356 209h1M358 209h1M360 209h1M362 209h1M364 209h1M366 209h1M368 209h1M370 209h1M372 209h1M374 209h1M351 210h1M353 210h1M355 210h1M357 210h1M359 210h1M361 210h1M363 210h1M365 210h1M367 210h1M369 210h1" />
<path stroke="rgba(199,15,153,0.19607843137254902)" d="M349 69h1M351 69h1M353 69h1M355 69h1M357 69h1M359 69h1M361 69h1M363 69h1M365 69h1M367 69h1M346 70h1M348 70h1M350 70h1M352 70h1M354 70h1M356 70h1M358 70h1M360 70h1M362 70h1M364 70h1M366 70h1M368 70h1M370 70h1M372 70h1M343 71h1M345 71h1M347 71h1M349 71h1M351 71h1M353 71h1M355 71h1M357 71h1M359 71h1M361 71h1M363 71h1M365 71h1M367 71h1M369 71h1M371 71h1M373 71h1M375 71h1M340 72h1M342 72h1M344 72h1M346 72h1M348 72h25M374 72h1M376 72h1M378 72h1M337 73h1M339 73h1M341 73h1M343 73h1M345 73h29M375 73h1M377 73h1M379 73h1M381 73h1M334 74h1M336 74h1M338 74h1M340 74h1M342 74h35M378 74h1M380 74h1M382 74h1M333 75h1M335 75h1M337 75h1M339 75h43M383 75h1M385 75h1M330 76h1M332 76h1M334 76h1M336 76h47M384 76h1M386 76h1M329 77h1M331 77h1M333 77h53M387 77h1M389 77h1M326 78h1M328 78h1M330 78h1M332 78h55M388 78h1M390 78h1M325 79h1M327 79h1M329 79h59M389 79h1M391 79h1M393 79h1M324 80h1M326 80h1M328 80h63M392 80h1M394 80h1M321 81h1M323 81h1M325 81h1M327 81h65M393 81h1M395 81h1M320 82h1M322 82h1M324 82h1M326 82h67M394 82h1M396 82h1M319 83h1M321 83h1M323 83h73M397 83h1M318 84h1M320 84h1M322 84h75M398 84h1M317 85h1M319 85h30M370 85h28M399 85h1M316 86h1M318 86h28M373 86h26M400 86h1M315 87h1M317 87h26M376 87h24M401 87h1M314 88h1M316 88h24M379 88h22M402 88h1M313 89h1M315 89h23M381 89h21M403 89h1M312 90h1M314 90h22M383 90h20M404 90h1M311 91h1M313 91h21M384 91h20M405 91h1M310 92h1M312 92h1M314 92h18M386 92h19M406 92h1M309 93h1M311 93h1M313 93h18M388 93h18M407 93h1M310 94h1M312 94h18M389 94h18M408 94h1M309 95h1M311 95h18M390 95h18M409 95h1M308 96h1M310 96h18M391 96h18M410 96h1M307 97h1M309 97h1M311 97h16M392 97h18M308 98h1M310 98h16M393 98h18M307 99h1M309 99h16M394 99h16M411 99h1M306 100h1M308 100h16M395 100h16M412 100h1M305 101h1M307 101h16M396 101h16M306 102h1M308 102h15M396 102h15M412 102h1M305 103h1M307 103h15M397 103h15M413 103h1M304 104h1M306 104h16M397 104h16M414 104h1M303 105h1M305 105h16M398 105h16M304 106h1M306 106h15M398 106h15M414 106h1M303 107h1M305 107h15M399 107h15M415 107h1M302 108h1M304 108h16M399 108h16M416 108h1M303 109h1M305 109h14M400 109h14M415 109h1M302 110h1M304 110h15M400 110h15M416 110h1M301 111h1M303 111h15M401 111h15M417 111h1M302 112h1M304 112h14M401 112h14M416 112h1M301 113h1M303 113h14M402 113h14M417 113h1M300 114h1M302 114h15M402 114h15M418 114h1M301 115h1M303 115h13M403 115h13M417 115h1M300 116h1M302 116h14M403 116h14M418 116h1M299 117h1M301 117h15M403 117h15M300 118h1M302 118h13M404 118h13M418 118h1M299 119h1M301 119h14M404 119h14M419 119h1M298 120h1M300 120h15M404 120h13M418 120h1M299 121h1M301 121h13M405 121h13M419 121h1M298 122h1M300 122h14M405 122h12M418 122h1M299 123h1M301 123h13M405 123h13M419 123h1M298 124h1M300 124h14M405 124h12M418 124h1M299 125h1M301 125h13M405 125h13M419 125h1M298 126h1M300 126h14M405 126h12M418 126h1M299 127h1M301 127h13M405 127h13M419 127h1M298 128h1M300 128h14M405 128h12M418 128h1M299 129h1M301 129h13M405 129h13M419 129h1M298 130h1M300 130h14M405 130h12M418 130h1M299 131h1M301 131h13M405 131h13M419 131h1M298 132h1M300 132h14M405 132h12M418 132h1M299 133h1M301 133h13M405 133h13M419 133h1M298 134h1M300 134h14M405 134h12M418 134h1M299 135h1M301 135h13M405 135h13M419 135h1M298 136h1M300 136h14M405 136h12M418 136h1M299 137h1M301 137h13M405 137h13M419 137h1M298 138h1M300 138h14M404 138h13M418 138h1M299 139h1M301 139h13M404 139h14M300 140h1M302 140h12M404 140h13M418 140h1M299 141h1M301 141h14M403 141h15M300 142h1M302 142h13M403 142h14M418 142h1M299 143h1M301 143h1M303 143h12M403 143h15M300 144h1M302 144h14M402 144h15M301 145h1M303 145h13M402 145h14M417 145h1M300 146h1M302 146h14M401 146h14M416 146h1M301 147h1M303 147h14M401 147h15M302 148h1M304 148h13M400 148h15M416 148h1M301 149h1M303 149h1M305 149h13M400 149h14M415 149h1M302 150h1M304 150h14M399 150h14M414 150h1M303 151h1M305 151h14M399 151h15M415 151h1M302 152h1M304 152h1M306 152h13M398 152h15M414 152h1M303 153h1M305 153h1M307 153h13M398 153h14M413 153h1M304 154h1M306 154h14M397 154h16M414 154h1M305 155h1M307 155h14M397 155h15M413 155h1M304 156h1M306 156h1M308 156h14M396 156h15M412 156h1M305 157h1M307 157h16M395 157h15M411 157h1M306 158h1M308 158h16M394 158h17M412 158h1M307 159h1M309 159h16M393 159h17M411 159h1M306 160h1M308 160h1M310 160h16M392 160h17M410 160h1M307 161h1M309 161h18M391 161h17M409 161h1M308 162h1M310 162h18M390 162h19M410 162h1M309 163h1M311 163h18M389 163h19M409 163h1M308 164h1M310 164h1M312 164h18M388 164h19M408 164h1M309 165h1M311 165h1M313 165h18M387 165h19M407 165h1M310 166h1M312 166h20M386 166h19M406 166h1M408 166h1M311 167h1M313 167h20M385 167h19M405 167h1M407 167h1M312 168h1M314 168h21M384 168h21M406 168h1M313 169h1M315 169h22M382 169h22M405 169h1M314 170h1M316 170h23M380 170h23M404 170h1M315 171h1M317 171h24M378 171h24M403 171h1M316 172h1M318 172h25M376 172h25M402 172h1M317 173h1M319 173h27M373 173h27M401 173h1M318 174h1M320 174h29M370 174h29M400 174h1M319 175h1M321 175h1M323 175h73M397 175h1M399 175h1M320 176h1M322 176h1M324 176h71M396 176h1M398 176h1M321 177h1M323 177h1M325 177h69M395 177h1M397 177h1M322 178h1M324 178h1M326 178h67M394 178h1M396 178h1M323 179h1M325 179h1M327 179h1M329 179h63M393 179h1M326 180h1M328 180h1M330 180h59M390 180h1M392 180h1M327 181h1M329 181h1M331 181h55M387 181h1M389 181h1M391 181h1M328 182h1M330 182h1M332 182h1M334 182h51M386 182h1M388 182h1M331 183h1M333 183h1M335 183h47M383 183h1M385 183h1M387 183h1M332 184h1M334 184h1M336 184h1M338 184h41M380 184h1M382 184h1M384 184h1M335 185h1M337 185h1M339 185h1M341 185h37M379 185h1M381 185h1M383 185h1M336 186h1M338 186h1M340 186h1M342 186h33M376 186h1M378 186h1M380 186h1M339 187h1M341 187h1M343 187h1M345 187h27M373 187h1M375 187h1M377 187h1M342 188h1M344 188h1M346 188h1M348 188h1M350 188h1M352 188h1M354 188h1M356 188h1M358 188h1M360 188h1M362 188h1M364 188h1M366 188h1M368 188h1M370 188h1M372 188h1M374 188h1M345 189h1M347 189h1M349 189h1M351 189h1M353 189h1M355 189h1M357 189h1M359 189h1M361 189h1M363 189h1M365 189h1M367 189h1M369 189h1M371 189h1M350 190h1M352 190h1M354 190h1M356 190h1M358 190h1M360 190h1M362 190h1M364 190h1M366 190h1M368 190h1" />
<path stroke="rgba(195,17,152,0.30196078431372547)" d="M349 85h21M346 86h27M344 87h31M341 88h37M340 89h40M337 90h46M336 91h48M349 92h36M333 93h16M333 94h56M332 95h58M330 96h60M329 97h62M341 98h51M327 99h14M363 99h31M394 100h1M327 101h37M325 102h71M325 103h71M324 104h73M323 105h75M321 106h1M323 106h75M320 107h79M320 108h79M319 109h81M319 110h81M318 111h30M349 111h52M318 112h30M349 112h52M317 113h85M317 114h85M316 115h87M316 116h87M316 117h87M316 118h88M315 119h89M315 120h89M315 121h89M315 122h89M315 123h89M314 124h90M314 125h90M314 126h91M314 127h91M314 128h91M314 129h91M314 130h91M314 131h91M314 132h91M314 133h91M314 134h91M315 135h90M315 136h49M365 136h39M315 137h89M315 138h89M315 139h89M315 140h89M316 141h87M316 142h87M316 143h87M317 144h85M317 145h85M318 146h83M318 147h83M319 148h81M319 149h81M320 150h79M321 151h78M321 152h77M321 153h77M325 154h6M377 154h20M322 156h72M323 157h71M324 158h70M325 159h68M326 160h66M327 161h64M328 162h62M329 163h60M330 164h58M331 165h56M332 166h27M360 166h26M333 167h26M360 167h25M335 168h24M360 168h24M337 169h22M360 169h21M339 170h20M360 170h20M341 171h18M360 171h18M343 172h16M360 172h16M346 173h13M360 173h13M349 174h21" />
<path stroke="rgba(199,17,152,0.30196078431372547)" d="M343 87h1M375 87h1M340 88h1M378 88h1M338 89h2M380 89h1M336 90h1M334 91h2M332 92h17M385 92h1M331 93h2M349 93h39M330 94h3M329 95h3M328 96h2M390 96h1M327 97h2M391 97h1M326 98h15M392 98h1M325 99h2M341 99h22M324 100h70M323 101h4M364 101h32M323 102h2M322 103h3M396 103h1M322 104h2M321 105h2M322 106h1M315 118h1M314 121h1M404 121h1M314 122h1M404 122h1M314 123h1M404 123h1M404 124h1M404 125h1M314 135h1M314 136h1M404 136h1M314 137h1M404 137h1M314 138h1M314 139h1M314 140h1M315 141h1M315 142h1M315 143h1M316 144h1M316 145h1M316 146h2M317 147h1M317 148h2M318 149h1M318 150h2M319 151h2M319 152h2M320 153h1M320 154h5M331 154h46M321 155h76M394 156h2M394 157h1M359 166h1M359 167h1M359 168h1M359 169h1M381 169h1M359 170h1M359 171h1M359 172h1M359 173h1" />
<path stroke="rgba(204,13,153,0.0784313725490196)" d="M289 90h1M288 91h1M289 92h1M437 156h1M437 158h1M436 159h1M435 162h1" />
<path stroke="rgba(194,15,153,0.19607843137254902)" d="M348 111h1M348 112h1" />
<path stroke="rgba(199,17,156,0.30196078431372547)" d="M364 136h1" />
</svg>