<svg xmlns="http://www.w3.org/2000/svg" viewBox="0 -0.5 960 600" shape-rendering="crispEdges">
<metadata>Made with Pixels to Svg https://codepen.io/shshaw/pen/XbxvNj</metadata>
<path stroke="#39155f" d="M350 92h19M347 93h3M369 93h3M344 94h3M372 94h3M342 95h2M375 95h2M340 96h2M377 96h2M338 97h2M379 97h2M337 98h1M381 98h1M336 99h1M382 99h1M335 100h1M383 100h1M334 101h1M384 101h1M333 102h1M385 102h1M332 103h1M386 103h1M331 104h1M387 104h1M330 105h1M388 105h1M330 106h1M389 106h1M329 107h1M390 107h1M328 108h1M390 108h1M327 109h2M391 109h1M327 110h1M391 110h1M326 111h1M392 111h1M326 112h1M392 112h1M325 113h2M393 113h1M325 114h1M393 114h1M324 115h3M394 115h1M324 116h2M394 116h1M323 117h2M326 117h1M395 117h1M323 118h1M325 118h1M395 118h1M323 119h2M326 119h1M395 119h1M322 120h2M325 120h1M396 120h1M322 121h1M324 121h1M326 121h1M396 121h1M322 122h2M325 122h1M396 122h1M321 123h2M324 123h1M326 123h1M397 123h1M321 124h3M325 124h1M397 124h1M321 125h2M324 125h1M326 125h1M397 125h1M321 126h3M325 126h1M397 126h1M321 127h2M324 127h1M326 127h1M397 127h1M321 128h3M325 128h1M327 128h1M397 128h1M321 129h4M326 129h1M328 129h1M397 129h1M321 130h5M327 130h1M329 130h1M333 130h1M397 130h1M321 131h6M328 131h1M330 131h1M397 131h1M321 132h5M327 132h1M329 132h1M331 132h1M335 132h1M397 132h1M321 133h6M328 133h1M330 133h1M332 133h1M397 133h1M321 134h5M327 134h1M329 134h1M331 134h1M333 134h1M337 134h1M397 134h1M321 135h6M328 135h1M330 135h1M332 135h1M334 135h1M397 135h1M321 136h5M327 136h1M329 136h1M331 136h1M333 136h1M339 136h1M397 136h1M321 137h6M328 137h1M330 137h1M332 137h1M334 137h1M397 137h1M322 138h6M329 138h1M331 138h1M333 138h1M335 138h1M341 138h1M396 138h1M322 139h7M330 139h1M332 139h1M334 139h1M336 139h1M396 139h1M322 140h8M331 140h1M333 140h1M335 140h1M337 140h1M343 140h1M349 140h1M396 140h1M323 141h8M332 141h1M334 141h1M336 141h1M338 141h1M395 141h1M323 142h9M333 142h1M335 142h1M337 142h1M345 142h1M351 142h1M395 142h1M323 143h10M334 143h1M336 143h1M338 143h1M340 143h1M395 143h1M324 144h10M335 144h1M337 144h1M339 144h1M341 144h1M347 144h1M353 144h1M394 144h1M324 145h11M336 145h1M338 145h1M340 145h1M342 145h1M394 145h1M325 146h11M337 146h1M339 146h1M341 146h1M343 146h1M347 146h1M349 146h1M355 146h1M393 146h1M325 147h12M338 147h1M340 147h1M342 147h1M344 147h1M346 147h1M348 147h1M350 147h1M393 147h1M326 148h12M339 148h1M341 148h1M343 148h1M345 148h1M347 148h1M349 148h1M351 148h1M353 148h1M357 148h1M392 148h1M326 149h13M340 149h1M342 149h1M344 149h1M346 149h1M348 149h1M350 149h1M352 149h1M390 149h3M327 150h13M341 150h1M343 150h1M345 150h1M347 150h1M349 150h1M351 150h1M353 150h1M355 150h1M359 150h1M389 150h1M391 150h1M327 151h22M350 151h1M352 151h1M354 151h1M388 151h1M390 151h2M328 152h22M351 152h1M353 152h1M355 152h1M357 152h1M359 152h1M361 152h1M363 152h1M365 152h1M367 152h1M369 152h1M371 152h1M373 152h1M375 152h1M377 152h1M379 152h1M381 152h1M383 152h1M385 152h1M387 152h1M389 152h2M329 153h22M352 153h1M354 153h1M384 153h1M386 153h1M388 153h2M330 154h20M351 154h1M353 154h1M355 154h1M383 154h1M385 154h1M387 154h2M331 155h20M352 155h1M354 155h1M356 155h1M358 155h1M360 155h1M362 155h1M364 155h1M366 155h1M368 155h1M370 155h1M372 155h1M374 155h1M376 155h1M378 155h1M380 155h1M382 155h1M384 155h1M386 155h2M332 156h20M353 156h1M355 156h1M357 156h1M359 156h1M361 156h1M363 156h1M365 156h1M367 156h1M369 156h1M371 156h1M373 156h1M375 156h1M377 156h1M379 156h1M381 156h1M383 156h4M333 157h22M356 157h1M358 157h1M360 157h1M362 157h1M364 157h1M366 157h1M368 157h1M370 157h1M372 157h1M374 157h1M376 157h1M378 157h1M380 157h1M382 157h4M334 158h51M335 159h49M336 160h47M337 161h45M338 162h43M340 163h39M342 164h35M344 165h31M347 166h25M350 167h19" />
<path stroke="#b187d7" d="M350 93h19M347 94h25M344 95h31M342 96h35M340 97h39M338 98h43M337 99h45M336 100h47M335 101h49M334 102h1M336 102h49M333 103h53M332 104h1M334 104h1M336 104h51M332 105h56M332 106h1M334 106h1M336 106h53M331 107h59M330 108h1M332 108h1M334 108h1M336 108h54M331 109h60M330 110h1M332 110h1M334 110h1M336 110h1M338 110h53M329 111h1M331 111h61M330 112h1M332 112h1M334 112h1M336 112h1M338 112h54M329 113h1M331 113h62M330 114h1M332 114h1M334 114h1M336 114h1M338 114h55M329 115h1M331 115h63M330 116h1M332 116h1M334 116h1M336 116h1M338 116h56M329 117h1M331 117h1M333 117h1M335 117h1M337 117h1M339 117h56M330 118h1M332 118h1M334 118h1M336 118h59M331 119h1M333 119h1M335 119h1M337 119h1M339 119h1M341 119h54M332 120h1M334 120h1M336 120h1M338 120h58M331 121h1M333 121h1M335 121h1M337 121h1M339 121h1M341 121h1M343 121h1M345 121h51M332 122h1M334 122h1M336 122h1M338 122h58M333 123h1M335 123h1M337 123h1M339 123h1M341 123h1M343 123h1M345 123h1M347 123h50M334 124h1M336 124h1M338 124h1M340 124h57M333 125h1M335 125h1M337 125h1M339 125h1M341 125h1M343 125h1M345 125h1M347 125h1M349 125h48M334 126h1M336 126h1M338 126h1M340 126h1M342 126h55M335 127h1M337 127h1M339 127h1M341 127h1M343 127h1M345 127h1M347 127h1M349 127h1M351 127h1M353 127h44M336 128h1M338 128h1M340 128h1M342 128h1M344 128h53M337 129h1M339 129h1M341 129h1M343 129h1M345 129h1M347 129h1M349 129h1M351 129h1M353 129h1M355 129h1M357 129h40M338 130h1M340 130h1M342 130h1M344 130h1M346 130h51M339 131h1M341 131h1M345 131h1M347 131h1M349 131h1M351 131h1M353 131h1M355 131h1M357 131h1M359 131h38M340 132h1M342 132h1M344 132h1M346 132h1M348 132h49M341 133h1M343 133h1M345 133h1M347 133h1M349 133h1M351 133h1M353 133h1M355 133h1M357 133h1M359 133h1M361 133h1M363 133h34M342 134h1M344 134h1M346 134h1M348 134h1M350 134h47M343 135h1M345 135h1M347 135h1M349 135h1M351 135h1M353 135h1M355 135h1M357 135h1M359 135h1M361 135h1M363 135h1M365 135h32M344 136h1M346 136h1M348 136h1M350 136h1M352 136h1M354 136h1M356 136h40M345 137h1M347 137h1M349 137h1M351 137h1M353 137h1M355 137h1M357 137h1M359 137h1M361 137h1M363 137h1M365 137h1M367 137h1M369 137h1M371 137h1M373 137h1M375 137h1M377 137h1M379 137h1M381 137h1M383 137h1M385 137h1M387 137h1M389 137h1M391 137h1M393 137h1M395 137h1M350 138h1M352 138h1M354 138h1M356 138h1M358 138h1M360 138h1M362 138h33M351 139h1M353 139h1M355 139h1M357 139h1M359 139h1M361 139h1M363 139h1M365 139h1M367 139h1M369 139h1M371 139h1M373 139h1M375 139h1M377 139h1M379 139h1M381 139h1M383 139h1M385 139h1M387 139h1M389 139h1M391 139h1M393 139h1M395 139h1M352 140h1M354 140h1M356 140h1M358 140h1M360 140h1M362 140h33M353 141h1M355 141h1M357 141h1M359 141h1M361 141h1M363 141h1M365 141h1M367 141h1M369 141h1M371 141h1M373 141h1M375 141h1M377 141h1M379 141h1M381 141h1M383 141h1M385 141h1M387 141h1M389 141h1M391 141h1M393 141h1M354 142h1M356 142h1M358 142h1M360 142h1M362 142h1M364 142h31M355 143h1M357 143h1M359 143h1M361 143h1M363 143h1M365 143h1M367 143h1M369 143h1M371 143h1M373 143h1M375 143h1M377 143h1M379 143h1M381 143h1M383 143h1M385 143h1M387 143h1M389 143h1M391 143h1M393 143h1M356 144h1M358 144h35M359 145h1M361 145h1M363 145h1M365 145h1M367 145h1M369 145h1M371 145h1M373 145h1M375 145h1M377 145h1M379 145h1M381 145h1M383 145h1M385 145h1M387 145h1M389 145h1M391 145h1M360 146h1M362 146h1M364 146h1M366 146h1M368 146h1M370 146h1M372 146h1M374 146h1M376 146h1M378 146h1M380 146h1M382 146h1M384 146h1M386 146h1M388 146h1M390 146h1M363 147h1M365 147h1M369 147h1M371 147h1M373 147h1M375 147h1M377 147h1M381 147h1M383 147h1M385 147h1M387 147h1M389 147h1M364 148h1M366 148h1M368 148h1M370 148h1M372 148h1M374 148h1M376 148h1M378 148h1M380 148h1M382 148h1M384 148h1M386 148h1M388 148h1" />
<path stroke="#9d448d" d="M335 102h1M333 104h1M335 104h1M331 105h1M331 106h1M333 106h1M335 106h1M330 107h1M329 108h1M331 108h1M333 108h1M335 108h1M329 109h2M328 110h2M331 110h1M333 110h1M335 110h1M337 110h1M327 111h2M330 111h1M327 112h3M331 112h1M333 112h1M335 112h1M337 112h1M327 113h2M330 113h1M326 114h4M331 114h1M333 114h1M335 114h1M337 114h1M327 115h2M330 115h1M326 116h4M331 116h1M333 116h1M335 116h1M337 116h1M325 117h1M327 117h2M330 117h1M332 117h1M334 117h1M336 117h1M338 117h1M324 118h1M326 118h4M331 118h1M333 118h1M335 118h1M325 119h1M327 119h4M332 119h1M334 119h1M336 119h1M338 119h1M340 119h1M324 120h1M326 120h6M333 120h1M335 120h1M337 120h1M323 121h1M325 121h1M327 121h4M332 121h1M334 121h1M336 121h1M338 121h1M340 121h1M342 121h1M344 121h1M324 122h1M326 122h6M333 122h1M335 122h1M337 122h1M323 123h1M325 123h1M327 123h6M334 123h1M336 123h1M338 123h1M340 123h1M342 123h1M344 123h1M346 123h1M324 124h1M326 124h8M335 124h1M337 124h1M339 124h1M323 125h1M325 125h1M327 125h6M334 125h1M336 125h1M338 125h1M340 125h1M342 125h1M344 125h1M346 125h1M348 125h1M324 126h1M326 126h8M335 126h1M337 126h1M339 126h1M341 126h1M323 127h1M325 127h1M327 127h8M336 127h1M338 127h1M340 127h1M342 127h1M344 127h1M346 127h1M348 127h1M350 127h1M352 127h1M324 128h1M326 128h1M328 128h8M337 128h1M339 128h1M341 128h1M343 128h1M325 129h1M327 129h1M329 129h8M338 129h1M340 129h1M342 129h1M344 129h1M346 129h1M348 129h1M350 129h1M352 129h1M354 129h1M356 129h1M326 130h1M328 130h1M330 130h3M334 130h4M339 130h1M341 130h1M343 130h1M345 130h1M327 131h1M329 131h1M331 131h8M340 131h1M342 131h3M346 131h1M348 131h1M350 131h1M352 131h1M354 131h1M356 131h1M358 131h1M326 132h1M328 132h1M330 132h1M332 132h3M336 132h4M341 132h1M343 132h1M345 132h1M347 132h1M327 133h1M329 133h1M331 133h1M333 133h8M342 133h1M344 133h1M346 133h1M348 133h1M350 133h1M352 133h1M354 133h1M356 133h1M358 133h1M360 133h1M362 133h1M326 134h1M328 134h1M330 134h1M332 134h1M334 134h3M338 134h4M343 134h1M345 134h1M347 134h1M349 134h1M327 135h1M329 135h1M331 135h1M333 135h1M335 135h8M344 135h1M346 135h1M348 135h1M350 135h1M352 135h1M354 135h1M356 135h1M358 135h1M360 135h1M362 135h1M364 135h1M326 136h1M328 136h1M330 136h1M332 136h1M334 136h5M340 136h4M345 136h1M347 136h1M349 136h1M351 136h1M353 136h1M355 136h1M396 136h1M327 137h1M329 137h1M331 137h1M333 137h1M335 137h10M346 137h1M348 137h1M350 137h1M352 137h1M354 137h1M356 137h1M358 137h1M360 137h1M362 137h1M364 137h1M366 137h1M368 137h1M370 137h1M372 137h1M374 137h1M376 137h1M378 137h1M380 137h1M382 137h1M384 137h1M386 137h1M388 137h1M390 137h1M392 137h1M394 137h1M396 137h1M328 138h1M330 138h1M332 138h1M334 138h1M336 138h5M342 138h8M351 138h1M353 138h1M355 138h1M357 138h1M359 138h1M361 138h1M395 138h1M329 139h1M331 139h1M333 139h1M335 139h1M337 139h14M352 139h1M354 139h1M356 139h1M358 139h1M360 139h1M362 139h1M364 139h1M366 139h1M368 139h1M370 139h1M372 139h1M374 139h1M376 139h1M378 139h1M380 139h1M382 139h1M384 139h1M386 139h1M388 139h1M390 139h1M392 139h1M394 139h1M330 140h1M332 140h1M334 140h1M336 140h1M338 140h5M344 140h5M350 140h2M353 140h1M355 140h1M357 140h1M359 140h1M361 140h1M395 140h1M331 141h1M333 141h1M335 141h1M337 141h1M339 141h14M354 141h1M356 141h1M358 141h1M360 141h1M362 141h1M364 141h1M366 141h1M368 141h1M370 141h1M372 141h1M374 141h1M376 141h1M378 141h1M380 141h1M382 141h1M384 141h1M386 141h1M388 141h1M390 141h1M392 141h1M394 141h1M332 142h1M334 142h1M336 142h1M338 142h7M346 142h5M352 142h2M355 142h1M357 142h1M359 142h1M361 142h1M363 142h1M333 143h1M335 143h1M337 143h1M339 143h1M341 143h14M356 143h1M358 143h1M360 143h1M362 143h1M364 143h1M366 143h1M368 143h1M370 143h1M372 143h1M374 143h1M376 143h1M378 143h1M380 143h1M382 143h1M384 143h1M386 143h1M388 143h1M390 143h1M392 143h1M394 143h1M334 144h1M336 144h1M338 144h1M340 144h1M342 144h5M348 144h5M354 144h2M357 144h1M393 144h1M335 145h1M337 145h1M339 145h1M341 145h1M343 145h16M360 145h1M362 145h1M364 145h1M366 145h1M368 145h1M370 145h1M372 145h1M374 145h1M376 145h1M378 145h1M380 145h1M382 145h1M384 145h1M386 145h1M388 145h1M390 145h1M392 145h2M336 146h1M338 146h1M340 146h1M342 146h1M344 146h3M348 146h1M350 146h5M356 146h4M361 146h1M363 146h1M365 146h1M367 146h1M369 146h1M371 146h1M373 146h1M375 146h1M377 146h1M379 146h1M381 146h1M383 146h1M385 146h1M387 146h1M389 146h1M391 146h2M337 147h1M339 147h1M341 147h1M343 147h1M345 147h1M347 147h1M349 147h1M351 147h12M364 147h1M366 147h3M370 147h1M372 147h1M374 147h1M376 147h1M378 147h3M382 147h1M384 147h1M386 147h1M388 147h1M390 147h3M338 148h1M340 148h1M342 148h1M344 148h1M346 148h1M348 148h1M350 148h1M352 148h1M354 148h3M358 148h6M365 148h1M367 148h1M369 148h1M371 148h1M373 148h1M375 148h1M377 148h1M379 148h1M381 148h1M383 148h1M385 148h1M387 148h1M389 148h3M339 149h1M341 149h1M343 149h1M345 149h1M347 149h1M349 149h1M351 149h1M353 149h37M340 150h1M342 150h1M344 150h1M346 150h1M348 150h1M350 150h1M352 150h1M354 150h1M356 150h3M360 150h29M390 150h1M349 151h1M351 151h1M353 151h1M355 151h33M389 151h1M350 152h1M352 152h1M354 152h1M356 152h1M358 152h1M360 152h1M362 152h1M364 152h1M366 152h1M368 152h1M370 152h1M372 152h1M374 152h1M376 152h1M378 152h1M380 152h1M382 152h1M384 152h1M386 152h1M388 152h1M351 153h1M353 153h1M355 153h29M385 153h1M387 153h1M350 154h1M352 154h1M354 154h1M356 154h27M384 154h1M386 154h1M351 155h1M353 155h1M355 155h1M357 155h1M359 155h1M361 155h1M363 155h1M365 155h1M367 155h1M369 155h1M371 155h1M373 155h1M375 155h1M377 155h1M379 155h1M381 155h1M383 155h1M385 155h1M352 156h1M354 156h1M356 156h1M358 156h1M360 156h1M362 156h1M364 156h1M366 156h1M368 156h1M370 156h1M372 156h1M374 156h1M376 156h1M378 156h1M380 156h1M382 156h1M355 157h1M357 157h1M359 157h1M361 157h1M363 157h1M365 157h1M367 157h1M369 157h1M371 157h1M373 157h1M375 157h1M377 157h1M379 157h1M381 157h1" />
</svg>