<svg xmlns="http://www.w3.org/2000/svg" viewBox="0 -0.5 77 76" shape-rendering="crispEdges">
<metadata>Made with Pixels to Svg https://codepen.io/shshaw/pen/XbxvNj</metadata>
<path stroke="#39155f" d="M29 0h19M26 1h3M48 1h3M23 2h3M51 2h3M21 3h2M54 3h2M19 4h2M56 4h2M17 5h2M58 5h2M16 6h1M60 6h1M15 7h1M61 7h1M14 8h1M62 8h1M13 9h1M63 9h1M12 10h1M64 10h1M11 11h1M65 11h1M10 12h1M66 12h1M9 13h1M67 13h1M9 14h1M68 14h1M8 15h1M69 15h1M7 16h1M69 16h1M6 17h2M70 17h1M6 18h1M70 18h1M5 19h1M71 19h1M5 20h1M71 20h1M4 21h2M72 21h1M4 22h1M72 22h1M3 23h3M73 23h1M3 24h2M73 24h1M2 25h2M5 25h1M74 25h1M2 26h1M4 26h1M74 26h1M2 27h2M5 27h1M74 27h1M1 28h2M4 28h1M75 28h1M1 29h1M3 29h1M5 29h1M75 29h1M1 30h2M4 30h1M75 30h1M0 31h2M3 31h1M5 31h1M76 31h1M0 32h3M4 32h1M76 32h1M0 33h2M3 33h1M5 33h1M76 33h1M0 34h3M4 34h1M76 34h1M0 35h2M3 35h1M5 35h1M76 35h1M0 36h3M4 36h1M6 36h1M76 36h1M0 37h4M5 37h1M7 37h1M76 37h1M0 38h5M6 38h1M8 38h1M12 38h1M76 38h1M0 39h6M7 39h1M9 39h1M76 39h1M0 40h5M6 40h1M8 40h1M10 40h1M14 40h1M76 40h1M0 41h6M7 41h1M9 41h1M11 41h1M76 41h1M0 42h5M6 42h1M8 42h1M10 42h1M12 42h1M16 42h1M76 42h1M0 43h6M7 43h1M9 43h1M11 43h1M13 43h1M76 43h1M0 44h5M6 44h1M8 44h1M10 44h1M12 44h1M18 44h1M76 44h1M0 45h6M7 45h1M9 45h1M11 45h1M13 45h1M76 45h1M1 46h6M8 46h1M10 46h1M12 46h1M14 46h1M20 46h1M75 46h1M1 47h7M9 47h1M11 47h1M13 47h1M15 47h1M75 47h1M1 48h8M10 48h1M12 48h1M14 48h1M16 48h1M22 48h1M28 48h1M75 48h1M2 49h8M11 49h1M13 49h1M15 49h1M17 49h1M74 49h1M2 50h9M12 50h1M14 50h1M16 50h1M24 50h1M30 50h1M74 50h1M2 51h10M13 51h1M15 51h1M17 51h1M19 51h1M74 51h1M3 52h10M14 52h1M16 52h1M18 52h1M20 52h1M26 52h1M32 52h1M73 52h1M3 53h11M15 53h1M17 53h1M19 53h1M21 53h1M73 53h1M4 54h11M16 54h1M18 54h1M20 54h1M22 54h1M26 54h1M28 54h1M34 54h1M72 54h1M4 55h12M17 55h1M19 55h1M21 55h1M23 55h1M25 55h1M27 55h1M29 55h1M72 55h1M5 56h12M18 56h1M20 56h1M22 56h1M24 56h1M26 56h1M28 56h1M30 56h1M32 56h1M36 56h1M71 56h1M5 57h13M19 57h1M21 57h1M23 57h1M25 57h1M27 57h1M29 57h1M31 57h1M69 57h3M6 58h13M20 58h1M22 58h1M24 58h1M26 58h1M28 58h1M30 58h1M32 58h1M34 58h1M38 58h1M68 58h1M70 58h1M6 59h22M29 59h1M31 59h1M33 59h1M67 59h1M69 59h2M7 60h22M30 60h1M32 60h1M34 60h1M36 60h1M38 60h1M40 60h1M42 60h1M44 60h1M46 60h1M48 60h1M50 60h1M52 60h1M54 60h1M56 60h1M58 60h1M60 60h1M62 60h1M64 60h1M66 60h1M68 60h2M8 61h22M31 61h1M33 61h1M63 61h1M65 61h1M67 61h2M9 62h20M30 62h1M32 62h1M34 62h1M62 62h1M64 62h1M66 62h2M10 63h20M31 63h1M33 63h1M35 63h1M37 63h1M39 63h1M41 63h1M43 63h1M45 63h1M47 63h1M49 63h1M51 63h1M53 63h1M55 63h1M57 63h1M59 63h1M61 63h1M63 63h1M65 63h2M11 64h20M32 64h1M34 64h1M36 64h1M38 64h1M40 64h1M42 64h1M44 64h1M46 64h1M48 64h1M50 64h1M52 64h1M54 64h1M56 64h1M58 64h1M60 64h1M62 64h4M12 65h22M35 65h1M37 65h1M39 65h1M41 65h1M43 65h1M45 65h1M47 65h1M49 65h1M51 65h1M53 65h1M55 65h1M57 65h1M59 65h1M61 65h4M13 66h51M14 67h49M15 68h47M16 69h45M17 70h43M19 71h39M21 72h35M23 73h31M26 74h25M29 75h19" />
<path stroke="#b187d7" d="M29 1h19M26 2h25M23 3h31M21 4h35M19 5h39M17 6h43M16 7h45M15 8h47M14 9h49M13 10h1M15 10h49M12 11h53M11 12h1M13 12h1M15 12h51M11 13h56M11 14h1M13 14h1M15 14h53M10 15h59M9 16h1M11 16h1M13 16h1M15 16h54M10 17h60M9 18h1M11 18h1M13 18h1M15 18h1M17 18h53M8 19h1M10 19h61M9 20h1M11 20h1M13 20h1M15 20h1M17 20h54M8 21h1M10 21h62M9 22h1M11 22h1M13 22h1M15 22h1M17 22h55M8 23h1M10 23h63M9 24h1M11 24h1M13 24h1M15 24h1M17 24h56M8 25h1M10 25h1M12 25h1M14 25h1M16 25h1M18 25h56M9 26h1M11 26h1M13 26h1M15 26h59M10 27h1M12 27h1M14 27h1M16 27h1M18 27h1M20 27h54M11 28h1M13 28h1M15 28h1M17 28h58M10 29h1M12 29h1M14 29h1M16 29h1M18 29h1M20 29h1M22 29h1M24 29h51M11 30h1M13 30h1M15 30h1M17 30h58M12 31h1M14 31h1M16 31h1M18 31h1M20 31h1M22 31h1M24 31h1M26 31h50M13 32h1M15 32h1M17 32h1M19 32h57M12 33h1M14 33h1M16 33h1M18 33h1M20 33h1M22 33h1M24 33h1M26 33h1M28 33h48M13 34h1M15 34h1M17 34h1M19 34h1M21 34h55M14 35h1M16 35h1M18 35h1M20 35h1M22 35h1M24 35h1M26 35h1M28 35h1M30 35h1M32 35h44M15 36h1M17 36h1M19 36h1M21 36h1M23 36h53M16 37h1M18 37h1M20 37h1M22 37h1M24 37h1M26 37h1M28 37h1M30 37h1M32 37h1M34 37h1M36 37h40M17 38h1M19 38h1M21 38h1M23 38h1M25 38h51M18 39h1M20 39h1M24 39h1M26 39h1M28 39h1M30 39h1M32 39h1M34 39h1M36 39h1M38 39h38M19 40h1M21 40h1M23 40h1M25 40h1M27 40h49M20 41h1M22 41h1M24 41h1M26 41h1M28 41h1M30 41h1M32 41h1M34 41h1M36 41h1M38 41h1M40 41h1M42 41h34M21 42h1M23 42h1M25 42h1M27 42h1M29 42h47M22 43h1M24 43h1M26 43h1M28 43h1M30 43h1M32 43h1M34 43h1M36 43h1M38 43h1M40 43h1M42 43h1M44 43h32M23 44h1M25 44h1M27 44h1M29 44h1M31 44h1M33 44h1M35 44h40M24 45h1M26 45h1M28 45h1M30 45h1M32 45h1M34 45h1M36 45h1M38 45h1M40 45h1M42 45h1M44 45h1M46 45h1M48 45h1M50 45h1M52 45h1M54 45h1M56 45h1M58 45h1M60 45h1M62 45h1M64 45h1M66 45h1M68 45h1M70 45h1M72 45h1M74 45h1M29 46h1M31 46h1M33 46h1M35 46h1M37 46h1M39 46h1M41 46h33M30 47h1M32 47h1M34 47h1M36 47h1M38 47h1M40 47h1M42 47h1M44 47h1M46 47h1M48 47h1M50 47h1M52 47h1M54 47h1M56 47h1M58 47h1M60 47h1M62 47h1M64 47h1M66 47h1M68 47h1M70 47h1M72 47h1M74 47h1M31 48h1M33 48h1M35 48h1M37 48h1M39 48h1M41 48h33M32 49h1M34 49h1M36 49h1M38 49h1M40 49h1M42 49h1M44 49h1M46 49h1M48 49h1M50 49h1M52 49h1M54 49h1M56 49h1M58 49h1M60 49h1M62 49h1M64 49h1M66 49h1M68 49h1M70 49h1M72 49h1M33 50h1M35 50h1M37 50h1M39 50h1M41 50h1M43 50h31M34 51h1M36 51h1M38 51h1M40 51h1M42 51h1M44 51h1M46 51h1M48 51h1M50 51h1M52 51h1M54 51h1M56 51h1M58 51h1M60 51h1M62 51h1M64 51h1M66 51h1M68 51h1M70 51h1M72 51h1M35 52h1M37 52h35M38 53h1M40 53h1M42 53h1M44 53h1M46 53h1M48 53h1M50 53h1M52 53h1M54 53h1M56 53h1M58 53h1M60 53h1M62 53h1M64 53h1M66 53h1M68 53h1M70 53h1M39 54h1M41 54h1M43 54h1M45 54h1M47 54h1M49 54h1M51 54h1M53 54h1M55 54h1M57 54h1M59 54h1M61 54h1M63 54h1M65 54h1M67 54h1M69 54h1M42 55h1M44 55h1M48 55h1M50 55h1M52 55h1M54 55h1M56 55h1M60 55h1M62 55h1M64 55h1M66 55h1M68 55h1M43 56h1M45 56h1M47 56h1M49 56h1M51 56h1M53 56h1M55 56h1M57 56h1M59 56h1M61 56h1M63 56h1M65 56h1M67 56h1" />
<path stroke="#9d448d" d="M14 10h1M12 12h1M14 12h1M10 13h1M10 14h1M12 14h1M14 14h1M9 15h1M8 16h1M10 16h1M12 16h1M14 16h1M8 17h2M7 18h2M10 18h1M12 18h1M14 18h1M16 18h1M6 19h2M9 19h1M6 20h3M10 20h1M12 20h1M14 20h1M16 20h1M6 21h2M9 21h1M5 22h4M10 22h1M12 22h1M14 22h1M16 22h1M6 23h2M9 23h1M5 24h4M10 24h1M12 24h1M14 24h1M16 24h1M4 25h1M6 25h2M9 25h1M11 25h1M13 25h1M15 25h1M17 25h1M3 26h1M5 26h4M10 26h1M12 26h1M14 26h1M4 27h1M6 27h4M11 27h1M13 27h1M15 27h1M17 27h1M19 27h1M3 28h1M5 28h6M12 28h1M14 28h1M16 28h1M2 29h1M4 29h1M6 29h4M11 29h1M13 29h1M15 29h1M17 29h1M19 29h1M21 29h1M23 29h1M3 30h1M5 30h6M12 30h1M14 30h1M16 30h1M2 31h1M4 31h1M6 31h6M13 31h1M15 31h1M17 31h1M19 31h1M21 31h1M23 31h1M25 31h1M3 32h1M5 32h8M14 32h1M16 32h1M18 32h1M2 33h1M4 33h1M6 33h6M13 33h1M15 33h1M17 33h1M19 33h1M21 33h1M23 33h1M25 33h1M27 33h1M3 34h1M5 34h8M14 34h1M16 34h1M18 34h1M20 34h1M2 35h1M4 35h1M6 35h8M15 35h1M17 35h1M19 35h1M21 35h1M23 35h1M25 35h1M27 35h1M29 35h1M31 35h1M3 36h1M5 36h1M7 36h8M16 36h1M18 36h1M20 36h1M22 36h1M4 37h1M6 37h1M8 37h8M17 37h1M19 37h1M21 37h1M23 37h1M25 37h1M27 37h1M29 37h1M31 37h1M33 37h1M35 37h1M5 38h1M7 38h1M9 38h3M13 38h4M18 38h1M20 38h1M22 38h1M24 38h1M6 39h1M8 39h1M10 39h8M19 39h1M21 39h3M25 39h1M27 39h1M29 39h1M31 39h1M33 39h1M35 39h1M37 39h1M5 40h1M7 40h1M9 40h1M11 40h3M15 40h4M20 40h1M22 40h1M24 40h1M26 40h1M6 41h1M8 41h1M10 41h1M12 41h8M21 41h1M23 41h1M25 41h1M27 41h1M29 41h1M31 41h1M33 41h1M35 41h1M37 41h1M39 41h1M41 41h1M5 42h1M7 42h1M9 42h1M11 42h1M13 42h3M17 42h4M22 42h1M24 42h1M26 42h1M28 42h1M6 43h1M8 43h1M10 43h1M12 43h1M14 43h8M23 43h1M25 43h1M27 43h1M29 43h1M31 43h1M33 43h1M35 43h1M37 43h1M39 43h1M41 43h1M43 43h1M5 44h1M7 44h1M9 44h1M11 44h1M13 44h5M19 44h4M24 44h1M26 44h1M28 44h1M30 44h1M32 44h1M34 44h1M75 44h1M6 45h1M8 45h1M10 45h1M12 45h1M14 45h10M25 45h1M27 45h1M29 45h1M31 45h1M33 45h1M35 45h1M37 45h1M39 45h1M41 45h1M43 45h1M45 45h1M47 45h1M49 45h1M51 45h1M53 45h1M55 45h1M57 45h1M59 45h1M61 45h1M63 45h1M65 45h1M67 45h1M69 45h1M71 45h1M73 45h1M75 45h1M7 46h1M9 46h1M11 46h1M13 46h1M15 46h5M21 46h8M30 46h1M32 46h1M34 46h1M36 46h1M38 46h1M40 46h1M74 46h1M8 47h1M10 47h1M12 47h1M14 47h1M16 47h14M31 47h1M33 47h1M35 47h1M37 47h1M39 47h1M41 47h1M43 47h1M45 47h1M47 47h1M49 47h1M51 47h1M53 47h1M55 47h1M57 47h1M59 47h1M61 47h1M63 47h1M65 47h1M67 47h1M69 47h1M71 47h1M73 47h1M9 48h1M11 48h1M13 48h1M15 48h1M17 48h5M23 48h5M29 48h2M32 48h1M34 48h1M36 48h1M38 48h1M40 48h1M74 48h1M10 49h1M12 49h1M14 49h1M16 49h1M18 49h14M33 49h1M35 49h1M37 49h1M39 49h1M41 49h1M43 49h1M45 49h1M47 49h1M49 49h1M51 49h1M53 49h1M55 49h1M57 49h1M59 49h1M61 49h1M63 49h1M65 49h1M67 49h1M69 49h1M71 49h1M73 49h1M11 50h1M13 50h1M15 50h1M17 50h7M25 50h5M31 50h2M34 50h1M36 50h1M38 50h1M40 50h1M42 50h1M12 51h1M14 51h1M16 51h1M18 51h1M20 51h14M35 51h1M37 51h1M39 51h1M41 51h1M43 51h1M45 51h1M47 51h1M49 51h1M51 51h1M53 51h1M55 51h1M57 51h1M59 51h1M61 51h1M63 51h1M65 51h1M67 51h1M69 51h1M71 51h1M73 51h1M13 52h1M15 52h1M17 52h1M19 52h1M21 52h5M27 52h5M33 52h2M36 52h1M72 52h1M14 53h1M16 53h1M18 53h1M20 53h1M22 53h16M39 53h1M41 53h1M43 53h1M45 53h1M47 53h1M49 53h1M51 53h1M53 53h1M55 53h1M57 53h1M59 53h1M61 53h1M63 53h1M65 53h1M67 53h1M69 53h1M71 53h2M15 54h1M17 54h1M19 54h1M21 54h1M23 54h3M27 54h1M29 54h5M35 54h4M40 54h1M42 54h1M44 54h1M46 54h1M48 54h1M50 54h1M52 54h1M54 54h1M56 54h1M58 54h1M60 54h1M62 54h1M64 54h1M66 54h1M68 54h1M70 54h2M16 55h1M18 55h1M20 55h1M22 55h1M24 55h1M26 55h1M28 55h1M30 55h12M43 55h1M45 55h3M49 55h1M51 55h1M53 55h1M55 55h1M57 55h3M61 55h1M63 55h1M65 55h1M67 55h1M69 55h3M17 56h1M19 56h1M21 56h1M23 56h1M25 56h1M27 56h1M29 56h1M31 56h1M33 56h3M37 56h6M44 56h1M46 56h1M48 56h1M50 56h1M52 56h1M54 56h1M56 56h1M58 56h1M60 56h1M62 56h1M64 56h1M66 56h1M68 56h3M18 57h1M20 57h1M22 57h1M24 57h1M26 57h1M28 57h1M30 57h1M32 57h37M19 58h1M21 58h1M23 58h1M25 58h1M27 58h1M29 58h1M31 58h1M33 58h1M35 58h3M39 58h29M69 58h1M28 59h1M30 59h1M32 59h1M34 59h33M68 59h1M29 60h1M31 60h1M33 60h1M35 60h1M37 60h1M39 60h1M41 60h1M43 60h1M45 60h1M47 60h1M49 60h1M51 60h1M53 60h1M55 60h1M57 60h1M59 60h1M61 60h1M63 60h1M65 60h1M67 60h1M30 61h1M32 61h1M34 61h29M64 61h1M66 61h1M29 62h1M31 62h1M33 62h1M35 62h27M63 62h1M65 62h1M30 63h1M32 63h1M34 63h1M36 63h1M38 63h1M40 63h1M42 63h1M44 63h1M46 63h1M48 63h1M50 63h1M52 63h1M54 63h1M56 63h1M58 63h1M60 63h1M62 63h1M64 63h1M31 64h1M33 64h1M35 64h1M37 64h1M39 64h1M41 64h1M43 64h1M45 64h1M47 64h1M49 64h1M51 64h1M53 64h1M55 64h1M57 64h1M59 64h1M61 64h1M34 65h1M36 65h1M38 65h1M40 65h1M42 65h1M44 65h1M46 65h1M48 65h1M50 65h1M52 65h1M54 65h1M56 65h1M58 65h1M60 65h1" />
</svg>