<svg xmlns="http://www.w3.org/2000/svg" viewBox="0 -0.5 1276 600" shape-rendering="crispEdges">
<metadata>Made with Pixels to Svg https://codepen.io/shshaw/pen/XbxvNj</metadata>
<path stroke="#ff002a" d="M959 0h1M959 1h1M959 2h1M959 3h1M959 4h1M959 5h1M959 6h1M959 7h1M959 8h1M959 9h1M959 10h1M959 11h1M959 12h1M959 13h1M959 14h1M959 15h1M959 16h1M959 17h1M959 18h1M959 19h1M959 20h1M959 21h1M959 22h1M959 23h1M959 24h1M959 25h1M959 26h1M959 27h1M959 28h1M959 29h1M959 30h1M959 31h1M959 32h1M959 33h1M959 34h1M959 35h1M959 36h1M959 37h1M959 38h1M959 39h1M959 40h1M959 41h1M959 42h1M959 43h1M959 44h1M959 45h1M959 46h1M959 47h1M959 48h1M959 49h1M959 50h1M959 51h1M959 52h1M959 53h1M959 54h1M959 55h1M959 56h1M959 57h1M959 58h1M959 59h1M959 60h1M959 61h1M959 62h1M959 63h1M959 64h1M959 65h1M959 66h1M959 67h1M959 68h1M959 69h1M959 70h1M959 71h1M959 72h1M959 73h1M959 74h1M959 75h1M959 76h1M959 77h1M959 78h1M959 79h1M959 80h1M959 81h1M959 82h1M959 83h1M959 84h1M959 85h1M959 86h1M959 87h1M959 88h1M959 89h1M959 90h1M959 91h1M959 92h1M959 93h1M959 94h1M959 95h1M959 96h1M959 97h1M959 98h1M959 99h1M959 100h1M959 101h1M959 102h1M959 103h1M959 104h1M959 105h1M959 106h1M959 107h1M959 108h1M959 109h1M959 110h1M959 111h1M959 112h1M959 113h1M959 114h1M959 115h1M959 116h1M959 117h1M959 118h1M959 119h1M959 120h1M959 121h1M959 122h1M959 123h1M959 124h1M959 125h1M959 126h1M959 127h1M959 128h1M959 129h1M959 130h1M959 131h1M959 132h1M959 133h1M959 134h1M959 135h1M959 136h1M959 137h1M959 138h1M959 139h1M959 140h1M959 141h1M959 142h1M959 143h1M959 144h1M959 145h1M959 146h1M959 147h1M959 148h1M959 149h1M959 150h1M959 151h1M959 152h1M959 153h1M959 154h1M959 155h1M959 156h1M959 157h1M959 158h1M959 159h1M959 160h1M959 161h1M959 162h1M959 163h1M959 164h1M959 165h1M959 166h1M959 167h1M959 168h1M959 169h1M959 170h1M959 171h1M959 172h1M959 173h1M959 174h1M959 175h1M959 176h1M959 177h1M959 178h1M959 179h1M959 180h1M959 181h1M959 182h1M959 183h1M959 184h1M959 185h1M959 186h1M959 187h1M959 188h1M959 189h1M959 190h1M959 191h1M959 192h1M959 193h1M959 194h1M959 195h1M959 196h1M959 197h1M959 198h1M959 199h1M959 200h1M959 201h1M959 202h1M959 203h1M959 204h1M959 205h1M959 206h1M959 207h1M959 208h1M959 209h1M959 210h1M959 211h1M959 212h1M959 213h1M959 214h1M959 215h1M959 216h1M959 217h1M959 218h1M959 219h1M959 220h1M959 221h1M959 222h1M959 223h1M959 224h1M959 225h1M959 226h1M959 227h1M959 228h1M959 229h1M959 230h1M959 231h1M959 232h1M959 233h1M959 234h1M959 235h1M959 236h1M959 237h1M959 238h1M959 239h1M959 240h1M959 241h1M959 242h1M959 243h1M959 244h1M959 245h1M959 246h1M959 247h1M959 248h1M959 249h1M959 250h1M959 251h1M959 252h1M959 253h1M959 254h1M959 255h1M959 256h1M959 257h1M959 258h1M959 259h1M959 260h1M959 263h1M959 264h1M959 265h1M959 266h1M959 267h1M959 268h1M959 269h1M959 270h1M959 271h1M959 272h1M959 273h1M959 274h1M959 275h1M959 276h1M959 277h1M959 278h1M959 279h1M959 280h1M959 281h1M959 282h1M959 283h1M959 284h1M959 285h1M959 286h1M959 287h1M959 288h1M959 289h1M959 290h1M959 291h1M959 292h1M959 293h1M959 294h1M959 295h1M959 296h1M959 297h1M959 298h1M959 299h1M959 300h1M959 301h1M959 302h1M959 303h1M959 304h1M959 305h1M959 306h1M959 307h1M959 308h1M959 309h1M959 310h1M959 311h1M959 312h1M959 313h1M959 314h1M959 315h1M959 316h1M959 317h1M959 318h1M959 319h1M959 320h1M959 321h1M959 322h1M959 323h1M959 324h1M959 325h1M959 326h1M959 327h1M959 328h1M959 329h1M959 330h1M959 331h1M959 332h1M959 333h1M959 334h1M959 335h1M959 336h1M959 337h1M959 338h1M959 339h1M959 340h1M959 341h1M959 342h1M959 343h1M959 344h1M959 345h1M959 346h1M959 347h1M959 348h1M959 349h1M959 350h1M959 351h1M959 352h1M959 353h1M959 354h1M959 355h1M959 356h1M959 357h1M959 358h1M959 359h1M959 360h1M959 361h1M959 362h1M959 363h1M959 364h1M959 365h1M959 366h1M959 367h1M959 368h1M959 369h1M959 370h1M959 371h1M959 372h1M959 373h1M959 374h1M959 375h1M959 376h1M959 377h1M959 378h1M959 379h1M959 380h1M959 381h1M959 382h1M959 383h1M959 384h1M959 385h1M959 386h1M959 387h1M959 388h1M959 389h1M959 390h1M959 391h1M959 392h1M959 393h1M959 394h1M959 395h1M959 396h1M959 397h1M959 398h1M959 399h1M959 400h1M959 401h1M959 402h1M959 403h1M959 404h1M959 405h1M959 406h1M959 407h1M959 408h1M959 409h1M959 410h1M959 411h1M959 412h1M959 413h1M959 414h1M959 415h1M959 416h1M959 417h1M959 418h1M959 419h1M959 420h1M959 421h1M959 422h1M959 423h1M959 424h1M959 425h1M959 426h1M959 427h1M959 428h1M959 429h1M959 430h1M959 431h1M959 432h1M959 433h1M959 434h1M959 435h1M959 436h1M959 437h1M959 438h1M959 439h1M959 440h1M959 441h1M959 442h1M959 443h1M959 444h1M959 445h1M959 446h1M959 447h1M959 448h1M959 449h1M959 450h1M959 451h1M959 452h1M959 453h1M959 454h1M959 455h1M959 456h1M959 457h1M959 458h1M959 459h1M959 460h1M959 461h1M959 462h1M959 463h1M959 464h1M959 465h1M959 466h1M959 467h1M959 468h1M959 469h1M959 470h1M959 471h1M959 472h1M959 473h1M959 474h1M959 475h1M959 476h1M959 477h1M959 478h1M959 479h1M959 480h1M959 481h1M959 482h1M959 483h1M959 484h1M959 485h1M959 486h1M959 487h1M959 488h1M959 489h1M959 490h1M959 491h1M959 492h1M959 493h1M959 494h1M959 495h1M959 496h1M959 497h1M959 498h1M959 499h1M959 500h1M959 501h1M959 502h1M959 503h1M959 504h1M959 505h1M959 506h1M959 507h1M959 508h1M959 509h1M959 510h1M959 511h1M959 512h1M959 513h1M959 514h1M959 515h1M959 516h1M959 517h1M959 518h1M959 519h1M959 520h1M959 521h1M959 522h1M959 523h1M959 524h1M959 525h1M959 526h1M959 527h1M959 528h1M959 529h1M959 530h1M959 531h1M959 532h1M959 533h1M959 534h1M959 535h1M959 536h1M959 537h1M959 538h1M959 539h1M959 540h1M959 541h1M959 542h1M959 543h1M959 544h1M959 545h1M959 546h1M959 547h1M959 548h1M959 549h1M959 550h1M959 551h1M959 552h1M959 553h1M959 554h1M959 555h1M959 556h1M959 557h1M959 558h1M959 559h1M959 560h1M959 561h1M959 562h1M959 563h1M959 564h1M959 565h1M959 566h1M959 567h1M959 568h1M959 569h1M959 570h1M959 571h1M959 572h1M959 573h1M959 574h1M959 575h1M959 576h1M959 577h1M959 578h1M959 579h1M959 580h1M959 581h1M959 582h1M959 583h1M959 584h1M959 585h1M959 586h1M959 587h1M959 588h1M959 589h1M959 590h1M959 591h1M959 592h1M959 593h1M959 594h1M959 595h1M959 596h1M959 597h1M959 598h1M959 599h1" />
<path stroke="#00d9ff" d="M0 260h959M0 261h959M0 262h959M0 263h959" />
<path stroke="#ff00b3" d="M960 260h316M959 261h317M959 262h317M960 263h316" />
</svg>