<svg xmlns="http://www.w3.org/2000/svg" viewBox="0 -0.5 960 600" shape-rendering="crispEdges">
<metadata>Made with Pixels to Svg https://codepen.io/shshaw/pen/XbxvNj</metadata>
<path stroke="#161751" d="M615 327h16M612 328h3M631 328h3M610 329h2M634 329h3M608 330h2M637 330h3M606 331h2M640 331h3M604 332h2M643 332h2M602 333h2M645 333h2M600 334h2M647 334h2M598 335h2M649 335h1M597 336h1M649 336h1M596 337h1M648 337h1M595 338h1M645 338h3M594 339h1M642 339h3M592 340h2M639 340h3M591 341h1M593 341h1M599 341h1M637 341h2M591 342h1M593 342h1M598 342h1M635 342h3M591 343h1M593 343h1M597 343h1M633 343h5M591 344h1M593 344h1M631 344h7M591 345h1M593 345h1M600 345h10M629 345h9M591 346h1M593 346h1M600 346h1M609 346h1M628 346h10M591 347h1M593 347h1M600 347h2M608 347h2M627 347h11M591 348h1M593 348h1M600 348h1M602 348h1M607 348h1M609 348h1M626 348h12M591 349h1M593 349h1M600 349h1M603 349h1M606 349h1M609 349h1M625 349h13M591 350h1M593 350h1M600 350h1M604 350h2M609 350h1M625 350h13M591 351h1M593 351h1M600 351h1M609 351h1M624 351h14M591 352h1M593 352h1M600 352h10M624 352h14M591 353h1M593 353h1M623 353h15M591 354h1M593 354h1M623 354h32M591 355h1M593 355h1M622 355h16M654 355h1M591 356h1M593 356h1M622 356h16M653 356h1M591 357h1M593 357h1M621 357h17M652 357h1M591 358h1M593 358h1M620 358h18M651 358h1M591 359h1M593 359h2M618 359h33M591 360h1M593 360h1M595 360h1M616 360h22M591 361h1M593 361h1M596 361h1M614 361h2M617 361h21M643 361h9M591 362h1M593 362h1M597 362h1M612 362h2M616 362h22M640 362h3M652 362h3M591 363h1M593 363h1M598 363h2M610 363h2M615 363h1M636 363h1M640 363h1M642 363h1M652 363h1M654 363h1M591 364h1M593 364h1M600 364h2M608 364h2M614 364h1M636 364h5M642 364h1M652 364h1M654 364h1M591 365h3M602 365h2M606 365h2M613 365h1M636 365h1M640 365h1M642 365h1M652 365h1M592 366h1M604 366h2M612 366h1M636 366h1M640 366h1M642 366h1M652 366h1M654 366h1M593 367h1M611 367h1M636 367h1M640 367h1M642 367h1M652 367h1M654 367h1M594 368h1M610 368h1M636 368h1M640 368h1M642 368h1M652 368h1M654 368h1M595 369h1M609 369h2M636 369h1M640 369h1M642 369h1M652 369h1M654 369h1M596 370h1M608 370h1M610 370h1M636 370h1M640 370h1M642 370h1M652 370h1M654 370h1M597 371h2M606 371h3M610 371h1M636 371h5M642 371h1M652 371h1M654 371h1M599 372h2M604 372h2M608 372h1M610 372h1M636 372h1M640 372h3M652 372h3M601 373h3M608 373h1M610 373h1M632 373h5M642 373h1M651 373h1M601 374h1M608 374h1M610 374h1M631 374h1M643 374h8M601 375h1M608 375h1M610 375h1M630 375h1M601 376h1M608 376h1M610 376h1M630 376h1M601 377h1M608 377h1M610 377h1M630 377h1M601 378h1M608 378h1M610 378h21M601 379h1M608 379h1M616 379h6M601 380h1M608 380h1M616 380h6M601 381h1M608 381h1M616 381h14M601 382h1M607 382h1M616 382h7M630 382h1M601 383h1M606 383h1M616 383h7M631 383h1M601 384h1M605 384h1M616 384h7M632 384h1M601 385h1M604 385h1M617 385h7M633 385h1M601 386h3M618 386h7M634 386h1M618 387h17M618 388h7M618 389h6M618 390h7M616 391h1M618 391h1M625 391h1M616 392h3M625 392h3M617 393h3M626 393h1M631 396h1" />
<path stroke="#faa1c7" d="M615 328h16M612 329h22M610 330h27M608 331h32M606 332h37M604 333h41M602 334h45M600 335h3M604 335h1M606 335h1M608 335h1M610 335h1M612 335h37M598 336h4M603 336h1M605 336h1M607 336h1M609 336h1M611 336h1M613 336h1M615 336h34M597 337h2M610 337h1M612 337h1M614 337h1M616 337h32M611 338h1M613 338h1M615 338h1M617 338h28M614 339h1M616 339h1M618 339h24M615 340h1M617 340h1M619 340h20M592 341h1M616 341h1M618 341h1M620 341h17M592 342h1M617 342h1M619 342h1M621 342h14M592 343h1M620 343h13M617 344h1M619 344h1M621 344h10M620 345h9M617 346h1M619 346h1M621 346h7M620 347h7M617 348h1M619 348h1M621 348h5M620 349h5M617 350h1M619 350h1M621 350h4M618 351h1M620 351h4M617 352h1M619 352h5M616 353h1M618 353h5M617 354h6M616 355h1M618 355h4M638 355h16M615 356h1M617 356h5M614 357h1M616 357h5M615 358h5M614 359h4M613 360h3M612 361h2M643 363h9" />
<path stroke="#e9efef" d="M603 335h1M605 335h1M607 335h1M609 335h1M611 335h1M602 336h1M604 336h1M606 336h1M608 336h1M610 336h1M612 336h1M614 336h1M599 337h11M611 337h1M613 337h1M615 337h1M596 338h15M612 338h1M614 338h1M616 338h1M595 339h19M615 339h1M617 339h1M594 340h21M616 340h1M618 340h1M594 341h5M600 341h16M617 341h1M619 341h1M594 342h4M599 342h18M618 342h1M620 342h1M594 343h3M598 343h22M594 344h23M618 344h1M620 344h1M594 345h6M610 345h10M594 346h6M610 346h7M618 346h1M620 346h1M594 347h6M610 347h10M594 348h6M610 348h7M618 348h1M620 348h1M594 349h6M610 349h10M594 350h6M610 350h7M618 350h1M620 350h1M594 351h6M610 351h8M619 351h1M594 352h6M610 352h7M618 352h1M594 353h22M617 353h1M594 354h23M594 355h22M617 355h1M594 356h21M616 356h1M638 356h15M594 357h20M615 357h1M594 358h21M595 359h19M596 360h17M597 361h15M598 362h14M600 363h10M641 363h1M602 364h6M641 364h1M643 364h9M604 365h2M641 365h1M643 365h9M643 366h9M643 367h9" />
<path stroke="#f73e44" d="M592 344h1M592 345h1M592 346h1M601 346h8M592 347h1M602 347h6M592 348h1M601 348h1M603 348h3M608 348h1M592 349h1M601 349h2M604 349h2M607 349h2M592 350h1M601 350h3M606 350h3M592 351h1M601 351h8M592 352h1M592 353h1M592 354h1M592 355h1M592 356h1M592 357h1M592 358h1M592 359h1M592 360h1M594 360h1M592 361h1M594 361h2M616 361h1M592 362h1M594 362h3M614 362h2M592 363h1M594 363h4M612 363h3M592 364h1M594 364h6M610 364h4M594 365h8M608 365h5M593 366h11M606 366h6M594 367h17M595 368h15M596 369h13M597 370h11M599 371h7M601 372h3M619 391h6M619 392h6M611 400h22M611 401h22M611 402h22" />
<path stroke="#c61f53" d="M655 354h11M667 354h1M669 354h1M668 357h1M670 357h1M663 358h1M665 358h1M667 358h1M669 358h1M671 358h1M673 358h1M675 358h1M677 358h1M655 359h1M657 359h1M659 359h2M662 359h1M664 359h1M666 359h1M668 359h1M670 359h1M656 362h1M658 362h1M660 362h1M662 362h1M664 362h1M666 362h1M668 362h1M670 362h3M674 362h1M673 363h1M675 363h1M677 363h1M654 365h1M684 366h1M686 366h1M689 367h1M677 368h1M681 368h1" />
<path stroke="#f73b7f" d="M655 355h17M654 356h8M653 357h5M651 359h4M656 359h1M658 359h1M655 362h1M657 362h1M659 362h1M661 362h1M663 362h1M665 362h1M667 362h1M669 362h1M655 365h21M655 366h19M655 367h25M681 367h1M683 367h1M655 368h22M678 368h1M680 368h1M655 369h16M655 372h1M657 372h1M659 372h1M661 373h5M630 381h1M632 381h1M634 381h1M633 383h6M640 383h2M633 384h4M638 384h1M640 384h6M639 386h1M641 386h1" />
<path stroke="#a1174f" d="M672 355h15M688 355h1M662 356h19M658 357h10M652 358h11M679 362h6M655 363h18M674 363h1M655 364h26M676 365h10M674 366h10M680 367h1M682 367h1M684 367h5M692 367h1M694 367h1M671 369h5M677 369h2M680 369h6M688 369h10M700 369h1M655 370h14M670 370h12M684 370h2M655 371h8M668 371h1M671 371h6M656 374h1" />
<path stroke="#ad7be0" d="M638 357h14M616 363h20M615 364h21M614 365h14M629 365h7M653 365h1M613 366h3M617 366h11M629 366h4M635 366h1M641 366h1M653 366h1M612 367h3M616 367h12M629 367h7M653 367h1M643 368h1M645 368h2M648 368h2M653 368h1M641 371h1" />
<path stroke="#6830e3" d="M638 358h13M637 365h3M637 366h3M637 367h3M611 368h25M637 368h3M611 369h25M637 369h3M643 369h9M611 370h25M637 370h3M643 370h9M611 371h25M643 371h9M606 372h2M611 372h25M643 372h9M604 373h4M611 373h21M643 373h8M602 374h6M611 374h20M602 375h6M611 375h19M602 376h6M611 376h19M602 377h6M611 377h19M602 378h6M602 379h6M602 380h6M602 381h6M602 382h5M602 383h4M602 384h3M602 385h2M625 386h9" />
<path stroke="#faaace" d="M643 362h9M653 363h1M653 364h1" />
<path stroke="#ac7be0" d="M628 365h1M616 366h1M628 366h1M633 366h2M615 367h1M628 367h1M641 367h1M641 368h1M644 368h1M647 368h1M650 368h2M641 369h1M653 369h1M641 370h1M653 370h1M653 371h1M623 382h7M623 383h3M627 383h4M623 384h1M625 384h1M627 384h5M631 385h1" />
<path stroke="#c51f53" d="M679 368h1M682 368h1M684 368h1M686 368h1M656 372h1M658 372h1M660 372h5M666 372h1M668 372h1M670 372h1M672 372h1M674 372h1M676 372h1M671 373h1M631 381h1M633 381h1M635 381h3M639 381h1M641 381h1M638 386h1M640 386h1M642 386h1M644 386h1M646 386h1M648 386h1M650 386h1" />
<path stroke="#a0174f" d="M676 369h1M679 369h1M686 369h2M669 370h1M682 370h2M663 371h5M669 371h2M677 371h1M667 373h1M669 373h1M655 374h1M657 374h3M631 382h23M642 383h20M646 384h21M634 385h38" />
<path stroke="#ac7ce0" d="M626 383h1M624 384h1M626 384h1M624 385h7M632 385h1M615 394h14M623 395h1M625 395h1M627 395h3M624 396h1M626 396h1M628 396h3M625 397h1M627 397h1M629 397h3M626 398h1M628 398h1M630 398h3M626 404h1M629 404h4M625 405h1M628 405h3M632 405h1M626 406h1M630 406h1M632 406h1M623 407h1M625 407h1M627 407h1M631 407h2M625 408h1M627 408h1M629 408h1" />
<path stroke="#f73b80" d="M632 383h1M639 383h1M637 384h1M639 384h1M635 386h3M643 386h1" />
<path stroke="#161752" d="M624 389h1M617 391h1M626 391h2M615 393h2M620 393h6M627 393h2M614 394h1M629 394h1M613 395h1M630 395h1M612 396h1M611 397h2M632 397h1M610 398h2M633 398h1M610 399h24M610 400h1M633 400h1M610 401h1M633 401h1M610 402h1M633 402h1M610 403h24M610 404h1M633 404h1M610 405h1M633 405h1M610 406h1M633 406h1M610 407h1M633 407h1M610 408h1M633 408h1M610 409h1M633 409h1M610 410h1M633 410h1M610 411h1M633 411h1M610 412h1M633 412h1M610 413h1M633 413h1M610 414h1M633 414h1M610 415h1M633 415h1M610 416h1M633 416h1M610 417h1M633 417h1M610 418h24M610 419h1M633 419h1M611 420h1M632 420h1M612 421h1M631 421h1M613 422h18M619 423h6M619 424h6M619 425h6M619 426h6M619 427h1M624 427h1M619 428h1M624 428h1M619 429h1M624 429h1M618 430h8M617 431h2M626 431h2M603 432h8M616 432h14M634 432h9M603 433h1M611 433h6M621 433h1M629 433h5M642 433h1M603 434h1M605 434h1M621 434h1M629 434h1M640 434h1M642 434h1M603 435h1M621 435h1M629 435h1M642 435h1M603 436h1M608 436h14M629 436h9M642 436h1M603 437h1M607 437h1M621 437h1M629 437h1M638 437h1M642 437h1M603 438h1M607 438h1M638 438h1M603 439h1M638 439h1" />
<path stroke="#faa2c8" d="M614 395h9M624 395h1M626 395h1M613 396h5M613 397h4M612 398h4M611 404h3M611 405h2M611 406h1" />
<path stroke="#e8efee" d="M618 396h6M625 396h1M627 396h1M617 397h8M626 397h1M628 397h1M616 398h10M627 398h1M629 398h1M614 404h12M627 404h1M613 405h12M626 405h1M612 406h12M625 406h1M611 407h12M624 407h1M611 408h11M623 408h1M611 409h10M622 409h1M611 410h7M619 410h1M621 410h1M611 411h6M618 411h1M620 411h1M611 412h5M617 412h1M619 412h1M612 413h1M614 413h1M616 413h1M611 414h1M613 414h1M615 414h1M617 414h1M612 415h1" />
<path stroke="#ab7ce0" d="M628 404h1M627 405h1M631 405h1M624 406h1M627 406h3M631 406h1M626 407h1M628 407h3M622 408h1M624 408h1M626 408h1M628 408h1M630 408h3M621 409h1M623 409h10M618 410h1M620 410h1M622 410h2M626 410h1M628 410h5M617 411h1M619 411h1M622 411h1M625 411h8M616 412h1M618 412h1M621 412h2M625 412h1M617 413h1M619 413h1M627 413h1M629 413h1M630 415h1" />
<path stroke="#ab7ce1" d="M624 410h2M627 410h1M621 411h1M623 411h2M620 412h1M623 412h2M626 412h7M611 413h1M613 413h1M615 413h1M620 413h7M628 413h1M630 413h3M612 414h1M614 414h1M616 414h1M618 414h15M611 415h1M613 415h1M615 415h1M617 415h13M631 415h2M611 416h22M611 417h22" />
<path stroke="#e7efee" d="M618 413h1M614 415h1M616 415h1M611 419h22M612 420h20M613 421h18M620 427h4M620 428h4M620 429h4M619 431h7M622 433h3M627 433h2M606 434h2M610 434h1M622 434h3M628 434h1M607 435h1M624 436h1" />
<path stroke="#aa7de1" d="M604 433h7M617 433h4M634 433h8M611 434h10M630 434h5M615 435h6M630 435h5M606 436h1M611 437h2M633 437h2M606 438h1M611 438h1M613 438h1M632 438h1M634 438h1M611 439h2M633 439h2M606 440h1M611 440h1M613 440h1M632 440h1M634 440h1M611 441h2M633 441h2M606 442h1M611 442h1M613 442h1M632 442h1M634 442h1M612 443h1M633 443h1M606 444h1M611 444h1" />
<path stroke="#e7f0ef" d="M625 433h2M604 434h1M608 434h2M625 434h2M604 435h3M608 435h7M622 435h6M604 436h1M622 436h2M626 436h1M628 436h1M609 437h2M616 437h3M626 437h1M628 437h1M635 437h2M622 438h1" />
<path stroke="#e6f0ef" d="M627 434h1M628 435h1M625 436h1M627 436h1M604 437h2M614 437h2M619 437h2M622 437h4M627 437h1M631 437h2M637 437h1M604 438h1M608 438h1M623 438h6M604 439h2M608 439h1M622 439h7M604 440h1M608 440h1M623 440h5M604 441h2M608 441h1M624 441h3M604 442h1M608 442h1M625 442h1M604 443h2M608 443h1M604 444h1M608 444h1M604 445h2M608 445h1M604 446h1M608 446h1M604 447h2M608 447h1M604 448h1M608 448h1M604 449h2M608 449h1M604 450h1M608 450h1M604 451h2M608 451h1M604 452h1M608 452h1M608 453h1" />
<path stroke="#cec3c3" d="M635 434h5M641 434h1M635 435h7M605 436h1M607 436h1M638 436h4M606 437h1M608 437h1M613 437h1M630 437h1M639 437h3M612 438h1M615 438h1M617 438h1M620 438h1M630 438h2M636 438h2M639 438h2M606 439h1M613 439h1M615 439h1M617 439h1M631 439h2M637 439h1M614 440h1M630 441h1" />
<path stroke="#cec4c4" d="M605 438h1M609 438h2M614 438h1M616 438h1M618 438h2M633 438h1M635 438h1M641 438h1M610 439h1M614 439h1M616 439h1M618 439h3M630 439h1M635 439h2M639 439h2M609 440h1M612 440h1M615 440h1M617 440h2M620 440h1M629 440h3M635 440h3M639 440h3M616 441h3M629 441h1M635 441h1M621 442h1M641 442h1" />
<path stroke="#161753" d="M621 438h1M629 438h1M642 438h1M607 439h1M621 439h1M629 439h1M642 439h1M603 440h1M607 440h1M622 440h1M628 440h1M638 440h1M642 440h1M603 441h1M607 441h1M609 441h1M623 441h1M627 441h1M636 441h1M638 441h1M642 441h1M603 442h1M607 442h1M624 442h1M626 442h1M638 442h1M642 442h1M603 443h1M607 443h1M625 443h1M638 443h1M642 443h1M603 444h1M607 444h1M638 444h1M642 444h1M603 445h1M607 445h1M609 445h1M636 445h1M638 445h1M642 445h1M603 446h1M607 446h1M638 446h1M642 446h1M603 447h1M607 447h1M638 447h1M642 447h1M603 448h1M607 448h1M609 448h1M636 448h1M638 448h1M642 448h1M603 449h1M607 449h1M638 449h1M642 449h1M603 450h1M607 450h1M638 450h1M642 450h1M603 451h1M607 451h1M638 451h1M642 451h1M603 452h1M607 452h1M609 452h1M636 452h1M638 452h1M642 452h1M603 453h1M607 453h1M638 453h1M642 453h1M603 454h1M607 454h1M638 454h1M642 454h1M603 455h1M607 455h1M638 455h1M642 455h1M603 456h1M607 456h1M609 456h1M636 456h1M638 456h1M642 456h1M603 457h1M607 457h1M638 457h1M642 457h1M603 458h1M607 458h1M638 458h1M642 458h1M603 459h1M607 459h1M638 459h1M642 459h1M603 460h1M607 460h1M638 460h1M642 460h1M603 461h1M607 461h1M638 461h1M642 461h1M603 462h1M607 462h1M638 462h1M642 462h1M603 463h1M608 463h30M642 463h1M603 464h1M642 464h1M603 465h1M642 465h1M603 466h1M603 467h1M613 467h1M621 467h1M633 467h1M607 468h1" />
<path stroke="#cdc4c4" d="M609 439h1M641 439h1M605 440h1M610 440h1M616 440h1M619 440h1M621 440h1M633 440h1M606 441h1M610 441h1M613 441h3M619 441h4M628 441h1M631 441h2M637 441h1M639 441h3M605 442h1M609 442h2M612 442h1M614 442h7M622 442h2M627 442h5M633 442h1M635 442h3M639 442h2M606 443h1M609 443h2M613 443h12M626 443h7M635 443h3M639 443h3M605 444h1M609 444h2M612 444h1M614 444h18M633 444h1M635 444h3M639 444h3M606 445h1M610 445h1M613 445h20M635 445h1M637 445h1M639 445h3M605 446h1M609 446h2M612 446h1M614 446h18M633 446h1M635 446h3M639 446h3M606 447h1M609 447h2M613 447h20M635 447h3M639 447h3M605 448h1M610 448h1M612 448h1M614 448h18M633 448h1M635 448h1M637 448h1M639 448h3M606 449h1M609 449h2M613 449h20M635 449h3M639 449h3M605 450h1M609 450h2M612 450h1M614 450h18M633 450h1M635 450h3M639 450h3M606 451h1M609 451h2M613 451h20M635 451h3M639 451h3M605 452h1M612 452h1M614 452h17M633 452h1M635 452h1M637 452h1M639 452h2M606 453h1M609 453h2M613 453h3M617 453h3M622 453h8M631 453h2M635 453h2M640 453h1M610 454h1M612 454h1M619 454h3M624 454h1M626 454h1M629 454h1M631 454h1M637 454h1M619 455h1M629 455h1" />
<path stroke="#a97de1" d="M611 443h1M634 443h1M613 444h1M632 444h1M634 444h1M611 445h2M633 445h2M606 446h1M611 446h1M613 446h1M632 446h1M634 446h1M611 447h2M633 447h2M606 448h1M611 448h1M613 448h1M632 448h1M634 448h1M611 449h2M633 449h2M606 450h1M611 450h1M613 450h1M632 450h1M634 450h1M611 451h2M633 451h2M606 452h1M611 452h1M613 452h1M634 452h1M611 453h2" />
<path stroke="#ccc4c4" d="M610 452h1M631 452h1M641 452h1M616 453h1M620 453h2M630 453h1M637 453h1M639 453h1M641 453h1M605 454h1M609 454h1M614 454h5M622 454h2M625 454h1M627 454h2M630 454h1M633 454h1M635 454h2M639 454h3M606 455h1M609 455h2M613 455h6M620 455h9M630 455h3M635 455h3M639 455h3M605 456h1M610 456h1M612 456h1M614 456h18M633 456h1M635 456h1M637 456h1M639 456h3M606 457h1M609 457h2M613 457h20M635 457h3M639 457h3M605 458h1M609 458h2M612 458h1M614 458h18M633 458h1M635 458h3M639 458h3M606 459h1M609 459h2M613 459h20M635 459h3M639 459h3M605 460h1M609 460h2M612 460h1M614 460h18M633 460h1M635 460h3M639 460h3M606 461h1M609 461h2M613 461h20M635 461h3M639 461h3M605 462h1M609 462h2M612 462h1M614 462h18M633 462h1M635 462h3M639 462h3M607 463h1M638 463h1M640 463h2M605 464h16M622 464h2M626 464h3M630 464h3M634 464h3M638 464h4M612 465h1M616 465h1M618 465h2M621 465h1M628 465h1M631 465h1M638 465h1" />
<path stroke="#aa7ee1" d="M632 452h1M633 453h2M606 454h1M611 454h1M613 454h1M632 454h1M634 454h1M611 455h2M633 455h2M611 456h1M632 456h1M634 456h1" />
<path stroke="#e5f0ef" d="M604 453h2M604 454h1M608 454h1M604 455h2M608 455h1M604 456h1M608 456h1M604 457h2M608 457h1M604 458h1M608 458h1M604 459h2M608 459h1M604 460h1M608 460h1M604 461h2M608 461h1M604 462h1M608 462h1M604 463h2M604 464h1M604 465h2M604 466h1M606 466h28M604 467h1M606 467h4" />
<path stroke="#a97ee1" d="M606 456h1M613 456h1M611 457h2M633 457h2M606 458h1M611 458h1M613 458h1M632 458h1M634 458h1M611 459h2M633 459h2M606 460h1M611 460h1M613 460h1M632 460h1M634 460h1M611 461h2M633 461h2M606 462h1M611 462h1M613 462h1M632 462h1M634 462h1M606 463h1" />
<path stroke="#cac4c4" d="M639 463h1M621 464h1M624 464h2M629 464h1M633 464h1M637 464h1M606 465h1M608 465h4M613 465h1M615 465h1M617 465h1M620 465h1M622 465h3M626 465h2M629 465h2M632 465h6M639 465h3M636 466h4M641 466h1M634 467h1" />
<path stroke="#cbc5c5" d="M607 465h1M614 465h1M625 465h1M634 466h2M635 467h7" />
<path stroke="#161754" d="M605 466h1M640 466h1M642 466h1M610 467h3M614 467h7M622 467h11M642 467h1M603 468h4M608 468h2M634 468h9" />
<path stroke="#e4f0ef" d="M605 467h1" />
</svg>