<svg xmlns="http://www.w3.org/2000/svg" viewBox="0 -0.5 960 600" shape-rendering="crispEdges">
<metadata>Made with Pixels to Svg https://codepen.io/shshaw/pen/XbxvNj</metadata>
<path stroke="#161751" d="M616 327h16M613 328h3M632 328h3M611 329h2M635 329h3M609 330h2M638 330h3M607 331h2M641 331h3M605 332h2M644 332h2M603 333h2M646 333h2M601 334h2M648 334h2M599 335h2M650 335h1M598 336h1M650 336h1M597 337h1M649 337h1M596 338h1M646 338h3M595 339h1M643 339h3M593 340h2M640 340h3M592 341h1M594 341h1M600 341h1M638 341h2M592 342h1M594 342h1M599 342h1M636 342h3M592 343h1M594 343h1M598 343h1M634 343h5M592 344h1M594 344h1M632 344h7M592 345h1M594 345h1M601 345h10M630 345h9M592 346h1M594 346h1M601 346h1M610 346h1M629 346h10M592 347h1M594 347h1M601 347h2M609 347h2M628 347h11M592 348h1M594 348h1M601 348h1M603 348h1M608 348h1M610 348h1M627 348h12M592 349h1M594 349h1M601 349h1M604 349h1M607 349h1M610 349h1M626 349h13M592 350h1M594 350h1M601 350h1M605 350h2M610 350h1M626 350h13M592 351h1M594 351h1M601 351h1M610 351h1M625 351h14M592 352h1M594 352h1M601 352h10M625 352h14M592 353h1M594 353h1M624 353h15M592 354h1M594 354h1M624 354h32M592 355h1M594 355h1M623 355h16M655 355h1M592 356h1M594 356h1M623 356h16M654 356h1M592 357h1M594 357h1M622 357h17M653 357h1M592 358h1M594 358h1M621 358h18M652 358h1M592 359h1M594 359h2M619 359h33M592 360h1M594 360h1M596 360h1M617 360h22M592 361h1M594 361h1M597 361h1M615 361h2M618 361h21M644 361h9M592 362h1M594 362h1M598 362h1M613 362h2M617 362h22M641 362h3M653 362h3M592 363h1M594 363h1M599 363h2M611 363h2M616 363h1M637 363h1M641 363h1M643 363h1M653 363h1M655 363h1M592 364h1M594 364h1M601 364h2M609 364h2M615 364h1M637 364h5M643 364h1M653 364h1M655 364h1M592 365h3M603 365h2M607 365h2M614 365h1M637 365h1M641 365h1M643 365h1M653 365h1M655 365h1M593 366h1M605 366h2M613 366h1M637 366h1M641 366h1M643 366h1M653 366h1M655 366h1M594 367h1M612 367h1M637 367h1M641 367h1M643 367h1M653 367h1M655 367h1M595 368h1M611 368h1M637 368h1M641 368h1M643 368h1M653 368h1M655 368h1M596 369h1M610 369h2M637 369h1M641 369h1M643 369h1M653 369h1M655 369h1M597 370h1M609 370h1M611 370h1M637 370h1M641 370h1M643 370h1M653 370h1M655 370h1M598 371h2M607 371h3M611 371h1M637 371h5M643 371h1M653 371h1M655 371h1M600 372h2M605 372h2M609 372h1M611 372h1M637 372h1M641 372h3M653 372h3M602 373h3M609 373h1M611 373h1M633 373h5M643 373h1M652 373h1M602 374h1M609 374h1M611 374h1M632 374h1M644 374h8M602 375h1M609 375h1M611 375h1M631 375h1M602 376h1M609 376h1M611 376h1M631 376h1M602 377h1M609 377h1M611 377h1M631 377h1M602 378h1M609 378h1M611 378h21M602 379h1M609 379h1M617 379h6M602 380h1M609 380h1M617 380h6M602 381h1M609 381h1M617 381h14M602 382h1M608 382h1M617 382h7M631 382h1M602 383h1M607 383h1M617 383h7M632 383h1M602 384h1M606 384h1M617 384h7M633 384h1M602 385h1M605 385h1M618 385h7M634 385h1M602 386h3M619 386h7M635 386h1M619 387h17M619 388h7M619 389h5M625 389h1M619 390h7M618 391h2M628 391h1M617 392h3M626 392h3M617 393h3M626 393h1" />
<path stroke="#faa1c7" d="M616 328h16M613 329h22M611 330h27M609 331h32M607 332h37M605 333h41M603 334h45M601 335h3M605 335h1M607 335h1M609 335h1M611 335h1M613 335h37M599 336h4M604 336h1M606 336h1M608 336h1M610 336h1M612 336h1M614 336h1M616 336h34M598 337h2M611 337h1M613 337h1M615 337h1M617 337h32M612 338h1M614 338h1M616 338h1M618 338h28M615 339h1M617 339h1M619 339h24M616 340h1M618 340h1M620 340h20M593 341h1M617 341h1M619 341h1M621 341h17M593 342h1M618 342h1M620 342h1M622 342h14M593 343h1M621 343h13M618 344h1M620 344h1M622 344h10M621 345h9M618 346h1M620 346h1M622 346h7M621 347h7M618 348h1M620 348h1M622 348h5M621 349h5M618 350h1M620 350h1M622 350h4M619 351h1M621 351h4M618 352h1M620 352h5M617 353h1M619 353h5M618 354h6M617 355h1M619 355h4M639 355h16M616 356h1M618 356h5M615 357h1M617 357h5M616 358h5M615 359h4M614 360h3M613 361h2M644 363h8" />
<path stroke="#e9efef" d="M604 335h1M606 335h1M608 335h1M610 335h1M612 335h1M603 336h1M605 336h1M607 336h1M609 336h1M611 336h1M613 336h1M615 336h1M600 337h11M612 337h1M614 337h1M616 337h1M597 338h15M613 338h1M615 338h1M617 338h1M596 339h19M616 339h1M618 339h1M595 340h21M617 340h1M619 340h1M595 341h5M601 341h16M618 341h1M620 341h1M595 342h4M600 342h18M619 342h1M621 342h1M595 343h3M599 343h22M595 344h23M619 344h1M621 344h1M595 345h6M611 345h10M595 346h6M611 346h7M619 346h1M621 346h1M595 347h6M611 347h10M595 348h6M611 348h7M619 348h1M621 348h1M595 349h6M611 349h10M595 350h6M611 350h7M619 350h1M621 350h1M595 351h6M611 351h8M620 351h1M595 352h6M611 352h7M619 352h1M595 353h22M618 353h1M595 354h23M595 355h22M618 355h1M595 356h21M617 356h1M639 356h15M595 357h20M616 357h1M595 358h21M596 359h19M597 360h17M598 361h15M599 362h14M601 363h10M642 363h1M603 364h6M642 364h1M644 364h9M605 365h2M642 365h1M644 365h9M644 366h9M644 367h9" />
<path stroke="#f73e44" d="M593 344h1M593 345h1M593 346h1M602 346h8M593 347h1M603 347h6M593 348h1M602 348h1M604 348h3M609 348h1M593 349h1M602 349h2M605 349h2M608 349h2M593 350h1M602 350h3M607 350h3M593 351h1M602 351h8M593 352h1M593 353h1M593 354h1M593 355h1M593 356h1M593 357h1M593 358h1M593 359h1M593 360h1M595 360h1M593 361h1M595 361h2M617 361h1M593 362h1M595 362h3M615 362h2M593 363h1M595 363h4M613 363h3M593 364h1M595 364h6M611 364h4M595 365h8M609 365h5M594 366h11M607 366h6M595 367h17M596 368h15M597 369h13M598 370h11M600 371h7M602 372h3M620 391h6M620 392h6M612 400h22M612 401h22M612 402h22" />
<path stroke="#f7193c" d="M669 349h3M669 350h11M657 352h8M696 353h2M657 354h8M680 354h4M696 354h2M656 355h3M662 355h3M670 355h4M680 355h1M683 355h1M655 356h4M661 356h13M680 356h4M654 357h5M661 357h4M653 358h4M661 358h4M661 359h4M666 359h1M689 359h1M691 360h8M691 361h8M652 363h1M657 363h8M675 363h4M691 363h8M656 364h4M664 364h2M674 364h9M656 365h3M665 365h3M674 365h9M656 366h3M665 366h3M674 366h9M656 367h3M661 367h3M665 367h10M679 367h10M695 367h4M706 367h3M656 368h3M661 368h3M665 368h10M684 368h4M695 368h4M706 368h3M656 369h3M661 369h3M665 369h10M677 369h1M684 369h4M695 369h1M697 369h2M706 369h3M656 370h4M665 370h8M695 370h4M659 371h14M718 372h1M700 373h1M700 374h1M641 380h4M646 380h1M631 381h6M641 381h4M634 382h5M641 382h3M635 383h4M641 383h7M660 383h4M636 384h3M642 384h3M660 384h1M663 384h1M637 385h8M660 385h4" />
<path stroke="#f71f4d" d="M674 354h4M659 355h3M665 355h5M677 356h1M665 357h3M665 358h1M658 359h3M648 380h4M655 380h2M648 381h2M655 381h2M632 382h2M644 382h6M633 383h2M648 383h1M634 384h2M650 384h1M635 385h2" />
<path stroke="#ad7be0" d="M639 357h14M617 363h20M616 364h21M615 365h13M629 365h8M654 365h1M614 366h2M617 366h11M629 366h4M635 366h2M642 366h1M654 366h1M613 367h2M616 367h12M629 367h8M642 367h1M654 367h1M642 368h1M645 368h2M648 368h2M654 368h1M642 369h1M654 369h1" />
<path stroke="#6830e3" d="M639 358h13M638 365h3M638 366h3M638 367h3M612 368h25M638 368h3M612 369h25M638 369h3M644 369h9M612 370h25M638 370h3M644 370h9M612 371h25M644 371h9M607 372h2M612 372h25M644 372h9M605 373h4M612 373h21M644 373h8M603 374h6M612 374h20M603 375h6M612 375h19M603 376h6M612 376h19M603 377h6M612 377h19M603 378h6M603 379h6M603 380h6M603 381h6M603 382h5M603 383h4M603 384h3M603 385h2M626 386h9" />
<path stroke="#faaace" d="M644 362h9M654 363h1M654 364h1" />
<path stroke="#ac7be0" d="M628 365h1M616 366h1M628 366h1M633 366h2M615 367h1M628 367h1M644 368h1M647 368h1M650 368h3M642 370h1M654 370h1M642 371h1M654 371h1M624 382h7M624 383h2M627 383h5M625 384h1M627 384h6M631 385h1" />
<path stroke="#ac7ce0" d="M626 383h1M624 384h1M626 384h1M625 385h6M632 385h2M616 394h14M624 395h1M626 395h1M628 395h3M625 396h1M627 396h1M629 396h3M626 397h1M628 397h1M630 397h3M627 398h1M629 398h1M631 398h3M627 404h1M629 404h5M626 405h1M628 405h3M632 405h2M625 406h1M630 406h1M632 406h2M624 407h1M627 407h1M631 407h2M625 408h1M627 408h1M629 408h1" />
<path stroke="#161752" d="M624 389h1M617 391h1M626 391h2M616 393h1M620 393h6M627 393h3M615 394h1M630 394h1M614 395h1M631 395h1M613 396h1M632 396h1M612 397h2M633 397h1M611 398h2M634 398h1M611 399h24M611 400h1M634 400h1M611 401h1M634 401h1M611 402h1M634 402h1M611 403h24M611 404h1M634 404h1M611 405h1M634 405h1M611 406h1M634 406h1M611 407h1M634 407h1M611 408h1M634 408h1M611 409h1M634 409h1M611 410h1M634 410h1M611 411h1M634 411h1M611 412h1M634 412h1M611 413h1M634 413h1M611 414h1M634 414h1M611 415h1M634 415h1M611 416h1M634 416h1M611 417h1M634 417h1M611 418h24M611 419h1M634 419h1M612 420h1M633 420h1M613 421h1M632 421h1M614 422h18M620 423h6M620 424h6M620 425h6M620 426h6M620 427h1M625 427h1M620 428h1M625 428h1M620 429h1M625 429h1M619 430h8M618 431h2M627 431h2M604 432h8M617 432h14M635 432h9M604 433h1M612 433h6M622 433h1M630 433h5M643 433h1M604 434h1M606 434h1M622 434h1M630 434h1M641 434h1M643 434h1M604 435h1M622 435h1M630 435h1M643 435h1M604 436h1M609 436h14M630 436h9M643 436h1M604 437h1M608 437h1M622 437h1M630 437h1M639 437h1M643 437h1M604 438h1M622 438h1M630 438h1M639 438h1M643 438h1M608 439h1M643 439h1M623 440h1" />
<path stroke="#faa2c8" d="M615 395h9M625 395h1M627 395h1M614 396h5M614 397h4M613 398h4M612 404h3M612 405h2M612 406h1" />
<path stroke="#e8efee" d="M619 396h6M626 396h1M628 396h1M618 397h8M627 397h1M629 397h1M617 398h10M628 398h1M630 398h1M615 404h12M628 404h1M614 405h12M627 405h1M613 406h12M626 406h1M612 407h12M625 407h1M612 408h11M624 408h1M612 409h10M623 409h1M612 410h7M620 410h1M622 410h1M612 411h6M619 411h1M621 411h1M612 412h5M618 412h1M620 412h1M613 413h1M615 413h1M617 413h1M619 413h1M612 414h1M616 414h1M613 415h1" />
<path stroke="#ab7ce0" d="M631 405h1M627 406h3M631 406h1M626 407h1M628 407h3M633 407h1M623 408h1M626 408h1M628 408h1M630 408h4M622 409h1M624 409h10M619 410h1M621 410h1M623 410h1M626 410h1M628 410h6M618 411h1M620 411h1M622 411h1M625 411h8M617 412h1M619 412h1M621 412h2M625 412h1M633 412h1M627 413h1M629 413h1M630 415h1" />
<path stroke="#ab7ce1" d="M624 410h2M627 410h1M623 411h2M633 411h1M623 412h2M626 412h7M612 413h1M614 413h1M616 413h1M618 413h1M620 413h7M628 413h1M630 413h4M613 414h1M615 414h1M617 414h1M619 414h15M612 415h1M614 415h1M616 415h1M618 415h12M631 415h3M612 416h22M612 417h22" />
<path stroke="#e7efee" d="M614 414h1M618 414h1M615 415h1M617 415h1M612 419h22M613 420h20M614 421h18M621 427h4M621 428h4M621 429h4M620 431h7M623 433h2M627 433h3M607 434h1M610 434h2M623 434h2M628 434h1M607 435h1M624 436h1" />
<path stroke="#aa7de1" d="M605 433h7M618 433h4M635 433h8M612 434h10M631 434h5M616 435h6M631 435h5M607 436h1M612 437h2M634 437h2M607 438h1M612 438h1M614 438h1M633 438h1M635 438h1M612 439h2M634 439h2M607 440h1M612 440h1M614 440h1M633 440h1M635 440h1M612 441h2M634 441h2M607 442h1M612 442h1M614 442h1M633 442h1M635 442h1M612 443h2M635 443h1" />
<path stroke="#e7f0ef" d="M625 433h2M605 434h1M608 434h2M625 434h2M629 434h1M605 435h2M608 435h8M623 435h5M629 435h1M623 436h1M626 436h1M628 436h2M610 437h1M616 437h3M621 437h1M626 437h1M628 437h1M636 437h1" />
<path stroke="#e6f0ef" d="M627 434h1M628 435h1M605 436h1M625 436h1M627 436h1M605 437h2M611 437h1M615 437h1M619 437h2M623 437h3M627 437h1M629 437h1M632 437h2M637 437h2M605 438h1M609 438h1M623 438h7M605 439h2M609 439h1M623 439h7M605 440h1M609 440h1M624 440h5M605 441h2M609 441h1M625 441h3M605 442h1M609 442h1M626 442h1M605 443h2M609 443h1M605 444h1M609 444h1M605 445h2M609 445h1M605 446h1M609 446h1M605 447h2M609 447h1M605 448h1M609 448h1M605 449h2M609 449h1M605 450h1M609 450h1M605 451h2M609 451h1M605 452h1M609 452h1M606 453h1M609 453h1" />
<path stroke="#cec3c3" d="M636 434h5M642 434h1M636 435h7M606 436h1M608 436h1M639 436h4M607 437h1M609 437h1M614 437h1M631 437h1M640 437h3M606 438h1M611 438h1M615 438h1M617 438h1M620 438h1M631 438h2M636 438h3M640 438h1M615 439h1M617 439h1M631 439h3M637 439h2M613 440h1M632 440h1M630 441h1" />
<path stroke="#161753" d="M608 438h1M604 439h1M622 439h1M630 439h1M639 439h1M604 440h1M608 440h1M629 440h1M639 440h1M643 440h1M604 441h1M608 441h1M610 441h1M624 441h1M628 441h1M637 441h1M639 441h1M643 441h1M604 442h1M608 442h1M625 442h1M627 442h1M639 442h1M643 442h1M604 443h1M608 443h1M626 443h1M639 443h1M643 443h1M604 444h1M608 444h1M639 444h1M643 444h1M604 445h1M608 445h1M610 445h1M637 445h1M639 445h1M643 445h1M604 446h1M608 446h1M639 446h1M643 446h1M604 447h1M608 447h1M639 447h1M643 447h1M604 448h1M608 448h1M610 448h1M637 448h1M639 448h1M643 448h1M604 449h1M608 449h1M639 449h1M643 449h1M604 450h1M608 450h1M639 450h1M643 450h1M604 451h1M608 451h1M639 451h1M643 451h1M604 452h1M608 452h1M610 452h1M637 452h1M639 452h1M643 452h1M604 453h1M608 453h1M639 453h1M643 453h1M604 454h1M608 454h1M639 454h1M643 454h1M604 455h1M608 455h1M639 455h1M643 455h1M604 456h1M608 456h1M610 456h1M637 456h1M639 456h1M643 456h1M604 457h1M608 457h1M639 457h1M643 457h1M604 458h1M608 458h1M639 458h1M643 458h1M604 459h1M608 459h1M639 459h1M643 459h1M604 460h1M608 460h1M639 460h1M643 460h1M604 461h1M608 461h1M639 461h1M643 461h1M604 462h1M608 462h1M639 462h1M643 462h1M604 463h1M609 463h30M643 463h1M604 464h1M643 464h1M604 465h1M643 465h1M604 466h1M641 466h1M613 467h1M621 467h1M633 467h2M607 468h1" />
<path stroke="#cec4c4" d="M610 438h1M613 438h1M616 438h1M618 438h2M621 438h1M634 438h1M641 438h2M607 439h1M610 439h2M614 439h1M616 439h1M618 439h4M636 439h1M640 439h1M642 439h1M606 440h1M611 440h1M615 440h1M617 440h2M620 440h1M630 440h2M636 440h3M640 440h3M607 441h1M616 441h3M629 441h1M621 442h1M624 442h1M641 442h1" />
<path stroke="#cdc4c4" d="M641 439h1M610 440h1M616 440h1M619 440h1M621 440h2M634 440h1M611 441h1M614 441h2M619 441h5M631 441h3M636 441h1M638 441h1M640 441h3M606 442h1M610 442h2M613 442h1M615 442h6M622 442h2M628 442h5M634 442h1M636 442h3M640 442h1M642 442h1M607 443h1M610 443h2M614 443h12M627 443h7M636 443h3M640 443h3M606 444h1M610 444h2M613 444h1M615 444h18M634 444h1M636 444h3M640 444h3M607 445h1M611 445h1M614 445h20M636 445h1M638 445h1M640 445h3M606 446h1M610 446h2M613 446h1M615 446h18M634 446h1M636 446h3M640 446h3M607 447h1M610 447h2M614 447h20M636 447h3M640 447h3M606 448h1M611 448h1M613 448h1M615 448h18M634 448h1M636 448h1M638 448h1M640 448h3M607 449h1M610 449h2M614 449h20M636 449h3M640 449h3M606 450h1M610 450h2M613 450h1M615 450h18M634 450h1M636 450h3M640 450h3M607 451h1M610 451h2M614 451h20M636 451h3M640 451h3M606 452h1M611 452h1M613 452h1M615 452h16M634 452h1M636 452h1M638 452h1M640 452h1M642 452h1M607 453h1M610 453h2M614 453h2M617 453h3M622 453h8M631 453h2M636 453h1M640 453h1M610 454h1M619 454h3M624 454h1M626 454h1M629 454h1M631 454h1M637 454h1M619 455h1M629 455h1" />
<path stroke="#a97de1" d="M634 443h1M607 444h1M612 444h1M614 444h1M633 444h1M635 444h1M612 445h2M634 445h2M607 446h1M612 446h1M614 446h1M633 446h1M635 446h1M612 447h2M634 447h2M607 448h1M612 448h1M614 448h1M633 448h1M635 448h1M612 449h2M634 449h2M607 450h1M612 450h1M614 450h1M633 450h1M635 450h1M612 451h2M634 451h2M607 452h1M612 452h1M614 452h1M633 452h1M635 452h1M612 453h2M635 453h1M612 454h1" />
<path stroke="#ccc4c4" d="M631 452h2M641 452h1M616 453h1M620 453h2M630 453h1M633 453h1M637 453h2M641 453h2M606 454h1M611 454h1M613 454h1M615 454h4M622 454h2M625 454h1M627 454h2M630 454h1M632 454h1M634 454h1M636 454h1M638 454h1M640 454h3M607 455h1M610 455h2M614 455h5M620 455h9M630 455h4M636 455h3M640 455h3M606 456h1M611 456h1M613 456h1M615 456h18M634 456h1M636 456h1M638 456h1M640 456h3M607 457h1M610 457h2M614 457h20M636 457h3M640 457h3M606 458h1M610 458h2M613 458h1M615 458h18M634 458h1M636 458h3M640 458h3M607 459h1M610 459h2M614 459h20M636 459h3M640 459h3M606 460h1M610 460h2M613 460h1M615 460h18M634 460h1M636 460h3M640 460h3M607 461h1M610 461h2M614 461h20M636 461h3M640 461h3M606 462h1M610 462h2M613 462h1M615 462h18M634 462h1M636 462h3M640 462h3M608 463h1M640 463h3M606 464h15M622 464h2M626 464h3M630 464h3M634 464h3M638 464h5M612 465h1M616 465h1M618 465h2M621 465h1M628 465h1M631 465h1M638 465h1" />
<path stroke="#e5f0ef" d="M605 453h1M605 454h1M609 454h1M605 455h2M609 455h1M605 456h1M609 456h1M605 457h2M609 457h1M605 458h1M609 458h1M605 459h2M609 459h1M605 460h1M609 460h1M605 461h2M609 461h1M605 462h1M609 462h1M605 463h2M605 464h1M605 465h2M605 466h1M607 466h28M606 467h5" />
<path stroke="#aa7ee1" d="M634 453h1M607 454h1M614 454h1M633 454h1M635 454h1M612 455h2M634 455h2M607 456h1M612 456h1M614 456h1M635 456h1M635 457h1" />
<path stroke="#a97ee1" d="M633 456h1M612 457h2M634 457h1M607 458h1M612 458h1M614 458h1M633 458h1M635 458h1M612 459h2M634 459h2M607 460h1M612 460h1M614 460h1M633 460h1M635 460h1M612 461h2M634 461h2M607 462h1M612 462h1M614 462h1M633 462h1M635 462h1M607 463h1" />
<path stroke="#cac4c4" d="M639 463h1M621 464h1M624 464h2M629 464h1M633 464h1M637 464h1M608 465h4M613 465h1M615 465h1M617 465h1M620 465h1M622 465h3M626 465h2M629 465h2M632 465h6M639 465h4M636 466h4" />
<path stroke="#cbc5c5" d="M607 465h1M614 465h1M625 465h1M635 466h1M640 466h1M642 466h1M635 467h8" />
<path stroke="#161754" d="M606 466h1M643 466h1M604 467h1M611 467h2M614 467h7M622 467h11M643 467h1M604 468h3M608 468h3M635 468h9" />
<path stroke="#e4f0ef" d="M605 467h1" />
</svg>