<svg xmlns="http://www.w3.org/2000/svg" viewBox="0 -0.5 960 600" shape-rendering="crispEdges">
<metadata>Made with Pixels to Svg https://codepen.io/shshaw/pen/XbxvNj</metadata>
<path stroke="#161751" d="M615 330h16M612 331h3M631 331h3M610 332h2M634 332h3M608 333h2M637 333h3M606 334h2M640 334h3M604 335h2M643 335h2M602 336h2M645 336h2M600 337h2M647 337h2M598 338h2M649 338h1M597 339h1M649 339h1M596 340h1M648 340h1M595 341h1M645 341h3M594 342h1M642 342h3M592 343h2M639 343h3M591 344h1M593 344h1M599 344h1M637 344h2M591 345h1M593 345h1M598 345h1M635 345h3M591 346h1M593 346h1M597 346h1M633 346h5M591 347h1M593 347h1M631 347h7M591 348h1M593 348h1M600 348h10M629 348h9M591 349h1M593 349h1M600 349h1M609 349h1M628 349h10M591 350h1M593 350h1M600 350h2M608 350h2M627 350h11M591 351h1M593 351h1M600 351h1M602 351h1M607 351h1M609 351h1M626 351h12M591 352h1M593 352h1M600 352h1M603 352h1M606 352h1M609 352h1M625 352h13M591 353h1M593 353h1M600 353h1M604 353h2M609 353h1M625 353h13M591 354h1M593 354h1M600 354h1M609 354h1M624 354h14M591 355h1M593 355h1M600 355h10M624 355h14M591 356h1M593 356h1M623 356h15M591 357h1M593 357h1M623 357h32M591 358h1M593 358h1M622 358h16M654 358h1M591 359h1M593 359h1M622 359h16M653 359h1M591 360h1M593 360h1M621 360h17M652 360h1M591 361h1M593 361h1M620 361h18M651 361h1M591 362h1M593 362h2M618 362h33M591 363h1M593 363h1M595 363h1M616 363h22M591 364h1M593 364h1M596 364h1M614 364h2M617 364h21M643 364h9M591 365h1M593 365h1M597 365h1M612 365h2M616 365h22M640 365h3M652 365h3M591 366h1M593 366h1M598 366h2M610 366h2M615 366h1M636 366h1M640 366h1M642 366h1M652 366h1M654 366h1M591 367h1M593 367h1M600 367h2M608 367h2M614 367h1M636 367h5M642 367h1M652 367h1M654 367h1M591 368h3M602 368h2M606 368h2M613 368h1M636 368h1M640 368h1M642 368h1M652 368h1M654 368h1M592 369h1M604 369h2M612 369h1M636 369h1M640 369h1M642 369h1M652 369h1M654 369h1M593 370h1M611 370h1M636 370h1M640 370h1M642 370h1M652 370h1M654 370h1M594 371h1M610 371h1M636 371h1M640 371h1M642 371h1M652 371h1M654 371h1M595 372h1M609 372h2M636 372h1M640 372h1M642 372h1M652 372h1M654 372h1M596 373h1M608 373h1M610 373h1M636 373h1M640 373h1M642 373h1M652 373h1M654 373h1M597 374h2M606 374h3M610 374h1M636 374h5M642 374h1M652 374h1M654 374h1M599 375h2M604 375h2M608 375h1M610 375h1M636 375h1M640 375h3M652 375h3M601 376h3M608 376h1M610 376h1M632 376h5M642 376h1M651 376h1M601 377h1M608 377h1M610 377h1M631 377h1M643 377h8M601 378h1M608 378h1M610 378h1M630 378h1M601 379h1M608 379h1M610 379h1M630 379h1M601 380h1M608 380h1M610 380h1M630 380h1M601 381h1M608 381h1M610 381h21M601 382h1M608 382h1M616 382h6M601 383h1M608 383h1M616 383h6M601 384h1M608 384h1M616 384h14M601 385h1M607 385h1M616 385h7M630 385h1M601 386h1M606 386h1M616 386h7M631 386h1M601 387h1M605 387h1M616 387h7M632 387h1M601 388h1M604 388h1M617 388h7M633 388h1M601 389h3M618 389h6M634 389h1M618 390h17M618 391h7M618 392h2M618 393h2M617 394h1M627 396h1" />
<path stroke="#faa1c7" d="M615 331h16M612 332h22M610 333h27M608 334h32M606 335h37M604 336h41M602 337h45M600 338h3M604 338h1M606 338h1M608 338h1M610 338h1M612 338h37M598 339h4M603 339h1M605 339h1M607 339h1M609 339h1M611 339h1M613 339h1M615 339h34M597 340h2M610 340h1M612 340h1M614 340h1M616 340h32M611 341h1M613 341h1M615 341h1M617 341h28M614 342h1M616 342h1M618 342h24M615 343h1M617 343h1M619 343h20M592 344h1M616 344h1M618 344h1M620 344h17M592 345h1M617 345h1M619 345h1M621 345h14M592 346h1M620 346h13M617 347h1M619 347h1M621 347h10M620 348h9M617 349h1M619 349h1M621 349h7M620 350h7M617 351h1M619 351h1M621 351h5M620 352h5M617 353h1M619 353h1M621 353h4M618 354h1M620 354h4M617 355h1M619 355h5M616 356h1M618 356h5M617 357h6M616 358h1M618 358h4M638 358h16M615 359h1M617 359h5M614 360h1M616 360h5M615 361h5M614 362h4M613 363h3M612 364h2M643 366h9" />
<path stroke="#e9efef" d="M603 338h1M605 338h1M607 338h1M609 338h1M611 338h1M602 339h1M604 339h1M606 339h1M608 339h1M610 339h1M612 339h1M614 339h1M599 340h11M611 340h1M613 340h1M615 340h1M596 341h15M612 341h1M614 341h1M616 341h1M595 342h19M615 342h1M617 342h1M594 343h21M616 343h1M618 343h1M594 344h5M600 344h16M617 344h1M619 344h1M594 345h4M599 345h18M618 345h1M620 345h1M594 346h3M598 346h22M594 347h23M618 347h1M620 347h1M594 348h6M610 348h10M594 349h6M610 349h7M618 349h1M620 349h1M594 350h6M610 350h10M594 351h6M610 351h7M618 351h1M620 351h1M594 352h6M610 352h10M594 353h6M610 353h7M618 353h1M620 353h1M594 354h6M610 354h8M619 354h1M594 355h6M610 355h7M618 355h1M594 356h22M617 356h1M594 357h23M594 358h22M617 358h1M594 359h21M616 359h1M638 359h15M594 360h20M615 360h1M594 361h21M595 362h19M596 363h17M597 364h15M598 365h14M600 366h10M641 366h1M602 367h6M641 367h1M643 367h9M604 368h2M641 368h1M643 368h9M643 369h9M643 370h9" />
<path stroke="#f73e44" d="M592 347h1M592 348h1M592 349h1M601 349h8M592 350h1M602 350h6M592 351h1M601 351h1M603 351h3M608 351h1M592 352h1M601 352h2M604 352h2M607 352h2M592 353h1M601 353h3M606 353h3M592 354h1M601 354h8M592 355h1M592 356h1M592 357h1M592 358h1M592 359h1M592 360h1M592 361h1M592 362h1M592 363h1M594 363h1M592 364h1M594 364h2M616 364h1M592 365h1M594 365h3M614 365h2M592 366h1M594 366h4M612 366h3M592 367h1M594 367h6M610 367h4M594 368h8M608 368h5M593 369h11M606 369h6M594 370h17M595 371h15M596 372h13M597 373h11M599 374h7M601 375h3M619 394h6M619 395h6M611 403h12M624 403h9M611 404h17M629 404h3M612 405h5M619 405h2M625 405h1M630 405h1" />
<path stroke="#f71f4d" d="M674 352h5M688 355h1M677 356h1M663 357h5M673 357h4M658 358h3M664 358h5M673 358h4M658 359h2M673 359h4M658 360h1M664 360h3M655 361h4M664 361h1M657 362h3M688 367h2M672 369h4M673 370h3M678 370h7M673 371h3M679 371h5M663 373h1M652 381h5M647 383h5M654 383h6M636 384h5M644 384h5M654 384h6M631 385h2M637 385h2M643 385h6M632 386h2M638 386h1M647 386h1M652 386h1M663 386h2M633 387h2M638 387h4M649 387h1M664 387h1M634 388h2M663 388h2" />
<path stroke="#f7193c" d="M674 353h5M658 355h6M695 356h2M661 357h2M679 357h4M695 357h2M655 358h3M661 358h3M669 358h4M679 358h1M682 358h1M654 359h4M660 359h13M679 359h4M653 360h5M661 360h3M652 361h3M661 361h3M661 362h3M665 362h1M688 362h1M689 363h3M696 363h8M689 364h15M656 366h8M674 366h5M696 366h8M655 367h10M673 367h9M686 367h2M710 367h2M655 368h12M671 368h11M686 368h2M694 368h4M710 368h2M655 369h4M663 369h9M676 369h6M684 369h4M694 369h1M697 369h1M655 370h4M660 370h2M663 370h10M676 370h2M685 370h3M694 370h4M706 370h2M655 371h4M660 371h2M663 371h10M676 371h3M684 371h3M694 371h4M706 371h2M655 372h4M660 372h2M663 372h11M683 372h4M706 372h2M655 373h4M664 373h8M675 373h4M680 373h1M703 373h1M658 374h14M717 375h1M699 376h1M666 377h1M699 377h1M645 383h1M630 384h6M641 384h3M633 385h4M640 385h3M634 386h4M640 386h7M662 386h1M635 387h3M642 387h2M662 387h1M636 388h8M662 388h1" />
<path stroke="#ad7be0" d="M638 360h14M617 366h11M629 366h4M635 366h1M616 367h12M629 367h7M614 368h1M616 368h4M621 368h1M623 368h3M628 368h8M653 368h1M614 369h6M623 369h2M628 369h2M632 369h4M615 370h4M620 370h1M628 370h4M641 371h1M644 371h1M648 371h1M651 371h1" />
<path stroke="#6830e3" d="M638 361h13M637 368h3M637 369h3M637 370h3M611 371h25M637 371h3M611 372h25M637 372h3M643 372h9M611 373h25M637 373h3M643 373h9M611 374h25M643 374h9M606 375h2M611 375h25M643 375h9M604 376h4M611 376h21M643 376h8M602 377h6M611 377h20M602 378h6M611 378h19M602 379h6M611 379h19M602 380h6M611 380h19M602 381h6M602 382h6M602 383h6M602 384h6M602 385h5M602 386h4M602 387h3M602 388h2M625 389h9" />
<path stroke="#faaace" d="M643 365h9M653 366h1M653 367h1" />
<path stroke="#ac7be0" d="M616 366h1M628 366h1M633 366h2M615 367h1M628 367h1M615 368h1M620 368h1M622 368h1M626 368h2M613 369h1M620 369h3M625 369h3M630 369h2M641 369h1M653 369h1M612 370h3M619 370h1M621 370h7M632 370h4M641 370h1M653 370h1M643 371h1M645 371h3M649 371h2M653 371h1M641 372h1M653 372h1M641 373h1M653 373h1M641 374h1M653 374h1M623 385h1M624 388h1" />
<path stroke="#ac7ce0" d="M624 385h6M623 386h8M623 387h9M625 388h8M615 397h14M623 398h1M625 398h1M627 398h3M624 399h1M626 399h1M628 399h3M625 400h1M627 400h1M629 400h3M626 401h1M628 401h1M630 401h3M631 407h2M625 408h1M627 408h1M629 408h1" />
<path stroke="#161752" d="M624 389h1M620 392h5M620 393h5M616 394h1M618 394h1M625 394h3M616 395h3M625 395h3M615 396h12M628 396h1M614 397h1M629 397h1M613 398h1M630 398h1M612 399h1M631 399h1M611 400h2M632 400h1M610 401h2M633 401h1M610 402h24M610 403h1M633 403h1M610 404h1M633 404h1M610 405h1M633 405h1M610 406h24M610 407h1M633 407h1M610 408h1M633 408h1M610 409h1M633 409h1M610 410h1M633 410h1M610 411h1M633 411h1M610 412h1M633 412h1M610 413h1M633 413h1M610 414h1M633 414h1M610 415h1M633 415h1M610 416h1M633 416h1M610 417h1M633 417h1M610 418h1M633 418h1M610 419h1M633 419h1M610 420h1M633 420h1M610 421h24M610 422h1M633 422h1M611 423h1M632 423h1M612 424h1M631 424h1M613 425h18M619 426h6M619 427h6M619 428h6M619 429h6M619 430h1M624 430h1M619 431h1M624 431h1M619 432h1M624 432h1M618 433h8M617 434h2M626 434h2M603 435h8M616 435h14M634 435h9M603 436h1M611 436h6M621 436h1M629 436h5M642 436h1M603 437h1M605 437h1M621 437h1M629 437h1M640 437h1M642 437h1M603 438h1M603 439h1M608 439h1M612 439h2M615 439h1M617 439h1M631 439h4M637 439h1" />
<path stroke="#faa2c8" d="M614 398h9M624 398h1M626 398h1M613 399h5M613 400h4M612 401h4M611 407h3M611 408h2M611 409h1" />
<path stroke="#e8efee" d="M618 399h6M625 399h1M627 399h1M617 400h8M626 400h1M628 400h1M616 401h10M627 401h1M629 401h1M614 407h12M627 407h1M613 408h12M626 408h1M612 409h12M625 409h1M611 410h12M624 410h1M611 411h11M623 411h1M611 412h10M622 412h1M611 413h7M619 413h1M621 413h1M611 414h3M615 414h2M611 415h3" />
<path stroke="#f73f45" d="M623 403h1M628 404h1M632 404h1M611 405h1M617 405h2M621 405h4M626 405h4M631 405h2" />
<path stroke="#ab7ce0" d="M626 407h1M628 407h3M628 408h1M630 408h3M624 409h1M626 409h7M623 410h1M626 410h1M628 410h5M622 411h1M625 411h8M621 412h1M625 412h1M627 413h1M629 413h1M630 415h1" />
<path stroke="#ab7ce1" d="M625 410h1M627 410h1M624 411h1M623 412h2M626 412h7M618 413h1M620 413h1M622 413h5M628 413h1M630 413h3M617 414h1M619 414h1M621 414h12M616 415h1M618 415h1M620 415h10M631 415h2M611 416h1M613 416h1M615 416h1M617 416h1M619 416h14M612 417h1M614 417h1M616 417h1M618 417h15M611 418h1M613 418h1M615 418h1M617 418h16M611 419h22M611 420h22" />
<path stroke="#e7efee" d="M614 414h1M618 414h1M620 414h1M614 415h2M617 415h1M619 415h1M612 416h1M614 416h1M616 416h1M618 416h1M611 417h1M613 417h1M615 417h1M617 417h1M612 418h1M614 418h1M616 418h1M611 422h22M612 423h20M613 424h18M620 430h4M620 431h4M620 432h4M619 434h1M621 434h4M624 436h1" />
<path stroke="#e7f0ef" d="M620 434h1M625 434h1M622 436h2M626 436h1M628 436h1M608 437h3M626 437h1M628 437h1M622 438h1" />
<path stroke="#aa7de1" d="M604 436h7M617 436h4M634 436h8M611 437h10M630 437h5M615 438h6M630 438h5M606 439h1M611 440h2M633 440h2M606 441h1M611 441h1M613 441h1M632 441h1M634 441h1M611 442h2M633 442h2M606 443h1M613 443h1M632 443h1M611 444h1" />
<path stroke="#e6f0ef" d="M625 436h1M627 436h1M604 437h1M606 437h2M622 437h4M627 437h1M604 438h11M623 438h6M604 439h1M622 439h7M604 440h2M609 440h2M614 440h7M622 440h7M631 440h2M635 440h3M604 441h1M608 441h1M622 441h7M604 442h2M608 442h1M622 442h7M604 443h1M608 443h1M623 443h5M604 444h2M608 444h1M624 444h3M604 445h1M608 445h1M625 445h1M604 446h2M608 446h1M604 447h1M608 447h1M604 448h2M608 448h1M604 449h1M608 449h1M604 450h2M608 450h1M604 451h1M608 451h1M604 452h2M608 452h1M608 453h1" />
<path stroke="#cec3c3" d="M635 437h5M641 437h1M636 438h5M638 439h1M613 440h1M630 441h1" />
<path stroke="#161753" d="M621 438h1M629 438h1M642 438h1M609 439h3M614 439h1M616 439h1M618 439h4M629 439h2M635 439h2M642 439h1M603 440h1M607 440h1M621 440h1M629 440h1M638 440h1M642 440h1M603 441h1M607 441h1M621 441h1M629 441h1M638 441h1M642 441h1M603 442h1M607 442h1M621 442h1M629 442h1M638 442h1M642 442h1M603 443h1M607 443h1M622 443h1M628 443h1M638 443h1M642 443h1M603 444h1M607 444h1M609 444h1M623 444h1M627 444h1M636 444h1M638 444h1M642 444h1M603 445h1M607 445h1M624 445h1M626 445h1M638 445h1M642 445h1M603 446h1M607 446h1M625 446h1M638 446h1M642 446h1M603 447h1M607 447h1M638 447h1M642 447h1M603 448h1M607 448h1M609 448h1M636 448h1M638 448h1M642 448h1M603 449h1M607 449h1M638 449h1M642 449h1M603 450h1M607 450h1M638 450h1M642 450h1M603 451h1M607 451h1M609 451h1M636 451h1M638 451h1M642 451h1M603 452h1M607 452h1M638 452h1M642 452h1M603 453h1M607 453h1M638 453h1M642 453h1M603 454h1M607 454h1M638 454h1M642 454h1M603 455h1M607 455h1M609 455h1M636 455h1M638 455h1M642 455h1M603 456h1M607 456h1M638 456h1M642 456h1M603 457h1M607 457h1M638 457h1M642 457h1M603 458h1M607 458h1M638 458h1M642 458h1M603 459h1M607 459h1M609 459h1M636 459h1M638 459h1M642 459h1M603 460h1M607 460h1M638 460h1M642 460h1M603 461h1M607 461h1M638 461h1M642 461h1M603 462h1M607 462h1M638 462h1M642 462h1M603 463h1M607 463h1M638 463h1M642 463h1M603 464h1M607 464h1M638 464h1M642 464h1M603 465h1M638 465h1M642 465h1M603 466h1M608 466h3M612 466h1M614 466h3M619 466h2M623 466h3M628 466h1M630 466h1M632 466h1M636 466h2M603 467h1" />
<path stroke="#cec4c4" d="M635 438h1M641 438h1M605 439h1M607 439h1M639 439h2M606 440h1M630 440h1M639 440h3M616 441h3M635 441h1M641 442h1" />
<path stroke="#cdc4c4" d="M641 439h1M608 440h1M605 441h1M609 441h2M612 441h1M614 441h2M619 441h2M631 441h1M633 441h1M636 441h2M639 441h3M606 442h1M609 442h2M613 442h8M630 442h3M635 442h3M639 442h2M605 443h1M609 443h2M612 443h1M614 443h8M629 443h3M633 443h1M635 443h3M639 443h3M606 444h1M610 444h1M613 444h10M628 444h5M635 444h1M637 444h1M639 444h3M605 445h1M609 445h2M612 445h1M614 445h10M627 445h5M633 445h1M635 445h3M639 445h3M606 446h1M609 446h2M613 446h12M626 446h7M635 446h3M639 446h3M605 447h1M609 447h2M612 447h1M614 447h18M633 447h1M635 447h3M639 447h3M606 448h1M610 448h1M613 448h20M635 448h1M637 448h1M639 448h3M605 449h1M609 449h2M612 449h1M614 449h18M633 449h1M635 449h3M639 449h3M606 450h1M609 450h2M613 450h20M635 450h3M639 450h3M605 451h1M610 451h1M612 451h1M614 451h18M633 451h1M635 451h1M637 451h1M639 451h3M606 452h1M609 452h1M613 452h18M635 452h3M639 452h2M609 453h2M612 453h1M614 453h2M617 453h3M622 453h8M631 453h1M635 453h2M640 453h1M610 454h1M619 454h3M624 454h1M626 454h1M629 454h1M631 454h1M637 454h1M619 455h1M629 455h1" />
<path stroke="#a97de1" d="M611 443h1M634 443h1M612 444h1M633 444h2M606 445h1M611 445h1M613 445h1M632 445h1M634 445h1M611 446h2M633 446h2M606 447h1M611 447h1M613 447h1M632 447h1M634 447h1M611 448h2M633 448h2M606 449h1M611 449h1M613 449h1M632 449h1M634 449h1M611 450h2M633 450h2M606 451h1M611 451h1M613 451h1M632 451h1M634 451h1M611 452h2M633 452h2M606 453h1M611 453h1M613 453h1M632 453h1M612 454h1" />
<path stroke="#ccc4c4" d="M610 452h1M631 452h2M641 452h1M605 453h1M616 453h1M620 453h2M630 453h1M633 453h1M637 453h1M639 453h1M641 453h1M606 454h1M609 454h1M613 454h6M622 454h2M625 454h1M627 454h2M630 454h1M632 454h1M635 454h2M639 454h3M605 455h1M610 455h1M612 455h1M614 455h5M620 455h9M630 455h2M633 455h1M635 455h1M637 455h1M639 455h3M606 456h1M609 456h2M613 456h20M635 456h3M639 456h3M605 457h1M609 457h2M612 457h1M614 457h18M633 457h1M635 457h3M639 457h3M606 458h1M609 458h2M613 458h20M635 458h3M639 458h3M605 459h1M610 459h1M612 459h1M614 459h18M633 459h1M635 459h1M637 459h1M639 459h3M606 460h1M609 460h2M613 460h20M635 460h3M639 460h3M605 461h1M609 461h2M612 461h1M614 461h18M633 461h1M635 461h3M639 461h3M606 462h1M609 462h2M613 462h20M635 462h3M639 462h3M605 463h1M609 463h2M612 463h1M614 463h8M623 463h9M633 463h1M635 463h3M640 463h2M606 464h1M609 464h2M613 464h8M622 464h2M626 464h3M630 464h3M635 464h2M639 464h3M612 465h1M616 465h1M618 465h2M621 465h1M628 465h1M631 465h1" />
<path stroke="#e5f0ef" d="M604 453h1M604 454h2M608 454h1M604 455h1M608 455h1M604 456h2M608 456h1M604 457h1M608 457h1M604 458h2M608 458h1M604 459h1M608 459h1M604 460h2M608 460h1M604 461h1M608 461h1M604 462h2M608 462h1M604 463h1M608 463h1M604 464h2M608 464h1M604 465h1M608 465h1M604 466h2M604 467h1M605 468h1M610 469h1" />
<path stroke="#aa7ee1" d="M634 453h1M611 454h1M633 454h2M606 455h1M611 455h1M613 455h1M632 455h1M634 455h1M611 456h2M634 456h1M606 457h1M632 457h1" />
<path stroke="#a97ee1" d="M633 456h1M611 457h1M613 457h1M634 457h1M611 458h2M633 458h2M606 459h1M611 459h1M613 459h1M632 459h1M634 459h1M611 460h2M633 460h2M606 461h1M611 461h1M613 461h1M632 461h1M634 461h1M611 462h2M633 462h2M606 463h1M611 463h1M613 463h1M612 464h1" />
<path stroke="#cac4c4" d="M622 463h1M639 463h1M621 464h1M624 464h2M629 464h1M637 464h1M605 465h1M609 465h2M615 465h1M617 465h1M620 465h1M622 465h3M626 465h2M629 465h2M633 465h1M635 465h3M639 465h3M607 466h1M638 466h2M641 466h1M609 467h1M613 467h1M621 467h1M633 467h2M607 468h1" />
<path stroke="#a97ee2" d="M632 463h1M634 463h1M611 464h1M633 464h2M606 465h1M611 465h1M613 465h1M632 465h1M634 465h1M606 466h1" />
<path stroke="#161754" d="M607 465h1M611 466h1M613 466h1M617 466h2M621 466h2M626 466h2M629 466h1M631 466h1M633 466h3M642 466h1M642 467h1M603 468h1M642 468h1M603 469h1M605 469h1M640 469h1M642 469h1M603 470h1M610 470h24M642 470h1M603 471h7M634 471h9" />
<path stroke="#cbc5c5" d="M614 465h1M625 465h1M640 466h1M605 467h4M610 467h3M614 467h7M622 467h11M635 467h7M606 468h1M608 468h34M634 469h6M641 469h1M634 470h8" />
<path stroke="#e4f0ef" d="M604 468h1M604 469h1M606 469h4M611 469h23M604 470h6" />
</svg>