<svg xmlns="http://www.w3.org/2000/svg" viewBox="0 -0.5 960 600" shape-rendering="crispEdges">
<metadata>Made with Pixels to Svg https://codepen.io/shshaw/pen/XbxvNj</metadata>
<path stroke="#1e1415" d="M764 260h39M763 261h1M802 261h1M762 262h1M803 262h1M761 263h1M803 263h1M760 264h1M804 264h1M759 265h1M805 265h1M742 266h17M806 266h1M742 267h1M807 267h1M741 268h1M808 268h1M740 269h1M774 269h44M739 270h1M773 270h2M800 270h1M818 270h1M723 271h51M799 271h1M819 271h1M722 272h1M727 272h1M772 272h1M798 272h1M819 272h1M721 273h1M726 273h1M771 273h1M797 273h1M819 273h1M720 274h1M725 274h1M729 274h42M796 274h1M817 274h2M719 275h1M724 275h1M728 275h4M769 275h1M795 275h1M815 275h2M718 276h1M727 276h4M768 276h1M794 276h1M813 276h2M717 277h1M723 277h71M811 277h2M716 278h1M721 278h73M809 278h2M715 279h1M720 279h1M792 279h17M714 280h1M719 280h1M791 280h1M713 281h1M718 281h1M790 281h1M712 282h4M717 282h73" />
<path stroke="#151739" d="M764 261h38M763 262h40M762 263h41M761 264h43M760 265h45M759 266h47M743 267h64M742 268h66M741 269h33M740 270h33M721 279h71M720 280h71M719 281h71" />
<path stroke="#8f5cb8" d="M775 270h25M774 271h25M723 272h4M773 272h25M722 273h4M772 273h25M721 274h4M771 274h25M720 275h4M770 275h25M719 276h4M769 276h25M718 277h4M717 278h4M716 279h4M715 280h4M714 281h4" />
<path stroke="#aa76a0" d="M801 270h17M800 271h19M728 272h44M799 272h20M727 273h44M798 273h21M726 274h3M797 274h20M725 275h3M796 275h19M724 276h3M795 276h18M794 277h17M794 278h15" />
<path stroke="#35193d" d="M732 275h37M731 276h37" />
<path stroke="#541528" d="M723 276h1M722 277h1M716 282h1" />
</svg>