<svg xmlns="http://www.w3.org/2000/svg" viewBox="0 -0.5 1920 600" shape-rendering="crispEdges">
<metadata>Made with Pixels to Svg https://codepen.io/shshaw/pen/XbxvNj</metadata>
<path stroke="#6f45ad" d="M1741 89h3M1741 90h3M1736 94h3M1746 94h3M1736 95h3M1746 95h3M1736 96h3M1746 96h3M1741 99h3M1741 100h3" />
<path stroke="#a266f9" d="M1741 91h3M1055 92h3M1741 92h3M1055 93h3M1741 93h3M1055 94h3M1739 94h2M1744 94h2M1739 95h2M1744 95h2M1739 96h2M1744 96h2M1741 97h3M1741 98h3M1388 155h3M1388 156h3M1388 159h3M1388 160h3M1388 161h3M1381 162h2M1386 162h2M1391 162h2M1396 162h2M1381 163h2M1386 163h2M1391 163h2M1396 163h2M1381 164h2M1386 164h2M1391 164h2M1396 164h2M1388 165h3M1388 166h3M1388 170h3M1388 171h3" />
<path stroke="#e3a0fa" d="M1741 94h3M1741 95h3M1741 96h3M1388 162h3M1388 163h3M1388 164h3" />
</svg>