<svg xmlns="http://www.w3.org/2000/svg" viewBox="0 -0.5 1920 600" shape-rendering="crispEdges">
<metadata>Made with Pixels to Svg https://codepen.io/shshaw/pen/XbxvNj</metadata>
<path stroke="#a266f9" d="M1056 82h2M1056 83h2M1741 91h3M1046 92h2M1066 92h2M1741 92h3M1046 93h2M1066 93h2M1741 93h3M1046 94h2M1066 94h2M1738 94h9M1738 95h9M1738 96h9M1741 97h3M1741 98h3M1741 99h3M1056 102h2M1056 103h2M1056 104h2M1388 159h3M1388 160h3M1388 161h3M1386 162h2M1391 162h2M1386 163h2M1391 163h2M1386 164h2M1391 164h2M1388 165h3M1388 166h3" />
<path stroke="#e3a0fa" d="M1055 92h3M1055 93h3M1055 94h3M1388 162h3M1388 163h3M1388 164h3" />
<path stroke="#6f45ad" d="M1388 157h3M1388 158h3M1383 162h3M1393 162h3M1383 163h3M1393 163h3M1383 164h3M1393 164h3M1388 167h3M1388 168h3" />
</svg>