<svg xmlns="http://www.w3.org/2000/svg" viewBox="0 -0.5 1920 600" shape-rendering="crispEdges">
<metadata>Made with Pixels to Svg https://codepen.io/shshaw/pen/XbxvNj</metadata>
<path stroke="rgba(128,78,208,0.6)" d="M1055 90h3M1055 91h3M1053 92h2M1058 92h2M1741 92h3M1053 93h2M1058 93h2M1741 93h3M1053 94h2M1058 94h2M1739 94h2M1744 94h2M1055 95h3M1739 95h2M1744 95h2M1055 96h3M1739 96h2M1744 96h2M1741 97h3M1741 98h3M433 112h3M433 113h3M431 114h2M436 114h2M431 115h2M436 115h2M431 116h2M436 116h2M433 117h3M433 118h3M1388 160h3M1388 161h3M1386 162h2M1391 162h2M1386 163h2M1391 163h2M1386 164h2M1391 164h2M1388 165h3M1388 166h3M1190 216h3M1190 217h3M1188 218h2M1193 218h2M1188 219h2M1193 219h2M1188 220h2M1193 220h2M1190 221h3M1190 222h3M234 286h3M234 287h3M232 288h2M237 288h2M232 289h2M237 289h2M232 290h2M237 290h2M234 291h3M234 292h3" />
<path stroke="rgba(182,107,218,0.6)" d="M1055 92h3M1055 93h3M1055 94h3M1741 94h3M1741 95h3M1741 96h3M433 114h3M433 115h3M433 116h3M1388 162h3M1388 163h3M1388 164h3M1190 218h3M1190 219h3M1190 220h3M234 288h3M234 289h3M234 290h3" />
</svg>