<svg xmlns="http://www.w3.org/2000/svg" viewBox="0 -0.5 1920 600" shape-rendering="crispEdges">
<metadata>Made with Pixels to Svg https://codepen.io/shshaw/pen/XbxvNj</metadata>
<path stroke="#a266f9" d="M1055 85h3M1055 86h3M1055 89h3M1055 90h3M1055 91h3M1048 92h2M1053 92h2M1058 92h2M1063 92h2M1048 93h2M1053 93h2M1058 93h2M1063 93h2M1048 94h2M1053 94h2M1058 94h2M1063 94h2M1741 94h3M1055 95h3M1741 95h3M1055 96h3M1741 96h3M1055 100h3M1055 101h3M1388 159h3M1388 160h3M1388 161h3M1385 162h9M1385 163h9M1385 164h9M1388 165h3M1388 166h3M1388 167h3" />
<path stroke="#e3a0fa" d="M1055 92h3M1055 93h3M1055 94h3" />
</svg>