<svg xmlns="http://www.w3.org/2000/svg" viewBox="0 -0.5 1920 600" shape-rendering="crispEdges">
<metadata>Made with Pixels to Svg https://codepen.io/shshaw/pen/XbxvNj</metadata>
<path stroke="#a266f9" d="M1742 84h2M1742 85h2M1055 89h3M1055 90h3M1055 91h3M1053 92h2M1058 92h2M1053 93h2M1058 93h2M1053 94h2M1058 94h2M1732 94h2M1752 94h2M1055 95h3M1732 95h2M1752 95h2M1055 96h3M1732 96h2M1752 96h2M1742 104h2M1742 105h2M1742 106h2M1388 162h3M1388 163h3M1388 164h3" />
<path stroke="#6f45ad" d="M1055 87h3M1055 88h3M1050 92h3M1060 92h3M1050 93h3M1060 93h3M1050 94h3M1060 94h3M1055 97h3M1055 98h3" />
<path stroke="#e3a0fa" d="M1055 92h3M1055 93h3M1055 94h3M1741 94h3M1741 95h3M1741 96h3" />
</svg>