<svg xmlns="http://www.w3.org/2000/svg" viewBox="0 -0.5 1920 600" shape-rendering="crispEdges">
<metadata>Made with Pixels to Svg https://codepen.io/shshaw/pen/XbxvNj</metadata>
<path stroke="#a266f9" d="M1741 87h3M1741 88h3M1055 89h3M1055 90h3M1055 91h3M1741 91h3M1052 92h9M1741 92h3M1052 93h9M1741 93h3M1052 94h9M1734 94h2M1739 94h2M1744 94h2M1749 94h2M1055 95h3M1734 95h2M1739 95h2M1744 95h2M1749 95h2M1055 96h3M1734 96h2M1739 96h2M1744 96h2M1749 96h2M1055 97h3M1741 97h3M1741 98h3M1741 102h3M1741 103h3M1389 152h2M1389 153h2M1379 162h2M1399 162h2M1379 163h2M1399 163h2M1379 164h2M1399 164h2M1389 172h2M1389 173h2M1389 174h2" />
<path stroke="#e3a0fa" d="M1741 94h3M1741 95h3M1741 96h3M1388 162h3M1388 163h3M1388 164h3" />
</svg>