<svg xmlns="http://www.w3.org/2000/svg" viewBox="0 -0.5 1920 600" shape-rendering="crispEdges">
<metadata>Made with Pixels to Svg https://codepen.io/shshaw/pen/XbxvNj</metadata>
<path stroke="#a266f9" d="M433 114h3M433 115h3M433 116h3M1190 215h3M1190 216h3M1190 217h3M1188 218h2M1193 218h2M1188 219h2M1193 219h2M1188 220h2M1193 220h2M1190 221h3M1190 222h3M234 281h3M234 282h3M234 285h3M234 286h3M234 287h3M227 288h2M232 288h2M237 288h2M242 288h2M227 289h2M232 289h2M237 289h2M242 289h2M227 290h2M232 290h2M237 290h2M242 290h2M234 291h3M234 292h3M234 296h3M234 297h3" />
<path stroke="#6f45ad" d="M1190 213h3M1190 214h3M1185 218h3M1195 218h3M1185 219h3M1195 219h3M1185 220h3M1195 220h3M1190 223h3M1190 224h3" />
<path stroke="#e3a0fa" d="M1190 218h3M1190 219h3M1190 220h3M234 288h3M234 289h3M234 290h3" />
</svg>