<svg xmlns="http://www.w3.org/2000/svg" viewBox="0 -0.5 1920 600" shape-rendering="crispEdges">
<metadata>Made with Pixels to Svg https://codepen.io/shshaw/pen/XbxvNj</metadata>
<path stroke="#a266f9" d="M434 104h2M434 105h2M424 114h2M444 114h2M424 115h2M444 115h2M424 116h2M444 116h2M434 124h2M434 125h2M434 126h2M1190 215h3M1190 216h3M1190 217h3M1187 218h9M1187 219h9M1187 220h9M1190 221h3M1190 222h3M1190 223h3M234 285h3M234 286h3M234 287h3M232 288h2M237 288h2M232 289h2M237 289h2M232 290h2M237 290h2M234 291h3M234 292h3" />
<path stroke="#e3a0fa" d="M433 114h3M433 115h3M433 116h3M234 288h3M234 289h3M234 290h3" />
<path stroke="#6f45ad" d="M234 283h3M234 284h3M229 288h3M239 288h3M229 289h3M239 289h3M229 290h3M239 290h3M234 293h3M234 294h3" />
</svg>