<svg xmlns="http://www.w3.org/2000/svg" viewBox="0 -0.5 1920 600" shape-rendering="crispEdges">
<metadata>Made with Pixels to Svg https://codepen.io/shshaw/pen/XbxvNj</metadata>
<path stroke="#6f45ad" d="M433 109h3M433 110h3M428 114h3M438 114h3M428 115h3M438 115h3M428 116h3M438 116h3M433 119h3M433 120h3" />
<path stroke="#a266f9" d="M433 111h3M433 112h3M433 113h3M431 114h2M436 114h2M431 115h2M436 115h2M431 116h2M436 116h2M433 117h3M433 118h3M1191 208h2M1191 209h2M1181 218h2M1201 218h2M1181 219h2M1201 219h2M1181 220h2M1201 220h2M1191 228h2M1191 229h2M1191 230h2M234 288h3M234 289h3M234 290h3" />
<path stroke="#e3a0fa" d="M433 114h3M433 115h3M433 116h3M1190 218h3M1190 219h3M1190 220h3" />
</svg>