<svg xmlns="http://www.w3.org/2000/svg" viewBox="0 -0.5 1920 600" shape-rendering="crispEdges">
<metadata>Made with Pixels to Svg https://codepen.io/shshaw/pen/XbxvNj</metadata>
<path stroke="#a266f9" d="M433 107h3M433 108h3M433 111h3M433 112h3M433 113h3M426 114h2M431 114h2M436 114h2M441 114h2M426 115h2M431 115h2M436 115h2M441 115h2M426 116h2M431 116h2M436 116h2M441 116h2M433 117h3M433 118h3M433 122h3M433 123h3M1190 218h3M1190 219h3M1190 220h3M234 285h3M234 286h3M234 287h3M231 288h9M231 289h9M231 290h9M234 291h3M234 292h3M234 293h3" />
<path stroke="#e3a0fa" d="M433 114h3M433 115h3M433 116h3" />
</svg>