<svg xmlns="http://www.w3.org/2000/svg" viewBox="0 -0.5 1920 600" shape-rendering="crispEdges">
<metadata>Made with Pixels to Svg https://codepen.io/shshaw/pen/XbxvNj</metadata>
<path stroke="#a266f9" d="M433 111h3M433 112h3M433 113h3M430 114h9M430 115h9M430 116h9M433 117h3M433 118h3M433 119h3M1190 211h3M1190 212h3M1190 215h3M1190 216h3M1190 217h3M1183 218h2M1188 218h2M1193 218h2M1198 218h2M1183 219h2M1188 219h2M1193 219h2M1198 219h2M1183 220h2M1188 220h2M1193 220h2M1198 220h2M1190 221h3M1190 222h3M1190 226h3M1190 227h3M235 278h2M235 279h2M225 288h2M245 288h2M225 289h2M245 289h2M225 290h2M245 290h2M235 298h2M235 299h2M235 300h2" />
<path stroke="#e3a0fa" d="M1190 218h3M1190 219h3M1190 220h3M234 288h3M234 289h3M234 290h3" />
</svg>