<svg xmlns="http://www.w3.org/2000/svg" viewBox="0 -0.5 1920 600" shape-rendering="crispEdges">
<metadata>Made with Pixels to Svg https://codepen.io/shshaw/pen/XbxvNj</metadata>
<path stroke="#164b5b" d="M429 20h1M429 21h2M429 23h2M429 24h1M426 27h1M421 28h2M424 28h1" />
<path stroke="#164b5a" d="M430 20h1" />
<path stroke="#164b5c" d="M430 24h1M428 25h1M431 25h1M427 26h2M431 26h2M427 27h1M432 27h2M421 29h2M424 29h1M435 29h1M426 30h2M432 30h2M427 31h1M431 31h2M428 32h1M429 33h2M429 34h1" />
<path stroke="rgba(94,23,184,0.9019607843137255)" d="M676 24h1" />
<path stroke="rgba(95,23,185,0.9019607843137255)" d="M677 24h1" />
<path stroke="#347b88" d="M429 25h2M428 27h1M430 32h1" />
<path stroke="#7ec1c7" d="M429 26h1M427 28h1M427 29h2M429 31h2" />
<path stroke="#7ec0c7" d="M430 26h1M429 27h2M428 28h5M429 29h4M429 30h2" />
<path stroke="rgba(93,23,183,0.9019607843137255)" d="M676 26h2" />
<path stroke="#347a88" d="M431 27h1M433 28h1M434 29h1M431 30h1" />
<path stroke="rgba(94,23,183,0.9019607843137255)" d="M676 27h1" />
<path stroke="rgba(93,23,182,0.9019607843137255)" d="M677 27h1" />
<path stroke="#357b88" d="M425 28h2M425 29h2M429 32h1" />
<path stroke="#357a89" d="M434 28h1M433 29h1" />
<path stroke="#164b5e" d="M435 28h1" />
<path stroke="#164b5d" d="M437 28h2M437 29h2M428 31h1M431 32h1M430 34h1M429 36h2" />
<path stroke="rgba(94,23,182,0.9019607843137255)" d="M676 28h2" />
<path stroke="rgba(93,23,179,0.9019607843137255)" d="M675 29h1M674 30h2M678 30h1M681 31h1" />
<path stroke="rgba(146,62,230,0.9019607843137255)" d="M676 29h1" />
<path stroke="rgba(145,62,228,0.9019607843137255)" d="M677 29h1" />
<path stroke="rgba(93,23,181,0.9019607843137255)" d="M678 29h1" />
<path stroke="#357a88" d="M428 30h1" />
<path stroke="rgba(146,63,227,0.9019607843137255)" d="M676 30h2M678 31h2" />
<path stroke="rgba(93,23,176,0.9019607843137255)" d="M679 30h1" />
<path stroke="rgba(91,23,179,0.9019607843137255)" d="M669 31h1" />
<path stroke="rgba(92,23,175,0.9019607843137255)" d="M671 31h1M671 32h1" />
<path stroke="rgba(92,23,176,0.9019607843137255)" d="M672 31h1M669 32h1M672 32h1" />
<path stroke="rgba(145,63,227,0.9019607843137255)" d="M673 31h1" />
<path stroke="rgba(146,64,227,0.9019607843137255)" d="M674 31h1" />
<path stroke="rgba(146,63,226,0.9019607843137255)" d="M675 31h1M678 32h1M680 32h1" />
<path stroke="rgba(205,141,249,0.9019607843137255)" d="M676 31h2M676 32h2M676 33h2" />
<path stroke="rgba(147,63,227,0.9019607843137255)" d="M680 31h1" />
<path stroke="rgba(94,23,176,0.9019607843137255)" d="M682 31h1M684 31h1M681 32h1" />
<path stroke="rgba(145,64,227,0.9019607843137255)" d="M673 32h1" />
<path stroke="rgba(145,63,226,0.9019607843137255)" d="M674 32h1" />
<path stroke="rgba(145,64,226,0.9019607843137255)" d="M675 32h1" />
<path stroke="rgba(145,63,225,0.9019607843137255)" d="M679 32h1" />
<path stroke="rgba(93,23,175,0.9019607843137255)" d="M682 32h1M678 33h1" />
<path stroke="rgba(94,23,175,0.9019607843137255)" d="M684 32h1" />
<path stroke="rgba(94,23,174,0.9019607843137255)" d="M674 33h2M679 33h1" />
<path stroke="rgba(92,23,173,0.9019607843137255)" d="M675 34h1M678 34h1M676 36h2" />
<path stroke="rgba(144,64,223,0.9019607843137255)" d="M676 34h2M676 35h1" />
<path stroke="rgba(144,64,222,0.9019607843137255)" d="M677 35h1" />
<path stroke="rgba(92,23,171,0.9019607843137255)" d="M676 37h1" />
<path stroke="rgba(91,23,171,0.9019607843137255)" d="M677 37h1" />
<path stroke="rgba(91,23,169,0.9019607843137255)" d="M676 39h1" />
<path stroke="rgba(90,23,169,0.9019607843137255)" d="M677 39h1" />
<path stroke="rgba(74,24,214,0.8)" d="M1285 60h1" />
<path stroke="rgba(78,24,211,0.8)" d="M1286 60h1M1286 62h1M1286 63h1M1286 64h1" />
<path stroke="rgba(75,24,210,0.8)" d="M1285 62h1M1285 63h1M1283 69h1" />
<path stroke="rgba(78,24,210,0.8)" d="M1285 64h1M1284 65h1M1284 66h1M1290 67h1M1284 69h1M1284 70h1" />
<path stroke="rgba(123,70,241,0.8)" d="M1285 65h2M1285 66h2M1284 67h1" />
<path stroke="rgba(78,24,213,0.8)" d="M1287 65h1" />
<path stroke="rgba(75,24,209,0.8)" d="M1283 66h1" />
<path stroke="rgba(78,24,208,0.8)" d="M1287 66h1M1285 72h1" />
<path stroke="rgba(79,24,209,0.8)" d="M1288 66h1M1288 69h1M1286 73h1" />
<path stroke="rgba(73,24,214,0.8)" d="M1278 67h1" />
<path stroke="rgba(75,24,215,0.8)" d="M1280 67h1" />
<path stroke="rgba(74,24,211,0.8)" d="M1281 67h1M1280 68h2" />
<path stroke="rgba(121,71,241,0.8)" d="M1282 67h1M1282 68h1" />
<path stroke="rgba(121,70,241,0.8)" d="M1283 67h1M1283 68h2" />
<path stroke="rgba(186,154,246,0.8)" d="M1285 67h2M1285 68h1" />
<path stroke="rgba(123,69,241,0.8)" d="M1287 67h1M1285 70h1" />
<path stroke="rgba(123,69,243,0.8)" d="M1288 67h1M1287 68h2M1286 70h1M1285 71h2" />
<path stroke="rgba(125,70,243,0.8)" d="M1289 67h1M1289 68h1" />
<path stroke="rgba(80,24,210,0.8)" d="M1291 67h1" />
<path stroke="rgba(81,24,208,0.8)" d="M1293 67h1M1293 68h1" />
<path stroke="rgba(73,24,213,0.8)" d="M1278 68h1" />
<path stroke="rgba(186,153,246,0.8)" d="M1286 68h1M1285 69h2" />
<path stroke="rgba(79,24,208,0.8)" d="M1290 68h1M1287 69h1M1287 70h1M1286 72h1M1285 73h1M1285 75h1" />
<path stroke="rgba(80,24,208,0.8)" d="M1291 68h1" />
<path stroke="rgba(80,24,211,0.8)" d="M1286 75h1" />
<path stroke="#4f2173" d="M984 119h2M985 120h1M984 122h2M984 123h2M983 124h1M986 124h1M983 125h1M986 125h2M981 126h2M987 126h2M981 129h2M987 129h1M982 130h2M986 130h2M983 131h1M984 132h1" />
<path stroke="#522174" d="M984 120h1M982 125h1M979 127h1M979 128h1" />
<path stroke="#844ea0" d="M984 124h2M983 126h1M986 126h1M980 127h2M988 127h2M980 128h2M988 128h2M983 129h1M986 129h1M984 131h2" />
<path stroke="#cd91e1" d="M984 125h2M984 126h2M982 127h5M982 128h6M984 129h2M984 130h2" />
<path stroke="#522073" d="M976 127h2M976 128h2" />
<path stroke="#cc91e1" d="M987 127h1" />
<path stroke="#4e2173" d="M990 127h1M990 128h1M988 129h1M986 131h1M984 133h1M984 135h2" />
<path stroke="#4e2274" d="M992 127h2M992 128h2M985 132h1M985 133h1" />
<path stroke="#6e1b5d" d="M150 128h1M151 131h1M151 132h1M148 134h1" />
<path stroke="#6f1b5d" d="M151 128h1M150 132h1M149 134h1M150 141h1" />
<path stroke="#6e1b5b" d="M150 129h1M151 141h1M150 142h2M150 144h2" />
<path stroke="#6f1b5b" d="M151 129h1M152 133h1M152 134h1M152 139h1M152 140h1" />
<path stroke="#6f1b5e" d="M150 131h1" />
<path stroke="#6d1c5d" d="M149 133h1M147 135h1M145 137h1M147 138h1M149 140h1" />
<path stroke="#772665" d="M150 133h1M149 138h1" />
<path stroke="#792765" d="M151 133h1" />
<path stroke="#af5793" d="M150 134h1M150 135h1M149 136h1M149 137h1M151 139h1" />
<path stroke="#b05793" d="M151 134h1M151 135h1" />
<path stroke="#6f1c5a" d="M153 134h1M156 137h1M154 138h1" />
<path stroke="#5e1b77" d="M1530 134h1M1531 135h1" />
<path stroke="#5c1b77" d="M1531 134h1M1539 143h1" />
<path stroke="#6e1c5e" d="M148 135h1" />
<path stroke="#792666" d="M149 135h1" />
<path stroke="#7a2665" d="M152 135h1M152 138h1" />
<path stroke="#701b5b" d="M153 135h1" />
<path stroke="#6f1b5a" d="M154 135h1M153 138h1M153 139h1" />
<path stroke="#5d1b77" d="M1530 135h1M1538 143h1" />
<path stroke="#6b1c5f" d="M142 136h1M142 137h1" />
<path stroke="#6d1c5e" d="M143 136h1M143 137h1" />
<path stroke="#6e1b5e" d="M145 136h1" />
<path stroke="#772667" d="M146 136h1M146 137h1" />
<path stroke="#9f4b88" d="M147 136h1" />
<path stroke="#ae5793" d="M148 136h1M150 139h1" />
<path stroke="#e18ec1" d="M150 136h1" />
<path stroke="#e18dc1" d="M151 136h1M151 137h1" />
<path stroke="#af5792" d="M152 136h1M152 137h1" />
<path stroke="#af5692" d="M153 136h1" />
<path stroke="#a14b87" d="M154 136h1" />
<path stroke="#7a2664" d="M155 136h1M155 137h1" />
<path stroke="#6f1c59" d="M156 136h1" />
<path stroke="#6f1b59" d="M158 136h1" />
<path stroke="#6e1b58" d="M159 136h1M158 137h1" />
<path stroke="#9f4a89" d="M147 137h1" />
<path stroke="#ad5793" d="M148 137h1" />
<path stroke="#e18fc1" d="M150 137h1" />
<path stroke="#b05692" d="M153 137h1" />
<path stroke="#a24a87" d="M154 137h1" />
<path stroke="#6f1b58" d="M159 137h1" />
<path stroke="#5e1b76" d="M1530 137h1M1530 138h1M1532 140h1M1536 142h1" />
<path stroke="#5d1b76" d="M1531 137h1M1531 138h1M1532 139h1M1533 140h1M1534 141h1M1536 143h1" />
<path stroke="#6e1c5d" d="M148 138h1" />
<path stroke="#e18ec2" d="M150 138h1" />
<path stroke="#e18dc2" d="M151 138h1" />
<path stroke="#6d1c5b" d="M148 139h2" />
<path stroke="#601b76" d="M1529 139h1M1529 140h1M1533 141h1" />
<path stroke="#b03ab6" d="M1530 139h1" />
<path stroke="#af3ab5" d="M1531 139h1M1534 142h1M1534 143h2" />
<path stroke="#a14a88" d="M150 140h1" />
<path stroke="#a04a87" d="M151 140h1" />
<path stroke="#611a76" d="M1528 140h1" />
<path stroke="#d591d3" d="M1530 140h1M1531 141h1M1532 142h2" />
<path stroke="#d592d3" d="M1531 140h1M1532 143h2" />
<path stroke="#621a75" d="M1527 141h2" />
<path stroke="#b638b7" d="M1529 141h1" />
<path stroke="#d691d4" d="M1530 141h1M1531 142h1" />
<path stroke="#b039b6" d="M1532 141h1" />
<path stroke="#651a73" d="M1522 142h1M1522 143h2M1530 150h1" />
<path stroke="#651a74" d="M1523 142h1M1525 143h1" />
<path stroke="#641a74" d="M1525 142h1M1527 144h2M1528 145h1M1529 146h1M1530 147h1" />
<path stroke="#ba37b9" d="M1526 142h1M1530 146h1" />
<path stroke="#b937b8" d="M1527 142h1M1529 144h1M1531 146h1" />
<path stroke="#d891d3" d="M1528 142h2M1529 143h2M1530 144h2M1531 145h1" />
<path stroke="#d791d3" d="M1530 142h1M1531 143h1" />
<path stroke="#ac3bb3" d="M1535 142h1" />
<path stroke="#5c1b76" d="M1538 142h1" />
<path stroke="#5b1b77" d="M1539 142h1" />
<path stroke="#bb36b9" d="M1526 143h2" />
<path stroke="#d990d4" d="M1528 143h1M1530 145h1" />
<path stroke="#b539b7" d="M1532 144h1" />
<path stroke="#601b75" d="M1533 144h1M1533 145h1" />
<path stroke="#5e1b75" d="M1534 144h1" />
<path stroke="#621a74" d="M1529 145h1M1531 147h1M1531 148h1" />
<path stroke="#611a75" d="M1532 145h1" />
<path stroke="#611a74" d="M1532 146h1" />
<path stroke="#641a73" d="M1530 148h1M1531 150h1" />
</svg>