<svg xmlns="http://www.w3.org/2000/svg" viewBox="0 -0.5 1920 600" shape-rendering="crispEdges">
<metadata>Made with Pixels to Svg https://codepen.io/shshaw/pen/XbxvNj</metadata>
<path stroke="#80178d" d="M445 11h1M445 12h1M442 13h1M448 13h1M444 15h1M446 15h1M439 16h1M441 16h1M449 16h1M451 16h1M444 17h1M446 17h1M442 19h1M448 19h1M445 20h1M445 21h1M911 50h1M911 51h1M908 52h1M914 52h1M910 54h1M912 54h1M905 55h1M907 55h1M915 55h1M917 55h1M1420 55h1M910 56h1M912 56h1M1420 56h1M1417 57h1M1423 57h1M908 58h1M914 58h1M911 59h1M1419 59h1M1421 59h1M911 60h1M1414 60h1M1416 60h1M1424 60h1M1426 60h1M1419 61h1M1421 61h1M1417 63h1M1423 63h1M1420 64h1M1420 65h1M632 76h1M632 77h1M629 78h1M635 78h1M631 80h1M633 80h1M626 81h1M628 81h1M636 81h1M638 81h1M631 82h1M633 82h1M629 84h1M635 84h1M632 85h1M632 86h1M787 104h1M787 105h1M784 106h1M790 106h1M786 108h1M788 108h1M781 109h1M783 109h1M791 109h1M793 109h1M786 110h1M788 110h1M784 112h1M790 112h1M787 113h1M787 114h1M1257 116h1M1257 117h1M1254 118h1M1260 118h1M1693 119h1M1256 120h1M1258 120h1M1693 120h1M1251 121h1M1253 121h1M1261 121h1M1263 121h1M1690 121h1M1696 121h1M1256 122h1M1258 122h1M1692 123h1M1694 123h1M1254 124h1M1260 124h1M1687 124h1M1689 124h1M1697 124h1M1699 124h1M1257 125h1M1692 125h1M1694 125h1M1257 126h1M1690 127h1M1696 127h1M1693 128h1M1693 129h1M1152 161h1M1152 162h1M1149 163h1M1155 163h1M1151 165h1M1153 165h1M1146 166h1M1148 166h1M1156 166h1M1158 166h1M1151 167h1M1153 167h1M214 169h1M1149 169h1M1155 169h1M214 170h1M1152 170h1M211 171h1M217 171h1M1152 171h1M213 173h1M215 173h1M208 174h1M210 174h1M218 174h1M220 174h1M213 175h1M215 175h1M211 177h1M217 177h1M214 178h1M214 179h1M1546 205h1M1546 206h1M1543 207h1M1549 207h1M1545 209h1M1547 209h1M1540 210h1M1542 210h1M1550 210h1M1552 210h1M1545 211h1M1547 211h1M1543 213h1M1549 213h1M1546 214h1M1546 215h1" />
<path stroke="#651baa" d="M445 13h1M443 14h1M445 14h1M447 14h1M442 16h2M447 16h2M443 18h1M445 18h1M447 18h1M445 19h1M911 52h1M909 53h1M911 53h1M913 53h1M908 55h2M913 55h2M909 57h1M911 57h1M913 57h1M1420 57h1M911 58h1M1418 58h1M1420 58h1M1422 58h1M1417 60h2M1422 60h2M1418 62h1M1420 62h1M1422 62h1M1420 63h1M632 78h1M632 80h1M629 81h1M631 81h1M633 81h1M635 81h1M632 82h1M632 84h1M787 106h1M785 107h1M787 107h1M789 107h1M787 108h1M784 109h3M788 109h3M787 110h1M785 111h1M787 111h1M789 111h1M787 112h1M1257 118h1M1257 120h1M1254 121h1M1256 121h1M1258 121h1M1260 121h1M1693 121h1M1257 122h1M1693 123h1M1257 124h1M1690 124h1M1692 124h1M1694 124h1M1696 124h1M1693 125h1M1693 127h1M1152 163h1M1150 164h1M1152 164h1M1154 164h1M1152 165h1M1149 166h3M1153 166h3M1152 167h1M1150 168h1M1152 168h1M1154 168h1M1152 169h1M214 171h1M212 172h1M214 172h1M216 172h1M211 174h2M216 174h2M212 176h1M214 176h1M216 176h1M214 177h1M1546 207h1M1544 208h1M1546 208h1M1548 208h1M1543 210h2M1548 210h2M1544 212h1M1546 212h1M1548 212h1M1546 213h1" />
<path stroke="#535cd4" d="M445 15h1M444 16h3M445 17h1M911 54h1M910 55h3M911 56h1M1420 59h1M1419 60h3M1420 61h1M630 79h1M632 79h1M634 79h1M630 81h1M632 81h1M634 81h1M630 83h1M632 83h1M634 83h1M787 109h1M1255 119h1M1257 119h1M1259 119h1M1255 121h1M1257 121h1M1259 121h1M1691 122h1M1693 122h1M1695 122h1M1255 123h1M1257 123h1M1259 123h1M1691 124h1M1693 124h1M1695 124h1M1691 126h1M1693 126h1M1695 126h1M1152 166h1M214 173h1M213 174h3M214 175h1M1546 209h1M1545 210h3M1546 211h1" />
</svg>