<svg xmlns="http://www.w3.org/2000/svg" viewBox="0 -0.5 960 600" shape-rendering="crispEdges">
<metadata>Made with Pixels to Svg https://codepen.io/shshaw/pen/XbxvNj</metadata>
<path stroke="#9bbdd1" d="M525 0h1M64 4h1M619 24h1M163 27h1M562 30h1M201 56h1M349 56h1M184 118h1M595 126h1M619 142h1M58 175h1M504 199h1M268 209h1M323 235h1M71 238h1M601 241h1M453 242h1M501 243h1M581 311h1M283 341h1M522 346h1M595 363h1M134 367h1M689 387h1M233 390h1M632 393h1M271 419h1M419 419h1M567 451h1M320 453h1M254 481h1M665 489h1M514 491h1M451 499h1M689 505h1M362 513h1M481 533h1M128 538h1M479 557h1M574 562h1M338 572h1M393 598h1" />
<path stroke="#cd71a2" d="M668 1h1M196 13h1M818 13h1M874 15h1M921 21h1M455 23h1M474 23h1M541 30h1M781 30h1M927 32h1M538 45h1M397 48h1M394 51h1M719 56h1M136 58h1M443 62h1M185 66h1M393 72h1M487 80h1M563 86h1M279 87h1M593 90h1M810 94h1M811 95h1M912 95h1M751 104h1M658 106h1M174 116h1M118 121h1M280 121h1M737 126h1M466 134h1M144 138h1M620 140h1M554 143h1M841 144h1M214 149h1M631 156h1M115 157h1M309 160h1M148 162h1M847 167h1M757 173h1M212 174h1M624 178h1M85 181h1M809 182h1M302 187h1M573 187h1M350 192h1M451 197h1M530 197h1M249 199h1M915 199h1M656 205h1M401 207h1M625 208h1M423 210h1M745 211h1M590 215h1M213 217h1M742 218h1M212 219h1M514 219h1M928 219h1M214 220h1M486 221h1M194 222h1M154 223h1M210 225h1M256 229h1M890 230h1M420 232h1M833 233h1M244 235h1M184 240h1M920 241h1M751 245h1M383 247h1M898 249h1M332 250h1M442 251h1M793 252h1M907 259h1M569 263h1M511 268h1M155 271h1M660 271h1M163 273h1M659 273h1M837 276h1M777 282h1M283 283h1M778 285h1M238 286h1M382 294h1M580 302h1M885 316h1M851 329h1M697 331h1M920 354h1M738 364h1M266 376h1M888 376h1M944 378h1M525 386h1M544 386h1M611 393h1M851 393h1M608 408h1M467 411h1M464 414h1M789 419h1M206 421h1M513 425h1M255 429h1M463 435h1M532 436h1M557 443h1M742 446h1M525 448h1M633 449h1M349 450h1M663 453h1M880 457h1M881 458h1M487 465h1M821 467h1M728 469h1M685 470h1M244 479h1M188 484h1M350 484h1M807 489h1M508 496h1M388 497h1M536 497h1M214 501h1M552 502h1M690 503h1M624 506h1M911 507h1M316 510h2M284 512h1M333 515h1M607 517h1M701 519h1M185 520h1M419 521h1M457 522h1M379 523h1M477 524h1M218 525h1M917 530h1M827 536h1M282 537h1M694 541h1M155 544h1M879 545h1M950 549h1M372 550h1M643 550h1M420 555h1M521 560h1M600 560h1M319 562h1M726 568h1M471 570h1M695 571h1M493 573h1M660 578h1M812 581h1M584 582h1M556 584h1M264 585h1M224 586h1M326 592h1M490 595h1M903 596h1M314 598h1" />
<path stroke="#622c64" d="M516 7h1M493 43h1M90 47h1M95 58h1M349 70h1M150 71h1M182 74h1M76 76h1M22 77h1M90 84h1M22 88h1M348 88h1M186 89h1M862 120h1M917 121h1M810 125h1M140 131h1M149 133h1M55 140h1M101 142h1M201 145h1M152 149h1M138 150h1M21 151h1M741 167h1M150 172h1M190 173h1M101 176h1M0 188h1M167 194h1M339 198h1M474 211h1M58 212h1M382 217h1M736 219h1M209 220h1M734 220h1M112 231h1M154 231h1M44 241h1M100 241h1M423 260h1M586 370h1M563 406h1M160 410h1M165 421h1M419 433h1M220 434h1M252 437h1M528 437h1M146 439h1M92 440h1M160 447h1M92 451h1M418 451h1M256 452h1M296 477h1M318 483h1M932 483h1M589 488h1M880 488h1M444 490h1M210 494h1M219 496h1M125 503h1M171 505h1M271 508h1M584 511h1M222 512h1M208 513h1M91 514h1M444 526h1M485 528h1M400 530h1M811 530h1M220 535h1M260 536h1M171 539h1M70 551h1M237 557h1M409 561h1M544 574h1M128 575h1M452 580h1M806 582h1M279 583h1M804 583h1M182 594h1M224 594h1" />
<path stroke="#703246" d="M800 49h1M61 74h1M93 111h1M35 118h1M745 119h1M925 129h1M709 135h1M40 148h1M456 157h1M797 170h1M458 177h1M480 179h1M687 185h1M21 202h1M714 212h1M32 225h1M670 227h1M646 242h1M8 247h1M822 261h1M53 271h1M80 272h1M820 272h1M9 273h1M886 276h1M593 277h1M21 278h1M673 279h1M894 285h1M529 286h1M479 287h1M570 288h1M673 289h1M870 412h1M131 437h1M163 474h1M105 481h1M815 482h1M605 492h1M779 498h1M110 511h1M526 520h1M562 523h1M596 524h1M867 533h1M528 540h1M550 542h1M757 548h1M91 565h1M784 575h1M102 588h1M740 590h1" />
<path stroke="#6d9489" d="M715 192h1M711 257h1M642 271h1M949 274h1M785 555h1" />
<path stroke="#a4ddcd" d="M857 230h1M755 267h1M927 593h1" />
<path stroke="#c488b1" d="M490 324h1M600 330h1M667 336h1M430 348h1" />
</svg>