<svg xmlns="http://www.w3.org/2000/svg" viewBox="0 -0.5 960 600" shape-rendering="crispEdges">
<metadata>Made with Pixels to Svg https://codepen.io/shshaw/pen/XbxvNj</metadata>
<path stroke="#703246" d="M678 1h1M575 2h1M484 3h1M534 4h1M899 5h1M678 11h1M26 12h1M598 13h1M891 14h1M14 17h1M85 18h1M825 18h1M58 19h1M827 29h1M13 43h1M651 48h1M675 63h1M37 65h1M719 78h1M26 88h1M692 105h1M485 111h1M463 113h1M802 120h1M531 129h1M497 130h1M461 133h1M45 142h1M714 155h1M540 161h1M930 161h1M750 171h1M40 172h1M98 179h1M66 216h1M805 241h1" />
<path stroke="#cd71a2" d="M243 4h1M288 7h1M168 17h1M160 19h1M516 22h1M574 27h1M447 39h1M337 40h1M388 43h1M756 45h1M189 50h1M249 55h1M838 57h1M425 58h1M895 60h1M261 61h1M159 67h1M199 68h1M491 69h1M519 71h1M747 72h1M595 75h1M428 80h1M630 82h1M406 83h1M661 85h1M254 91h1M920 91h1M456 93h1M535 93h1M355 98h1M307 103h1M578 103h1M885 104h1M814 108h1M90 109h1M629 112h1M217 116h1M762 117h1M852 123h1M153 128h1M412 129h1M314 130h1M392 131h1M354 132h1M120 133h1M636 134h1M542 136h1M268 138h1M219 141h1M251 143h2M846 146h1M559 147h1M625 150h1M487 151h1M149 152h1M323 156h1M471 156h1M443 157h1M742 164h1M123 169h1M285 169h1M179 174h1M620 183h1M663 184h1M756 186h1M422 188h1M816 195h1M917 195h1M815 196h1M598 200h1M284 203h1M568 204h1M460 205h1M677 207h1M492 210h1M467 217h1M398 218h1M190 224h1M448 228h1M141 232h1M724 234h1M399 239h1M402 242h1M543 245h1M932 258h1M546 260h1M786 260h1M460 267h1M479 267h1M926 269h1M879 275h1M201 277h1M823 277h1M673 289h1M855 299h1M922 308h1M632 322h1M786 324h1M820 337h1M515 351h1M317 359h1M713 368h1M758 370h1M762 370h1M712 371h1M761 373h1M763 374h1M772 377h1M594 380h1M595 382h1M842 394h1M728 401h1M833 404h1M882 410h1M884 411h1M888 411h1M855 412h1M853 413h1M856 413h1M886 413h1M884 414h1M891 414h1M887 416h1M145 428h1M149 433h1M147 434h1M863 434h1M148 436h1M680 442h1" />
<path stroke="#6d9489" d="M954 16h1M647 19h1M716 33h1M720 98h1" />
<path stroke="#a4ddcd" d="M760 23h1M862 60h1" />
<path stroke="#622c64" d="M428 30h1M49 49h1M105 49h1M117 59h1M159 59h1M214 70h1M739 70h1M741 71h1M387 73h1M63 78h1M479 79h1M344 92h1M172 96h1M5 102h1M106 114h1M195 117h1M155 118h1M335 123h1M746 123h1M420 125h1M379 127h1M26 139h1M143 140h1M157 141h1M519 142h1M206 145h1M106 148h1M60 150h1M154 157h1M145 159h1M379 163h1M524 165h1M815 165h1M922 169h1M253 170h1M867 170h1M231 176h1M191 201h1M27 202h1M353 202h1M95 206h1M27 213h1M81 214h1M187 216h1M463 216h1M155 219h1M354 220h1M100 232h1M95 243h1M498 247h1M521 283h1" />
<path stroke="#9bbdd1" d="M506 47h1M458 48h1M606 49h1M76 52h1M328 55h1M273 81h1M509 91h1M414 96h1M63 115h1M416 120h1M297 140h1M624 148h1M386 154h1M449 162h1M600 164h1M189 172h1M255 200h1M502 202h1M206 234h1M354 234h1M567 260h1M168 263h1M624 266h1M69 286h1M530 290h1M457 307h1M218 312h1M516 342h1" />
<path stroke="#c488b1" d="M365 305h1M602 317h1M535 323h1M425 329h1" />
</svg>