<svg xmlns="http://www.w3.org/2000/svg" viewBox="0 -0.5 1920 600" shape-rendering="crispEdges">
<metadata>Made with Pixels to Svg https://codepen.io/shshaw/pen/XbxvNj</metadata>
<path stroke="rgba(23,75,91,0.8)" d="M429 21h2M429 23h2M429 24h1M422 28h1M424 28h1" />
<path stroke="#5e17b9" d="M676 23h1" />
<path stroke="#5f17b9" d="M677 23h1M677 24h1" />
<path stroke="rgba(23,75,93,0.8)" d="M430 24h1M429 25h2M428 26h1M431 26h1M427 27h2M431 27h2M425 28h1M434 28h1M437 28h1M422 29h1M424 29h2M434 29h2M437 29h1M427 30h2M431 30h2M428 31h1M431 31h1M429 33h2M429 34h2M429 36h2" />
<path stroke="#5e17b8" d="M676 24h1" />
<path stroke="rgba(53,123,136,0.8)" d="M429 26h2M429 27h2M426 28h3M431 28h3M426 29h3M431 29h1M429 31h2M429 32h2" />
<path stroke="#5d17b7" d="M676 26h2" />
<path stroke="#5e17b7" d="M676 27h1" />
<path stroke="#5d17b6" d="M677 27h1" />
<path stroke="rgba(126,193,199,0.8)" d="M429 28h2M429 29h2M429 30h2" />
<path stroke="rgba(23,75,94,0.8)" d="M435 28h1" />
<path stroke="#5e17b6" d="M675 28h1" />
<path stroke="#933ee6" d="M676 28h2" />
<path stroke="#5d17b3" d="M678 28h1M675 29h1M674 30h1" />
<path stroke="rgba(53,123,138,0.8)" d="M432 29h2" />
<path stroke="#5e17b3" d="M674 29h1M673 30h1M680 30h1" />
<path stroke="#cc8df9" d="M676 29h2" />
<path stroke="#5d17b5" d="M678 29h2" />
<path stroke="#923fe4" d="M675 30h1M678 30h1" />
<path stroke="#cd8df9" d="M676 30h2M675 31h5M674 32h6M676 33h2M676 34h2" />
<path stroke="#5d17b0" d="M679 30h1" />
<path stroke="#5b17b2" d="M668 31h2" />
<path stroke="#5c17af" d="M671 31h1M671 32h1" />
<path stroke="#9140e3" d="M672 31h1M673 32h1" />
<path stroke="#913fe3" d="M673 31h1" />
<path stroke="#cd8ef9" d="M674 31h1" />
<path stroke="#933fe3" d="M680 31h1" />
<path stroke="#923fe3" d="M681 31h1" />
<path stroke="#5e17b0" d="M682 31h1M684 31h2" />
<path stroke="#5b17af" d="M668 32h1" />
<path stroke="#5c17b0" d="M669 32h1" />
<path stroke="#9040e3" d="M672 32h1" />
<path stroke="#923fe2" d="M680 32h2" />
<path stroke="#5d17af" d="M682 32h1" />
<path stroke="#5e17af" d="M684 32h2" />
<path stroke="#5b17ae" d="M673 33h1M674 34h1" />
<path stroke="#5e17ae" d="M674 33h1M679 33h2M679 34h1" />
<path stroke="#9140e1" d="M675 33h1" />
<path stroke="#9140e2" d="M678 33h1" />
<path stroke="#5c17ad" d="M675 34h1M678 34h1M675 35h1M678 35h1M676 36h2" />
<path stroke="#9040df" d="M676 35h1" />
<path stroke="#9040de" d="M677 35h1" />
<path stroke="#5c17ab" d="M676 37h1" />
<path stroke="#5b17ab" d="M677 37h1" />
<path stroke="#5b17a9" d="M676 39h1" />
<path stroke="#5a17a8" d="M677 39h1" />
<path stroke="#4918d5" d="M1285 59h1" />
<path stroke="#4a18d3" d="M1286 59h1M1282 66h1M1280 68h1" />
<path stroke="#4a18d6" d="M1285 60h1" />
<path stroke="#4d18d3" d="M1286 60h1M1286 62h1M1286 63h1" />
<path stroke="#4b18d2" d="M1285 62h1M1285 63h1M1283 69h1M1283 70h1" />
<path stroke="#4e18d2" d="M1284 64h1M1284 65h1M1289 66h1M1284 70h1M1284 71h1" />
<path stroke="#7a46f1" d="M1285 64h2M1284 66h1" />
<path stroke="#4f18d3" d="M1287 64h1" />
<path stroke="#4b18d1" d="M1283 65h1M1283 66h1" />
<path stroke="#b999f5" d="M1285 65h1" />
<path stroke="#ba9af6" d="M1286 65h1M1285 66h2M1284 67h3M1285 68h1" />
<path stroke="#4e18d5" d="M1287 65h1" />
<path stroke="#4d18d1" d="M1288 65h1" />
<path stroke="#7b45f1" d="M1287 66h1" />
<path stroke="#4f18d1" d="M1288 66h1M1288 69h1M1288 70h1M1287 71h1M1286 73h1" />
<path stroke="#4918d6" d="M1277 67h2" />
<path stroke="#4b18d7" d="M1280 67h1" />
<path stroke="#7947f1" d="M1281 67h2M1281 68h2" />
<path stroke="#b99af6" d="M1283 67h1M1283 68h2" />
<path stroke="#ba99f6" d="M1287 67h1M1286 68h1M1285 69h2M1285 70h1" />
<path stroke="#bb99f6" d="M1288 67h1M1287 68h2M1286 70h1" />
<path stroke="#7d46f3" d="M1289 67h2M1289 68h1" />
<path stroke="#5018d2" d="M1291 67h1" />
<path stroke="#5118d0" d="M1293 67h2M1293 68h2" />
<path stroke="#4818d5" d="M1277 68h2" />
<path stroke="#7e45f3" d="M1290 68h1" />
<path stroke="#5018cf" d="M1291 68h1" />
<path stroke="#4d18d5" d="M1282 69h1" />
<path stroke="#7b46f1" d="M1284 69h1" />
<path stroke="#7d45f3" d="M1287 69h1" />
<path stroke="#4f18d2" d="M1289 69h1" />
<path stroke="#4f18d0" d="M1287 70h1M1286 72h1M1285 73h1M1285 75h1" />
<path stroke="#7b45f3" d="M1285 71h2" />
<path stroke="#4e18d0" d="M1285 72h1" />
<path stroke="#5018d3" d="M1286 75h1" />
<path stroke="rgba(82,33,116,0.9019607843137255)" d="M984 120h1M979 127h1M979 128h1" />
<path stroke="rgba(79,33,115,0.9019607843137255)" d="M985 120h1M984 122h2M984 123h2M984 124h2M983 125h1M986 125h1M982 126h2M986 126h2M980 127h1M980 128h1M982 129h2M986 129h2M983 130h1M986 130h1M984 132h1" />
<path stroke="rgba(132,78,160,0.9019607843137255)" d="M984 125h2M984 126h2M981 127h3M986 127h3M981 128h3M986 128h3M984 130h2M984 131h2" />
<path stroke="rgba(82,32,115,0.9019607843137255)" d="M977 127h1M977 128h1" />
<path stroke="rgba(205,145,225,0.9019607843137255)" d="M984 127h2M984 128h2M984 129h2" />
<path stroke="rgba(78,33,115,0.9019607843137255)" d="M989 127h2M989 128h2M984 133h1M984 135h2" />
<path stroke="rgba(78,34,116,0.9019607843137255)" d="M992 127h1M992 128h1M985 132h1M985 133h1" />
<path stroke="#6e1b5d" d="M150 128h1M151 131h1M151 132h1M148 134h1" />
<path stroke="#6f1b5d" d="M151 128h1M150 132h1M149 134h1M150 141h1" />
<path stroke="#6e1b5b" d="M150 129h1M151 141h1M150 142h2M150 144h2" />
<path stroke="#6f1b5b" d="M151 129h1M152 133h1M152 134h1M152 139h1M152 140h1" />
<path stroke="#6f1b5e" d="M150 131h1" />
<path stroke="#6d1c5d" d="M149 133h1M147 135h1M145 137h1M147 138h1M149 140h1" />
<path stroke="#9f4a87" d="M150 133h1" />
<path stroke="#a04b87" d="M151 133h1" />
<path stroke="#e18ec2" d="M150 134h1M150 135h1M149 136h1M149 137h1M150 138h1M150 139h1" />
<path stroke="#e28dc2" d="M151 134h1M151 135h1" />
<path stroke="#6f1c5a" d="M153 134h1M156 137h1M154 138h1" />
<path stroke="#6e1c5e" d="M148 135h1" />
<path stroke="#a04b88" d="M149 135h1" />
<path stroke="#a14a87" d="M152 135h1M152 138h1" />
<path stroke="#701b5b" d="M153 135h1" />
<path stroke="#6f1b5a" d="M154 135h1M153 138h1M153 139h1" />
<path stroke="rgba(93,27,119,0.9019607843137255)" d="M1530 135h1M1538 143h1" />
<path stroke="rgba(94,27,119,0.9019607843137255)" d="M1531 135h1" />
<path stroke="#6b1c5f" d="M142 136h1M142 137h1" />
<path stroke="#6d1c5e" d="M143 136h1M143 137h1" />
<path stroke="#6e1b5e" d="M145 136h1" />
<path stroke="#9f4b88" d="M146 136h2M149 138h1" />
<path stroke="#e18dc2" d="M148 136h1M151 138h1M151 139h1" />
<path stroke="#e18ec1" d="M150 136h1M152 136h1" />
<path stroke="#e18dc1" d="M151 136h1M153 136h1M151 137h2" />
<path stroke="#a14b87" d="M154 136h1" />
<path stroke="#a24a87" d="M155 136h1M154 137h2" />
<path stroke="#6f1c59" d="M156 136h1" />
<path stroke="#6f1b59" d="M158 136h1" />
<path stroke="#6e1b58" d="M159 136h1M158 137h1" />
<path stroke="#9f4a89" d="M146 137h2" />
<path stroke="#e08ec2" d="M148 137h1" />
<path stroke="#e18fc1" d="M150 137h1" />
<path stroke="#e28dc1" d="M153 137h1" />
<path stroke="#6f1b58" d="M159 137h1" />
<path stroke="rgba(94,27,118,0.9019607843137255)" d="M1530 137h1M1530 138h1M1531 139h1M1532 140h1M1532 141h1M1535 142h2M1535 143h1" />
<path stroke="rgba(93,27,118,0.9019607843137255)" d="M1531 137h1M1531 138h1M1536 143h1" />
<path stroke="#6e1c5d" d="M148 138h1" />
<path stroke="#6d1c5b" d="M148 139h2" />
<path stroke="rgba(96,27,118,0.9019607843137255)" d="M1530 139h1M1529 140h1M1533 141h1M1532 144h2" />
<path stroke="#a14a88" d="M150 140h1" />
<path stroke="#a04a87" d="M151 140h1" />
<path stroke="rgba(176,57,182,0.9019607843137255)" d="M1530 140h1M1531 141h1M1532 142h2" />
<path stroke="rgba(176,58,182,0.9019607843137255)" d="M1531 140h1" />
<path stroke="rgba(98,26,118,0.9019607843137255)" d="M1528 141h1" />
<path stroke="rgba(96,26,118,0.9019607843137255)" d="M1529 141h1M1532 145h1" />
<path stroke="rgba(179,57,183,0.9019607843137255)" d="M1530 141h1" />
<path stroke="rgba(101,26,116,0.9019607843137255)" d="M1523 142h1M1525 143h1" />
<path stroke="rgba(100,26,116,0.9019607843137255)" d="M1525 142h1M1526 143h1M1528 144h1M1530 147h1" />
<path stroke="rgba(98,26,116,0.9019607843137255)" d="M1526 142h1M1529 144h1M1529 145h1M1531 147h1M1531 148h1" />
<path stroke="rgba(185,55,184,0.9019607843137255)" d="M1527 142h1M1531 146h1" />
<path stroke="rgba(182,57,183,0.9019607843137255)" d="M1528 142h2" />
<path stroke="rgba(215,145,211,0.9019607843137255)" d="M1530 142h1M1531 143h1" />
<path stroke="rgba(214,145,212,0.9019607843137255)" d="M1531 142h1" />
<path stroke="rgba(175,58,181,0.9019607843137255)" d="M1534 142h1M1534 143h1" />
<path stroke="rgba(92,27,118,0.9019607843137255)" d="M1538 142h1" />
<path stroke="rgba(101,26,115,0.9019607843137255)" d="M1523 143h1M1530 150h1" />
<path stroke="rgba(187,54,185,0.9019607843137255)" d="M1527 143h1" />
<path stroke="rgba(186,55,185,0.9019607843137255)" d="M1528 143h1M1530 145h1M1530 146h1" />
<path stroke="rgba(183,57,183,0.9019607843137255)" d="M1529 143h1M1531 145h1" />
<path stroke="rgba(216,145,211,0.9019607843137255)" d="M1530 143h1M1530 144h2" />
<path stroke="rgba(180,57,182,0.9019607843137255)" d="M1532 143h2" />
<path stroke="rgba(100,26,115,0.9019607843137255)" d="M1530 148h1M1531 150h1" />
</svg>