<svg xmlns="http://www.w3.org/2000/svg" viewBox="0 -0.5 960 600" shape-rendering="crispEdges">
<metadata>Made with Pixels to Svg https://codepen.io/shshaw/pen/XbxvNj</metadata>
<path stroke="#353075" d="M465 9h1M465 10h1M460 16h1M461 17h1M464 19h1M466 19h1M463 20h1M467 20h1M456 21h1M473 21h1M463 22h1M467 22h1M464 23h1M466 23h1M471 27h1M465 31h1M931 48h1M931 49h1M926 55h1M927 56h1M930 58h1M932 58h1M929 59h1M933 59h1M922 60h1M939 60h1M929 61h1M933 61h1M930 62h1M932 62h1M937 66h1M931 70h1" />
<path stroke="#282051" d="M465 14h1M458 21h1M472 21h1M465 27h1M465 28h1M465 30h1M931 53h1M924 60h1M938 60h1M931 66h1M931 67h1M931 69h1" />
<path stroke="#865099" d="M465 15h1M459 21h1M471 21h1M465 26h1M931 54h1M925 60h1M937 60h1M931 65h1" />
<path stroke="#b067c0" d="M465 16h1M460 21h1M467 21h1M470 21h1M465 25h1M931 55h1M926 60h1M933 60h1M936 60h1M931 64h1" />
<path stroke="#cd55b2" d="M465 17h1M461 21h1M469 21h1M465 23h1M465 24h1M931 56h1M927 60h1M935 60h1M931 62h1M931 63h1" />
<path stroke="#3f3aa0" d="M469 17h1M464 20h1M466 20h1M464 22h1M466 22h1M461 25h1M470 26h1M935 56h1M930 59h1M932 59h1M930 61h1M932 61h1M927 64h1M936 65h1" />
<path stroke="#311d53" d="M462 18h1M464 18h1M466 18h1M468 18h1M463 19h1M467 19h1M462 20h1M468 20h1M462 22h1M468 22h1M463 23h1M467 23h1M462 24h1M464 24h1M466 24h1M468 24h1M469 25h1M928 57h1M930 57h1M932 57h1M934 57h1M929 58h1M933 58h1M928 59h1M934 59h1M928 61h1M934 61h1M929 62h1M933 62h1M928 63h1M930 63h1M932 63h1M934 63h1M935 64h1" />
<path stroke="#cc4398" d="M465 18h1M462 21h1M468 21h1M465 22h1M931 57h1M928 60h1M934 60h1M931 61h1" />
<path stroke="#b086e7" d="M465 19h1M463 21h1M466 21h1M931 58h1M929 60h1M932 60h1" />
<path stroke="#d1b2e6" d="M465 20h1M464 21h2M931 59h1M930 60h2" />
<path stroke="#72377b" d="M652 74h1M652 75h1M647 81h1M648 82h1M651 84h1M653 84h1M650 85h1M654 85h1M643 86h1M660 86h1M650 87h1M654 87h1M651 88h1M653 88h1M658 92h1M652 96h1M256 158h1M256 159h1M251 165h1M252 166h1M255 168h1M257 168h1M254 169h1M258 169h1M247 170h1M264 170h1M254 171h1M258 171h1M255 172h1M257 172h1M262 176h1M256 180h1" />
<path stroke="#512555" d="M652 79h1M645 86h1M659 86h1M652 92h1M652 93h1M652 95h1M256 163h1M249 170h1M263 170h1M256 176h1M256 177h1M256 179h1" />
<path stroke="#bb5a9b" d="M652 80h1M646 86h1M658 86h1M652 91h1M256 164h1M250 170h1M262 170h1M256 175h1" />
<path stroke="#dd73bc" d="M652 81h1M647 86h1M654 86h1M657 86h1M652 90h1M256 165h1M251 170h1M258 170h1M261 170h1M256 174h1" />
<path stroke="#d6607d" d="M652 82h1M648 86h1M656 86h1M652 88h1M652 89h1M256 166h1M252 170h1M260 170h1M256 172h1M256 173h1" />
<path stroke="#9743a9" d="M656 82h1M651 85h1M653 85h1M651 87h1M653 87h1M648 90h1M657 91h1M260 166h1M255 169h1M257 169h1M255 171h1M257 171h1M252 174h1M261 175h1" />
<path stroke="#62225c" d="M649 83h1M651 83h1M653 83h1M655 83h1M650 84h1M654 84h1M649 85h1M655 85h1M649 87h1M655 87h1M650 88h1M654 88h1M649 89h1M651 89h1M653 89h1M655 89h1M656 90h1M253 167h1M255 167h1M257 167h1M259 167h1M254 168h1M258 168h1M253 169h1M259 169h1M253 171h1M259 171h1M254 172h1M258 172h1M253 173h1M255 173h1M257 173h1M259 173h1M260 174h1" />
<path stroke="#d54d5b" d="M652 83h1M649 86h1M655 86h1M652 87h1M256 167h1M253 170h1M259 170h1M256 171h1" />
<path stroke="#ea94f7" d="M652 84h1M650 86h1M653 86h1M256 168h1M254 170h1M257 170h1" />
<path stroke="#f0c3f6" d="M652 85h1M651 86h2M256 169h1M255 170h2" />
<path stroke="rgba(161,80,151,0.5098039215686274)" d="M526 222h1M526 223h1M521 229h1M522 230h1M525 232h1M527 232h1M524 233h1M528 233h1M517 234h1M534 234h1M524 235h1M528 235h1M525 236h1M527 236h1M532 240h1M526 244h1" />
<path stroke="rgba(131,67,118,0.5098039215686274)" d="M526 227h1M519 234h1M533 234h1M526 240h1M526 241h1M526 243h1" />
<path stroke="rgba(202,112,161,0.5098039215686274)" d="M526 228h1M520 234h1M532 234h1M526 239h1" />
<path stroke="rgba(230,131,184,0.5098039215686274)" d="M526 229h1M521 234h1M528 234h1M531 234h1M526 238h1" />
<path stroke="rgba(224,116,128,0.5098039215686274)" d="M526 230h1M522 234h1M530 234h1M526 236h1M526 237h1" />
<path stroke="rgba(196,88,192,0.5098039215686274)" d="M530 230h1M525 233h1M527 233h1M525 235h1M527 235h1M522 238h1M531 239h1" />
<path stroke="rgba(137,65,114,0.5098039215686274)" d="M523 231h1M525 231h1M527 231h1M529 231h1M524 232h1M528 232h1M523 233h1M529 233h1M523 235h1M529 235h1M524 236h1M528 236h1M523 237h1M525 237h1M527 237h1M529 237h1M530 238h1" />
<path stroke="rgba(224,104,98,0.5098039215686274)" d="M526 231h1M523 234h1M529 234h1M526 235h1" />
<path stroke="rgba(247,163,247,0.5098039215686274)" d="M526 232h1M524 234h1M527 234h1" />
<path stroke="rgba(249,200,247,0.5098039215686274)" d="M526 233h1M525 234h2" />
<path stroke="rgba(114,56,124,0.4117647058823529)" d="M298 255h1M298 256h1M293 262h1M294 263h1M297 265h1M299 265h1M296 266h1M300 266h1M289 267h1M306 267h1M296 268h1M300 268h1M297 269h1M299 269h1M304 273h1M298 277h1" />
<path stroke="rgba(80,36,85,0.4117647058823529)" d="M298 260h1M291 267h1M305 267h1M298 273h1M298 274h1M298 276h1" />
<path stroke="rgba(187,90,155,0.4117647058823529)" d="M298 261h1M292 267h1M304 267h1M298 272h1" />
<path stroke="rgba(221,114,187,0.4117647058823529)" d="M298 262h1M293 267h1M300 267h1M303 267h1M298 271h1" />
<path stroke="rgba(214,97,124,0.4117647058823529)" d="M298 263h1M294 267h1M302 267h1M298 269h1M298 270h1" />
<path stroke="rgba(151,68,170,0.4117647058823529)" d="M302 263h1M297 266h1M299 266h1M297 268h1M299 268h1M294 271h1M303 272h1" />
<path stroke="rgba(97,34,92,0.4117647058823529)" d="M295 264h1M297 264h1M299 264h1M301 264h1M296 265h1M300 265h1M295 266h1M301 266h1M295 268h1M301 268h1M296 269h1M300 269h1M295 270h1M297 270h1M299 270h1M301 270h1M302 271h1" />
<path stroke="rgba(214,78,90,0.4117647058823529)" d="M298 264h1M295 267h1M301 267h1M298 268h1" />
<path stroke="rgba(233,148,248,0.4117647058823529)" d="M298 265h1M296 267h1M299 267h1" />
<path stroke="rgba(240,194,245,0.4117647058823529)" d="M298 266h1M297 267h2" />
<path stroke="rgba(116,54,124,0.25882352941176473)" d="M707 313h1M707 314h1M702 320h1M703 321h1M706 323h1M708 323h1M705 324h1M709 324h1M698 325h1M715 325h1M705 326h1M709 326h1M706 327h1M708 327h1M713 331h1M707 335h1" />
<path stroke="rgba(81,39,85,0.25882352941176473)" d="M707 318h1M700 325h1M714 325h1M707 331h1M707 332h1M707 334h1" />
<path stroke="rgba(185,89,155,0.25882352941176473)" d="M707 319h1M701 325h1M713 325h1M707 330h1" />
<path stroke="rgba(220,116,189,0.25882352941176473)" d="M707 320h1M702 325h1M709 325h1M712 325h1M707 329h1" />
<path stroke="rgba(213,97,124,0.25882352941176473)" d="M707 321h1M703 325h1M711 325h1M707 327h1M707 328h1" />
<path stroke="rgba(151,66,170,0.25882352941176473)" d="M711 321h1M706 324h1M708 324h1M706 326h1M708 326h1M703 329h1M712 330h1" />
<path stroke="rgba(97,35,93,0.25882352941176473)" d="M704 322h1M706 322h1M708 322h1M710 322h1M705 323h1M709 323h1M704 324h1M710 324h1M704 326h1M710 326h1M705 327h1M709 327h1M704 328h1M706 328h1M708 328h1M710 328h1M711 329h1" />
<path stroke="rgba(213,77,93,0.25882352941176473)" d="M707 322h1M704 325h1M710 325h1M707 326h1" />
<path stroke="rgba(236,147,247,0.25882352941176473)" d="M707 323h1M705 325h1M708 325h1" />
<path stroke="rgba(240,193,247,0.25882352941176473)" d="M707 324h1M706 325h2" />
</svg>