<svg xmlns="http://www.w3.org/2000/svg" viewBox="0 -0.5 960 600" shape-rendering="crispEdges">
<metadata>Made with Pixels to Svg https://codepen.io/shshaw/pen/XbxvNj</metadata>
<path stroke="#3b2b72" d="M434 443h10M432 444h2M444 444h2M431 445h1M446 445h1M430 446h1M440 446h7M429 447h1M438 447h10M428 448h1M436 448h12M427 449h1M435 449h14M427 450h1M434 450h15M426 451h1M433 451h9M443 451h7M426 452h1M432 452h9M444 452h6M426 453h1M432 453h8M445 453h5M426 454h1M432 454h7M445 454h5M426 455h1M433 455h7M445 455h5M426 456h1M433 456h8M444 456h6M426 457h1M434 457h8M443 457h7M426 458h1M435 458h15M426 459h1M436 459h14M426 460h1M437 460h13M426 461h1M434 461h1M438 461h12M427 462h1M435 462h1M439 462h11M428 463h1M436 463h1M440 463h9M429 464h1M437 464h1M441 464h8M429 465h3M438 465h1M442 465h6M424 466h11M439 466h1M443 466h3M447 466h1M423 467h15M440 467h2M446 467h1M421 468h10M433 468h14M420 469h11M435 469h13M419 470h11M445 470h3M418 471h2M421 471h8M446 471h3M417 472h2M422 472h6M430 472h1M435 472h1M446 472h3M417 473h1M423 473h3M429 473h2M436 473h1M446 473h3M416 474h1M427 474h2M437 474h1M446 474h3M416 475h1M426 475h1M438 475h11M415 476h1M426 476h1M440 476h9M414 477h1M424 477h2M447 477h3M382 478h1M414 478h1M424 478h1M447 478h3M414 479h1M424 479h1M447 479h1M449 479h1M414 480h1M423 480h2M447 480h1M413 481h1M424 481h1M446 481h1M413 482h1M423 482h1M446 482h1M413 483h1M423 483h1M445 483h1M413 484h1M423 484h1M445 484h1M413 485h1M423 485h1M445 485h1M413 486h1M423 486h1M445 486h1M413 487h1M423 487h1M445 487h1M413 488h1M423 488h1M445 488h1M413 489h1M423 489h1M445 489h1M414 490h1M423 490h2M444 490h2M414 491h1M422 491h4M444 491h1M414 492h1M421 492h2M425 492h3M444 492h1M414 493h1M421 493h1M428 493h3M444 493h1M414 494h1M421 494h1M431 494h9M444 494h1M414 495h1M421 495h1M437 495h5M443 495h1M414 496h1M421 496h1M439 496h5M415 497h1M421 497h1M440 497h3M416 498h1M441 498h1M417 499h1M420 499h2M441 499h1M418 500h2M421 500h1M441 500h1M421 501h1M441 501h1M421 502h2M439 502h3M421 503h2M440 503h2M421 504h1M436 504h3M441 504h1M420 505h1M435 505h1M441 505h2M420 506h1M434 506h1M442 506h1M419 507h1M433 507h1M442 507h1M419 508h1M432 508h1M442 508h1M418 509h1M431 509h1M442 509h1M418 510h1M430 510h2M443 510h1M417 511h1M429 511h4M443 511h1M416 512h1M428 512h2M432 512h1M443 512h1M415 513h1M427 513h2M433 513h1M444 513h1M414 514h1M425 514h2M434 514h1M444 514h1M413 515h1M424 515h2M435 515h1M444 515h1M412 516h1M423 516h1M435 516h1M445 516h1M412 517h1M422 517h1M436 517h1M445 517h1M411 518h1M421 518h1M436 518h1M445 518h1M411 519h1M420 519h1M437 519h1M445 519h1M410 520h1M419 520h1M437 520h1M445 520h1M410 521h1M418 521h1M438 521h1M445 521h1M410 522h1M417 522h1M438 522h1M445 522h1M410 523h1M416 523h1M439 523h1M446 523h1M410 524h1M416 524h1M440 524h1M446 524h1M410 525h1M416 525h1M440 525h1M447 525h1M410 526h1M416 526h1M440 526h1M448 526h1M410 527h1M417 527h1M440 527h1M449 527h1M411 528h1M417 528h1M440 528h1M449 528h1M411 529h3M418 529h1M441 529h9M412 530h7" />
<path stroke="#ff9fbf" d="M434 444h10M432 445h14M431 446h1M435 446h5M430 447h1M436 447h2M435 448h1M436 460h1M437 461h1M438 462h1M438 463h2M439 464h2M440 465h2M441 466h2M446 466h1M442 467h4M440 470h5M441 471h5M442 472h4M443 473h3M444 474h2M444 477h3M444 478h3M443 479h4M448 479h1M443 480h4M449 480h1M443 481h3M448 481h1M450 481h1M443 482h3M447 482h1M449 482h2M443 483h2M446 483h1M448 483h4M443 484h2M447 484h5M443 485h2M447 485h5M443 486h2M447 486h6M442 487h3M448 487h5M442 488h3M448 488h6M441 489h4M449 489h6M441 490h3M449 490h7M441 491h3M450 491h5M440 492h4M451 492h4M439 493h5M452 493h2M455 493h2M440 494h4M454 494h1M456 494h1M442 495h1M455 495h1M440 498h1M439 499h2M439 500h2M439 501h2M440 504h1M440 505h1M441 506h1M441 507h1M441 508h1M441 509h1M441 510h2M442 511h1M442 512h1M443 513h1M443 514h1" />
<path stroke="#e1f0f5" d="M432 446h3M431 447h5M429 448h6M428 449h7M428 450h6M427 451h6M427 452h5M427 453h5M427 454h5M427 455h6M427 456h6M427 457h7M427 458h8M427 459h9M427 460h9M427 461h7M435 461h2M428 462h7M436 462h2M429 463h7M437 463h1M430 464h7M438 464h1M432 465h6M439 465h1M435 466h4M440 466h1M438 467h2M434 469h1M431 470h1M433 470h1M435 470h5M430 471h1M432 471h1M434 471h7M433 472h2M436 472h6M431 473h5M437 473h6M429 474h8M438 474h6M427 475h1M429 475h9M423 476h1M428 476h12M422 477h1M427 477h17M421 478h1M423 478h1M426 478h1M428 478h16M420 479h1M422 479h1M425 479h1M427 479h16M419 480h1M421 480h1M426 480h17M418 481h1M420 481h1M422 481h1M425 481h1M427 481h16M417 482h1M419 482h3M426 482h17M418 483h5M425 483h18M417 484h6M426 484h17M417 485h6M425 485h18M417 486h6M426 486h17M417 487h6M427 487h15M417 488h6M426 488h16M417 489h6M427 489h14M418 490h5M428 490h13M419 491h2M428 491h13M429 492h11M420 493h1M431 493h8M419 494h2M418 495h3M419 496h2M420 497h1M430 497h1M432 497h1M434 497h1M436 497h1M438 497h1M429 498h1M431 498h1M433 498h1M435 498h1M437 498h1M439 498h1M428 499h1M430 499h1M432 499h7M427 500h1M429 500h10M426 501h1M428 501h11M425 502h1M427 502h12M423 503h17M422 504h14M439 504h1M421 505h14M437 505h3M421 506h13M437 506h4M421 507h12M436 507h5M420 508h12M437 508h4M419 509h12M437 509h4M419 510h11M438 510h3M418 511h11M439 511h3M417 512h11M440 512h2M416 513h11M441 513h2M415 514h10M442 514h1M414 515h10M443 515h1M413 516h10M443 516h2M413 517h9M443 517h2M412 518h9M444 518h1M412 519h8M444 519h1M411 520h8M444 520h1M411 521h7M411 522h6M411 523h5M411 524h5M411 525h5M411 526h5M411 527h6M412 528h5M414 529h4" />
<path stroke="#660029" d="M442 451h1M441 452h1M443 452h1M440 453h1M444 453h1M439 454h1M444 454h1M440 455h1M444 455h1M441 456h1M443 456h1M442 457h1" />
<path stroke="#a8000b" d="M442 452h1M441 453h3M440 454h2M443 454h1M441 455h3M442 456h1" />
<path stroke="#ff4242" d="M442 454h1" />
<path stroke="#aa96d6" d="M431 468h2M431 469h3M430 470h1M432 470h1M434 470h1M431 471h1M433 471h1M431 472h2M428 475h1M418 476h5M424 476h1M427 476h1M417 477h5M423 477h1M426 477h1M416 478h5M422 478h1M425 478h1M427 478h1M416 479h4M421 479h1M426 479h1M415 480h4M420 480h1M422 480h1M425 480h1M415 481h3M419 481h1M421 481h1M423 481h1M426 481h1M414 482h3M418 482h1M422 482h1M425 482h1M414 483h4M424 483h1M414 484h3M424 484h2M414 485h3M424 485h1M415 486h2M424 486h2M415 487h2M424 487h1M426 487h1M415 488h2M424 488h1M415 489h2M424 489h1M426 489h1M416 490h2M426 490h2M416 491h3M426 491h2M418 492h2M428 492h1M416 493h2M416 494h3M425 494h1M427 494h1M416 495h2M424 495h1M426 495h4M416 496h3M423 496h1M425 496h14M416 497h4M422 497h1M424 497h6M431 497h1M433 497h1M435 497h1M437 497h1M439 497h1M417 498h4M423 498h6M430 498h1M432 498h1M434 498h1M436 498h1M438 498h1M418 499h2M422 499h6M429 499h1M431 499h1M422 500h5M428 500h1M422 501h4M427 501h1M423 502h2M426 502h1M436 505h1M435 506h2M434 507h2M433 508h4M432 509h5M432 510h6M433 511h6M433 512h7M434 513h7M435 514h7M436 515h7M436 516h7M437 517h6M437 518h7M438 519h6M438 520h6M439 521h6M440 522h5M441 523h5M442 524h4M441 525h1M446 525h1M441 526h7M441 527h8M441 528h8" />
<path stroke="#642ddf" d="M420 471h1M429 471h1M419 472h3M428 472h2M418 473h5M426 473h3M417 474h10M417 475h4M422 475h4M416 476h2M425 476h1M415 477h2M415 478h1M415 479h1M414 481h1M414 486h1M414 487h1M414 488h1M414 489h1M415 490h1M415 491h1M421 491h1M415 492h3M420 492h1M423 492h1M415 493h1M418 493h2M422 493h6M415 494h1M422 494h3M426 494h1M428 494h3M415 495h1M422 495h2M425 495h1M430 495h7M415 496h1M422 496h1M424 496h1M423 497h1M422 498h1M420 507h1M439 522h1M440 523h1M441 524h1M442 525h4" />
<path stroke="#632ddc" d="M421 475h1" />
<path stroke="#3e2e74" d="M423 479h1" />
<path stroke="#e95658" d="M448 480h1M447 481h1M449 481h1M448 482h1M447 483h1M446 484h1M446 485h1M446 486h1M446 487h2M446 488h2M446 489h3M447 490h2M448 491h2M455 491h1M449 492h2M455 492h1M450 493h2M454 493h1M451 494h3M455 494h1M452 495h3M456 495h1M453 496h5" />
<path stroke="#b09fd9" d="M424 482h1" />
<path stroke="#dbe6f2" d="M425 487h1" />
<path stroke="#9a87c8" d="M425 488h1" />
<path stroke="#9e83d8" d="M425 489h1" />
<path stroke="#a58fd7" d="M425 490h1" />
<path stroke="#922b38" d="M446 490h1M447 491h1M448 492h1M450 494h1M451 495h1M452 496h1" />
<path stroke="rgba(59,43,114,0.8588235294117647)" d="M424 492h1" />
<path stroke="rgba(59,43,114,0.9450980392156862)" d="M421 498h1" />
<path stroke="rgba(0,0,255,0.00392156862745098)" d="M420 501h1" />
</svg>