<svg xmlns="http://www.w3.org/2000/svg" viewBox="0 -0.5 960 600" shape-rendering="crispEdges">
<metadata>Made with Pixels to Svg https://codepen.io/shshaw/pen/XbxvNj</metadata>
<path stroke="#3b2b72" d="M434 443h10M432 444h2M444 444h2M431 445h1M446 445h1M430 446h1M440 446h7M429 447h1M438 447h10M428 448h1M436 448h12M427 449h1M435 449h14M427 450h1M434 450h15M426 451h1M433 451h9M443 451h7M426 452h1M432 452h9M444 452h6M426 453h1M432 453h8M445 453h5M426 454h1M432 454h7M445 454h5M426 455h1M433 455h7M445 455h5M426 456h1M433 456h8M444 456h6M426 457h1M434 457h8M443 457h7M426 458h1M435 458h15M426 459h1M436 459h14M426 460h1M437 460h13M426 461h1M434 461h1M438 461h12M427 462h1M435 462h1M439 462h11M428 463h1M436 463h1M440 463h9M429 464h1M437 464h1M441 464h8M429 465h3M438 465h1M442 465h6M424 466h11M439 466h1M443 466h3M447 466h1M423 467h15M440 467h2M446 467h1M421 468h10M433 468h14M420 469h11M435 469h13M419 470h11M445 470h3M418 471h2M421 471h8M446 471h3M417 472h2M422 472h6M430 472h1M435 472h1M446 472h3M417 473h1M423 473h3M430 473h1M436 473h1M446 473h3M416 474h1M429 474h1M437 474h1M446 474h3M416 475h1M429 475h1M438 475h11M415 476h2M428 476h1M440 476h9M414 477h2M428 477h1M447 477h2M382 478h1M414 478h1M427 478h1M447 478h2M414 479h1M426 479h1M447 479h1M414 480h1M425 480h1M447 480h1M414 481h1M425 481h1M446 481h1M414 482h1M424 482h1M446 482h1M414 483h1M424 483h1M445 483h1M414 484h1M424 484h1M445 484h1M414 485h1M424 485h1M445 485h1M414 486h1M424 486h1M445 486h1M414 487h1M424 487h1M445 487h1M414 488h1M424 488h2M445 488h1M414 489h2M425 489h1M445 489h1M415 490h1M425 490h1M444 490h2M415 491h1M425 491h1M444 491h2M416 492h1M425 492h3M444 492h2M417 493h1M426 493h1M428 493h3M444 493h1M418 494h1M426 494h1M431 494h9M444 494h1M419 495h2M426 495h2M437 495h5M443 495h1M420 496h1M427 496h1M439 496h5M420 497h2M427 497h1M440 497h3M422 498h6M441 498h1M421 499h1M441 499h1M421 500h1M441 500h1M421 501h1M441 501h1M421 502h2M440 502h2M421 503h2M441 503h1M422 504h2M441 504h1M423 505h2M442 505h1M423 506h3M442 506h1M422 507h1M425 507h2M442 507h1M421 508h1M427 508h1M443 508h1M420 509h1M428 509h1M443 509h1M412 510h8M428 510h2M444 510h1M408 511h4M429 511h1M444 511h1M407 512h1M430 512h1M444 512h1M407 513h1M428 513h4M444 513h1M407 514h1M426 514h3M431 514h1M443 514h2M406 515h1M425 515h1M431 515h1M443 515h1M406 516h1M424 516h1M431 516h1M442 516h1M406 517h1M412 517h1M423 517h1M431 517h1M406 518h1M409 518h4M422 518h1M431 518h1M441 518h1M406 519h1M409 519h1M412 519h10M431 519h1M406 520h1M408 520h1M431 520h1M440 520h1M406 521h2M430 521h2M430 522h1M439 522h1M429 523h2M439 523h1M429 524h1M438 524h1M428 525h2M438 525h1M428 526h1M428 527h1M437 527h1M429 528h1M438 528h1M429 529h1M439 529h1M429 530h11" />
<path stroke="#ff9fbf" d="M434 444h10M432 445h14M431 446h1M435 446h5M430 447h1M436 447h2M435 448h1M436 460h1M437 461h1M438 462h1M438 463h2M439 464h2M440 465h2M441 466h2M446 466h1M442 467h4M440 470h5M441 471h5M442 472h4M443 473h3M444 474h2M444 477h3M444 478h3M443 479h4M443 480h4M443 481h3M443 482h3M447 482h1M443 483h2M446 483h1M448 483h1M443 484h2M447 484h1M443 485h2M448 485h1M443 486h2M447 486h3M442 487h3M447 487h3M442 488h3M448 488h3M441 489h4M448 489h4M441 490h3M449 490h4M441 491h3M449 491h5M440 492h4M450 492h4M439 493h5M451 493h4M440 494h4M452 494h3M442 495h1M453 495h3M454 496h2M440 498h1M435 499h1M439 499h2M436 500h1M439 500h2M437 501h1M439 501h2M438 502h1M439 503h1M440 504h1M440 505h2M441 506h1M441 507h1M441 508h2M441 509h2M441 510h3M442 511h2M442 512h2M442 513h2M442 514h1M442 515h1" />
<path stroke="#e1f0f5" d="M432 446h3M431 447h5M429 448h6M428 449h7M428 450h6M427 451h6M427 452h5M427 453h5M427 454h5M427 455h6M427 456h6M427 457h7M427 458h8M427 459h9M427 460h9M427 461h7M435 461h2M428 462h7M436 462h2M429 463h7M437 463h1M430 464h7M438 464h1M432 465h6M439 465h1M435 466h4M440 466h1M438 467h2M434 469h1M431 470h1M433 470h1M435 470h5M432 471h1M434 471h7M433 472h2M436 472h6M431 473h5M437 473h6M430 474h7M438 474h6M430 475h8M423 476h1M425 476h1M427 476h1M429 476h11M422 477h1M424 477h1M426 477h2M429 477h15M421 478h1M423 478h1M425 478h1M428 478h16M420 479h1M422 479h1M424 479h1M428 479h15M419 480h1M421 480h1M423 480h1M427 480h1M429 480h14M418 481h1M420 481h1M422 481h1M424 481h1M428 481h15M417 482h1M419 482h1M421 482h1M423 482h1M427 482h1M429 482h14M418 483h6M426 483h1M428 483h15M417 484h7M427 484h1M429 484h14M417 485h7M426 485h1M428 485h15M417 486h7M427 486h1M429 486h14M417 487h7M428 487h14M417 488h7M427 488h1M429 488h13M417 489h6M428 489h1M430 489h11M418 490h4M423 490h1M429 490h1M431 490h10M419 491h2M422 491h1M430 491h1M432 491h9M431 492h1M433 492h7M424 493h2M432 493h1M434 493h5M423 494h3M422 495h3M430 497h1M432 497h1M434 497h1M436 497h1M438 497h1M429 498h1M431 498h1M433 498h1M435 498h1M437 498h1M439 498h1M428 499h1M430 499h1M432 499h3M436 499h3M427 500h1M429 500h7M438 500h1M426 501h1M428 501h9M425 502h1M427 502h11M426 503h13M425 504h15M425 505h15M426 506h15M427 507h14M428 508h13M429 509h12M430 510h11M430 511h12M431 512h11M432 513h10M432 514h10M432 515h10M432 516h10M432 517h10M432 518h9M432 519h9M432 520h8M432 521h8M432 522h7M432 523h7M430 524h1M432 524h6M430 525h2M433 525h5M429 526h4M434 526h2M429 527h5M436 527h1M430 528h8M430 529h9" />
<path stroke="#660029" d="M442 451h1M441 452h1M443 452h1M440 453h1M444 453h1M439 454h1M444 454h1M440 455h1M444 455h1M441 456h1M443 456h1M442 457h1" />
<path stroke="#a8000b" d="M442 452h1M441 453h3M440 454h2M443 454h1M441 455h3M442 456h1" />
<path stroke="#ff4242" d="M442 454h1" />
<path stroke="#aa96d6" d="M431 468h2M431 469h3M430 470h1M432 470h1M434 470h1M430 471h2M433 471h1M429 472h1M431 472h2M428 473h2M427 474h2M426 475h3M418 476h5M424 476h1M426 476h1M417 477h5M423 477h1M425 477h1M416 478h5M422 478h1M424 478h1M426 478h1M416 479h4M421 479h1M423 479h1M425 479h1M427 479h1M416 480h3M420 480h1M422 480h1M424 480h1M426 480h1M428 480h1M416 481h2M419 481h1M421 481h1M423 481h1M426 481h2M416 482h1M418 482h1M420 482h1M422 482h1M425 482h2M428 482h1M416 483h2M425 483h1M427 483h1M416 484h1M425 484h2M428 484h1M416 485h1M425 485h1M427 485h1M416 486h1M425 486h2M428 486h1M416 487h1M425 487h3M416 488h1M426 488h1M428 488h1M416 489h1M423 489h2M426 489h2M429 489h1M416 490h2M422 490h1M424 490h1M426 490h3M430 490h1M416 491h3M421 491h1M423 491h2M426 491h4M431 491h1M417 492h7M428 492h3M432 492h1M418 493h5M431 493h1M433 493h1M419 494h3M425 495h1M421 496h6M429 496h10M422 497h5M428 497h2M431 497h1M433 497h1M435 497h1M437 497h1M439 497h1M428 498h1M430 498h1M432 498h1M434 498h1M436 498h1M438 498h1M422 499h6M429 499h1M431 499h1M422 500h5M428 500h1M422 501h4M427 501h1M423 502h2M426 502h1M423 503h3M424 504h1M421 509h1M420 510h1M412 511h8M421 511h1M408 512h13M422 512h1M408 513h12M421 513h1M423 513h1M408 514h13M422 514h1M424 514h1M407 515h15M423 515h1M407 516h14M422 516h1M407 517h5M413 517h9M407 518h2M413 518h8M407 519h2M407 520h1" />
<path stroke="#642ddf" d="M420 471h1M429 471h1M419 472h3M428 472h1M418 473h5M426 473h2M417 474h10M417 475h4M422 475h4M417 476h1M416 477h1M415 478h1M415 479h1M415 480h1M415 481h1M415 482h1M415 483h1M415 484h1M415 485h1M415 486h1M415 487h1M415 488h1M424 492h1M423 493h1M427 493h1M422 494h1M427 494h4M421 495h1M428 495h9M428 496h1M423 507h2M422 508h5M422 509h6M421 510h7M420 511h1M422 511h7M421 512h1M423 512h7M420 513h1M422 513h1M424 513h4M421 514h1M423 514h1M425 514h1M422 515h1M424 515h1M421 516h1M423 516h1M422 517h1M421 518h1M431 522h1M431 523h1M431 524h1M432 525h1M433 526h1M436 526h2M434 527h2" />
<path stroke="#632ddc" d="M421 475h1" />
<path stroke="#922b38" d="M448 479h1M448 480h1M448 481h1M446 492h1M446 493h1M447 494h1M448 495h1M449 496h1M450 497h4M437 500h1M438 501h1M439 502h1M440 503h1" />
<path stroke="#e95658" d="M447 481h1M448 482h1M447 483h1M446 484h1M448 484h1M446 485h2M446 486h1M446 487h1M446 488h2M446 489h2M446 490h3M446 491h3M447 492h3M447 493h4M448 494h4M449 495h4M450 496h4M454 497h1" />
<path stroke="rgba(59,43,114,0.9450980392156862)" d="M421 498h1" />
<path stroke="#000000" d="M442 517h1M441 519h1M440 521h1" />
</svg>