<svg xmlns="http://www.w3.org/2000/svg" viewBox="0 -0.5 851 600" shape-rendering="crispEdges">
<metadata>Made with Pixels to Svg https://codepen.io/shshaw/pen/XbxvNj</metadata>
<path stroke="#00405f" d="M314 507h13M338 507h21M370 507h13M312 509h2M327 509h2M336 509h2M344 509h2M351 509h2M359 509h2M368 509h2M383 509h2M312 510h2M344 510h2M351 510h2M383 510h2M310 511h2M329 511h2M334 511h2M342 511h2M353 511h2M361 511h2M366 511h2M385 511h2M310 512h2M329 512h2M334 512h2M342 512h2M353 512h2M361 512h2M366 512h2M385 512h2M308 513h2M329 513h2M334 513h2M340 513h2M355 513h2M361 513h2M366 513h2M387 513h2M308 514h2M329 514h2M334 514h2M340 514h2M355 514h2M361 514h2M366 514h2M387 514h2M306 515h2M329 515h2M334 515h2M338 515h2M357 515h2M361 515h2M366 515h2M389 515h2M306 516h2M329 516h2M334 516h2M338 516h2M357 516h2M361 516h2M366 516h2M389 516h2M304 517h2M329 517h2M334 517h4M359 517h4M366 517h2M391 517h2M304 518h2M329 518h2M334 518h4M359 518h4M366 518h2M391 518h2M302 519h2M329 519h2M334 519h2M361 519h2M366 519h2M393 519h2M329 520h2M334 520h2M366 520h2M329 521h2M334 521h2M366 521h2M329 522h2M334 522h2M366 522h2M302 523h2M329 523h2M334 523h2M361 523h2M366 523h2M393 523h2M302 524h2M329 524h2M334 524h2M361 524h2M366 524h2M393 524h2M304 525h2M329 525h2M334 525h4M359 525h4M366 525h2M391 525h2M304 526h2M329 526h2M334 526h4M359 526h4M366 526h2M391 526h2M306 527h2M329 527h2M334 527h2M338 527h2M357 527h2M361 527h2M366 527h2M389 527h2M306 528h2M329 528h2M334 528h2M338 528h2M357 528h2M361 528h2M366 528h2M389 528h2M308 529h2M329 529h2M334 529h2M340 529h2M355 529h2M361 529h2M366 529h2M387 529h2M308 530h2M329 530h2M334 530h2M340 530h2M355 530h2M361 530h2M366 530h2M387 530h2M310 531h2M329 531h2M334 531h2M342 531h2M353 531h2M361 531h2M366 531h2M385 531h2M310 532h2M329 532h2M334 532h2M342 532h2M353 532h2M361 532h2M366 532h2M385 532h2M312 533h2M327 533h1M337 533h1M344 533h2M351 533h2M359 533h1M369 533h1M383 533h2M312 534h2M327 534h2M336 534h2M344 534h2M351 534h2M359 534h2M368 534h2M383 534h2M314 536h13M338 536h21M370 536h13" />
<path stroke="#003c55" d="M314 508h13M338 508h21M370 508h13M327 510h2M336 510h2M359 510h2M368 510h2M302 520h2M361 520h2M393 520h2M302 521h2M361 521h2M393 521h2M302 522h2M361 522h2M393 522h2M328 533h1M336 533h1M360 533h1M368 533h1M314 535h13M338 535h21M370 535h13" />
<path stroke="rgba(255,225,255,0.32941176470588235)" d="M311 509h1M310 510h2M334 510h2M366 510h2M309 511h1M332 511h2M364 511h2M308 512h2M332 512h2M364 512h2M307 513h1M332 513h2M364 513h2M306 514h2M332 514h2M364 514h2M305 515h1M332 515h2M364 515h2M304 516h2M332 516h2M364 516h2M303 517h1M332 517h2M364 517h2M302 518h2M332 518h2M364 518h2M301 519h1M332 519h2M364 519h2M300 520h2M332 520h2M364 520h2M300 521h2M332 521h2M364 521h2M300 522h2M332 522h2M364 522h2M300 523h2M332 523h2M364 523h2M300 524h2M332 524h2M364 524h2M301 525h3M332 525h2M364 525h2M301 526h3M332 526h2M364 526h2M302 527h4M332 527h2M364 527h2M303 528h3M332 528h2M364 528h2M304 529h4M332 529h2M364 529h2M305 530h3M332 530h2M364 530h2M306 531h4M332 531h2M364 531h2M307 532h3M332 532h2M364 532h2M308 533h4M329 533h1M332 533h4M361 533h1M364 533h4M309 534h3M329 534h1M332 534h4M361 534h1M365 534h3M385 534h1M310 535h4M327 535h2M333 535h5M359 535h2M366 535h4M383 535h2M311 536h3M327 536h2M334 536h4M359 536h2M367 536h3M383 536h2M312 537h15M335 537h24M368 537h15M313 538h14M336 538h23M369 538h14" />
<path stroke="#abfaff" d="M314 509h13M346 509h5M371 509h12M314 510h13M346 510h5M371 510h12M313 511h15M344 511h9M371 511h14M312 512h17M344 512h9M371 512h14M310 513h19M342 513h13M371 513h16M310 514h19M342 514h13M371 514h16M308 515h21M340 515h17M371 515h18M308 516h21M340 516h17M371 516h18M307 517h22M338 517h21M371 517h20M307 518h22M338 518h21M371 518h20M307 519h22M336 519h25M371 519h22M307 520h21M336 520h25M371 520h22M307 521h21M336 521h25M371 521h22M307 522h21M336 522h25M371 522h22M308 523h20M336 523h25M371 523h22M309 524h19M336 524h25M371 524h22M310 525h18M338 525h21M371 525h20M311 526h17M338 526h21M371 526h20M312 527h16M340 527h17M371 527h18M313 528h15M340 528h17M371 528h16M314 529h15M342 529h13M371 529h15M315 530h14M342 530h13M371 530h14M316 531h13M344 531h9M372 531h12M344 532h9M346 533h5M346 534h5" />
<path stroke="#5e9eb4" d="M338 509h6M353 509h6M370 509h1M338 510h6M353 510h6M370 510h1M336 511h6M355 511h6M368 511h3M336 512h6M355 512h6M368 512h3M336 513h4M357 513h4M368 513h3M336 514h4M357 514h4M368 514h3M336 515h2M359 515h2M368 515h3M336 516h2M359 516h2M368 516h3M306 517h1M368 517h3M306 518h1M368 518h3M304 519h3M368 519h3M304 520h3M368 520h3M304 521h3M368 521h3M304 522h3M368 522h3M304 523h4M368 523h3M304 524h5M368 524h3M306 525h4M368 525h3M306 526h5M368 526h3M308 527h4M336 527h2M359 527h2M368 527h3M308 528h5M336 528h2M359 528h2M368 528h3M387 528h2M310 529h4M336 529h4M357 529h4M368 529h3M386 529h1M310 530h5M336 530h4M357 530h4M368 530h3M385 530h2M312 531h4M336 531h6M355 531h6M368 531h4M384 531h1M312 532h17M336 532h6M355 532h6M368 532h17M314 533h13M338 533h6M353 533h6M370 533h13M314 534h13M338 534h6M353 534h6M370 534h13" />
<path stroke="#9ff2ff" d="M328 511h1M328 520h1M328 521h1M328 522h1M328 523h1M328 524h1M328 525h1M328 526h1M328 527h1M328 528h1" />
</svg>