<svg xmlns="http://www.w3.org/2000/svg" viewBox="0 -0.5 99 68" shape-rendering="crispEdges">
<metadata>Made with Pixels to Svg https://codepen.io/shshaw/pen/XbxvNj</metadata>
<path stroke="#003c55" d="M15 20h13M39 20h21M71 20h13M13 22h2M28 22h2M37 22h2M45 22h2M52 22h2M60 22h2M69 22h2M84 22h2M13 23h2M45 23h2M52 23h2M84 23h2M11 24h2M30 24h2M35 24h2M43 24h2M54 24h2M62 24h2M67 24h2M86 24h2M11 25h2M30 25h2M35 25h2M43 25h2M54 25h2M62 25h2M67 25h2M86 25h2M9 26h2M30 26h2M35 26h2M41 26h2M56 26h2M62 26h2M67 26h2M88 26h2M9 27h2M30 27h2M35 27h2M41 27h2M56 27h2M62 27h2M67 27h2M88 27h2M7 28h2M30 28h2M35 28h2M39 28h2M58 28h2M62 28h2M67 28h2M90 28h2M7 29h2M30 29h2M35 29h2M39 29h2M58 29h2M62 29h2M67 29h2M90 29h2M5 30h2M30 30h2M35 30h4M60 30h4M67 30h2M92 30h2M5 31h2M30 31h2M35 31h4M60 31h4M67 31h2M92 31h2M3 32h2M30 32h2M35 32h2M62 32h2M67 32h2M94 32h2M30 33h2M35 33h2M67 33h2M30 34h2M35 34h2M67 34h2M30 35h2M35 35h2M67 35h2M3 36h2M30 36h2M35 36h2M62 36h2M67 36h2M94 36h2M3 37h2M30 37h2M35 37h2M62 37h2M67 37h2M94 37h2M5 38h2M30 38h2M35 38h4M60 38h4M67 38h2M92 38h2M5 39h2M30 39h2M35 39h4M60 39h4M67 39h2M92 39h2M7 40h2M30 40h2M35 40h2M39 40h2M58 40h2M62 40h2M67 40h2M90 40h2M7 41h2M30 41h2M35 41h2M39 41h2M58 41h2M62 41h2M67 41h2M90 41h2M9 42h2M30 42h2M35 42h2M41 42h2M56 42h2M62 42h2M67 42h2M88 42h2M9 43h2M30 43h2M35 43h2M41 43h2M56 43h2M62 43h2M67 43h2M88 43h2M11 44h2M30 44h2M35 44h2M43 44h2M54 44h2M62 44h2M67 44h2M86 44h2M11 45h2M30 45h2M35 45h2M43 45h2M54 45h2M62 45h2M67 45h2M86 45h2M13 46h2M28 46h1M38 46h1M45 46h2M52 46h2M60 46h1M70 46h1M84 46h2M13 47h2M28 47h2M37 47h2M45 47h2M52 47h2M60 47h2M69 47h2M84 47h2M15 49h13M39 49h21M71 49h13" />
<path stroke="#00394c" d="M15 21h13M39 21h21M71 21h13M28 23h2M37 23h2M60 23h2M69 23h2M3 33h2M62 33h2M94 33h2M3 34h2M62 34h2M94 34h2M3 35h2M62 35h2M94 35h2M29 46h1M37 46h1M61 46h1M69 46h1M15 48h13M39 48h21M71 48h13" />
<path stroke="rgba(255,212,252,0.32941176470588235)" d="M12 22h1M11 23h2M35 23h2M67 23h2M10 24h1M33 24h2M65 24h2M9 25h2M33 25h2M65 25h2M8 26h1M33 26h2M65 26h2M7 27h2M33 27h2M65 27h2M6 28h1M33 28h2M65 28h2M5 29h2M33 29h2M65 29h2M4 30h1M33 30h2M65 30h2M3 31h2M33 31h2M65 31h2M2 32h1M33 32h2M65 32h2M1 33h2M33 33h2M65 33h2M1 34h2M33 34h2M65 34h2M1 35h2M33 35h2M65 35h2M1 36h2M33 36h2M65 36h2M1 37h2M33 37h2M65 37h2M2 38h3M33 38h2M65 38h2M2 39h3M33 39h2M65 39h2M3 40h4M33 40h2M65 40h2M4 41h3M33 41h2M65 41h2M5 42h4M33 42h2M65 42h2M6 43h3M33 43h2M65 43h2M7 44h4M33 44h2M65 44h2M8 45h3M33 45h2M65 45h2M9 46h4M30 46h1M33 46h4M62 46h1M65 46h4M10 47h3M30 47h1M33 47h4M62 47h1M66 47h3M86 47h1M11 48h4M28 48h2M34 48h5M60 48h2M67 48h4M84 48h2M12 49h3M28 49h2M35 49h4M60 49h2M68 49h3M84 49h2M13 50h15M36 50h24M69 50h15M14 51h14M37 51h23M70 51h14" />
<path stroke="#9ff2ff" d="M15 22h13M47 22h5M72 22h12M15 23h13M47 23h5M72 23h12M14 24h15M45 24h9M72 24h14M13 25h17M45 25h9M72 25h14M11 26h19M43 26h13M72 26h16M11 27h19M43 27h13M72 27h16M9 28h21M41 28h17M72 28h18M9 29h21M41 29h17M72 29h18M8 30h22M39 30h21M72 30h20M8 31h22M39 31h21M72 31h20M8 32h22M37 32h25M72 32h22M8 33h21M37 33h25M72 33h22M8 34h21M37 34h25M72 34h22M8 35h21M37 35h25M72 35h22M9 36h20M37 36h25M72 36h22M10 37h19M37 37h25M72 37h22M11 38h18M39 38h21M72 38h20M12 39h17M39 39h21M72 39h20M13 40h16M41 40h17M72 40h18M14 41h15M41 41h17M72 41h16M15 42h15M43 42h13M72 42h15M16 43h14M43 43h13M72 43h14M17 44h13M45 44h9M73 44h12M45 45h9M47 46h5M47 47h5" />
<path stroke="#608d9d" d="M39 22h6M54 22h6M71 22h1M39 23h6M54 23h6M71 23h1M37 24h6M56 24h6M69 24h3M37 25h6M56 25h6M69 25h3M37 26h4M58 26h4M69 26h3M37 27h4M58 27h4M69 27h3M37 28h2M60 28h2M69 28h3M37 29h2M60 29h2M69 29h3M7 30h1M69 30h3M7 31h1M69 31h3M5 32h3M69 32h3M5 33h3M69 33h3M5 34h3M69 34h3M5 35h3M69 35h3M5 36h4M69 36h3M5 37h5M69 37h3M7 38h4M69 38h3M7 39h5M69 39h3M9 40h4M37 40h2M60 40h2M69 40h3M9 41h5M37 41h2M60 41h2M69 41h3M88 41h2M11 42h4M37 42h4M58 42h4M69 42h3M87 42h1M11 43h5M37 43h4M58 43h4M69 43h3M86 43h2M13 44h4M37 44h6M56 44h6M69 44h4M85 44h1M13 45h17M37 45h6M56 45h6M69 45h17M15 46h13M39 46h6M54 46h6M71 46h13M15 47h13M39 47h6M54 47h6M71 47h13" />
<path stroke="#94e4ff" d="M29 24h1M29 33h1M29 34h1M29 35h1M29 36h1M29 37h1M29 38h1M29 39h1M29 40h1M29 41h1" />
</svg>