<svg xmlns="http://www.w3.org/2000/svg" viewBox="0 -0.5 851 600" shape-rendering="crispEdges">
<metadata>Made with Pixels to Svg https://codepen.io/shshaw/pen/XbxvNj</metadata>
<path stroke="rgba(163,183,187,0.25098039215686274)" d="M27 503h791M26 504h1M818 504h1M25 505h1M819 505h1M24 506h1M820 506h1M23 507h1M821 507h1M22 508h1M822 508h1M22 509h1M822 509h1M22 510h1M822 510h1M22 511h1M822 511h1M22 512h1M822 512h1M22 513h1M822 513h1M22 514h1M822 514h1M22 515h1M822 515h1M22 516h1M822 516h1M22 517h1M822 517h1M22 518h1M822 518h1M22 519h1M822 519h1M22 520h1M22 521h1M22 522h1M22 523h1M822 549h1M22 550h1M822 550h1M22 551h1M822 551h1M22 552h1M822 552h1M22 553h1M822 553h1M22 554h1M822 554h1M22 555h1M822 555h1M22 556h1M822 556h1M22 557h1M822 557h1M22 558h1M822 558h1M22 559h1M822 559h1M22 560h1M822 560h1M22 561h1M822 561h1M22 562h1M822 562h1M22 563h1M822 563h1M22 564h1M822 564h1M22 565h1M822 565h1M22 566h1M822 566h1M22 567h1M822 567h1M23 568h1M821 568h1M24 569h1M820 569h1M25 570h1M819 570h1M26 571h1M818 571h1M27 572h791" />
<path stroke="rgba(165,181,186,0.5686274509803921)" d="M27 504h791M26 505h1M818 505h1M25 506h1M819 506h1M24 507h1M820 507h1M23 508h1M821 508h1M23 509h1M821 509h1M23 510h1M821 510h1M23 511h1M821 511h1M23 512h1M821 512h1M23 513h1M821 513h1M23 514h1M821 514h1M23 515h1M821 515h1M23 516h1M821 516h1M23 517h1M821 517h1M23 518h1M821 539h1M821 540h1M821 541h1M821 542h1M821 543h1M821 544h1M821 545h1M821 546h1M821 547h1M821 548h1M23 549h1M821 549h1M23 550h1M821 550h1M23 551h1M821 551h1M23 552h1M821 552h1M23 553h1M821 553h1M23 554h1M821 554h1M23 555h1M821 555h1M23 556h1M821 556h1M23 557h1M821 557h1M23 558h1M821 558h1M23 559h1M821 559h1M23 560h1M821 560h1M23 561h1M821 561h1M23 562h1M821 562h1M23 563h1M821 563h1M23 564h1M821 564h1M23 565h1M821 565h1M23 566h1M821 566h1M23 567h1M821 567h1M24 568h1M820 568h1M25 569h1M819 569h1M26 570h1M818 570h1M27 571h791" />
<path stroke="#032c37" d="M27 505h791M26 506h1M818 506h1M25 507h1M819 507h1M24 508h1M29 508h787M820 508h1M24 509h1M28 509h2M815 509h2M820 509h1M24 510h1M27 510h2M816 510h2M820 510h1M24 511h1M27 511h1M817 511h1M820 511h1M24 512h1M27 512h1M817 512h1M820 512h1M24 513h1M27 513h1M817 513h1M820 513h1M24 514h1M27 514h1M817 514h1M820 514h1M24 515h1M27 515h1M817 515h1M820 515h1M24 516h1M27 516h1M817 516h1M820 516h1M24 517h1M27 517h1M817 517h1M820 517h1M24 518h1M27 518h1M817 518h1M820 518h1M24 519h1M27 519h1M817 519h1M820 519h1M24 520h1M27 520h1M817 520h1M820 520h1M24 521h1M27 521h1M817 521h1M820 521h1M24 522h1M27 522h1M817 522h1M820 522h1M24 523h1M27 523h1M817 523h1M820 523h1M24 524h1M27 524h1M817 524h1M820 524h1M24 525h1M27 525h1M817 525h1M820 525h1M24 526h1M27 526h1M817 526h1M820 526h1M24 527h1M27 527h1M817 527h1M820 527h1M24 528h1M27 528h1M817 528h1M820 528h1M24 529h1M27 529h1M817 529h1M820 529h1M24 530h1M27 530h1M817 530h1M820 530h1M24 531h1M27 531h1M817 531h1M820 531h1M24 532h1M27 532h1M817 532h1M820 532h1M24 533h1M27 533h1M817 533h1M820 533h1M24 534h1M27 534h1M817 534h1M820 534h1M24 535h1M27 535h1M817 535h1M820 535h1M24 536h1M27 536h1M817 536h1M820 536h1M24 537h1M27 537h1M817 537h1M820 537h1M24 538h1M27 538h1M817 538h1M820 538h1M24 539h1M27 539h1M817 539h1M820 539h1M24 540h1M27 540h1M817 540h1M820 540h1M24 541h1M27 541h1M817 541h1M820 541h1M24 542h1M27 542h1M817 542h1M820 542h1M24 543h1M27 543h1M817 543h1M820 543h1M24 544h1M27 544h1M817 544h1M820 544h1M24 545h1M27 545h1M817 545h1M820 545h1M24 546h1M27 546h1M817 546h1M820 546h1M24 547h1M27 547h1M817 547h1M820 547h1M24 548h1M27 548h1M817 548h1M820 548h1M24 549h1M27 549h1M817 549h1M820 549h1M24 550h1M27 550h1M817 550h1M820 550h1M24 551h1M27 551h1M817 551h1M820 551h1M24 552h1M27 552h1M817 552h1M820 552h1M24 553h1M27 553h1M817 553h1M820 553h1M24 554h1M27 554h1M817 554h1M820 554h1M24 555h1M27 555h1M817 555h1M820 555h1M24 556h1M27 556h1M817 556h1M820 556h1M24 557h1M27 557h1M817 557h1M820 557h1M24 558h1M27 558h1M817 558h1M820 558h1M24 559h1M27 559h1M817 559h1M820 559h1M24 560h1M27 560h1M817 560h1M820 560h1M24 561h1M27 561h1M817 561h1M820 561h1M24 562h1M27 562h1M817 562h1M820 562h1M24 563h1M27 563h1M817 563h1M820 563h1M24 564h1M27 564h1M817 564h1M820 564h1M24 565h1M27 565h2M816 565h2M820 565h1M24 566h1M28 566h2M815 566h2M820 566h1M24 567h1M29 567h787M820 567h1M25 568h1M819 568h1M26 569h1M818 569h1M27 570h791" />
<path stroke="#044858" d="M27 506h791M26 507h1M818 507h1M25 508h1M27 508h2M816 508h2M819 508h1M25 509h1M27 509h1M817 509h1M819 509h1M25 510h1M819 510h1M25 511h1M819 511h1M25 512h1M819 512h1M25 513h1M819 513h1M25 514h1M819 514h1M25 515h1M819 515h1M25 516h1M819 516h1M25 517h1M819 517h1M25 518h1M819 518h1M25 519h1M819 519h1M25 520h1M819 520h1M25 521h1M819 521h1M25 522h1M819 522h1M25 523h1M819 523h1M25 524h1M819 524h1M25 525h1M819 525h1M25 526h1M819 526h1M25 527h1M819 527h1M25 528h1M819 528h1M25 529h1M819 529h1M25 530h1M819 530h1M25 531h1M819 531h1M25 532h1M819 532h1M25 533h1M819 533h1M25 534h1M819 534h1M25 535h1M819 535h1M25 536h1M819 536h1M25 537h1M819 537h1M25 538h1M819 538h1M25 539h1M819 539h1M25 540h1M819 540h1M25 541h1M819 541h1M25 542h1M819 542h1M25 543h1M819 543h1M25 544h1M819 544h1M25 545h1M819 545h1M25 546h1M819 546h1M25 547h1M819 547h1M25 548h1M819 548h1M25 549h1M819 549h1M25 550h1M819 550h1M25 551h1M819 551h1M25 552h1M819 552h1M25 553h1M819 553h1M25 554h1M819 554h1M25 555h1M819 555h1M25 556h1M819 556h1M25 557h1M819 557h1M25 558h1M819 558h1M25 559h1M819 559h1M25 560h1M819 560h1M25 561h1M819 561h1M25 562h1M819 562h1M25 563h1M819 563h1M25 564h1M819 564h1M25 565h1M819 565h1M25 566h1M27 566h1M817 566h1M819 566h1M25 567h1M27 567h2M816 567h2M819 567h1M26 568h1M818 568h1M27 569h791" />
<path stroke="#7fc4cb" d="M27 507h791M26 508h1M818 508h1M26 509h1M818 509h1M26 510h1M818 510h1M26 511h1M818 511h1M26 512h1M818 512h1M26 513h1M818 513h1M26 514h1M818 514h1M26 515h1M818 515h1M26 516h1M818 516h1M26 517h1M818 517h1M26 518h1M818 518h1M26 519h1M818 519h1M26 520h1M818 520h1M26 521h1M818 521h1M26 522h1M818 522h1M26 523h1M818 523h1M26 524h1M818 524h1M26 525h1M818 525h1M26 526h1M818 526h1M26 527h1M818 527h1M26 528h1M818 528h1M26 529h1M818 529h1M26 530h1M818 530h1M26 531h1M818 531h1M26 532h1M818 532h1M26 533h1M818 533h1M26 534h1M818 534h1M26 535h1M818 535h1M26 536h1M818 536h1M26 537h1M818 537h1M26 538h1M818 538h1M26 539h1M818 539h1M26 540h1M818 540h1M26 541h1M818 541h1M26 542h1M818 542h1M26 543h1M818 543h1M26 544h1M818 544h1M26 545h1M818 545h1M26 546h1M818 546h1M26 547h1M818 547h1M26 548h1M818 548h1M26 549h1M818 549h1M26 550h1M818 550h1M26 551h1M818 551h1M26 552h1M818 552h1M26 553h1M818 553h1M26 554h1M818 554h1M26 555h1M818 555h1M26 556h1M818 556h1M26 557h1M818 557h1M26 558h1M818 558h1M26 559h1M818 559h1M26 560h1M818 560h1M26 561h1M818 561h1M26 562h1M818 562h1M26 563h1M818 563h1M26 564h1M818 564h1M26 565h1M818 565h1M26 566h1M818 566h1M26 567h1M818 567h1M27 568h791" />
<path stroke="rgba(175,228,232,0.7019607843137254)" d="M30 509h785M29 510h787M28 511h789M28 512h789M28 513h789M28 514h789M28 515h789M28 516h789M28 517h19M57 517h120M187 517h340M536 517h281M28 518h18M57 518h120M188 518h339M536 518h281M28 519h19M59 519h118M189 519h32M224 519h1M227 519h34M264 519h1M267 519h258M536 519h281M28 520h20M51 520h5M59 520h120M182 520h4M190 520h31M224 520h1M228 520h33M264 520h1M268 520h257M528 520h289M28 521h20M51 521h5M59 521h120M182 521h4M190 521h31M224 521h1M227 521h34M264 521h1M267 521h258M528 521h289M28 522h20M51 522h5M59 522h120M182 522h4M190 522h335M528 522h289M28 523h20M59 523h1M66 523h1M74 523h1M81 523h1M85 523h1M91 523h1M96 523h1M102 523h3M109 523h12M127 523h1M136 523h3M147 523h1M155 523h1M162 523h1M168 523h11M189 523h6M201 523h1M207 523h1M212 523h2M218 523h3M226 523h9M239 523h3M249 523h1M253 523h1M258 523h3M266 523h7M283 523h3M291 523h3M306 523h1M317 523h1M324 523h1M330 523h1M341 523h3M350 523h4M362 523h5M374 523h3M383 523h1M389 523h3M396 523h3M407 523h3M418 523h2M426 523h1M432 523h3M443 523h11M458 523h2M464 523h3M473 523h3M487 523h2M497 523h6M511 523h5M521 523h4M534 523h5M545 523h3M558 523h3M565 523h7M576 523h3M589 523h8M603 523h3M613 523h1M618 523h3M626 523h11M643 523h6M659 523h1M668 523h3M676 523h1M695 523h3M704 523h3M713 523h1M721 523h96M28 524h20M57 524h2M66 524h1M81 524h1M85 524h1M96 524h1M102 524h3M110 524h10M127 524h1M136 524h3M155 524h1M168 524h11M188 524h7M207 524h1M218 524h3M226 524h9M240 524h2M249 524h1M253 524h1M259 524h2M266 524h7M284 524h2M291 524h2M317 524h1M330 524h1M342 524h2M351 524h2M362 524h5M374 524h2M383 524h1M389 524h2M396 524h3M408 524h2M426 524h1M432 524h2M443 524h11M464 524h3M474 524h2M487 524h2M498 524h5M511 524h5M521 524h4M534 524h4M545 524h3M558 524h2M565 524h7M577 524h2M590 524h7M603 524h3M619 524h2M626 524h11M644 524h5M659 524h1M669 524h2M676 524h1M695 524h2M704 524h3M721 524h96M28 525h20M59 525h1M66 525h1M74 525h1M81 525h1M85 525h1M91 525h1M96 525h1M102 525h3M111 525h8M127 525h1M136 525h3M147 525h1M155 525h1M168 525h11M189 525h6M201 525h1M207 525h1M218 525h1M227 525h6M241 525h1M249 525h1M253 525h1M258 525h1M267 525h6M293 525h1M306 525h1M317 525h1M330 525h1M351 525h2M362 525h5M376 525h1M383 525h1M389 525h1M398 525h1M409 525h1M419 525h1M432 525h2M443 525h11M464 525h1M475 525h1M487 525h2M497 525h6M513 525h3M522 525h3M536 525h1M547 525h1M558 525h3M567 525h3M578 525h1M590 525h5M605 525h1M618 525h3M628 525h7M644 525h5M659 525h1M670 525h1M676 525h1M695 525h1M706 525h1M721 525h59M785 525h11M801 525h16M28 526h20M51 526h5M59 526h2M64 526h5M72 526h4M79 526h3M85 526h1M89 526h4M96 526h1M100 526h8M111 526h7M122 526h2M127 526h3M136 526h3M142 526h1M146 526h6M155 526h3M166 526h13M182 526h4M190 526h7M200 526h2M205 526h5M216 526h3M222 526h3M228 526h5M236 526h2M241 526h3M247 526h3M253 526h1M257 526h2M262 526h3M268 526h5M276 526h1M287 526h3M293 526h2M298 526h3M304 526h4M311 526h1M315 526h5M328 526h3M334 526h1M345 526h3M351 526h2M356 526h1M360 526h13M376 526h2M381 526h3M387 526h2M393 526h2M398 526h3M404 526h2M410 526h2M415 526h1M419 526h2M424 526h1M430 526h4M437 526h1M441 526h15M462 526h3M468 526h4M479 526h1M483 526h1M487 526h2M492 526h1M496 526h9M508 526h2M513 526h7M523 526h2M528 526h5M540 526h4M547 526h1M558 526h6M567 526h3M573 526h2M578 526h1M582 526h1M590 526h5M598 526h4M605 526h3M611 526h2M617 526h8M628 526h7M638 526h3M644 526h5M659 526h3M665 526h2M671 526h2M676 526h3M682 526h4M689 526h1M693 526h2M699 526h4M706 526h3M719 526h61M785 526h11M801 526h16M28 527h20M51 527h5M59 527h2M68 527h1M72 527h4M79 527h3M85 527h1M89 527h4M100 527h5M111 527h7M122 527h2M127 527h3M136 527h3M146 527h4M155 527h3M166 527h13M182 527h4M190 527h7M205 527h5M216 527h3M228 527h5M241 527h3M247 527h3M253 527h1M257 527h2M268 527h5M276 527h1M280 527h1M283 527h1M293 527h2M298 527h3M304 527h4M311 527h1M315 527h5M328 527h3M334 527h1M338 527h1M341 527h1M345 527h3M350 527h4M360 527h9M376 527h2M387 527h2M398 527h3M404 527h2M410 527h2M415 527h1M418 527h3M430 527h5M441 527h15M462 527h3M468 527h4M479 527h1M483 527h1M487 527h2M496 527h9M508 527h2M513 527h3M523 527h2M528 527h5M540 527h4M547 527h1M558 527h3M567 527h3M578 527h1M582 527h1M586 527h1M589 527h6M598 527h4M605 527h3M617 527h4M628 527h7M638 527h3M643 527h6M659 527h3M665 527h2M671 527h2M676 527h1M682 527h4M689 527h1M693 527h2M699 527h4M706 527h3M719 527h59M787 527h7M801 527h16M28 528h20M51 528h5M59 528h2M68 528h1M72 528h4M79 528h3M85 528h1M89 528h4M98 528h7M111 528h7M122 528h8M135 528h6M146 528h4M153 528h5M166 528h13M182 528h4M190 528h7M205 528h5M215 528h4M228 528h5M241 528h3M247 528h3M253 528h1M257 528h2M268 528h9M280 528h4M293 528h2M298 528h3M304 528h4M311 528h1M315 528h5M328 528h7M338 528h4M345 528h10M360 528h9M376 528h2M387 528h2M398 528h3M404 528h2M410 528h2M415 528h6M426 528h1M430 528h6M441 528h16M461 528h4M468 528h4M476 528h4M483 528h8M496 528h9M508 528h2M513 528h3M523 528h2M528 528h5M540 528h4M547 528h4M555 528h5M567 528h3M578 528h5M586 528h9M598 528h4M605 528h3M617 528h4M628 528h7M638 528h14M656 528h6M665 528h2M671 528h2M676 528h1M680 528h6M689 528h1M693 528h2M699 528h4M706 528h3M715 528h1M719 528h59M787 528h7M801 528h16M28 529h20M51 529h5M59 529h2M68 529h1M72 529h4M79 529h3M85 529h1M89 529h4M100 529h3M111 529h7M122 529h8M136 529h3M146 529h4M155 529h3M162 529h1M166 529h13M182 529h4M190 529h7M205 529h5M216 529h3M227 529h6M241 529h3M247 529h3M253 529h1M257 529h2M267 529h10M280 529h4M293 529h2M298 529h3M304 529h4M311 529h1M315 529h5M324 529h1M328 529h7M338 529h4M345 529h9M360 529h9M376 529h2M387 529h2M398 529h3M404 529h2M410 529h2M415 529h6M426 529h1M430 529h5M441 529h15M462 529h3M468 529h4M476 529h4M483 529h6M496 529h9M508 529h2M513 529h1M523 529h2M528 529h5M540 529h4M547 529h4M555 529h4M567 529h3M578 529h5M586 529h9M598 529h4M605 529h3M617 529h2M628 529h7M638 529h14M656 529h6M665 529h2M671 529h2M680 529h4M689 529h1M693 529h2M699 529h4M706 529h3M715 529h1M719 529h59M789 529h3M801 529h16M28 530h19M59 530h1M73 530h2M90 530h2M101 530h2M112 530h6M126 530h3M136 530h2M142 530h1M147 530h2M155 530h2M162 530h1M167 530h3M171 530h7M190 530h6M201 530h1M206 530h3M217 530h2M227 530h6M240 530h3M258 530h1M267 530h9M281 530h3M292 530h2M299 530h2M305 530h2M311 530h1M316 530h3M324 530h1M329 530h5M339 530h3M350 530h2M356 530h1M361 530h7M376 530h1M382 530h2M388 530h1M397 530h4M410 530h1M416 530h4M425 530h2M431 530h2M437 530h1M442 530h3M448 530h7M463 530h2M476 530h3M484 530h4M492 530h1M497 530h8M513 530h1M524 530h1M547 530h4M555 530h3M568 530h2M577 530h5M587 530h8M605 530h2M612 530h1M618 530h1M629 530h6M643 530h9M656 530h6M671 530h4M680 530h4M694 530h1M706 530h2M715 530h1M720 530h3M724 530h54M789 530h3M801 530h16M28 531h18M58 531h1M102 531h2M113 531h6M127 531h1M136 531h1M142 531h1M155 531h1M168 531h1M172 531h5M189 531h6M207 531h1M218 531h2M228 531h6M241 531h1M259 531h1M268 531h7M282 531h3M300 531h1M310 531h2M317 531h1M330 531h3M340 531h3M356 531h1M362 531h5M375 531h1M383 531h1M389 531h1M398 531h3M409 531h1M417 531h2M426 531h1M437 531h1M443 531h1M449 531h5M464 531h2M475 531h3M485 531h2M492 531h1M498 531h7M512 531h3M525 531h1M535 531h2M546 531h4M556 531h3M569 531h2M578 531h3M588 531h8M604 531h2M619 531h1M630 531h6M644 531h7M657 531h5M670 531h5M679 531h5M695 531h1M705 531h2M715 531h1M721 531h1M725 531h53M801 531h16M28 532h18M57 532h2M98 532h1M102 532h3M113 532h7M127 532h1M136 532h1M142 532h1M155 532h1M168 532h1M172 532h5M188 532h7M207 532h1M218 532h3M228 532h7M241 532h1M259 532h2M268 532h7M282 532h4M300 532h1M310 532h2M317 532h1M330 532h3M340 532h4M356 532h1M362 532h5M374 532h2M383 532h1M389 532h2M398 532h3M408 532h2M417 532h2M426 532h1M437 532h1M443 532h1M449 532h5M464 532h3M474 532h4M485 532h2M492 532h1M498 532h7M511 532h5M525 532h2M534 532h4M545 532h5M556 532h4M569 532h3M578 532h3M588 532h9M603 532h3M619 532h2M630 532h7M644 532h7M657 532h5M669 532h6M678 532h6M695 532h2M704 532h3M715 532h1M721 532h1M725 532h55M799 532h18M28 533h19M56 533h4M73 533h2M90 533h2M97 533h3M101 533h5M112 533h9M126 533h3M135 533h3M141 533h3M147 533h2M154 533h3M162 533h2M167 533h3M171 533h7M187 533h9M201 533h2M206 533h3M214 533h2M217 533h5M227 533h9M240 533h3M259 533h3M267 533h9M281 533h6M292 533h2M299 533h3M305 533h2M309 533h4M316 533h3M324 533h2M329 533h5M339 533h6M350 533h2M355 533h3M361 533h7M373 533h4M382 533h3M388 533h4M397 533h4M407 533h4M416 533h4M425 533h3M431 533h2M436 533h3M442 533h3M449 533h6M458 533h2M463 533h5M473 533h6M484 533h4M491 533h3M497 533h8M510 533h7M524 533h4M533 533h6M544 533h7M555 533h6M568 533h5M577 533h5M587 533h11M602 533h5M612 533h2M618 533h4M629 533h9M643 533h9M656 533h6M668 533h7M678 533h6M695 533h3M703 533h5M711 533h2M714 533h3M720 533h3M724 533h56M799 533h18M28 534h227M259 534h141M405 534h40M449 534h55M509 534h152M666 534h6M678 534h6M687 534h5M695 534h87M797 534h20M28 535h228M258 535h141M406 535h38M448 535h55M510 535h150M667 535h4M677 535h8M686 535h7M694 535h88M797 535h20M28 536h371M406 536h38M447 536h56M509 536h151M667 536h4M676 536h108M795 536h22M28 537h756M795 537h22M28 538h756M795 538h22M28 539h754M797 539h20M28 540h754M797 540h20M28 541h752M799 541h18M28 542h752M789 542h3M799 542h18M28 543h750M789 543h3M801 543h16M28 544h750M787 544h7M801 544h16M28 545h750M787 545h7M801 545h16M28 546h750M785 546h11M801 546h16M28 547h750M785 547h11M801 547h16M28 548h789M28 549h789M28 550h789M28 551h789M28 552h789M28 553h789M28 554h789M28 555h789M28 556h789M28 557h789M28 558h789M28 559h789M28 560h789M28 561h789M28 562h789M28 563h789M28 564h789M29 565h787M30 566h785" />
<path stroke="rgba(119,175,179,0.8)" d="M47 517h9M178 517h9M528 517h7M527 518h1M535 518h1M57 519h1M187 519h2M222 519h1M226 519h1M262 519h1M266 519h1M526 519h1M181 520h1M223 520h1M263 520h1M525 520h1M181 521h1M221 521h1M261 521h1M525 521h1M181 522h1M525 522h1M58 523h1M67 523h1M82 523h1M84 523h1M86 523h1M101 523h1M126 523h1M139 523h1M154 523h1M221 523h1M248 523h1M261 523h1M273 523h1M290 523h1M305 523h1M316 523h1M331 523h1M344 523h1M361 523h1M373 523h1M384 523h1M388 523h1M399 523h1M410 523h1M427 523h1M431 523h1M442 523h1M467 523h1M489 523h1M516 523h1M525 523h1M544 523h1M579 523h1M606 523h1M625 523h1M637 523h1M660 523h1M675 523h1M677 523h1M703 523h1M720 523h1M73 524h1M90 524h1M97 524h1M148 524h1M163 524h1M202 524h1M225 524h1M242 524h1M252 524h1M265 524h1M286 524h1M325 524h1M367 524h1M476 524h1M486 524h1M520 524h1M525 524h1M533 524h1M612 524h1M621 524h1M671 524h1M683 524h2M694 524h1M714 524h1M58 525h1M67 525h1M97 525h1M101 525h1M202 525h1M219 525h1M248 525h1M252 525h1M259 525h1M305 525h1M316 525h1M342 525h1M361 525h1M388 525h1M397 525h1M399 525h1M410 525h1M431 525h1M442 525h1M465 525h1M476 525h1M486 525h1M516 525h1M525 525h1M546 525h1M566 525h1M606 525h1M635 525h1M660 525h1M677 525h1M705 525h1M714 525h1M720 525h1M88 526h1M97 526h1M124 526h1M141 526h1M181 526h1M202 526h1M235 526h1M244 526h1M252 526h1M279 526h1M284 526h1M292 526h1M312 526h1M337 526h1M357 526h1M375 526h1M395 526h1M403 526h1M414 526h1M425 526h1M438 526h1M476 526h1M486 526h1M491 526h1M510 526h1M525 526h1M535 526h1M550 526h1M555 526h1M564 526h1M572 526h1M585 526h1M597 526h1M602 526h1M610 526h1M627 526h1M651 526h1M656 526h1M664 526h1M673 526h1M681 526h1M686 526h1M692 526h1M714 526h1M88 527h1M98 527h1M125 527h1M134 527h1M140 527h1M153 527h1M162 527h1M181 527h1M214 527h1M244 527h1M252 527h1M274 527h1M279 527h1M281 527h2M284 527h1M292 527h1M312 527h1M324 527h1M332 527h1M337 527h1M339 527h2M349 527h1M354 527h1M375 527h1M403 527h1M414 527h1M417 527h1M426 527h1M435 527h1M457 527h1M460 527h1M477 527h1M485 527h1M490 527h1M510 527h1M525 527h1M535 527h1M549 527h1M556 527h1M580 527h1M585 527h1M587 527h2M597 527h1M602 527h1M627 527h1M642 527h1M650 527h1M657 527h1M664 527h1M673 527h1M680 527h1M686 527h1M692 527h1M711 527h2M715 527h1M88 528h1M150 528h1M163 528h1M181 528h1M244 528h1M252 528h1M279 528h1M284 528h1M292 528h1M312 528h1M325 528h1M337 528h1M355 528h1M369 528h1M375 528h1M403 528h1M414 528h1M436 528h1M510 528h1M525 528h1M535 528h1M585 528h1M597 528h1M602 528h1M621 528h1M627 528h1M664 528h1M673 528h1M679 528h1M686 528h1M692 528h1M716 528h1M64 529h1M88 529h1M96 529h1M106 529h3M132 529h2M142 529h1M151 529h1M160 529h2M163 529h1M181 529h1M199 529h3M212 529h2M222 529h5M236 529h4M244 529h1M252 529h1M262 529h5M279 529h1M284 529h1M287 529h5M312 529h1M322 529h2M325 529h1M337 529h1M356 529h1M370 529h3M375 529h1M381 529h3M392 529h5M403 529h1M414 529h1M424 529h1M437 529h1M458 529h2M492 529h1M510 529h1M517 529h3M525 529h1M535 529h1M561 529h3M573 529h4M585 529h1M597 529h1M602 529h1M611 529h3M622 529h3M627 529h1M664 529h1M674 529h1M679 529h1M687 529h1M692 529h1M716 529h1M65 530h1M88 530h1M97 530h1M105 530h1M141 530h1M163 530h1M181 530h1M202 530h1M235 530h1M244 530h1M252 530h1M279 530h1M284 530h1M312 530h1M325 530h1M337 530h1M357 530h1M375 530h1M403 530h1M414 530h1M438 530h1M491 530h1M510 530h1M525 530h1M535 530h1M564 530h1M572 530h1M585 530h1M597 530h1M602 530h1M610 530h1M619 530h1M627 530h1M664 530h1M679 530h1M684 530h1M692 530h1M716 530h1M73 531h1M90 531h1M141 531h1M148 531h1M163 531h1M171 531h1M202 531h1M215 531h1M242 531h1M286 531h1M292 531h1M312 531h1M325 531h1M357 531h1M367 531h1M416 531h1M438 531h1M478 531h1M484 531h1M491 531h1M527 531h1M533 531h1M612 531h1M621 531h1M629 531h1M684 531h1M694 531h1M716 531h1M724 531h1M73 532h1M90 532h1M141 532h1M148 532h1M163 532h1M171 532h1M202 532h1M215 532h1M242 532h1M286 532h1M292 532h1M312 532h1M325 532h1M357 532h1M367 532h1M416 532h1M438 532h1M478 532h1M484 532h1M491 532h1M527 532h1M533 532h1M612 532h1M621 532h1M629 532h1M684 532h1M694 532h1M716 532h1M724 532h1M403 533h1M664 533h1M684 533h1M694 533h1M403 534h1M664 534h1M684 534h1M694 534h1M405 535h1M446 535h1M666 535h1M671 535h1" />
<path stroke="rgba(151,208,212,0.7411764705882353)" d="M56 517h1M177 517h1M58 519h1M221 519h1M261 519h1M223 521h1M263 521h1M73 523h1M90 523h1M97 523h1M148 523h1M163 523h1M202 523h1M225 523h1M242 523h1M252 523h1M265 523h1M286 523h1M325 523h1M367 523h1M476 523h1M486 523h1M520 523h1M533 523h1M612 523h1M621 523h1M671 523h1M683 523h2M694 523h1M714 523h1M73 525h1M90 525h1M148 525h1M242 525h1M284 525h1M292 525h1M367 525h1M375 525h1M535 525h1M612 525h1M621 525h1M627 525h1M671 525h1M683 525h2M694 525h1M99 527h1M126 527h1M139 527h1M154 527h1M273 527h1M275 527h1M331 527h1M333 527h1M489 527h1M579 527h1M581 527h1M397 529h1M688 529h1" />
<path stroke="rgba(162,218,222,0.7215686274509804)" d="M527 517h1M535 517h1M46 518h1M187 518h1M223 519h1M263 519h1M525 519h1M48 520h1M186 520h1M189 520h1M227 520h1M267 520h1M48 521h1M186 521h1M189 521h1M48 522h1M186 522h1M189 522h1M48 523h1M48 524h1M59 524h1M74 524h1M91 524h1M109 524h1M120 524h1M147 524h1M162 524h1M187 524h1M201 524h1M212 524h2M239 524h1M258 524h1M283 524h1M293 524h1M306 524h1M324 524h1M341 524h1M350 524h1M353 524h1M376 524h1M391 524h1M407 524h1M418 524h2M434 524h1M458 524h2M473 524h1M497 524h1M538 524h1M560 524h1M576 524h1M589 524h1M613 524h1M618 524h1M643 524h1M668 524h1M697 524h1M713 524h1M48 525h1M212 525h2M283 525h1M341 525h1M350 525h1M353 525h1M418 525h1M434 525h1M458 525h2M589 525h1M613 525h1M643 525h1M713 525h1M48 526h1M61 526h1M76 526h1M93 526h1M108 526h1M118 526h1M121 526h1M132 526h2M145 526h1M160 526h2M186 526h1M189 526h1M199 526h1M212 526h2M227 526h1M238 526h1M256 526h1M267 526h1M280 526h1M283 526h1M295 526h1M308 526h1M322 526h2M338 526h1M341 526h1M350 526h1M353 526h1M378 526h1M389 526h1M392 526h1M406 526h1M409 526h1M418 526h1M421 526h1M434 526h1M458 526h2M472 526h1M475 526h1M495 526h1M507 526h1M522 526h1M536 526h1M539 526h1M551 526h1M554 526h1M575 526h1M586 526h1M589 526h1M613 526h1M616 526h1M643 526h1M652 526h1M655 526h1M667 526h1M670 526h1M695 526h1M698 526h1M713 526h1M48 527h1M61 527h1M76 527h1M93 527h1M118 527h1M121 527h1M124 527h1M145 527h1M186 527h1M189 527h1M227 527h1M256 527h1M267 527h1M295 527h1M308 527h1M378 527h1M389 527h1M406 527h1M409 527h1M421 527h1M472 527h1M475 527h2M486 527h1M495 527h1M507 527h1M522 527h1M536 527h1M539 527h1M550 527h2M554 527h2M616 527h1M651 527h2M655 527h2M667 527h1M670 527h1M681 527h1M695 527h1M698 527h1M48 528h1M61 528h1M76 528h1M93 528h1M118 528h1M121 528h1M134 528h1M145 528h1M162 528h1M186 528h1M189 528h1M214 528h1M227 528h1M256 528h1M267 528h1M295 528h1M308 528h1M324 528h1M378 528h1M389 528h1M406 528h1M409 528h1M421 528h1M457 528h1M460 528h1M472 528h1M475 528h1M495 528h1M507 528h1M522 528h1M536 528h1M539 528h1M551 528h1M554 528h1M560 528h1M616 528h1M652 528h1M655 528h1M667 528h1M670 528h1M695 528h1M698 528h1M711 528h2M48 529h1M61 529h1M76 529h1M93 529h1M118 529h1M121 529h1M145 529h1M150 529h1M186 529h1M189 529h1M256 529h1M292 529h1M295 529h1M308 529h1M369 529h1M378 529h1M389 529h1M406 529h1M409 529h1M421 529h1M472 529h1M475 529h1M495 529h1M507 529h1M522 529h1M536 529h1M539 529h1M551 529h1M554 529h1M616 529h1M652 529h1M655 529h1M667 529h1M670 529h1M673 529h1M695 529h1M698 529h1M711 529h2M47 530h2M51 530h5M60 530h2M64 530h1M68 530h1M72 530h1M75 530h2M79 530h3M85 530h1M89 530h1M92 530h2M96 530h1M100 530h1M106 530h3M111 530h1M118 530h1M121 530h5M129 530h1M132 530h2M138 530h1M145 530h2M149 530h3M157 530h1M160 530h2M166 530h1M170 530h1M178 530h1M182 530h5M189 530h1M196 530h1M199 530h2M205 530h1M209 530h1M212 530h2M216 530h1M222 530h5M236 530h4M243 530h1M247 530h3M253 530h1M256 530h2M262 530h5M276 530h1M280 530h1M287 530h5M294 530h2M298 530h1M304 530h1M307 530h2M315 530h1M319 530h1M322 530h2M328 530h1M334 530h1M338 530h1M345 530h5M352 530h2M360 530h1M368 530h5M377 530h2M381 530h1M387 530h1M389 530h1M392 530h5M404 530h3M409 530h1M411 530h1M415 530h1M420 530h2M424 530h1M430 530h1M433 530h2M441 530h1M445 530h3M455 530h1M458 530h2M462 530h1M468 530h5M475 530h1M479 530h1M483 530h1M488 530h1M495 530h2M507 530h3M517 530h3M522 530h2M528 530h5M536 530h1M539 530h5M551 530h1M554 530h1M558 530h1M561 530h3M567 530h1M573 530h4M582 530h1M586 530h1M598 530h4M607 530h1M611 530h1M613 530h1M616 530h2M622 530h3M628 530h1M638 530h5M652 530h1M655 530h1M665 530h3M670 530h1M687 530h3M693 530h1M695 530h1M698 530h5M708 530h1M711 530h2M719 530h1M723 530h1M46 531h1M57 531h1M59 531h1M74 531h1M91 531h1M98 531h1M104 531h1M119 531h2M147 531h1M162 531h1M187 531h2M201 531h1M214 531h1M220 531h1M227 531h1M234 531h1M258 531h1M260 531h1M267 531h1M281 531h1M285 531h1M293 531h1M306 531h1M309 531h1M324 531h1M339 531h1M343 531h1M350 531h2M374 531h1M376 531h1M390 531h2M407 531h2M419 531h1M432 531h1M448 531h1M458 531h2M466 531h1M473 531h2M497 531h1M511 531h1M515 531h1M524 531h1M526 531h1M534 531h1M537 531h2M545 531h1M559 531h2M571 531h1M587 531h1M596 531h1M603 531h1M613 531h1M618 531h1M620 531h1M636 531h1M643 531h1M668 531h2M678 531h1M696 531h2M704 531h1M711 531h2M46 532h1M59 532h1M74 532h1M91 532h1M120 532h1M147 532h1M162 532h1M187 532h1M201 532h1M214 532h1M227 532h1M258 532h1M267 532h1M281 532h1M293 532h1M306 532h1M309 532h1M324 532h1M339 532h1M350 532h2M376 532h1M391 532h1M407 532h1M419 532h1M432 532h1M448 532h1M458 532h2M473 532h1M497 532h1M524 532h1M538 532h1M560 532h1M587 532h1M613 532h1M618 532h1M643 532h1M668 532h1M697 532h1M711 532h2M47 533h9M60 533h13M75 533h15M92 533h5M100 533h1M106 533h6M121 533h5M129 533h6M138 533h3M144 533h3M149 533h5M157 533h5M164 533h3M170 533h1M178 533h9M196 533h5M203 533h3M209 533h5M216 533h1M222 533h5M236 533h4M243 533h13M258 533h1M262 533h5M276 533h5M287 533h5M294 533h5M302 533h3M307 533h2M313 533h3M319 533h5M326 533h3M334 533h5M345 533h5M352 533h3M358 533h3M368 533h5M377 533h5M385 533h3M392 533h5M404 533h3M411 533h5M420 533h5M428 533h3M433 533h3M439 533h3M445 533h1M448 533h1M455 533h3M460 533h3M468 533h5M479 533h5M488 533h3M494 533h3M507 533h3M517 533h7M528 533h5M539 533h5M551 533h4M561 533h7M573 533h4M582 533h5M598 533h4M607 533h5M614 533h4M622 533h7M638 533h5M652 533h4M665 533h3M687 533h5M698 533h5M708 533h3M713 533h1M717 533h3M723 533h1M255 534h1M258 534h1M400 534h1M404 534h1M445 534h1M448 534h1M504 534h1M507 534h2M661 534h1M665 534h1M672 534h3M256 535h2M447 535h1M509 535h1M676 535h1M685 535h1M693 535h1" />
<path stroke="#00383e" d="M47 518h9M178 518h9M528 518h7M49 519h1M180 519h1M49 520h1M57 520h1M180 520h1M187 520h2M222 520h1M226 520h1M262 520h1M266 520h1M526 520h1M49 521h1M57 521h1M180 521h1M187 521h2M526 521h1M49 522h1M57 522h1M180 522h1M187 522h2M526 522h1M49 523h1M180 523h1M526 523h1M49 524h7M60 524h5M68 524h5M75 524h5M83 524h1M87 524h3M92 524h3M98 524h3M106 524h3M121 524h5M129 524h6M140 524h7M149 524h5M157 524h5M164 524h3M180 524h7M196 524h5M203 524h3M209 524h3M214 524h3M222 524h3M236 524h3M243 524h5M251 524h1M255 524h3M262 524h3M274 524h9M287 524h3M294 524h11M307 524h9M319 524h5M326 524h3M332 524h9M345 524h5M354 524h7M368 524h5M377 524h5M385 524h3M392 524h3M400 524h7M411 524h7M420 524h5M428 524h3M435 524h7M455 524h3M460 524h3M468 524h5M477 524h9M490 524h7M504 524h6M517 524h3M526 524h7M539 524h5M549 524h8M561 524h3M573 524h3M580 524h9M598 524h4M607 524h5M614 524h4M622 524h3M638 524h5M650 524h8M661 524h7M672 524h3M678 524h5M685 524h9M698 524h5M708 524h5M715 524h5M49 525h1M62 525h1M70 525h1M77 525h1M83 525h1M87 525h1M94 525h1M98 525h1M125 525h1M131 525h1M134 525h1M140 525h1M144 525h1M153 525h1M159 525h1M164 525h1M180 525h1M198 525h1M203 525h1M211 525h1M214 525h1M245 525h1M251 525h1M255 525h1M274 525h1M278 525h1M281 525h2M296 525h1M302 525h1M309 525h1M313 525h1M321 525h1M326 525h1M332 525h1M336 525h1M339 525h2M349 525h1M354 525h1M358 525h1M379 525h1M385 525h1M402 525h1M413 525h1M417 525h1M422 525h1M428 525h1M435 525h1M439 525h1M457 525h1M460 525h1M477 525h1M481 525h1M485 525h1M490 525h1M494 525h1M506 525h1M526 525h1M549 525h1M552 525h2M556 525h1M580 525h1M584 525h1M587 525h2M609 525h1M614 525h2M642 525h1M650 525h1M653 525h2M657 525h1M663 525h1M674 525h1M680 525h1M687 525h1M691 525h1M710 525h3M715 525h3M49 526h1M57 526h1M62 526h1M70 526h1M77 526h1M83 526h1M87 526h1M94 526h1M98 526h1M109 526h1M119 526h2M125 526h1M131 526h1M134 526h1M140 526h1M144 526h1M153 526h1M159 526h1M162 526h3M180 526h1M187 526h2M198 526h1M203 526h1M211 526h1M214 526h1M220 526h1M226 526h1M234 526h1M239 526h1M245 526h1M251 526h1M255 526h1M260 526h1M266 526h1M274 526h1M278 526h1M281 526h2M285 526h1M291 526h1M296 526h1M302 526h1M309 526h1M313 526h1M321 526h1M324 526h3M332 526h1M336 526h1M339 526h2M343 526h1M349 526h1M354 526h1M358 526h1M374 526h1M379 526h1M385 526h1M390 526h2M396 526h1M402 526h1M407 526h2M413 526h1M417 526h1M422 526h1M426 526h3M435 526h1M439 526h1M457 526h1M460 526h1M466 526h1M473 526h2M477 526h1M481 526h1M485 526h1M490 526h1M494 526h1M506 526h1M511 526h1M521 526h1M526 526h1M534 526h1M537 526h2M545 526h1M549 526h1M552 526h2M556 526h1M565 526h1M571 526h1M576 526h1M580 526h1M584 526h1M587 526h2M596 526h1M603 526h1M609 526h1M614 526h2M626 526h1M636 526h1M642 526h1M650 526h1M653 526h2M657 526h1M663 526h1M668 526h2M674 526h1M680 526h1M687 526h1M691 526h1M696 526h2M704 526h1M710 526h3M715 526h3M49 527h1M57 527h1M62 527h1M70 527h1M77 527h1M83 527h1M87 527h1M94 527h1M109 527h1M119 527h2M131 527h1M144 527h1M159 527h1M164 527h1M180 527h1M187 527h2M198 527h1M203 527h1M211 527h1M220 527h1M226 527h1M234 527h1M239 527h1M245 527h1M251 527h1M255 527h1M260 527h1M266 527h1M278 527h1M285 527h1M291 527h1M296 527h1M302 527h1M309 527h1M313 527h1M321 527h1M326 527h1M336 527h1M343 527h1M358 527h1M374 527h1M379 527h1M385 527h1M390 527h2M396 527h1M402 527h1M407 527h2M413 527h1M422 527h1M428 527h1M439 527h1M466 527h1M473 527h2M481 527h1M494 527h1M506 527h1M511 527h1M521 527h1M526 527h1M534 527h1M537 527h2M545 527h1M552 527h2M565 527h1M571 527h1M576 527h1M584 527h1M596 527h1M603 527h1M609 527h1M614 527h2M626 527h1M636 527h1M653 527h2M663 527h1M668 527h2M674 527h1M687 527h1M691 527h1M696 527h2M704 527h1M710 527h1M717 527h1M49 528h1M57 528h1M62 528h5M70 528h1M77 528h1M83 528h1M87 528h1M94 528h3M106 528h4M119 528h2M131 528h3M142 528h3M151 528h1M159 528h3M164 528h1M180 528h1M187 528h2M198 528h6M211 528h3M220 528h7M234 528h6M245 528h1M251 528h1M255 528h1M260 528h7M278 528h1M285 528h7M296 528h1M302 528h1M309 528h1M313 528h1M321 528h3M326 528h1M336 528h1M343 528h1M356 528h3M370 528h5M379 528h7M390 528h7M402 528h1M407 528h2M413 528h1M422 528h3M428 528h1M437 528h3M458 528h2M466 528h1M473 528h2M481 528h1M492 528h3M506 528h1M511 528h1M517 528h5M526 528h1M534 528h1M537 528h2M545 528h1M552 528h2M561 528h5M571 528h6M584 528h1M596 528h1M603 528h1M609 528h7M622 528h5M636 528h1M653 528h2M663 528h1M668 528h2M674 528h1M678 528h1M687 528h1M691 528h1M696 528h2M704 528h1M710 528h1M713 528h1M717 528h1M49 529h1M57 529h1M62 529h1M66 529h1M70 529h1M77 529h1M83 529h1M87 529h1M94 529h1M109 529h1M119 529h2M131 529h1M144 529h1M159 529h1M164 529h1M180 529h1M187 529h2M198 529h1M203 529h1M211 529h1M220 529h1M234 529h1M245 529h1M251 529h1M255 529h1M260 529h1M278 529h1M285 529h1M296 529h1M302 529h1M309 529h1M313 529h1M321 529h1M326 529h1M336 529h1M343 529h1M358 529h1M374 529h1M379 529h1M385 529h1M390 529h2M402 529h1M407 529h2M413 529h1M422 529h1M428 529h1M439 529h1M466 529h1M473 529h2M481 529h1M494 529h1M506 529h1M511 529h1M521 529h1M526 529h1M534 529h1M537 529h2M545 529h1M552 529h2M565 529h1M571 529h1M584 529h1M596 529h1M603 529h1M609 529h1M614 529h2M626 529h1M636 529h1M653 529h2M663 529h1M668 529h2M678 529h1M691 529h1M696 529h2M704 529h1M710 529h1M713 529h1M717 529h1M49 530h1M57 530h1M62 530h1M66 530h1M70 530h1M77 530h1M83 530h1M87 530h1M94 530h1M98 530h1M104 530h1M109 530h1M119 530h2M131 530h1M134 530h1M140 530h1M144 530h1M153 530h1M159 530h1M164 530h1M180 530h1M187 530h2M198 530h1M203 530h1M211 530h1M214 530h1M220 530h1M234 530h1M245 530h1M251 530h1M255 530h1M260 530h1M278 530h1M285 530h1M296 530h1M302 530h1M309 530h1M313 530h1M321 530h1M326 530h1M336 530h1M343 530h1M354 530h1M358 530h1M374 530h1M379 530h1M385 530h1M390 530h2M402 530h1M407 530h2M413 530h1M422 530h1M428 530h1M435 530h1M439 530h1M457 530h1M460 530h1M466 530h1M473 530h2M481 530h1M490 530h1M494 530h1M506 530h1M511 530h1M515 530h1M521 530h1M526 530h1M534 530h1M537 530h2M545 530h1M552 530h2M559 530h2M565 530h1M571 530h1M584 530h1M596 530h1M603 530h1M609 530h1M614 530h2M620 530h1M626 530h1M636 530h1M653 530h2M663 530h1M668 530h2M676 530h3M685 530h1M691 530h1M696 530h2M704 530h1M710 530h1M713 530h1M717 530h1M47 531h9M60 531h13M75 531h15M92 531h5M100 531h1M106 531h6M121 531h5M129 531h6M138 531h3M144 531h3M149 531h5M157 531h5M164 531h3M170 531h1M178 531h9M196 531h5M203 531h3M209 531h5M216 531h1M222 531h5M236 531h4M243 531h15M262 531h5M276 531h5M287 531h5M294 531h5M302 531h3M307 531h2M313 531h3M319 531h5M326 531h3M334 531h5M345 531h5M352 531h3M358 531h3M368 531h5M377 531h5M385 531h3M392 531h5M402 531h5M411 531h5M420 531h5M428 531h3M433 531h3M439 531h3M445 531h3M455 531h3M460 531h3M468 531h5M479 531h5M488 531h3M494 531h3M506 531h4M517 531h7M528 531h5M539 531h5M551 531h4M561 531h7M573 531h4M582 531h5M598 531h4M607 531h5M614 531h4M622 531h7M638 531h5M652 531h4M663 531h5M676 531h1M685 531h9M698 531h5M708 531h3M713 531h1M717 531h3M723 531h1M47 532h9M60 532h13M75 532h15M92 532h5M100 532h1M106 532h6M121 532h5M129 532h6M138 532h3M144 532h3M149 532h5M157 532h5M164 532h3M170 532h1M178 532h9M196 532h5M203 532h3M209 532h5M216 532h1M222 532h5M236 532h4M243 532h15M262 532h5M276 532h5M287 532h5M294 532h5M302 532h3M307 532h2M313 532h3M319 532h5M326 532h3M334 532h5M345 532h5M352 532h3M358 532h3M368 532h5M377 532h5M385 532h3M392 532h5M402 532h5M411 532h5M420 532h5M428 532h3M433 532h3M439 532h3M445 532h3M455 532h3M460 532h3M468 532h5M479 532h5M488 532h3M494 532h3M506 532h4M517 532h7M528 532h5M539 532h5M551 532h4M561 532h7M573 532h4M582 532h5M598 532h4M607 532h5M614 532h4M622 532h7M638 532h5M652 532h4M663 532h5M676 532h1M685 532h9M698 532h5M708 532h3M713 532h1M717 532h3M723 532h1M256 533h2M402 533h1M447 533h1M506 533h1M663 533h1M676 533h1M685 533h1M693 533h1M256 534h2M402 534h1M447 534h1M506 534h1M663 534h1M676 534h1M685 534h1M693 534h1M400 535h5M445 535h1M504 535h5M661 535h5M672 535h3" />
<path stroke="rgba(86,141,147,0.8627450980392157)" d="M56 518h1M177 518h1M56 519h1M56 520h1M58 520h1M179 520h1M221 520h1M261 520h1M56 521h1M58 521h1M179 521h1M222 521h1M226 521h1M262 521h1M266 521h1M56 522h1M58 522h1M179 522h1M51 523h7M60 523h5M68 523h5M75 523h5M83 523h1M87 523h3M92 523h3M98 523h3M106 523h3M121 523h5M129 523h6M140 523h7M149 523h5M157 523h5M164 523h3M179 523h1M182 523h7M196 523h5M203 523h3M209 523h3M214 523h3M222 523h3M236 523h3M243 523h5M251 523h1M255 523h3M262 523h3M274 523h9M287 523h3M294 523h11M307 523h9M319 523h5M326 523h3M332 523h9M345 523h5M354 523h7M368 523h5M377 523h5M385 523h3M392 523h3M400 523h7M411 523h7M420 523h5M428 523h3M435 523h7M455 523h3M460 523h3M468 523h5M477 523h9M490 523h7M504 523h6M517 523h3M528 523h5M539 523h5M549 523h8M561 523h3M573 523h3M580 523h9M598 523h4M607 523h5M614 523h4M622 523h3M638 523h5M650 523h8M661 523h7M672 523h3M678 523h5M685 523h9M698 523h5M708 523h5M715 523h5M56 524h1M67 524h1M82 524h1M84 524h1M86 524h1M101 524h1M126 524h1M139 524h1M154 524h1M179 524h1M221 524h1M248 524h1M261 524h1M273 524h1M290 524h1M305 524h1M316 524h1M331 524h1M344 524h1M361 524h1M373 524h1M384 524h1M388 524h1M399 524h1M410 524h1M427 524h1M431 524h1M442 524h1M467 524h1M489 524h1M516 524h1M544 524h1M579 524h1M606 524h1M625 524h1M637 524h1M660 524h1M675 524h1M677 524h1M703 524h1M720 524h1M51 525h7M60 525h2M64 525h1M68 525h1M72 525h1M75 525h2M79 525h1M82 525h1M84 525h1M86 525h1M89 525h1M92 525h2M100 525h1M106 525h4M119 525h5M126 525h1M129 525h1M132 525h2M139 525h1M142 525h1M145 525h2M149 525h3M154 525h1M157 525h1M160 525h3M166 525h1M179 525h1M182 525h7M196 525h1M199 525h2M205 525h1M209 525h1M216 525h1M220 525h7M234 525h6M243 525h1M247 525h1M256 525h2M260 525h7M273 525h1M276 525h1M280 525h1M285 525h7M294 525h2M298 525h3M304 525h1M307 525h2M311 525h1M315 525h1M319 525h1M322 525h3M328 525h1M331 525h1M334 525h1M338 525h1M343 525h5M356 525h1M360 525h1M368 525h7M377 525h2M381 525h1M384 525h1M387 525h1M390 525h7M400 525h1M404 525h5M411 525h1M415 525h1M420 525h2M424 525h3M430 525h1M437 525h1M441 525h1M455 525h1M462 525h1M466 525h9M479 525h1M483 525h1M489 525h1M492 525h1M495 525h2M504 525h1M507 525h5M517 525h5M528 525h7M537 525h9M551 525h1M554 525h1M561 525h5M571 525h6M579 525h1M582 525h1M586 525h1M596 525h8M607 525h1M611 525h1M616 525h2M622 525h5M636 525h5M652 525h1M655 525h1M661 525h1M665 525h5M672 525h1M675 525h1M678 525h1M682 525h1M685 525h1M689 525h1M693 525h1M696 525h9M708 525h1M719 525h1M56 526h1M58 526h1M69 526h1M71 526h1M82 526h1M84 526h1M86 526h1M99 526h1M126 526h1M139 526h1M152 526h1M154 526h1M179 526h1M219 526h1M221 526h1M246 526h1M259 526h1M261 526h1M273 526h1M275 526h1M290 526h1M301 526h1M303 526h1M314 526h1M331 526h1M333 526h1M342 526h1M344 526h1M359 526h1M373 526h1M384 526h1M386 526h1M397 526h1M401 526h1M412 526h1M429 526h1M440 526h1M465 526h1M467 526h1M480 526h1M482 526h1M489 526h1M544 526h1M546 526h1M566 526h1M579 526h1M581 526h1M608 526h1M625 526h1M635 526h1M637 526h1M662 526h1M675 526h1M688 526h1M690 526h1M703 526h1M705 526h1M56 527h1M58 527h1M69 527h1M71 527h1M82 527h1M84 527h1M86 527h1M152 527h1M179 527h1M219 527h1M246 527h1M259 527h1M301 527h1M303 527h1M314 527h1M342 527h1M344 527h1M359 527h1M386 527h1M397 527h1M401 527h1M412 527h1M429 527h1M440 527h1M465 527h1M467 527h1M480 527h1M482 527h1M544 527h1M546 527h1M566 527h1M608 527h1M635 527h1M637 527h1M662 527h1M675 527h1M688 527h1M690 527h1M703 527h1M705 527h1M56 528h1M58 528h1M67 528h1M69 528h1M71 528h1M82 528h1M84 528h1M86 528h1M152 528h1M179 528h1M219 528h1M246 528h1M259 528h1M301 528h1M303 528h1M314 528h1M342 528h1M344 528h1M359 528h1M386 528h1M397 528h1M401 528h1M412 528h1M427 528h1M429 528h1M440 528h1M465 528h1M467 528h1M480 528h1M482 528h1M516 528h1M544 528h1M546 528h1M566 528h1M608 528h1M635 528h1M637 528h1M662 528h1M675 528h1M677 528h1M688 528h1M690 528h1M703 528h1M705 528h1M56 529h1M58 529h1M67 529h1M69 529h1M71 529h1M82 529h1M84 529h1M86 529h1M152 529h1M179 529h1M219 529h1M246 529h1M259 529h1M301 529h1M303 529h1M314 529h1M342 529h1M344 529h1M359 529h1M386 529h1M401 529h1M412 529h1M427 529h1M429 529h1M440 529h1M465 529h1M467 529h1M480 529h1M482 529h1M516 529h1M544 529h1M546 529h1M566 529h1M608 529h1M635 529h1M637 529h1M662 529h1M675 529h1M690 529h1M703 529h1M705 529h1M56 530h1M58 530h1M67 530h1M69 530h1M71 530h1M82 530h1M84 530h1M86 530h1M99 530h1M139 530h1M152 530h1M154 530h1M179 530h1M219 530h1M221 530h1M246 530h1M259 530h1M261 530h1M301 530h1M303 530h1M314 530h1M342 530h1M344 530h1M359 530h1M373 530h1M384 530h1M386 530h1M401 530h1M412 530h1M427 530h1M429 530h1M440 530h1M465 530h1M467 530h1M480 530h1M482 530h1M489 530h1M514 530h1M516 530h1M544 530h1M546 530h1M566 530h1M608 530h1M625 530h1M635 530h1M637 530h1M662 530h1M675 530h1M690 530h1M703 530h1M705 530h1M56 531h1M99 531h1M101 531h1M126 531h1M137 531h1M154 531h1M177 531h1M221 531h1M261 531h1M275 531h1M301 531h1M305 531h1M316 531h1M333 531h1M344 531h1M361 531h1M373 531h1M384 531h1M388 531h1M397 531h1M401 531h1M410 531h1M427 531h1M431 531h1M442 531h1M467 531h1M487 531h1M516 531h1M544 531h1M568 531h1M581 531h1M606 531h1M637 531h1M662 531h1M675 531h1M677 531h1M703 531h1M720 531h1M56 532h1M99 532h1M101 532h1M126 532h1M137 532h1M154 532h1M177 532h1M221 532h1M261 532h1M275 532h1M301 532h1M305 532h1M316 532h1M333 532h1M344 532h1M361 532h1M373 532h1M384 532h1M388 532h1M397 532h1M401 532h1M410 532h1M427 532h1M431 532h1M442 532h1M467 532h1M487 532h1M516 532h1M544 532h1M568 532h1M581 532h1M606 532h1M637 532h1M662 532h1M675 532h1M677 532h1M703 532h1M720 532h1M401 533h1M662 533h1M675 533h1M677 533h1M401 534h1M662 534h1M675 534h1M677 534h1M399 535h1M660 535h1M675 535h1" />
<path stroke="rgba(179,169,185,0.5686274509803921)" d="M821 518h1M23 519h1M821 519h1M23 520h1M821 520h1M23 521h1M821 521h1M23 522h1M821 522h1M23 523h1M821 523h1M23 524h1M821 524h1M23 525h1M821 525h1M23 526h1M821 526h1M23 527h1M821 527h1M23 528h1M821 528h1M23 529h1M821 529h1M23 530h1M821 530h1M23 531h1M821 531h1M23 532h1M821 532h1M23 533h1M821 533h1M23 534h1M821 534h1M23 535h1M821 535h1M23 536h1M821 536h1M23 537h1M821 537h1M23 538h1M821 538h1M23 539h1M23 540h1M23 541h1M23 542h1M23 543h1M23 544h1M23 545h1M23 546h1M23 547h1M23 548h1" />
<path stroke="rgba(38,96,105,0.9411764705882353)" d="M47 519h2M51 519h5M178 519h1M181 519h6M528 519h7M50 520h1M225 520h1M265 520h1M527 520h1M50 521h1M527 521h1M50 522h1M527 522h1M65 524h1M80 524h1M95 524h1M105 524h1M128 524h1M135 524h1M156 524h1M167 524h1M195 524h1M206 524h1M208 524h1M217 524h1M235 524h1M250 524h1M254 524h1M318 524h1M329 524h1M382 524h1M395 524h1M425 524h1M454 524h1M463 524h1M503 524h1M510 524h1M548 524h1M557 524h1M564 524h1M572 524h1M597 524h1M602 524h1M649 524h1M658 524h1M707 524h1M95 525h1M135 525h1M250 525h1M254 525h1M548 525h1M557 525h1M649 525h1M658 525h1M50 526h1M63 526h1M78 526h1M95 526h1M110 526h1M130 526h1M135 526h1M143 526h1M158 526h1M165 526h1M197 526h1M204 526h1M210 526h1M215 526h1M225 526h1M233 526h1M240 526h1M250 526h1M254 526h1M265 526h1M277 526h1M286 526h1M297 526h1M310 526h1M320 526h1M327 526h1M335 526h1M348 526h1M355 526h1M380 526h1M416 526h1M423 526h1M436 526h1M456 526h1M461 526h1M478 526h1M484 526h1M493 526h1M505 526h1M512 526h1M520 526h1M527 526h1M533 526h1M548 526h1M557 526h1M570 526h1M577 526h1M583 526h1M595 526h1M604 526h1M641 526h1M649 526h1M658 526h1M679 526h1M709 526h1M718 526h1M50 527h1M64 527h3M78 527h1M96 527h1M106 527h3M110 527h1M130 527h1M132 527h2M142 527h1M151 527h1M158 527h1M160 527h2M165 527h1M197 527h1M199 527h4M204 527h1M210 527h1M212 527h2M222 527h3M233 527h1M235 527h4M240 527h1M250 527h1M254 527h1M262 527h3M277 527h1M287 527h3M297 527h1M310 527h1M320 527h1M322 527h2M327 527h1M335 527h1M356 527h2M370 527h3M381 527h3M392 527h4M424 527h1M437 527h2M458 527h2M492 527h1M505 527h1M512 527h1M517 527h3M527 527h1M533 527h1M561 527h4M570 527h1M572 527h4M577 527h1M583 527h1M595 527h1M604 527h1M610 527h4M622 527h3M678 527h1M709 527h1M713 527h1M718 527h1M50 528h1M78 528h1M97 528h1M105 528h1M110 528h1M130 528h1M141 528h1M158 528h1M165 528h1M197 528h1M204 528h1M210 528h1M233 528h1M240 528h1M250 528h1M254 528h1M277 528h1M297 528h1M310 528h1M320 528h1M327 528h1M335 528h1M425 528h1M491 528h1M505 528h1M512 528h1M527 528h1M533 528h1M570 528h1M577 528h1M583 528h1M595 528h1M604 528h1M709 528h1M714 528h1M718 528h1M50 529h1M63 529h1M78 529h1M95 529h1M98 529h1M104 529h1M110 529h1M130 529h1M134 529h1M140 529h1M143 529h1M153 529h1M158 529h1M165 529h1M197 529h1M204 529h1M210 529h1M214 529h1M233 529h1M250 529h1M254 529h1M277 529h1M286 529h1M297 529h1M310 529h1M320 529h1M327 529h1M335 529h1M354 529h1M380 529h1M423 529h1M435 529h1M457 529h1M460 529h1M490 529h1M493 529h1M505 529h1M512 529h1M515 529h1M520 529h1M527 529h1M533 529h1M559 529h2M570 529h1M583 529h1M595 529h1M604 529h1M620 529h1M676 529h1M685 529h1M709 529h1M714 529h1M718 529h1M50 530h1M63 530h1M78 530h1M95 530h1M103 530h1M110 530h1M130 530h1M135 530h1M143 530h1M158 530h1M165 530h1M197 530h1M204 530h1M210 530h1M215 530h1M233 530h1M250 530h1M254 530h1M277 530h1M286 530h1M297 530h1M310 530h1M320 530h1M327 530h1M335 530h1M355 530h1M380 530h1M423 530h1M436 530h1M456 530h1M461 530h1M493 530h1M505 530h1M512 530h1M520 530h1M527 530h1M533 530h1M570 530h1M583 530h1M595 530h1M604 530h1M621 530h1M686 530h1M709 530h1M714 530h1M718 530h1M97 531h1M105 531h1M112 531h1M128 531h1M135 531h1M143 531h1M156 531h1M167 531h1M169 531h1M195 531h1M206 531h1M208 531h1M217 531h1M235 531h1M240 531h1M299 531h1M318 531h1M329 531h1M355 531h1M382 531h1M425 531h1M436 531h1M444 531h1M454 531h1M463 531h1M493 531h1M505 531h1M510 531h1M550 531h1M555 531h1M572 531h1M577 531h1M597 531h1M602 531h1M651 531h1M656 531h1M707 531h1M714 531h1M722 531h1M97 532h1M105 532h1M112 532h1M128 532h1M135 532h1M143 532h1M156 532h1M167 532h1M169 532h1M195 532h1M206 532h1M208 532h1M217 532h1M235 532h1M240 532h1M299 532h1M318 532h1M329 532h1M355 532h1M382 532h1M425 532h1M436 532h1M444 532h1M454 532h1M463 532h1M493 532h1M505 532h1M510 532h1M550 532h1M555 532h1M572 532h1M577 532h1M597 532h1M602 532h1M651 532h1M656 532h1M707 532h1M714 532h1M722 532h1M446 533h1M505 533h1M686 533h1M692 533h1M446 534h1M505 534h1M686 534h1M692 534h1M444 535h1M503 535h1M400 536h5M445 536h1M504 536h5M661 536h5M672 536h3" />
<path stroke="rgba(7,72,81,0.9803921568627451)" d="M50 519h1M63 527h1M95 527h1M143 527h1M225 527h1M265 527h1M286 527h1M380 527h1M423 527h1M493 527h1M520 527h1" />
<path stroke="rgba(97,153,158,0.8392156862745098)" d="M177 519h1M527 519h1M225 521h1M265 521h1M65 523h1M80 523h1M95 523h1M105 523h1M128 523h1M135 523h1M156 523h1M167 523h1M195 523h1M206 523h1M208 523h1M217 523h1M235 523h1M250 523h1M254 523h1M318 523h1M329 523h1M382 523h1M395 523h1M425 523h1M454 523h1M463 523h1M503 523h1M510 523h1M548 523h1M557 523h1M564 523h1M572 523h1M597 523h1M602 523h1M649 523h1M658 523h1M707 523h1M65 525h1M80 525h1M105 525h1M110 525h1M128 525h1M156 525h1M167 525h1M195 525h1M206 525h1M208 525h1M217 525h1M233 525h1M240 525h1M318 525h1M329 525h1M382 525h1M454 525h1M463 525h1M503 525h1M512 525h1M570 525h1M577 525h1M595 525h1M604 525h1M707 525h1M67 527h1M163 527h1M325 527h1M355 527h1M436 527h1M516 527h1M677 527h1M679 527h1M716 527h1M65 529h1M97 529h1M99 529h1M105 529h1M139 529h1M141 529h1M154 529h1M202 529h1M235 529h1M357 529h1M438 529h1M489 529h1M491 529h1M514 529h1M564 529h1M572 529h1M610 529h1M399 536h1M660 536h1M675 536h1" />
<path stroke="rgba(24,83,93,0.9607843137254902)" d="M179 519h1M50 523h1M527 523h1M50 525h1M63 525h1M78 525h1M130 525h1M143 525h1M158 525h1M165 525h1M197 525h1M204 525h1M210 525h1M215 525h1M277 525h1M297 525h1M310 525h1M320 525h1M327 525h1M335 525h1M348 525h1M355 525h1M380 525h1M416 525h1M423 525h1M436 525h1M456 525h1M461 525h1M478 525h1M484 525h1M493 525h1M505 525h1M527 525h1M583 525h1M641 525h1M679 525h1M709 525h1M718 525h1M221 527h1M261 527h1M290 527h1M373 527h1M384 527h1M625 527h1M677 529h1" />
<path stroke="rgba(131,187,190,0.7803921568627451)" d="M225 519h1M265 519h1M535 519h1M135 527h1M150 527h1M215 527h1M348 527h1M369 527h1M416 527h1M456 527h1M461 527h1M478 527h1M484 527h1M548 527h1M557 527h1M621 527h1M641 527h1M649 527h1M658 527h1M240 529h1M425 529h1M577 529h1M619 529h1M684 529h1M405 536h1M446 536h1M666 536h1M671 536h1" />
<path stroke="rgba(179,167,183,0.25098039215686274)" d="M822 520h1M822 521h1M822 522h1M822 523h1M22 524h1M822 524h1M22 525h1M822 525h1M22 526h1M822 526h1M22 527h1M822 527h1M22 528h1M822 528h1M22 529h1M822 529h1M22 530h1M822 530h1M22 531h1M822 531h1M22 532h1M822 532h1M22 533h1M822 533h1M22 534h1M822 534h1M22 535h1M822 535h1M22 536h1M822 536h1M22 537h1M822 537h1M22 538h1M822 538h1M22 539h1M822 539h1M22 540h1M822 540h1M22 541h1M822 541h1M22 542h1M822 542h1M22 543h1M822 543h1M22 544h1M822 544h1M22 545h1M822 545h1M22 546h1M822 546h1M22 547h1M822 547h1M22 548h1M822 548h1M22 549h1" />
<path stroke="rgba(65,118,128,0.9019607843137255)" d="M181 523h1M88 525h1M124 525h1M141 525h1M163 525h1M181 525h1M244 525h1M279 525h1M312 525h1M325 525h1M337 525h1M357 525h1M403 525h1M414 525h1M438 525h1M491 525h1M550 525h1M555 525h1M585 525h1M610 525h1M651 525h1M656 525h1M664 525h1M673 525h1M681 525h1M686 525h1M692 525h1M97 527h1M141 527h1M425 527h1M427 527h1M491 527h1M714 527h1M221 529h1M261 529h1M355 529h1M373 529h1M384 529h1M436 529h1M621 529h1M625 529h1M686 529h1" />
<path stroke="rgba(52,106,114,0.9215686274509803)" d="M69 525h1M71 525h1M99 525h1M152 525h1M246 525h1M275 525h1M301 525h1M303 525h1M314 525h1M333 525h1M359 525h1M386 525h1M401 525h1M412 525h1M427 525h1M429 525h1M440 525h1M480 525h1M482 525h1M581 525h1M608 525h1M662 525h1M688 525h1M690 525h1" />
<path stroke="rgba(228,244,247,0.8549019607843137)" d="M780 525h5M796 525h5M780 526h5M796 526h5M778 527h2M785 527h2M794 527h2M778 528h2M785 528h2M794 528h2M778 529h2M787 529h2M792 529h2M778 530h2M787 530h2M792 530h2M778 531h2M789 531h3M780 532h2M789 532h3M780 533h2M782 534h2M782 535h2M784 536h2M784 537h2M784 538h2M782 539h2M782 540h2M780 541h2M780 542h2M778 543h2M778 544h2M778 545h2M778 546h2M778 547h2" />
<path stroke="rgba(75,129,138,0.8823529411764706)" d="M105 527h1M103 529h1M135 529h1M215 529h1M456 529h1M461 529h1M444 536h1M503 536h1" />
<path stroke="#53587e" d="M780 527h5M796 527h5M780 528h5M796 528h5M780 529h7M794 529h7M780 530h7M794 530h7M780 531h9M792 531h9M782 532h7M792 532h7M782 533h17M784 534h13M784 535h13M786 536h9M786 537h9M786 538h9M784 539h13M784 540h13M782 541h17M782 542h7M792 542h7M780 543h9M792 543h9M780 544h7M794 544h7M780 545h7M794 545h7M780 546h5M796 546h5M780 547h5M796 547h5" />
</svg>