<svg xmlns="http://www.w3.org/2000/svg" viewBox="0 -0.5 1701 600" shape-rendering="crispEdges">
<metadata>Made with Pixels to Svg https://codepen.io/shshaw/pen/XbxvNj</metadata>
<path stroke="#1e113f" d="M406 214h28M405 215h29M404 216h30M404 217h30M404 218h30M404 219h30M404 220h23M430 220h3M404 221h30M404 222h30M404 223h30M404 224h30M404 225h30M406 226h28M406 227h28M406 228h28M406 229h27M406 230h28M406 231h28M406 232h28M34 233h74M406 233h28M488 233h2M34 234h74M406 234h28M489 234h1M34 235h172M211 235h4M217 235h7M406 235h28M488 235h2M34 236h173M211 236h4M217 236h8M406 236h28M483 236h1M485 236h1M487 236h3M34 237h174M211 237h4M218 237h8M401 237h33M480 237h1M482 237h8M34 238h78M123 238h30M164 238h45M211 238h5M219 238h8M401 238h33M479 238h10M34 239h77M122 239h30M163 239h47M212 239h5M220 239h8M406 239h28M479 239h3M34 240h76M121 240h5M146 240h5M162 240h49M213 240h5M221 240h8M406 240h28M478 240h3M1083 240h28M34 241h75M120 241h5M145 241h5M161 241h5M198 241h14M214 241h5M222 241h8M406 241h28M479 241h1M1082 241h29M34 242h74M119 242h5M144 242h5M160 242h5M198 242h15M215 242h5M223 242h8M406 242h28M479 242h1M1081 242h30M34 243h73M118 243h5M143 243h5M159 243h5M198 243h34M406 243h28M479 243h1M1081 243h30M34 244h72M117 244h5M142 244h5M158 244h5M198 244h35M406 244h28M479 244h1M1081 244h30M34 245h71M116 245h5M141 245h5M157 245h5M204 245h30M407 245h27M479 245h1M1081 245h30M34 246h165M205 246h29M237 246h7M407 246h27M479 246h1M1081 246h23M1107 246h3M34 247h166M205 247h39M407 247h16M427 247h7M479 247h1M1081 247h30M34 248h166M205 248h39M407 248h16M427 248h7M479 248h1M1081 248h30M34 249h88M170 249h78M407 249h17M427 249h7M479 249h1M1081 249h30M34 250h134M170 250h78M407 250h17M427 250h7M479 250h1M1081 250h30M34 251h134M170 251h78M407 251h16M427 251h7M479 251h13M1081 251h30M34 252h134M170 252h78M407 252h17M427 252h7M479 252h2M483 252h9M1083 252h28M34 253h78M123 253h30M164 253h4M170 253h78M407 253h17M427 253h7M479 253h2M482 253h10M495 253h1M1083 253h28M34 254h77M122 254h30M163 254h5M170 254h78M407 254h18M427 254h7M479 254h4M487 254h5M495 254h1M1083 254h28M34 255h70M105 255h5M121 255h5M146 255h5M162 255h5M171 255h76M407 255h18M427 255h7M479 255h3M487 255h4M495 255h1M1083 255h27M34 256h70M105 256h4M120 256h5M145 256h5M161 256h5M172 256h74M406 256h19M427 256h7M479 256h2M487 256h3M493 256h3M1083 256h28M34 257h74M119 257h5M144 257h5M160 257h5M173 257h72M406 257h5M413 257h12M427 257h7M479 257h2M487 257h2M492 257h4M1083 257h28M34 258h73M118 258h5M143 258h5M159 258h5M173 258h72M406 258h19M427 258h7M479 258h2M487 258h1M491 258h3M495 258h1M1083 258h28M34 259h72M117 259h5M142 259h5M158 259h5M172 259h74M406 259h19M427 259h7M479 259h2M490 259h3M495 259h1M1083 259h28M1165 259h2M34 260h71M116 260h5M141 260h5M157 260h5M172 260h74M406 260h19M427 260h7M478 260h3M489 260h3M493 260h2M1083 260h28M1166 260h1M34 261h214M249 261h2M252 261h2M255 261h2M406 261h18M427 261h7M479 261h2M488 261h3M492 261h2M497 261h1M1083 261h28M1165 261h2M34 262h224M406 262h18M427 262h7M478 262h12M491 262h2M496 262h2M1083 262h28M1160 262h1M1162 262h1M1164 262h3M34 263h224M406 263h18M427 263h7M478 263h11M490 263h4M495 263h3M1078 263h33M1157 263h1M1159 263h8M34 264h53M88 264h1M90 264h1M92 264h30M135 264h16M160 264h98M406 264h5M413 264h11M427 264h7M478 264h3M489 264h4M494 264h3M1078 264h33M1156 264h10M34 265h53M88 265h1M90 265h1M92 265h30M135 265h16M160 265h98M406 265h5M413 265h11M427 265h7M478 265h14M493 265h3M1083 265h28M1156 265h3M34 266h67M102 266h53M160 266h98M406 266h18M427 266h7M478 266h13M492 266h3M1083 266h28M1155 266h3M34 267h121M160 267h98M406 267h18M427 267h7M478 267h12M491 267h3M1083 267h28M1156 267h1M34 268h66M103 268h51M160 268h98M406 268h18M427 268h7M477 268h12M490 268h3M1083 268h28M1156 268h1M34 269h224M406 269h18M427 269h7M478 269h10M489 269h4M1083 269h28M1156 269h1M34 270h224M406 270h18M427 270h7M477 270h11M489 270h4M1083 270h28M1156 270h1M34 271h224M406 271h18M427 271h7M477 271h11M489 271h4M511 271h1M1084 271h27M1156 271h1M34 272h224M406 272h18M427 272h7M477 272h11M489 272h5M511 272h1M1084 272h27M1156 272h1M34 273h92M137 273h121M406 273h5M413 273h11M427 273h7M477 273h11M489 273h6M511 273h1M1084 273h16M1104 273h7M1156 273h1M34 274h224M406 274h18M427 274h7M474 274h24M511 274h1M1084 274h16M1104 274h7M1156 274h1M34 275h224M406 275h18M427 275h7M474 275h25M511 275h1M1084 275h17M1104 275h7M1156 275h1M34 276h224M406 276h18M427 276h7M474 276h25M511 276h1M1084 276h17M1104 276h7M1156 276h1M34 277h126M162 277h96M406 277h18M427 277h7M474 277h25M511 277h1M1084 277h16M1104 277h7M1156 277h13M34 278h62M97 278h63M162 278h96M406 278h18M427 278h7M474 278h26M511 278h1M1084 278h17M1104 278h7M1156 278h2M1160 278h9M34 279h50M88 279h8M98 279h1M102 279h1M162 279h96M406 279h18M427 279h7M474 279h27M511 279h1M1084 279h17M1104 279h7M1156 279h2M1159 279h10M1172 279h1M34 280h49M87 280h9M98 280h1M102 280h1M162 280h94M406 280h19M427 280h7M474 280h28M511 280h1M1084 280h18M1104 280h7M1156 280h4M1164 280h5M1172 280h1M34 281h48M86 281h10M162 281h94M406 281h19M427 281h7M474 281h29M511 281h1M1084 281h18M1104 281h7M1156 281h3M1164 281h4M1172 281h1M34 282h47M85 282h11M162 282h94M406 282h19M427 282h7M473 282h31M511 282h1M1083 282h19M1104 282h7M1156 282h2M1164 282h3M1170 282h3M34 283h46M84 283h12M162 283h94M406 283h19M427 283h7M473 283h32M511 283h1M1083 283h5M1090 283h12M1104 283h7M1156 283h2M1164 283h2M1169 283h4M34 284h45M83 284h7M162 284h94M406 284h19M427 284h7M473 284h33M511 284h1M1083 284h19M1104 284h7M1156 284h2M1164 284h1M1168 284h3M1172 284h1M34 285h45M83 285h7M162 285h94M406 285h19M427 285h7M474 285h32M511 285h1M1083 285h19M1104 285h7M1156 285h2M1167 285h3M1172 285h1M34 286h53M89 286h1M162 286h94M406 286h19M427 286h7M475 286h31M509 286h3M1083 286h19M1104 286h7M1155 286h3M1166 286h3M1170 286h2M34 287h56M162 287h94M406 287h18M427 287h7M474 287h33M508 287h2M511 287h1M1083 287h18M1104 287h7M1156 287h2M1165 287h3M1169 287h2M1174 287h1M34 288h53M89 288h1M162 288h94M406 288h18M427 288h7M474 288h33M508 288h3M1083 288h18M1104 288h7M1155 288h12M1168 288h2M1173 288h2M34 289h56M162 289h94M406 289h18M427 289h7M474 289h8M483 289h9M493 289h14M508 289h3M1083 289h18M1104 289h7M1155 289h11M1167 289h4M1172 289h3M34 290h53M89 290h1M162 290h94M406 290h18M428 290h6M475 290h1M477 290h6M484 290h8M493 290h14M508 290h3M1083 290h5M1090 290h11M1104 290h7M1155 290h3M1166 290h4M1171 290h3M34 291h44M81 291h9M162 291h94M406 291h18M428 291h6M474 291h10M485 291h7M493 291h18M1083 291h5M1090 291h11M1104 291h7M1155 291h14M1170 291h3M34 292h44M81 292h6M89 292h2M162 292h94M406 292h18M428 292h6M474 292h18M493 292h18M1083 292h18M1104 292h7M1155 292h13M1169 292h3M34 293h44M81 293h10M98 293h7M162 293h94M406 293h19M428 293h6M474 293h1M477 293h5M483 293h9M493 293h18M1083 293h18M1104 293h7M1155 293h12M1168 293h3M34 294h44M82 294h5M89 294h2M98 294h7M162 294h94M406 294h19M428 294h6M474 294h9M484 294h8M493 294h18M1083 294h18M1104 294h7M1154 294h12M1167 294h3M34 295h44M81 295h10M94 295h4M101 295h1M103 295h2M162 295h94M406 295h19M428 295h6M474 295h1M477 295h5M485 295h7M493 295h19M1083 295h18M1104 295h7M1155 295h10M1166 295h4M34 296h44M81 296h6M89 296h1M94 296h13M162 296h94M406 296h19M428 296h6M474 296h8M484 296h8M493 296h18M1083 296h18M1104 296h7M1154 296h11M1166 296h4M34 297h44M81 297h9M94 297h13M162 297h94M406 297h19M429 297h5M474 297h1M477 297h5M485 297h7M493 297h18M513 297h1M1083 297h18M1104 297h7M1154 297h11M1166 297h4M1188 297h1M34 298h53M89 298h9M100 298h2M104 298h4M162 298h94M406 298h19M429 298h5M474 298h8M485 298h7M493 298h22M1083 298h18M1104 298h7M1154 298h11M1166 298h5M1188 298h1M34 299h56M91 299h7M100 299h2M104 299h4M162 299h94M406 299h19M428 299h6M474 299h1M478 299h1M480 299h2M485 299h4M490 299h2M493 299h21M1083 299h5M1090 299h11M1104 299h7M1154 299h11M1166 299h6M1188 299h1M34 300h56M91 300h7M100 300h2M104 300h4M162 300h94M402 300h1M405 300h20M428 300h17M455 300h7M474 300h8M485 300h7M493 300h22M1083 300h18M1104 300h7M1151 300h24M1188 300h1M34 301h64M100 301h2M104 301h3M162 301h94M400 301h25M427 301h39M474 301h1M478 301h1M480 301h2M485 301h4M490 301h2M493 301h21M515 301h1M1083 301h18M1104 301h7M1151 301h25M1188 301h1M34 302h64M100 302h2M104 302h3M162 302h94M400 302h25M426 302h48M478 302h1M480 302h2M485 302h3M490 302h2M493 302h23M1083 302h18M1104 302h7M1151 302h25M1188 302h1M34 303h73M162 303h94M400 303h75M478 303h1M480 303h3M485 303h2M490 303h2M494 303h3M498 303h20M1083 303h18M1104 303h7M1151 303h25M1188 303h1M34 304h74M162 304h94M343 304h28M400 304h76M480 304h2M485 304h1M490 304h2M494 304h2M497 304h22M1083 304h18M1104 304h7M1151 304h26M1188 304h1M34 305h64M100 305h2M104 305h4M162 305h94M343 305h29M400 305h75M480 305h2M484 305h2M490 305h2M494 305h1M496 305h24M1083 305h18M1104 305h7M1151 305h27M1188 305h1M34 306h64M100 306h2M104 306h4M162 306h94M343 306h30M400 306h75M481 306h1M485 306h1M490 306h2M494 306h1M496 306h24M1083 306h19M1104 306h7M1151 306h28M1188 306h1M34 307h64M100 307h2M104 307h3M162 307h94M343 307h30M400 307h75M480 307h2M485 307h1M490 307h2M494 307h1M496 307h24M1083 307h19M1104 307h7M1151 307h29M1188 307h1M34 308h64M100 308h2M104 308h3M160 308h98M343 308h30M400 308h74M481 308h1M485 308h1M490 308h2M494 308h1M496 308h24M1083 308h19M1104 308h7M1150 308h31M1188 308h1M34 309h64M100 309h2M104 309h2M160 309h98M343 309h30M400 309h74M485 309h1M490 309h2M494 309h1M496 309h24M1083 309h19M1104 309h7M1150 309h32M1188 309h1M34 310h64M100 310h2M104 310h2M160 310h98M344 310h3M350 310h23M400 310h74M485 310h1M497 310h23M1083 310h19M1104 310h7M1150 310h33M1188 310h1M34 311h64M100 311h2M104 311h2M160 311h98M343 311h30M400 311h74M497 311h23M1083 311h19M1104 311h7M1151 311h32M1188 311h1M34 312h64M100 312h2M104 312h2M160 312h98M343 312h30M400 312h74M498 312h22M522 312h19M1083 312h19M1104 312h7M1152 312h31M1186 312h3M34 313h64M100 313h2M104 313h2M160 313h98M343 313h30M406 313h68M498 313h22M522 313h20M1083 313h18M1104 313h7M1151 313h33M1185 313h2M1188 313h1M34 314h64M100 314h2M104 314h2M160 314h98M343 314h30M406 314h68M498 314h14M513 314h30M1083 314h18M1104 314h7M1151 314h33M1185 314h3M34 315h64M100 315h2M104 315h2M160 315h98M343 315h30M406 315h68M498 315h46M1083 315h18M1104 315h7M1151 315h8M1160 315h9M1170 315h14M1185 315h3M34 316h64M100 316h2M104 316h2M160 316h98M343 316h28M406 316h69M498 316h47M1083 316h18M1105 316h6M1152 316h1M1154 316h6M1161 316h8M1170 316h14M1185 316h3M34 317h64M100 317h2M104 317h2M160 317h98M343 317h28M406 317h68M498 317h47M1083 317h18M1105 317h6M1151 317h10M1162 317h7M1170 317h18M34 318h64M100 318h2M104 318h2M160 318h98M343 318h28M406 318h68M499 318h45M1083 318h18M1105 318h6M1151 318h18M1170 318h18M34 319h64M100 319h2M104 319h2M165 319h88M344 319h27M406 319h68M500 319h50M1083 319h19M1105 319h6M1151 319h1M1154 319h5M1160 319h9M1170 319h18M34 320h64M100 320h2M104 320h2M165 320h88M343 320h28M406 320h68M501 320h50M1083 320h19M1105 320h6M1151 320h9M1161 320h8M1170 320h18M34 321h64M100 321h2M104 321h2M160 321h98M343 321h28M406 321h68M502 321h49M1083 321h19M1105 321h6M1151 321h1M1154 321h5M1162 321h7M1170 321h19M34 322h64M100 322h2M104 322h2M160 322h98M343 322h28M406 322h68M503 322h48M1083 322h19M1105 322h6M1151 322h8M1161 322h8M1170 322h18M34 323h64M99 323h3M104 323h2M160 323h98M343 323h28M400 323h74M504 323h11M516 323h35M1083 323h19M1106 323h5M1151 323h1M1154 323h5M1162 323h7M1170 323h18M1190 323h1M34 324h64M99 324h3M104 324h2M160 324h98M343 324h28M400 324h74M505 324h10M516 324h35M1083 324h19M1106 324h5M1151 324h8M1162 324h7M1170 324h22M34 325h64M99 325h4M104 325h2M160 325h98M343 325h28M403 325h71M506 325h9M516 325h29M549 325h1M1083 325h19M1105 325h6M1151 325h1M1155 325h1M1157 325h2M1162 325h4M1167 325h2M1170 325h21M34 326h64M99 326h7M160 326h98M343 326h28M403 326h71M507 326h8M516 326h30M549 326h1M1079 326h1M1082 326h20M1105 326h17M1132 326h7M1151 326h8M1162 326h7M1170 326h22M34 327h64M99 327h11M159 327h100M343 327h33M406 327h68M508 327h7M516 327h36M1077 327h25M1104 327h39M1151 327h1M1155 327h1M1157 327h2M1162 327h4M1167 327h2M1170 327h21M1192 327h1M34 328h64M99 328h12M159 328h100M343 328h33M406 328h68M509 328h6M516 328h37M1077 328h25M1103 328h48M1155 328h1M1157 328h2M1162 328h3M1167 328h2M1170 328h23M34 329h64M99 329h12M159 329h100M343 329h28M406 329h68M516 329h37M1077 329h75M1155 329h1M1157 329h3M1162 329h2M1167 329h2M1171 329h3M1175 329h20M34 330h64M99 330h12M159 330h100M343 330h28M396 330h3M403 330h71M516 330h37M1077 330h76M1157 330h2M1162 330h1M1167 330h2M1171 330h2M1174 330h22M34 331h64M99 331h12M159 331h100M343 331h28M396 331h3M403 331h71M516 331h37M1077 331h75M1157 331h2M1161 331h2M1167 331h2M1171 331h1M1173 331h24M34 332h64M99 332h12M159 332h100M343 332h28M394 332h5M403 332h71M518 332h35M1077 332h75M1158 332h1M1162 332h1M1167 332h2M1171 332h1M1173 332h24M34 333h64M99 333h10M159 333h100M343 333h28M394 333h5M401 333h73M518 333h31M550 333h2M1077 333h75M1157 333h2M1162 333h1M1167 333h2M1171 333h1M1173 333h24M34 334h64M99 334h10M159 334h100M343 334h28M395 334h4M401 334h73M518 334h31M550 334h2M1077 334h74M1158 334h1M1162 334h1M1167 334h2M1171 334h1M1173 334h24M34 335h64M99 335h10M159 335h100M343 335h27M394 335h5M401 335h73M518 335h31M550 335h2M1077 335h74M1162 335h1M1167 335h2M1171 335h1M1173 335h24M34 336h64M99 336h12M159 336h100M343 336h27M394 336h5M401 336h73M518 336h35M1077 336h74M1162 336h1M1174 336h23M34 337h64M99 337h12M159 337h100M343 337h7M354 337h16M394 337h5M401 337h73M518 337h35M1077 337h74M1174 337h23M34 338h64M99 338h12M160 338h98M343 338h7M354 338h16M394 338h4M401 338h73M518 338h35M1077 338h74M1175 338h22M1199 338h19M34 339h64M99 339h12M160 339h98M343 339h7M353 339h17M394 339h5M401 339h73M518 339h35M1083 339h68M1175 339h22M1199 339h20M34 340h77M160 340h98M343 340h7M353 340h17M395 340h3M401 340h73M518 340h35M1083 340h68M1175 340h14M1190 340h30M34 341h73M108 341h2M160 341h98M343 341h7M354 341h16M395 341h4M401 341h62M464 341h10M516 341h36M1083 341h68M1175 341h46M34 342h70M160 342h98M343 342h7M353 342h17M395 342h3M401 342h62M465 342h9M515 342h33M1083 342h69M1175 342h47M34 343h69M160 343h98M343 343h7M353 343h17M395 343h4M401 343h62M466 343h8M515 343h33M1083 343h68M1175 343h47M34 344h75M160 344h98M343 344h7M352 344h18M395 344h4M401 344h62M466 344h8M515 344h33M1083 344h68M1176 344h45M34 345h75M160 345h98M343 345h7M352 345h18M395 345h4M402 345h61M466 345h8M515 345h33M1083 345h68M1177 345h50M34 346h75M160 346h98M343 346h7M352 346h19M395 346h4M402 346h61M466 346h8M514 346h34M1083 346h68M1178 346h50M34 347h75M160 347h98M343 347h7M352 347h12M366 347h5M395 347h4M402 347h54M459 347h4M466 347h8M515 347h33M1083 347h68M1179 347h49M34 348h75M160 348h98M343 348h7M352 348h19M395 348h4M402 348h54M459 348h4M466 348h9M515 348h33M1083 348h68M1180 348h48M34 349h74M160 349h98M343 349h7M352 349h19M395 349h4M402 349h54M459 349h4M466 349h10M514 349h34M1077 349h74M1181 349h11M1193 349h35M34 350h68M160 350h98M343 350h7M352 350h19M395 350h4M402 350h54M459 350h4M466 350h10M514 350h34M1077 350h74M1182 350h10M1193 350h35M34 351h69M160 351h98M343 351h7M353 351h18M395 351h4M402 351h54M459 351h4M465 351h9M515 351h20M536 351h12M1080 351h71M1183 351h9M1193 351h29M1226 351h1M34 352h69M160 352h98M320 352h2M343 352h7M353 352h18M395 352h4M402 352h54M459 352h4M465 352h7M514 352h34M1080 352h71M1184 352h8M1193 352h30M1226 352h1M34 353h68M160 353h98M307 353h8M319 353h2M343 353h7M353 353h18M395 353h4M402 353h54M459 353h4M465 353h7M515 353h33M1083 353h68M1185 353h7M1193 353h36M34 354h67M160 354h98M307 354h14M343 354h7M353 354h11M366 354h5M395 354h4M402 354h54M459 354h4M465 354h7M515 354h33M1083 354h68M1186 354h6M1193 354h37M34 355h44M80 355h20M160 355h98M307 355h14M343 355h7M353 355h11M366 355h5M395 355h4M402 355h54M459 355h4M465 355h7M515 355h33M1083 355h68M1193 355h37M34 356h44M81 356h18M160 356h98M307 356h14M343 356h7M353 356h18M395 356h4M402 356h54M458 356h5M465 356h7M515 356h5M522 356h26M1073 356h3M1080 356h71M1193 356h37M34 357h44M82 357h9M160 357h98M307 357h11M343 357h7M353 357h18M395 357h4M402 357h54M458 357h4M465 357h7M515 357h5M522 357h26M1073 357h3M1080 357h71M1193 357h37M34 358h46M85 358h4M160 358h98M307 358h11M343 358h7M353 358h18M395 358h4M402 358h54M458 358h5M465 358h7M515 358h5M523 358h25M1071 358h5M1080 358h71M1195 358h35M34 359h54M160 359h98M306 359h12M343 359h7M353 359h18M395 359h4M402 359h54M458 359h5M465 359h7M515 359h6M524 359h24M1071 359h5M1078 359h73M1195 359h31M1227 359h2M34 360h44M80 360h5M86 360h2M160 360h98M305 360h13M343 360h7M353 360h18M391 360h7M402 360h54M458 360h5M465 360h7M515 360h6M524 360h25M1072 360h4M1078 360h73M1195 360h31M1227 360h2M34 361h44M84 361h3M160 361h98M293 361h1M304 361h14M343 361h7M353 361h18M391 361h7M402 361h54M458 361h5M465 361h6M516 361h5M524 361h25M1071 361h5M1078 361h73M1195 361h31M1227 361h2M34 362h52M160 362h1M164 362h90M257 362h1M292 362h2M299 362h19M343 362h7M353 362h18M391 362h7M402 362h54M458 362h5M465 362h6M516 362h5M524 362h17M542 362h8M1071 362h5M1078 362h73M1195 362h35M34 363h50M160 363h2M165 363h88M256 363h2M291 363h27M343 363h7M353 363h11M366 363h5M391 363h7M401 363h55M458 363h5M467 363h4M516 363h5M523 363h27M1071 363h5M1078 363h73M1195 363h35M34 364h43M160 364h3M166 364h86M255 364h3M290 364h28M343 364h7M353 364h18M377 364h1M391 364h7M400 364h55M460 364h3M467 364h4M516 364h5M523 364h27M1071 364h4M1078 364h73M1195 364h35M34 365h42M160 365h3M167 365h84M255 365h3M289 365h29M343 365h7M353 365h18M373 365h1M376 365h3M391 365h7M400 365h55M459 365h4M467 365h4M516 365h5M523 365h26M1071 365h5M1078 365h73M1195 365h35M34 366h36M160 366h3M167 366h84M255 366h3M288 366h30M343 366h7M353 366h18M373 366h3M377 366h1M393 366h5M400 366h55M459 366h4M467 366h4M516 366h5M523 366h26M1072 366h3M1078 366h73M1195 366h35M34 367h36M160 367h3M167 367h84M255 367h3M267 367h7M277 367h1M285 367h33M343 367h7M353 367h18M373 367h6M392 367h64M459 367h4M467 367h5M516 367h5M523 367h18M542 367h7M1072 367h4M1078 367h62M1141 367h10M1193 367h36M34 368h36M160 368h3M167 368h84M255 368h3M267 368h7M277 368h1M287 368h32M343 368h7M353 368h18M373 368h3M377 368h1M393 368h63M459 368h4M467 368h5M516 368h5M523 368h27M1072 368h3M1078 368h62M1142 368h9M1192 368h33M34 369h36M160 369h3M167 369h84M255 369h3M267 369h7M277 369h1M287 369h32M333 369h8M343 369h7M353 369h18M373 369h6M392 369h64M459 369h4M467 369h5M516 369h5M524 369h26M1072 369h4M1078 369h62M1143 369h8M1192 369h33M34 370h6M42 370h28M160 370h3M167 370h85M255 370h3M267 370h7M277 370h1M287 370h34M324 370h3M330 370h2M333 370h8M343 370h7M352 370h19M373 370h5M379 370h1M393 370h63M459 370h4M464 370h8M516 370h5M523 370h8M532 370h18M1072 370h4M1078 370h62M1143 370h8M1192 370h33M34 371h4M43 371h26M160 371h3M167 371h133M301 371h31M333 371h8M343 371h7M352 371h19M372 371h9M392 371h64M459 371h4M464 371h8M516 371h4M523 371h8M536 371h13M1072 371h4M1079 371h61M1143 371h8M1192 371h33M34 372h4M44 372h16M62 372h6M160 372h3M167 372h93M262 372h29M292 372h40M333 372h9M343 372h7M352 372h22M375 372h1M377 372h1M379 372h1M393 372h63M459 372h13M516 372h4M523 372h9M536 372h13M1072 372h4M1079 372h61M1143 372h8M1191 372h34M34 373h3M50 373h10M62 373h2M160 373h2M168 373h92M262 373h29M293 373h58M352 373h29M392 373h64M459 373h13M516 373h4M523 373h10M536 373h11M1072 373h4M1079 373h54M1136 373h4M1143 373h8M1192 373h33M34 374h4M50 374h10M62 374h2M160 374h3M164 374h2M167 374h93M262 374h27M293 374h83M377 374h1M379 374h1M381 374h1M393 374h62M460 374h12M516 374h4M524 374h6M532 374h1M537 374h9M1072 374h4M1079 374h54M1136 374h4M1143 374h9M1192 374h33M34 375h4M50 375h10M62 375h2M160 375h100M261 375h29M291 375h1M293 375h90M392 375h63M461 375h11M516 375h4M523 375h7M532 375h1M1072 375h4M1079 375h54M1136 375h4M1143 375h10M1191 375h34M34 376h3M50 376h10M62 376h2M160 376h100M261 376h28M291 376h1M293 376h85M379 376h1M381 376h1M393 376h39M433 376h22M462 376h10M516 376h4M523 376h10M1072 376h4M1079 376h54M1136 376h4M1143 376h10M1191 376h34M34 377h4M50 377h10M62 377h2M160 377h129M290 377h2M293 377h86M380 377h3M392 377h63M463 377h9M516 377h4M525 377h7M1072 377h4M1079 377h54M1136 377h4M1142 377h9M1192 377h20M1213 377h12M34 378h4M50 378h10M62 378h2M160 378h216M377 378h1M379 378h1M381 378h1M383 378h1M392 378h63M463 378h9M516 378h6M525 378h7M997 378h2M1072 378h4M1079 378h54M1136 378h4M1142 378h7M1191 378h34M34 379h3M50 379h10M62 379h2M160 379h100M261 379h124M386 379h1M392 379h63M463 379h9M516 379h6M525 379h8M984 379h8M996 379h2M1072 379h4M1079 379h54M1136 379h4M1142 379h7M1192 379h33M34 380h4M50 380h10M62 380h2M160 380h100M261 380h117M379 380h1M381 380h90M516 380h6M525 380h7M984 380h14M1072 380h4M1079 380h54M1136 380h4M1142 380h7M1192 380h33M34 381h4M50 381h10M62 381h2M160 381h100M262 381h117M380 381h91M516 381h6M525 381h7M984 381h14M1072 381h4M1079 381h54M1136 381h4M1142 381h7M1192 381h33M34 382h3M50 382h10M62 382h2M161 382h2M164 382h2M167 382h2M170 382h90M262 382h114M377 382h1M379 382h1M381 382h90M516 382h6M525 382h7M984 382h14M1072 382h4M1079 382h54M1135 382h5M1142 382h7M1192 382h5M1199 382h26M172 383h88M261 383h143M405 383h66M516 383h5M525 383h8M984 383h11M1072 383h4M1079 383h54M1135 383h4M1142 383h7M1192 383h5M1199 383h26M172 384h299M516 384h5M525 384h7M984 384h11M1072 384h4M1079 384h54M1135 384h5M1142 384h7M1192 384h5M1200 384h25M173 385h283M464 385h8M516 385h6M526 385h12M983 385h12M1072 385h4M1079 385h54M1135 385h5M1142 385h7M1192 385h6M1201 385h24M173 386h281M464 386h8M516 386h23M982 386h13M1068 386h7M1079 386h54M1135 386h5M1142 386h7M1192 386h6M1201 386h25M172 387h283M464 387h8M516 387h24M970 387h1M981 387h14M1068 387h7M1079 387h54M1135 387h5M1142 387h6M1193 387h5M1201 387h25M171 388h284M464 388h8M516 388h12M529 388h12M969 388h2M976 388h19M1068 388h7M1079 388h54M1135 388h5M1142 388h6M1193 388h5M1201 388h17M1219 388h8M170 389h302M516 389h13M530 389h1M532 389h1M534 389h7M968 389h27M1068 389h7M1078 389h55M1135 389h5M1144 389h4M1193 389h5M1200 389h27M170 390h302M516 390h25M967 390h28M1054 390h1M1068 390h7M1077 390h55M1137 390h3M1144 390h4M1193 390h5M1200 390h27M170 391h78M311 391h39M352 391h25M966 391h29M1050 391h1M1053 391h3M1068 391h7M1077 391h55M1136 391h4M1144 391h4M1193 391h5M1200 391h26M170 392h78M308 392h43M352 392h25M965 392h30M1050 392h3M1054 392h1M1070 392h5M1077 392h55M1136 392h4M1144 392h4M1193 392h5M1200 392h26M97 393h63M170 393h78M308 393h69M944 393h7M954 393h1M962 393h33M1050 393h6M1069 393h64M1136 393h4M1144 393h5M1193 393h5M1200 393h18M1219 393h7M97 394h63M170 394h78M308 394h69M944 394h7M954 394h1M964 394h32M1050 394h3M1054 394h1M1070 394h63M1136 394h4M1144 394h5M1193 394h5M1200 394h27M97 395h161M308 395h69M944 395h7M954 395h1M964 395h32M1010 395h8M1026 395h1M1050 395h6M1069 395h64M1136 395h4M1144 395h5M1193 395h5M1201 395h26M97 396h161M308 396h69M923 396h6M944 396h7M954 396h1M964 396h34M1001 396h3M1007 396h2M1010 396h8M1023 396h4M1050 396h5M1056 396h1M1070 396h63M1136 396h4M1141 396h8M1193 396h5M1200 396h8M1209 396h18M96 397h30M137 397h121M309 397h68M922 397h55M978 397h31M1010 397h8M1023 397h1M1026 397h1M1049 397h9M1069 397h64M1136 397h4M1141 397h8M1193 397h4M1200 397h8M1213 397h13M96 398h162M309 398h68M921 398h16M939 398h29M969 398h40M1010 398h9M1023 398h1M1026 398h1M1047 398h4M1052 398h1M1054 398h1M1056 398h1M1070 398h63M1136 398h13M1193 398h4M1200 398h9M1213 398h13M97 399h161M309 399h68M918 399h19M939 399h29M970 399h58M1033 399h3M1047 399h11M1069 399h64M1136 399h13M1193 399h4M1200 399h10M1213 399h11M97 400h161M309 400h68M916 400h21M939 400h27M970 400h68M1047 400h6M1054 400h1M1056 400h1M1058 400h1M1070 400h62M1137 400h12M1193 400h4M1201 400h6M1209 400h1M1214 400h9M97 401h161M309 401h68M914 401h23M938 401h29M968 401h1M970 401h69M1047 401h13M1069 401h63M1138 401h11M1193 401h4M1200 401h7M1209 401h1M97 402h161M309 402h68M912 402h25M938 402h28M968 402h1M970 402h69M1047 402h8M1056 402h1M1058 402h1M1070 402h39M1110 402h22M1139 402h10M1193 402h4M1200 402h10M103 403h155M309 403h62M910 403h56M967 403h2M970 403h70M1047 403h9M1057 403h3M1069 403h63M1140 403h9M1193 403h4M1202 403h7M101 404h157M309 404h62M895 404h3M908 404h133M1042 404h11M1054 404h1M1056 404h1M1058 404h1M1060 404h1M1069 404h63M1140 404h9M1193 404h6M1202 404h7M102 405h145M309 405h62M895 405h42M938 405h104M1043 405h1M1045 405h1M1047 405h15M1063 405h1M1069 405h63M1140 405h9M1193 405h6M1202 405h8M34 406h29M86 406h161M309 406h62M894 406h43M938 406h103M1042 406h2M1045 406h1M1047 406h8M1056 406h1M1058 406h90M1193 406h6M1202 406h7M34 407h29M86 407h162M309 407h62M893 407h44M939 407h117M1057 407h91M1193 407h6M1202 407h7M34 408h29M86 408h162M315 408h24M350 408h21M892 408h45M939 408h102M1047 408h6M1054 408h1M1056 408h1M1058 408h90M1193 408h6M1202 408h7M34 409h28M87 409h171M323 409h8M358 409h8M891 409h46M938 409h104M1047 409h34M1082 409h66M1193 409h5M1202 409h8M34 410h28M87 410h171M890 410h151M1047 410h101M1193 410h5M1202 410h7M34 411h29M86 411h172M889 411h156M1047 411h86M1141 411h8M1193 411h6M1203 411h12M34 412h214M888 412h157M1047 412h84M1141 412h8M1193 412h23M34 413h213M887 413h158M1048 413h84M1141 413h8M1193 413h24M34 414h212M886 414h246M1141 414h8M1193 414h12M1206 414h12M34 415h207M885 415h160M1047 415h102M1193 415h13M1207 415h1M1209 415h1M1211 415h7M34 416h207M884 416h265M1193 416h25M34 417h207M34 418h207M34 419h207M34 420h207M34 421h206M34 422h205M34 423h196M34 424h196M34 425h197M34 426h198M34 427h198M34 428h198M34 429h198M34 430h198M34 431h198M34 432h198M34 433h198M34 434h106M141 434h31M174 434h58M34 435h125M167 435h4M173 435h59M34 436h1M36 436h6M43 436h116M173 436h59M49 437h110M173 437h59M49 438h110M173 438h59M49 439h110M170 439h62M49 440h110M170 440h62M49 441h109M170 441h62M44 442h113M170 442h62M34 443h111M146 443h10M170 443h62M34 444h27M62 444h82M146 444h5M170 444h6M177 444h4M182 444h49M34 445h109M170 445h60M35 446h107M170 446h59M36 447h105M170 447h55M226 447h2M37 448h103M170 448h48M219 448h6M39 449h79M170 449h47M219 449h6M40 450h77M171 450h46M219 450h6M42 451h19M62 451h54M171 451h13M202 451h15M219 451h6M43 452h55M104 452h9M173 452h3M179 452h3M202 452h14M219 452h6M45 453h52M202 453h15M219 453h5M46 454h50M202 454h15M48 455h12M62 455h31M203 455h5M211 455h5M50 456h41M52 457h37M53 458h34M55 459h30M57 460h13M73 460h10M59 461h11M61 462h8M63 463h5M65 464h2" />
<path stroke="#0f0f10" d="M34 446h1M34 447h2M34 448h3M34 449h5M34 450h6M34 451h8M34 452h9M34 453h11M34 454h12M34 455h14M34 456h16M34 457h5M40 457h12M34 458h2M41 458h12M34 459h2M41 459h14M34 460h1M41 460h16M40 461h19M34 462h27M34 463h29M34 464h15M51 464h5M59 464h6M34 465h14M50 465h5M58 465h8M34 466h13M49 466h5M57 466h8M34 467h12M48 467h5M56 467h8M34 468h11M47 468h5M55 468h8M34 469h10M47 469h4M54 469h8M34 470h9M47 470h4M53 470h8M34 471h8M47 471h4M53 471h7M34 472h3M47 472h4M53 472h6" />
</svg>