<svg xmlns="http://www.w3.org/2000/svg" viewBox="0 -0.5 851 600" shape-rendering="crispEdges">
<metadata>Made with Pixels to Svg https://codepen.io/shshaw/pen/XbxvNj</metadata>
<path stroke="#190f3a" d="M339 418h7M337 419h2M336 420h1M335 421h1M334 422h1M333 423h1M333 424h1M346 424h2M332 425h1M345 425h4M332 426h1M344 426h6M331 427h1M344 427h6M331 428h1M344 428h7M330 429h1M338 429h3M344 429h8M330 430h1M337 430h1M341 430h1M344 430h9M330 431h1M336 431h1M341 431h1M344 431h8M330 432h1M336 432h1M341 432h1M344 432h7M330 433h1M337 433h1M341 433h1M344 433h7M330 434h1M338 434h3M344 434h7M356 434h1M331 435h1M344 435h7M355 435h4M331 436h1M344 436h7M353 436h7M332 437h1M344 437h17M333 438h1M345 438h16M334 439h1M346 439h15M335 440h2M347 440h14M337 441h6M348 441h13M336 442h8M350 442h11M336 443h9M352 443h8M336 444h10M358 444h1M336 445h12M358 445h1M334 446h16M357 446h1M334 447h3M343 447h14M333 448h5M346 448h10M332 449h7M348 449h7M332 450h8M350 450h5M332 451h9M355 451h1M332 452h10M355 452h1M332 453h8M341 453h1M356 453h1M332 454h7M341 454h1M356 454h1M332 455h1M334 455h4M341 455h1M357 455h1M332 456h1M341 456h1M357 456h1M331 457h2M341 457h1M357 457h1M331 458h1M341 458h1M357 458h1M331 459h1M341 459h1M357 459h1M331 460h1M341 460h1M357 460h1M331 461h1M341 461h1M357 461h1M331 462h1M341 462h2M357 462h1M331 463h1M341 463h1M343 463h1M357 463h1M331 464h1M340 464h1M344 464h3M357 464h1M331 465h1M340 465h1M347 465h11M331 466h1M340 466h1M356 466h2M331 467h2M340 467h1M356 467h3M332 468h1M340 468h1M356 468h2M359 468h1M332 469h1M340 469h1M356 469h2M360 469h1M332 470h1M340 470h1M356 470h2M360 470h1M333 471h1M339 471h1M356 471h2M360 471h1M333 472h6M356 472h4M333 473h1M339 473h1M350 473h1M356 473h1M333 474h1M340 474h1M350 474h1M356 474h1M334 475h1M340 475h1M349 475h1M356 475h1M335 476h5M349 476h1M356 476h1M337 477h1M349 477h1M356 477h1M336 478h1M348 478h1M356 478h1M336 479h1M348 479h1M356 479h1M336 480h1M348 480h1M356 480h1M336 481h1M347 481h1M356 481h1M336 482h1M347 482h1M356 482h1M336 483h1M347 483h1M356 483h1M336 484h1M346 484h1M356 484h1M336 485h1M346 485h1M356 485h1M336 486h1M346 486h1M356 486h1M336 487h1M346 487h1M356 487h1M336 488h1M346 488h1M356 488h1M336 489h1M346 489h1M356 489h1M336 490h1M346 490h1M356 490h1M336 491h1M345 491h2M356 491h1M336 492h1M345 492h1M347 492h1M356 492h1M336 493h1M345 493h1M347 493h1M356 493h1M336 494h1M345 494h1M348 494h1M356 494h1M336 495h1M345 495h1M348 495h1M357 495h1M336 496h1M346 496h1M349 496h1M358 496h1M336 497h1M347 497h1M350 497h2M358 497h1M336 498h1M348 498h1M352 498h7M337 499h1M348 499h1M338 500h11" />
<path stroke="#281854" d="M346 418h5M351 419h2M353 420h1M354 421h1M350 422h6M348 423h9M348 424h10M349 425h10M350 426h10M350 427h10M351 428h10M352 429h3M356 429h5M356 430h5M356 431h5M356 432h5M356 433h5M357 434h4M359 435h2M360 436h1" />
<path stroke="#beb3e0" d="M339 419h3M337 420h5M336 421h6M335 422h7M334 423h8M334 424h8M333 425h9M333 426h9M332 427h10M332 428h10M331 429h7M341 429h1M331 430h6M338 430h3M331 431h5M338 431h3M331 432h5M338 432h3M331 433h6M339 433h2M331 434h7M341 434h1M332 435h10M332 436h10M333 437h10M334 438h9M335 439h9M337 440h8M343 441h3M344 442h3M345 443h3M346 444h3M348 445h3M350 446h7M343 448h3M342 449h6M341 450h6M348 450h2M341 451h5M347 451h1M350 451h1M342 452h3M346 452h1M340 453h1M342 453h2M345 453h1M339 454h2M342 454h3M338 455h3M342 455h2M337 456h3M342 456h2M336 457h3M342 457h2M335 458h3M342 458h2M334 459h3M342 459h2M334 460h3M342 460h2M334 461h3M342 461h2M334 462h3M343 462h1M334 463h3M334 464h3M334 465h3M346 465h1M334 466h3M343 466h1M345 466h5M334 467h3M342 467h1M344 467h3M348 467h1M334 468h3M341 468h1M343 468h3M347 468h1M334 469h3M342 469h3M346 469h1M334 470h3M341 470h5M334 471h3M341 471h4M341 472h5M335 473h3M341 473h4M336 474h3M341 474h3M337 475h3M341 475h3M340 476h4M340 477h4M340 478h4M340 479h4M340 480h4M340 481h4M348 481h1M340 482h4M348 482h1M340 483h4M348 483h2M339 484h5M347 484h3M339 485h5M347 485h3M339 486h5M347 486h3M339 487h5M347 487h4M339 488h5M347 488h4M339 489h5M347 489h4M339 490h5M347 490h4M339 491h5M347 491h5M339 492h5M349 492h3M340 493h4M348 493h1M350 493h2M339 494h1M342 494h2M349 494h1M339 495h3M349 495h4M339 496h6M350 496h4M339 497h7M352 497h6M339 498h8M338 499h9" />
<path stroke="#e3e0f2" d="M342 419h9M342 420h7M342 421h6M342 422h5M342 423h4M342 424h3M342 425h3M342 426h2M342 427h2M342 428h2M342 429h2M342 430h2M342 431h2M342 432h2M342 433h2M342 434h2M342 435h2M342 436h2M343 437h1M343 438h2M344 439h2M345 440h2M346 441h2M347 442h3M348 443h2M349 444h3M351 445h4M347 450h1M346 451h1M348 451h2M345 452h1M347 452h4M344 453h1M346 453h6M345 454h7M344 455h9M340 456h1M344 456h9M354 456h1M339 457h2M344 457h9M338 458h3M344 458h10M337 459h4M344 459h10M337 460h4M344 460h10M337 461h4M344 461h10M337 462h4M344 462h10M337 463h4M344 463h10M337 464h3M347 464h7M337 465h3M337 466h3M350 466h4M337 467h3M347 467h1M349 467h5M337 468h3M346 468h1M348 468h6M337 469h3M345 469h1M347 469h7M337 470h3M346 470h8M337 471h2M345 471h9M346 472h8M338 473h1M345 473h5M351 473h3M339 474h1M344 474h6M351 474h3M344 475h5M350 475h4M344 476h5M350 476h4M344 477h5M350 477h4M344 478h4M349 478h5M344 479h4M349 479h5M344 480h4M349 480h5M344 481h3M349 481h5M344 482h3M349 482h5M344 483h3M350 483h4M344 484h2M350 484h4M344 485h2M350 485h4M344 486h2M350 486h4M344 487h2M351 487h3M344 488h2M351 488h3M344 489h2M351 489h3M344 490h2M351 490h3M344 491h1M352 491h2M344 492h1M352 492h2M344 493h1M352 493h2M344 494h1M353 495h2M345 496h1M354 496h3M346 497h1M347 498h1M347 499h1" />
<path stroke="#ffffff" d="M349 420h4M348 421h6M347 422h3M346 423h2M345 424h1M350 443h2M352 444h6M355 445h3M351 451h4M351 452h4M352 453h4M352 454h4M353 455h4M353 456h1M355 456h2M353 457h4M354 458h3M354 459h3M354 460h3M354 461h3M354 462h3M354 463h3M354 464h3M354 466h2M354 467h2M354 468h2M354 469h2M354 470h2M354 471h2M354 472h2M354 473h2M354 474h2M354 475h2M354 476h2M354 477h2M354 478h2M354 479h2M354 480h2M354 481h2M354 482h2M354 483h2M354 484h2M354 485h2M354 486h2M354 487h2M354 488h2M354 489h2M354 490h2M354 491h2M354 492h2M354 493h2M355 495h2M357 496h1" />
<path stroke="#740035" d="M355 429h1M353 430h3M352 431h1M355 431h1M351 432h1M355 432h1M351 433h1M355 433h1M351 434h1M355 434h1M351 435h1M354 435h1M351 436h2" />
<path stroke="#9664e0" d="M337 431h1M337 432h1M338 433h1M337 447h6M338 448h5M339 449h3M340 450h1M333 455h1M333 456h4M333 457h3M332 458h3M332 459h2M332 460h2M332 461h2M332 462h2M332 463h2M342 463h1M332 464h2M341 464h3M332 465h2M341 465h5M332 466h2M341 466h2M344 466h1M333 467h1M341 467h1M343 467h1M333 468h1M342 468h1M358 468h1M333 469h1M341 469h1M358 469h2M333 470h1M358 470h2M340 471h1M358 471h2M339 472h2M334 473h1M340 473h1M334 474h2M335 475h2M338 477h2M337 478h3M337 479h3M337 480h3M337 481h3M337 482h3M337 483h3M337 484h2M337 485h2M337 486h2M337 487h2M337 488h2M337 489h2M337 490h2M337 491h2M337 492h2M348 492h1M337 493h3M349 493h1M337 494h2M340 494h2M350 494h6M337 495h2M342 495h3M337 496h2M337 497h2M337 498h2" />
<path stroke="#c40013" d="M353 431h2M352 432h1M354 432h1M352 433h1M354 433h1M352 434h1M354 434h1M352 435h2" />
<path stroke="#ff4657" d="M353 432h1M353 433h1M353 434h1" />
<path stroke="#806384" d="M328 500h1M366 500h1M327 501h1M367 501h1M326 502h2M367 502h2M325 503h3M367 503h3M325 504h4M366 504h4M325 505h5M365 505h5M326 506h6M362 506h7M327 507h41M328 508h39M329 509h37M331 510h33M333 511h29" />
<path stroke="#6a526e" d="M329 500h9M349 500h17M328 501h39M328 502h39M328 503h39M329 504h37M330 505h35M332 506h30" />
</svg>