<svg xmlns="http://www.w3.org/2000/svg" viewBox="0 -0.5 851 600" shape-rendering="crispEdges">
<metadata>Made with Pixels to Svg https://codepen.io/shshaw/pen/XbxvNj</metadata>
<path stroke="#190f3a" d="M342 417h1M340 418h2M339 419h1M338 420h1M337 421h1M343 421h1M336 422h2M342 422h3M336 423h1M341 423h4M334 424h2M340 424h6M334 425h1M339 425h7M334 426h1M339 426h7M334 427h1M338 427h9M334 428h1M338 428h5M346 428h2M334 429h1M338 429h4M347 429h1M334 430h1M338 430h3M348 430h1M334 431h1M338 431h3M348 431h2M334 432h1M338 432h3M348 432h3M334 433h1M338 433h4M347 433h5M334 434h1M339 434h4M346 434h7M334 435h1M339 435h15M334 436h2M340 436h15M335 437h1M340 437h17M335 438h1M341 438h17M335 439h2M341 439h18M332 440h6M342 440h16M360 440h1M331 441h7M342 441h16M359 441h1M330 442h9M343 442h14M359 442h1M330 443h10M344 443h11M358 443h3M329 444h8M340 444h1M345 444h9M357 444h5M329 445h7M341 445h2M355 445h2M359 445h4M328 446h7M343 446h3M353 446h3M360 446h4M328 447h6M346 447h8M361 447h3M328 448h5M362 448h2M328 449h1M343 449h1M358 449h1M363 449h1M327 450h2M344 450h1M357 450h1M364 450h1M327 451h1M334 451h1M344 451h2M356 451h2M365 451h1M326 452h2M334 452h1M345 452h2M355 452h2M366 452h1M325 453h2M335 453h1M346 453h10M367 453h1M325 454h1M335 454h1M347 454h8M368 454h1M325 455h1M336 455h1M369 455h1M325 456h1M336 456h1M369 456h1M325 457h1M336 457h2M370 457h1M325 458h1M336 458h2M370 458h1M325 459h1M336 459h2M360 459h1M371 459h1M325 460h1M336 460h2M360 460h2M371 460h1M326 461h1M336 461h2M359 461h1M362 461h1M372 461h1M326 462h1M336 462h6M358 462h1M360 462h1M362 462h2M372 462h1M326 463h1M336 463h2M342 463h3M357 463h1M361 463h2M364 463h1M373 463h1M326 464h1M336 464h1M345 464h12M362 464h1M365 464h1M373 464h1M327 465h1M335 465h2M362 465h1M366 465h1M374 465h1M327 466h1M335 466h2M362 466h1M367 466h2M374 466h1M328 467h1M335 467h1M362 467h1M369 467h1M374 467h1M328 468h1M335 468h1M362 468h1M370 468h4M328 469h1M335 469h1M362 469h1M328 470h1M335 470h1M362 470h1M329 471h1M335 471h1M362 471h1M330 472h1M335 472h1M362 472h1M331 473h1M334 473h1M362 473h1M332 474h3M362 474h1M333 475h1M362 475h1M333 476h1M362 476h1M333 477h1M348 477h2M362 477h1M333 478h1M348 478h2M362 478h1M333 479h1M347 479h1M349 479h1M362 479h1M333 480h1M347 480h1M349 480h1M362 480h1M333 481h1M346 481h1M349 481h1M362 481h1M333 482h1M346 482h1M349 482h1M362 482h1M333 483h1M345 483h1M349 483h1M362 483h1M333 484h1M345 484h1M349 484h1M361 484h2M333 485h1M344 485h1M349 485h1M361 485h2M333 486h2M344 486h1M349 486h1M360 486h1M334 487h1M343 487h1M349 487h1M360 487h1M333 488h1M343 488h1M349 488h1M359 488h1M333 489h1M342 489h1M349 489h1M358 489h1M333 490h1M342 490h1M349 490h1M357 490h1M333 491h1M342 491h1M349 491h1M357 491h1M333 492h1M342 492h1M349 492h1M357 492h1M333 493h1M342 493h1M349 493h1M357 493h1M333 494h1M342 494h1M349 494h1M358 494h1M333 495h1M343 495h1M349 495h1M358 495h1M334 496h1M344 496h1M350 496h1M358 496h2M335 497h1M344 497h1M351 497h1M359 497h2M336 498h2M344 498h1M352 498h2M359 498h2M338 499h7M354 499h7" />
<path stroke="#2c1b5c" d="M343 417h10M353 418h2M355 419h1M356 420h1M344 421h11M357 421h1M345 422h11M358 422h1M345 423h12M359 423h1M346 424h12M360 424h1M346 425h13M360 425h1M346 426h13M361 426h1M347 427h13M361 427h1M348 428h6M357 428h3M361 428h1M348 429h5M358 429h2M361 429h1M349 430h3M359 430h1M361 430h1M350 431h2M359 431h1M361 431h1M351 432h1M359 432h1M361 432h1M352 433h1M358 433h2M361 433h1M353 434h1M357 434h3M361 434h1M354 435h6M361 435h1M355 436h5M361 436h1M357 437h3M361 437h1M358 438h1M361 438h1M361 439h1" />
<path stroke="#beb3e0" d="M342 418h1M340 419h2M339 420h2M338 421h2M338 422h1M337 423h1M336 424h2M335 425h3M335 426h3M335 427h3M335 428h3M335 429h3M335 430h3M335 431h3M335 432h3M335 433h3M335 434h4M335 435h4M336 436h4M336 437h4M336 438h5M337 439h4M338 440h4M338 441h4M339 442h4M340 443h4M341 444h4M343 445h1" />
<path stroke="#e0dbec" d="M343 418h10M342 419h6M341 420h3M340 421h3M339 422h3M338 423h3M338 424h2M338 425h1M338 426h1M344 445h2M346 446h3M340 448h1M339 449h1M341 449h1M344 449h6M338 450h1M340 450h1M342 450h2M345 450h6M339 451h1M341 451h3M346 451h6M338 452h1M340 452h5M347 452h6M362 452h1M332 453h1M339 453h7M362 453h2M331 454h1M338 454h1M340 454h7M363 454h2M330 455h1M332 455h1M339 455h15M363 455h3M331 456h1M333 456h1M338 456h1M340 456h14M364 456h3M330 457h1M332 457h3M339 457h1M341 457h13M364 457h3M331 458h5M340 458h14M365 458h3M330 459h6M341 459h13M365 459h3M330 460h6M342 460h12M366 460h3M330 461h6M342 461h13M367 461h2M330 462h6M343 462h12M368 462h2M330 463h6M345 463h10M369 463h2M331 464h5M332 465h1M342 466h15M369 466h2M334 467h1M342 467h15M370 467h2M333 468h2M341 468h16M332 469h3M340 469h18M334 470h1M341 470h17M340 471h18M341 472h18M340 473h19M339 474h1M341 474h18M340 475h20M339 476h21M338 477h1M340 477h8M350 477h10M339 478h9M350 478h11M338 479h1M340 479h7M351 479h10M339 480h8M351 480h10M338 481h8M351 481h10M339 482h7M351 482h10M338 483h7M351 483h10M339 484h6M351 484h9M338 485h3M351 485h9M351 486h8M341 487h2M351 487h8M339 488h4M352 488h6M338 489h4M353 489h4M339 490h3M352 490h1M355 490h2M338 491h1M340 491h2M352 491h3M339 492h1M341 492h1M352 492h5M340 493h1M352 493h5M352 494h6M352 495h6M353 496h5M354 497h5M355 498h4" />
<path stroke="#ffffff" d="M348 419h7M344 420h12M355 421h2M356 422h2M357 423h2M358 424h2M359 425h1M359 426h2M360 427h1M360 428h1M360 429h1M360 430h1M360 431h1M360 432h1M360 433h1M360 434h1M360 435h1M360 436h1M360 437h1M359 438h2M359 439h2M358 440h2M358 441h1M357 442h2M355 443h3M354 444h3M346 445h9M357 445h2M349 446h4M356 446h4M356 447h5M354 448h7M350 449h8M359 449h4M351 450h6M358 450h6M352 451h4M358 451h3M362 451h3M353 452h2M357 452h4M363 452h3M356 453h6M364 453h3M355 454h7M365 454h3M354 455h7M366 455h3M354 456h7M367 456h2M354 457h7M367 457h3M354 458h7M368 458h2M354 459h6M368 459h3M354 460h6M369 460h2M355 461h4M369 461h3M355 462h3M370 462h2M355 463h2M372 463h1M370 464h3M370 465h4M357 466h5M371 466h3M357 467h5M372 467h2M357 468h5M358 469h4M358 470h4M358 471h4M359 472h3M359 473h3M359 474h3M360 475h2M360 476h2M360 477h2M361 478h1M361 479h1M361 480h1M361 481h1M361 482h1M361 483h1M360 484h1M360 485h1M359 486h1M359 487h1M358 488h1M357 489h1" />
<path stroke="#6d0030" d="M343 428h3M354 428h3M342 429h1M346 429h1M353 429h1M357 429h1M341 430h1M347 430h1M352 430h1M358 430h1M341 431h1M347 431h1M352 431h1M358 431h1M341 432h1M347 432h1M352 432h1M358 432h1M342 433h1M346 433h1M353 433h1M357 433h1M343 434h3M354 434h3" />
<path stroke="#b50012" d="M343 429h3M354 429h3M342 430h2M345 430h2M353 430h2M356 430h2M342 431h1M346 431h1M353 431h1M357 431h1M342 432h2M345 432h2M353 432h2M356 432h2M343 433h3M354 433h3" />
<path stroke="#ff4450" d="M344 430h1M355 430h1M343 431h3M354 431h3M344 432h1M355 432h1" />
<path stroke="#8c60ce" d="M337 444h3M336 445h3M335 446h3M334 447h3M333 448h3M329 449h6M329 450h2M333 450h2M328 451h2M333 451h1M328 452h1M333 452h1M327 453h1M333 453h2M326 454h2M333 454h2M326 455h2M334 455h2M326 456h2M334 456h2M326 457h2M335 457h1M326 458h2M326 459h2M326 460h2M327 461h1M360 461h2M327 462h1M359 462h1M361 462h1M327 463h1M338 463h4M358 463h1M327 464h1M337 464h8M357 464h1M328 465h1M334 465h1M337 465h3M344 465h13M328 466h2M334 466h1M337 466h2M329 467h5M336 467h3M329 468h1M336 468h2M329 469h1M336 469h2M329 470h1M336 470h1M336 471h1M336 472h1M335 473h1M335 474h1M334 475h2M334 476h1M334 477h1M334 478h1M334 479h1M334 480h1M334 481h1M334 482h1M334 483h1M334 484h1M334 485h1M343 485h1M335 486h1M341 486h2M335 487h6M350 487h1M334 488h1M351 488h1M334 489h1M352 489h1M334 490h1M353 490h2M334 491h1M355 491h2M334 492h1M334 493h2M334 494h2M334 495h3M335 496h3M336 497h3M338 498h6" />
<path stroke="#afa4d0" d="M339 445h2M338 446h5M337 447h9M354 447h2M336 448h4M341 448h13M361 448h1M335 449h4M340 449h1M342 449h1M331 450h2M335 450h3M339 450h1M341 450h1M330 451h3M335 451h4M340 451h1M361 451h1M329 452h4M335 452h3M339 452h1M361 452h1M328 453h4M336 453h3M328 454h3M332 454h1M336 454h2M339 454h1M362 454h1M328 455h2M331 455h1M333 455h1M337 455h2M361 455h2M328 456h3M332 456h1M337 456h1M339 456h1M361 456h3M328 457h2M331 457h1M338 457h1M340 457h1M361 457h3M328 458h3M338 458h2M361 458h4M328 459h2M338 459h3M361 459h4M328 460h2M338 460h4M362 460h4M328 461h2M338 461h4M363 461h4M328 462h2M342 462h1M364 462h4M328 463h2M359 463h2M365 463h4M371 463h1M328 464h3M358 464h4M366 464h4M329 465h3M333 465h1M340 465h4M357 465h5M367 465h3M330 466h4M339 466h3M339 467h3M330 468h3M338 468h3M330 469h2M338 469h2M330 470h4M337 470h4M330 471h5M337 471h3M331 472h4M337 472h4M332 473h2M336 473h4M336 474h3M340 474h1M336 475h4M335 476h4M335 477h3M339 477h1M335 478h4M335 479h3M339 479h1M350 479h1M335 480h4M350 480h1M335 481h3M350 481h1M335 482h4M350 482h1M335 483h3M350 483h1M335 484h4M350 484h1M335 485h3M341 485h2M350 485h1M336 486h5M343 486h1M350 486h1M335 488h4M350 488h1M335 489h3M350 489h2M335 490h4M350 490h2M335 491h3M339 491h1M350 491h2M335 492h4M340 492h1M350 492h2M336 493h4M341 493h1M350 493h2M336 494h6M350 494h2M337 495h6M350 495h2M338 496h6M351 496h2M339 497h5M352 497h2M354 498h1" />
</svg>