<svg xmlns="http://www.w3.org/2000/svg" viewBox="0 -0.5 851 600" shape-rendering="crispEdges">
<metadata>Made with Pixels to Svg https://codepen.io/shshaw/pen/XbxvNj</metadata>
<path stroke="#190f3a" d="M339 418h4M337 419h2M336 420h1M335 421h1M334 422h1M333 423h1M333 424h1M332 425h1M345 425h1M332 426h1M344 426h3M331 427h1M344 427h3M331 428h1M344 428h4M330 429h1M338 429h3M344 429h5M330 430h1M337 430h1M341 430h1M344 430h6M330 431h1M336 431h1M341 431h1M344 431h7M330 432h1M336 432h1M341 432h1M344 432h7M330 433h1M337 433h1M341 433h1M344 433h7M330 434h1M338 434h3M344 434h7M331 435h1M344 435h7M355 435h1M331 436h1M344 436h7M353 436h4M332 437h1M344 437h16M333 438h1M345 438h16M334 439h1M346 439h15M335 440h2M347 440h14M337 441h6M348 441h13M337 442h7M350 442h11M336 443h9M352 443h8M336 444h10M358 444h1M336 445h12M358 445h1M336 446h14M357 446h1M333 447h5M343 447h14M332 448h6M346 448h10M331 449h9M348 449h7M331 450h10M350 450h5M331 451h11M355 451h1M331 452h8M341 452h1M355 452h1M331 453h8M341 453h1M356 453h1M331 454h8M342 454h1M356 454h1M331 455h3M342 455h1M357 455h1M332 456h1M342 456h1M357 456h1M332 457h1M343 457h1M357 457h1M332 458h1M343 458h1M357 458h1M333 459h1M343 459h1M357 459h1M333 460h1M344 460h1M357 460h1M333 461h1M344 461h1M357 461h1M334 462h1M345 462h1M357 462h1M334 463h1M345 463h1M357 463h1M334 464h1M345 464h2M357 464h1M335 465h1M345 465h1M347 465h11M335 466h1M345 466h1M356 466h2M336 467h1M345 467h1M356 467h2M336 468h2M345 468h1M356 468h2M336 469h1M338 469h1M344 469h1M346 469h1M356 469h2M336 470h1M339 470h1M342 470h2M347 470h1M356 470h2M336 471h1M340 471h2M347 471h1M356 471h2M336 472h1M340 472h1M347 472h1M356 472h2M336 473h1M341 473h1M347 473h1M356 473h1M336 474h1M342 474h1M346 474h1M356 474h1M336 475h1M343 475h3M356 475h1M356 476h1M336 477h1M349 477h1M356 477h1M336 478h1M349 478h1M356 478h1M336 479h1M348 479h1M356 479h1M336 480h1M348 480h1M356 480h1M336 481h1M348 481h1M356 481h1M336 482h1M347 482h1M356 482h1M336 483h1M347 483h1M357 483h1M335 484h1M347 484h1M357 484h1M334 485h1M346 485h1M357 485h1M334 486h1M346 486h1M358 486h1M333 487h1M346 487h1M358 487h1M333 488h1M345 488h1M358 488h1M333 489h1M345 489h1M359 489h1M332 490h1M344 490h1M346 490h1M359 490h1M332 491h1M343 491h1M347 491h1M360 491h1M332 492h1M342 492h1M348 492h1M361 492h1M331 493h1M341 493h1M349 493h1M362 493h3M331 494h1M340 494h1M350 494h1M364 494h1M331 495h1M340 495h1M351 495h1M363 495h1M331 496h1M340 496h1M352 496h1M362 496h1M331 497h1M341 497h1M353 497h1M361 497h1M332 498h1M342 498h1M354 498h1M359 498h2M333 499h1M343 499h1M355 499h4M333 500h11" />
<path stroke="#281854" d="M343 418h8M351 419h2M353 420h1M354 421h1M350 422h6M348 423h9M346 424h12M346 425h13M347 426h13M347 427h13M348 428h13M349 429h6M356 429h5M350 430h3M356 430h5M351 431h1M356 431h5M356 432h5M356 433h5M356 434h5M356 435h5M357 436h4M360 437h1" />
<path stroke="#beb3e0" d="M339 419h3M337 420h5M336 421h6M335 422h7M334 423h8M334 424h8M333 425h9M333 426h9M332 427h10M332 428h10M331 429h7M341 429h1M331 430h6M338 430h3M331 431h5M338 431h3M331 432h5M338 432h3M331 433h6M339 433h2M331 434h7M341 434h1M332 435h10M332 436h10M333 437h10M334 438h9M335 439h9M337 440h8M343 441h3M344 442h3M345 443h3M346 444h3M348 445h3M350 446h7M343 448h3M342 449h6M341 450h6M348 450h2M342 451h4M347 451h1M350 451h1M342 452h3M346 452h1M342 453h2M345 453h1M340 454h1M343 454h2M339 455h2M343 455h1M338 456h2M343 456h1M337 457h2M342 457h1M336 458h3M336 459h3M337 460h2M337 461h2M338 462h2M338 463h2M339 464h2M339 465h2M346 465h1M340 466h2M346 466h4M341 467h2M346 467h1M348 467h1M342 468h1M347 468h1M342 469h2M342 471h2M341 472h4M342 473h4M343 474h3M342 475h1M341 476h2M341 477h2M340 478h3M340 479h3M340 480h3M340 481h3M340 482h2M340 483h3M340 484h2M340 485h3M347 485h1M340 486h2M347 486h1M340 487h3M347 487h2M339 488h3M346 488h4M339 489h3M346 489h5M338 490h3M347 490h5M338 491h3M348 491h5M337 492h3M349 492h5M337 493h3M350 493h5M336 494h3M351 494h3M336 495h3M354 495h3M353 496h5M336 497h3M354 497h5M337 498h3M355 498h4M338 499h2" />
<path stroke="#eceaf5" d="M342 419h9M342 420h7M342 421h6M342 422h5M342 423h4M342 424h4M342 425h3M342 426h2M342 427h2M342 428h2M342 429h2M342 430h2M342 431h2M342 432h2M342 433h2M342 434h2M342 435h2M342 436h2M343 437h1M343 438h2M344 439h2M345 440h2M346 441h2M347 442h3M348 443h2M349 444h3M351 445h4M341 454h1M341 455h1M340 456h2M339 457h3M339 458h2M342 458h1M339 459h4M339 460h5M339 461h5M341 462h3M340 463h5M341 464h4M347 464h3M342 465h3M342 466h3M350 466h4M343 467h2M347 467h1M349 467h5M343 468h2M346 468h1M348 468h6M345 469h1M347 469h7M344 470h3M348 470h6M344 471h3M349 471h5M345 472h2M348 472h6M346 473h1M348 473h6M347 474h7M346 475h8M343 476h11M343 477h6M350 477h4M343 478h6M350 478h4M343 479h5M349 479h5M343 480h5M349 480h5M343 481h5M349 481h5M342 482h5M348 482h6M343 483h4M348 483h6M342 484h5M348 484h6M343 485h3M348 485h6M343 486h3M348 486h6M344 487h2M349 487h6M342 488h2M350 488h6M342 489h3M351 489h5M341 490h3M352 490h5M341 491h2M353 491h5M340 492h2M354 492h5M340 493h1M355 493h5M339 494h1M360 494h1M339 495h1M357 495h5M358 496h4M339 497h2M359 497h2M340 498h2M340 499h3" />
<path stroke="#ffffff" d="M349 420h4M348 421h6M347 422h3M346 423h2M350 443h2M352 444h6M355 445h3M351 451h4M351 452h4M352 453h4M352 454h4M353 455h4M353 456h4M353 457h4M358 457h1M354 458h3M358 458h1M354 459h3M358 459h1M354 460h3M354 461h3M354 462h3M354 463h3M354 464h3M354 466h2M354 467h2M354 468h2M354 469h2M354 470h2M354 471h2M354 472h2M354 473h2M354 474h2M354 475h2M354 476h2M354 477h2M354 478h2M354 479h2M354 480h2M354 481h2M354 482h2M354 483h2M354 484h2M354 485h2M354 486h2M355 487h2M356 488h1M356 489h2M357 490h2M358 491h2M359 492h2M361 494h3M362 495h1" />
<path stroke="#740035" d="M355 429h1M353 430h3M352 431h1M355 431h1M351 432h1M355 432h1M351 433h1M355 433h1M351 434h1M355 434h1M351 435h1M354 435h1M351 436h2" />
<path stroke="#9664e0" d="M337 431h1M337 432h1M338 433h1M339 447h4M338 448h5M340 449h2M339 452h2M339 453h2M339 454h1M334 455h5M333 456h5M333 457h4M333 458h3M334 459h2M334 460h3M334 461h3M335 462h3M335 463h3M335 464h4M336 465h3M336 466h4M337 467h4M338 468h4M337 469h1M339 469h3M337 470h2M340 470h2M337 471h3M337 472h3M337 473h4M337 474h5M337 475h5M337 476h4M337 477h4M337 478h3M337 479h3M337 480h3M337 481h3M337 482h3M337 483h3M336 484h4M335 485h5M335 486h5M334 487h6M334 488h5M334 489h5M333 490h5M333 491h5M333 492h4M332 493h5M360 493h2M332 494h4M354 494h6M332 495h4M352 495h2M332 496h8M332 497h4M333 498h4M334 499h4" />
<path stroke="#c40013" d="M353 431h2M352 432h1M354 432h1M352 433h1M354 433h1M352 434h1M354 434h1M352 435h2" />
<path stroke="#ff4657" d="M353 432h1M353 433h1M353 434h1" />
<path stroke="rgba(26,13,64,0.0784313725490196)" d="M335 446h1M335 476h1" />
<path stroke="#9663df" d="M338 447h1" />
<path stroke="#f0eef8" d="M347 450h1M346 451h1M348 451h2M345 452h1M347 452h4M344 453h1M346 453h6M345 454h7M344 455h9M344 456h9M344 457h9M341 458h1M344 458h10M344 459h10M345 460h9M345 461h9M344 462h1M346 462h8M346 463h8M350 464h4" />
<path stroke="#e3e0f2" d="M340 462h1M342 486h1M343 487h1M344 488h1M345 490h1" />
<path stroke="#e4e0ef" d="M341 465h1" />
<path stroke="#dbd9e8" d="M348 471h1" />
<path stroke="rgba(25,15,59,0.9058823529411765)" d="M336 476h1" />
<path stroke="#806384" d="M328 500h1M366 500h1M327 501h1M367 501h1M326 502h2M367 502h2M325 503h3M367 503h3M325 504h4M366 504h4M325 505h5M365 505h5M326 506h6M362 506h7M327 507h41M328 508h39M329 509h37M331 510h33M333 511h29" />
<path stroke="#6a526e" d="M329 500h4M344 500h22M328 501h39M328 502h39M328 503h39M329 504h37M330 505h35M332 506h30" />
</svg>