<svg xmlns="http://www.w3.org/2000/svg" viewBox="0 -0.5 77 111" shape-rendering="crispEdges">
<metadata>Made with Pixels to Svg https://codepen.io/shshaw/pen/XbxvNj</metadata>
<path stroke="#190f3a" d="M33 6h1M31 7h2M30 8h1M29 9h1M28 10h1M34 10h1M27 11h2M33 11h3M27 12h1M32 12h4M25 13h2M31 13h6M25 14h1M30 14h7M25 15h1M30 15h7M25 16h1M29 16h9M25 17h1M29 17h5M37 17h2M25 18h1M29 18h4M38 18h1M25 19h1M29 19h3M39 19h1M25 20h1M29 20h3M39 20h2M25 21h1M29 21h3M39 21h3M25 22h1M29 22h4M38 22h5M25 23h1M30 23h4M37 23h7M25 24h1M30 24h15M25 25h2M31 25h15M26 26h1M31 26h17M26 27h1M32 27h17M26 28h2M32 28h18M23 29h6M33 29h16M51 29h1M22 30h7M33 30h16M50 30h1M21 31h9M34 31h14M50 31h1M21 32h10M35 32h11M49 32h3M20 33h8M31 33h1M36 33h9M48 33h5M20 34h7M32 34h2M46 34h2M50 34h4M19 35h7M34 35h3M44 35h3M51 35h4M19 36h6M37 36h8M52 36h3M19 37h5M53 37h2M19 38h1M34 38h1M49 38h1M54 38h1M18 39h2M35 39h1M48 39h1M55 39h1M18 40h1M25 40h1M35 40h2M47 40h2M56 40h1M17 41h2M25 41h1M36 41h2M46 41h2M57 41h1M16 42h2M26 42h1M37 42h10M58 42h1M16 43h1M26 43h1M38 43h8M59 43h1M16 44h1M27 44h1M60 44h1M16 45h1M27 45h1M60 45h1M16 46h1M27 46h2M61 46h1M16 47h1M27 47h2M61 47h1M16 48h1M27 48h2M51 48h1M62 48h1M16 49h1M27 49h2M51 49h2M62 49h1M17 50h1M27 50h2M50 50h1M53 50h1M63 50h1M17 51h1M27 51h6M49 51h1M51 51h1M53 51h2M63 51h1M17 52h1M27 52h2M33 52h3M48 52h1M52 52h2M55 52h1M64 52h1M17 53h1M27 53h1M36 53h12M53 53h1M56 53h1M64 53h1M18 54h1M26 54h2M53 54h1M57 54h1M65 54h1M18 55h1M26 55h2M53 55h1M58 55h2M65 55h1M19 56h1M26 56h1M53 56h1M60 56h1M65 56h1M19 57h1M26 57h1M53 57h1M61 57h4M19 58h1M26 58h1M53 58h1M19 59h1M26 59h1M53 59h1M20 60h1M26 60h1M53 60h1M21 61h1M26 61h1M53 61h1M22 62h1M25 62h1M53 62h1M23 63h3M53 63h1M24 64h1M53 64h1M24 65h1M53 65h1M24 66h1M39 66h2M53 66h1M24 67h1M39 67h2M53 67h1M24 68h1M38 68h1M40 68h1M53 68h1M24 69h1M38 69h1M40 69h1M53 69h1M24 70h1M37 70h1M40 70h1M53 70h1M24 71h1M37 71h1M40 71h1M53 71h1M24 72h1M36 72h1M40 72h1M53 72h1M24 73h1M36 73h1M40 73h1M52 73h2M24 74h1M35 74h1M40 74h1M52 74h2M24 75h2M35 75h1M40 75h1M51 75h1M25 76h1M34 76h1M40 76h1M51 76h1M24 77h1M34 77h1M40 77h1M50 77h1M24 78h1M33 78h1M40 78h1M49 78h1M24 79h1M33 79h1M40 79h1M48 79h1M24 80h1M33 80h1M40 80h1M48 80h1M24 81h1M33 81h1M40 81h1M48 81h1M24 82h1M33 82h1M40 82h1M48 82h1M24 83h1M33 83h1M40 83h1M49 83h1M24 84h1M34 84h1M40 84h1M49 84h1M25 85h1M35 85h1M41 85h1M49 85h2M26 86h1M35 86h1M42 86h1M50 86h2M27 87h2M35 87h1M43 87h2M50 87h2M29 88h7M45 88h7" />
<path stroke="#2c1b5c" d="M34 6h10M44 7h2M46 8h1M47 9h1M35 10h11M48 10h1M36 11h11M49 11h1M36 12h12M50 12h1M37 13h12M51 13h1M37 14h13M51 14h1M37 15h13M52 15h1M38 16h13M52 16h1M39 17h6M48 17h3M52 17h1M39 18h5M49 18h2M52 18h1M40 19h3M50 19h1M52 19h1M41 20h2M50 20h1M52 20h1M42 21h1M50 21h1M52 21h1M43 22h1M49 22h2M52 22h1M44 23h1M48 23h3M52 23h1M45 24h6M52 24h1M46 25h5M52 25h1M48 26h3M52 26h1M49 27h1M52 27h1M52 28h1" />
<path stroke="#beb3e0" d="M33 7h1M31 8h2M30 9h2M29 10h2M29 11h1M28 12h1M27 13h2M26 14h3M26 15h3M26 16h3M26 17h3M26 18h3M26 19h3M26 20h3M26 21h3M26 22h3M26 23h4M26 24h4M27 25h4M27 26h4M27 27h5M28 28h4M29 29h4M29 30h4M30 31h4M31 32h4M32 33h4M34 34h1" />
<path stroke="#e0dbec" d="M34 7h10M33 8h6M32 9h3M31 10h3M30 11h3M29 12h3M29 13h2M29 14h1M29 15h1M35 34h2M37 35h3M31 37h1M30 38h1M32 38h1M35 38h6M29 39h1M31 39h1M33 39h2M36 39h6M30 40h1M32 40h3M37 40h6M29 41h1M31 41h5M38 41h6M53 41h1M23 42h1M30 42h7M53 42h2M22 43h1M29 43h1M31 43h7M54 43h2M21 44h1M23 44h1M30 44h15M54 44h3M22 45h1M24 45h1M29 45h1M31 45h14M55 45h3M21 46h1M23 46h3M30 46h1M32 46h13M55 46h3M22 47h5M31 47h14M56 47h3M21 48h6M32 48h13M56 48h3M21 49h6M33 49h12M57 49h3M21 50h6M33 50h13M58 50h2M21 51h6M34 51h12M59 51h2M21 52h6M36 52h10M60 52h2M22 53h5M23 54h1M33 55h15M60 55h2M25 56h1M33 56h15M61 56h2M24 57h2M32 57h16M23 58h3M31 58h18M25 59h1M32 59h17M31 60h18M32 61h18M31 62h19M30 63h1M32 63h18M31 64h20M30 65h21M29 66h1M31 66h8M41 66h10M30 67h9M41 67h11M29 68h1M31 68h7M42 68h10M30 69h8M42 69h10M29 70h8M42 70h10M30 71h7M42 71h10M29 72h7M42 72h10M30 73h6M42 73h9M29 74h3M42 74h9M42 75h8M32 76h2M42 76h8M30 77h4M43 77h6M29 78h4M44 78h4M30 79h3M43 79h1M46 79h2M29 80h1M31 80h2M43 80h3M30 81h1M32 81h1M43 81h5M31 82h1M43 82h5M43 83h6M43 84h6M44 85h5M45 86h5M46 87h4" />
<path stroke="#ffffff" d="M39 8h7M35 9h12M46 10h2M47 11h2M48 12h2M49 13h2M50 14h1M50 15h2M51 16h1M51 17h1M51 18h1M51 19h1M51 20h1M51 21h1M51 22h1M51 23h1M51 24h1M51 25h1M51 26h1M50 27h2M50 28h2M49 29h2M49 30h1M48 31h2M46 32h3M45 33h3M37 34h9M48 34h2M40 35h4M47 35h4M47 36h5M45 37h7M41 38h8M50 38h4M42 39h6M49 39h6M43 40h4M49 40h3M53 40h3M44 41h2M48 41h4M54 41h3M47 42h6M55 42h3M46 43h7M56 43h3M45 44h7M57 44h3M45 45h7M58 45h2M45 46h7M58 46h3M45 47h7M59 47h2M45 48h6M59 48h3M45 49h6M60 49h2M46 50h4M60 50h3M46 51h3M61 51h2M46 52h2M63 52h1M61 53h3M61 54h4M48 55h5M62 55h3M48 56h5M63 56h2M48 57h5M49 58h4M49 59h4M49 60h4M50 61h3M50 62h3M50 63h3M51 64h2M51 65h2M51 66h2M52 67h1M52 68h1M52 69h1M52 70h1M52 71h1M52 72h1M51 73h1M51 74h1M50 75h1M50 76h1M49 77h1M48 78h1" />
<path stroke="#6d0030" d="M34 17h3M45 17h3M33 18h1M37 18h1M44 18h1M48 18h1M32 19h1M38 19h1M43 19h1M49 19h1M32 20h1M38 20h1M43 20h1M49 20h1M32 21h1M38 21h1M43 21h1M49 21h1M33 22h1M37 22h1M44 22h1M48 22h1M34 23h3M45 23h3" />
<path stroke="#b50012" d="M34 18h3M45 18h3M33 19h2M36 19h2M44 19h2M47 19h2M33 20h1M37 20h1M44 20h1M48 20h1M33 21h2M36 21h2M44 21h2M47 21h2M34 22h3M45 22h3" />
<path stroke="#ff4450" d="M35 19h1M46 19h1M34 20h3M45 20h3M35 21h1M46 21h1" />
<path stroke="#8c60ce" d="M28 33h3M27 34h3M26 35h3M25 36h3M24 37h3M20 38h6M20 39h2M24 39h2M19 40h2M24 40h1M19 41h1M24 41h1M18 42h1M24 42h2M17 43h2M24 43h2M17 44h2M25 44h2M17 45h2M25 45h2M17 46h2M26 46h1M17 47h2M17 48h2M17 49h2M18 50h1M51 50h2M18 51h1M50 51h1M52 51h1M18 52h1M29 52h4M49 52h1M18 53h1M28 53h8M48 53h1M19 54h1M25 54h1M28 54h3M35 54h13M19 55h2M25 55h1M28 55h2M20 56h5M27 56h3M20 57h1M27 57h2M20 58h1M27 58h2M20 59h1M27 59h1M27 60h1M27 61h1M26 62h1M26 63h1M25 64h2M25 65h1M25 66h1M25 67h1M25 68h1M25 69h1M25 70h1M25 71h1M25 72h1M25 73h1M25 74h1M34 74h1M26 75h1M32 75h2M26 76h6M41 76h1M25 77h1M42 77h1M25 78h1M43 78h1M25 79h1M44 79h2M25 80h1M46 80h2M25 81h1M25 82h2M25 83h2M25 84h3M26 85h3M27 86h3M29 87h6" />
<path stroke="#afa4d0" d="M30 34h2M29 35h5M28 36h9M45 36h2M27 37h4M32 37h13M52 37h1M26 38h4M31 38h1M33 38h1M22 39h2M26 39h3M30 39h1M32 39h1M21 40h3M26 40h4M31 40h1M52 40h1M20 41h4M26 41h3M30 41h1M52 41h1M19 42h4M27 42h3M19 43h3M23 43h1M27 43h2M30 43h1M53 43h1M19 44h2M22 44h1M24 44h1M28 44h2M52 44h2M19 45h3M23 45h1M28 45h1M30 45h1M52 45h3M19 46h2M22 46h1M29 46h1M31 46h1M52 46h3M19 47h3M29 47h2M52 47h4M19 48h2M29 48h3M52 48h4M19 49h2M29 49h4M53 49h4M19 50h2M29 50h4M54 50h4M19 51h2M33 51h1M55 51h4M19 52h2M50 52h2M56 52h4M62 52h1M19 53h3M49 53h4M57 53h4M20 54h3M24 54h1M31 54h4M48 54h5M58 54h3M21 55h4M30 55h3M30 56h3M21 57h3M29 57h3M21 58h2M29 58h2M21 59h4M28 59h4M21 60h5M28 60h3M22 61h4M28 61h4M23 62h2M27 62h4M27 63h3M31 63h1M27 64h4M26 65h4M26 66h3M30 66h1M26 67h4M26 68h3M30 68h1M41 68h1M26 69h4M41 69h1M26 70h3M41 70h1M26 71h4M41 71h1M26 72h3M41 72h1M26 73h4M41 73h1M26 74h3M32 74h2M41 74h1M27 75h5M34 75h1M41 75h1M26 77h4M41 77h1M26 78h3M41 78h2M26 79h4M41 79h2M26 80h3M30 80h1M41 80h2M26 81h4M31 81h1M41 81h2M27 82h4M32 82h1M41 82h2M27 83h6M41 83h2M28 84h6M41 84h2M29 85h6M42 85h2M30 86h5M43 86h2M45 87h1" />
</svg>