<svg xmlns="http://www.w3.org/2000/svg" viewBox="0 -0.5 851 600" shape-rendering="crispEdges">
<metadata>Made with Pixels to Svg https://codepen.io/shshaw/pen/XbxvNj</metadata>
<path stroke="#190f3a" d="M339 418h8M337 419h2M336 420h1M335 421h1M334 422h1M333 423h1M348 423h1M333 424h1M346 424h3M332 425h1M345 425h5M332 426h1M344 426h7M331 427h1M344 427h7M331 428h1M344 428h8M330 429h1M338 429h3M344 429h9M330 430h1M337 430h1M341 430h1M344 430h9M330 431h1M336 431h1M341 431h1M344 431h8M330 432h1M336 432h1M341 432h1M344 432h7M330 433h1M337 433h1M341 433h1M344 433h7M356 433h1M330 434h1M338 434h3M344 434h7M356 434h2M331 435h1M344 435h7M355 435h5M331 436h1M344 436h7M353 436h8M332 437h1M344 437h17M333 438h1M345 438h16M334 439h1M346 439h15M335 440h2M347 440h14M337 441h6M348 441h13M337 442h7M350 442h11M336 443h9M352 443h8M336 444h10M358 444h1M336 445h12M358 445h1M336 446h14M357 446h1M334 447h3M343 447h14M334 448h4M346 448h10M333 449h6M348 449h7M333 450h7M350 450h5M333 451h8M355 451h1M333 452h8M355 452h1M332 453h10M350 453h1M356 453h1M332 454h10M351 454h1M356 454h1M332 455h1M334 455h5M341 455h1M352 455h1M357 455h1M330 456h3M336 456h2M341 456h1M353 456h5M330 457h1M341 457h1M357 457h1M330 458h1M340 458h1M357 458h1M330 459h1M340 459h1M357 459h1M329 460h1M340 460h1M357 460h1M329 461h1M340 461h1M357 461h1M329 462h1M339 462h4M357 462h1M329 463h1M339 463h1M357 463h1M328 464h1M338 464h1M344 464h3M357 464h1M328 465h1M338 465h1M347 465h12M328 466h1M337 466h1M356 466h2M359 466h1M328 467h1M337 467h1M356 467h2M360 467h1M328 468h1M337 468h1M356 468h2M361 468h1M328 469h1M336 469h1M356 469h2M362 469h1M329 470h1M336 470h1M356 470h2M363 470h1M329 471h1M336 471h1M356 471h2M363 471h1M328 472h1M330 472h4M335 472h1M348 472h1M356 472h2M362 472h2M328 473h1M334 473h1M349 473h1M356 473h1M360 473h2M329 474h1M334 474h1M350 474h1M356 474h4M329 475h1M335 475h1M351 475h1M356 475h1M330 476h3M335 476h2M351 476h1M356 476h1M333 477h2M336 477h2M352 477h1M356 477h1M336 478h2M352 478h1M355 478h1M336 479h2M353 479h3M336 480h3M353 480h2M336 481h1M338 481h1M353 481h2M336 482h1M338 482h1M354 482h1M336 483h1M339 483h1M354 483h1M335 484h1M340 484h1M355 484h1M334 485h1M341 485h1M355 485h1M334 486h1M342 486h1M356 486h1M333 487h1M343 487h1M356 487h1M333 488h1M344 488h1M357 488h1M333 489h1M345 489h1M358 489h1M332 490h1M344 490h3M359 490h1M332 491h1M343 491h1M347 491h1M360 491h1M332 492h1M342 492h1M348 492h1M361 492h1M331 493h1M341 493h1M349 493h1M362 493h3M331 494h1M340 494h1M350 494h1M364 494h1M331 495h1M340 495h1M351 495h1M363 495h1M331 496h1M340 496h1M352 496h1M362 496h1M331 497h1M341 497h1M353 497h1M361 497h1M332 498h1M342 498h1M354 498h1M359 498h2M333 499h1M343 499h1M355 499h4M333 500h11" />
<path stroke="#281854" d="M347 418h4M351 419h2M353 420h1M354 421h1M350 422h6M349 423h8M349 424h9M350 425h9M351 426h9M351 427h9M352 428h9M353 429h2M356 429h5M356 430h5M356 431h5M356 432h5M357 433h4M358 434h3M360 435h1" />
<path stroke="#beb3e0" d="M339 419h3M337 420h5M336 421h6M335 422h7M334 423h8M334 424h8M333 425h9M333 426h9M332 427h10M332 428h10M331 429h7M341 429h1M331 430h6M338 430h3M331 431h5M338 431h3M331 432h5M338 432h3M331 433h6M339 433h2M331 434h7M341 434h1M332 435h10M332 436h10M333 437h10M334 438h9M335 439h9M337 440h8M343 441h3M344 442h3M345 443h3M346 444h3M348 445h3M350 446h7M343 448h3M342 449h6M341 450h6M348 450h2M341 451h5M347 451h1M350 451h1M341 452h4M346 452h1M342 453h2M345 453h1M342 454h3M339 455h2M342 455h2M338 456h2M342 456h2M335 457h4M342 457h2M334 458h4M341 458h3M333 459h4M341 459h3M332 460h4M341 460h3M332 461h3M341 461h3M332 462h3M343 462h1M332 463h2M331 464h3M331 465h3M346 465h1M331 466h3M343 466h1M345 466h5M331 467h3M342 467h1M344 467h3M348 467h1M331 468h3M343 468h3M347 468h1M331 469h3M342 469h3M346 469h1M331 470h3M341 470h3M345 470h1M331 471h3M340 471h3M344 471h1M329 472h1M339 472h5M329 473h2M339 473h4M330 474h1M339 474h4M330 475h1M339 475h4M340 476h3M340 477h3M340 478h3M340 479h3M340 480h3M340 481h4M340 482h5M340 483h6M341 484h6M342 485h6M343 486h6M344 487h6M345 488h6M346 489h6M340 490h4M347 490h6M339 491h4M348 491h6M338 492h4M349 492h6M337 493h4M350 493h6M336 494h4M351 494h3M336 495h4M354 495h4M353 496h6M336 497h5M354 497h6M337 498h5M355 498h4M338 499h5" />
<path stroke="#eceaf5" d="M342 419h9M342 420h7M342 421h6M342 422h5M342 423h4M342 424h4M342 425h3M342 426h2M342 427h2M342 428h2M342 429h2M342 430h2M342 431h2M342 432h2M342 433h2M342 434h2M342 435h2M342 436h2M343 437h1M343 438h2M344 439h2M345 440h2M346 441h2M347 442h3M348 443h2M349 444h3M351 445h4M340 456h1M339 457h2M338 458h2M337 459h3M336 460h4M335 461h5M335 462h4M334 463h5M334 464h4M334 465h4M334 466h3M350 466h4M334 467h3M347 467h1M349 467h5M334 468h3M346 468h1M348 468h6M334 469h2M345 469h1M347 469h7M334 470h2M344 470h1M346 470h8M334 471h2M343 471h1M345 471h9M334 472h1M344 472h4M349 472h5M343 473h6M350 473h4M343 474h6M351 474h3M343 475h7M352 475h2M343 476h7M352 476h2M343 477h8M353 477h1M343 478h8M353 478h1M343 479h8M343 480h9M344 481h8M345 482h7M346 483h7M347 484h7M348 485h6M349 486h5M350 487h5M351 488h5M352 489h4M353 490h4M354 491h4M355 492h4M356 493h4M360 494h1M358 495h4M359 496h3M360 497h1" />
<path stroke="#ffffff" d="M349 420h4M348 421h6M347 422h3M346 423h2M350 443h2M352 444h6M355 445h3M351 451h4M351 452h4M352 453h4M352 454h4M353 455h4M353 457h4M358 457h1M354 458h3M358 458h1M354 459h3M358 459h1M354 460h3M354 461h3M354 462h3M354 463h3M354 464h3M354 466h2M354 467h2M354 468h2M354 469h2M354 470h2M354 471h2M354 472h2M354 473h2M349 474h1M354 474h2M350 475h1M354 475h2M350 476h1M354 476h2M351 477h1M354 477h2M351 478h1M354 478h1M351 479h2M352 480h1M355 480h1M352 481h1M355 481h1M352 482h2M355 482h1M353 483h1M355 483h1M354 484h1M354 485h1M354 486h2M355 487h1M356 488h1M356 489h2M357 490h2M358 491h2M359 492h2M361 494h3M362 495h1" />
<path stroke="#740035" d="M355 429h1M353 430h3M352 431h1M355 431h1M351 432h1M355 432h1M351 433h1M355 433h1M351 434h1M355 434h1M351 435h1M354 435h1M351 436h2" />
<path stroke="#9664e0" d="M337 431h1M337 432h1M338 433h1M339 447h4M339 448h4M339 449h3M340 450h1M333 455h1M333 456h3M331 457h4M331 458h3M331 459h2M330 460h2M330 461h2M330 462h2M330 463h2M340 463h3M329 464h2M339 464h5M329 465h2M339 465h2M342 465h4M329 466h2M338 466h5M344 466h1M358 466h1M329 467h2M338 467h4M343 467h1M358 467h2M329 468h2M338 468h5M358 468h3M329 469h2M337 469h5M358 469h4M330 470h1M337 470h4M358 470h5M330 471h1M337 471h3M358 471h5M336 472h3M358 472h4M335 473h4M357 473h3M335 474h4M336 475h3M337 476h3M338 477h2M338 478h2M338 479h2M339 480h1M337 481h1M339 481h1M337 482h1M339 482h1M337 483h2M336 484h4M335 485h6M335 486h7M334 487h9M334 488h10M334 489h11M333 490h7M333 491h6M333 492h5M332 493h5M360 493h2M332 494h4M354 494h6M332 495h4M352 495h2M332 496h8M332 497h4M333 498h4M334 499h4" />
<path stroke="#c40013" d="M353 431h2M352 432h1M354 432h1M352 433h1M354 433h1M352 434h1M354 434h1M352 435h2" />
<path stroke="#ff4657" d="M353 432h1M353 433h1M353 434h1" />
<path stroke="rgba(26,13,64,0.0784313725490196)" d="M335 446h1" />
<path stroke="#221548" d="M337 447h1" />
<path stroke="#7049b0" d="M338 447h1" />
<path stroke="#1a103b" d="M338 448h1" />
<path stroke="#f0eef8" d="M347 450h1M346 451h1M348 451h2M345 452h1M347 452h4M344 453h1M346 453h4M351 453h1M345 454h6M344 455h8M344 456h9M344 457h9M344 458h10M344 459h10M344 460h10M344 461h10M344 462h10M344 463h10M347 464h7M333 473h1M332 474h2M332 475h3M333 476h2" />
<path stroke="#211643" d="M343 463h1" />
<path stroke="#9161d9" d="M341 465h1" />
<path stroke="#cec4ec" d="M331 473h2M331 474h1M331 475h1" />
<path stroke="#806384" d="M328 500h1M366 500h1M327 501h1M367 501h1M326 502h2M367 502h2M325 503h3M367 503h3M325 504h4M366 504h4M325 505h5M365 505h5M326 506h6M362 506h7M327 507h41M328 508h39M329 509h37M331 510h33M333 511h29" />
<path stroke="#6a526e" d="M329 500h4M344 500h22M328 501h39M328 502h39M328 503h39M329 504h37M330 505h35M332 506h30" />
</svg>