<svg xmlns="http://www.w3.org/2000/svg" viewBox="0 -0.5 851 600" shape-rendering="crispEdges">
<metadata>Made with Pixels to Svg https://codepen.io/shshaw/pen/XbxvNj</metadata>
<path stroke="#291a3a" d="M0 495h1M1 496h1M1 497h1M1 502h2M1 503h2M3 504h1M3 505h1M2 506h3M3 507h2M4 508h2M3 509h4M4 510h4" />
<path stroke="#291a39" d="M1 495h1M0 496h1M0 497h1M1 504h2M2 505h1M2 507h1M0 508h1M3 508h1M0 509h1M0 510h1M3 510h1" />
<path stroke="#29193b" d="M2 495h4M2 496h12M2 497h13M3 502h13M3 503h13M4 504h13M4 505h13M5 506h12M5 507h13M6 508h12M7 509h12M8 510h12" />
<path stroke="#29183b" d="M14 496h5M15 497h5M16 502h10M16 503h11M17 504h12M17 505h13M17 506h14M18 507h14M18 508h15M19 509h15M35 509h1M20 510h17M44 515h2M44 516h2" />
<path stroke="#28183b" d="M19 496h5M25 496h1M20 497h7M26 502h7M27 503h6M29 504h6M30 505h7M31 506h7M32 507h9M33 508h10M34 509h1M36 509h9M37 510h9M44 511h2M44 512h2M51 512h2M44 513h2M51 513h2M44 514h2M51 514h2M51 515h2M51 516h2" />
<path stroke="#28183a" d="M24 496h1M26 496h10M27 497h10M33 502h10M33 503h13M35 504h11M37 505h9M38 506h8M51 506h1M41 507h12M54 507h1M43 508h3M51 508h7M45 509h1M51 509h10M51 510h2M51 511h2" />
<path stroke="#281838" d="M36 496h2M37 497h2M44 501h1M43 502h3M51 505h1M52 506h3M53 507h1M55 507h3M58 508h2M61 509h2M104 516h1" />
<path stroke="#261838" d="M38 496h8M255 496h10M39 497h8M45 501h1M51 501h2M51 502h7M246 502h11M51 503h10M245 503h11M51 504h14M243 504h12M52 505h18M242 505h11M55 506h20M241 506h11M58 507h22M238 507h13M60 508h26M237 508h5M243 508h5M63 509h29M236 509h4M235 510h3M103 512h2M103 513h2M109 513h2M103 514h2M109 514h2M103 515h2M109 515h2M103 516h1M109 516h2" />
<path stroke="#261837" d="M46 496h45M232 496h23M47 497h52M103 501h2M109 501h2M227 501h1M58 502h47M109 502h28M227 502h19M61 503h44M109 503h29M213 503h2M221 503h1M227 503h18M65 504h40M109 504h34M144 504h1M147 504h1M210 504h6M220 504h2M227 504h16M70 505h35M109 505h43M153 505h2M204 505h1M209 505h13M227 505h15M75 506h30M109 506h48M158 506h3M204 506h18M227 506h14M80 507h86M190 507h1M197 507h3M201 507h37M86 508h19M109 508h54M168 508h1M175 508h2M179 508h3M189 508h4M194 508h28M227 508h10M92 509h13M109 509h54M168 509h4M174 509h9M189 509h33M227 509h9M103 510h2M109 510h54M168 510h2M220 510h2M227 510h8M103 511h2M109 511h2M161 511h2M168 511h2M220 511h2M227 511h2M109 512h2M161 512h2M168 512h2M220 512h2M227 512h2M161 513h2M168 513h2M220 513h2M161 514h2M168 514h2M161 515h2M168 515h2M161 516h2M168 516h2" />
<path stroke="#261836" d="M91 496h141M99 497h44M162 501h1M168 501h2M220 501h2M137 502h26M168 502h54M138 503h25M168 503h45M215 503h6M143 504h1M145 504h2M148 504h15M168 504h42M216 504h4M152 505h1M155 505h8M168 505h36M205 505h4M157 506h1M161 506h2M168 506h36M166 507h24M191 507h6M200 507h1M169 508h6M177 508h2M182 508h7M193 508h1M172 509h2M183 509h6" />
<path stroke="#26183a" d="M265 496h9M257 502h9M256 503h9M255 504h9M253 505h8M252 506h9M251 507h7M259 507h1M249 508h8" />
<path stroke="#26183b" d="M274 496h17M280 501h1M266 502h15M265 503h12M278 503h1M264 504h12M261 505h15M261 506h13M258 507h1M260 507h13M257 508h11M269 508h1M255 509h4M262 509h2" />
<path stroke="#26183c" d="M291 496h9M281 501h1M286 501h2M281 502h1M286 502h3M277 503h1M279 503h3M286 503h1M276 504h6M276 505h6M274 506h8M273 507h4M278 507h1M281 507h1M270 508h1" />
<path stroke="#25183e" d="M300 496h8M302 498h5M302 499h3M302 500h1M289 502h11M287 503h9M286 504h9M286 505h7M286 506h5M280 507h1" />
<path stroke="#28183e" d="M308 496h1M310 496h1" />
<path stroke="#26173f" d="M309 496h1M311 496h5M318 496h3" />
<path stroke="#261740" d="M316 496h2M321 496h7" />
<path stroke="#261741" d="M328 496h2" />
<path stroke="#251741" d="M330 496h5M324 500h1M329 500h2M323 501h3M329 501h1M322 502h8M320 503h8M319 504h8M317 505h7M317 506h1" />
<path stroke="#241742" d="M335 496h5M331 500h7M330 501h7M330 502h4M328 503h3M327 504h1" />
<path stroke="#251744" d="M340 496h3" />
<path stroke="#231843" d="M343 496h6M342 500h1M342 501h1M338 502h3M337 503h2M336 504h2M334 505h1" />
<path stroke="#221845" d="M349 496h1M351 496h2M348 497h1M350 497h2M349 498h2M348 499h2M346 500h2M345 501h1M344 502h1" />
<path stroke="#221843" d="M350 496h1M349 497h1M348 498h1M343 500h3M343 501h2M341 502h3M339 503h4M338 504h4M335 505h7M333 506h7M332 507h7M332 508h5M331 509h4M330 510h3" />
<path stroke="#211845" d="M353 496h4M352 497h1M351 498h2M350 499h3M348 500h5M346 501h5M345 502h3M349 502h1M343 503h3M351 503h1M342 504h3M347 504h3M342 505h1M346 505h2M344 506h2M341 507h3M341 508h1" />
<path stroke="#201947" d="M357 496h2" />
<path stroke="#1e1947" d="M359 496h2M354 501h2M353 504h1" />
<path stroke="#1e1847" d="M361 496h2M356 501h1M353 502h4M352 503h3M352 504h1" />
<path stroke="#1d1947" d="M363 496h4M357 502h3M354 504h2M352 505h4M351 506h4M350 507h4M349 508h2M348 509h1M350 509h1M349 510h2M348 511h1M347 512h1" />
<path stroke="#1b1947" d="M367 496h4M360 502h6M355 506h1M354 507h2M349 511h2" />
<path stroke="#1a1a45" d="M371 496h2M367 502h2M353 514h2M350 515h1M353 515h1M347 516h4" />
<path stroke="#1a1a48" d="M373 496h1" />
<path stroke="#1a1b48" d="M374 496h1M376 496h1M369 502h2M372 502h1" />
<path stroke="#1a1b45" d="M375 496h1M371 502h1M355 514h3M354 515h3M353 516h3" />
<path stroke="#191c48" d="M377 496h2M373 502h3" />
<path stroke="#191d48" d="M379 496h1M381 496h1" />
<path stroke="#181d48" d="M380 496h1M382 496h3M376 502h4" />
<path stroke="#171e48" d="M385 496h3M383 501h2M383 502h2" />
<path stroke="#151e48" d="M388 496h4M385 501h4M385 502h4" />
<path stroke="#141f48" d="M392 496h2M395 496h2M390 501h4M390 502h1M392 502h1M385 512h1M383 513h1M381 515h2M381 516h1" />
<path stroke="#141f47" d="M394 496h1M391 502h1" />
<path stroke="#132048" d="M397 496h1M394 501h4M393 502h4M386 512h4M384 513h5M383 514h5M383 515h4M382 516h4" />
<path stroke="#132047" d="M398 496h2" />
<path stroke="#122247" d="M400 496h4M399 501h3M399 502h1M397 507h1" />
<path stroke="#112347" d="M404 496h2M402 501h3M400 502h5M398 507h1M401 507h3M397 508h2M401 508h2M397 509h2M401 509h1M401 511h1" />
<path stroke="#112447" d="M406 496h4M405 502h3M404 507h1M403 508h2M402 509h2M401 512h1" />
<path stroke="#112547" d="M410 496h1" />
<path stroke="#102547" d="M411 496h3M410 501h2M409 502h4M408 507h2M408 508h2M408 509h1M406 511h2" />
<path stroke="#102647" d="M414 496h3M414 501h1" />
<path stroke="#0f2748" d="M417 496h3M415 501h3M413 502h5M414 507h2M412 508h2M416 508h1M412 509h2M412 511h3M412 512h3" />
<path stroke="#0f2745" d="M420 496h1M419 497h1M419 498h1M419 499h1M419 500h1M418 501h2M418 502h2M417 507h1" />
<path stroke="#0f2845" d="M421 496h2M420 497h1M420 498h1M420 499h1M420 500h1M420 501h1" />
<path stroke="#0e2947" d="M423 496h2M421 500h2M421 501h2M420 502h4M418 509h1" />
<path stroke="rgba(14,42,71,0.996078431372549)" d="M425 496h2" />
<path stroke="rgba(14,42,71,0.984313725490196)" d="M427 496h1" />
<path stroke="rgba(14,43,71,0.984313725490196)" d="M428 496h1" />
<path stroke="rgba(14,43,71,0.9803921568627451)" d="M429 496h1" />
<path stroke="rgba(14,43,71,0.9764705882352941)" d="M430 496h1" />
<path stroke="rgba(15,42,70,0.9647058823529412)" d="M431 496h2" />
<path stroke="rgba(14,44,71,0.9607843137254902)" d="M433 496h1" />
<path stroke="rgba(14,43,71,0.9450980392156862)" d="M434 496h2" />
<path stroke="rgba(13,44,71,0.9254901960784314)" d="M436 496h1" />
<path stroke="rgba(13,44,71,0.9215686274509803)" d="M437 496h1" />
<path stroke="rgba(13,44,71,0.9058823529411765)" d="M438 496h1" />
<path stroke="rgba(13,44,70,0.8941176470588236)" d="M439 496h1" />
<path stroke="rgba(13,44,71,0.8784313725490196)" d="M440 496h1" />
<path stroke="rgba(13,44,71,0.8705882352941177)" d="M441 496h1" />
<path stroke="rgba(13,46,71,0.8549019607843137)" d="M442 496h1" />
<path stroke="rgba(13,46,70,0.8235294117647058)" d="M443 496h1" />
<path stroke="rgba(14,46,71,0.807843137254902)" d="M444 496h1" />
<path stroke="rgba(13,46,71,0.7764705882352941)" d="M445 496h1" />
<path stroke="rgba(13,46,71,0.7607843137254902)" d="M446 496h1" />
<path stroke="rgba(12,46,71,0.7215686274509804)" d="M447 496h1" />
<path stroke="rgba(13,48,69,0.6941176470588235)" d="M448 496h1" />
<path stroke="#2f485a" d="M449 496h1" />
<path stroke="#324a5c" d="M450 496h1" />
<path stroke="#394e5f" d="M451 496h1" />
<path stroke="#3c5162" d="M452 496h1" />
<path stroke="#405465" d="M453 496h1" />
<path stroke="rgba(12,47,70,0.48627450980392156)" d="M454 496h1" />
<path stroke="rgba(13,47,69,0.45098039215686275)" d="M455 496h1" />
<path stroke="#0d3045" d="M456 496h1M455 512h1M455 513h1M455 514h1" />
<path stroke="#51485d" d="M161 497h50M216 497h1M161 498h2M168 498h2M161 499h2M168 499h2M161 500h2M168 500h2M225 504h2M165 505h1M224 505h1M170 510h10M184 510h2M202 510h5M128 511h33M170 511h17M200 511h9M214 511h1M230 511h1M233 511h1M129 512h32M170 512h19M200 512h12M229 512h4M120 513h3M125 513h1M134 513h27M170 513h6M178 513h3M188 513h2M230 513h2M160 514h1M170 514h6M179 514h2M186 514h3M160 515h1M170 515h6M179 515h2M186 515h3M126 516h3M130 516h3M147 516h2M150 516h11M163 516h5M170 516h25M198 516h1M200 516h9M225 516h2" />
<path stroke="#50485d" d="M211 497h5M217 497h5M227 497h2M220 498h2M227 498h2M220 499h2M227 499h2M220 500h2M227 500h2M161 501h1M228 501h1M222 504h3M163 505h2M166 505h2M222 505h2M225 505h2M163 506h5M222 506h5M180 510h4M186 510h16M207 510h13M187 511h13M209 511h5M215 511h5M189 512h11M212 512h8M220 514h1M195 516h3M199 516h1M209 516h10M222 516h3" />
<path stroke="#514761" d="M280 497h2M286 497h2M280 498h2M286 498h1M280 499h2M288 499h2M281 500h1M288 500h1M39 511h1M43 511h1M39 512h2M40 513h1M43 514h1" />
<path stroke="#fc848a" d="M288 497h8M335 497h8M140 498h8M149 498h3M153 498h2M166 498h1M198 498h1M202 498h1M204 498h16M222 498h3M230 498h4M239 498h4M245 498h3M252 498h3M258 498h2M262 498h18M282 498h4M188 499h1M196 499h4M202 499h13M218 499h2M229 499h3M239 499h2M242 499h1M244 499h4M249 499h1M251 499h1M253 499h1M255 499h3M260 499h1M262 499h18M225 501h1M222 502h4M222 503h3M282 503h1M282 504h1M222 510h2M222 511h1M223 513h3M215 514h2M222 514h4M232 515h1" />
<path stroke="#fb848a" d="M296 497h39" />
<path stroke="#fd848a" d="M343 497h5M282 509h1M282 510h1M282 511h1M282 512h1M282 513h1M274 514h1M278 514h1M282 514h1M282 515h1" />
<path stroke="#fe8389" d="M353 497h3" />
<path stroke="#fe8287" d="M356 497h1" />
<path stroke="#ff848a" d="M357 497h1M361 497h1M363 497h1" />
<path stroke="#ff8388" d="M358 497h3M362 497h1" />
<path stroke="#ff858b" d="M364 497h1" />
<path stroke="#ff8489" d="M365 497h2" />
<path stroke="#ff868c" d="M367 497h6" />
<path stroke="#ff868b" d="M373 497h1M376 497h2" />
<path stroke="#ff878d" d="M374 497h2M378 497h1" />
<path stroke="#ff878c" d="M379 497h3" />
<path stroke="#ff888d" d="M382 497h4M387 497h3" />
<path stroke="#ff898e" d="M386 497h1M395 497h1" />
<path stroke="#ff8a8f" d="M390 497h1M396 497h2" />
<path stroke="#ff898d" d="M391 497h4" />
<path stroke="#ff8b90" d="M398 497h3M406 497h1" />
<path stroke="#ff8a8e" d="M401 497h1" />
<path stroke="#ff8b92" d="M402 497h1" />
<path stroke="#ff8c91" d="M403 497h2M408 497h1M417 497h1" />
<path stroke="#ff8b8f" d="M405 497h1M407 497h1" />
<path stroke="#ff8d92" d="M409 497h1M418 497h1" />
<path stroke="#ff8d94" d="M410 497h7" />
<path stroke="#ff8e95" d="M421 497h15" />
<path stroke="#ff8f96" d="M436 497h19" />
<path stroke="#797c83" d="M455 497h1M414 498h2M418 498h1M422 498h3M427 498h24M453 498h3M414 499h2M417 499h2M422 499h2M426 499h25M453 499h3M412 500h1M417 500h2M423 500h1M426 500h25M453 500h3M412 501h1M455 501h1M413 503h1M416 503h2M446 503h1M415 504h2M414 505h1M414 506h1M418 506h2M413 507h1M419 507h1M410 508h1M414 508h1M419 508h1M407 510h1M409 510h1M411 510h2M416 510h2M411 511h1M411 512h1M416 512h1M420 512h1M434 512h1M406 513h1M410 513h2M414 513h3M419 513h15M436 513h1M406 514h1M409 514h2M413 514h3M419 514h18M413 515h3M420 515h4M435 515h2M413 516h2M420 516h4M435 516h3" />
<path stroke="#14344a" d="M456 497h1M456 498h1M456 499h1M456 500h1M456 501h1M456 502h1M456 503h1M456 504h1M456 505h1M456 509h1" />
<path stroke="#7d7b82" d="M0 498h2M5 498h4M11 498h4M0 499h2M5 499h4M11 499h4M0 500h2M6 500h3M11 500h5M1 501h2M6 501h3M12 501h4M283 510h1M0 514h3M6 514h4M12 514h2M20 514h3M249 514h2M1 515h3M7 515h3M13 515h2M21 515h2" />
<path stroke="#7d7982" d="M2 498h3M9 498h2M15 498h29M46 498h5M53 498h86M288 498h3M296 498h2M299 498h2M2 499h3M9 499h2M15 499h29M46 499h5M53 499h108M163 499h5M222 499h5M282 499h4M2 500h4M9 500h2M16 500h28M46 500h5M53 500h108M163 500h5M170 500h50M222 500h5M229 500h51M282 500h4M0 501h1M3 501h3M9 501h3M16 501h24M42 501h2M46 501h5M53 501h50M105 501h4M111 501h50M163 501h5M170 501h50M226 501h1M229 501h51M282 501h4M46 502h5M105 502h4M163 502h5M226 502h1M282 502h2M46 503h5M105 503h4M163 503h5M225 503h2M285 503h1M46 504h5M105 504h4M163 504h5M284 504h2M46 508h5M105 508h4M163 508h5M46 509h5M105 509h4M163 509h5M284 509h2M46 510h5M105 510h4M163 510h5M46 511h2M49 511h2M105 511h4M163 511h5M284 511h2M46 512h2M49 512h2M105 512h4M163 512h5M285 512h1M46 513h5M59 513h2M64 513h7M73 513h27M105 513h4M163 513h5M176 513h2M181 513h7M190 513h8M3 514h3M10 514h2M14 514h6M23 514h17M42 514h1M46 514h5M59 514h3M64 514h5M72 514h28M105 514h4M113 514h47M163 514h5M176 514h3M181 514h5M189 514h10M264 514h3M0 515h1M4 515h3M10 515h3M15 515h6M23 515h17M42 515h1M46 515h5M59 515h3M64 515h5M72 515h28M105 515h4M113 515h47M163 515h5M176 515h3M181 515h5M189 515h12M256 515h9" />
<path stroke="#51475e" d="M44 498h2M52 498h1M45 499h1M44 500h1M51 500h2M41 501h1M74 510h24M74 511h29M116 511h2M119 511h8M77 512h26M124 512h1M100 513h3M111 513h3M115 513h4M100 514h3M111 514h2M100 515h3M111 515h2M85 516h18M105 516h4M111 516h9" />
<path stroke="#51475d" d="M51 498h1M51 499h2M105 505h4M105 506h4M98 510h5M111 511h5M118 511h1M111 512h13M125 512h1M114 513h1M119 513h1M123 513h2" />
<path stroke="#fc858c" d="M139 498h1M148 498h1M152 498h1M155 498h6M163 498h3M167 498h1M170 498h28M199 498h3M203 498h1M225 498h2M229 498h1M234 498h5M243 498h2M248 498h4M255 498h3M260 498h2M170 499h18M189 499h7M200 499h2M215 499h3M232 499h7M241 499h1M243 499h1M248 499h1M250 499h1M252 499h1M254 499h1M258 499h2M261 499h1M222 501h3M225 510h1M223 511h3M222 512h4M222 513h1M218 514h2M238 514h1M215 515h2M218 515h2M224 515h2M229 515h2M234 515h1" />
<path stroke="#514762" d="M287 498h1M286 499h2M290 499h12M286 500h2M289 500h13M288 501h1M292 501h1M299 501h3" />
<path stroke="#7c7983" d="M291 498h5M298 498h1M301 498h1M314 498h28M284 502h2M283 503h2M283 504h1M283 511h1M283 512h1M285 513h1M279 514h1M285 514h1M303 514h1M272 515h1M274 515h1" />
<path stroke="#25173f" d="M307 498h7M305 499h9M303 500h8M314 500h1M302 501h8M313 501h1M315 501h1M300 502h10M312 502h1M296 503h13M310 503h2M295 504h10M306 504h1M309 504h1M293 505h10M304 505h1M307 505h1M291 506h11M305 506h4M291 507h1M304 507h1M306 507h1" />
<path stroke="#7b7983" d="M342 498h4M353 498h2M360 498h2M364 498h2M353 499h1M359 499h2M363 499h2M353 500h1M358 500h3M363 500h1M357 501h1M359 501h1M359 503h2M357 504h3M356 505h3M356 506h1M351 508h1M283 513h1M267 514h2M276 514h1M283 514h2M292 514h2M297 514h6M304 514h1M320 514h8M333 514h1M266 515h1M273 515h1M276 515h3M319 515h8M328 515h8" />
<path stroke="#7b7a83" d="M346 498h1M355 498h5M362 498h2M366 498h4M371 498h1M374 498h1M378 498h1M354 499h5M361 499h2M365 499h5M354 500h4M361 500h2M364 500h5M370 500h1M372 500h1M358 501h1M360 501h9M356 503h3M361 503h8M378 503h1M356 504h1M360 504h8M359 505h9M357 506h11M356 507h10M368 507h2M375 507h1M352 508h16M374 508h1M351 509h14M372 509h2M284 510h1M351 510h14M366 510h1M369 510h1M371 510h2M351 511h13M366 511h1M369 511h1M351 512h11M370 512h1M351 513h12M369 513h1M271 514h1M273 514h1M290 514h2M294 514h3M306 514h7M314 514h1M316 514h4M328 514h5M334 514h5M351 514h2M358 514h2M362 514h1M364 514h1M368 514h1M279 515h1M283 515h3M290 515h2M295 515h1M299 515h1M301 515h3M308 515h1M310 515h9M327 515h1M336 515h3M351 515h2M358 515h2M363 515h1M365 515h1M351 516h2M358 516h1M362 516h1M364 516h1" />
<path stroke="#7c7a83" d="M347 498h1M283 509h1M285 510h1M305 514h1M313 514h1M315 514h1M292 515h3M296 515h3M300 515h1M304 515h4M309 515h1" />
<path stroke="#7b7a85" d="M370 498h1M372 498h2M375 498h3M379 498h1M381 498h2M370 499h9M380 499h1M369 500h1M371 500h1M373 500h3M377 500h2M381 500h1M369 501h6M376 501h2M380 501h1M369 503h4M374 503h1M370 504h2M370 505h1M368 506h3M373 506h2M366 507h2M372 507h1M368 508h1M371 508h1M365 509h3M370 509h1M365 510h1M364 511h1M368 511h1M362 512h2M365 512h1M367 512h3M364 513h1M366 513h1M368 513h1M366 514h2M367 515h2M366 516h1" />
<path stroke="#7a7a85" d="M380 498h1M383 498h2M386 498h3M391 498h2M394 498h4M400 498h1M379 499h1M381 499h3M385 499h4M391 499h2M394 499h4M380 500h1M382 500h6M390 500h2M393 500h5M375 501h1M381 501h1M373 503h1M375 503h2M380 503h6M388 503h9M374 504h1M389 504h7M397 504h1M371 505h1M374 505h1M389 505h4M397 505h1M372 506h1M392 506h1M396 506h2M371 507h1M392 507h2M370 508h1M372 508h1M376 508h1M369 509h1M371 509h1M375 509h4M367 510h1M370 510h1M374 510h5M367 511h1M373 511h7M364 512h1M372 512h7M365 513h1M370 513h9M365 514h1M369 514h2M372 514h6M393 514h2M366 515h1M369 515h1M371 515h6M393 515h1M367 516h2M370 516h5M376 516h2M390 516h4" />
<path stroke="#7a7a83" d="M385 498h1M389 498h2M393 498h1M398 498h2M401 498h6M409 498h1M411 498h1M384 499h1M389 499h2M393 499h1M398 499h7M406 499h1M409 499h1M411 499h1M376 500h1M379 500h1M388 500h2M392 500h1M398 500h7M406 500h1M410 500h2M378 501h2M406 501h1M377 503h1M379 503h1M386 503h2M397 503h4M406 503h1M408 503h1M410 503h1M412 503h1M396 504h1M398 504h3M407 504h2M411 504h2M395 505h2M398 505h3M403 505h1M405 505h1M411 505h1M371 506h1M375 506h1M395 506h1M398 506h3M403 506h1M411 506h1M370 507h1M373 507h2M399 507h2M412 507h1M369 508h1M373 508h1M375 508h1M399 508h2M411 508h1M368 509h1M374 509h1M399 509h2M411 509h1M368 510h1M373 510h1M397 510h5M403 510h2M406 510h1M408 510h1M365 511h1M370 511h3M397 511h4M408 511h1M410 511h1M366 512h1M371 512h1M379 512h1M396 512h5M410 512h1M363 513h1M367 513h1M379 513h1M395 513h4M409 513h1M363 514h1M371 514h1M395 514h4M407 514h2M362 515h1M364 515h1M370 515h1M377 515h1M394 515h6M359 516h1M363 516h1M365 516h1M369 516h1M375 516h1M394 516h6M401 516h1" />
<path stroke="#7a7c83" d="M407 498h2M410 498h1M412 498h1M416 498h2M421 498h1M425 498h2M405 499h1M407 499h2M410 499h1M412 499h1M416 499h1M421 499h1M424 499h2M405 500h1M407 500h3M413 500h4M405 501h1M407 501h3M413 501h1M407 503h1M409 503h1M414 503h2M418 503h1M406 504h1M409 504h1M413 504h2M417 504h2M404 505h1M406 505h1M409 505h1M417 505h2M404 506h3M410 506h1M417 506h1M416 507h1M415 508h1M410 509h1M414 509h2M419 509h1M402 510h1M405 510h1M410 510h1M413 510h3M418 510h2M409 511h1M419 511h1M409 512h1M419 512h1M412 513h2M417 513h2M411 514h2M416 514h3M400 515h2M400 516h1M415 516h1" />
<path stroke="#797b83" d="M413 498h1M413 499h1M411 503h1M410 504h1M410 505h1M409 506h1M407 512h2M407 513h2" />
<path stroke="#797d83" d="M451 498h2M451 499h2M451 500h2" />
<path stroke="#51485e" d="M44 499h1M45 500h1M40 501h1M46 505h5M46 506h5M54 510h20M53 511h1M57 511h17M127 511h1M232 511h1M234 511h1M236 511h1M239 511h3M243 511h1M245 511h3M54 512h2M59 512h18M126 512h3M233 512h6M244 512h3M57 513h1M71 513h2M126 513h8M229 513h1M232 513h4M239 513h2M242 513h1M70 514h1M66 516h3M77 516h8M120 516h6M129 516h1M133 516h14M149 516h1M229 516h5" />
<path stroke="#514763" d="M314 499h10" />
<path stroke="#514764" d="M324 499h3M325 500h1" />
<path stroke="#514864" d="M327 499h9M337 499h1M326 500h3M326 501h3" />
<path stroke="#504864" d="M336 499h1M310 511h14M327 511h3M308 512h8M324 512h4M308 513h2M311 513h1M318 513h1M320 513h5" />
<path stroke="#514865" d="M338 499h2" />
<path stroke="#504865" d="M340 499h7M339 500h3M339 501h3M330 511h2" />
<path stroke="#4e4865" d="M347 499h1M332 511h4M330 512h2M334 512h2M337 513h1M328 516h7" />
<path stroke="#514860" d="M280 500h1M53 510h1M40 511h3M54 511h3M248 511h1M250 511h1M41 512h3M56 512h3M42 513h2M61 513h3M69 514h1M71 514h1M54 515h1M69 515h3M48 516h3M53 516h2M57 516h1M69 516h8" />
<path stroke="#251740" d="M311 500h3M315 500h9M310 501h3M314 501h1M316 501h7M310 502h2M313 502h9M309 503h1M312 503h8M305 504h1M307 504h2M310 504h9M303 505h1M305 505h2M308 505h9M302 506h3M309 506h4M315 506h2" />
<path stroke="#231744" d="M338 500h1M337 501h2M336 502h2" />
<path stroke="#0e2a48" d="M424 500h1M423 501h2M424 502h1M422 511h1M421 512h2" />
<path stroke="#0e2a47" d="M425 500h1M425 501h3M425 502h2M423 511h3M423 512h3" />
<path stroke="#514862" d="M289 501h3M293 501h6M282 505h4M282 506h4M283 507h1" />
<path stroke="#201944" d="M351 501h3M348 502h1M350 502h2M346 503h5M345 504h2M343 505h3M342 506h2" />
<path stroke="#171d48" d="M382 501h1M380 502h3" />
<path stroke="#141e48" d="M389 501h1M389 502h1M381 512h4M381 513h2M378 514h5M378 515h3M378 516h3" />
<path stroke="#122047" d="M398 501h1M397 502h2M394 507h2M394 508h1M390 512h3M389 513h3M388 514h2M387 515h3M386 516h4" />
<path stroke="#0e2b47" d="M428 501h5M426 511h5M426 512h3" />
<path stroke="#0e2c47" d="M433 501h2" />
<path stroke="#0d2c47" d="M435 501h7M438 506h2M431 511h1M430 512h2M434 513h2M437 513h1M437 514h2M437 515h2M438 516h1" />
<path stroke="#0d2e47" d="M442 501h7M447 503h2M447 504h1M440 506h7M440 507h7M442 508h6M442 509h4M443 511h3M447 511h1M443 512h2M443 513h1M439 514h3M439 515h3M439 516h4" />
<path stroke="#0d2f45" d="M449 501h6M453 502h3M449 503h7M448 504h8M447 506h9M447 507h9M448 508h8M446 509h10M447 510h8M448 511h7M449 512h6M449 513h6M446 514h2M451 514h4M446 515h2M451 515h2M451 516h2" />
<path stroke="#291939" d="M0 502h1M0 503h1M0 504h1M0 505h2M0 506h2M0 507h2M1 508h2M1 509h2M1 510h2" />
<path stroke="#231742" d="M334 502h2M331 503h2M328 504h2M327 505h1M326 506h1" />
<path stroke="#1e1944" d="M352 502h1M349 505h3M347 506h4M345 507h4M342 508h1M344 508h3M341 509h6M340 510h5M341 511h2" />
<path stroke="#1a1947" d="M366 502h1" />
<path stroke="#102447" d="M408 502h1M405 507h3M405 508h3M404 509h4M402 511h4M402 512h4" />
<path stroke="#0f2b48" d="M427 502h1" />
<path stroke="#102b47" d="M428 502h2" />
<path stroke="#0f2d49" d="M430 502h1" />
<path stroke="#0f2c48" d="M431 502h1" />
<path stroke="#102c47" d="M432 502h2" />
<path stroke="#112d48" d="M434 502h1" />
<path stroke="#0f2e48" d="M435 502h1" />
<path stroke="#102e49" d="M436 502h1" />
<path stroke="#112f48" d="M437 502h2" />
<path stroke="#123049" d="M439 502h1" />
<path stroke="#13314a" d="M440 502h2" />
<path stroke="#14324a" d="M442 502h1M435 517h8" />
<path stroke="#15334b" d="M443 502h1" />
<path stroke="#16344b" d="M444 502h1" />
<path stroke="#17354c" d="M445 502h1" />
<path stroke="#264055" d="M446 502h1" />
<path stroke="#284156" d="M447 502h1" />
<path stroke="#2b4459" d="M448 502h1" />
<path stroke="#2f465a" d="M449 502h1" />
<path stroke="#32485c" d="M450 502h1" />
<path stroke="#384d5e" d="M451 502h1" />
<path stroke="#3a4e60" d="M452 502h1" />
<path stroke="#231842" d="M333 503h4M330 504h6M328 505h6M327 506h6M326 507h3M325 508h1" />
<path stroke="#1d1847" d="M355 503h1" />
<path stroke="#464f66" d="M401 503h3M401 504h3M401 505h2M401 506h2M393 509h1M392 510h1M394 510h3M391 511h1M393 511h4M395 512h1M399 513h2M399 514h2" />
<path stroke="#465066" d="M404 503h2M404 504h2" />
<path stroke="#445267" d="M419 503h2M419 504h1M421 504h2M419 505h1M421 505h1M420 506h2M420 507h1M420 508h1M420 509h2M420 510h2M420 511h1M416 515h2M419 515h1M412 516h1M416 516h1" />
<path stroke="#445367" d="M421 503h11M420 504h1M423 504h9M420 505h1M422 505h9M422 506h9M421 507h10M421 508h10M422 509h9M422 510h9M418 515h1M424 515h6M417 516h3M424 516h6" />
<path stroke="#445366" d="M432 503h10M432 504h10M431 505h10M431 506h7M431 507h9M431 508h11M431 509h9M431 510h9M434 511h6M435 512h5M438 513h2M430 515h5M430 516h5" />
<path stroke="#435366" d="M442 503h2M442 504h2M441 505h3M440 509h2M440 510h4M440 511h3M440 512h3M440 513h3M442 514h1M442 515h1" />
<path stroke="#435566" d="M444 503h2M444 504h3M444 505h12M444 510h3M446 511h1M446 512h3M446 513h3M443 514h3M448 514h3M443 515h3M448 515h3M454 515h2M443 516h8M454 516h2" />
<path stroke="#1e1845" d="M350 504h2M348 505h1M346 506h1M344 507h1M343 508h1" />
<path stroke="#4a4a66" d="M368 504h2M372 504h2M368 505h2M372 505h1" />
<path stroke="#4a4b66" d="M375 504h1" />
<path stroke="#494a66" d="M376 504h5M382 504h1M373 505h1M375 505h5M381 505h1M376 506h3M380 506h1M376 507h2M379 507h1M378 508h1" />
<path stroke="#484a66" d="M381 504h1M383 504h4M380 505h1M382 505h4M379 506h1M381 506h5M378 507h1M380 507h6M377 508h1M379 508h5M379 509h5M379 510h4M380 511h2M380 512h1" />
<path stroke="#484c66" d="M387 504h1M386 505h1M388 505h1M386 506h1M388 506h1M384 508h1M385 510h1M384 511h1" />
<path stroke="#474c66" d="M388 504h1M387 505h1M393 505h2M387 506h1M389 506h3M393 506h1M386 507h6M385 508h8M384 509h8M383 510h2M386 510h6M382 511h2M385 511h6M380 513h1" />
<path stroke="#231741" d="M324 505h3M318 506h1M320 506h1M322 506h4M315 507h4" />
<path stroke="#455067" d="M407 505h2M412 505h1M407 506h2M412 506h1M401 513h2M404 513h2M401 514h1M403 514h3M403 515h6M411 515h1M402 516h7M410 516h2" />
<path stroke="#455267" d="M413 505h1M415 505h2M413 506h1M415 506h2M409 515h2M412 515h1M409 516h1" />
<path stroke="#251840" d="M313 506h2M303 507h1" />
<path stroke="#231841" d="M319 506h1M321 506h1M319 507h7M314 508h11M314 509h10M310 510h9" />
<path stroke="#211843" d="M340 506h2M339 507h2M337 508h4M335 509h6M333 510h7" />
<path stroke="#464c66" d="M394 506h1M393 508h1M392 509h1" />
<path stroke="#13344a" d="M456 506h1M456 507h1M456 508h1M456 510h1M456 511h1M456 512h1M456 513h1M456 514h1M456 515h1M456 516h1M455 517h4M455 518h4M455 519h2M458 519h1" />
<path stroke="#24183c" d="M277 507h1M279 507h1M271 508h1M274 508h3M269 509h1M268 510h1" />
<path stroke="#504862" d="M282 507h1M284 507h2M267 511h1M270 511h10M265 512h2M269 512h11M264 513h1M268 513h12M269 514h2M269 515h2M260 516h3M264 516h9M277 516h4" />
<path stroke="#24183e" d="M286 507h4M280 508h8" />
<path stroke="#24173f" d="M290 507h1M292 507h8M305 507h1M290 508h3M294 508h6M301 508h1" />
<path stroke="#231740" d="M300 507h3M309 507h2M300 508h1M299 509h2" />
<path stroke="#231840" d="M307 507h2M311 507h4M303 508h1M305 508h9M298 509h1M301 509h13M296 510h2M300 510h10" />
<path stroke="#221842" d="M329 507h3M326 508h6M325 509h6M322 510h8" />
<path stroke="#1d1944" d="M349 507h1M347 508h2M347 509h1M349 509h1M345 510h4M343 511h5M341 512h6M341 513h4M341 514h2" />
<path stroke="#122248" d="M396 507h1M396 508h1" />
<path stroke="#0f2648" d="M410 507h2M409 509h1M406 512h1" />
<path stroke="#0e2747" d="M418 507h1M417 508h2M417 509h1" />
<path stroke="#838187" d="M222 508h1M200 513h15M216 513h1M199 514h3M203 514h11M226 514h1M229 514h4M234 514h4M239 514h1M243 514h6M201 515h12M231 515h1M233 515h1M235 515h2M238 515h1M240 515h5M246 515h1" />
<path stroke="#828187" d="M223 508h4M222 509h5M224 510h1M226 510h1M226 511h1M226 512h1M198 513h2M215 513h1M217 513h3M226 513h1M202 514h1M214 514h1M217 514h1M233 514h1M240 514h3M213 515h2M217 515h1M222 515h2M226 515h1M237 515h1M239 515h1M245 515h1" />
<path stroke="#261938" d="M242 508h1M248 508h1M240 509h8M238 510h8M228 515h1M227 516h2" />
<path stroke="#25183b" d="M268 508h1M259 509h3M264 509h5M257 510h11" />
<path stroke="#24193c" d="M272 508h2M277 508h2M270 509h6M269 510h7" />
<path stroke="#24193e" d="M279 508h1M276 509h6M276 510h6M280 511h2M280 512h1" />
<path stroke="#24193f" d="M288 508h2M293 508h1M302 508h1M304 508h1M286 509h12M286 510h10M298 510h2M286 511h2M281 512h1" />
<path stroke="#122048" d="M395 508h1M394 509h2M393 512h1M392 513h1M390 514h2M390 515h2" />
<path stroke="#251939" d="M248 509h7M246 510h9" />
<path stroke="#221841" d="M324 509h1M319 510h3" />
<path stroke="#112348" d="M396 509h1M394 512h1M393 513h2M392 514h1M392 515h1" />
<path stroke="#0e2748" d="M416 509h1M415 511h2M415 512h1" />
<path stroke="#24193b" d="M255 510h2" />
<path stroke="#474e66" d="M393 510h1M392 511h1" />
<path stroke="#0c2f45" d="M455 510h1M455 511h1M453 515h1M453 516h1" />
<path stroke="#52495e" d="M0 511h1M4 511h1M0 513h1M0 516h2M3 516h1" />
<path stroke="#524860" d="M1 511h2M8 511h24M48 511h1M2 512h1M9 512h24M48 512h1M3 513h1M5 513h1M9 513h25M53 513h1M53 514h3M63 514h1M53 515h1M55 515h4M4 516h2M11 516h25M46 516h2M55 516h2M58 516h5M64 516h1" />
<path stroke="#52485e" d="M3 511h1M3 512h2M53 512h1M4 513h1M54 513h3M58 513h1M56 514h3M62 514h1M62 515h2M6 516h2M63 516h1M65 516h1" />
<path stroke="#524960" d="M5 511h3M0 512h2M5 512h4M1 513h2M6 513h3M2 516h1M8 516h3" />
<path stroke="#534761" d="M32 511h7M33 512h6M34 513h6M41 513h1M40 514h2M40 515h2M43 515h1M36 516h8" />
<path stroke="#50485e" d="M229 511h1M231 511h1M235 511h1M237 511h2M242 511h1M244 511h1M252 511h3M239 512h5M247 512h1M249 512h1M251 512h1M236 513h3M241 513h1M243 513h5M249 513h3M221 514h1M220 515h2M219 516h3M234 516h9M246 516h2" />
<path stroke="#504860" d="M249 511h1M251 511h1M255 511h12M268 511h2M248 512h1M250 512h1M252 512h13M267 512h2M248 513h1M252 513h12M265 513h3M243 516h3M248 516h12M263 516h1" />
<path stroke="#504863" d="M288 511h22M288 512h20M288 513h20M276 516h1M282 516h1M284 516h2M288 516h4" />
<path stroke="#4e4864" d="M324 511h3M316 512h8M328 512h2M310 513h1M312 513h6M319 513h1M325 513h4M303 516h20M327 516h1" />
<path stroke="#4e4965" d="M336 511h4M332 512h2M336 512h3M329 513h8" />
<path stroke="#4c4965" d="M340 511h1M338 513h3M335 516h3" />
<path stroke="#0e2948" d="M417 511h2M421 511h1M417 512h2" />
<path stroke="#0d2b47" d="M432 511h2M429 512h1M432 512h2" />
<path stroke="#7b7982" d="M284 512h1M284 513h1M257 514h4M272 514h1M275 514h1M277 514h1M252 515h1M254 515h2M265 515h1M267 515h2M271 515h1M275 515h1" />
<path stroke="#23193f" d="M286 512h2M280 513h2M286 513h2M280 514h2M286 514h2M286 515h1" />
<path stroke="#4c4966" d="M339 512h2M339 514h2M344 514h1M339 515h2M338 516h2" />
<path stroke="#1b1a45" d="M348 512h3M346 513h5M346 514h5M346 515h4M346 516h1" />
<path stroke="#0d2e45" d="M445 512h1M444 513h2" />
<path stroke="#261937" d="M227 513h2M227 514h2M227 515h1" />
<path stroke="#1b1a44" d="M345 513h1M343 515h1M341 516h3" />
<path stroke="#454f67" d="M403 513h1M402 514h1M402 515h1" />
<path stroke="#7c7b82" d="M251 514h6M261 514h3M247 515h5M253 515h1" />
<path stroke="#4e4863" d="M288 514h2M288 515h2M275 516h1M281 516h1M283 516h1M292 516h11" />
<path stroke="#1b1944" d="M343 514h1M341 515h2" />
<path stroke="#4a4966" d="M345 514h1M344 515h2M340 516h1M344 516h2" />
<path stroke="#191d47" d="M360 514h2M360 515h2M357 516h1M360 516h1" />
<path stroke="#4f4862" d="M280 515h2M273 516h2" />
<path stroke="#221840" d="M287 515h1M286 516h2" />
<path stroke="#191c47" d="M357 515h1M356 516h1" />
<path stroke="#4e4964" d="M323 516h4" />
<path stroke="#181d47" d="M361 516h1" />
<path stroke="#2e203e" d="M0 517h1" />
<path stroke="#2d203f" d="M1 517h6" />
<path stroke="#2f203f" d="M7 517h1M10 517h1" />
<path stroke="#2d2040" d="M8 517h2" />
<path stroke="#2e1f3f" d="M11 517h1" />
<path stroke="#2f1f3f" d="M12 517h1" />
<path stroke="#2f1f41" d="M13 517h12M26 517h4M31 517h1" />
<path stroke="#2e1f41" d="M25 517h1M30 517h1M32 517h1M34 517h4" />
<path stroke="#2f1f42" d="M33 517h1" />
<path stroke="#2e1e41" d="M38 517h16M60 517h7" />
<path stroke="#2e1e40" d="M54 517h6M67 517h2M85 517h10M97 517h1" />
<path stroke="#2d1e40" d="M69 517h16" />
<path stroke="#2e1e3e" d="M95 517h2M98 517h13" />
<path stroke="#2d1e3e" d="M111 517h9" />
<path stroke="#2d1f3e" d="M120 517h8" />
<path stroke="#2d1f3d" d="M128 517h78" />
<path stroke="#2b1f3d" d="M206 517h19" />
<path stroke="#2b1f3e" d="M225 517h12" />
<path stroke="#2b1f3f" d="M237 517h3M245 517h2M250 517h2" />
<path stroke="#2a1f3f" d="M240 517h5M248 517h2" />
<path stroke="#2b1f41" d="M247 517h1M252 517h2" />
<path stroke="#2a1f41" d="M254 517h4" />
<path stroke="#2a1f42" d="M258 517h12" />
<path stroke="#2a1f43" d="M270 517h8M279 517h1" />
<path stroke="#2a1f44" d="M278 517h1" />
<path stroke="#291f44" d="M280 517h8" />
<path stroke="#291f45" d="M288 517h20" />
<path stroke="#281e47" d="M308 517h10" />
<path stroke="#282047" d="M318 517h4" />
<path stroke="#262048" d="M322 517h1M324 517h10" />
<path stroke="#262047" d="M323 517h1" />
<path stroke="#252149" d="M334 517h1" />
<path stroke="#232149" d="M335 517h2" />
<path stroke="#22204a" d="M337 517h8" />
<path stroke="#21204a" d="M345 517h5" />
<path stroke="#21214a" d="M350 517h3" />
<path stroke="#21224a" d="M353 517h4" />
<path stroke="#20234a" d="M357 517h4" />
<path stroke="#1e234a" d="M361 517h2" />
<path stroke="#1e234c" d="M363 517h4" />
<path stroke="#1e244a" d="M367 517h1" />
<path stroke="#1d254b" d="M368 517h1" />
<path stroke="#1d254c" d="M369 517h3" />
<path stroke="#1c254c" d="M372 517h7" />
<path stroke="#1b264c" d="M379 517h3" />
<path stroke="#19264c" d="M382 517h3" />
<path stroke="#1a274b" d="M385 517h1" />
<path stroke="#1a284b" d="M386 517h2" />
<path stroke="#18274b" d="M388 517h1M393 517h1" />
<path stroke="#19274c" d="M389 517h1" />
<path stroke="#18274c" d="M390 517h3" />
<path stroke="#18294b" d="M394 517h2" />
<path stroke="#17294b" d="M396 517h3" />
<path stroke="#172a4b" d="M399 517h3" />
<path stroke="#162a4b" d="M402 517h2M405 517h1" />
<path stroke="#162b4b" d="M404 517h1M406 517h5" />
<path stroke="#152d4b" d="M411 517h4M416 517h1" />
<path stroke="#152e4b" d="M415 517h1M417 517h4" />
<path stroke="#152f4b" d="M421 517h2" />
<path stroke="#142f4b" d="M423 517h3" />
<path stroke="#14304b" d="M426 517h3" />
<path stroke="#14314a" d="M429 517h6" />
<path stroke="#14334a" d="M443 517h11M451 518h2" />
<path stroke="#13334a" d="M454 517h1M453 518h2M453 519h2" />
</svg>