<svg xmlns="http://www.w3.org/2000/svg" viewBox="0 -0.5 851 600" shape-rendering="crispEdges">
<metadata>Made with Pixels to Svg https://codepen.io/shshaw/pen/XbxvNj</metadata>
<path stroke="#2a1d3a" d="M0 491h1M0 493h1M0 498h1M0 500h1M1 501h1M1 504h2M2 505h1" />
<path stroke="#2a1c3b" d="M1 491h6M1 492h13M1 493h13M2 498h13M2 499h13M2 500h14M3 501h13M3 502h13M3 503h13M4 504h13M4 505h13M5 506h12" />
<path stroke="#2a1d3b" d="M0 492h1M1 498h1M0 499h2M1 500h1M2 501h1M1 502h2M1 503h2M3 504h1M3 505h1M2 506h3" />
<path stroke="#2a1b3b" d="M14 492h2M14 493h4M15 498h7M15 499h7M16 500h7M16 501h9M16 502h10M16 503h11M17 504h12M17 505h13M17 506h14" />
<path stroke="#291b3b" d="M16 492h5M18 493h4M22 498h6M22 499h7M23 500h8M25 501h6M26 502h7M27 503h6M29 504h6M30 505h7M31 506h7M45 510h1M45 511h2M45 512h2M52 512h1" />
<path stroke="#291b3a" d="M21 492h10M22 493h9M28 498h10M29 499h10M31 500h10M31 501h11M33 502h10M33 503h14M35 504h12M37 505h10M38 506h9M45 507h2M52 507h1M45 508h2M52 508h2M45 509h2M52 509h2M46 510h1M52 510h2M52 511h2M53 512h1" />
<path stroke="#291b39" d="M31 492h2M31 493h3M35 493h1M38 498h2M39 499h2M41 500h2M42 501h3M43 502h3M52 506h2M53 507h1" />
<path stroke="#281b39" d="M33 492h8M260 492h11M34 493h1M36 493h5M45 497h2M40 498h7M252 498h10M41 499h6M249 499h1M251 499h9M261 499h1M43 500h4M52 500h1M249 500h10M45 501h2M52 501h2M248 501h10M46 502h1M52 502h6M246 502h11M47 503h14M245 503h11M52 504h13M243 504h12M52 505h18M242 505h11M241 506h11M104 512h2" />
<path stroke="#281b38" d="M41 492h22M240 492h20M41 493h26M68 493h3M52 497h2M52 498h52M230 498h22M52 499h54M110 499h1M112 499h2M115 499h3M123 499h1M229 499h20M250 499h1M53 500h53M110 500h23M134 500h2M228 500h21M54 501h52M110 501h26M228 501h20M58 502h48M110 502h27M222 502h1M228 502h18M61 503h77M213 503h2M221 503h24M65 504h41M110 504h33M144 504h1M147 504h1M210 504h6M220 504h3M228 504h15M70 505h36M110 505h42M153 505h2M204 505h1M209 505h14M228 505h14M104 506h2M110 506h47M158 506h3M163 506h1M221 506h2M228 506h13M104 507h2M110 507h2M162 507h2M221 507h2M228 507h2M104 508h2M110 508h2M162 508h2M221 508h2M228 508h2M104 509h2M110 509h2M162 509h2M169 509h2M221 509h2M228 509h2M104 510h2M110 510h2M162 510h2M169 510h2M228 510h2M104 511h2M110 511h2M162 511h2M169 511h2M228 511h2M110 512h2M162 512h2M169 512h2M228 512h2" />
<path stroke="#291c37" d="M63 492h120M185 492h1M190 492h50M67 493h1M71 493h73M104 497h2M110 497h2M163 497h1M169 497h2M221 497h2M228 497h1M104 498h2M110 498h54M169 498h54M228 498h2M111 499h1M114 499h1M118 499h5M124 499h40M169 499h54M228 499h1M133 500h1M136 500h28M169 500h54M136 501h28M169 501h54M137 502h27M169 502h53M138 503h75M215 503h6M143 504h1M145 504h2M148 504h16M169 504h41M216 504h4M152 505h1M155 505h9M169 505h35M205 505h4M157 506h1M161 506h2M169 506h2M169 507h2M169 508h2" />
<path stroke="#281c37" d="M183 492h2M186 492h4" />
<path stroke="#281b3a" d="M271 492h12M262 498h10M260 499h1M262 499h10M259 500h10M258 501h9M257 502h9M256 503h9M255 504h9M253 505h8M252 506h9" />
<path stroke="#261b3b" d="M283 492h17M281 497h2M287 497h2M272 498h11M272 499h11M269 500h13M267 501h14M266 502h15M265 503h12M278 503h1M264 504h12M261 505h15M261 506h13" />
<path stroke="#291b3c" d="M300 492h1M304 492h4" />
<path stroke="#261b3c" d="M301 492h3M303 494h1M287 498h11M287 499h9M282 500h1M287 500h7M281 501h2M287 501h3M291 501h1M281 502h2M287 502h2M277 503h1M279 503h4M276 504h10M276 505h7M274 506h8M281 507h1" />
<path stroke="#281b3e" d="M308 492h7M304 494h1M306 494h8M311 495h1M308 496h1M310 496h1" />
<path stroke="#281b3f" d="M315 492h6M324 492h1M314 494h1M312 495h3M309 496h1M311 496h5M318 496h3M318 497h1" />
<path stroke="#281b41" d="M321 492h3M325 492h7M316 496h2M321 496h5M316 497h2M319 497h4M325 497h1" />
<path stroke="#281b42" d="M332 492h5" />
<path stroke="#281b43" d="M337 492h1" />
<path stroke="#261b43" d="M338 492h4M335 496h5M333 497h6M333 498h6M333 499h5M331 500h7M330 501h7M330 502h4M328 503h3M327 504h1" />
<path stroke="#261b44" d="M342 492h7M339 497h1M339 498h3M338 499h2" />
<path stroke="#251c44" d="M349 492h4M349 493h3M349 494h2M349 495h1M343 496h6M343 497h4M343 498h2M341 499h3M340 500h3M340 501h3M338 502h3M337 503h2M336 504h2M334 505h1" />
<path stroke="#241c45" d="M353 492h5M352 493h2M351 494h3M350 495h4M349 496h1M351 496h2M348 497h1M350 497h2M349 498h2M347 499h3M346 500h2M345 501h1M344 502h1" />
<path stroke="#231c45" d="M358 492h3M353 496h1M352 497h4M351 498h4M350 499h4M348 500h6M346 501h5M345 502h3M349 502h1M343 503h3M351 503h1M342 504h3M347 504h3M342 505h1M346 505h2M344 506h2M342 507h2" />
<path stroke="#221d47" d="M361 492h2M356 497h1" />
<path stroke="#201c47" d="M363 492h3M360 498h1M356 501h1M353 502h4M352 503h3" />
<path stroke="#201d47" d="M366 492h1M357 498h3M356 499h1M355 500h2M354 501h2" />
<path stroke="#1f1d47" d="M367 492h3M362 498h3M356 503h1M351 506h1M350 507h2M349 508h3M348 509h1M350 509h2M349 510h2M348 511h1M347 512h1" />
<path stroke="#1e1d47" d="M370 492h3M365 498h4M351 510h1M354 510h2M349 511h3" />
<path stroke="#1e1e47" d="M373 492h1M354 511h1M348 512h4" />
<path stroke="#1e1f47" d="M374 492h2M371 498h1M356 510h3M355 511h4M354 512h4" />
<path stroke="#1e1f48" d="M376 492h1M372 498h1" />
<path stroke="#1e2047" d="M377 492h3M374 498h1M361 510h2M361 511h2M358 512h1M361 512h1" />
<path stroke="#1d2147" d="M380 492h1" />
<path stroke="#1d2148" d="M381 492h1M383 492h1M378 498h2" />
<path stroke="#1c2148" d="M382 492h1M384 492h2M383 497h1M380 498h3" />
<path stroke="#1c2248" d="M386 492h1" />
<path stroke="#1b2248" d="M387 492h3M385 497h2M384 498h2" />
<path stroke="#1a2248" d="M390 492h1M387 497h4M386 498h4M382 508h2M382 509h1M379 510h3M379 511h2M379 512h1" />
<path stroke="#1a2247" d="M391 492h1" />
<path stroke="#1a2348" d="M392 492h2" />
<path stroke="#192448" d="M394 492h3M392 497h3M391 498h2M394 498h1M386 508h3M386 509h2M386 510h1M385 511h2M385 512h1" />
<path stroke="#192548" d="M397 492h1M395 497h1M395 498h1" />
<path stroke="#192547" d="M398 492h1" />
<path stroke="#182547" d="M399 492h1M398 497h2M398 498h1" />
<path stroke="#182747" d="M400 492h3" />
<path stroke="#162747" d="M403 492h2M400 497h3M399 498h1M401 498h1M398 503h2M398 504h2M398 505h1" />
<path stroke="#152747" d="M405 492h1M403 497h3M402 498h4M402 503h2M402 504h2M399 505h1M402 505h2M402 507h2M402 508h1" />
<path stroke="#152847" d="M406 492h4M406 498h4M404 503h4M404 504h3M404 505h2M404 507h1M403 508h2" />
<path stroke="#152947" d="M410 492h3" />
<path stroke="#142947" d="M413 492h1M411 497h2M410 498h4M409 503h4M409 504h2M409 505h2M408 507h1" />
<path stroke="#142a47" d="M414 492h3" />
<path stroke="#132a47" d="M417 492h3M415 497h4M414 498h5M415 503h2M413 504h2M413 505h2M413 507h4M413 508h4" />
<path stroke="#132b47" d="M420 492h1" />
<path stroke="#132b45" d="M421 492h3M421 493h1M421 494h1M421 495h1M421 496h2M420 497h3M420 498h2" />
<path stroke="#122c45" d="M424 492h1M423 496h1M423 497h2M422 498h3M419 504h1M419 505h1M419 507h1M419 508h1" />
<path stroke="#122d45" d="M425 492h1M425 496h2M425 497h3M425 498h3M424 507h3M424 508h3" />
<path stroke="rgba(18,45,69,0.996078431372549)" d="M426 492h2" />
<path stroke="rgba(18,46,69,0.984313725490196)" d="M428 492h2" />
<path stroke="rgba(18,46,69,0.9803921568627451)" d="M430 492h1" />
<path stroke="rgba(18,46,69,0.9764705882352941)" d="M431 492h1" />
<path stroke="rgba(18,46,69,0.9647058823529412)" d="M432 492h2" />
<path stroke="rgba(18,46,69,0.9607843137254902)" d="M434 492h1" />
<path stroke="rgba(18,45,69,0.9450980392156862)" d="M435 492h1" />
<path stroke="rgba(18,47,69,0.9450980392156862)" d="M436 492h1" />
<path stroke="rgba(18,46,69,0.9254901960784314)" d="M437 492h1" />
<path stroke="rgba(17,47,69,0.9215686274509803)" d="M438 492h1" />
<path stroke="rgba(17,47,70,0.9058823529411765)" d="M439 492h1" />
<path stroke="rgba(17,47,69,0.8941176470588236)" d="M440 492h1" />
<path stroke="rgba(17,47,69,0.8784313725490196)" d="M441 492h1" />
<path stroke="rgba(17,48,69,0.8705882352941177)" d="M442 492h1" />
<path stroke="rgba(18,48,69,0.8549019607843137)" d="M443 492h1" />
<path stroke="rgba(17,49,69,0.8235294117647058)" d="M444 492h1" />
<path stroke="rgba(17,48,69,0.807843137254902)" d="M445 492h1" />
<path stroke="rgba(17,48,70,0.7764705882352941)" d="M446 492h1" />
<path stroke="rgba(17,49,68,0.7607843137254902)" d="M447 492h1" />
<path stroke="rgba(17,49,68,0.7215686274509804)" d="M448 492h1" />
<path stroke="rgba(17,49,68,0.6941176470588235)" d="M449 492h1" />
<path stroke="#334a5a" d="M450 492h1" />
<path stroke="#364c5c" d="M451 492h1M451 498h1" />
<path stroke="#3c4f5e" d="M452 492h1" />
<path stroke="#3f5361" d="M453 492h1" />
<path stroke="#425564" d="M454 492h1" />
<path stroke="rgba(16,49,68,0.48627450980392156)" d="M455 492h1" />
<path stroke="rgba(18,51,69,0.45098039215686275)" d="M456 492h1" />
<path stroke="#113244" d="M457 492h1M456 498h1M456 499h1M456 500h1M456 502h1M456 503h1M456 504h1M456 505h1M456 509h1" />
<path stroke="#524a5d" d="M162 493h22M185 493h38M162 494h2M169 494h2M222 494h1M162 495h2M169 495h2M162 496h2M169 496h2M162 497h1M164 501h5M108 502h2M164 502h5M214 506h1M118 507h2M130 507h23M212 507h4M131 508h23M173 508h2M209 508h2M212 508h2M219 508h2M131 509h24M158 509h3M171 509h2M180 509h1M161 510h1M171 510h6M161 511h1M171 511h6M180 511h2M129 512h33M164 512h4M171 512h18M200 512h12M230 512h3" />
<path stroke="#514a5d" d="M184 493h1M228 493h2M221 494h1M228 494h2M221 495h2M228 495h2M221 496h2M228 496h2M229 497h1M223 500h5M223 501h5M223 502h5M171 506h43M215 506h6M153 507h9M171 507h41M216 507h5M230 507h4M236 507h2M154 508h8M171 508h2M175 508h34M211 508h1M214 508h5M232 508h1M235 508h2M155 509h3M161 509h1M173 509h4M179 509h1M181 509h1M189 509h2M235 509h1M180 510h2M187 510h3M221 510h2M187 511h3M221 511h2M168 512h1M189 512h11M212 512h14" />
<path stroke="#524961" d="M281 493h2M287 493h2M281 494h2M287 494h2M281 495h2M287 495h7M297 495h2M281 496h2M287 496h4M293 496h3M32 507h5M33 508h4M38 508h1M34 509h1M36 509h2M39 509h2M41 510h1M39 512h2" />
<path stroke="#f48a93" d="M289 493h53M284 494h3" />
<path stroke="#f68a93" d="M342 493h6M140 494h6M158 494h3M164 494h5M171 494h3M178 494h2M181 494h1M185 494h11M199 494h1M217 494h4M225 494h3M230 494h1M235 494h2M238 494h2M245 494h4M250 494h1M252 494h3M258 494h2M262 494h4M268 494h13M283 494h1M171 495h1M186 495h5M212 495h9M234 495h5M244 495h2M250 495h3M256 495h2M262 495h2M266 495h15M223 497h2M226 497h1M223 498h2M283 499h1M283 500h1M283 505h1M226 506h1M283 506h1M225 507h2M283 507h1M223 508h4M223 509h2M220 510h1M223 510h1M217 511h1M219 511h2M226 511h1M231 511h1M235 511h1" />
<path stroke="#f78a93" d="M348 493h1M354 493h3M283 508h1M283 509h1M275 510h1M279 510h1M283 510h1M283 511h1" />
<path stroke="#f88a93" d="M357 493h3" />
<path stroke="#fa8991" d="M360 493h4M366 493h1" />
<path stroke="#f98a93" d="M364 493h2M367 493h1" />
<path stroke="#fb8991" d="M368 493h2" />
<path stroke="#fb8a93" d="M370 493h1" />
<path stroke="#fc8991" d="M371 493h1M373 493h3" />
<path stroke="#fc8a93" d="M372 493h1" />
<path stroke="#fd8991" d="M376 493h1M378 493h1M381 493h1" />
<path stroke="#fd8a93" d="M377 493h1M379 493h2" />
<path stroke="#fe8991" d="M382 493h3" />
<path stroke="#ff8992" d="M385 493h5" />
<path stroke="#ff8a93" d="M390 493h2" />
<path stroke="#ff8a92" d="M392 493h4" />
<path stroke="#ff8b94" d="M396 493h2M404 493h1" />
<path stroke="#ff8c97" d="M398 493h2M401 493h2" />
<path stroke="#ff8c95" d="M400 493h1M403 493h1M406 493h1M408 493h2" />
<path stroke="#ff8c94" d="M405 493h1M407 493h1" />
<path stroke="#ff8d96" d="M410 493h1M417 493h3" />
<path stroke="#ff8e99" d="M411 493h6" />
<path stroke="#132a45" d="M420 493h1M420 494h1M420 495h1M420 496h1M419 497h1M419 498h1M418 503h1M417 504h2M417 505h2M417 507h1" />
<path stroke="#ff8f99" d="M422 493h15" />
<path stroke="#ff909a" d="M437 493h19" />
<path stroke="#7a7e84" d="M456 493h1M452 494h1M456 494h1M452 495h1M456 495h1M456 496h1M456 497h1" />
<path stroke="#183749" d="M457 493h1M457 494h1M457 495h1M457 496h1M457 497h1M457 498h1M457 499h1M457 500h1M457 501h1M457 502h1M457 503h1M455 513h1M455 514h1" />
<path stroke="#7e7c83" d="M0 494h1M4 494h4M10 494h4M0 495h2M4 495h4M10 495h5M0 496h2M4 496h4M10 496h4M0 497h2M4 497h4M11 497h4M0 510h1M3 510h5M10 510h3M18 510h2M250 510h5M269 510h1M274 510h1M277 510h1M0 511h1M4 511h4M11 511h2M17 511h3M248 511h1M250 511h1M252 511h1M254 511h4M262 511h1M266 511h1" />
<path stroke="#7e7b83" d="M1 494h3M8 494h2M14 494h31M47 494h5M54 494h86M289 494h11M301 494h2M316 494h1M2 495h2M8 495h2M15 495h30M47 495h5M54 495h108M164 495h5M223 495h5M283 495h4M2 496h2M8 496h2M14 496h31M47 496h5M54 496h108M164 496h5M171 496h50M223 496h5M230 496h51M283 496h4M2 497h2M8 497h3M15 497h26M43 497h2M47 497h5M54 497h50M106 497h4M112 497h50M164 497h5M171 497h50M227 497h1M230 497h51M283 497h4M47 498h5M106 498h4M164 498h5M227 498h1M283 498h4M47 499h5M106 499h4M164 499h5M226 499h2M284 499h3M47 500h5M106 500h4M164 500h5M284 500h2M47 504h5M106 504h4M164 504h5M47 505h5M106 505h4M164 505h5M286 505h1M47 506h5M106 506h4M164 506h5M286 506h1M47 507h2M50 507h2M106 507h4M164 507h5M47 508h2M50 508h2M106 508h4M164 508h5M286 508h1M47 509h5M60 509h2M65 509h7M74 509h27M106 509h4M164 509h5M177 509h2M182 509h7M191 509h8M284 509h2M1 510h2M8 510h2M13 510h5M20 510h21M43 510h1M47 510h5M60 510h3M65 510h5M73 510h28M106 510h4M114 510h47M164 510h5M177 510h3M182 510h5M190 510h10M257 510h12M1 511h3M8 511h3M13 511h4M20 511h21M43 511h1M47 511h5M60 511h3M65 511h5M73 511h28M106 511h4M114 511h47M164 511h5M177 511h3M182 511h5M190 511h12M258 511h4M263 511h3M267 511h1M284 511h3" />
<path stroke="#52495f" d="M45 494h2M46 495h1M45 496h1M41 497h2M48 501h3M51 502h1M63 506h12M85 506h11M69 507h11M89 507h3M93 507h7M101 507h2M72 508h14M97 508h7M72 509h2M101 509h1M112 509h5M118 509h2M112 510h2M101 511h2M77 512h27M107 512h2M124 512h1" />
<path stroke="#52495e" d="M52 494h2M45 495h1M52 495h2M46 496h1M52 496h2M106 501h4M106 502h2M75 506h10M96 506h8M80 507h9M92 507h1M100 507h1M103 507h1M112 507h6M120 507h10M86 508h11M112 508h19M102 509h2M117 509h1M120 509h11M101 510h3M103 511h1M112 511h2M106 512h1M109 512h1M112 512h12M125 512h1" />
<path stroke="#f68b95" d="M146 494h12M161 494h1M174 494h4M180 494h1M182 494h3M196 494h3M200 494h17M223 494h2M231 494h4M237 494h1M240 494h5M249 494h1M251 494h1M255 494h3M260 494h2M266 494h2M172 495h14M191 495h21M230 495h4M239 495h5M246 495h4M253 495h3M258 495h4M264 495h2M225 497h1M225 498h2M223 499h3M223 506h2M223 507h2M225 509h2M216 510h2M219 510h1M224 510h3M239 510h1M216 511h1M225 511h1M230 511h1M233 511h1" />
<path stroke="#7e7b84" d="M300 494h1M315 494h1M317 494h28M286 500h1M284 505h2M284 506h2M284 508h2M297 510h1M309 510h10M332 510h1M279 511h2M291 511h4M296 511h8M306 511h7M314 511h1M317 511h1" />
<path stroke="#261b3e" d="M305 494h1M303 495h8M303 496h5M303 497h6M298 498h9M296 499h9M294 500h9M290 501h1M292 501h10M289 502h11M287 503h9M286 504h9M287 505h6M282 506h1M287 506h4" />
<path stroke="#7e7c84" d="M345 494h1M347 494h2M286 509h1M272 510h2M285 510h1M291 510h1M295 510h2M325 510h2M328 510h4M304 511h2M321 511h3M327 511h5" />
<path stroke="#7d7c84" d="M346 494h1M354 494h2M359 494h4M364 494h2M368 494h4M376 494h4M358 495h3M364 495h2M368 495h5M375 495h2M357 496h4M363 496h3M368 496h5M375 496h1M358 497h3M362 497h3M367 497h6M374 497h2M357 499h2M361 499h2M365 499h5M357 500h1M361 500h2M364 500h5M372 500h1M358 501h1M360 501h9M357 502h3M362 502h7M371 502h1M357 503h2M361 503h8M353 504h4M360 504h9M377 504h1M352 505h3M359 505h10M377 505h1M352 506h1M357 506h11M376 506h1M354 507h1M356 507h10M368 507h2M375 507h1M352 508h16M374 508h1M352 509h13M372 509h2M276 510h1M284 510h1M294 510h1M298 510h11M321 510h4M327 510h1M352 510h2M359 510h2M363 510h2M366 510h1M369 510h1M371 510h2M272 511h1M278 511h1M318 511h3M324 511h3M336 511h3M352 511h2M359 511h2M363 511h1M366 511h1M369 511h1M352 512h2M359 512h2M370 512h1" />
<path stroke="#7d7b84" d="M356 494h3M363 494h1M366 494h2M354 495h4M361 495h3M366 495h2M354 496h3M361 496h2M366 496h2M361 497h1M365 497h2M359 499h2M363 499h2M358 500h3M363 500h1M357 501h1M359 501h1M360 502h2M359 503h2M352 504h1M357 504h3M355 505h4M353 506h4M284 507h3M352 507h2M355 507h1M280 510h1M286 510h1M292 510h2M319 510h2M333 510h7M295 511h1M313 511h1M315 511h2M332 511h4M339 511h1" />
<path stroke="#7c7b86" d="M372 494h4M380 494h1M382 494h1M384 494h2M373 495h2M377 495h2M383 495h2M373 496h2M376 496h4M381 496h2M384 496h1M373 497h1M376 497h2M380 497h1M370 499h9M380 499h1M371 500h1M375 500h1M371 501h2M369 502h2M372 502h2M375 502h1M369 503h4M374 503h1M369 504h3M373 504h1M375 504h2M369 505h2M372 505h1M368 506h3M373 506h2M366 507h2M372 507h1M368 508h1M371 508h1M365 509h3M370 509h1M365 510h1M364 511h1M368 511h1M363 512h1M365 512h1M367 512h3" />
<path stroke="#7b7c86" d="M381 494h1M386 494h1M388 494h2M391 494h4M396 494h1M380 495h2M385 495h2M388 495h10M380 496h1M383 496h1M385 496h1M387 496h3M391 496h3M395 496h3M379 497h1M381 497h2M379 499h1M381 499h3M385 499h4M391 499h2M394 499h4M390 500h2M393 500h5M375 501h1M390 501h4M396 501h2M374 502h1M376 502h1M393 502h1M396 502h1M373 503h1M375 503h2M393 503h2M372 504h1M374 504h1M371 505h1M373 505h3M379 505h1M372 506h1M378 506h2M371 507h1M377 507h4M370 508h1M372 508h1M376 508h5M369 509h1M371 509h1M375 509h6M396 509h1M367 510h1M370 510h1M374 510h5M394 510h3M367 511h1M373 511h6M394 511h2M364 512h1M372 512h7M393 512h3" />
<path stroke="#7c7c84" d="M383 494h1M387 494h1M390 494h1M395 494h1M397 494h9M407 494h1M409 494h1M411 494h3M379 495h1M382 495h1M387 495h1M398 495h7M407 495h1M409 495h1M411 495h1M413 495h1M386 496h1M390 496h1M394 496h1M398 496h8M407 496h1M409 496h1M411 496h1M413 496h1M378 497h1M407 497h1M409 497h1M413 497h1M384 499h1M389 499h2M393 499h1M398 499h4M409 499h1M411 499h1M392 500h1M398 500h4M410 500h2M398 501h4M404 501h1M406 501h1M410 501h1M397 502h5M404 502h1M406 502h1M410 502h1M412 502h1M400 503h2M400 504h2M411 504h2M376 505h1M378 505h1M400 505h2M411 505h1M371 506h1M375 506h1M377 506h1M398 506h6M407 506h1M411 506h1M370 507h1M373 507h2M376 507h1M398 507h4M411 507h2M369 508h1M373 508h1M375 508h1M397 508h5M409 508h1M411 508h1M368 509h1M374 509h1M397 509h3M407 509h2M411 509h1M368 510h1M373 510h1M397 510h3M408 510h1M365 511h1M370 511h3M396 511h6M366 512h1M371 512h1M391 512h2M396 512h5" />
<path stroke="#7c7d84" d="M406 494h1M408 494h1M410 494h1M414 494h1M417 494h3M422 494h2M426 494h3M405 495h2M408 495h1M410 495h1M412 495h1M415 495h1M417 495h2M422 495h1M426 495h2M406 496h1M408 496h1M410 496h1M412 496h1M415 496h2M418 496h1M406 497h1M408 497h1M410 497h1M407 499h2M410 499h1M412 499h1M416 499h1M419 499h1M407 500h3M413 500h4M419 500h1M405 501h1M407 501h1M411 501h1M415 501h1M418 501h2M405 502h1M407 502h1M415 502h1M418 502h2M414 503h1M404 506h3M408 506h1M410 506h1M413 506h1M416 506h2M420 506h1M420 507h1M412 508h1M420 508h2M410 509h1M414 509h2M419 509h2M410 510h1M413 510h3M418 510h2M402 511h1M414 511h1M401 512h2M414 512h1" />
<path stroke="#7a7d84" d="M415 494h2M424 494h2M429 494h23M453 494h3M414 495h1M416 495h1M419 495h1M423 495h3M428 495h24M453 495h3M414 496h1M417 496h1M419 496h1M424 496h1M427 496h29M414 499h2M417 499h2M447 499h1M412 500h1M417 500h2M412 501h1M411 502h1M420 502h1M413 503h1M417 503h1M420 503h1M415 504h2M420 504h1M415 505h2M420 505h1M414 506h2M418 506h2M410 507h1M410 508h1M417 508h1M435 508h1M409 509h1M412 509h2M416 509h3M421 509h14M437 509h1M407 510h1M409 510h1M411 510h2M416 510h2M420 510h18M415 511h2M421 511h4M436 511h2M415 512h2M421 512h4M436 512h3" />
<path stroke="#524962" d="M294 495h3M299 495h4M291 496h2M296 496h7M289 497h1M291 497h1M296 497h7" />
<path stroke="#524a62" d="M315 495h1M290 497h1M294 497h2M286 501h1M286 502h1M276 507h1M278 507h1M280 507h1M270 508h1" />
<path stroke="#524a63" d="M316 495h11M328 495h1M291 507h1M303 507h2M306 507h1" />
<path stroke="#514963" d="M327 495h1M326 496h2" />
<path stroke="#514a64" d="M329 495h2M338 495h3" />
<path stroke="#514964" d="M331 495h7M328 496h2M327 497h3" />
<path stroke="#514a65" d="M341 495h4M340 496h1M341 497h2" />
<path stroke="#504a65" d="M345 495h4M341 496h2M340 497h1M332 507h3M338 507h1M332 508h1M334 508h3M333 509h2" />
<path stroke="#261b42" d="M330 496h5M330 497h3M325 498h8M324 499h9M324 500h7M323 501h7M322 502h8M320 503h8M319 504h8M317 505h7M317 506h1" />
<path stroke="#241c44" d="M350 496h1M347 497h1M349 497h1M345 498h4M344 499h3M343 500h3M343 501h2M341 502h3M339 503h4M338 504h4M335 505h7M333 506h7" />
<path stroke="#524a61" d="M292 497h2M283 501h3M255 507h2M258 507h1M260 507h16M254 508h2M257 508h11M269 508h1M38 509h1M252 509h7M262 509h2M41 511h2M44 511h1M54 511h3M41 512h4M56 512h3" />
<path stroke="#261b3f" d="M309 497h7M307 498h8M316 498h2M305 499h9M315 499h2M303 500h8M314 500h1M302 501h8M313 501h1M315 501h1M300 502h10M312 502h1M296 503h13M310 503h2M295 504h10M306 504h1M309 504h1M293 505h10M304 505h1M307 505h1M291 506h11M305 506h4" />
<path stroke="#261b41" d="M323 497h2M326 497h1M315 498h1M318 498h7M314 499h1M317 499h7M311 500h3M315 500h9M310 501h3M314 501h1M316 501h7M310 502h2M313 502h9M309 503h1M312 503h8M305 504h1M307 504h2M310 504h9M303 505h1M305 505h2M308 505h9M302 506h3M309 506h4M315 506h2" />
<path stroke="#221d45" d="M357 497h1M355 498h2M354 499h2M354 500h1M351 501h3M348 502h1M350 502h2M346 503h5M345 504h2M343 505h3M342 506h2" />
<path stroke="#1b2148" d="M384 497h1M383 498h1" />
<path stroke="#192248" d="M391 497h1M390 498h1M384 508h2M383 509h3M382 510h4M381 511h4M380 512h5" />
<path stroke="#172448" d="M396 497h2M396 498h2M395 503h2M395 504h1M392 508h1M389 511h2M389 512h1" />
<path stroke="#7a7c84" d="M414 497h1M413 499h1M412 505h1M409 506h1M412 506h1M409 507h1M408 508h1" />
<path stroke="#122e45" d="M428 497h5M435 497h1M427 507h4M427 508h4" />
<path stroke="#122f45" d="M433 497h2M431 507h1M431 508h1" />
<path stroke="#112f45" d="M436 497h6M439 502h2M432 507h1M432 508h1M435 509h2M438 509h1M438 510h2M438 511h2M439 512h1" />
<path stroke="#113045" d="M442 497h6M448 499h1M448 500h1M441 502h8M441 503h8M443 504h5M443 505h5M444 507h3M444 508h3M444 509h2M440 510h3M440 511h3M447 511h1M440 512h4" />
<path stroke="#113144" d="M448 497h8M454 498h2M449 499h7M449 500h7M449 502h7M449 503h7M448 504h8M448 505h8M448 506h8M448 507h8M450 508h6M446 509h1M450 509h6M447 510h2M452 510h3M448 511h1M452 511h3M452 512h3" />
<path stroke="#251b44" d="M342 498h1M340 499h1M338 500h2M337 501h3M336 502h2" />
<path stroke="#1f1c47" d="M361 498h1M355 503h1" />
<path stroke="#1d1d47" d="M369 498h1" />
<path stroke="#1d1d48" d="M370 498h1" />
<path stroke="#1e2048" d="M373 498h1M375 498h1" />
<path stroke="#1d2048" d="M376 498h2M362 512h1" />
<path stroke="#192447" d="M393 498h1" />
<path stroke="#162748" d="M400 498h1M397 505h1" />
<path stroke="#132e47" d="M428 498h1" />
<path stroke="#142f47" d="M429 498h2" />
<path stroke="#142f48" d="M431 498h1" />
<path stroke="#132f45" d="M432 498h1" />
<path stroke="#143047" d="M433 498h2" />
<path stroke="#153148" d="M435 498h1" />
<path stroke="#133147" d="M436 498h1" />
<path stroke="#143148" d="M437 498h1" />
<path stroke="#153248" d="M438 498h2" />
<path stroke="#163348" d="M440 498h1" />
<path stroke="#173449" d="M441 498h2" />
<path stroke="#183549" d="M443 498h1M436 513h7" />
<path stroke="#19364a" d="M444 498h1" />
<path stroke="#1b374a" d="M445 498h1" />
<path stroke="#1c384b" d="M446 498h1" />
<path stroke="#2b4354" d="M447 498h1" />
<path stroke="#2c4355" d="M448 498h1" />
<path stroke="#2f4658" d="M449 498h1" />
<path stroke="#32495a" d="M450 498h1" />
<path stroke="#3b4e5d" d="M452 498h1" />
<path stroke="#3d4f5f" d="M453 498h1" />
<path stroke="#485166" d="M402 499h3M406 499h1M402 500h3M406 500h1M402 501h2M402 502h2M396 506h2M394 507h1M396 507h2M396 508h1M400 509h2M403 509h1M400 510h2M403 510h1" />
<path stroke="#485266" d="M405 499h1M405 500h1M408 501h1M402 509h1M402 510h1" />
<path stroke="#475366" d="M420 499h2M420 500h1M413 501h2M416 501h2M420 501h1M413 502h2M416 502h2M411 511h1M413 511h1M411 512h1M413 512h1" />
<path stroke="#465366" d="M422 499h10M421 500h9M421 501h9M421 502h9M421 503h9M421 504h9M431 504h1M421 505h9M421 506h10M421 507h1M417 511h4M425 511h3M429 511h2M417 512h4M425 512h3M429 512h1" />
<path stroke="#465565" d="M432 499h1M434 499h10M433 500h1M435 500h9M433 501h10M433 502h6M432 503h9M432 504h10M431 505h10M431 506h10M435 507h7M436 508h6M439 509h1M431 511h5M430 512h6" />
<path stroke="#465365" d="M433 499h1M432 500h1M434 500h1M432 501h1M432 502h1" />
<path stroke="#455565" d="M444 499h1M443 501h1M442 504h1M441 505h2M441 506h3M442 507h2M442 508h2M440 509h4M443 510h1M443 511h1" />
<path stroke="#455665" d="M445 499h2M445 500h3M444 501h13M444 506h4M447 507h1M447 508h3M447 509h3M444 510h3M449 510h3M444 511h3M449 511h3M455 511h2M444 512h8M455 512h2" />
<path stroke="#4c4b66" d="M369 500h2M369 501h1" />
<path stroke="#4c4c66" d="M373 500h2M376 500h1M370 501h1M373 501h2M376 501h1" />
<path stroke="#4c4d66" d="M377 500h2M377 501h1" />
<path stroke="#4b4e66" d="M379 500h5M385 500h1M378 501h5M384 501h1M377 502h5M384 502h1M377 503h5M383 503h1M378 504h3M382 504h1M381 505h1M380 506h1" />
<path stroke="#4a4e66" d="M384 500h1M386 500h3M383 501h1M385 501h3M382 502h2M385 502h3M382 503h1M384 503h3M381 504h1M383 504h4M380 505h1M382 505h4M381 506h5M381 507h5M381 508h1M381 509h1" />
<path stroke="#4a4f66" d="M389 500h1M388 501h2M388 502h3M387 503h2M387 504h1M389 504h1M386 505h1M388 505h2M386 506h1M388 506h1" />
<path stroke="#465466" d="M430 500h2M430 501h2M430 502h2M430 503h2M430 504h1M430 505h1M428 511h1M428 512h1" />
<path stroke="#465665" d="M444 500h1" />
<path stroke="#2a1c3a" d="M0 501h1M0 502h1M0 503h1M0 504h1M0 505h2M0 506h2" />
<path stroke="#524a5f" d="M47 501h1M51 501h1M47 502h4M54 506h9M44 507h1M49 507h1M54 507h15M252 507h3M257 507h1M259 507h1M49 508h1M54 508h18M247 508h7M256 508h1M54 509h6M62 509h3M244 509h8M54 510h6M63 510h2M70 510h3M57 511h3M63 511h2M70 511h3M54 512h2M59 512h18M126 512h3M233 512h6M244 512h3" />
<path stroke="#494e66" d="M394 501h2M391 502h2M394 502h1M389 503h4M388 504h1M390 504h5M387 505h1M390 505h5M387 506h1M389 506h5M386 507h8" />
<path stroke="#475266" d="M409 501h1M408 502h2M405 509h2M405 510h2M404 511h7M412 511h1M404 512h7M412 512h1" />
<path stroke="#514a61" d="M283 502h1M268 508h1M273 508h2M259 509h3M264 509h6M272 509h1M270 510h1M248 512h1M250 512h1M252 512h13M267 512h2" />
<path stroke="#514a62" d="M284 502h2M283 503h4M277 507h1M279 507h1M289 507h1M292 507h4M271 508h2M275 508h6M290 508h2M270 509h2M273 509h8M290 509h1M271 510h1M289 510h1M270 511h2M281 511h2M265 512h2M269 512h12M284 512h3" />
<path stroke="#251b43" d="M334 502h2M331 503h2M328 504h2M327 505h1M326 506h1" />
<path stroke="#201d45" d="M352 502h1M349 505h3M347 506h4M345 507h4M342 508h1M344 508h3M342 509h5M342 510h3M342 511h1" />
<path stroke="#495166" d="M395 502h1M395 506h1M395 507h1" />
<path stroke="#251c43" d="M333 503h4M330 504h6M328 505h6M327 506h6" />
<path stroke="#162447" d="M397 503h1M396 504h1M395 505h2M393 508h2M392 509h2M392 510h2M391 511h3M390 512h1" />
<path stroke="#142847" d="M408 503h1M407 504h2M406 505h3M405 507h3M405 508h3" />
<path stroke="#122a45" d="M419 503h1M418 507h1M418 508h1" />
<path stroke="#838288" d="M223 504h5M223 505h5M225 506h1M227 506h1M227 507h1M227 508h1M199 509h22M227 509h1M200 510h16M218 510h1M227 510h1M230 510h9M240 510h10M202 511h14M218 511h1M223 511h2M227 511h1M232 511h1M234 511h1M236 511h12" />
<path stroke="#201c45" d="M350 504h2M348 505h1M346 506h1M344 507h1M343 508h1" />
<path stroke="#162448" d="M397 504h1M395 508h1M394 509h2" />
<path stroke="#173749" d="M457 504h1M457 505h1M457 506h1M457 507h1M457 508h1M457 509h1M457 510h1M457 511h1M457 512h1M456 513h4M456 514h4M455 515h3M459 515h1" />
<path stroke="#251b42" d="M324 505h3M318 506h1M320 506h1M322 506h4" />
<path stroke="#261c40" d="M313 506h2" />
<path stroke="#251c42" d="M319 506h1M321 506h1" />
<path stroke="#231c44" d="M340 506h2" />
<path stroke="#484f66" d="M394 506h1" />
<path stroke="#103244" d="M456 506h1M456 507h1M456 508h1M456 510h1" />
<path stroke="#534a5f" d="M0 507h2M41 507h3M2 508h1M43 508h2M1 509h2M3 512h2" />
<path stroke="#534b5e" d="M2 507h1M3 508h1" />
<path stroke="#534b61" d="M3 507h2M0 508h1M4 508h2M0 509h1M3 509h4M0 512h2M5 512h4" />
<path stroke="#534a61" d="M5 507h25M40 507h1M1 508h1M6 508h24M41 508h2M7 509h24M42 509h3M44 510h1M2 512h1M9 512h24M47 512h5" />
<path stroke="#534961" d="M30 507h2M37 507h3M30 508h3M37 508h1M39 508h2M31 509h3M35 509h1M41 509h1M42 510h1M33 512h6" />
<path stroke="#514a5f" d="M234 507h2M238 507h14M230 508h2M233 508h2M237 508h10M230 509h5M236 509h8M226 512h2M239 512h5M247 512h1M249 512h1M251 512h1" />
<path stroke="#251b3e" d="M282 507h1M287 507h2M281 508h2M287 508h1" />
<path stroke="#504a63" d="M290 507h1M296 507h7M305 507h1M307 507h8M289 508h1M292 508h22M289 509h1M291 509h23M290 510h1M289 511h2M281 512h3M289 512h19" />
<path stroke="#504a64" d="M315 507h17M314 508h18M314 509h14M308 512h8M324 512h4" />
<path stroke="#4f4a65" d="M335 507h3M339 507h3M333 508h1M337 508h5M331 509h2M335 509h6M330 512h2M334 512h2" />
<path stroke="#1f1d45" d="M349 507h1M347 508h2M347 509h1M349 509h1M347 510h2M343 511h2M347 511h1M342 512h3" />
<path stroke="#122d47" d="M422 507h2M422 508h2" />
<path stroke="#112e45" d="M433 507h2M433 508h2" />
<path stroke="#251c3f" d="M288 508h1M287 509h2M287 510h2M287 511h2" />
<path stroke="#172348" d="M389 508h3M388 509h4M387 510h5M387 511h2M386 512h3" />
<path stroke="#251c3e" d="M281 509h2M281 510h2" />
<path stroke="#4f4a64" d="M328 509h3M316 512h8M328 512h2" />
<path stroke="#4f4b65" d="M341 509h1M340 510h2M332 512h2M336 512h3" />
<path stroke="#475166" d="M404 509h1M404 510h1M403 511h1M403 512h1" />
<path stroke="#7d7c83" d="M255 510h2M278 510h1M249 511h1M251 511h1M253 511h1M268 511h2M273 511h5" />
<path stroke="#4d4b66" d="M345 510h2M341 511h1M345 511h2M339 512h2M345 512h2" />
<path stroke="#103144" d="M455 510h1" />
<path stroke="#4d4b65" d="M340 511h1M341 512h1" />
<path stroke="#241c3f" d="M287 512h2" />
<path stroke="#2f2440" d="M0 513h5M8 513h1" />
<path stroke="#2f2341" d="M5 513h1" />
<path stroke="#302341" d="M6 513h2" />
<path stroke="#302140" d="M9 513h1" />
<path stroke="#302141" d="M10 513h11M22 513h1M24 513h1M27 513h1" />
<path stroke="#2f2141" d="M21 513h1M23 513h1M25 513h2M28 513h6" />
<path stroke="#2f2041" d="M34 513h11M46 513h1M50 513h4" />
<path stroke="#2f2040" d="M45 513h1M47 513h3M54 513h3M58 513h1M66 513h13" />
<path stroke="#2e2040" d="M57 513h1M59 513h7" />
<path stroke="#2f203f" d="M79 513h2" />
<path stroke="#2e203f" d="M81 513h33M115 513h4" />
<path stroke="#2e203e" d="M114 513h1M119 513h1M123 513h2" />
<path stroke="#2f223e" d="M120 513h3M125 513h65M200 513h15M216 513h1" />
<path stroke="#2d223e" d="M190 513h10M215 513h1M217 513h12M230 513h2" />
<path stroke="#2d213f" d="M229 513h1M232 513h11" />
<path stroke="#2d2140" d="M243 513h9M253 513h1" />
<path stroke="#2c2141" d="M252 513h1" />
<path stroke="#2b2140" d="M254 513h1" />
<path stroke="#2b2141" d="M255 513h9" />
<path stroke="#2b2142" d="M264 513h2M271 513h1M275 513h1" />
<path stroke="#2c2142" d="M266 513h5" />
<path stroke="#2b2143" d="M272 513h3M276 513h2M280 513h3M284 513h1" />
<path stroke="#2c2143" d="M278 513h2" />
<path stroke="#2b2144" d="M283 513h1M285 513h10" />
<path stroke="#2b2145" d="M295 513h19" />
<path stroke="#2b2147" d="M314 513h11" />
<path stroke="#2a2147" d="M325 513h4" />
<path stroke="#2a2347" d="M329 513h3" />
<path stroke="#292347" d="M332 513h6" />
<path stroke="#282448" d="M338 513h1" />
<path stroke="#262448" d="M339 513h2" />
<path stroke="#262449" d="M341 513h4" />
<path stroke="#252449" d="M345 513h7" />
<path stroke="#252549" d="M352 513h4" />
<path stroke="#252649" d="M356 513h6" />
<path stroke="#252749" d="M362 513h1" />
<path stroke="#242749" d="M363 513h1" />
<path stroke="#24284b" d="M364 513h3" />
<path stroke="#22284a" d="M367 513h1" />
<path stroke="#22284b" d="M368 513h5" />
<path stroke="#21284b" d="M373 513h1" />
<path stroke="#21294b" d="M374 513h3" />
<path stroke="#20294b" d="M377 513h6" />
<path stroke="#1f2b4b" d="M383 513h3" />
<path stroke="#1e2b4b" d="M386 513h3" />
<path stroke="#1e2c4a" d="M389 513h3" />
<path stroke="#1e2c4b" d="M392 513h1" />
<path stroke="#1d2c4b" d="M393 513h2" />
<path stroke="#1d2c4a" d="M395 513h1" />
<path stroke="#1d2d4a" d="M396 513h2" />
<path stroke="#1c2d4a" d="M398 513h3" />
<path stroke="#1c2e4a" d="M401 513h4" />
<path stroke="#1b2f4a" d="M405 513h2M409 513h4" />
<path stroke="#1b2e4a" d="M407 513h2" />
<path stroke="#1b314a" d="M413 513h1" />
<path stroke="#19304a" d="M414 513h2M417 513h1" />
<path stroke="#19314a" d="M416 513h1M418 513h4" />
<path stroke="#19324a" d="M422 513h3" />
<path stroke="#18334a" d="M425 513h2" />
<path stroke="#18344a" d="M427 513h3" />
<path stroke="#183449" d="M430 513h6" />
<path stroke="#183649" d="M443 513h12M452 514h3" />
<path stroke="#173649" d="M454 515h1" />
</svg>