<svg xmlns="http://www.w3.org/2000/svg" viewBox="0 -0.5 851 600" shape-rendering="crispEdges">
<metadata>Made with Pixels to Svg https://codepen.io/shshaw/pen/XbxvNj</metadata>
<path stroke="rgba(163,183,187,0.25098039215686274)" d="M27 503h791M26 504h1M818 504h1M25 505h1M819 505h1M24 506h1M820 506h1M23 507h1M821 507h1M22 508h1M822 508h1M22 509h1M822 509h1M22 510h1M822 510h1M22 511h1M822 511h1M22 512h1M822 512h1M22 513h1M822 513h1M22 514h1M822 514h1M22 515h1M822 515h1M22 516h1M822 516h1M22 517h1M822 517h1M22 518h1M822 518h1M22 519h1M822 519h1M22 520h1M22 521h1M22 522h1M22 523h1M822 549h1M22 550h1M822 550h1M22 551h1M822 551h1M22 552h1M822 552h1M22 553h1M822 553h1M22 554h1M822 554h1M22 555h1M822 555h1M22 556h1M822 556h1M22 557h1M822 557h1M22 558h1M822 558h1M22 559h1M822 559h1M22 560h1M822 560h1M22 561h1M822 561h1M22 562h1M822 562h1M22 563h1M822 563h1M22 564h1M822 564h1M22 565h1M822 565h1M22 566h1M822 566h1M22 567h1M822 567h1M23 568h1M821 568h1M24 569h1M820 569h1M25 570h1M819 570h1M26 571h1M818 571h1M27 572h791" />
<path stroke="rgba(165,181,186,0.5686274509803921)" d="M27 504h791M26 505h1M818 505h1M25 506h1M819 506h1M24 507h1M820 507h1M23 508h1M821 508h1M23 509h1M821 509h1M23 510h1M821 510h1M23 511h1M821 511h1M23 512h1M821 512h1M23 513h1M821 513h1M23 514h1M821 514h1M23 515h1M821 515h1M23 516h1M821 516h1M23 517h1M821 517h1M23 518h1M821 539h1M821 540h1M821 541h1M821 542h1M821 543h1M821 544h1M821 545h1M821 546h1M821 547h1M821 548h1M23 549h1M821 549h1M23 550h1M821 550h1M23 551h1M821 551h1M23 552h1M821 552h1M23 553h1M821 553h1M23 554h1M821 554h1M23 555h1M821 555h1M23 556h1M821 556h1M23 557h1M821 557h1M23 558h1M821 558h1M23 559h1M821 559h1M23 560h1M821 560h1M23 561h1M821 561h1M23 562h1M821 562h1M23 563h1M821 563h1M23 564h1M821 564h1M23 565h1M821 565h1M23 566h1M821 566h1M23 567h1M821 567h1M24 568h1M820 568h1M25 569h1M819 569h1M26 570h1M818 570h1M27 571h791" />
<path stroke="#032c37" d="M27 505h791M26 506h1M818 506h1M25 507h1M819 507h1M24 508h1M29 508h787M820 508h1M24 509h1M28 509h2M815 509h2M820 509h1M24 510h1M27 510h2M816 510h2M820 510h1M24 511h1M27 511h1M817 511h1M820 511h1M24 512h1M27 512h1M817 512h1M820 512h1M24 513h1M27 513h1M817 513h1M820 513h1M24 514h1M27 514h1M817 514h1M820 514h1M24 515h1M27 515h1M817 515h1M820 515h1M24 516h1M27 516h1M817 516h1M820 516h1M24 517h1M27 517h1M817 517h1M820 517h1M24 518h1M27 518h1M817 518h1M820 518h1M24 519h1M27 519h1M817 519h1M820 519h1M24 520h1M27 520h1M817 520h1M820 520h1M24 521h1M27 521h1M817 521h1M820 521h1M24 522h1M27 522h1M817 522h1M820 522h1M24 523h1M27 523h1M817 523h1M820 523h1M24 524h1M27 524h1M817 524h1M820 524h1M24 525h1M27 525h1M817 525h1M820 525h1M24 526h1M27 526h1M817 526h1M820 526h1M24 527h1M27 527h1M817 527h1M820 527h1M24 528h1M27 528h1M817 528h1M820 528h1M24 529h1M27 529h1M817 529h1M820 529h1M24 530h1M27 530h1M817 530h1M820 530h1M24 531h1M27 531h1M817 531h1M820 531h1M24 532h1M27 532h1M817 532h1M820 532h1M24 533h1M27 533h1M817 533h1M820 533h1M24 534h1M27 534h1M817 534h1M820 534h1M24 535h1M27 535h1M817 535h1M820 535h1M24 536h1M27 536h1M817 536h1M820 536h1M24 537h1M27 537h1M817 537h1M820 537h1M24 538h1M27 538h1M817 538h1M820 538h1M24 539h1M27 539h1M817 539h1M820 539h1M24 540h1M27 540h1M817 540h1M820 540h1M24 541h1M27 541h1M817 541h1M820 541h1M24 542h1M27 542h1M817 542h1M820 542h1M24 543h1M27 543h1M817 543h1M820 543h1M24 544h1M27 544h1M817 544h1M820 544h1M24 545h1M27 545h1M817 545h1M820 545h1M24 546h1M27 546h1M817 546h1M820 546h1M24 547h1M27 547h1M817 547h1M820 547h1M24 548h1M27 548h1M817 548h1M820 548h1M24 549h1M27 549h1M817 549h1M820 549h1M24 550h1M27 550h1M817 550h1M820 550h1M24 551h1M27 551h1M817 551h1M820 551h1M24 552h1M27 552h1M817 552h1M820 552h1M24 553h1M27 553h1M817 553h1M820 553h1M24 554h1M27 554h1M817 554h1M820 554h1M24 555h1M27 555h1M817 555h1M820 555h1M24 556h1M27 556h1M817 556h1M820 556h1M24 557h1M27 557h1M817 557h1M820 557h1M24 558h1M27 558h1M817 558h1M820 558h1M24 559h1M27 559h1M817 559h1M820 559h1M24 560h1M27 560h1M817 560h1M820 560h1M24 561h1M27 561h1M817 561h1M820 561h1M24 562h1M27 562h1M817 562h1M820 562h1M24 563h1M27 563h1M817 563h1M820 563h1M24 564h1M27 564h1M817 564h1M820 564h1M24 565h1M27 565h2M816 565h2M820 565h1M24 566h1M28 566h2M815 566h2M820 566h1M24 567h1M29 567h787M820 567h1M25 568h1M819 568h1M26 569h1M818 569h1M27 570h791" />
<path stroke="#044858" d="M27 506h791M26 507h1M818 507h1M25 508h1M27 508h2M816 508h2M819 508h1M25 509h1M27 509h1M817 509h1M819 509h1M25 510h1M819 510h1M25 511h1M819 511h1M25 512h1M819 512h1M25 513h1M819 513h1M25 514h1M819 514h1M25 515h1M819 515h1M25 516h1M819 516h1M25 517h1M819 517h1M25 518h1M819 518h1M25 519h1M819 519h1M25 520h1M819 520h1M25 521h1M819 521h1M25 522h1M819 522h1M25 523h1M819 523h1M25 524h1M819 524h1M25 525h1M819 525h1M25 526h1M819 526h1M25 527h1M819 527h1M25 528h1M819 528h1M25 529h1M819 529h1M25 530h1M819 530h1M25 531h1M819 531h1M25 532h1M819 532h1M25 533h1M819 533h1M25 534h1M819 534h1M25 535h1M819 535h1M25 536h1M819 536h1M25 537h1M819 537h1M25 538h1M819 538h1M25 539h1M819 539h1M25 540h1M819 540h1M25 541h1M819 541h1M25 542h1M819 542h1M25 543h1M819 543h1M25 544h1M819 544h1M25 545h1M819 545h1M25 546h1M819 546h1M25 547h1M819 547h1M25 548h1M819 548h1M25 549h1M819 549h1M25 550h1M819 550h1M25 551h1M819 551h1M25 552h1M819 552h1M25 553h1M819 553h1M25 554h1M819 554h1M25 555h1M819 555h1M25 556h1M819 556h1M25 557h1M819 557h1M25 558h1M819 558h1M25 559h1M819 559h1M25 560h1M819 560h1M25 561h1M819 561h1M25 562h1M819 562h1M25 563h1M819 563h1M25 564h1M819 564h1M25 565h1M819 565h1M25 566h1M27 566h1M817 566h1M819 566h1M25 567h1M27 567h2M816 567h2M819 567h1M26 568h1M818 568h1M27 569h791" />
<path stroke="#7fc4cb" d="M27 507h791M26 508h1M818 508h1M26 509h1M818 509h1M26 510h1M818 510h1M26 511h1M818 511h1M26 512h1M818 512h1M26 513h1M818 513h1M26 514h1M818 514h1M26 515h1M818 515h1M26 516h1M818 516h1M26 517h1M818 517h1M26 518h1M818 518h1M26 519h1M818 519h1M26 520h1M818 520h1M26 521h1M818 521h1M26 522h1M818 522h1M26 523h1M818 523h1M26 524h1M818 524h1M26 525h1M818 525h1M26 526h1M818 526h1M26 527h1M818 527h1M26 528h1M818 528h1M26 529h1M818 529h1M26 530h1M818 530h1M26 531h1M818 531h1M26 532h1M818 532h1M26 533h1M818 533h1M26 534h1M818 534h1M26 535h1M818 535h1M26 536h1M818 536h1M26 537h1M818 537h1M26 538h1M818 538h1M26 539h1M818 539h1M26 540h1M818 540h1M26 541h1M818 541h1M26 542h1M818 542h1M26 543h1M818 543h1M26 544h1M818 544h1M26 545h1M818 545h1M26 546h1M818 546h1M26 547h1M818 547h1M26 548h1M818 548h1M26 549h1M818 549h1M26 550h1M818 550h1M26 551h1M818 551h1M26 552h1M818 552h1M26 553h1M818 553h1M26 554h1M818 554h1M26 555h1M818 555h1M26 556h1M818 556h1M26 557h1M818 557h1M26 558h1M818 558h1M26 559h1M818 559h1M26 560h1M818 560h1M26 561h1M818 561h1M26 562h1M818 562h1M26 563h1M818 563h1M26 564h1M818 564h1M26 565h1M818 565h1M26 566h1M818 566h1M26 567h1M818 567h1M27 568h791" />
<path stroke="rgba(175,228,232,0.7019607843137254)" d="M30 509h785M29 510h787M28 511h789M28 512h789M28 513h789M28 514h789M28 515h789M28 516h789M28 517h19M57 517h153M218 517h249M470 517h3M475 517h61M548 517h269M28 518h18M57 518h153M218 518h249M470 518h2M476 518h60M548 518h269M28 519h19M59 519h149M218 519h249M475 519h61M548 519h269M28 520h20M51 520h5M59 520h149M211 520h258M474 520h63M541 520h2M546 520h271M28 521h20M51 521h5M59 521h149M211 521h258M473 521h64M541 521h2M546 521h271M28 522h20M51 522h5M59 522h149M211 522h326M541 522h2M546 522h271M28 523h20M51 523h5M59 523h2M66 523h7M79 523h1M90 523h1M98 523h1M103 523h1M115 523h2M122 523h3M135 523h1M143 523h2M152 523h1M158 523h2M167 523h5M178 523h1M189 523h1M197 523h1M202 523h6M216 523h5M227 523h3M240 523h1M248 523h3M257 523h1M261 523h1M267 523h3M274 523h24M305 523h1M310 523h3M319 523h8M333 523h3M346 523h3M356 523h7M370 523h1M375 523h3M383 523h7M395 523h1M400 523h3M410 523h3M421 523h5M432 523h3M442 523h1M445 523h2M451 523h1M458 523h1M464 523h1M472 523h1M477 523h6M489 523h1M497 523h1M502 523h3M510 523h4M519 523h1M525 523h12M541 523h2M546 523h5M555 523h5M570 523h1M578 523h3M587 523h1M591 523h1M597 523h2M604 523h7M622 523h1M627 523h1M635 523h1M642 523h1M648 523h1M655 523h1M659 523h1M665 523h3M672 523h8M686 523h1M692 523h3M699 523h8M713 523h1M719 523h1M730 523h1M741 523h1M749 523h1M754 523h63M28 524h20M51 524h5M59 524h2M66 524h6M79 524h1M90 524h1M115 524h2M122 524h3M135 524h1M143 524h2M152 524h1M158 524h2M167 524h4M178 524h1M189 524h1M203 524h5M216 524h5M228 524h2M248 524h2M257 524h1M261 524h1M267 524h2M274 524h24M311 524h2M320 524h7M334 524h2M347 524h2M356 524h7M376 524h2M383 524h7M395 524h1M401 524h2M410 524h2M421 524h5M432 524h3M451 524h1M464 524h1M478 524h4M489 524h1M503 524h2M510 524h4M519 524h1M525 524h12M541 524h2M546 524h5M556 524h4M578 524h2M587 524h1M591 524h1M597 524h2M604 524h7M627 524h1M642 524h1M655 524h1M659 524h1M665 524h2M672 524h7M686 524h1M692 524h2M699 524h7M713 524h1M730 524h1M741 524h1M755 524h62M28 525h20M59 525h2M68 525h3M79 525h1M90 525h1M103 525h1M124 525h1M135 525h1M143 525h2M152 525h1M169 525h1M178 525h1M189 525h1M202 525h6M218 525h1M229 525h1M240 525h1M248 525h3M257 525h1M261 525h1M267 525h1M276 525h22M310 525h1M321 525h6M335 525h1M358 525h5M375 525h1M385 525h5M395 525h1M400 525h1M412 525h1M423 525h1M434 525h1M451 525h1M464 525h1M477 525h6M489 525h1M502 525h3M511 525h3M519 525h1M525 525h12M541 525h2M546 525h5M557 525h3M570 525h1M578 525h3M587 525h1M591 525h1M606 525h5M622 525h1M627 525h1M635 525h1M642 525h1M648 525h1M655 525h1M659 525h1M665 525h1M674 525h6M686 525h1M692 525h1M701 525h6M719 525h1M730 525h1M741 525h1M754 525h26M785 525h11M801 525h16M28 526h20M57 526h8M68 526h2M74 526h2M79 526h1M90 526h3M96 526h1M102 526h2M107 526h1M111 526h1M118 526h3M124 526h3M133 526h5M141 526h6M150 526h3M156 526h2M161 526h5M173 526h2M178 526h1M189 526h3M195 526h1M201 526h7M211 526h4M218 526h1M222 526h4M230 526h2M235 526h1M239 526h4M246 526h6M255 526h3M261 526h1M265 526h2M271 526h2M276 526h24M303 526h2M309 526h2M314 526h4M322 526h10M335 526h1M339 526h1M350 526h5M358 526h7M368 526h2M374 526h2M379 526h3M385 526h7M395 526h1M399 526h2M404 526h5M412 526h2M417 526h3M423 526h1M427 526h4M434 526h3M440 526h2M449 526h5M462 526h5M470 526h1M476 526h10M489 526h3M495 526h2M501 526h8M512 526h4M519 526h1M523 526h14M541 526h2M546 526h8M557 526h5M565 526h1M569 526h4M576 526h6M585 526h3M591 526h1M595 526h2M600 526h3M606 526h7M616 526h1M620 526h4M627 526h3M633 526h4M640 526h3M646 526h4M653 526h3M659 526h1M663 526h2M669 526h2M674 526h7M684 526h3M690 526h2M696 526h2M701 526h7M711 526h1M717 526h4M724 526h1M728 526h3M741 526h3M747 526h1M753 526h27M785 526h11M801 526h16M28 527h20M57 527h4M68 527h2M74 527h2M79 527h1M90 527h3M102 527h2M107 527h1M111 527h1M124 527h3M133 527h5M144 527h3M156 527h2M161 527h5M173 527h2M178 527h1M189 527h3M201 527h7M211 527h4M218 527h1M222 527h4M230 527h2M235 527h1M239 527h4M250 527h2M255 527h3M261 527h1M265 527h2M276 527h10M293 527h7M309 527h2M314 527h4M322 527h7M335 527h1M339 527h1M343 527h1M346 527h1M350 527h5M358 527h7M374 527h2M385 527h7M398 527h3M404 527h5M412 527h2M417 527h3M423 527h1M427 527h4M434 527h3M440 527h2M449 527h5M462 527h5M476 527h9M489 527h3M501 527h4M512 527h4M523 527h14M541 527h2M546 527h5M557 527h5M565 527h1M569 527h4M579 527h3M585 527h3M591 527h1M595 527h2M606 527h7M616 527h1M620 527h4M627 527h1M633 527h4M646 527h4M653 527h3M659 527h1M663 527h2M674 527h7M690 527h2M701 527h7M717 527h4M724 527h1M728 527h3M741 527h3M753 527h25M787 527h7M801 527h16M28 528h20M51 528h10M68 528h2M74 528h9M87 528h6M102 528h6M111 528h4M124 528h3M133 528h5M145 528h2M156 528h2M161 528h5M173 528h9M186 528h6M201 528h7M211 528h4M218 528h1M222 528h4M230 528h2M235 528h1M239 528h4M250 528h2M255 528h3M261 528h1M265 528h2M276 528h10M293 528h7M309 528h2M314 528h4M322 528h7M335 528h5M343 528h4M350 528h5M358 528h7M374 528h2M385 528h9M397 528h4M404 528h5M412 528h2M417 528h3M423 528h1M427 528h4M434 528h3M440 528h2M449 528h5M462 528h5M476 528h8M487 528h5M501 528h4M512 528h4M521 528h16M541 528h2M546 528h5M557 528h5M565 528h1M569 528h4M580 528h2M585 528h3M591 528h1M595 528h2M606 528h7M616 528h1M620 528h4M627 528h1M631 528h6M646 528h4M653 528h3M659 528h1M663 528h2M674 528h7M690 528h2M701 528h7M713 528h1M717 528h4M724 528h1M728 528h6M738 528h6M753 528h25M787 528h7M801 528h16M28 529h20M51 529h8M68 529h2M74 529h9M87 529h6M102 529h6M111 529h4M124 529h3M133 529h5M145 529h2M156 529h2M161 529h5M173 529h9M186 529h6M201 529h7M211 529h4M218 529h1M222 529h4M230 529h2M235 529h1M239 529h4M250 529h2M255 529h3M261 529h1M265 529h2M276 529h10M293 529h7M309 529h2M314 529h4M322 529h7M335 529h5M343 529h4M350 529h5M358 529h7M374 529h2M385 529h7M398 529h3M404 529h5M412 529h2M417 529h3M423 529h1M427 529h4M434 529h3M440 529h2M449 529h5M458 529h1M462 529h5M476 529h9M489 529h3M501 529h2M512 529h4M523 529h13M540 529h3M546 529h3M557 529h5M565 529h1M569 529h4M580 529h2M585 529h3M591 529h1M595 529h2M606 529h7M616 529h1M620 529h5M631 529h7M646 529h4M653 529h3M659 529h1M663 529h2M674 529h7M690 529h2M701 529h7M713 529h1M717 529h3M724 529h1M728 529h6M738 529h6M753 529h25M789 529h3M801 529h16M28 530h19M52 530h7M69 530h1M78 530h5M87 530h5M97 530h1M103 530h4M112 530h3M123 530h3M134 530h3M145 530h1M151 530h2M157 530h1M177 530h5M186 530h5M196 530h1M202 530h6M218 530h1M230 530h1M235 530h1M240 530h2M250 530h1M266 530h1M275 530h24M304 530h1M310 530h1M322 530h6M335 530h4M344 530h3M358 530h6M369 530h1M375 530h1M384 530h7M395 530h1M400 530h1M412 530h2M423 530h1M434 530h2M450 530h3M458 530h1M463 530h3M471 530h1M477 530h6M489 530h2M496 530h1M502 530h1M513 530h2M524 530h2M528 530h7M547 530h2M558 530h3M565 530h1M570 530h2M580 530h1M596 530h1M605 530h7M616 530h1M621 530h5M631 530h11M647 530h2M664 530h1M673 530h7M685 530h2M691 530h1M700 530h7M712 530h2M718 530h1M729 530h5M738 530h5M748 530h1M754 530h2M757 530h21M789 530h3M801 530h16M28 531h18M53 531h7M70 531h1M79 531h3M88 531h3M104 531h2M113 531h3M124 531h1M129 531h1M135 531h1M152 531h1M158 531h1M168 531h2M178 531h3M187 531h3M203 531h6M217 531h3M229 531h1M234 531h2M267 531h1M276 531h22M311 531h1M321 531h6M334 531h4M345 531h3M357 531h6M376 531h1M385 531h5M395 531h1M401 531h1M411 531h3M422 531h3M433 531h2M451 531h1M464 531h1M478 531h4M489 531h1M503 531h1M529 531h5M548 531h2M559 531h1M564 531h2M597 531h1M606 531h5M615 531h2M622 531h4M630 531h11M665 531h1M674 531h5M686 531h1M692 531h1M701 531h5M713 531h1M730 531h3M739 531h3M758 531h20M801 531h16M28 532h18M53 532h8M70 532h2M79 532h3M88 532h3M104 532h2M113 532h4M124 532h1M128 532h2M135 532h1M152 532h1M158 532h2M167 532h4M178 532h3M187 532h3M203 532h7M216 532h5M228 532h2M233 532h3M267 532h2M276 532h22M311 532h2M320 532h7M334 532h4M345 532h4M356 532h7M376 532h2M385 532h5M395 532h1M401 532h2M410 532h4M421 532h5M432 532h3M451 532h1M464 532h1M478 532h4M489 532h1M503 532h2M521 532h1M529 532h5M548 532h3M559 532h1M563 532h3M597 532h2M606 532h5M614 532h3M622 532h4M629 532h12M665 532h2M674 532h5M686 532h1M692 532h2M701 532h5M713 532h1M730 532h3M739 532h3M758 532h22M799 532h18M28 533h19M52 533h10M69 533h4M78 533h5M87 533h5M97 533h2M103 533h4M112 533h6M123 533h3M127 533h4M134 533h3M144 533h2M151 533h3M157 533h4M166 533h6M177 533h5M186 533h5M196 533h2M202 533h9M215 533h7M227 533h4M232 533h5M240 533h2M249 533h2M266 533h4M275 533h24M304 533h2M310 533h4M319 533h9M333 533h6M344 533h6M355 533h9M369 533h2M375 533h4M384 533h7M394 533h3M400 533h4M409 533h5M420 533h7M431 533h5M450 533h3M458 533h2M463 533h3M471 533h2M477 533h6M488 533h3M496 533h2M502 533h4M513 533h2M520 533h3M524 533h2M528 533h6M548 533h4M558 533h3M562 533h5M570 533h2M579 533h2M596 533h4M605 533h7M613 533h5M621 533h5M629 533h13M647 533h2M664 533h4M673 533h7M685 533h3M691 533h4M700 533h7M712 533h3M718 533h1M730 533h4M738 533h5M748 533h2M754 533h2M757 533h23M799 533h18M28 534h385M418 534h116M537 534h8M548 534h75M629 534h90M723 534h4M730 534h52M797 534h20M28 535h384M419 535h115M537 535h8M548 535h74M628 535h92M722 535h6M729 535h53M797 535h20M28 536h385M419 536h115M537 536h8M548 536h75M627 536h157M795 536h22M28 537h756M795 537h22M28 538h756M795 538h22M28 539h754M797 539h20M28 540h19M57 540h163M225 540h7M242 540h540M797 540h20M28 541h18M57 541h163M225 541h7M243 541h537M799 541h18M28 542h19M59 542h159M227 542h5M244 542h536M789 542h3M799 542h18M28 543h20M51 543h5M59 543h159M221 543h3M227 543h7M237 543h4M245 543h533M789 543h3M801 543h16M28 544h20M51 544h5M59 544h159M221 544h3M227 544h7M237 544h4M245 544h533M787 544h7M801 544h16M28 545h20M51 545h5M59 545h165M227 545h7M237 545h4M245 545h533M787 545h7M801 545h16M28 546h20M59 546h1M66 546h1M72 546h1M83 546h1M91 546h1M96 546h1M107 546h3M115 546h7M129 546h3M142 546h1M149 546h1M155 546h5M167 546h1M173 546h1M182 546h3M189 546h3M202 546h1M210 546h1M217 546h5M227 546h7M244 546h6M256 546h1M262 546h3M270 546h4M281 546h1M284 546h2M290 546h3M298 546h7M311 546h3M325 546h3M334 546h3M347 546h5M361 546h1M368 546h1M374 546h1M385 546h6M399 546h1M406 546h1M414 546h1M423 546h5M433 546h6M446 546h1M457 546h3M464 546h7M475 546h3M488 546h6M502 546h1M510 546h1M517 546h1M525 546h1M528 546h2M534 546h3M542 546h7M557 546h3M565 546h6M578 546h5M590 546h1M596 546h2M603 546h9M622 546h1M632 546h3M639 546h8M655 546h3M664 546h3M677 546h3M687 546h3M698 546h1M705 546h1M713 546h65M785 546h11M801 546h16M28 547h20M57 547h2M66 547h1M72 547h1M83 547h1M108 547h2M115 547h7M129 547h2M142 547h1M155 547h5M167 547h1M182 547h3M190 547h2M210 547h1M218 547h4M225 547h9M243 547h7M262 547h3M270 547h4M290 547h3M298 547h7M312 547h2M325 547h2M334 547h2M347 547h5M361 547h1M374 547h1M385 547h5M399 547h1M414 547h1M423 547h5M433 547h6M457 547h2M464 547h7M476 547h2M489 547h5M502 547h1M517 547h1M534 547h3M542 547h7M557 547h3M565 547h6M578 547h5M590 547h1M596 547h2M603 547h9M632 547h3M640 547h6M655 547h3M664 547h3M678 547h2M687 547h2M698 547h1M713 547h65M785 547h11M801 547h16M28 548h20M59 548h1M72 548h1M83 548h1M96 548h1M117 548h5M130 548h1M142 548h1M155 548h5M167 548h1M173 548h1M182 548h1M191 548h1M210 548h1M217 548h3M225 548h9M244 548h6M256 548h1M262 548h3M271 548h3M290 548h1M299 548h6M313 548h1M325 548h1M347 548h5M361 548h1M374 548h1M385 548h6M399 548h1M406 548h1M414 548h1M425 548h3M434 548h3M457 548h3M466 548h3M477 548h1M489 548h5M502 548h1M510 548h1M517 548h1M534 548h1M543 548h6M557 548h3M567 548h2M578 548h5M590 548h1M596 548h2M605 548h7M622 548h1M632 548h1M641 548h6M655 548h1M666 548h1M677 548h1M689 548h1M698 548h1M705 548h1M713 548h104M28 549h20M51 549h5M59 549h2M64 549h1M70 549h5M81 549h5M89 549h1M95 549h2M100 549h1M111 549h3M117 549h11M138 549h1M142 549h3M153 549h9M165 549h3M171 549h4M178 549h1M182 549h1M186 549h2M191 549h1M195 549h1M203 549h2M208 549h5M216 549h4M223 549h11M237 549h4M245 549h7M255 549h2M260 549h9M272 549h4M279 549h2M288 549h3M294 549h3M300 549h10M313 549h1M317 549h1M321 549h1M329 549h4M343 549h1M347 549h7M357 549h1M361 549h3M372 549h5M383 549h9M395 549h1M399 549h3M405 549h4M412 549h5M420 549h2M425 549h7M435 549h2M440 549h3M453 549h1M457 549h6M466 549h3M472 549h2M477 549h1M481 549h1M489 549h7M502 549h3M508 549h4M516 549h4M523 549h2M532 549h3M538 549h3M544 549h7M557 549h7M567 549h2M572 549h3M578 549h7M588 549h3M594 549h8M605 549h9M617 549h1M621 549h4M628 549h1M632 549h1M636 549h2M641 549h7M651 549h1M655 549h1M659 549h4M666 549h3M672 549h1M676 549h2M681 549h5M689 549h2M694 549h1M698 549h3M704 549h4M711 549h106M28 550h20M51 550h5M59 550h2M70 550h5M81 550h5M95 550h2M100 550h1M104 550h1M107 550h1M117 550h7M131 550h1M134 550h1M138 550h1M142 550h3M153 550h9M165 550h3M171 550h4M182 550h1M191 550h1M195 550h1M199 550h1M202 550h3M212 550h1M216 550h4M223 550h11M237 550h4M245 550h7M260 550h5M272 550h4M279 550h2M288 550h3M300 550h7M313 550h1M317 550h1M321 550h1M329 550h4M336 550h1M339 550h1M343 550h1M347 550h7M361 550h3M372 550h5M383 550h9M399 550h3M408 550h1M412 550h5M420 550h2M425 550h3M435 550h2M440 550h3M446 550h1M449 550h1M453 550h1M457 550h3M466 550h3M477 550h1M481 550h1M485 550h1M488 550h8M502 550h3M511 550h1M516 550h4M523 550h2M532 550h3M544 550h7M557 550h3M567 550h2M572 550h3M578 550h7M594 550h4M605 550h9M617 550h1M621 550h4M632 550h1M641 550h7M651 550h1M655 550h1M659 550h4M666 550h3M672 550h1M676 550h2M681 550h5M689 550h2M698 550h3M707 550h1M711 550h106M28 551h20M51 551h5M59 551h2M66 551h1M70 551h5M81 551h5M95 551h6M104 551h4M117 551h7M131 551h4M138 551h7M153 551h9M165 551h3M171 551h4M180 551h3M191 551h5M199 551h6M212 551h1M216 551h4M223 551h11M237 551h4M245 551h7M260 551h5M272 551h4M279 551h2M288 551h3M300 551h7M313 551h5M321 551h4M329 551h4M336 551h4M343 551h11M359 551h5M372 551h5M383 551h9M397 551h5M408 551h1M412 551h5M420 551h2M425 551h3M435 551h2M440 551h10M453 551h6M466 551h3M477 551h5M485 551h11M501 551h4M516 551h4M523 551h2M532 551h3M544 551h7M556 551h4M567 551h2M572 551h13M594 551h4M605 551h9M617 551h1M621 551h4M630 551h3M641 551h7M651 551h5M659 551h4M666 551h3M672 551h1M676 551h2M681 551h5M689 551h2M696 551h5M707 551h1M711 551h106M28 552h20M51 552h5M59 552h2M66 552h1M70 552h3M77 552h1M81 552h5M95 552h6M104 552h4M117 552h7M131 552h4M138 552h7M149 552h1M153 552h9M165 552h3M171 552h4M182 552h1M191 552h5M199 552h6M212 552h1M216 552h4M223 552h11M237 552h4M245 552h7M260 552h3M272 552h4M279 552h2M288 552h3M299 552h8M313 552h5M321 552h4M329 552h4M336 552h4M343 552h11M361 552h3M368 552h1M372 552h3M379 552h1M383 552h9M399 552h3M408 552h1M412 552h5M420 552h2M425 552h1M435 552h2M440 552h10M453 552h5M466 552h3M477 552h5M485 552h11M502 552h3M516 552h4M523 552h2M532 552h3M543 552h8M557 552h1M567 552h2M572 552h13M594 552h2M605 552h7M617 552h1M621 552h4M632 552h1M641 552h7M651 552h5M659 552h4M666 552h3M672 552h1M676 552h2M681 552h5M689 552h2M698 552h3M707 552h1M711 552h106M28 553h19M59 553h1M65 553h2M71 553h2M82 553h3M90 553h1M96 553h4M105 553h3M116 553h7M131 553h3M139 553h5M149 553h1M154 553h7M172 553h2M182 553h1M190 553h5M200 553h4M217 553h4M222 553h11M245 553h11M261 553h2M273 553h2M289 553h2M299 553h7M313 553h4M322 553h3M336 553h3M344 553h9M361 553h2M368 553h1M373 553h2M384 553h7M399 553h2M413 553h4M425 553h1M436 553h1M445 553h4M454 553h3M467 553h2M476 553h5M486 553h9M502 553h2M516 553h3M533 553h2M543 553h7M557 553h1M568 553h1M577 553h7M589 553h2M595 553h1M606 553h6M622 553h2M632 553h1M640 553h7M652 553h4M666 553h2M672 553h1M677 553h1M689 553h1M698 553h2M712 553h3M716 553h101M28 554h18M58 554h1M66 554h1M72 554h1M83 554h1M97 554h2M106 554h3M117 554h5M130 554h3M140 554h3M155 554h5M182 554h2M191 554h3M201 554h2M218 554h2M223 554h9M244 554h11M262 554h2M290 554h2M300 554h5M312 554h4M323 554h3M335 554h3M345 554h7M361 554h1M374 554h1M385 554h5M399 554h1M414 554h3M424 554h3M437 554h1M446 554h2M455 554h3M468 554h2M477 554h3M487 554h7M502 554h1M517 554h1M534 554h2M544 554h5M557 554h2M569 554h1M578 554h5M590 554h1M596 554h1M607 554h5M632 554h2M641 554h5M653 554h4M665 554h2M671 554h2M678 554h1M688 554h1M698 554h1M713 554h1M717 554h100M28 555h18M57 555h2M66 555h1M72 555h1M83 555h1M97 555h2M106 555h4M117 555h5M129 555h4M140 555h3M155 555h5M182 555h3M191 555h3M201 555h2M218 555h2M223 555h9M243 555h12M262 555h3M290 555h3M300 555h5M312 555h4M323 555h4M334 555h4M345 555h7M361 555h1M374 555h1M385 555h5M399 555h1M414 555h3M423 555h5M437 555h2M446 555h2M455 555h4M468 555h3M477 555h3M487 555h7M502 555h1M517 555h1M534 555h3M544 555h5M557 555h3M569 555h2M578 555h5M590 555h1M596 555h2M607 555h5M632 555h3M641 555h5M653 555h5M664 555h3M670 555h3M678 555h2M687 555h2M698 555h1M713 555h1M717 555h100M28 556h19M56 556h4M65 556h3M71 556h2M83 556h2M90 556h2M96 556h4M105 556h6M116 556h7M128 556h6M139 556h5M149 556h2M154 556h7M173 556h1M181 556h5M190 556h5M200 556h4M217 556h4M222 556h11M242 556h14M261 556h5M273 556h2M290 556h4M299 556h7M311 556h6M322 556h6M333 556h6M344 556h9M360 556h3M368 556h2M373 556h2M385 556h6M398 556h3M413 556h4M422 556h7M436 556h4M445 556h4M454 556h6M467 556h5M476 556h5M486 556h9M501 556h3M516 556h3M533 556h5M543 556h7M556 556h5M568 556h4M577 556h7M589 556h3M595 556h4M606 556h6M623 556h1M631 556h5M640 556h7M652 556h7M663 556h5M669 556h5M677 556h4M686 556h4M697 556h3M712 556h3M716 556h101M28 557h45M76 557h4M83 557h87M173 557h114M290 557h85M378 557h4M385 557h31M421 557h191M615 557h4M623 557h194M28 558h46M75 558h6M82 558h89M172 558h116M289 558h87M377 558h6M384 558h31M422 558h191M614 558h6M622 558h195M28 559h387M421 559h396M28 560h789M28 561h789M28 562h789M28 563h789M28 564h789M29 565h787M30 566h785" />
<path stroke="rgba(119,175,179,0.8)" d="M47 517h9M211 517h6M468 517h1M473 517h2M537 517h10M469 518h1M57 519h1M209 519h1M470 519h3M210 520h1M543 520h1M210 521h1M543 521h1M210 522h1M543 522h1M65 523h1M78 523h1M91 523h1M121 523h1M136 523h1M151 523h1M177 523h1M190 523h1M221 523h1M230 523h1M247 523h1M258 523h1M260 523h1M262 523h1M298 523h1M313 523h1M336 523h1M363 523h1M382 523h1M390 523h1M420 523h1M435 523h1M465 523h1M490 523h1M505 523h1M518 523h1M520 523h1M543 523h1M560 523h1M571 523h1M588 523h1M590 523h1M592 523h1M603 523h1M634 523h1M643 523h1M647 523h1M656 523h1M658 523h1M660 523h1M687 523h1M691 523h1M714 523h1M718 523h1M729 523h1M742 523h1M61 524h1M97 524h1M104 524h1M114 524h1M117 524h1M142 524h1M145 524h1M157 524h1M160 524h1M166 524h1M196 524h1M241 524h1M266 524h1M304 524h1M349 524h1M355 524h1M369 524h1M378 524h1M394 524h1M403 524h1M409 524h1M441 524h1M459 524h1M471 524h1M496 524h1M509 524h1M514 524h1M524 524h1M543 524h1M577 524h1M596 524h1M599 524h1M611 524h1M621 524h1M628 524h1M664 524h1M748 524h1M58 525h1M91 525h1M104 525h1M114 525h1M136 525h1M151 525h1M190 525h1M219 525h1M230 525h1M247 525h1M275 525h1M298 525h1M311 525h1M363 525h1M390 525h1M394 525h1M422 525h1M435 525h1M465 525h1M490 525h1M505 525h1M543 525h1M560 525h1M571 525h1M634 525h1M647 525h1M673 525h1M691 525h1M700 525h1M718 525h1M729 525h1M742 525h1M67 526h1M76 526h1M82 526h1M87 526h1M95 526h1M104 526h1M114 526h2M123 526h1M140 526h1M147 526h1M155 526h1M158 526h1M168 526h1M175 526h1M181 526h1M186 526h1M194 526h1M210 526h1M215 526h1M234 526h1M243 526h1M264 526h1M273 526h1M302 526h1M342 526h1M347 526h1M357 526h1M367 526h1M376 526h1M384 526h1M394 526h1M401 526h1M411 526h1M426 526h1M431 526h1M439 526h1M469 526h1M486 526h1M494 526h1M516 526h1M522 526h1M543 526h1M564 526h1M575 526h1M594 526h1M597 526h1M605 526h1M613 526h1M619 526h1M662 526h1M671 526h1M698 526h1M712 526h1M725 526h1M733 526h1M738 526h1M746 526h1M51 527h5M67 527h1M77 527h1M81 527h1M88 527h1M98 527h1M105 527h1M113 527h1M115 527h1M123 527h1M147 527h1M155 527h1M158 527h1M168 527h1M176 527h1M180 527h1M187 527h1M197 527h1M210 527h1M215 527h1M234 527h1M243 527h1M264 527h1M337 527h1M342 527h1M344 527h2M347 527h1M357 527h1M376 527h1M384 527h1M393 527h1M397 527h1M401 527h1M411 527h1M426 527h1M431 527h1M439 527h1M458 527h1M472 527h1M487 527h1M516 527h1M521 527h1M543 527h1M564 527h1M594 527h1M597 527h1M605 527h1M613 527h1M619 527h1M631 527h1M662 527h1M713 527h1M725 527h1M732 527h1M739 527h1M749 527h1M61 528h1M67 528h1M97 528h1M115 528h1M123 528h1M147 528h1M155 528h1M158 528h1M168 528h1M196 528h1M210 528h1M215 528h1M234 528h1M243 528h1M249 528h1M264 528h1M292 528h1M342 528h1M347 528h1M357 528h1M376 528h1M384 528h1M396 528h1M401 528h1M411 528h1M426 528h1M431 528h1M439 528h1M459 528h1M471 528h1M516 528h1M543 528h1M564 528h1M594 528h1M597 528h1M605 528h1M613 528h1M619 528h1M628 528h1M662 528h1M725 528h1M748 528h1M62 529h3M67 529h1M96 529h1M115 529h1M118 529h5M141 529h1M147 529h1M150 529h3M155 529h1M158 529h1M168 529h1M195 529h1M210 529h1M215 529h1M234 529h1M243 529h1M246 529h1M249 529h1M264 529h1M270 529h5M287 529h5M303 529h3M330 529h3M342 529h1M347 529h1M357 529h1M368 529h3M376 529h1M379 529h5M395 529h1M401 529h1M411 529h1M426 529h1M431 529h1M439 529h1M456 529h2M459 529h1M470 529h1M485 529h1M495 529h3M506 529h3M516 529h1M519 529h1M538 529h2M543 529h1M552 529h3M564 529h1M576 529h1M594 529h1M597 529h1M600 529h5M613 529h1M619 529h1M625 529h1M638 529h5M662 529h1M668 529h5M684 529h3M695 529h5M711 529h1M722 529h1M725 529h1M747 529h1M59 530h1M67 530h1M95 530h1M115 530h1M140 530h1M147 530h1M155 530h1M158 530h1M168 530h1M194 530h1M210 530h1M215 530h1M234 530h1M243 530h1M249 530h1M264 530h1M302 530h1M342 530h1M347 530h1M357 530h1M367 530h1M376 530h1M394 530h1M401 530h1M411 530h1M426 530h1M431 530h1M439 530h1M459 530h1M469 530h1M486 530h1M494 530h1M516 530h1M522 530h1M543 530h1M551 530h1M564 530h1M575 530h1M594 530h1M597 530h1M613 530h1M619 530h1M626 530h1M662 530h1M725 530h1M746 530h1M61 531h1M69 531h1M97 531h1M106 531h1M112 531h1M117 531h1M123 531h1M127 531h1M145 531h1M157 531h1M160 531h1M166 531h1M196 531h1M241 531h1M249 531h1M266 531h1M304 531h1M349 531h1M355 531h1M369 531h1M378 531h1M384 531h1M394 531h1M403 531h1M409 531h1M459 531h1M471 531h1M496 531h1M514 531h1M524 531h1M596 531h1M599 531h1M605 531h1M611 531h1M621 531h1M626 531h1M641 531h1M664 531h1M748 531h1M61 532h1M69 532h1M97 532h1M106 532h1M112 532h1M117 532h1M123 532h1M127 532h1M145 532h1M157 532h1M160 532h1M166 532h1M196 532h1M241 532h1M249 532h1M266 532h1M304 532h1M349 532h1M355 532h1M369 532h1M378 532h1M384 532h1M394 532h1M403 532h1M409 532h1M459 532h1M471 532h1M496 532h1M514 532h1M524 532h1M596 532h1M599 532h1M605 532h1M611 532h1M621 532h1M626 532h1M641 532h1M664 532h1M748 532h1M536 533h1M545 533h1M626 533h1M536 534h1M545 534h1M626 534h1M536 535h1M545 535h1M47 540h9M221 540h3M233 540h9M220 541h1M57 542h1M219 542h1M225 542h1M242 542h2M218 543h1M226 543h1M236 543h1M226 544h1M236 544h1M226 545h1M236 545h1M58 546h1M67 546h1M71 546h1M84 546h1M97 546h1M114 546h1M122 546h1M141 546h1M166 546h1M181 546h1M192 546h1M209 546h1M222 546h1M265 546h1M274 546h1M293 546h1M333 546h1M346 546h1M398 546h1M413 546h1M428 546h1M456 546h1M478 546h1M503 546h1M518 546h1M537 546h1M564 546h1M589 546h1M602 546h1M612 546h1M654 546h1M667 546h1M697 546h1M712 546h1M90 547h1M110 547h1M128 547h1M150 547h1M160 547h1M172 547h1M203 547h1M257 547h1M269 547h1M280 547h1M297 547h1M314 547h1M324 547h1M352 547h1M360 547h1M369 547h1M407 547h1M432 547h1M439 547h1M445 547h1M509 547h1M524 547h1M541 547h1M560 547h1M571 547h1M577 547h1M583 547h1M595 547h1M598 547h1M623 547h1M631 547h1M680 547h1M686 547h1M706 547h1M58 548h1M71 548h1M84 548h1M122 548h1M166 548h1M209 548h1M224 548h1M257 548h1M265 548h1M274 548h1M291 548h1M314 548h1M324 548h1M335 548h1M360 548h1M413 548h1M428 548h1M445 548h1M465 548h1M503 548h1M518 548h1M535 548h1M577 548h1M589 548h1M612 548h1M631 548h1M667 548h1M712 548h1M65 549h1M88 549h1M103 549h1M108 549h1M116 549h1M135 549h1M162 549h1M170 549h1M179 549h1M185 549h1M198 549h1M205 549h1M215 549h1M220 549h1M236 549h1M257 549h1M278 549h1M314 549h1M324 549h1M340 549h1M354 549h1M360 549h1M396 549h1M409 549h1M422 549h1M437 549h1M445 549h1M450 549h1M463 549h1M471 549h1M484 549h1M507 549h1M522 549h1M566 549h1M569 549h1M577 549h1M585 549h1M593 549h1M604 549h1M616 549h1M625 549h1M631 549h1M635 549h1M652 549h1M658 549h1M663 549h1M671 549h1M678 549h1M688 549h1M695 549h1M708 549h1M66 550h1M91 550h1M98 550h1M103 550h1M105 550h2M108 550h1M116 550h1M132 550h2M135 550h1M140 550h1M149 550h1M162 550h1M170 550h1M180 550h1M193 550h1M198 550h1M200 550h2M205 550h1M215 550h1M220 550h1M236 550h1M278 550h1M315 550h1M323 550h1M337 550h2M340 550h1M345 550h1M354 550h1M359 550h1M368 550h1M397 550h1M409 550h1M422 550h1M437 550h1M444 550h1M447 550h2M450 550h1M455 550h1M479 550h1M484 550h1M486 550h2M500 550h1M522 550h1M555 550h1M566 550h1M569 550h1M576 550h1M585 550h1M593 550h1M604 550h1M616 550h1M625 550h1M630 550h1M653 550h1M658 550h1M663 550h1M671 550h1M678 550h1M688 550h1M696 550h1M708 550h1M90 551h1M103 551h1M108 551h1M116 551h1M135 551h1M150 551h1M162 551h1M170 551h1M198 551h1M205 551h1M211 551h1M215 551h1M220 551h1M236 551h1M278 551h1M340 551h1M354 551h1M369 551h1M409 551h1M422 551h1M437 551h1M450 551h1M484 551h1M522 551h1M560 551h1M566 551h1M569 551h1M585 551h1M593 551h1M598 551h1M604 551h1M616 551h1M625 551h1M658 551h1M663 551h1M671 551h1M678 551h1M688 551h1M708 551h1M64 552h1M76 552h1M89 552h1M103 552h1M108 552h1M111 552h5M125 552h3M135 552h1M147 552h2M150 552h1M162 552h1M170 552h1M178 552h1M186 552h4M198 552h1M205 552h1M208 552h1M211 552h1M215 552h1M221 552h1M236 552h1M253 552h4M266 552h3M278 552h1M294 552h5M308 552h3M340 552h1M354 552h1M357 552h1M366 552h2M369 552h1M378 552h1M395 552h1M404 552h2M409 552h1M422 552h1M429 552h3M437 552h1M450 552h1M460 552h3M472 552h4M484 552h1M498 552h2M508 552h1M522 552h1M538 552h5M553 552h2M561 552h3M566 552h1M569 552h1M585 552h1M588 552h3M593 552h1M599 552h3M604 552h1M615 552h1M625 552h1M628 552h1M636 552h4M658 552h1M663 552h1M671 552h1M678 552h1M688 552h1M694 552h1M703 552h2M708 552h1M75 553h1M88 553h1M103 553h1M108 553h1M135 553h1M150 553h1M162 553h1M170 553h1M179 553h1M185 553h1M198 553h1M205 553h1M211 553h1M215 553h1M236 553h1M257 553h1M278 553h1M340 553h1M354 553h1M360 553h1M369 553h1M377 553h1M396 553h1M409 553h1M422 553h1M437 553h1M450 553h1M463 553h1M471 553h1M484 553h1M507 553h1M522 553h1M558 553h1M566 553h1M569 553h1M585 553h1M593 553h1M596 553h1M604 553h1M625 553h1M631 553h1M635 553h1M658 553h1M663 553h1M671 553h1M678 553h1M688 553h1M695 553h1M708 553h1M90 554h1M110 554h1M116 554h1M128 554h1M150 554h1M160 554h1M172 554h1M203 554h1M220 554h1M316 554h1M322 554h1M352 554h1M360 554h1M369 554h1M439 554h1M445 554h1M560 554h1M568 554h1M571 554h1M577 554h1M583 554h1M595 554h1M598 554h1M606 554h1M623 554h1M631 554h1M680 554h1M686 554h1M716 554h1M90 555h1M110 555h1M116 555h1M128 555h1M150 555h1M160 555h1M172 555h1M203 555h1M220 555h1M316 555h1M322 555h1M352 555h1M360 555h1M369 555h1M439 555h1M445 555h1M560 555h1M568 555h1M571 555h1M577 555h1M583 555h1M595 555h1M598 555h1M606 555h1M623 555h1M631 555h1M680 555h1M686 555h1M716 555h1M75 556h1M80 556h1M172 556h1M287 556h1M377 556h1M382 556h1M75 557h1M80 557h1M172 557h1M287 557h1M377 557h1M382 557h1" />
<path stroke="rgba(151,208,212,0.7411764705882353)" d="M56 517h1M467 517h1M547 517h1M58 519h1M61 523h1M97 523h1M104 523h1M114 523h1M117 523h1M142 523h1M145 523h1M157 523h1M160 523h1M166 523h1M196 523h1M241 523h1M266 523h1M304 523h1M349 523h1M355 523h1M369 523h1M378 523h1M394 523h1M403 523h1M409 523h1M441 523h1M459 523h1M471 523h1M496 523h1M509 523h1M514 523h1M524 523h1M577 523h1M596 523h1M599 523h1M611 523h1M621 523h1M628 523h1M664 523h1M748 523h1M61 525h1M67 525h1M115 525h1M123 525h1M142 525h1M145 525h1M157 525h2M168 525h1M241 525h1M266 525h1M304 525h1M347 525h1M357 525h1M369 525h1M376 525h1M384 525h1M401 525h1M411 525h1M441 525h1M496 525h1M514 525h1M524 525h1M577 525h1M596 525h2M605 525h1M611 525h1M621 525h1M628 525h1M664 525h1M56 527h1M78 527h1M177 527h1M336 527h1M338 527h1M392 527h1M632 527h1M275 529h1M286 529h1M673 529h1M700 529h1M56 540h1M224 540h1M232 540h1M58 542h1M218 544h1M90 546h1M110 546h1M128 546h1M150 546h1M160 546h1M172 546h1M203 546h1M226 546h1M257 546h1M269 546h1M280 546h1M297 546h1M314 546h1M324 546h1M352 546h1M360 546h1M369 546h1M407 546h1M432 546h1M439 546h1M445 546h1M509 546h1M524 546h1M541 546h1M560 546h1M571 546h1M577 546h1M583 546h1M595 546h1M598 546h1M623 546h1M631 546h1M680 546h1M686 546h1M706 546h1M108 548h1M116 548h1M160 548h1M172 548h1M203 548h1M220 548h1M280 548h1M352 548h1M407 548h1M437 548h1M509 548h1M524 548h1M560 548h1M566 548h1M569 548h1M583 548h1M595 548h1M598 548h1M604 548h1M623 548h1M678 548h1M688 548h1M706 548h1M97 550h1M99 550h1M139 550h1M141 550h1M181 550h1M192 550h1M194 550h1M344 550h1M346 550h1M398 550h1M443 550h1M454 550h1M456 550h1M478 550h1M480 550h1M575 550h1M654 550h1M697 550h1M124 552h1M222 552h1" />
<path stroke="rgba(131,187,190,0.7803921568627451)" d="M210 517h1M217 517h1M536 517h1M208 519h1M61 527h1M80 527h1M89 527h1M106 527h1M112 527h1M179 527h1M188 527h1M249 527h1M292 527h1M488 527h1M628 527h1M731 527h1M740 527h1M59 529h1M329 529h1M522 529h1M712 529h1M723 529h1M536 536h1M545 536h1M211 550h1M316 550h1M322 550h1M501 550h1M556 550h1M560 550h1M598 550h1M65 552h1M190 552h1M252 552h1M307 552h1M360 552h1M476 552h1M558 552h1M596 552h1M631 552h1M640 552h1" />
<path stroke="rgba(162,218,222,0.7215686274509804)" d="M469 517h1M46 518h1M472 518h1M475 518h1M48 520h1M473 520h1M537 520h1M540 520h1M48 521h1M537 521h1M540 521h1M48 522h1M537 522h1M540 522h1M48 523h1M537 523h1M540 523h1M48 524h1M72 524h1M98 524h1M103 524h1M171 524h1M197 524h1M202 524h1M227 524h1M240 524h1M250 524h1M269 524h1M305 524h1M310 524h1M319 524h1M333 524h1M346 524h1M370 524h1M375 524h1M400 524h1M412 524h1M442 524h1M445 524h2M458 524h1M472 524h1M477 524h1M482 524h1M497 524h1M502 524h1M537 524h1M540 524h1M555 524h1M570 524h1M580 524h1M622 524h1M635 524h1M648 524h1M667 524h1M679 524h1M694 524h1M706 524h1M719 524h1M749 524h1M754 524h1M48 525h1M305 525h1M346 525h1M370 525h1M442 525h1M445 525h2M497 525h1M537 525h1M540 525h1M48 526h1M70 526h1M73 526h1M83 526h1M86 526h1M101 526h1M129 526h2M169 526h1M172 526h1M182 526h1M185 526h1M200 526h1M226 526h1M229 526h1M238 526h1M252 526h1M267 526h1M270 526h1M305 526h1M308 526h1M318 526h1M321 526h1M332 526h1M343 526h1M346 526h1M370 526h1M373 526h1M398 526h1M414 526h1M442 526h1M445 526h2M456 526h2M475 526h1M497 526h1M500 526h1M511 526h1M537 526h1M540 526h1M554 526h1M568 526h1M582 526h1M624 526h1M637 526h1M650 526h1M665 526h1M668 526h1M681 526h1M692 526h1M695 526h1M708 526h1M721 526h1M734 526h1M737 526h1M752 526h1M48 527h1M70 527h1M73 527h1M76 527h1M82 527h2M86 527h2M101 527h1M104 527h1M114 527h1M129 527h2M169 527h1M172 527h1M175 527h1M181 527h2M185 527h2M200 527h1M226 527h1M229 527h1M238 527h1M252 527h1M267 527h1M308 527h1M318 527h1M321 527h1M373 527h1M414 527h1M442 527h1M445 527h2M475 527h1M500 527h1M511 527h1M522 527h1M537 527h1M540 527h1M568 527h1M582 527h1M624 527h1M637 527h1M650 527h1M665 527h1M681 527h1M692 527h1M708 527h1M721 527h1M733 527h2M737 527h2M752 527h1M48 528h1M70 528h1M73 528h1M83 528h1M86 528h1M98 528h1M101 528h1M129 528h2M144 528h1M169 528h1M172 528h1M182 528h1M185 528h1M197 528h1M200 528h1M226 528h1M229 528h1M238 528h1M252 528h1M267 528h1M308 528h1M318 528h1M321 528h1M373 528h1M414 528h1M442 528h1M445 528h2M458 528h1M472 528h1M475 528h1M484 528h1M500 528h1M511 528h1M537 528h1M540 528h1M568 528h1M579 528h1M582 528h1M624 528h1M637 528h1M650 528h1M665 528h1M681 528h1M692 528h1M708 528h1M721 528h1M734 528h1M737 528h1M749 528h1M752 528h1M48 529h1M70 529h1M73 529h1M83 529h1M86 529h1M97 529h2M101 529h1M123 529h1M129 529h2M144 529h1M169 529h1M172 529h1M182 529h1M185 529h1M196 529h2M200 529h1M226 529h1M229 529h1M238 529h1M252 529h1M267 529h1M292 529h1M308 529h1M318 529h1M321 529h1M373 529h1M384 529h1M414 529h1M442 529h1M445 529h2M471 529h2M475 529h1M500 529h1M511 529h1M568 529h1M579 529h1M582 529h1M605 529h1M650 529h1M665 529h1M681 529h1M692 529h1M708 529h1M734 529h1M737 529h1M748 529h2M752 529h1M47 530h2M51 530h1M62 530h3M68 530h1M70 530h1M73 530h5M83 530h1M86 530h1M92 530h1M96 530h1M98 530h1M101 530h2M107 530h1M111 530h1M118 530h5M126 530h1M129 530h2M133 530h1M137 530h1M141 530h1M144 530h1M146 530h1M150 530h1M156 530h1M161 530h5M169 530h1M172 530h5M182 530h1M185 530h1M191 530h1M195 530h1M197 530h1M200 530h2M211 530h4M222 530h5M229 530h1M231 530h1M238 530h2M242 530h1M246 530h1M251 530h2M255 530h3M261 530h1M265 530h1M267 530h1M270 530h5M299 530h1M303 530h1M305 530h1M308 530h2M314 530h5M321 530h1M328 530h5M339 530h1M343 530h1M350 530h5M364 530h1M368 530h1M370 530h1M373 530h2M379 530h5M391 530h1M398 530h2M404 530h5M414 530h1M417 530h3M427 530h4M436 530h1M440 530h3M445 530h2M449 530h1M453 530h1M456 530h2M462 530h1M466 530h1M470 530h1M472 530h1M475 530h2M483 530h3M491 530h1M495 530h1M497 530h1M500 530h2M506 530h3M511 530h2M515 530h1M519 530h1M523 530h1M526 530h2M535 530h1M538 530h5M546 530h1M552 530h3M557 530h1M561 530h1M568 530h2M572 530h1M576 530h1M579 530h1M581 530h2M585 530h3M591 530h1M595 530h1M600 530h5M612 530h1M620 530h1M642 530h1M646 530h1M649 530h2M653 530h3M659 530h1M663 530h1M665 530h1M668 530h5M680 530h2M684 530h1M690 530h1M692 530h1M695 530h5M707 530h2M711 530h1M717 530h1M719 530h1M722 530h3M728 530h1M734 530h1M737 530h1M743 530h1M747 530h1M749 530h1M752 530h2M756 530h1M46 531h1M60 531h1M71 531h2M98 531h1M103 531h1M116 531h1M128 531h1M130 531h1M144 531h1M159 531h1M167 531h1M170 531h2M197 531h1M202 531h1M209 531h1M216 531h1M220 531h1M227 531h2M233 531h1M240 531h1M250 531h1M268 531h2M305 531h1M310 531h1M312 531h1M319 531h2M333 531h1M344 531h1M348 531h1M356 531h1M370 531h1M375 531h1M377 531h1M400 531h1M402 531h1M410 531h1M414 531h1M421 531h1M425 531h1M432 531h1M458 531h1M472 531h1M477 531h1M482 531h1M497 531h1M502 531h1M504 531h1M513 531h1M521 531h1M525 531h1M528 531h1M550 531h1M563 531h1M570 531h1M579 531h2M598 531h1M614 531h1M629 531h1M648 531h1M666 531h2M679 531h1M693 531h2M706 531h1M719 531h1M749 531h1M754 531h1M46 532h1M72 532h1M98 532h1M103 532h1M130 532h1M144 532h1M171 532h1M197 532h1M202 532h1M227 532h1M240 532h1M250 532h1M269 532h1M305 532h1M310 532h1M319 532h1M333 532h1M344 532h1M370 532h1M375 532h1M400 532h1M414 532h1M458 532h1M472 532h1M477 532h1M482 532h1M497 532h1M502 532h1M513 532h1M525 532h1M528 532h1M570 532h1M579 532h2M648 532h1M667 532h1M679 532h1M694 532h1M706 532h1M719 532h1M749 532h1M754 532h1M47 533h5M62 533h7M73 533h5M83 533h4M92 533h5M99 533h4M107 533h5M118 533h5M126 533h1M131 533h3M137 533h7M146 533h5M154 533h3M161 533h5M172 533h5M182 533h4M191 533h5M198 533h4M211 533h4M222 533h5M231 533h1M237 533h3M242 533h7M251 533h15M270 533h5M299 533h5M306 533h4M314 533h5M328 533h5M339 533h5M350 533h5M364 533h5M371 533h4M379 533h5M391 533h3M397 533h3M404 533h5M414 533h1M417 533h3M427 533h4M436 533h14M453 533h5M460 533h3M466 533h5M473 533h4M483 533h5M491 533h5M498 533h4M506 533h7M515 533h5M523 533h1M526 533h2M537 533h8M552 533h6M561 533h1M567 533h3M572 533h7M581 533h15M600 533h5M612 533h1M618 533h3M642 533h5M649 533h15M668 533h5M680 533h5M688 533h3M695 533h5M707 533h5M715 533h3M719 533h1M722 533h5M734 533h4M743 533h5M750 533h4M756 533h1M413 534h2M417 534h1M623 534h3M719 534h1M722 534h1M412 535h1M622 535h1M627 535h1M720 535h2M728 535h1M220 540h1M46 541h1M242 541h1M218 542h1M226 542h1M48 543h1M241 543h1M244 543h1M48 544h1M241 544h1M244 544h1M48 545h1M241 545h1M244 545h1M48 546h1M48 547h1M59 547h1M91 547h1M96 547h1M107 547h1M131 547h1M149 547h1M173 547h1M189 547h1M202 547h1M217 547h1M242 547h1M256 547h1M281 547h1M284 547h2M311 547h1M327 547h1M336 547h1M368 547h1M390 547h1M406 547h1M446 547h1M459 547h1M475 547h1M488 547h1M510 547h1M525 547h1M528 547h2M622 547h1M639 547h1M646 547h1M677 547h1M689 547h1M705 547h1M48 548h1M107 548h1M131 548h1M202 548h1M281 548h1M284 548h2M336 548h1M446 548h1M488 548h1M525 548h1M528 548h2M48 549h1M61 549h1M77 549h2M94 549h1M104 549h1M107 549h1M130 549h2M134 549h1M147 549h2M175 549h1M188 549h1M199 549h1M202 549h1M241 549h1M244 549h1M254 549h1M271 549h1M281 549h1M284 549h2M299 549h1M310 549h1M325 549h1M328 549h1M336 549h1M339 549h1M366 549h2M379 549h2M392 549h1M404 549h1M419 549h1M434 549h1M446 549h1M449 549h1M474 549h1M485 549h1M488 549h1M498 549h2M512 549h1M515 549h1M525 549h1M528 549h2M543 549h1M553 549h2M620 549h1M638 549h1M648 549h1M675 549h1M691 549h1M703 549h1M48 550h1M61 550h1M77 550h2M94 550h1M130 550h1M175 550h1M241 550h1M244 550h1M271 550h1M281 550h1M284 550h2M299 550h1M314 550h1M324 550h2M328 550h1M360 550h1M379 550h2M392 550h1M419 550h1M434 550h1M445 550h1M512 550h1M515 550h1M525 550h1M528 550h2M543 550h1M577 550h1M620 550h1M631 550h1M648 550h1M652 550h1M675 550h1M691 550h1M48 551h1M61 551h1M77 551h2M91 551h1M94 551h1M130 551h1M149 551h1M175 551h1M241 551h1M244 551h1M271 551h1M281 551h1M284 551h2M299 551h1M325 551h1M328 551h1M368 551h1M379 551h2M392 551h1M419 551h1M434 551h1M459 551h1M500 551h1M511 551h2M515 551h1M525 551h1M528 551h2M543 551h1M555 551h1M620 551h1M648 551h1M675 551h1M691 551h1M48 552h1M61 552h1M78 552h1M90 552h2M94 552h1M116 552h1M130 552h1M175 552h1M220 552h1M241 552h1M244 552h1M271 552h1M281 552h1M284 552h2M325 552h1M328 552h1M380 552h1M392 552h1M419 552h1M434 552h1M511 552h2M515 552h1M525 552h1M528 552h2M616 552h1M620 552h1M648 552h1M675 552h1M691 552h1M47 553h2M51 553h5M60 553h2M64 553h1M70 553h1M76 553h3M81 553h1M85 553h1M89 553h1M91 553h1M94 553h2M100 553h1M104 553h1M111 553h5M123 553h5M130 553h1M134 553h1M138 553h1M144 553h1M147 553h2M153 553h1M161 553h1M165 553h3M171 553h1M174 553h2M178 553h1M186 553h4M195 553h1M199 553h1M204 553h1M208 553h1M212 553h1M216 553h1M221 553h1M233 553h1M237 553h5M244 553h1M256 553h1M260 553h1M266 553h3M271 553h2M275 553h1M279 553h3M284 553h2M288 553h1M294 553h5M306 553h5M317 553h1M321 553h1M325 553h1M328 553h5M339 553h1M343 553h1M353 553h1M357 553h1M363 553h1M366 553h2M372 553h1M378 553h3M383 553h1M391 553h2M395 553h1M401 553h1M404 553h2M408 553h1M412 553h1M419 553h3M429 553h3M434 553h2M440 553h5M449 553h1M453 553h1M457 553h1M460 553h3M466 553h1M472 553h4M481 553h1M485 553h1M495 553h1M498 553h2M504 553h1M508 553h1M511 553h2M515 553h1M519 553h1M523 553h3M528 553h2M532 553h1M538 553h5M550 553h1M553 553h2M561 553h3M567 553h1M572 553h5M584 553h1M588 553h1M594 553h1M599 553h3M605 553h1M615 553h3M620 553h2M624 553h1M628 553h1M636 553h4M647 553h2M651 553h1M659 553h4M668 553h1M675 553h2M681 553h5M690 553h2M694 553h1M700 553h1M703 553h2M707 553h1M711 553h1M715 553h1M46 554h1M57 554h1M59 554h1M91 554h1M96 554h1M105 554h1M109 554h1M129 554h1M133 554h1M149 554h1M173 554h1M184 554h1M200 554h1M217 554h1M242 554h2M255 554h1M264 554h1M273 554h1M292 554h1M299 554h1M311 554h1M326 554h2M334 554h1M338 554h1M368 554h1M390 554h1M423 554h1M427 554h1M436 554h1M438 554h1M448 554h1M458 554h2M470 554h1M486 554h1M536 554h1M543 554h1M559 554h1M570 554h1M597 554h1M622 554h1M634 554h1M646 554h1M657 554h1M664 554h1M670 554h1M677 554h1M679 554h1M687 554h1M689 554h1M46 555h1M59 555h1M91 555h1M96 555h1M105 555h1M133 555h1M149 555h1M173 555h1M200 555h1M217 555h1M242 555h1M255 555h1M273 555h1M299 555h1M311 555h1M327 555h1M338 555h1M368 555h1M390 555h1M436 555h1M448 555h1M459 555h1M486 555h1M543 555h1M622 555h1M646 555h1M677 555h1M689 555h1M47 556h9M60 556h5M68 556h3M76 556h4M85 556h5M92 556h4M100 556h5M111 556h5M123 556h5M134 556h5M144 556h5M151 556h3M161 556h9M174 556h7M186 556h4M195 556h5M204 556h13M221 556h1M233 556h9M256 556h5M266 556h7M275 556h12M294 556h5M306 556h5M317 556h5M328 556h5M339 556h5M353 556h7M363 556h5M370 556h3M378 556h4M391 556h7M401 556h12M419 556h3M429 556h7M440 556h5M449 556h5M460 556h7M472 556h4M481 556h5M495 556h6M504 556h12M519 556h14M538 556h5M550 556h6M561 556h7M572 556h5M584 556h5M592 556h3M599 556h7M615 556h5M622 556h1M624 556h7M636 556h4M647 556h5M659 556h4M668 556h1M674 556h3M681 556h5M690 556h7M700 556h12M715 556h1M416 557h1M419 557h2M619 557h1M622 557h1M74 558h1M81 558h1M171 558h1M288 558h1M376 558h1M383 558h1M421 558h1M613 558h1M620 558h2" />
<path stroke="#00383e" d="M47 518h9M211 518h6M468 518h1M473 518h2M537 518h10M49 519h1M538 519h2M544 519h1M49 520h1M57 520h1M209 520h1M470 520h3M538 520h2M544 520h1M49 521h1M57 521h1M209 521h1M538 521h2M544 521h1M49 522h1M57 522h1M209 522h1M538 522h2M544 522h1M49 523h1M57 523h1M209 523h1M538 523h2M544 523h1M49 524h1M57 524h1M62 524h3M73 524h5M81 524h8M92 524h5M99 524h4M105 524h9M118 524h3M126 524h8M137 524h5M146 524h5M154 524h3M161 524h5M172 524h5M180 524h8M191 524h5M198 524h4M209 524h6M222 524h5M231 524h9M242 524h5M251 524h5M259 524h1M263 524h3M270 524h3M299 524h5M306 524h4M314 524h5M328 524h5M337 524h9M350 524h5M364 524h5M371 524h4M379 524h3M391 524h3M397 524h3M404 524h5M413 524h7M427 524h4M436 524h5M443 524h2M447 524h3M453 524h5M460 524h3M466 524h5M473 524h4M483 524h5M491 524h5M498 524h4M506 524h3M515 524h3M521 524h3M538 524h2M544 524h1M552 524h3M561 524h9M572 524h5M581 524h5M589 524h1M593 524h3M600 524h3M612 524h9M623 524h3M629 524h5M636 524h5M644 524h3M649 524h5M657 524h1M661 524h3M668 524h3M680 524h5M688 524h3M695 524h3M707 524h5M715 524h3M720 524h9M732 524h8M743 524h5M750 524h4M49 525h1M77 525h1M81 525h1M84 525h2M88 525h1M94 525h1M99 525h2M105 525h1M109 525h1M113 525h1M128 525h1M131 525h1M139 525h1M148 525h1M154 525h1M176 525h1M180 525h1M183 525h2M187 525h1M193 525h1M198 525h2M209 525h1M233 525h1M237 525h1M244 525h1M253 525h1M259 525h1M263 525h1M301 525h1M306 525h2M337 525h1M341 525h1M344 525h2M366 525h1M371 525h2M393 525h1M397 525h1M415 525h1M438 525h1M443 525h2M447 525h1M455 525h1M460 525h1M468 525h1M473 525h2M487 525h1M493 525h1M498 525h2M517 525h1M521 525h1M538 525h2M544 525h1M563 525h1M567 525h1M574 525h1M583 525h1M589 525h1M593 525h1M614 525h1M618 525h1M625 525h1M631 525h1M638 525h1M644 525h1M651 525h1M657 525h1M661 525h1M682 525h1M688 525h1M709 525h1M715 525h1M722 525h1M726 525h1M732 525h1M735 525h2M739 525h1M745 525h1M750 525h2M49 526h7M66 526h1M71 526h2M77 526h1M81 526h1M84 526h2M88 526h1M94 526h1M98 526h3M105 526h1M109 526h1M113 526h1M116 526h1M122 526h1M128 526h1M131 526h1M139 526h1M148 526h1M154 526h1M159 526h1M167 526h1M170 526h2M176 526h1M180 526h1M183 526h2M187 526h1M193 526h1M197 526h3M209 526h1M216 526h1M220 526h1M227 526h2M233 526h1M237 526h1M244 526h1M253 526h1M259 526h1M263 526h1M268 526h2M274 526h1M301 526h1M306 526h2M312 526h1M319 526h2M333 526h1M337 526h1M341 526h1M344 526h2M348 526h1M356 526h1M366 526h1M371 526h2M377 526h1M383 526h1M393 526h1M397 526h1M402 526h1M410 526h1M415 526h1M421 526h1M425 526h1M432 526h1M438 526h1M443 526h2M447 526h1M455 526h1M458 526h3M468 526h1M472 526h3M487 526h1M493 526h1M498 526h2M510 526h1M517 526h1M521 526h1M538 526h2M544 526h1M555 526h1M563 526h1M567 526h1M574 526h1M583 526h1M589 526h1M593 526h1M598 526h1M604 526h1M614 526h1M618 526h1M625 526h1M631 526h1M638 526h1M644 526h1M651 526h1M657 526h1M661 526h1M666 526h2M672 526h1M682 526h1M688 526h1M693 526h2M699 526h1M709 526h1M713 526h3M722 526h1M726 526h1M732 526h1M735 526h2M739 526h1M745 526h1M749 526h3M49 527h1M66 527h1M71 527h2M84 527h2M94 527h1M99 527h2M109 527h1M116 527h1M122 527h1M128 527h1M131 527h1M139 527h1M148 527h1M154 527h1M159 527h1M167 527h1M170 527h2M183 527h2M193 527h1M198 527h2M209 527h1M216 527h1M220 527h1M227 527h2M233 527h1M237 527h1M244 527h1M253 527h1M259 527h1M263 527h1M268 527h2M274 527h1M301 527h1M306 527h2M312 527h1M319 527h2M333 527h1M341 527h1M348 527h1M356 527h1M366 527h1M371 527h2M377 527h1M383 527h1M402 527h1M410 527h1M415 527h1M421 527h1M425 527h1M432 527h1M438 527h1M443 527h2M447 527h1M455 527h1M460 527h1M468 527h1M473 527h2M493 527h1M498 527h2M510 527h1M517 527h1M538 527h2M544 527h1M555 527h1M563 527h1M567 527h1M574 527h1M583 527h1M589 527h1M593 527h1M598 527h1M604 527h1M614 527h1M618 527h1M625 527h1M638 527h1M644 527h1M651 527h1M657 527h1M661 527h1M666 527h2M672 527h1M682 527h1M688 527h1M693 527h2M699 527h1M709 527h1M715 527h1M722 527h1M726 527h1M735 527h2M745 527h1M750 527h2M49 528h1M62 528h5M71 528h2M84 528h2M94 528h3M99 528h2M109 528h1M116 528h7M128 528h1M131 528h1M139 528h5M148 528h7M159 528h1M167 528h1M170 528h2M183 528h2M193 528h3M198 528h2M209 528h1M216 528h1M220 528h1M227 528h2M233 528h1M237 528h1M244 528h5M253 528h1M259 528h1M263 528h1M268 528h7M287 528h5M301 528h7M312 528h1M319 528h2M330 528h4M341 528h1M348 528h1M356 528h1M366 528h7M377 528h7M395 528h1M402 528h1M410 528h1M415 528h1M421 528h1M425 528h1M432 528h1M438 528h1M443 528h2M447 528h1M455 528h3M460 528h1M468 528h3M473 528h2M485 528h1M493 528h7M506 528h5M517 528h3M538 528h2M544 528h1M552 528h4M563 528h1M567 528h1M574 528h5M583 528h1M589 528h1M593 528h1M598 528h7M614 528h1M618 528h1M625 528h1M629 528h1M638 528h7M651 528h1M657 528h1M661 528h1M666 528h7M682 528h7M693 528h7M709 528h3M715 528h1M722 528h1M726 528h1M735 528h2M745 528h3M750 528h2M49 529h1M66 529h1M71 529h2M84 529h2M94 529h1M99 529h2M109 529h1M116 529h1M128 529h1M131 529h1M139 529h1M143 529h1M148 529h1M154 529h1M159 529h1M167 529h1M170 529h2M183 529h2M193 529h1M198 529h2M209 529h1M216 529h1M220 529h1M227 529h2M233 529h1M237 529h1M244 529h1M248 529h1M253 529h1M259 529h1M263 529h1M268 529h2M301 529h1M306 529h2M312 529h1M319 529h2M333 529h1M341 529h1M348 529h1M356 529h1M366 529h1M371 529h2M377 529h1M402 529h1M410 529h1M415 529h1M421 529h1M425 529h1M432 529h1M438 529h1M443 529h2M447 529h1M455 529h1M460 529h1M468 529h1M473 529h2M493 529h1M498 529h2M510 529h1M517 529h1M544 529h1M555 529h1M563 529h1M567 529h1M574 529h1M578 529h1M583 529h1M589 529h1M593 529h1M598 529h1M614 529h1M618 529h1M629 529h1M644 529h1M651 529h1M657 529h1M661 529h1M666 529h2M682 529h1M688 529h1M693 529h2M709 529h1M715 529h1M726 529h1M735 529h2M745 529h1M750 529h2M49 530h1M60 530h1M66 530h1M71 530h2M84 530h2M94 530h1M99 530h2M109 530h1M116 530h1M128 530h1M131 530h1M139 530h1M143 530h1M148 530h1M154 530h1M159 530h1M167 530h1M170 530h2M183 530h2M193 530h1M198 530h2M209 530h1M216 530h1M220 530h1M227 530h2M233 530h1M237 530h1M244 530h1M248 530h1M253 530h1M259 530h1M263 530h1M268 530h2M301 530h1M306 530h2M312 530h1M319 530h2M333 530h1M341 530h1M348 530h1M356 530h1M366 530h1M371 530h2M377 530h1M393 530h1M397 530h1M402 530h1M410 530h1M415 530h1M421 530h1M425 530h1M432 530h1M438 530h1M443 530h2M447 530h1M455 530h1M460 530h1M468 530h1M473 530h2M487 530h1M493 530h1M498 530h2M504 530h1M510 530h1M517 530h1M521 530h1M537 530h1M544 530h1M550 530h1M555 530h1M563 530h1M567 530h1M574 530h1M578 530h1M583 530h1M589 530h1M593 530h1M598 530h1M614 530h1M618 530h1M627 530h3M644 530h1M651 530h1M657 530h1M661 530h1M666 530h2M682 530h1M688 530h1M693 530h2M709 530h1M715 530h1M720 530h2M726 530h1M735 530h2M745 530h1M750 530h2M47 531h5M62 531h7M73 531h5M83 531h4M92 531h5M99 531h4M107 531h5M118 531h5M126 531h1M131 531h3M137 531h7M146 531h5M154 531h3M161 531h5M172 531h5M182 531h4M191 531h5M198 531h4M211 531h4M222 531h5M231 531h1M237 531h3M242 531h7M251 531h15M270 531h5M299 531h5M306 531h4M314 531h5M328 531h5M339 531h5M350 531h5M364 531h5M371 531h4M379 531h5M391 531h3M397 531h3M404 531h5M415 531h5M427 531h4M436 531h14M453 531h5M460 531h3M466 531h5M473 531h4M483 531h5M491 531h5M498 531h4M506 531h7M515 531h5M523 531h1M526 531h2M535 531h12M552 531h6M561 531h1M567 531h3M572 531h7M581 531h15M600 531h5M612 531h1M618 531h3M627 531h1M642 531h5M649 531h15M668 531h5M680 531h5M688 531h3M695 531h5M707 531h5M715 531h3M720 531h9M734 531h4M743 531h5M750 531h4M756 531h1M47 532h5M62 532h7M73 532h5M83 532h4M92 532h5M99 532h4M107 532h5M118 532h5M126 532h1M131 532h3M137 532h7M146 532h5M154 532h3M161 532h5M172 532h5M182 532h4M191 532h5M198 532h4M211 532h4M222 532h5M231 532h1M237 532h3M242 532h7M251 532h15M270 532h5M299 532h5M306 532h4M314 532h5M328 532h5M339 532h5M350 532h5M364 532h5M371 532h4M379 532h5M391 532h3M397 532h3M404 532h5M415 532h5M427 532h4M436 532h14M453 532h5M460 532h3M466 532h5M473 532h4M483 532h5M491 532h5M498 532h4M506 532h7M515 532h5M523 532h1M526 532h2M535 532h12M552 532h6M561 532h1M567 532h3M572 532h7M581 532h15M600 532h5M612 532h1M618 532h3M627 532h1M642 532h5M649 532h15M668 532h5M680 532h5M688 532h3M695 532h5M707 532h5M715 532h3M720 532h9M734 532h4M743 532h5M750 532h4M756 532h1M415 533h1M535 533h1M546 533h1M627 533h1M720 533h2M728 533h1M415 534h1M535 534h1M546 534h1M627 534h1M720 534h2M728 534h1M413 535h5M535 535h1M546 535h1M623 535h3M47 541h9M221 541h3M233 541h9M49 542h1M235 542h1M49 543h1M57 543h1M219 543h1M225 543h1M235 543h1M242 543h2M49 544h1M57 544h1M225 544h1M235 544h1M242 544h2M49 545h1M57 545h1M225 545h1M235 545h1M242 545h2M49 546h1M235 546h1M49 547h7M60 547h5M68 547h3M74 547h8M85 547h5M92 547h4M98 547h9M111 547h3M123 547h5M132 547h9M144 547h5M151 547h3M161 547h5M169 547h3M174 547h7M186 547h3M193 547h9M204 547h5M212 547h5M223 547h1M235 547h7M251 547h5M258 547h3M266 547h3M275 547h5M282 547h2M286 547h3M294 547h3M306 547h5M315 547h9M328 547h5M337 547h9M353 547h7M363 547h5M370 547h3M376 547h8M391 547h7M401 547h5M408 547h5M416 547h6M429 547h3M440 547h5M447 547h9M460 547h3M472 547h3M479 547h9M495 547h6M504 547h5M511 547h5M519 547h5M526 547h2M530 547h3M538 547h3M550 547h6M561 547h3M572 547h5M584 547h5M592 547h3M599 547h3M613 547h9M624 547h7M636 547h3M647 547h7M659 547h4M668 547h9M681 547h5M690 547h7M700 547h5M707 547h5M49 548h1M62 548h1M68 548h1M76 548h1M79 548h1M87 548h1M92 548h2M98 548h1M102 548h1M105 548h2M132 548h2M136 548h1M140 548h1M146 548h1M151 548h1M163 548h1M169 548h1M176 548h1M180 548h1M193 548h1M197 548h1M200 548h2M206 548h1M214 548h1M235 548h1M253 548h1M258 548h1M277 548h1M282 548h2M286 548h1M315 548h1M319 548h1M323 548h1M337 548h2M341 548h1M345 548h1M355 548h1M359 548h1M365 548h1M370 548h1M378 548h1M381 548h1M393 548h1M397 548h1M403 548h1M410 548h1M418 548h1M444 548h1M447 548h2M451 548h1M455 548h1M479 548h1M483 548h1M486 548h2M497 548h1M500 548h1M506 548h1M513 548h2M521 548h1M526 548h2M530 548h1M552 548h1M555 548h1M576 548h1M586 548h1M592 548h1M615 548h1M619 548h1M626 548h1M630 548h1M649 548h1M653 548h1M670 548h1M674 548h1M692 548h1M696 548h1M702 548h1M709 548h1M49 549h1M57 549h1M62 549h1M66 549h3M76 549h1M79 549h1M87 549h1M91 549h3M98 549h1M102 549h1M105 549h2M109 549h1M115 549h1M129 549h1M132 549h2M136 549h1M140 549h1M146 549h1M149 549h3M163 549h1M169 549h1M176 549h1M180 549h1M184 549h1M189 549h1M193 549h1M197 549h1M200 549h2M206 549h1M214 549h1M221 549h1M235 549h1M242 549h2M253 549h1M258 549h1M270 549h1M277 549h1M282 549h2M286 549h1M292 549h1M298 549h1M311 549h1M315 549h1M319 549h1M323 549h1M326 549h2M334 549h1M337 549h2M341 549h1M345 549h1M355 549h1M359 549h1M365 549h1M368 549h3M378 549h1M381 549h1M393 549h1M397 549h1M403 549h1M410 549h1M418 549h1M423 549h1M433 549h1M438 549h1M444 549h1M447 549h2M451 549h1M455 549h1M464 549h1M470 549h1M475 549h1M479 549h1M483 549h1M486 549h2M497 549h1M500 549h1M506 549h1M513 549h2M521 549h1M526 549h2M530 549h1M536 549h1M542 549h1M552 549h1M555 549h1M565 549h1M570 549h1M576 549h1M586 549h1M592 549h1M603 549h1M615 549h1M619 549h1M626 549h1M630 549h1M634 549h1M639 549h1M649 549h1M653 549h1M657 549h1M664 549h1M670 549h1M674 549h1M679 549h1M687 549h1M692 549h1M696 549h1M702 549h1M709 549h1M49 550h1M57 550h1M62 550h1M68 550h1M76 550h1M79 550h1M87 550h1M92 550h2M102 550h1M109 550h1M115 550h1M129 550h1M136 550h1M146 550h1M151 550h1M163 550h1M169 550h1M176 550h1M184 550h1M189 550h1M197 550h1M206 550h1M214 550h1M221 550h1M235 550h1M242 550h2M253 550h1M258 550h1M270 550h1M277 550h1M282 550h2M286 550h1M292 550h1M298 550h1M311 550h1M319 550h1M326 550h2M334 550h1M341 550h1M355 550h1M365 550h1M370 550h1M378 550h1M381 550h1M393 550h1M403 550h1M410 550h1M418 550h1M423 550h1M433 550h1M438 550h1M451 550h1M464 550h1M470 550h1M475 550h1M483 550h1M497 550h1M506 550h1M513 550h2M521 550h1M526 550h2M530 550h1M536 550h1M542 550h1M552 550h1M565 550h1M570 550h1M586 550h1M592 550h1M603 550h1M615 550h1M619 550h1M626 550h1M634 550h1M639 550h1M649 550h1M657 550h1M664 550h1M670 550h1M674 550h1M679 550h1M687 550h1M692 550h1M702 550h1M709 550h1M49 551h1M57 551h1M62 551h3M68 551h1M76 551h1M79 551h1M87 551h3M92 551h2M102 551h1M109 551h7M125 551h5M136 551h1M146 551h3M151 551h1M163 551h1M169 551h1M176 551h3M184 551h6M197 551h1M206 551h5M214 551h1M221 551h1M235 551h1M242 551h2M253 551h6M266 551h5M277 551h1M282 551h2M286 551h1M292 551h7M308 551h4M319 551h1M326 551h2M334 551h1M341 551h1M355 551h3M365 551h3M370 551h1M378 551h1M381 551h1M393 551h3M403 551h4M410 551h1M418 551h1M423 551h1M429 551h5M438 551h1M451 551h1M460 551h5M470 551h6M483 551h1M497 551h3M506 551h5M513 551h2M521 551h1M526 551h2M530 551h1M536 551h7M552 551h3M561 551h5M570 551h1M586 551h7M599 551h5M615 551h1M619 551h1M626 551h3M634 551h6M649 551h1M657 551h1M664 551h1M670 551h1M674 551h1M679 551h1M687 551h1M692 551h3M702 551h4M709 551h1M49 552h1M57 552h1M62 552h1M68 552h1M79 552h1M87 552h1M92 552h2M102 552h1M109 552h1M129 552h1M136 552h1M146 552h1M151 552h1M163 552h1M169 552h1M176 552h1M184 552h1M197 552h1M206 552h1M210 552h1M214 552h1M235 552h1M242 552h2M258 552h1M270 552h1M277 552h1M282 552h2M286 552h1M292 552h1M311 552h1M319 552h1M326 552h2M334 552h1M341 552h1M355 552h1M365 552h1M370 552h1M381 552h1M393 552h1M403 552h1M406 552h1M410 552h1M418 552h1M423 552h1M433 552h1M438 552h1M451 552h1M464 552h1M470 552h1M483 552h1M497 552h1M506 552h1M510 552h1M513 552h2M521 552h1M526 552h2M530 552h1M536 552h1M552 552h1M565 552h1M570 552h1M586 552h1M592 552h1M603 552h1M619 552h1M626 552h1M634 552h1M649 552h1M657 552h1M664 552h1M670 552h1M674 552h1M679 552h1M687 552h1M692 552h1M702 552h1M705 552h1M709 552h1M49 553h1M57 553h1M62 553h1M68 553h1M74 553h1M79 553h1M87 553h1M92 553h2M102 553h1M109 553h1M129 553h1M136 553h1M146 553h1M151 553h1M163 553h1M169 553h1M176 553h1M180 553h1M184 553h1M197 553h1M206 553h1M210 553h1M214 553h1M235 553h1M242 553h2M258 553h1M264 553h1M270 553h1M277 553h1M282 553h2M286 553h1M292 553h1M311 553h1M319 553h1M326 553h2M334 553h1M341 553h1M355 553h1M359 553h1M365 553h1M370 553h1M376 553h1M381 553h1M393 553h1M397 553h1M403 553h1M406 553h1M410 553h1M418 553h1M423 553h1M427 553h1M433 553h1M438 553h1M451 553h1M458 553h2M464 553h1M470 553h1M483 553h1M497 553h1M500 553h1M506 553h1M510 553h1M513 553h2M521 553h1M526 553h2M530 553h1M536 553h1M552 553h1M555 553h1M559 553h1M565 553h1M570 553h1M586 553h1M592 553h1M597 553h1M603 553h1M613 553h1M619 553h1M626 553h1M630 553h1M634 553h1M649 553h1M657 553h1M664 553h1M670 553h1M674 553h1M679 553h1M687 553h1M692 553h1M696 553h1M702 553h1M705 553h1M709 553h1M47 554h9M60 554h5M68 554h3M74 554h8M85 554h5M92 554h4M100 554h5M111 554h5M123 554h5M134 554h5M144 554h5M151 554h3M161 554h11M174 554h7M186 554h4M195 554h5M204 554h13M221 554h1M233 554h9M256 554h5M266 554h7M275 554h14M294 554h5M306 554h5M317 554h5M328 554h5M339 554h5M353 554h7M363 554h5M370 554h3M376 554h8M391 554h7M401 554h12M418 554h4M429 554h7M440 554h5M449 554h5M460 554h7M472 554h4M481 554h5M495 554h6M504 554h12M519 554h14M538 554h5M550 554h6M561 554h7M572 554h5M584 554h5M592 554h3M599 554h7M613 554h9M624 554h7M636 554h4M647 554h5M659 554h4M668 554h1M674 554h3M681 554h5M690 554h7M700 554h12M715 554h1M47 555h9M60 555h5M68 555h3M74 555h8M85 555h5M92 555h4M100 555h5M111 555h5M123 555h5M134 555h5M144 555h5M151 555h3M161 555h11M174 555h7M186 555h4M195 555h5M204 555h13M221 555h1M233 555h9M256 555h5M266 555h7M275 555h14M294 555h5M306 555h5M317 555h5M328 555h5M339 555h5M353 555h7M363 555h5M370 555h3M376 555h8M391 555h7M401 555h12M418 555h4M429 555h7M440 555h5M449 555h5M460 555h7M472 555h4M481 555h5M495 555h6M504 555h12M519 555h14M538 555h5M550 555h6M561 555h7M572 555h5M584 555h5M592 555h3M599 555h7M613 555h9M624 555h7M636 555h4M647 555h5M659 555h4M668 555h1M674 555h3M681 555h5M690 555h7M700 555h12M715 555h1M74 556h1M81 556h1M171 556h1M288 556h1M376 556h1M383 556h1M418 556h1M613 556h1M620 556h2M74 557h1M81 557h1M171 557h1M288 557h1M376 557h1M383 557h1M418 557h1M613 557h1M620 557h2M416 558h5" />
<path stroke="rgba(86,141,147,0.8627450980392157)" d="M56 518h1M467 518h1M547 518h1M56 519h1M56 520h1M58 520h1M56 521h1M58 521h1M470 521h3M56 522h1M58 522h1M56 523h1M58 523h1M62 523h3M73 523h5M81 523h8M92 523h5M99 523h4M105 523h9M118 523h3M126 523h8M137 523h5M146 523h5M154 523h3M161 523h5M172 523h5M180 523h8M191 523h5M198 523h4M211 523h4M222 523h5M231 523h9M242 523h5M251 523h5M259 523h1M263 523h3M270 523h3M299 523h5M306 523h4M314 523h5M328 523h5M337 523h9M350 523h5M364 523h5M371 523h4M379 523h3M391 523h3M397 523h3M404 523h5M413 523h7M427 523h4M436 523h5M443 523h2M447 523h3M453 523h5M460 523h3M466 523h5M473 523h4M483 523h5M491 523h5M498 523h4M506 523h3M515 523h3M521 523h3M552 523h3M561 523h9M572 523h5M581 523h5M589 523h1M593 523h3M600 523h3M612 523h9M623 523h3M629 523h5M636 523h5M644 523h3M649 523h5M657 523h1M661 523h3M668 523h3M680 523h5M688 523h3M695 523h3M707 523h5M715 523h3M720 523h9M732 523h8M743 523h5M750 523h4M56 524h1M58 524h1M65 524h1M78 524h1M91 524h1M121 524h1M136 524h1M151 524h1M177 524h1M190 524h1M221 524h1M230 524h1M247 524h1M258 524h1M260 524h1M262 524h1M298 524h1M313 524h1M336 524h1M363 524h1M382 524h1M390 524h1M420 524h1M435 524h1M465 524h1M490 524h1M505 524h1M518 524h1M520 524h1M560 524h1M571 524h1M588 524h1M590 524h1M592 524h1M603 524h1M634 524h1M643 524h1M647 524h1M656 524h1M658 524h1M660 524h1M687 524h1M691 524h1M714 524h1M718 524h1M729 524h1M742 524h1M51 525h7M62 525h5M71 525h5M78 525h1M83 525h1M86 525h1M92 525h1M96 525h3M101 525h2M107 525h1M111 525h1M116 525h7M126 525h1M129 525h2M133 525h1M137 525h1M141 525h1M146 525h1M150 525h1M156 525h1M159 525h9M170 525h5M177 525h1M182 525h1M185 525h1M191 525h1M195 525h3M200 525h2M211 525h6M220 525h9M231 525h1M235 525h1M238 525h2M242 525h1M246 525h1M251 525h2M255 525h1M258 525h1M260 525h1M262 525h1M265 525h1M268 525h7M299 525h1M303 525h1M308 525h2M312 525h9M328 525h6M336 525h1M339 525h1M343 525h1M348 525h9M364 525h1M368 525h1M373 525h2M377 525h7M391 525h1M398 525h2M402 525h9M413 525h2M417 525h5M425 525h8M436 525h1M440 525h1M449 525h1M453 525h1M456 525h3M462 525h1M466 525h1M470 525h3M475 525h2M483 525h3M491 525h1M495 525h1M500 525h2M506 525h5M515 525h1M518 525h1M520 525h1M523 525h1M552 525h4M561 525h1M565 525h1M568 525h2M572 525h1M576 525h1M581 525h2M585 525h1M588 525h1M590 525h1M592 525h1M595 525h1M598 525h7M612 525h1M616 525h1M620 525h1M623 525h2M629 525h1M633 525h1M636 525h2M640 525h1M643 525h1M646 525h1M649 525h2M653 525h1M656 525h1M658 525h1M660 525h1M663 525h1M666 525h7M680 525h2M684 525h1M687 525h1M690 525h1M693 525h7M707 525h2M711 525h3M717 525h1M720 525h2M724 525h1M728 525h1M734 525h1M737 525h1M743 525h1M747 525h3M752 525h2M56 526h1M65 526h1M78 526h1M93 526h1M108 526h1M110 526h1M121 526h1M138 526h1M149 526h1M177 526h1M192 526h1M219 526h1M221 526h1M232 526h1M245 526h1M258 526h1M260 526h1M262 526h1M275 526h1M300 526h1M311 526h1M313 526h1M336 526h1M338 526h1M365 526h1M382 526h1M392 526h1M420 526h1M422 526h1M437 526h1M467 526h1M492 526h1M518 526h1M520 526h1M562 526h1M573 526h1M588 526h1M590 526h1M592 526h1M603 526h1M615 526h1M617 526h1M630 526h1M632 526h1M643 526h1M645 526h1M656 526h1M658 526h1M660 526h1M673 526h1M687 526h1M689 526h1M700 526h1M716 526h1M727 526h1M744 526h1M93 527h1M108 527h1M110 527h1M138 527h1M192 527h1M219 527h1M221 527h1M232 527h1M258 527h1M260 527h1M262 527h1M275 527h1M300 527h1M311 527h1M313 527h1M365 527h1M420 527h1M422 527h1M437 527h1M467 527h1M492 527h1M520 527h1M562 527h1M573 527h1M588 527h1M590 527h1M592 527h1M615 527h1M617 527h1M630 527h1M645 527h1M656 527h1M658 527h1M660 527h1M673 527h1M689 527h1M700 527h1M716 527h1M727 527h1M744 527h1M93 528h1M108 528h1M110 528h1M138 528h1M192 528h1M219 528h1M221 528h1M232 528h1M258 528h1M260 528h1M262 528h1M275 528h1M286 528h1M300 528h1M311 528h1M313 528h1M365 528h1M420 528h1M422 528h1M437 528h1M467 528h1M492 528h1M505 528h1M520 528h1M562 528h1M573 528h1M588 528h1M590 528h1M592 528h1M615 528h1M617 528h1M630 528h1M645 528h1M656 528h1M658 528h1M660 528h1M673 528h1M689 528h1M700 528h1M714 528h1M716 528h1M727 528h1M744 528h1M93 529h1M108 529h1M110 529h1M138 529h1M192 529h1M219 529h1M221 529h1M232 529h1M258 529h1M260 529h1M262 529h1M300 529h1M311 529h1M313 529h1M365 529h1M420 529h1M422 529h1M437 529h1M467 529h1M492 529h1M505 529h1M520 529h1M562 529h1M573 529h1M588 529h1M590 529h1M592 529h1M615 529h1M617 529h1M630 529h1M645 529h1M656 529h1M658 529h1M660 529h1M689 529h1M714 529h1M716 529h1M727 529h1M744 529h1M65 530h1M93 530h1M108 530h1M110 530h1M138 530h1M149 530h1M192 530h1M219 530h1M221 530h1M232 530h1M245 530h1M247 530h1M258 530h1M260 530h1M262 530h1M300 530h1M311 530h1M313 530h1M365 530h1M392 530h1M420 530h1M422 530h1M437 530h1M467 530h1M492 530h1M503 530h1M505 530h1M518 530h1M520 530h1M562 530h1M573 530h1M588 530h1M590 530h1M592 530h1M615 530h1M617 530h1M630 530h1M643 530h1M645 530h1M656 530h1M658 530h1M660 530h1M687 530h1M689 530h1M714 530h1M716 530h1M727 530h1M744 530h1M78 531h1M91 531h1M136 531h1M151 531h1M177 531h1M190 531h1M221 531h1M230 531h1M232 531h1M275 531h1M298 531h1M313 531h1M338 531h1M363 531h1M390 531h1M420 531h1M435 531h1M465 531h1M490 531h1M505 531h1M520 531h1M547 531h1M560 531h1M562 531h1M571 531h1M617 531h1M647 531h1M673 531h1M687 531h1M691 531h1M700 531h1M714 531h1M718 531h1M729 531h1M742 531h1M755 531h1M757 531h1M78 532h1M91 532h1M136 532h1M151 532h1M177 532h1M190 532h1M221 532h1M230 532h1M232 532h1M275 532h1M298 532h1M313 532h1M338 532h1M363 532h1M390 532h1M420 532h1M435 532h1M465 532h1M490 532h1M505 532h1M520 532h1M547 532h1M560 532h1M562 532h1M571 532h1M617 532h1M647 532h1M673 532h1M687 532h1M691 532h1M700 532h1M714 532h1M718 532h1M729 532h1M742 532h1M755 532h1M757 532h1M547 533h1M727 533h1M729 533h1M547 534h1M727 534h1M729 534h1M547 535h1M56 541h1M224 541h1M232 541h1M56 542h1M224 542h1M56 543h1M58 543h1M224 543h1M234 543h1M56 544h1M58 544h1M219 544h1M224 544h1M234 544h1M56 545h1M58 545h1M224 545h1M234 545h1M51 546h7M60 546h5M68 546h3M74 546h8M85 546h5M92 546h4M98 546h9M111 546h3M123 546h5M132 546h9M144 546h5M151 546h3M161 546h5M169 546h3M174 546h7M186 546h3M193 546h9M204 546h5M212 546h5M223 546h3M234 546h1M237 546h7M251 546h5M258 546h3M266 546h3M275 546h5M282 546h2M286 546h3M294 546h3M306 546h5M315 546h9M328 546h5M337 546h9M353 546h7M363 546h5M370 546h3M376 546h8M391 546h7M401 546h5M408 546h5M416 546h6M429 546h3M440 546h5M447 546h9M460 546h3M472 546h3M479 546h9M495 546h6M504 546h5M511 546h5M519 546h5M526 546h2M530 546h3M538 546h3M550 546h6M561 546h3M572 546h5M584 546h5M592 546h3M599 546h3M613 546h9M624 546h7M636 546h3M647 546h7M659 546h4M668 546h9M681 546h5M690 546h7M700 546h5M707 546h5M56 547h1M67 547h1M71 547h1M84 547h1M97 547h1M114 547h1M122 547h1M141 547h1M166 547h1M181 547h1M192 547h1M209 547h1M222 547h1M224 547h1M234 547h1M265 547h1M274 547h1M293 547h1M333 547h1M346 547h1M398 547h1M413 547h1M428 547h1M456 547h1M478 547h1M503 547h1M518 547h1M537 547h1M564 547h1M589 547h1M602 547h1M612 547h1M654 547h1M667 547h1M697 547h1M712 547h1M51 548h7M60 548h2M64 548h3M70 548h1M74 548h1M77 548h2M81 548h1M85 548h1M89 548h3M94 548h2M97 548h1M100 548h1M104 548h1M109 548h7M123 548h7M134 548h1M138 548h1M141 548h1M144 548h1M147 548h3M153 548h1M161 548h1M165 548h1M171 548h1M174 548h2M178 548h1M181 548h1M184 548h6M192 548h1M195 548h1M199 548h1M204 548h1M208 548h1M212 548h1M216 548h1M221 548h3M234 548h1M237 548h7M251 548h1M254 548h2M260 548h1M266 548h5M275 548h1M279 548h1M288 548h1M292 548h7M306 548h6M317 548h1M321 548h1M326 548h9M339 548h1M343 548h1M346 548h1M353 548h1M357 548h1M363 548h1M366 548h3M372 548h1M376 548h1M379 548h2M383 548h1M391 548h2M395 548h1M398 548h1M401 548h1M404 548h2M408 548h1M412 548h1M416 548h1M419 548h5M429 548h5M438 548h5M449 548h1M453 548h1M456 548h1M460 548h5M470 548h6M478 548h1M481 548h1M485 548h1M495 548h1M498 548h2M504 548h1M508 548h1M511 548h2M515 548h1M519 548h1M523 548h1M532 548h1M536 548h7M550 548h1M553 548h2M561 548h5M570 548h5M584 548h1M588 548h1M594 548h1M599 548h5M613 548h1M617 548h1M620 548h2M624 548h1M628 548h1M634 548h6M647 548h2M651 548h1M654 548h1M657 548h8M668 548h1M672 548h1M675 548h2M679 548h9M690 548h2M694 548h1M697 548h1M700 548h1M703 548h2M707 548h1M711 548h1M56 549h1M58 549h1M69 549h1M86 549h1M97 549h1M99 549h1M114 549h1M139 549h1M141 549h1M164 549h1M181 549h1M192 549h1M194 549h1M207 549h1M222 549h1M234 549h1M276 549h1M291 549h1M293 549h1M318 549h1M320 549h1M333 549h1M335 549h1M344 549h1M346 549h1M356 549h1M358 549h1M398 549h1M443 549h1M454 549h1M456 549h1M465 549h1M478 549h1M480 549h1M505 549h1M520 549h1M535 549h1M537 549h1M564 549h1M575 549h1M587 549h1M602 549h1M614 549h1M627 549h1M629 549h1M654 549h1M669 549h1M697 549h1M56 550h1M58 550h1M69 550h1M86 550h1M164 550h1M222 550h1M234 550h1M276 550h1M291 550h1M318 550h1M320 550h1M333 550h1M335 550h1M358 550h1M465 550h1M505 550h1M520 550h1M535 550h1M614 550h1M629 550h1M669 550h1M56 551h1M58 551h1M67 551h1M69 551h1M86 551h1M124 551h1M164 551h1M222 551h1M234 551h1M265 551h1M276 551h1M291 551h1M318 551h1M320 551h1M333 551h1M335 551h1M358 551h1M428 551h1M465 551h1M505 551h1M520 551h1M535 551h1M614 551h1M629 551h1M669 551h1M56 552h1M58 552h1M67 552h1M69 552h1M86 552h1M164 552h1M234 552h1M265 552h1M276 552h1M291 552h1M318 552h1M320 552h1M333 552h1M335 552h1M358 552h1M428 552h1M465 552h1M505 552h1M520 552h1M535 552h1M614 552h1M629 552h1M669 552h1M56 553h1M58 553h1M67 553h1M69 553h1M86 553h1M164 553h1M181 553h1M207 553h1M209 553h1M234 553h1M263 553h1M265 553h1M276 553h1M291 553h1M293 553h1M318 553h1M320 553h1M333 553h1M335 553h1M356 553h1M358 553h1M398 553h1M426 553h1M428 553h1M465 553h1M505 553h1M520 553h1M535 553h1M537 553h1M564 553h1M587 553h1M602 553h1M612 553h1M614 553h1M627 553h1M629 553h1M669 553h1M697 553h1M56 554h1M67 554h1M71 554h1M84 554h1M99 554h1M122 554h1M139 554h1M181 554h1M194 554h1M222 554h1M232 554h1M265 554h1M274 554h1M293 554h1M333 554h1M344 554h1M398 554h1M413 554h1M428 554h1M454 554h1M467 554h1M480 554h1M503 554h1M518 554h1M537 554h1M589 554h1M612 554h1M667 554h1M669 554h1M697 554h1M712 554h1M56 555h1M67 555h1M71 555h1M84 555h1M99 555h1M122 555h1M139 555h1M181 555h1M194 555h1M222 555h1M232 555h1M265 555h1M274 555h1M293 555h1M333 555h1M344 555h1M398 555h1M413 555h1M428 555h1M454 555h1M467 555h1M480 555h1M503 555h1M518 555h1M537 555h1M589 555h1M612 555h1M667 555h1M669 555h1M697 555h1M712 555h1M612 556h1M614 556h1M612 557h1M614 557h1" />
<path stroke="rgba(38,96,105,0.9411764705882353)" d="M210 518h1M217 518h1M536 518h1M47 519h2M51 519h5M211 519h6M468 519h1M473 519h2M537 519h1M540 519h4M546 519h1M50 520h1M208 520h1M469 520h1M545 520h1M50 521h1M208 521h1M545 521h1M50 522h1M208 522h1M545 522h1M50 523h1M208 523h1M545 523h1M50 524h1M80 524h1M89 524h1M125 524h1M134 524h1M153 524h1M179 524h1M188 524h1M208 524h1M215 524h1M256 524h1M273 524h1M327 524h1M396 524h1M426 524h1M431 524h1M450 524h1M452 524h1M463 524h1M488 524h1M545 524h1M551 524h1M586 524h1M626 524h1M641 524h1M654 524h1M671 524h1M685 524h1M698 524h1M712 524h1M731 524h1M740 524h1M80 525h1M89 525h1M153 525h1M179 525h1M188 525h1M208 525h1M396 525h1M488 525h1M545 525h1M626 525h1M731 525h1M740 525h1M80 526h1M89 526h1M97 526h1M106 526h1M112 526h1M117 526h1M127 526h1M132 526h1M153 526h1M160 526h1M166 526h1M179 526h1M188 526h1M196 526h1M208 526h1M217 526h1M236 526h1M254 526h1M334 526h1M340 526h1M349 526h1M355 526h1M378 526h1M396 526h1M403 526h1M409 526h1M416 526h1M424 526h1M433 526h1M448 526h1M454 526h1M461 526h1M471 526h1M488 526h1M509 526h1M545 526h1M556 526h1M566 526h1M584 526h1M599 526h1M626 526h1M639 526h1M652 526h1M683 526h1M710 526h1M723 526h1M731 526h1M740 526h1M748 526h1M50 527h1M62 527h3M95 527h2M118 527h3M127 527h1M132 527h1M140 527h4M150 527h3M160 527h1M166 527h1M194 527h2M208 527h1M217 527h1M236 527h1M246 527h3M254 527h1M270 527h4M287 527h5M302 527h4M330 527h3M334 527h1M340 527h1M349 527h1M355 527h1M367 527h4M379 527h3M395 527h1M403 527h1M409 527h1M416 527h1M424 527h1M433 527h1M448 527h1M454 527h1M456 527h2M461 527h1M469 527h2M485 527h1M494 527h4M506 527h3M519 527h1M545 527h1M552 527h3M556 527h1M566 527h1M575 527h4M584 527h1M600 527h3M626 527h1M629 527h1M640 527h3M652 527h1M668 527h4M684 527h3M695 527h4M711 527h1M723 527h1M746 527h2M50 528h1M127 528h1M132 528h1M160 528h1M166 528h1M208 528h1M217 528h1M236 528h1M254 528h1M329 528h1M334 528h1M340 528h1M349 528h1M355 528h1M394 528h1M403 528h1M409 528h1M416 528h1M424 528h1M433 528h1M448 528h1M454 528h1M461 528h1M486 528h1M545 528h1M551 528h1M556 528h1M566 528h1M584 528h1M626 528h1M652 528h1M712 528h1M723 528h1M50 529h1M60 529h1M117 529h1M127 529h1M132 529h1M142 529h1M153 529h1M160 529h1M166 529h1M208 529h1M217 529h1M236 529h1M254 529h1M334 529h1M340 529h1M349 529h1M355 529h1M378 529h1M393 529h1M397 529h1M403 529h1M409 529h1M416 529h1M424 529h1M433 529h1M448 529h1M454 529h1M461 529h1M487 529h1M504 529h1M509 529h1M521 529h1M537 529h1M545 529h1M550 529h1M556 529h1M566 529h1M577 529h1M584 529h1M599 529h1M627 529h2M652 529h1M683 529h1M710 529h1M720 529h2M50 530h1M61 530h1M117 530h1M127 530h1M132 530h1M142 530h1M153 530h1M160 530h1M166 530h1M208 530h1M217 530h1M236 530h1M254 530h1M334 530h1M340 530h1M349 530h1M355 530h1M378 530h1M396 530h1M403 530h1M409 530h1M416 530h1M424 530h1M433 530h1M448 530h1M454 530h1M461 530h1M488 530h1M509 530h1M536 530h1M545 530h1M549 530h1M556 530h1M566 530h1M577 530h1M584 530h1M599 530h1M652 530h1M683 530h1M710 530h1M52 531h1M82 531h1M87 531h1M125 531h1M134 531h1M153 531h1M181 531h1M186 531h1M210 531h1M215 531h1M236 531h1M327 531h1M396 531h1M426 531h1M431 531h1M450 531h1M452 531h1M463 531h1M488 531h1M522 531h1M534 531h1M551 531h1M558 531h1M566 531h1M613 531h1M628 531h1M685 531h1M712 531h1M733 531h1M738 531h1M52 532h1M82 532h1M87 532h1M125 532h1M134 532h1M153 532h1M181 532h1M186 532h1M210 532h1M215 532h1M236 532h1M327 532h1M396 532h1M426 532h1M431 532h1M450 532h1M452 532h1M463 532h1M488 532h1M522 532h1M534 532h1M551 532h1M558 532h1M566 532h1M613 532h1M628 532h1M685 532h1M712 532h1M733 532h1M738 532h1M416 533h1M534 533h1M628 533h1M416 534h1M534 534h1M628 534h1M418 535h1M534 535h1M626 535h1M413 536h5M535 536h1M546 536h1M623 536h3M47 542h2M51 542h5M221 542h3M233 542h1M236 542h6M50 543h1M220 543h1M50 544h1M50 545h1M65 547h1M73 547h1M82 547h1M143 547h1M154 547h1M168 547h1M185 547h1M211 547h1M250 547h1M261 547h1M289 547h1M305 547h1M362 547h1M373 547h1M375 547h1M384 547h1M400 547h1M415 547h1M422 547h1M463 547h1M471 547h1M494 547h1M501 547h1M516 547h1M533 547h1M549 547h1M556 547h1M591 547h1M635 547h1M658 547h1M663 547h1M699 547h1M168 548h1M501 548h1M556 548h1M591 548h1M50 549h1M63 549h1M75 549h1M80 549h1M90 549h1M101 549h1M110 549h1M128 549h1M137 549h1M145 549h1M152 549h1M168 549h1M177 549h1M183 549h1M190 549h1M196 549h1M213 549h1M252 549h1M259 549h1M269 549h1M287 549h1M297 549h1M312 549h1M316 549h1M322 549h1M342 549h1M364 549h1M371 549h1M377 549h1M382 549h1M394 549h1M402 549h1M411 549h1M417 549h1M424 549h1M432 549h1M439 549h1M452 549h1M469 549h1M476 549h1M482 549h1M496 549h1M501 549h1M531 549h1M541 549h1M551 549h1M556 549h1M571 549h1M591 549h1M618 549h1M633 549h1M640 549h1M650 549h1M656 549h1M665 549h1M673 549h1M680 549h1M686 549h1M693 549h1M701 549h1M710 549h1M50 550h1M64 550h1M75 550h1M80 550h1M88 550h2M101 550h1M111 550h3M125 550h3M137 550h1M145 550h1M147 550h2M152 550h1M168 550h1M178 550h1M183 550h1M185 550h4M190 550h1M196 550h1M208 550h3M213 550h1M252 550h1M254 550h4M259 550h1M266 550h3M287 550h1M294 550h3M308 550h3M312 550h1M342 550h1M357 550h1M364 550h1M366 550h2M371 550h1M377 550h1M382 550h1M395 550h1M402 550h1M404 550h3M411 550h1M417 550h1M424 550h1M429 550h3M439 550h1M452 550h1M460 550h4M469 550h1M471 550h4M476 550h1M482 550h1M496 550h1M498 550h2M507 550h4M531 550h1M538 550h3M551 550h1M553 550h2M561 550h3M571 550h1M588 550h3M599 550h3M618 550h1M628 550h1M633 550h1M635 550h4M640 550h1M650 550h1M656 550h1M665 550h1M673 550h1M680 550h1M686 550h1M694 550h1M701 550h1M703 550h3M710 550h1M50 551h1M65 551h1M75 551h1M80 551h1M101 551h1M137 551h1M145 551h1M152 551h1M168 551h1M179 551h1M183 551h1M190 551h1M196 551h1M213 551h1M252 551h1M259 551h1M287 551h1M307 551h1M312 551h1M342 551h1M364 551h1M371 551h1M377 551h1M382 551h1M396 551h1M402 551h1M407 551h1M411 551h1M417 551h1M424 551h1M439 551h1M452 551h1M469 551h1M476 551h1M482 551h1M496 551h1M531 551h1M551 551h1M571 551h1M618 551h1M633 551h1M640 551h1M650 551h1M656 551h1M665 551h1M673 551h1M680 551h1M686 551h1M695 551h1M701 551h1M706 551h1M710 551h1M50 552h1M63 552h1M74 552h1M80 552h1M101 552h1M110 552h1M128 552h1M137 552h1M145 552h1M152 552h1M168 552h1M177 552h1M180 552h1M183 552h1M196 552h1M213 552h1M259 552h1M264 552h1M269 552h1M287 552h1M312 552h1M342 552h1M359 552h1M364 552h1M371 552h1M376 552h1M382 552h1M394 552h1M397 552h1M402 552h1M407 552h1M411 552h1M417 552h1M424 552h1M427 552h1M432 552h1M439 552h1M452 552h1M458 552h2M469 552h1M482 552h1M496 552h1M500 552h1M509 552h1M531 552h1M551 552h1M555 552h1M559 552h1M571 552h1M591 552h1M597 552h1M613 552h1M618 552h1M630 552h1M633 552h1M650 552h1M656 552h1M665 552h1M673 552h1M680 552h1M686 552h1M693 552h1M696 552h1M701 552h1M706 552h1M710 552h1M50 553h1M63 553h1M73 553h1M80 553h1M101 553h1M110 553h1M128 553h1M137 553h1M145 553h1M152 553h1M168 553h1M177 553h1M183 553h1M196 553h1M213 553h1M259 553h1M269 553h1M287 553h1M312 553h1M342 553h1M364 553h1M371 553h1M375 553h1M382 553h1M394 553h1M402 553h1M407 553h1M411 553h1M417 553h1M424 553h1M432 553h1M439 553h1M452 553h1M469 553h1M482 553h1M496 553h1M501 553h1M509 553h1M531 553h1M551 553h1M556 553h1M560 553h1M571 553h1M591 553h1M598 553h1M618 553h1M633 553h1M650 553h1M656 553h1M665 553h1M673 553h1M680 553h1M686 553h1M693 553h1M701 553h1M706 553h1M710 553h1M65 554h1M73 554h1M82 554h1M143 554h1M154 554h1M185 554h1M190 554h1M261 554h1M289 554h1M305 554h1M362 554h1M373 554h1M375 554h1M384 554h1M400 554h1M417 554h1M422 554h1M471 554h1M476 554h1M494 554h1M501 554h1M516 554h1M533 554h1M549 554h1M556 554h1M591 554h1M635 554h1M640 554h1M652 554h1M658 554h1M663 554h1M673 554h1M699 554h1M714 554h1M65 555h1M73 555h1M82 555h1M143 555h1M154 555h1M185 555h1M190 555h1M261 555h1M289 555h1M305 555h1M362 555h1M373 555h1M375 555h1M384 555h1M400 555h1M417 555h1M422 555h1M471 555h1M476 555h1M494 555h1M501 555h1M516 555h1M533 555h1M549 555h1M556 555h1M591 555h1M635 555h1M640 555h1M652 555h1M658 555h1M663 555h1M673 555h1M699 555h1M714 555h1M73 556h1M82 556h1M170 556h1M289 556h1M375 556h1M384 556h1M417 556h1M73 557h1M82 557h1M170 557h1M289 557h1M375 557h1M384 557h1M417 557h1M415 558h1M416 559h5" />
<path stroke="rgba(179,169,185,0.5686274509803921)" d="M821 518h1M23 519h1M821 519h1M23 520h1M821 520h1M23 521h1M821 521h1M23 522h1M821 522h1M23 523h1M821 523h1M23 524h1M821 524h1M23 525h1M821 525h1M23 526h1M821 526h1M23 527h1M821 527h1M23 528h1M821 528h1M23 529h1M821 529h1M23 530h1M821 530h1M23 531h1M821 531h1M23 532h1M821 532h1M23 533h1M821 533h1M23 534h1M821 534h1M23 535h1M821 535h1M23 536h1M821 536h1M23 537h1M821 537h1M23 538h1M821 538h1M23 539h1M23 540h1M23 541h1M23 542h1M23 543h1M23 544h1M23 545h1M23 546h1M23 547h1M23 548h1" />
<path stroke="rgba(7,72,81,0.9803921568627451)" d="M50 519h1M545 519h1M117 527h1M153 527h1M378 527h1M509 527h1M599 527h1M639 527h1M683 527h1M710 527h1M50 542h1M63 550h1M110 550h1M128 550h1M177 550h1M269 550h1M297 550h1M394 550h1M432 550h1M541 550h1M591 550h1M693 550h1" />
<path stroke="rgba(65,118,128,0.9019607843137255)" d="M210 519h1M210 523h1M76 525h1M82 525h1M87 525h1M95 525h1M140 525h1M147 525h1M155 525h1M175 525h1M181 525h1M186 525h1M194 525h1M210 525h1M234 525h1M243 525h1M264 525h1M302 525h1M342 525h1M367 525h1M439 525h1M459 525h1M469 525h1M486 525h1M494 525h1M516 525h1M522 525h1M564 525h1M575 525h1M594 525h1M613 525h1M619 525h1M662 525h1M725 525h1M733 525h1M738 525h1M746 525h1M394 527h1M486 527h1M712 527h1M714 527h1M61 529h1M65 529h1M149 529h1M245 529h1M247 529h1M396 529h1M518 529h1M643 529h1M687 529h1M236 546h1M88 548h1M103 548h1M135 548h1M150 548h1M162 548h1M170 548h1M179 548h1M198 548h1M205 548h1M215 548h1M236 548h1M278 548h1M340 548h1M354 548h1M369 548h1M396 548h1M409 548h1M450 548h1M484 548h1M507 548h1M522 548h1M585 548h1M593 548h1M616 548h1M625 548h1M652 548h1M671 548h1M695 548h1M708 548h1M65 550h1M67 550h1M179 550h1M396 550h1M695 550h1M207 552h1M209 552h1M293 552h1M356 552h1M537 552h1M560 552h1M564 552h1M587 552h1M598 552h1M602 552h1M627 552h1" />
<path stroke="rgba(75,129,138,0.8823529411764706)" d="M217 519h1M536 519h1M329 527h1M551 527h1M488 529h1M536 529h1M549 529h1M418 536h1M534 536h1M626 536h1M307 550h1M407 550h1M706 550h1M73 552h1M375 552h1M501 552h1M556 552h1M415 559h1" />
<path stroke="rgba(97,153,158,0.8392156862745098)" d="M467 519h1M469 519h1M547 519h1M469 521h1M80 523h1M89 523h1M125 523h1M134 523h1M153 523h1M179 523h1M188 523h1M215 523h1M256 523h1M273 523h1M327 523h1M396 523h1M426 523h1M431 523h1M450 523h1M452 523h1M463 523h1M488 523h1M551 523h1M586 523h1M626 523h1M641 523h1M654 523h1M671 523h1M685 523h1M698 523h1M712 523h1M731 523h1M740 523h1M125 525h1M134 525h1M217 525h1M256 525h1M327 525h1M334 525h1M424 525h1M433 525h1M450 525h1M452 525h1M463 525h1M551 525h1M556 525h1M586 525h1M641 525h1M654 525h1M685 525h1M97 527h1M196 527h1M286 527h1M396 527h1M459 527h1M471 527h1M505 527h1M748 527h1M95 529h1M140 529h1M194 529h1M302 529h1M367 529h1M392 529h1M394 529h1M469 529h1M486 529h1M494 529h1M503 529h1M551 529h1M575 529h1M626 529h1M746 529h1M547 536h1M220 542h1M232 542h1M220 544h1M65 546h1M73 546h1M82 546h1M143 546h1M154 546h1M168 546h1M185 546h1M211 546h1M250 546h1M261 546h1M289 546h1M305 546h1M362 546h1M373 546h1M375 546h1M384 546h1M400 546h1M415 546h1M422 546h1M463 546h1M471 546h1M494 546h1M501 546h1M516 546h1M533 546h1M549 546h1M556 546h1M591 546h1M635 546h1M658 546h1M663 546h1M699 546h1M73 548h1M82 548h1M143 548h1M154 548h1M183 548h1M190 548h1M211 548h1M250 548h1M261 548h1M289 548h1M305 548h1M312 548h1M362 548h1M373 548h1M375 548h1M384 548h1M400 548h1M415 548h1M424 548h1M469 548h1M476 548h1M494 548h1M516 548h1M533 548h1M549 548h1M633 548h1M640 548h1M656 548h1M665 548h1M699 548h1M90 550h1M124 550h1M150 550h1M265 550h1M369 550h1M428 550h1M75 552h1M88 552h1M179 552h1M181 552h1M185 552h1M257 552h1M263 552h1M377 552h1M396 552h1M398 552h1M426 552h1M463 552h1M471 552h1M507 552h1M612 552h1M635 552h1M695 552h1M697 552h1" />
<path stroke="rgba(179,167,183,0.25098039215686274)" d="M822 520h1M822 521h1M822 522h1M822 523h1M22 524h1M822 524h1M22 525h1M822 525h1M22 526h1M822 526h1M22 527h1M822 527h1M22 528h1M822 528h1M22 529h1M822 529h1M22 530h1M822 530h1M22 531h1M822 531h1M22 532h1M822 532h1M22 533h1M822 533h1M22 534h1M822 534h1M22 535h1M822 535h1M22 536h1M822 536h1M22 537h1M822 537h1M22 538h1M822 538h1M22 539h1M822 539h1M22 540h1M822 540h1M22 541h1M822 541h1M22 542h1M822 542h1M22 543h1M822 543h1M22 544h1M822 544h1M22 545h1M822 545h1M22 546h1M822 546h1M22 547h1M822 547h1M22 548h1M822 548h1M22 549h1" />
<path stroke="rgba(24,83,93,0.9607843137254902)" d="M50 525h1M106 525h1M112 525h1M127 525h1M132 525h1M236 525h1M254 525h1M340 525h1M416 525h1M448 525h1M454 525h1M461 525h1M566 525h1M584 525h1M639 525h1M652 525h1M683 525h1M710 525h1M723 525h1M65 527h1M121 527h1M149 527h1M245 527h1M382 527h1M518 527h1M603 527h1M643 527h1M687 527h1M234 542h1M50 546h1M50 548h1M63 548h1M75 548h1M80 548h1M101 548h1M137 548h1M145 548h1M152 548h1M177 548h1M196 548h1M213 548h1M252 548h1M259 548h1M287 548h1M316 548h1M322 548h1M342 548h1M364 548h1M371 548h1M377 548h1M382 548h1M394 548h1M402 548h1M411 548h1M417 548h1M452 548h1M482 548h1M496 548h1M531 548h1M551 548h1M618 548h1M650 548h1M673 548h1M693 548h1M701 548h1M710 548h1M114 550h1M207 550h1M293 550h1M356 550h1M537 550h1M564 550h1M587 550h1M602 550h1M627 550h1" />
<path stroke="rgba(52,106,114,0.9215686274509803)" d="M93 525h1M108 525h1M110 525h1M138 525h1M149 525h1M192 525h1M232 525h1M245 525h1M300 525h1M338 525h1M365 525h1M392 525h1M437 525h1M467 525h1M492 525h1M562 525h1M573 525h1M615 525h1M617 525h1M630 525h1M632 525h1M645 525h1M689 525h1M714 525h1M716 525h1M727 525h1M744 525h1M67 548h1M69 548h1M86 548h1M99 548h1M139 548h1M164 548h1M194 548h1M207 548h1M276 548h1M318 548h1M320 548h1M344 548h1M356 548h1M358 548h1M443 548h1M454 548h1M480 548h1M505 548h1M520 548h1M575 548h1M587 548h1M614 548h1M627 548h1M629 548h1M669 548h1" />
<path stroke="rgba(228,244,247,0.8549019607843137)" d="M780 525h5M796 525h5M780 526h5M796 526h5M778 527h2M785 527h2M794 527h2M778 528h2M785 528h2M794 528h2M778 529h2M787 529h2M792 529h2M778 530h2M787 530h2M792 530h2M778 531h2M789 531h3M780 532h2M789 532h3M780 533h2M782 534h2M782 535h2M784 536h2M784 537h2M784 538h2M782 539h2M782 540h2M780 541h2M780 542h2M778 543h2M778 544h2M778 545h2M778 546h2M778 547h2" />
<path stroke="#53587e" d="M780 527h5M796 527h5M780 528h5M796 528h5M780 529h7M794 529h7M780 530h7M794 530h7M780 531h9M792 531h9M782 532h7M792 532h7M782 533h17M784 534h13M784 535h13M786 536h9M786 537h9M786 538h9M784 539h13M784 540h13M782 541h17M782 542h7M792 542h7M780 543h9M792 543h9M780 544h7M794 544h7M780 545h7M794 545h7M780 546h5M796 546h5M780 547h5M796 547h5" />
</svg>