<svg xmlns="http://www.w3.org/2000/svg" viewBox="0 -0.5 851 600" shape-rendering="crispEdges">
<metadata>Made with Pixels to Svg https://codepen.io/shshaw/pen/XbxvNj</metadata>
<path stroke="#bbb1bc" d="M0 500h620M0 501h620M0 502h620M0 503h620M0 504h620M0 505h620M0 506h620M0 507h620M0 508h376M396 508h224M0 509h88M99 509h277M423 509h197M0 510h17M99 510h61M203 510h25M231 510h8M302 510h5M338 510h15M423 510h60M488 510h15M534 510h5M602 510h8M613 510h7M0 511h17M99 511h61M203 511h25M231 511h8M302 511h5M338 511h15M423 511h60M488 511h15M534 511h5M602 511h8M613 511h7M0 512h17M99 512h61M203 512h25M231 512h8M302 512h51M423 512h60M488 512h51M602 512h8M613 512h7M0 513h17M102 513h2M203 513h25M231 513h8M302 513h51M423 513h60M488 513h51M602 513h8M613 513h7" />
<path stroke="#000000" d="M629 505h6" />
<path stroke="#6b5e6f" d="M376 508h20M89 509h10M376 509h47M17 510h5M25 510h8M89 510h10M160 510h35M198 510h5M251 510h51M307 510h31M353 510h70M483 510h5M503 510h31M539 510h53M17 511h5M25 511h8M89 511h10M160 511h21M189 511h6M198 511h5M251 511h51M307 511h31M353 511h70M483 511h5M503 511h31M539 511h53M17 512h5M25 512h8M89 512h10M160 512h21M189 512h6M198 512h5M251 512h51M353 512h34M390 512h33M483 512h5M539 512h53M17 513h6M25 513h8M89 513h13M104 513h91M197 513h6M251 513h51M353 513h34M390 513h33M483 513h5M539 513h53M95 514h88M274 514h56M334 514h53M390 514h8M400 514h167M95 515h88M274 515h56M334 515h40M390 515h8M400 515h107M511 515h56M95 516h88M274 516h56M334 516h40M390 516h8M400 516h107M511 516h56M95 517h39M137 517h46M189 517h4M274 517h56M334 517h40M400 517h25M429 517h78M511 517h56M109 518h25M137 518h14M184 518h3M189 518h4M274 518h56M334 518h40M400 518h25M429 518h13M467 518h40M511 518h56M109 519h25M137 519h14M184 519h3M274 519h46M330 519h44M400 519h25M429 519h13M467 519h44M521 519h46M110 520h24M137 520h14M184 520h3M274 520h46M330 520h24M358 520h16M400 520h25M429 520h13M467 520h16M487 520h24M521 520h46M184 521h3M274 521h29M306 521h14M330 521h24M358 521h16M467 521h16M487 521h24M521 521h14M538 521h29M274 522h29M306 522h14M330 522h24M358 522h16M467 522h16M487 522h24M521 522h14M538 522h29M274 523h29M306 523h14M330 523h24M358 523h16M467 523h16M487 523h24M521 523h14M538 523h29M274 524h29M306 524h68M467 524h68M538 524h29M306 525h42M353 525h21M467 525h21M493 525h42M306 526h42M353 526h21M467 526h21M493 526h42M306 527h42M353 527h21M467 527h21M493 527h42M311 528h37M493 528h37M311 529h37M493 529h37M311 530h13M332 530h16M493 530h16M517 530h13M311 531h13M331 531h17M493 531h17M517 531h13M311 532h13M331 532h17M493 532h17M517 532h13" />
<path stroke="#524656" d="M88 509h1M22 510h3M33 510h56M195 510h3M228 510h3M239 510h12M592 510h10M610 510h3M22 511h3M33 511h56M181 511h8M195 511h3M228 511h3M239 511h12M592 511h10M610 511h3M22 512h3M33 512h56M181 512h8M195 512h3M228 512h3M239 512h12M387 512h3M592 512h10M610 512h3M23 513h2M33 513h56M195 513h2M228 513h3M239 513h12M592 513h10M610 513h3M0 514h95M183 514h91M330 514h4M567 514h53M0 515h95M183 515h91M330 515h4M507 515h4M567 515h53M0 516h95M183 516h91M330 516h4M507 516h4M567 516h53M0 517h95M134 517h3M183 517h6M193 517h81M330 517h4M428 517h1M507 517h4M567 517h53M0 518h109M134 518h3M151 518h33M187 518h2M193 518h81M330 518h4M464 518h3M507 518h4M567 518h53M0 519h109M134 519h3M151 519h33M187 519h87M320 519h10M464 519h3M511 519h10M567 519h53M0 520h66M71 520h4M79 520h2M85 520h24M134 520h3M151 520h33M187 520h87M320 520h10M354 520h4M465 520h2M483 520h4M511 520h10M567 520h53M0 521h66M71 521h4M79 521h2M85 521h99M187 521h87M303 521h3M320 521h10M354 521h4M465 521h2M483 521h4M511 521h10M535 521h3M567 521h53M0 522h66M71 522h4M79 522h2M85 522h84M183 522h91M303 522h3M320 522h10M354 522h4M483 522h4M511 522h10M535 522h3M567 522h53M0 523h66M71 523h98M183 523h91M303 523h3M320 523h10M354 523h4M483 523h4M511 523h10M535 523h3M567 523h53M0 524h169M218 524h56M303 524h3M535 524h3M567 524h53M43 525h126M224 525h82M348 525h5M488 525h5M535 525h82M43 526h126M224 526h82M348 526h5M488 526h5M535 526h82M43 527h89M134 527h2M139 527h2M150 527h6M159 527h10M224 527h82M348 527h5M488 527h5M535 527h82M43 528h89M134 528h2M139 528h2M150 528h6M159 528h14M224 528h87M348 528h26M467 528h26M530 528h87M40 529h88M130 529h2M134 529h2M139 529h2M150 529h26M254 529h4M263 529h48M348 529h28M465 529h28M530 529h48M583 529h4M50 530h6M61 530h2M68 530h64M134 530h2M139 530h2M150 530h26M254 530h4M263 530h48M324 530h8M348 530h28M465 530h28M509 530h8M530 530h48M583 530h4M50 531h6M61 531h2M68 531h64M134 531h2M139 531h2M150 531h26M254 531h4M263 531h48M324 531h7M348 531h28M464 531h29M510 531h7M530 531h48M583 531h4M50 532h6M61 532h2M68 532h108M254 532h4M263 532h48M324 532h7M348 532h28M464 532h29M510 532h7M530 532h48M583 532h4M50 533h126M254 533h122M463 533h124M54 534h37M107 534h16M254 534h122M463 534h124M54 535h37M107 535h16M316 535h60M462 535h63M54 536h37M107 536h16M316 536h60M461 536h1M464 536h1M468 536h57M54 537h37M107 537h16M316 537h33M353 537h23M461 537h1M464 537h1M468 537h20M492 537h33M54 538h37M107 538h16M316 538h33M353 538h11M366 538h10M461 538h14M477 538h11M492 538h33M70 539h10M82 539h4M107 539h16M316 539h33M353 539h7M366 539h11M461 539h14M481 539h7M492 539h33M70 540h10M82 540h4M325 540h24M353 540h7M366 540h11M461 540h14M481 540h7M492 540h24M70 541h16M325 541h24M353 541h7M366 541h11M461 541h14M481 541h7M492 541h24M70 542h16M325 542h24M353 542h7M366 542h11M461 542h14M481 542h7M492 542h24M70 543h16M325 543h18M366 543h11M461 543h14M498 543h18M70 544h7M325 544h18M461 544h14M498 544h18M73 545h4M325 545h18M461 545h14M498 545h18M73 546h4M73 547h4M475 560h1" />
<path stroke="#493c4c" d="M387 513h3M387 514h3M398 514h2M374 515h16M398 515h2M374 516h16M398 516h2M374 517h26M425 517h3M374 518h26M425 518h4M442 518h22M374 519h26M425 519h4M442 519h22M374 520h26M425 520h4M442 520h23M374 521h91M374 522h93M374 523h93M374 524h93M374 525h93M374 526h93M374 527h93M374 528h93M376 529h89M376 530h89M376 531h88M376 532h88M376 533h87M123 534h57M376 534h6M398 534h65M123 535h57M376 535h6M398 535h64M123 536h57M376 536h6M398 536h42M123 537h57M376 537h6M398 537h42M123 538h57M376 538h6M398 538h42M123 539h57M398 539h42M137 540h43M428 540h12M137 541h52M428 541h12M137 542h52M428 542h12M153 543h36M428 543h12M154 544h35M428 544h7M437 544h3M154 545h10M170 545h19M428 545h7M437 545h3M154 546h10M170 546h19M422 546h2M426 546h2M430 546h7M154 547h10M170 547h19M422 547h2M426 547h2M430 547h7M161 548h3M170 548h19M420 548h17M161 549h3M170 549h19M420 549h9M161 550h3M170 550h19M416 550h13" />
<path stroke="#372b39" d="M66 520h5M75 520h4M81 520h4M66 521h5M75 521h4M81 521h4M66 522h5M75 522h4M81 522h4M169 522h14M66 523h5M169 523h14M169 524h13M0 525h43M169 525h13M218 525h6M617 525h3M0 526h43M169 526h13M218 526h6M617 526h3M0 527h13M16 527h27M132 527h2M136 527h3M141 527h9M156 527h3M169 527h13M218 527h6M617 527h3M0 528h43M132 528h2M136 528h3M141 528h9M156 528h3M173 528h10M218 528h6M617 528h3M0 529h40M128 529h2M132 529h2M136 529h3M141 529h9M176 529h14M210 529h3M218 529h36M258 529h5M578 529h5M587 529h33M0 530h50M56 530h5M63 530h5M132 530h2M136 530h3M141 530h9M176 530h14M210 530h3M218 530h36M258 530h5M578 530h5M587 530h33M0 531h50M56 531h5M63 531h5M132 531h2M136 531h3M141 531h9M176 531h14M210 531h3M218 531h36M258 531h5M578 531h5M587 531h33M0 532h50M56 532h5M63 532h5M176 532h14M210 532h3M215 532h39M258 532h5M578 532h5M587 532h33M1 533h49M176 533h14M213 533h6M222 533h32M587 533h33M1 534h53M180 534h10M213 534h4M222 534h32M587 534h33M1 535h53M180 535h10M213 535h4M222 535h94M525 535h95M1 536h53M180 536h10M213 536h4M222 536h94M525 536h95M1 537h53M180 537h10M213 537h4M222 537h94M349 537h4M488 537h4M525 537h95M1 538h2M7 538h47M180 538h10M208 538h5M217 538h99M349 538h4M364 538h2M475 538h2M488 538h4M525 538h95M0 539h3M7 539h63M180 539h10M208 539h5M217 539h99M349 539h4M360 539h6M475 539h6M488 539h4M525 539h95M0 540h3M7 540h63M180 540h10M208 540h5M217 540h108M349 540h4M360 540h6M475 540h6M488 540h4M516 540h104M0 541h3M7 541h63M189 541h1M217 541h108M349 541h4M360 541h6M475 541h6M488 541h4M516 541h104M0 542h3M7 542h41M50 542h20M189 542h1M217 542h108M349 542h4M360 542h6M475 542h6M488 542h4M516 542h104M50 543h3M55 543h15M137 543h16M189 543h1M241 543h6M253 543h3M262 543h2M271 543h54M343 543h23M380 543h6M455 543h6M475 543h23M516 543h54M577 543h2M585 543h3M594 543h6M50 544h3M55 544h15M137 544h17M189 544h1M241 544h6M253 544h3M262 544h2M271 544h54M343 544h23M380 544h6M455 544h6M475 544h23M516 544h54M577 544h2M585 544h3M594 544h6M52 545h18M137 545h17M189 545h1M241 545h6M253 545h3M262 545h2M271 545h54M343 545h23M380 545h6M455 545h6M475 545h23M516 545h54M577 545h2M585 545h3M594 545h6M52 546h18M131 546h2M135 546h19M189 546h1M241 546h6M253 546h3M262 546h2M271 546h51M343 546h43M455 546h43M519 546h51M577 546h2M585 546h3M594 546h6M52 547h18M131 547h2M135 547h19M189 547h1M241 547h6M262 547h2M271 547h6M279 547h43M343 547h43M455 547h43M519 547h43M564 547h6M577 547h2M594 547h6M50 548h20M129 548h32M189 548h1M279 548h43M343 548h43M455 548h43M519 548h43M50 549h20M129 549h32M189 549h1M279 549h43M343 549h43M455 549h43M519 549h43M50 550h20M119 550h2M125 550h36M189 550h1M279 550h43M351 550h35M455 550h35M519 550h43M50 551h20M119 551h2M125 551h39M170 551h20M279 551h43M351 551h35M414 551h20M455 551h35M519 551h43M60 552h10M119 552h2M128 552h10M139 552h25M170 552h20M279 552h43M351 552h35M414 552h20M455 552h35M519 552h43M60 553h11M128 553h10M140 553h24M170 553h20M279 553h43M351 553h9M366 553h20M418 553h16M454 553h36M519 553h43M60 554h11M123 554h6M139 554h25M170 554h20M351 554h9M366 554h6M379 554h7M454 554h1M459 554h31M60 555h11M123 555h6M139 555h51M351 555h9M366 555h6M379 555h7M459 555h31M60 556h11M139 556h45M351 556h9M366 556h6M379 556h7M459 556h31M60 557h11M156 557h2M159 557h3M163 557h21M345 557h15M366 557h6M459 557h37M60 558h10M156 558h2M163 558h21M345 558h20M455 558h41M60 559h10M156 559h2M163 559h21M345 559h20M455 559h41M56 560h13M156 560h2M163 560h21M345 560h20M457 560h18M476 560h20M59 561h8M156 561h2M163 561h12M345 561h20M484 561h12M56 562h2M63 562h8M148 562h10M162 562h13M345 562h20M484 562h12M56 563h2M60 563h11M148 563h27M345 563h20M484 563h12M56 564h2M60 564h5M153 564h22M345 564h11M484 564h12M61 565h4M153 565h22M352 565h4M484 565h12M61 566h4M153 566h22M352 566h4M484 566h12M61 567h4M153 567h22M352 567h4M484 567h12M153 568h29M484 568h12M153 569h4M163 569h19M484 569h12M162 570h20M362 570h11M484 570h12M162 571h20M484 571h12M162 572h20M484 572h12M162 573h24M484 573h12M162 574h24M162 575h24M162 576h24M162 577h24M162 578h24M162 579h3" />
<path stroke="#6a5d6e" d="M109 520h1" />
<path stroke="#1e181f" d="M182 524h36M182 525h36M182 526h36M13 527h3M182 527h36M183 528h35M190 529h20M213 529h5M190 530h20M213 530h5M190 531h20M213 531h5M190 532h20M213 532h2M0 533h1M190 533h23M219 533h3M0 534h1M190 534h23M217 534h5M0 535h1M190 535h23M217 535h5M0 536h1M190 536h23M217 536h5M0 537h1M190 537h23M217 537h5M0 538h1M3 538h4M190 538h18M213 538h4M3 539h4M190 539h18M213 539h4M3 540h4M190 540h18M213 540h4M3 541h4M190 541h27M3 542h4M48 542h2M190 542h27M0 543h50M53 543h2M190 543h51M247 543h6M256 543h6M264 543h7M570 543h7M579 543h6M588 543h6M600 543h20M0 544h50M53 544h2M190 544h51M247 544h6M256 544h6M264 544h7M570 544h7M579 544h6M588 544h6M600 544h20M0 545h52M190 545h51M247 545h6M256 545h6M264 545h7M570 545h7M579 545h6M588 545h6M600 545h20M0 546h52M190 546h51M247 546h6M256 546h6M264 546h7M322 546h21M498 546h21M570 546h7M579 546h6M588 546h6M600 546h20M0 547h52M190 547h51M247 547h15M264 547h7M277 547h2M322 547h21M498 547h21M562 547h2M570 547h7M579 547h15M600 547h20M0 548h50M190 548h89M322 548h21M397 548h16M498 548h21M562 548h58M0 549h50M190 549h89M322 549h21M397 549h16M498 549h21M562 549h58M0 550h50M190 550h89M322 550h29M397 550h16M490 550h29M562 550h58M0 551h50M190 551h89M322 551h29M397 551h16M490 551h29M562 551h58M0 552h60M190 552h89M322 552h29M397 552h16M490 552h29M562 552h58M0 553h60M190 553h89M322 553h29M397 553h16M490 553h29M562 553h58M0 554h60M190 554h161M397 554h54M455 554h4M490 554h130M0 555h60M190 555h161M397 555h54M455 555h4M490 555h130M0 556h60M184 556h167M392 556h59M455 556h4M490 556h130M0 557h60M184 557h161M392 557h67M496 557h124M0 558h60M184 558h161M392 558h63M496 558h124M0 559h60M184 559h161M392 559h63M496 559h124M0 560h56M184 560h161M392 560h63M496 560h124M0 561h56M175 561h170M392 561h92M496 561h124M0 562h56M71 562h2M101 562h19M175 562h170M373 562h1M392 562h92M496 562h124M0 563h56M71 563h2M101 563h19M175 563h170M373 563h5M392 563h92M496 563h124M0 564h56M65 564h6M101 564h19M175 564h170M356 564h6M373 564h5M392 564h92M496 564h124M0 565h61M65 565h6M101 565h25M175 565h177M356 565h6M373 565h5M392 565h92M496 565h124M0 566h61M65 566h6M82 566h44M175 566h177M356 566h6M373 566h111M496 566h124M0 567h61M65 567h6M82 567h44M175 567h177M356 567h6M373 567h111M496 567h124M0 568h71M82 568h44M133 568h2M182 568h180M373 568h111M496 568h124M0 569h126M133 569h2M182 569h180M373 569h111M496 569h124M0 570h126M182 570h180M373 570h111M496 570h124M0 571h132M182 571h302M496 571h124M0 572h132M182 572h302M496 572h124M0 573h132M186 573h298M496 573h124M0 574h132M186 574h434M0 575h132M186 575h434M0 576h138M186 576h434M0 577h138M186 577h434M0 578h138M186 578h434M0 579h138M165 579h455M0 580h138M162 580h458M0 581h138M162 581h458M0 582h138M162 582h458M0 583h620M0 584h620M0 585h620M0 586h620M0 587h620M0 588h620M0 589h620M0 590h620M0 591h620M0 592h620M0 593h620M0 594h620M0 595h620M0 596h620M0 597h620M0 598h620M0 599h620" />
<path stroke="#3a2d3c" d="M91 534h16M382 534h16M91 535h16M382 535h16M91 536h16M382 536h16M440 536h21M462 536h2M465 536h3M91 537h16M382 537h16M440 537h21M462 537h2M465 537h3M91 538h16M382 538h16M440 538h21M80 539h2M86 539h21M377 539h21M440 539h21M80 540h2M86 540h51M377 540h51M440 540h21M86 541h51M377 541h51M440 541h21M86 542h51M377 542h51M440 542h21M86 543h51M377 543h3M386 543h42M440 543h15M77 544h60M366 544h14M386 544h42M435 544h2M440 544h15M70 545h3M77 545h60M164 545h6M366 545h14M386 545h42M435 545h2M440 545h15M70 546h3M77 546h54M133 546h2M164 546h6M386 546h36M424 546h2M428 546h2M437 546h18M70 547h3M77 547h54M133 547h2M164 547h6M386 547h36M424 547h2M428 547h2M437 547h18M70 548h59M164 548h6M386 548h11M413 548h7M437 548h18M70 549h59M164 549h6M386 549h11M413 549h7M429 549h26M70 550h49M121 550h4M164 550h6M386 550h11M413 550h3M429 550h26M70 551h49M121 551h4M164 551h6M386 551h11M413 551h1M434 551h21M70 552h49M121 552h7M138 552h1M164 552h6M386 552h11M413 552h1M434 552h21M71 553h57M138 553h2M164 553h6M360 553h6M386 553h11M413 553h5M434 553h20M71 554h52M129 554h10M164 554h6M360 554h6M372 554h7M386 554h11M451 554h3M71 555h52M129 555h10M360 555h6M372 555h7M386 555h11M451 555h4M71 556h68M360 556h6M372 556h7M386 556h6M451 556h4M71 557h85M158 557h1M162 557h1M360 557h6M372 557h20M70 558h86M158 558h5M365 558h27M70 559h86M158 559h5M365 559h27M69 560h87M158 560h5M365 560h27M455 560h2M56 561h3M67 561h89M158 561h5M365 561h27M58 562h5M73 562h28M120 562h28M158 562h4M365 562h8M374 562h18M58 563h2M73 563h28M120 563h28M365 563h8M378 563h14M58 564h2M71 564h30M120 564h33M362 564h11M378 564h14M71 565h30M126 565h27M362 565h11M378 565h14M71 566h11M126 566h27M362 566h11M71 567h11M126 567h27M362 567h11M71 568h11M126 568h7M135 568h18M362 568h11M126 569h7M135 569h18M157 569h6M362 569h11M126 570h36M132 571h30M132 572h30M132 573h30M132 574h30M132 575h30M138 576h24M138 577h24M138 578h24M138 579h24M138 580h24M138 581h24M138 582h24" />
</svg>