<svg xmlns="http://www.w3.org/2000/svg" viewBox="0 -0.5 1239 600" shape-rendering="crispEdges">
<metadata>Made with Pixels to Svg https://codepen.io/shshaw/pen/XbxvNj</metadata>
<path stroke="#bbb1bc" d="M0 500h616M619 500h620M0 501h616M619 501h620M0 502h616M619 502h620M0 503h616M619 503h620M0 504h616M619 504h620M0 505h616M619 505h620M0 506h616M619 506h620M0 507h616M619 507h620M0 508h376M396 508h220M619 508h376M1015 508h224M0 509h88M99 509h277M423 509h193M619 509h88M718 509h277M1042 509h197M0 510h17M99 510h61M203 510h25M231 510h8M302 510h5M338 510h15M423 510h60M488 510h15M534 510h5M602 510h8M613 510h3M619 510h17M718 510h61M822 510h25M850 510h8M921 510h5M957 510h15M1042 510h60M1107 510h15M1153 510h5M1221 510h8M1232 510h7M0 511h17M99 511h61M203 511h25M231 511h8M302 511h5M338 511h15M423 511h60M488 511h15M534 511h5M602 511h8M613 511h3M619 511h17M718 511h61M822 511h25M850 511h8M921 511h5M957 511h15M1042 511h60M1107 511h15M1153 511h5M1221 511h8M1232 511h7M0 512h17M99 512h61M203 512h25M231 512h8M302 512h51M423 512h60M488 512h51M602 512h8M613 512h3M619 512h17M718 512h61M822 512h25M850 512h8M921 512h51M1042 512h60M1107 512h51M1221 512h8M1232 512h7M0 513h17M102 513h2M203 513h25M231 513h8M302 513h51M423 513h60M488 513h51M602 513h8M613 513h3M619 513h17M721 513h2M822 513h25M850 513h8M921 513h51M1042 513h60M1107 513h51M1221 513h8M1232 513h7" />
<path stroke="#b4b5b7" d="M616 500h3M616 501h3M616 502h3M616 503h3M616 504h3M616 505h3M616 506h3M616 507h3M616 508h3M616 509h3M616 510h3M616 511h3M616 512h3M616 513h3" />
<path stroke="#6b5e6f" d="M376 508h20M995 508h20M89 509h10M376 509h47M708 509h10M995 509h47M17 510h5M25 510h8M89 510h10M160 510h35M198 510h5M251 510h51M307 510h31M353 510h70M483 510h5M503 510h31M539 510h53M636 510h5M644 510h8M708 510h10M779 510h35M817 510h5M870 510h51M926 510h31M972 510h70M1102 510h5M1122 510h31M1158 510h53M17 511h5M25 511h8M89 511h10M160 511h21M189 511h6M198 511h5M251 511h51M307 511h31M353 511h70M483 511h5M503 511h31M539 511h53M636 511h5M644 511h8M708 511h10M779 511h21M808 511h6M817 511h5M870 511h51M926 511h31M972 511h70M1102 511h5M1122 511h31M1158 511h53M17 512h5M25 512h8M89 512h10M160 512h21M189 512h6M198 512h5M251 512h51M353 512h34M390 512h33M483 512h5M539 512h53M636 512h5M644 512h8M708 512h10M779 512h21M808 512h6M817 512h5M870 512h51M972 512h34M1009 512h33M1102 512h5M1158 512h53M17 513h6M25 513h8M89 513h13M104 513h91M197 513h6M251 513h51M353 513h34M390 513h33M483 513h5M539 513h53M636 513h6M644 513h8M708 513h13M723 513h91M816 513h6M870 513h51M972 513h34M1009 513h33M1102 513h5M1158 513h53M95 514h88M274 514h56M334 514h53M390 514h8M400 514h167M714 514h88M893 514h56M953 514h53M1009 514h8M1019 514h167M95 515h88M274 515h56M334 515h40M390 515h8M400 515h107M511 515h56M714 515h88M893 515h56M953 515h40M1009 515h8M1019 515h107M1130 515h56M95 516h88M274 516h56M334 516h40M390 516h8M400 516h107M511 516h56M714 516h88M893 516h56M953 516h40M1009 516h8M1019 516h107M1130 516h56M95 517h39M137 517h46M189 517h4M274 517h56M334 517h40M400 517h25M429 517h78M511 517h56M714 517h39M756 517h46M808 517h4M893 517h56M953 517h40M1019 517h25M1048 517h78M1130 517h56M109 518h25M137 518h14M184 518h3M189 518h4M274 518h56M334 518h40M400 518h25M429 518h13M467 518h40M511 518h56M728 518h25M756 518h14M803 518h3M808 518h4M893 518h56M953 518h40M1019 518h25M1048 518h13M1086 518h40M1130 518h56M109 519h25M137 519h14M184 519h3M274 519h46M330 519h44M400 519h25M429 519h13M467 519h44M521 519h46M728 519h25M756 519h14M803 519h3M893 519h46M949 519h44M1019 519h25M1048 519h13M1086 519h44M1140 519h46M110 520h24M137 520h14M184 520h3M274 520h46M330 520h24M358 520h16M400 520h25M429 520h13M467 520h16M487 520h24M521 520h46M729 520h24M756 520h14M803 520h3M893 520h46M949 520h24M977 520h16M1019 520h25M1048 520h13M1086 520h16M1106 520h24M1140 520h46M184 521h3M274 521h29M306 521h14M330 521h24M358 521h16M467 521h16M487 521h24M521 521h14M538 521h29M803 521h3M893 521h29M925 521h14M949 521h24M977 521h16M1086 521h16M1106 521h24M1140 521h14M1157 521h29M274 522h29M306 522h14M330 522h24M358 522h16M467 522h16M487 522h24M521 522h14M538 522h29M893 522h29M925 522h14M949 522h24M977 522h16M1086 522h16M1106 522h24M1140 522h14M1157 522h29M274 523h29M306 523h14M330 523h24M358 523h16M467 523h16M487 523h24M521 523h14M538 523h29M893 523h29M925 523h14M949 523h24M977 523h16M1086 523h16M1106 523h24M1140 523h14M1157 523h29M274 524h29M306 524h68M467 524h68M538 524h29M893 524h29M925 524h68M1086 524h68M1157 524h29M306 525h42M353 525h21M467 525h21M493 525h42M925 525h42M972 525h21M1086 525h21M1112 525h42M306 526h42M353 526h21M467 526h21M493 526h42M925 526h42M972 526h21M1086 526h21M1112 526h42M306 527h42M353 527h21M467 527h21M493 527h42M925 527h42M972 527h21M1086 527h21M1112 527h42M311 528h37M493 528h37M930 528h37M1112 528h37M311 529h37M493 529h37M930 529h37M1112 529h37M311 530h13M332 530h16M493 530h16M517 530h13M930 530h13M951 530h16M1112 530h16M1136 530h13M311 531h13M331 531h17M493 531h17M517 531h13M930 531h13M950 531h17M1112 531h17M1136 531h13M311 532h13M331 532h17M493 532h17M517 532h13M930 532h13M950 532h17M1112 532h17M1136 532h13" />
<path stroke="#524656" d="M88 509h1M707 509h1M22 510h3M33 510h56M195 510h3M228 510h3M239 510h12M592 510h10M610 510h3M641 510h3M652 510h56M814 510h3M847 510h3M858 510h12M1211 510h10M1229 510h3M22 511h3M33 511h56M181 511h8M195 511h3M228 511h3M239 511h12M592 511h10M610 511h3M641 511h3M652 511h56M800 511h8M814 511h3M847 511h3M858 511h12M1211 511h10M1229 511h3M22 512h3M33 512h56M181 512h8M195 512h3M228 512h3M239 512h12M387 512h3M592 512h10M610 512h3M641 512h3M652 512h56M800 512h8M814 512h3M847 512h3M858 512h12M1006 512h3M1211 512h10M1229 512h3M23 513h2M33 513h56M195 513h2M228 513h3M239 513h12M592 513h10M610 513h3M642 513h2M652 513h56M814 513h2M847 513h3M858 513h12M1211 513h10M1229 513h3M0 514h95M183 514h91M330 514h4M567 514h49M619 514h95M802 514h91M949 514h4M1186 514h53M0 515h95M183 515h91M330 515h4M507 515h4M567 515h49M619 515h95M802 515h91M949 515h4M1126 515h4M1186 515h53M0 516h95M183 516h91M330 516h4M507 516h4M567 516h49M619 516h95M802 516h91M949 516h4M1126 516h4M1186 516h53M0 517h95M134 517h3M183 517h6M193 517h81M330 517h4M428 517h1M507 517h4M567 517h49M619 517h95M753 517h3M802 517h6M812 517h81M949 517h4M1047 517h1M1126 517h4M1186 517h53M0 518h109M134 518h3M151 518h33M187 518h2M193 518h81M330 518h4M464 518h3M507 518h4M567 518h49M619 518h109M753 518h3M770 518h33M806 518h2M812 518h81M949 518h4M1083 518h3M1126 518h4M1186 518h53M0 519h109M134 519h3M151 519h33M187 519h87M320 519h10M464 519h3M511 519h10M567 519h49M619 519h109M753 519h3M770 519h33M806 519h87M939 519h10M1083 519h3M1130 519h10M1186 519h53M0 520h66M71 520h4M79 520h2M85 520h24M134 520h3M151 520h33M187 520h87M320 520h10M354 520h4M465 520h2M483 520h4M511 520h10M567 520h49M619 520h66M690 520h4M698 520h2M704 520h24M753 520h3M770 520h33M806 520h87M939 520h10M973 520h4M1084 520h2M1102 520h4M1130 520h10M1186 520h53M0 521h66M71 521h4M79 521h2M85 521h99M187 521h87M303 521h3M320 521h10M354 521h4M465 521h2M483 521h4M511 521h10M535 521h3M567 521h49M619 521h66M690 521h4M698 521h2M704 521h99M806 521h87M922 521h3M939 521h10M973 521h4M1084 521h2M1102 521h4M1130 521h10M1154 521h3M1186 521h53M0 522h66M71 522h4M79 522h2M85 522h84M183 522h91M303 522h3M320 522h10M354 522h4M483 522h4M511 522h10M535 522h3M567 522h49M619 522h66M690 522h4M698 522h2M704 522h84M802 522h91M922 522h3M939 522h10M973 522h4M1102 522h4M1130 522h10M1154 522h3M1186 522h53M0 523h66M71 523h98M183 523h91M303 523h3M320 523h10M354 523h4M483 523h4M511 523h10M535 523h3M567 523h49M619 523h66M690 523h98M802 523h91M922 523h3M939 523h10M973 523h4M1102 523h4M1130 523h10M1154 523h3M1186 523h53M0 524h169M218 524h56M303 524h3M535 524h3M567 524h49M619 524h169M837 524h56M922 524h3M1154 524h3M1186 524h53M43 525h126M224 525h82M348 525h5M488 525h5M535 525h81M662 525h126M843 525h82M967 525h5M1107 525h5M1154 525h82M43 526h126M224 526h82M348 526h5M488 526h5M535 526h81M662 526h126M843 526h82M967 526h5M1107 526h5M1154 526h82M43 527h89M134 527h2M139 527h2M150 527h6M159 527h10M224 527h82M348 527h5M488 527h5M535 527h81M662 527h89M753 527h2M758 527h2M769 527h6M778 527h10M843 527h82M967 527h5M1107 527h5M1154 527h82M43 528h89M134 528h2M139 528h2M150 528h6M159 528h14M224 528h87M348 528h26M467 528h26M530 528h86M662 528h89M753 528h2M758 528h2M769 528h6M778 528h14M843 528h87M967 528h26M1086 528h26M1149 528h87M40 529h88M130 529h2M134 529h2M139 529h2M150 529h26M254 529h4M263 529h48M348 529h28M465 529h28M530 529h48M583 529h4M659 529h88M749 529h2M753 529h2M758 529h2M769 529h26M873 529h4M882 529h48M967 529h28M1084 529h28M1149 529h48M1202 529h4M50 530h6M61 530h2M68 530h64M134 530h2M139 530h2M150 530h26M254 530h4M263 530h48M324 530h8M348 530h28M465 530h28M509 530h8M530 530h48M583 530h4M669 530h6M680 530h2M687 530h64M753 530h2M758 530h2M769 530h26M873 530h4M882 530h48M943 530h8M967 530h28M1084 530h28M1128 530h8M1149 530h48M1202 530h4M50 531h6M61 531h2M68 531h64M134 531h2M139 531h2M150 531h26M254 531h4M263 531h48M324 531h7M348 531h28M464 531h29M510 531h7M530 531h48M583 531h4M669 531h6M680 531h2M687 531h64M753 531h2M758 531h2M769 531h26M873 531h4M882 531h48M943 531h7M967 531h28M1083 531h29M1129 531h7M1149 531h48M1202 531h4M50 532h6M61 532h2M68 532h108M254 532h4M263 532h48M324 532h7M348 532h28M464 532h29M510 532h7M530 532h48M583 532h4M669 532h6M680 532h2M687 532h108M873 532h4M882 532h48M943 532h7M967 532h28M1083 532h29M1129 532h7M1149 532h48M1202 532h4M50 533h126M254 533h122M463 533h124M669 533h126M873 533h122M1082 533h124M54 534h37M107 534h16M254 534h122M463 534h124M673 534h37M726 534h16M873 534h122M1082 534h124M54 535h37M107 535h16M316 535h60M462 535h63M673 535h37M726 535h16M935 535h60M1081 535h63M54 536h37M107 536h16M316 536h60M461 536h1M464 536h1M468 536h57M673 536h37M726 536h16M935 536h60M1080 536h1M1083 536h1M1087 536h57M54 537h37M107 537h16M316 537h33M353 537h23M461 537h1M464 537h1M468 537h20M492 537h33M673 537h37M726 537h16M935 537h33M972 537h23M1080 537h1M1083 537h1M1087 537h20M1111 537h33M54 538h37M107 538h16M316 538h33M353 538h11M366 538h10M461 538h14M477 538h11M492 538h33M673 538h37M726 538h16M935 538h33M972 538h11M985 538h10M1080 538h14M1096 538h11M1111 538h33M70 539h10M82 539h4M107 539h16M316 539h33M353 539h7M366 539h11M461 539h14M481 539h7M492 539h33M689 539h10M701 539h4M726 539h16M935 539h33M972 539h7M985 539h11M1080 539h14M1100 539h7M1111 539h33M70 540h10M82 540h4M325 540h24M353 540h7M366 540h11M461 540h14M481 540h7M492 540h24M689 540h10M701 540h4M944 540h24M972 540h7M985 540h11M1080 540h14M1100 540h7M1111 540h24M70 541h16M325 541h24M353 541h7M366 541h11M461 541h14M481 541h7M492 541h24M689 541h16M944 541h24M972 541h7M985 541h11M1080 541h14M1100 541h7M1111 541h24M70 542h16M325 542h24M353 542h7M366 542h11M461 542h14M481 542h7M492 542h24M689 542h16M944 542h24M972 542h7M985 542h11M1080 542h14M1100 542h7M1111 542h24M70 543h16M325 543h18M366 543h11M461 543h14M498 543h18M689 543h16M944 543h18M985 543h11M1080 543h14M1117 543h18M70 544h7M325 544h18M461 544h14M498 544h18M689 544h7M944 544h18M1080 544h14M1117 544h18M73 545h4M325 545h18M461 545h14M498 545h18M692 545h4M944 545h18M1080 545h14M1117 545h18M73 546h4M692 546h4M73 547h4M692 547h4M475 560h1M1094 560h1" />
<path stroke="#493c4c" d="M387 513h3M1006 513h3M387 514h3M398 514h2M1006 514h3M1017 514h2M374 515h16M398 515h2M993 515h16M1017 515h2M374 516h16M398 516h2M993 516h16M1017 516h2M374 517h26M425 517h3M993 517h26M1044 517h3M374 518h26M425 518h4M442 518h22M993 518h26M1044 518h4M1061 518h22M374 519h26M425 519h4M442 519h22M993 519h26M1044 519h4M1061 519h22M374 520h26M425 520h4M442 520h23M993 520h26M1044 520h4M1061 520h23M374 521h91M993 521h91M374 522h93M993 522h93M374 523h93M993 523h93M374 524h93M993 524h93M374 525h93M993 525h93M374 526h93M993 526h93M374 527h93M993 527h93M374 528h93M993 528h93M376 529h89M995 529h89M376 530h89M995 530h89M376 531h88M995 531h88M376 532h88M995 532h88M376 533h87M995 533h87M123 534h57M376 534h6M398 534h65M742 534h57M995 534h6M1017 534h65M123 535h57M376 535h6M398 535h64M742 535h57M995 535h6M1017 535h64M123 536h57M376 536h6M398 536h42M742 536h57M995 536h6M1017 536h42M123 537h57M376 537h6M398 537h42M742 537h57M995 537h6M1017 537h42M123 538h57M376 538h6M398 538h42M742 538h57M995 538h6M1017 538h42M123 539h57M398 539h42M742 539h57M1017 539h42M137 540h43M428 540h12M756 540h43M1047 540h12M137 541h52M428 541h12M756 541h52M1047 541h12M137 542h52M428 542h12M756 542h52M1047 542h12M153 543h36M428 543h12M772 543h36M1047 543h12M154 544h35M428 544h7M437 544h3M773 544h35M1047 544h7M1056 544h3M154 545h10M170 545h19M428 545h7M437 545h3M773 545h10M789 545h19M1047 545h7M1056 545h3M154 546h10M170 546h19M422 546h2M426 546h2M430 546h7M773 546h10M789 546h19M1041 546h2M1045 546h2M1049 546h7M154 547h10M170 547h19M422 547h2M426 547h2M430 547h7M773 547h10M789 547h19M1041 547h2M1045 547h2M1049 547h7M161 548h3M170 548h19M420 548h17M780 548h3M789 548h19M1039 548h17M161 549h3M170 549h19M420 549h9M780 549h3M789 549h19M1039 549h9M161 550h3M170 550h19M416 550h13M780 550h3M789 550h19M1035 550h13" />
<path stroke="#4b4a50" d="M616 514h3M616 515h3M616 516h3M616 517h3M616 518h3M616 519h3M616 520h3M616 521h3M616 522h3M616 523h3M616 524h3" />
<path stroke="#372b39" d="M66 520h5M75 520h4M81 520h4M685 520h5M694 520h4M700 520h4M66 521h5M75 521h4M81 521h4M685 521h5M694 521h4M700 521h4M66 522h5M75 522h4M81 522h4M169 522h14M685 522h5M694 522h4M700 522h4M788 522h14M66 523h5M169 523h14M685 523h5M788 523h14M169 524h13M788 524h13M0 525h43M169 525h13M218 525h6M619 525h43M788 525h13M837 525h6M1236 525h3M0 526h43M169 526h13M218 526h6M619 526h43M788 526h13M837 526h6M1236 526h3M0 527h13M16 527h27M132 527h2M136 527h3M141 527h9M156 527h3M169 527h13M218 527h6M619 527h13M635 527h27M751 527h2M755 527h3M760 527h9M775 527h3M788 527h13M837 527h6M1236 527h3M0 528h43M132 528h2M136 528h3M141 528h9M156 528h3M173 528h10M218 528h6M619 528h43M751 528h2M755 528h3M760 528h9M775 528h3M792 528h10M837 528h6M1236 528h3M0 529h40M128 529h2M132 529h2M136 529h3M141 529h9M176 529h14M210 529h3M218 529h36M258 529h5M578 529h5M587 529h29M619 529h40M747 529h2M751 529h2M755 529h3M760 529h9M795 529h14M829 529h3M837 529h36M877 529h5M1197 529h5M1206 529h33M0 530h50M56 530h5M63 530h5M132 530h2M136 530h3M141 530h9M176 530h14M210 530h3M218 530h36M258 530h5M578 530h5M587 530h29M619 530h50M675 530h5M682 530h5M751 530h2M755 530h3M760 530h9M795 530h14M829 530h3M837 530h36M877 530h5M1197 530h5M1206 530h33M0 531h50M56 531h5M63 531h5M132 531h2M136 531h3M141 531h9M176 531h14M210 531h3M218 531h36M258 531h5M578 531h5M587 531h29M619 531h50M675 531h5M682 531h5M751 531h2M755 531h3M760 531h9M795 531h14M829 531h3M837 531h36M877 531h5M1197 531h5M1206 531h33M0 532h50M56 532h5M63 532h5M176 532h14M210 532h3M215 532h39M258 532h5M578 532h5M587 532h29M619 532h50M675 532h5M682 532h5M795 532h14M829 532h3M834 532h39M877 532h5M1197 532h5M1206 532h33M1 533h49M176 533h14M213 533h6M222 533h32M587 533h29M620 533h49M795 533h14M832 533h6M841 533h32M1206 533h33M1 534h53M180 534h10M213 534h4M222 534h32M587 534h29M620 534h53M799 534h10M832 534h4M841 534h32M1206 534h33M1 535h53M180 535h10M213 535h4M222 535h94M525 535h90M620 535h53M799 535h10M832 535h4M841 535h94M1144 535h95M1 536h53M180 536h10M213 536h4M222 536h94M525 536h91M620 536h53M799 536h10M832 536h4M841 536h94M1144 536h95M1 537h53M180 537h10M213 537h4M222 537h94M349 537h4M488 537h4M525 537h91M620 537h53M799 537h10M832 537h4M841 537h94M968 537h4M1107 537h4M1144 537h95M1 538h2M7 538h47M180 538h10M208 538h5M217 538h99M349 538h4M364 538h2M475 538h2M488 538h4M525 538h91M620 538h2M626 538h47M799 538h10M827 538h5M836 538h99M968 538h4M983 538h2M1094 538h2M1107 538h4M1144 538h95M0 539h3M7 539h63M180 539h10M208 539h5M217 539h99M349 539h4M360 539h6M475 539h6M488 539h4M525 539h91M619 539h3M626 539h63M799 539h10M827 539h5M836 539h99M968 539h4M979 539h6M1094 539h6M1107 539h4M1144 539h95M0 540h3M7 540h63M180 540h10M208 540h5M217 540h108M349 540h4M360 540h6M475 540h6M488 540h4M516 540h100M619 540h3M626 540h63M799 540h10M827 540h5M836 540h108M968 540h4M979 540h6M1094 540h6M1107 540h4M1135 540h104M0 541h3M7 541h63M189 541h1M217 541h108M349 541h4M360 541h6M475 541h6M488 541h4M516 541h100M619 541h3M626 541h63M808 541h1M836 541h108M968 541h4M979 541h6M1094 541h6M1107 541h4M1135 541h104M0 542h3M7 542h41M50 542h20M189 542h1M217 542h108M349 542h4M360 542h6M475 542h6M488 542h4M516 542h100M619 542h3M626 542h41M669 542h20M808 542h1M836 542h108M968 542h4M979 542h6M1094 542h6M1107 542h4M1135 542h104M50 543h3M55 543h15M137 543h16M189 543h1M241 543h6M253 543h3M262 543h2M271 543h54M343 543h23M380 543h6M455 543h6M475 543h23M516 543h54M577 543h2M585 543h3M594 543h6M669 543h3M674 543h15M756 543h16M808 543h1M860 543h6M872 543h3M881 543h2M890 543h54M962 543h23M999 543h6M1074 543h6M1094 543h23M1135 543h54M1196 543h2M1204 543h3M1213 543h6M50 544h3M55 544h15M137 544h17M189 544h1M241 544h6M253 544h3M262 544h2M271 544h54M343 544h23M380 544h6M455 544h6M475 544h23M516 544h54M577 544h2M585 544h3M594 544h6M669 544h3M674 544h15M756 544h17M808 544h1M860 544h6M872 544h3M881 544h2M890 544h54M962 544h23M999 544h6M1074 544h6M1094 544h23M1135 544h54M1196 544h2M1204 544h3M1213 544h6M52 545h18M137 545h17M189 545h1M241 545h6M253 545h3M262 545h2M271 545h54M343 545h23M380 545h6M455 545h6M475 545h23M516 545h54M577 545h2M585 545h3M594 545h6M671 545h18M756 545h17M808 545h1M860 545h6M872 545h3M881 545h2M890 545h54M962 545h23M999 545h6M1074 545h6M1094 545h23M1135 545h54M1196 545h2M1204 545h3M1213 545h6M52 546h18M131 546h2M135 546h19M189 546h1M241 546h6M253 546h3M262 546h2M271 546h51M343 546h43M455 546h43M519 546h51M577 546h2M585 546h3M594 546h6M671 546h18M750 546h2M754 546h19M808 546h1M860 546h6M872 546h3M881 546h2M890 546h51M962 546h43M1074 546h43M1138 546h51M1196 546h2M1204 546h3M1213 546h6M52 547h18M131 547h2M135 547h19M189 547h1M241 547h6M262 547h2M271 547h6M279 547h43M343 547h43M455 547h43M519 547h43M564 547h6M577 547h2M594 547h6M671 547h18M750 547h2M754 547h19M808 547h1M860 547h6M881 547h2M890 547h6M898 547h43M962 547h43M1074 547h43M1138 547h43M1183 547h6M1196 547h2M1213 547h6M50 548h20M129 548h32M189 548h1M279 548h43M343 548h43M455 548h43M519 548h43M669 548h20M748 548h32M808 548h1M898 548h43M962 548h43M1074 548h43M1138 548h43M50 549h20M129 549h32M189 549h1M279 549h43M343 549h43M455 549h43M519 549h43M669 549h20M748 549h32M808 549h1M898 549h43M962 549h43M1074 549h43M1138 549h43M50 550h20M119 550h2M125 550h36M189 550h1M279 550h43M351 550h35M455 550h35M519 550h43M669 550h20M738 550h2M744 550h36M808 550h1M898 550h43M970 550h35M1074 550h35M1138 550h43M50 551h20M119 551h2M125 551h39M170 551h20M279 551h43M351 551h35M414 551h20M455 551h35M519 551h43M669 551h20M738 551h2M744 551h39M789 551h20M898 551h43M970 551h35M1033 551h20M1074 551h35M1138 551h43M60 552h10M119 552h2M128 552h10M139 552h25M170 552h20M279 552h43M351 552h35M414 552h20M455 552h35M519 552h43M679 552h10M738 552h2M747 552h10M758 552h25M789 552h20M898 552h43M970 552h35M1033 552h20M1074 552h35M1138 552h43M60 553h11M128 553h10M140 553h24M170 553h20M279 553h43M351 553h9M366 553h20M418 553h16M454 553h36M519 553h43M679 553h11M747 553h10M759 553h24M789 553h20M898 553h43M970 553h9M985 553h20M1037 553h16M1073 553h36M1138 553h43M60 554h11M123 554h6M139 554h25M170 554h20M351 554h9M366 554h6M379 554h7M454 554h1M459 554h31M679 554h11M742 554h6M758 554h25M789 554h20M970 554h9M985 554h6M998 554h7M1073 554h1M1078 554h31M60 555h11M123 555h6M139 555h51M351 555h9M366 555h6M379 555h7M459 555h31M679 555h11M742 555h6M758 555h51M970 555h9M985 555h6M998 555h7M1078 555h31M60 556h11M139 556h45M351 556h9M366 556h6M379 556h7M459 556h31M679 556h11M758 556h45M970 556h9M985 556h6M998 556h7M1078 556h31M60 557h11M156 557h2M159 557h3M163 557h21M345 557h15M366 557h6M459 557h37M679 557h11M775 557h2M778 557h3M782 557h21M964 557h15M985 557h6M1078 557h37M60 558h10M156 558h2M163 558h21M345 558h20M455 558h41M679 558h10M775 558h2M782 558h21M964 558h20M1074 558h41M60 559h10M156 559h2M163 559h21M345 559h20M455 559h41M679 559h10M775 559h2M782 559h21M964 559h20M1074 559h41M56 560h13M156 560h2M163 560h21M345 560h20M457 560h18M476 560h20M675 560h13M775 560h2M782 560h21M964 560h20M1076 560h18M1095 560h20M59 561h8M156 561h2M163 561h12M345 561h20M484 561h12M678 561h8M775 561h2M782 561h12M964 561h20M1103 561h12M56 562h2M63 562h8M148 562h10M162 562h13M345 562h20M484 562h12M675 562h2M682 562h8M767 562h10M781 562h13M964 562h20M1103 562h12M56 563h2M60 563h11M148 563h27M345 563h20M484 563h12M675 563h2M679 563h11M767 563h27M964 563h20M1103 563h12M56 564h2M60 564h5M153 564h22M345 564h11M484 564h12M675 564h2M679 564h5M772 564h22M964 564h11M1103 564h12M61 565h4M153 565h22M352 565h4M484 565h12M680 565h4M772 565h22M971 565h4M1103 565h12M61 566h4M153 566h22M352 566h4M484 566h12M680 566h4M772 566h22M971 566h4M1103 566h12M61 567h4M153 567h22M352 567h4M484 567h12M680 567h4M772 567h22M971 567h4M1103 567h12M153 568h29M484 568h12M772 568h29M1103 568h12M153 569h4M163 569h19M484 569h12M772 569h4M782 569h19M1103 569h12M162 570h20M362 570h11M484 570h12M781 570h20M981 570h11M1103 570h12M162 571h20M484 571h12M781 571h20M1103 571h12M162 572h20M484 572h12M781 572h20M1103 572h12M162 573h24M484 573h12M781 573h24M1103 573h12M162 574h24M781 574h24M162 575h24M781 575h24M162 576h24M781 576h24M162 577h24M781 577h24M162 578h24M781 578h24M162 579h3M781 579h3" />
<path stroke="#6a5d6e" d="M109 520h1M728 520h1" />
<path stroke="#1e181f" d="M182 524h36M801 524h36M182 525h36M801 525h36M182 526h36M801 526h36M13 527h3M182 527h36M632 527h3M801 527h36M183 528h35M802 528h35M190 529h20M213 529h5M809 529h20M832 529h5M190 530h20M213 530h5M809 530h20M832 530h5M190 531h20M213 531h5M809 531h20M832 531h5M190 532h20M213 532h2M809 532h20M832 532h2M0 533h1M190 533h23M219 533h3M619 533h1M809 533h23M838 533h3M0 534h1M190 534h23M217 534h5M619 534h1M809 534h23M836 534h5M0 535h1M190 535h23M217 535h5M619 535h1M809 535h23M836 535h5M0 536h1M190 536h23M217 536h5M619 536h1M809 536h23M836 536h5M0 537h1M190 537h23M217 537h5M619 537h1M809 537h23M836 537h5M0 538h1M3 538h4M190 538h18M213 538h4M619 538h1M622 538h4M809 538h18M832 538h4M3 539h4M190 539h18M213 539h4M622 539h4M809 539h18M832 539h4M3 540h4M190 540h18M213 540h4M622 540h4M809 540h18M832 540h4M3 541h4M190 541h27M622 541h4M809 541h27M3 542h4M48 542h2M190 542h27M622 542h4M667 542h2M809 542h27M0 543h50M53 543h2M190 543h51M247 543h6M256 543h6M264 543h7M570 543h7M579 543h6M588 543h6M600 543h16M619 543h50M672 543h2M809 543h51M866 543h6M875 543h6M883 543h7M1189 543h7M1198 543h6M1207 543h6M1219 543h20M0 544h50M53 544h2M190 544h51M247 544h6M256 544h6M264 544h7M570 544h7M579 544h6M588 544h6M600 544h16M619 544h50M672 544h2M809 544h51M866 544h6M875 544h6M883 544h7M1189 544h7M1198 544h6M1207 544h6M1219 544h20M0 545h52M190 545h51M247 545h6M256 545h6M264 545h7M570 545h7M579 545h6M588 545h6M600 545h16M619 545h52M809 545h51M866 545h6M875 545h6M883 545h7M1189 545h7M1198 545h6M1207 545h6M1219 545h20M0 546h52M190 546h51M247 546h6M256 546h6M264 546h7M322 546h21M498 546h21M570 546h7M579 546h6M588 546h6M600 546h16M619 546h52M809 546h51M866 546h6M875 546h6M883 546h7M941 546h21M1117 546h21M1189 546h7M1198 546h6M1207 546h6M1219 546h20M0 547h52M190 547h51M247 547h15M264 547h7M277 547h2M322 547h21M498 547h21M562 547h2M570 547h7M579 547h15M600 547h16M619 547h52M809 547h51M866 547h15M883 547h7M896 547h2M941 547h21M1117 547h21M1181 547h2M1189 547h7M1198 547h15M1219 547h20M0 548h50M190 548h89M322 548h21M397 548h16M498 548h21M562 548h53M619 548h50M809 548h89M941 548h21M1016 548h16M1117 548h21M1181 548h58M0 549h50M190 549h89M322 549h21M397 549h16M498 549h21M562 549h53M619 549h50M809 549h89M941 549h21M1016 549h16M1117 549h21M1181 549h58M0 550h50M190 550h89M322 550h29M397 550h16M490 550h29M562 550h53M619 550h50M809 550h89M941 550h29M1016 550h16M1109 550h29M1181 550h58M0 551h50M190 551h89M322 551h29M397 551h16M490 551h29M562 551h53M619 551h50M809 551h89M941 551h29M1016 551h16M1109 551h29M1181 551h58M0 552h60M190 552h89M322 552h29M397 552h16M490 552h29M562 552h53M619 552h60M809 552h89M941 552h29M1016 552h16M1109 552h29M1181 552h58M0 553h60M190 553h89M322 553h29M397 553h16M490 553h29M562 553h53M619 553h60M809 553h89M941 553h29M1016 553h16M1109 553h29M1181 553h58M0 554h60M190 554h161M397 554h54M455 554h4M490 554h125M619 554h60M809 554h161M1016 554h54M1074 554h4M1109 554h130M0 555h60M190 555h161M397 555h54M455 555h4M490 555h125M619 555h60M809 555h161M1016 555h54M1074 555h4M1109 555h130M0 556h60M184 556h167M392 556h59M455 556h4M490 556h125M619 556h60M803 556h167M1011 556h59M1074 556h4M1109 556h130M0 557h60M184 557h161M392 557h67M496 557h119M619 557h60M803 557h161M1011 557h67M1115 557h124M0 558h60M184 558h161M392 558h63M496 558h119M619 558h60M803 558h161M1011 558h63M1115 558h124M0 559h60M184 559h161M392 559h63M496 559h119M619 559h60M803 559h161M1011 559h63M1115 559h124M0 560h56M184 560h161M392 560h63M496 560h119M619 560h56M803 560h161M1011 560h63M1115 560h124M0 561h56M175 561h170M392 561h92M496 561h119M619 561h56M794 561h170M1011 561h92M1115 561h124M0 562h56M71 562h2M101 562h19M175 562h170M373 562h1M392 562h92M496 562h119M619 562h56M690 562h2M720 562h19M794 562h170M992 562h1M1011 562h92M1115 562h124M0 563h56M71 563h2M101 563h19M175 563h170M373 563h5M392 563h92M496 563h119M619 563h56M690 563h2M720 563h19M794 563h170M992 563h5M1011 563h92M1115 563h124M0 564h56M65 564h6M101 564h19M175 564h170M356 564h6M373 564h5M392 564h92M496 564h119M619 564h56M684 564h6M720 564h19M794 564h170M975 564h6M992 564h5M1011 564h92M1115 564h124M0 565h61M65 565h6M101 565h25M175 565h177M356 565h6M373 565h5M392 565h92M496 565h119M619 565h61M684 565h6M720 565h25M794 565h177M975 565h6M992 565h5M1011 565h92M1115 565h124M0 566h61M65 566h6M82 566h44M175 566h177M356 566h6M373 566h111M496 566h119M619 566h61M684 566h6M701 566h44M794 566h177M975 566h6M992 566h111M1115 566h124M0 567h61M65 567h6M82 567h44M175 567h177M356 567h6M373 567h111M496 567h119M619 567h61M684 567h6M701 567h44M794 567h177M975 567h6M992 567h111M1115 567h124M0 568h71M82 568h44M133 568h2M182 568h180M373 568h111M496 568h119M619 568h71M701 568h44M752 568h2M801 568h180M992 568h111M1115 568h124M0 569h126M133 569h2M182 569h180M373 569h111M496 569h119M619 569h126M752 569h2M801 569h180M992 569h111M1115 569h124M0 570h126M182 570h180M373 570h111M496 570h119M619 570h126M801 570h180M992 570h111M1115 570h124M0 571h132M182 571h302M496 571h120M619 571h132M801 571h302M1115 571h124M0 572h132M182 572h302M496 572h120M619 572h132M801 572h302M1115 572h124M0 573h132M186 573h298M496 573h120M619 573h132M805 573h298M1115 573h124M0 574h132M186 574h430M619 574h132M805 574h434M0 575h132M186 575h430M619 575h132M805 575h434M0 576h138M186 576h430M619 576h138M805 576h434M0 577h138M186 577h430M619 577h138M805 577h434M0 578h138M186 578h430M619 578h138M805 578h434M0 579h138M165 579h451M619 579h138M784 579h455M0 580h138M162 580h454M619 580h138M781 580h458M0 581h138M162 581h454M619 581h138M781 581h458M0 582h138M162 582h454M619 582h138M781 582h458M0 583h615M619 583h620M0 584h615M619 584h620M0 585h615M619 585h620M0 586h615M619 586h620M0 587h615M619 587h620M0 588h615M619 588h620M0 589h615M619 589h620M0 590h615M619 590h620M0 591h615M619 591h620M0 592h615M619 592h620M0 593h615M619 593h620M0 594h614M619 594h620M0 595h614M619 595h620M0 596h614M619 596h620M0 597h614M619 597h620M0 598h614M619 598h620M0 599h614M619 599h620" />
<path stroke="#312f34" d="M616 525h3M616 526h3M616 527h3M616 528h3M616 529h3M616 530h3M616 531h3M616 532h3M616 533h1M616 534h1M615 535h2M616 536h1M616 537h1M616 538h1M616 539h3M616 540h3M616 541h3M616 542h3" />
<path stroke="#1b1b1d" d="M617 533h2M617 534h2M617 535h2M617 536h2M617 537h2M617 538h2M616 543h3M616 544h3M616 545h3M616 546h3M616 547h3M615 548h4M615 549h4M615 550h4M615 551h4M615 552h4M615 553h4M615 554h4M615 555h4M615 556h4M615 557h4M615 558h4M615 559h4M615 560h4M615 561h4M615 562h4M615 563h4M615 564h4M615 565h4M615 566h4M615 567h4M615 568h4M615 569h4M615 570h4M616 571h3M616 572h3M616 573h3M616 574h3M616 575h3M616 576h3M616 577h3M616 578h3M616 579h3M616 580h3M616 581h3M616 582h3M615 583h4M615 584h4M615 585h4M615 586h4M615 587h4M615 588h4M615 589h4M615 590h4M615 591h4M615 592h4M615 593h4M614 594h5M614 595h5M614 596h5M614 597h5M614 598h5M614 599h5" />
<path stroke="#3a2d3c" d="M91 534h16M382 534h16M710 534h16M1001 534h16M91 535h16M382 535h16M710 535h16M1001 535h16M91 536h16M382 536h16M440 536h21M462 536h2M465 536h3M710 536h16M1001 536h16M1059 536h21M1081 536h2M1084 536h3M91 537h16M382 537h16M440 537h21M462 537h2M465 537h3M710 537h16M1001 537h16M1059 537h21M1081 537h2M1084 537h3M91 538h16M382 538h16M440 538h21M710 538h16M1001 538h16M1059 538h21M80 539h2M86 539h21M377 539h21M440 539h21M699 539h2M705 539h21M996 539h21M1059 539h21M80 540h2M86 540h51M377 540h51M440 540h21M699 540h2M705 540h51M996 540h51M1059 540h21M86 541h51M377 541h51M440 541h21M705 541h51M996 541h51M1059 541h21M86 542h51M377 542h51M440 542h21M705 542h51M996 542h51M1059 542h21M86 543h51M377 543h3M386 543h42M440 543h15M705 543h51M996 543h3M1005 543h42M1059 543h15M77 544h60M366 544h14M386 544h42M435 544h2M440 544h15M696 544h60M985 544h14M1005 544h42M1054 544h2M1059 544h15M70 545h3M77 545h60M164 545h6M366 545h14M386 545h42M435 545h2M440 545h15M689 545h3M696 545h60M783 545h6M985 545h14M1005 545h42M1054 545h2M1059 545h15M70 546h3M77 546h54M133 546h2M164 546h6M386 546h36M424 546h2M428 546h2M437 546h18M689 546h3M696 546h54M752 546h2M783 546h6M1005 546h36M1043 546h2M1047 546h2M1056 546h18M70 547h3M77 547h54M133 547h2M164 547h6M386 547h36M424 547h2M428 547h2M437 547h18M689 547h3M696 547h54M752 547h2M783 547h6M1005 547h36M1043 547h2M1047 547h2M1056 547h18M70 548h59M164 548h6M386 548h11M413 548h7M437 548h18M689 548h59M783 548h6M1005 548h11M1032 548h7M1056 548h18M70 549h59M164 549h6M386 549h11M413 549h7M429 549h26M689 549h59M783 549h6M1005 549h11M1032 549h7M1048 549h26M70 550h49M121 550h4M164 550h6M386 550h11M413 550h3M429 550h26M689 550h49M740 550h4M783 550h6M1005 550h11M1032 550h3M1048 550h26M70 551h49M121 551h4M164 551h6M386 551h11M413 551h1M434 551h21M689 551h49M740 551h4M783 551h6M1005 551h11M1032 551h1M1053 551h21M70 552h49M121 552h7M138 552h1M164 552h6M386 552h11M413 552h1M434 552h21M689 552h49M740 552h7M757 552h1M783 552h6M1005 552h11M1032 552h1M1053 552h21M71 553h57M138 553h2M164 553h6M360 553h6M386 553h11M413 553h5M434 553h20M690 553h57M757 553h2M783 553h6M979 553h6M1005 553h11M1032 553h5M1053 553h20M71 554h52M129 554h10M164 554h6M360 554h6M372 554h7M386 554h11M451 554h3M690 554h52M748 554h10M783 554h6M979 554h6M991 554h7M1005 554h11M1070 554h3M71 555h52M129 555h10M360 555h6M372 555h7M386 555h11M451 555h4M690 555h52M748 555h10M979 555h6M991 555h7M1005 555h11M1070 555h4M71 556h68M360 556h6M372 556h7M386 556h6M451 556h4M690 556h68M979 556h6M991 556h7M1005 556h6M1070 556h4M71 557h85M158 557h1M162 557h1M360 557h6M372 557h20M690 557h85M777 557h1M781 557h1M979 557h6M991 557h20M70 558h86M158 558h5M365 558h27M689 558h86M777 558h5M984 558h27M70 559h86M158 559h5M365 559h27M689 559h86M777 559h5M984 559h27M69 560h87M158 560h5M365 560h27M455 560h2M688 560h87M777 560h5M984 560h27M1074 560h2M56 561h3M67 561h89M158 561h5M365 561h27M675 561h3M686 561h89M777 561h5M984 561h27M58 562h5M73 562h28M120 562h28M158 562h4M365 562h8M374 562h18M677 562h5M692 562h28M739 562h28M777 562h4M984 562h8M993 562h18M58 563h2M73 563h28M120 563h28M365 563h8M378 563h14M677 563h2M692 563h28M739 563h28M984 563h8M997 563h14M58 564h2M71 564h30M120 564h33M362 564h11M378 564h14M677 564h2M690 564h30M739 564h33M981 564h11M997 564h14M71 565h30M126 565h27M362 565h11M378 565h14M690 565h30M745 565h27M981 565h11M997 565h14M71 566h11M126 566h27M362 566h11M690 566h11M745 566h27M981 566h11M71 567h11M126 567h27M362 567h11M690 567h11M745 567h27M981 567h11M71 568h11M126 568h7M135 568h18M362 568h11M690 568h11M745 568h7M754 568h18M981 568h11M126 569h7M135 569h18M157 569h6M362 569h11M745 569h7M754 569h18M776 569h6M981 569h11M126 570h36M745 570h36M132 571h30M751 571h30M132 572h30M751 572h30M132 573h30M751 573h30M132 574h30M751 574h30M132 575h30M751 575h30M138 576h24M757 576h24M138 577h24M757 577h24M138 578h24M757 578h24M138 579h24M757 579h24M138 580h24M757 580h24M138 581h24M757 581h24M138 582h24M757 582h24" />
</svg>