<svg xmlns="http://www.w3.org/2000/svg" viewBox="0 -0.5 851 600" shape-rendering="crispEdges">
<metadata>Made with Pixels to Svg https://codepen.io/shshaw/pen/XbxvNj</metadata>
<path stroke="rgba(163,183,187,0.25098039215686274)" d="M27 503h791M26 504h1M818 504h1M25 505h1M819 505h1M24 506h1M820 506h1M23 507h1M821 507h1M22 508h1M822 508h1M22 509h1M822 509h1M22 510h1M822 510h1M22 511h1M822 511h1M22 512h1M822 512h1M22 513h1M822 513h1M22 514h1M822 514h1M22 515h1M822 515h1M22 516h1M822 516h1M22 517h1M822 517h1M22 518h1M822 518h1M22 519h1M822 519h1M22 520h1M22 521h1M22 522h1M22 523h1M822 549h1M22 550h1M822 550h1M22 551h1M822 551h1M22 552h1M822 552h1M22 553h1M822 553h1M22 554h1M822 554h1M22 555h1M822 555h1M22 556h1M822 556h1M22 557h1M822 557h1M22 558h1M822 558h1M22 559h1M822 559h1M22 560h1M822 560h1M22 561h1M822 561h1M22 562h1M822 562h1M22 563h1M822 563h1M22 564h1M822 564h1M22 565h1M822 565h1M22 566h1M822 566h1M22 567h1M822 567h1M23 568h1M821 568h1M24 569h1M820 569h1M25 570h1M819 570h1M26 571h1M818 571h1M27 572h791" />
<path stroke="rgba(165,181,186,0.5686274509803921)" d="M27 504h791M26 505h1M818 505h1M25 506h1M819 506h1M24 507h1M820 507h1M23 508h1M821 508h1M23 509h1M821 509h1M23 510h1M821 510h1M23 511h1M821 511h1M23 512h1M821 512h1M23 513h1M821 513h1M23 514h1M821 514h1M23 515h1M821 515h1M23 516h1M821 516h1M23 517h1M821 517h1M23 518h1M821 539h1M821 540h1M821 541h1M821 542h1M821 543h1M821 544h1M821 545h1M821 546h1M821 547h1M821 548h1M23 549h1M821 549h1M23 550h1M821 550h1M23 551h1M821 551h1M23 552h1M821 552h1M23 553h1M821 553h1M23 554h1M821 554h1M23 555h1M821 555h1M23 556h1M821 556h1M23 557h1M821 557h1M23 558h1M821 558h1M23 559h1M821 559h1M23 560h1M821 560h1M23 561h1M821 561h1M23 562h1M821 562h1M23 563h1M821 563h1M23 564h1M821 564h1M23 565h1M821 565h1M23 566h1M821 566h1M23 567h1M821 567h1M24 568h1M820 568h1M25 569h1M819 569h1M26 570h1M818 570h1M27 571h791" />
<path stroke="#032c37" d="M27 505h791M26 506h1M818 506h1M25 507h1M819 507h1M24 508h1M29 508h787M820 508h1M24 509h1M28 509h2M815 509h2M820 509h1M24 510h1M27 510h2M816 510h2M820 510h1M24 511h1M27 511h1M817 511h1M820 511h1M24 512h1M27 512h1M817 512h1M820 512h1M24 513h1M27 513h1M817 513h1M820 513h1M24 514h1M27 514h1M817 514h1M820 514h1M24 515h1M27 515h1M817 515h1M820 515h1M24 516h1M27 516h1M817 516h1M820 516h1M24 517h1M27 517h1M817 517h1M820 517h1M24 518h1M27 518h1M817 518h1M820 518h1M24 519h1M27 519h1M817 519h1M820 519h1M24 520h1M27 520h1M817 520h1M820 520h1M24 521h1M27 521h1M817 521h1M820 521h1M24 522h1M27 522h1M817 522h1M820 522h1M24 523h1M27 523h1M817 523h1M820 523h1M24 524h1M27 524h1M817 524h1M820 524h1M24 525h1M27 525h1M817 525h1M820 525h1M24 526h1M27 526h1M817 526h1M820 526h1M24 527h1M27 527h1M817 527h1M820 527h1M24 528h1M27 528h1M817 528h1M820 528h1M24 529h1M27 529h1M817 529h1M820 529h1M24 530h1M27 530h1M817 530h1M820 530h1M24 531h1M27 531h1M817 531h1M820 531h1M24 532h1M27 532h1M817 532h1M820 532h1M24 533h1M27 533h1M817 533h1M820 533h1M24 534h1M27 534h1M817 534h1M820 534h1M24 535h1M27 535h1M817 535h1M820 535h1M24 536h1M27 536h1M817 536h1M820 536h1M24 537h1M27 537h1M817 537h1M820 537h1M24 538h1M27 538h1M817 538h1M820 538h1M24 539h1M27 539h1M817 539h1M820 539h1M24 540h1M27 540h1M817 540h1M820 540h1M24 541h1M27 541h1M817 541h1M820 541h1M24 542h1M27 542h1M817 542h1M820 542h1M24 543h1M27 543h1M817 543h1M820 543h1M24 544h1M27 544h1M817 544h1M820 544h1M24 545h1M27 545h1M817 545h1M820 545h1M24 546h1M27 546h1M817 546h1M820 546h1M24 547h1M27 547h1M817 547h1M820 547h1M24 548h1M27 548h1M817 548h1M820 548h1M24 549h1M27 549h1M817 549h1M820 549h1M24 550h1M27 550h1M817 550h1M820 550h1M24 551h1M27 551h1M817 551h1M820 551h1M24 552h1M27 552h1M817 552h1M820 552h1M24 553h1M27 553h1M817 553h1M820 553h1M24 554h1M27 554h1M817 554h1M820 554h1M24 555h1M27 555h1M817 555h1M820 555h1M24 556h1M27 556h1M817 556h1M820 556h1M24 557h1M27 557h1M817 557h1M820 557h1M24 558h1M27 558h1M817 558h1M820 558h1M24 559h1M27 559h1M817 559h1M820 559h1M24 560h1M27 560h1M817 560h1M820 560h1M24 561h1M27 561h1M817 561h1M820 561h1M24 562h1M27 562h1M817 562h1M820 562h1M24 563h1M27 563h1M817 563h1M820 563h1M24 564h1M27 564h1M817 564h1M820 564h1M24 565h1M27 565h2M816 565h2M820 565h1M24 566h1M28 566h2M815 566h2M820 566h1M24 567h1M29 567h787M820 567h1M25 568h1M819 568h1M26 569h1M818 569h1M27 570h791" />
<path stroke="#044858" d="M27 506h791M26 507h1M818 507h1M25 508h1M27 508h2M816 508h2M819 508h1M25 509h1M27 509h1M817 509h1M819 509h1M25 510h1M819 510h1M25 511h1M819 511h1M25 512h1M819 512h1M25 513h1M819 513h1M25 514h1M819 514h1M25 515h1M819 515h1M25 516h1M819 516h1M25 517h1M819 517h1M25 518h1M819 518h1M25 519h1M819 519h1M25 520h1M819 520h1M25 521h1M819 521h1M25 522h1M819 522h1M25 523h1M819 523h1M25 524h1M819 524h1M25 525h1M819 525h1M25 526h1M819 526h1M25 527h1M819 527h1M25 528h1M819 528h1M25 529h1M819 529h1M25 530h1M819 530h1M25 531h1M819 531h1M25 532h1M819 532h1M25 533h1M819 533h1M25 534h1M819 534h1M25 535h1M819 535h1M25 536h1M819 536h1M25 537h1M819 537h1M25 538h1M819 538h1M25 539h1M819 539h1M25 540h1M819 540h1M25 541h1M819 541h1M25 542h1M819 542h1M25 543h1M819 543h1M25 544h1M819 544h1M25 545h1M819 545h1M25 546h1M819 546h1M25 547h1M819 547h1M25 548h1M819 548h1M25 549h1M819 549h1M25 550h1M819 550h1M25 551h1M819 551h1M25 552h1M819 552h1M25 553h1M819 553h1M25 554h1M819 554h1M25 555h1M819 555h1M25 556h1M819 556h1M25 557h1M819 557h1M25 558h1M819 558h1M25 559h1M819 559h1M25 560h1M819 560h1M25 561h1M819 561h1M25 562h1M819 562h1M25 563h1M819 563h1M25 564h1M819 564h1M25 565h1M819 565h1M25 566h1M27 566h1M817 566h1M819 566h1M25 567h1M27 567h2M816 567h2M819 567h1M26 568h1M818 568h1M27 569h791" />
<path stroke="#7fc4cb" d="M27 507h791M26 508h1M818 508h1M26 509h1M818 509h1M26 510h1M818 510h1M26 511h1M818 511h1M26 512h1M818 512h1M26 513h1M818 513h1M26 514h1M818 514h1M26 515h1M818 515h1M26 516h1M818 516h1M26 517h1M818 517h1M26 518h1M818 518h1M26 519h1M818 519h1M26 520h1M818 520h1M26 521h1M818 521h1M26 522h1M818 522h1M26 523h1M818 523h1M26 524h1M818 524h1M26 525h1M818 525h1M26 526h1M818 526h1M26 527h1M818 527h1M26 528h1M818 528h1M26 529h1M818 529h1M26 530h1M818 530h1M26 531h1M818 531h1M26 532h1M818 532h1M26 533h1M818 533h1M26 534h1M818 534h1M26 535h1M818 535h1M26 536h1M818 536h1M26 537h1M818 537h1M26 538h1M818 538h1M26 539h1M818 539h1M26 540h1M818 540h1M26 541h1M818 541h1M26 542h1M818 542h1M26 543h1M818 543h1M26 544h1M818 544h1M26 545h1M818 545h1M26 546h1M818 546h1M26 547h1M818 547h1M26 548h1M818 548h1M26 549h1M818 549h1M26 550h1M818 550h1M26 551h1M818 551h1M26 552h1M818 552h1M26 553h1M818 553h1M26 554h1M818 554h1M26 555h1M818 555h1M26 556h1M818 556h1M26 557h1M818 557h1M26 558h1M818 558h1M26 559h1M818 559h1M26 560h1M818 560h1M26 561h1M818 561h1M26 562h1M818 562h1M26 563h1M818 563h1M26 564h1M818 564h1M26 565h1M818 565h1M26 566h1M818 566h1M26 567h1M818 567h1M27 568h791" />
<path stroke="rgba(175,228,232,0.7019607843137254)" d="M30 509h785M29 510h787M28 511h789M28 512h789M28 513h789M28 514h789M28 515h789M28 516h789M28 517h22M57 517h7M72 517h173M253 517h55M311 517h3M317 517h211M531 517h3M537 517h142M687 517h55M745 517h3M751 517h66M28 518h22M57 518h6M72 518h172M253 518h55M311 518h3M317 518h211M531 518h3M537 518h141M687 518h55M745 518h3M751 518h66M28 519h21M59 519h3M72 519h171M253 519h55M317 519h211M537 519h140M687 519h55M751 519h66M28 520h20M51 520h5M59 520h2M65 520h177M246 520h64M315 520h215M535 520h141M680 520h64M749 520h68M28 521h19M51 521h5M65 521h177M246 521h64M315 521h215M535 521h141M680 521h64M749 521h68M28 522h18M50 522h8M65 522h177M246 522h430M680 522h137M28 523h18M50 523h8M70 523h3M79 523h1M87 523h1M94 523h1M100 523h1M107 523h1M113 523h3M122 523h5M132 523h9M147 523h1M159 523h1M168 523h5M179 523h5M189 523h2M198 523h1M211 523h1M217 523h3M224 523h9M240 523h2M251 523h3M260 523h1M268 523h1M275 523h1M281 523h1M288 523h1M294 523h3M303 523h3M313 523h1M319 523h7M332 523h1M344 523h2M351 523h4M362 523h1M375 523h1M381 523h1M388 523h1M394 523h1M401 523h1M407 523h5M417 523h1M423 523h3M432 523h5M443 523h1M451 523h1M458 523h1M466 523h1M471 523h1M479 523h1M484 523h3M492 523h5M503 523h1M508 523h2M514 523h3M523 523h3M533 523h1M539 523h5M556 523h3M565 523h3M579 523h1M586 523h1M592 523h1M599 523h1M605 523h1M612 523h1M618 523h1M625 523h1M631 523h6M643 523h1M649 523h3M656 523h11M674 523h2M685 523h3M694 523h1M702 523h1M709 523h1M715 523h1M722 523h1M728 523h3M737 523h3M747 523h1M753 523h64M28 524h18M50 524h8M70 524h3M87 524h1M100 524h1M113 524h3M123 524h4M132 524h9M168 524h5M179 524h5M189 524h2M198 524h1M211 524h1M217 524h2M224 524h9M240 524h2M251 524h3M268 524h1M281 524h1M294 524h3M304 524h2M313 524h1M319 524h7M332 524h1M344 524h2M351 524h4M362 524h1M375 524h1M388 524h1M401 524h1M407 524h5M417 524h1M423 524h2M432 524h5M443 524h1M458 524h1M485 524h2M492 524h4M503 524h1M514 524h3M524 524h2M533 524h1M539 524h5M557 524h2M566 524h2M586 524h1M599 524h1M605 524h1M618 524h1M631 524h5M643 524h1M649 524h2M656 524h11M674 524h2M685 524h3M702 524h1M715 524h1M728 524h3M738 524h2M747 524h1M753 524h64M28 525h18M50 525h8M72 525h1M79 525h1M87 525h1M94 525h1M100 525h1M107 525h1M113 525h1M124 525h1M134 525h5M159 525h1M170 525h1M181 525h1M190 525h1M198 525h1M217 525h1M226 525h5M253 525h1M260 525h1M268 525h1M275 525h1M281 525h1M288 525h1M294 525h1M305 525h1M319 525h5M332 525h1M344 525h2M352 525h3M362 525h1M375 525h1M381 525h1M394 525h1M407 525h5M417 525h1M423 525h1M434 525h1M443 525h1M458 525h1M471 525h1M484 525h1M494 525h1M503 525h1M514 525h1M525 525h1M539 525h5M556 525h1M567 525h1M579 525h1M592 525h1M599 525h1M605 525h1M618 525h1M631 525h6M643 525h1M649 525h3M658 525h7M687 525h1M694 525h1M702 525h1M709 525h1M715 525h1M722 525h1M728 525h1M739 525h1M753 525h27M785 525h11M801 525h16M28 526h18M50 526h8M65 526h4M72 526h3M78 526h4M85 526h5M93 526h2M98 526h5M106 526h2M111 526h3M117 526h4M128 526h3M134 526h5M142 526h3M151 526h1M155 526h1M159 526h2M164 526h3M170 526h1M174 526h4M181 526h1M185 526h3M191 526h2M196 526h3M202 526h4M209 526h1M215 526h2M221 526h2M226 526h5M234 526h5M246 526h4M253 526h3M259 526h4M266 526h5M274 526h2M279 526h5M287 526h2M292 526h3M298 526h4M306 526h2M311 526h1M317 526h7M327 526h2M332 526h1M336 526h1M340 526h1M344 526h6M353 526h4M360 526h3M366 526h4M373 526h3M379 526h4M386 526h1M392 526h4M399 526h1M405 526h9M417 526h1M421 526h2M427 526h4M434 526h1M438 526h2M443 526h3M457 526h4M464 526h1M470 526h4M477 526h2M483 526h2M488 526h3M498 526h2M503 526h3M512 526h3M518 526h4M526 526h2M531 526h1M537 526h9M549 526h2M555 526h2M560 526h4M568 526h2M573 526h1M577 526h4M584 526h1M590 526h4M597 526h3M603 526h5M616 526h5M629 526h9M641 526h3M647 526h8M658 526h7M668 526h5M680 526h4M687 526h3M693 526h4M700 526h5M708 526h2M713 526h5M721 526h2M726 526h3M732 526h4M740 526h2M745 526h1M751 526h29M785 526h11M801 526h16M28 527h18M50 527h8M65 527h4M72 527h3M81 527h1M85 527h5M98 527h5M111 527h3M117 527h4M134 527h5M142 527h3M147 527h1M151 527h1M155 527h1M159 527h2M164 527h3M170 527h1M174 527h4M181 527h1M191 527h2M202 527h4M215 527h2M226 527h5M234 527h5M246 527h4M253 527h3M262 527h1M266 527h5M279 527h5M292 527h3M298 527h4M306 527h2M317 527h7M327 527h3M332 527h1M336 527h1M340 527h1M344 527h2M353 527h4M366 527h4M373 527h3M379 527h4M392 527h4M405 527h9M421 527h2M427 527h4M434 527h1M438 527h3M443 527h3M457 527h4M470 527h4M483 527h2M498 527h2M503 527h3M512 527h3M518 527h4M526 527h2M537 527h9M549 527h2M555 527h2M560 527h4M568 527h2M573 527h1M577 527h4M590 527h4M597 527h3M603 527h5M616 527h5M629 527h9M647 527h5M658 527h7M668 527h5M680 527h4M687 527h3M696 527h1M700 527h5M713 527h5M726 527h3M732 527h4M740 527h2M751 527h27M787 527h7M801 527h16M28 528h18M50 528h8M65 528h4M72 528h3M81 528h1M85 528h5M98 528h5M111 528h3M117 528h4M134 528h5M142 528h10M155 528h6M164 528h3M170 528h1M174 528h4M181 528h1M191 528h2M202 528h4M211 528h1M215 528h2M226 528h5M234 528h5M246 528h4M253 528h3M262 528h1M266 528h5M279 528h5M292 528h3M298 528h4M306 528h2M313 528h1M317 528h7M327 528h10M340 528h6M353 528h4M366 528h4M373 528h3M379 528h4M388 528h1M392 528h4M401 528h1M405 528h9M419 528h4M427 528h4M434 528h1M438 528h8M449 528h1M457 528h4M470 528h4M483 528h2M498 528h8M511 528h4M518 528h4M526 528h2M533 528h1M537 528h9M549 528h2M555 528h2M560 528h4M568 528h2M573 528h1M577 528h4M586 528h1M590 528h4M597 528h3M603 528h5M616 528h5M629 528h9M647 528h4M658 528h7M668 528h5M680 528h4M687 528h3M696 528h1M700 528h5M713 528h5M726 528h3M732 528h4M740 528h2M747 528h1M751 528h27M787 528h7M801 528h16M28 529h19M51 529h5M65 529h4M72 529h3M81 529h1M85 529h5M98 529h5M111 529h3M117 529h4M134 529h5M142 529h10M155 529h6M164 529h3M170 529h1M174 529h4M181 529h1M190 529h3M202 529h4M211 529h1M215 529h2M226 529h5M234 529h5M246 529h4M253 529h3M262 529h1M266 529h5M279 529h5M292 529h3M298 529h4M306 529h2M313 529h1M317 529h7M327 529h10M340 529h4M353 529h4M366 529h4M373 529h3M379 529h4M388 529h1M392 529h4M401 529h1M405 529h9M421 529h2M427 529h4M434 529h1M438 529h8M449 529h1M457 529h4M470 529h4M483 529h2M498 529h8M512 529h3M518 529h4M526 529h2M533 529h1M537 529h9M549 529h2M555 529h2M560 529h4M568 529h2M573 529h1M577 529h4M586 529h1M590 529h4M597 529h3M603 529h5M612 529h1M616 529h5M625 529h1M629 529h9M647 529h3M658 529h7M668 529h5M680 529h4M687 529h3M696 529h1M700 529h5M713 529h5M726 529h3M732 529h4M740 529h2M747 529h1M751 529h27M789 529h3M801 529h16M28 530h20M59 530h2M72 530h2M86 530h8M99 530h3M107 530h1M112 530h2M133 530h6M147 530h4M156 530h5M170 530h1M181 530h1M190 530h2M197 530h2M203 530h2M210 530h2M216 530h1M225 530h6M253 530h2M267 530h8M280 530h3M288 530h1M293 530h2M306 530h1M312 530h2M318 530h6M331 530h5M341 530h3M354 530h2M361 530h2M367 530h2M380 530h2M387 530h2M393 530h2M400 530h2M406 530h7M422 530h1M434 530h1M442 530h3M449 530h1M457 530h3M465 530h1M471 530h8M484 530h1M493 530h1M502 530h3M513 530h2M526 530h1M532 530h2M538 530h7M550 530h1M556 530h1M568 530h1M573 530h1M578 530h2M585 530h2M591 530h2M604 530h3M612 530h1M617 530h3M625 530h1M630 530h7M642 530h2M648 530h1M659 530h6M687 530h2M701 530h8M714 530h3M722 530h1M727 530h2M740 530h1M746 530h2M752 530h26M789 530h3M801 530h16M28 531h21M58 531h4M71 531h2M87 531h6M100 531h1M113 531h2M124 531h2M134 531h6M148 531h2M157 531h4M169 531h3M180 531h3M198 531h1M211 531h1M217 531h1M226 531h6M241 531h2M252 531h2M268 531h6M281 531h1M294 531h2M305 531h1M313 531h1M319 531h6M332 531h3M342 531h3M362 531h1M388 531h1M401 531h1M407 531h5M423 531h1M433 531h3M443 531h1M449 531h1M458 531h1M472 531h6M485 531h1M494 531h1M503 531h1M514 531h2M525 531h1M533 531h1M539 531h5M557 531h1M567 531h1M572 531h2M586 531h1M605 531h1M618 531h1M631 531h5M643 531h1M649 531h1M660 531h6M675 531h2M686 531h2M702 531h6M715 531h1M728 531h2M739 531h1M747 531h1M753 531h25M801 531h16M28 532h22M57 532h6M70 532h3M87 532h6M100 532h1M113 532h3M123 532h4M134 532h7M148 532h2M157 532h4M168 532h5M179 532h5M198 532h1M211 532h1M217 532h2M226 532h7M240 532h4M251 532h3M268 532h6M281 532h1M294 532h3M304 532h2M313 532h1M319 532h7M332 532h3M342 532h4M362 532h1M388 532h1M401 532h1M407 532h5M419 532h1M423 532h2M432 532h5M443 532h1M449 532h1M458 532h1M472 532h6M485 532h2M494 532h2M503 532h1M514 532h3M524 532h2M533 532h1M539 532h5M557 532h2M566 532h2M571 532h3M586 532h1M605 532h1M618 532h1M631 532h5M643 532h1M649 532h2M660 532h7M674 532h4M685 532h3M702 532h6M715 532h1M728 532h3M738 532h2M747 532h1M753 532h27M799 532h18M28 533h23M56 533h8M69 533h5M86 533h8M99 533h3M107 533h2M112 533h5M122 533h6M133 533h9M147 533h4M156 533h5M167 533h7M178 533h7M190 533h2M197 533h3M203 533h2M210 533h3M216 533h4M225 533h9M239 533h6M250 533h5M267 533h8M280 533h3M288 533h2M293 533h5M303 533h4M312 533h3M318 533h9M331 533h5M341 533h6M354 533h2M361 533h3M367 533h2M381 533h1M387 533h3M393 533h2M400 533h3M406 533h7M418 533h3M422 533h4M431 533h7M442 533h3M448 533h3M452 533h2M457 533h3M465 533h2M471 533h8M484 533h4M493 533h4M502 533h3M510 533h2M513 533h5M523 533h4M532 533h3M538 533h7M550 533h2M556 533h4M565 533h4M570 533h5M578 533h2M585 533h3M591 533h2M605 533h2M612 533h2M617 533h3M625 533h2M630 533h7M642 533h3M648 533h4M659 533h9M673 533h6M684 533h5M701 533h8M714 533h3M722 533h2M727 533h5M737 533h4M746 533h3M752 533h28M799 533h18M28 534h132M165 534h213M381 534h221M605 534h177M797 534h20M28 535h131M166 535h213M380 535h223M604 535h178M797 535h20M28 536h132M166 536h618M795 536h22M28 537h756M795 537h22M28 538h756M795 538h22M28 539h754M797 539h20M28 540h123M154 540h3M160 540h622M797 540h20M28 541h123M154 541h3M160 541h620M799 541h18M28 542h77M107 542h1M111 542h40M160 542h620M789 542h3M799 542h18M28 543h76M107 543h1M111 543h42M158 543h620M789 543h3M801 543h16M28 544h77M107 544h1M111 544h42M158 544h620M787 544h7M801 544h16M28 545h750M787 545h7M801 545h16M28 546h21M55 546h3M68 546h1M79 546h3M87 546h4M102 546h3M109 546h3M118 546h1M124 546h1M132 546h1M137 546h3M146 546h3M156 546h1M162 546h5M179 546h1M190 546h3M198 546h5M209 546h1M215 546h3M222 546h3M235 546h3M243 546h535M785 546h11M801 546h16M28 547h20M55 547h3M68 547h1M80 547h2M87 547h4M102 547h2M109 547h3M124 547h1M138 547h2M147 547h2M156 547h1M162 547h5M191 547h2M198 547h4M209 547h1M215 547h2M222 547h3M236 547h2M243 547h535M785 547h11M801 547h16M28 548h19M57 548h1M68 548h1M79 548h3M88 548h3M102 548h1M111 548h1M118 548h1M124 548h1M137 548h1M148 548h1M162 548h5M179 548h1M190 548h3M200 548h3M209 548h1M215 548h1M224 548h1M244 548h573M28 549h18M50 549h4M57 549h1M68 549h3M74 549h1M78 549h8M89 549h4M96 549h1M100 549h2M106 549h2M111 549h3M117 549h2M122 549h5M130 549h2M136 549h2M141 549h4M149 549h2M154 549h1M160 549h9M172 549h2M178 549h4M185 549h1M189 549h8M200 549h4M207 549h3M213 549h2M219 549h2M224 549h1M228 549h1M239 549h3M245 549h572M28 550h18M50 550h4M57 550h1M68 550h3M74 550h1M78 550h4M89 550h4M96 550h1M100 550h2M111 550h3M122 550h5M136 550h2M141 550h4M149 550h2M160 550h9M172 550h2M178 550h4M185 550h1M189 550h4M200 550h4M213 550h2M224 550h1M228 550h1M232 550h1M235 550h1M245 550h572M28 551h18M50 551h4M57 551h4M65 551h6M74 551h1M78 551h4M89 551h4M96 551h1M100 551h2M111 551h3M122 551h5M136 551h2M141 551h4M149 551h2M156 551h1M160 551h9M172 551h2M178 551h4M185 551h1M189 551h4M200 551h4M213 551h2M224 551h5M232 551h4M245 551h572M28 552h18M50 552h4M57 552h4M65 552h4M74 552h1M78 552h2M89 552h4M96 552h1M100 552h2M111 552h3M122 552h5M136 552h2M141 552h4M149 552h2M156 552h1M160 552h9M172 552h2M178 552h4M185 552h1M189 552h2M200 552h4M213 552h2M224 552h5M232 552h4M244 552h573M28 553h18M57 553h4M65 553h4M79 553h1M90 553h2M96 553h1M101 553h1M110 553h3M118 553h1M123 553h3M131 553h1M137 553h1M149 553h1M155 553h2M161 553h7M173 553h1M179 553h2M185 553h1M190 553h1M201 553h2M208 553h2M214 553h1M223 553h5M233 553h3M244 553h2M248 553h569M28 554h19M56 554h4M66 554h3M80 554h1M95 554h2M102 554h1M111 554h1M124 554h1M138 554h1M148 554h1M156 554h1M162 554h5M184 554h2M191 554h1M209 554h1M215 554h1M224 554h3M234 554h3M249 554h568M28 555h20M55 555h5M66 555h3M80 555h2M94 555h3M102 555h2M111 555h1M124 555h1M138 555h2M147 555h2M156 555h1M162 555h5M183 555h3M191 555h2M209 555h1M215 555h2M224 555h3M234 555h4M249 555h568M28 556h21M54 556h7M65 556h4M80 556h3M90 556h2M93 556h5M101 556h4M110 556h3M118 556h2M123 556h3M131 556h2M137 556h4M146 556h4M155 556h3M161 556h7M173 556h2M179 556h2M182 556h5M190 556h4M201 556h2M208 556h3M214 556h4M223 556h5M233 556h6M244 556h2M248 556h569M28 557h41M72 557h4M80 557h737M28 558h42M71 558h6M79 558h738M28 559h789M28 560h789M28 561h789M28 562h789M28 563h789M28 564h789M29 565h787M30 566h785" />
<path stroke="rgba(162,218,222,0.7215686274509804)" d="M50 517h1M308 517h1M316 517h1M528 517h1M536 517h1M742 517h1M750 517h1M63 518h1M244 518h1M678 518h1M48 520h1M61 520h1M64 520h1M242 520h1M245 520h1M676 520h1M679 520h1M61 521h1M64 521h1M242 521h1M245 521h1M676 521h1M679 521h1M46 522h1M49 522h1M61 522h1M64 522h1M242 522h1M245 522h1M676 522h1M679 522h1M46 523h1M49 523h1M61 523h1M242 523h1M676 523h1M46 524h1M49 524h1M61 524h1M79 524h1M94 524h1M107 524h1M122 524h1M147 524h1M159 524h1M219 524h1M242 524h1M260 524h1M275 524h1M288 524h1M303 524h1M381 524h1M394 524h1M425 524h1M451 524h1M466 524h1M471 524h1M479 524h1M484 524h1M496 524h1M508 524h2M523 524h1M556 524h1M565 524h1M579 524h1M592 524h1M612 524h1M625 524h1M636 524h1M651 524h1M676 524h1M694 524h1M709 524h1M722 524h1M737 524h1M46 525h1M49 525h1M61 525h1M147 525h1M242 525h1M451 525h1M479 525h1M508 525h2M676 525h1M46 526h1M49 526h1M61 526h1M64 526h1M77 526h1M92 526h1M105 526h1M121 526h1M124 526h1M147 526h1M161 526h1M190 526h1M217 526h1M220 526h1M242 526h1M245 526h1M258 526h1M273 526h1M286 526h1M302 526h1M305 526h1M329 526h1M352 526h1M383 526h1M396 526h1M423 526h1M426 526h1M440 526h1M451 526h1M456 526h1M469 526h1M479 526h1M482 526h1M494 526h1M497 526h1M508 526h2M522 526h1M525 526h1M551 526h1M554 526h1M564 526h1M567 526h1M581 526h1M594 526h1M610 526h2M623 526h2M638 526h1M676 526h1M679 526h1M692 526h1M707 526h1M720 526h1M736 526h1M739 526h1M46 527h1M49 527h1M61 527h1M64 527h1M121 527h1M124 527h1M148 527h1M158 527h1M161 527h1M190 527h1M217 527h1M242 527h1M245 527h1M302 527h1M305 527h1M333 527h1M343 527h1M352 527h1M383 527h1M396 527h1M420 527h1M423 527h1M426 527h1M456 527h1M469 527h1M482 527h1M494 527h1M497 527h1M500 527h1M522 527h1M525 527h1M551 527h1M554 527h1M564 527h1M567 527h1M581 527h1M594 527h1M638 527h1M676 527h1M679 527h1M736 527h1M739 527h1M46 528h1M49 528h1M61 528h1M64 528h1M121 528h1M124 528h1M161 528h1M190 528h1M217 528h1M242 528h1M245 528h1M302 528h1M305 528h1M352 528h1M383 528h1M396 528h1M423 528h1M426 528h1M452 528h2M456 528h1M466 528h1M469 528h1M482 528h1M494 528h1M497 528h1M510 528h1M522 528h1M525 528h1M551 528h1M554 528h1M564 528h1M567 528h1M581 528h1M594 528h1M612 528h1M625 528h1M638 528h1M651 528h1M676 528h1M679 528h1M736 528h1M739 528h1M60 529h2M64 529h1M121 529h1M124 529h1M133 529h1M161 529h1M217 529h1M242 529h1M245 529h1M302 529h1M305 529h1M352 529h1M383 529h1M396 529h1M423 529h1M426 529h1M452 529h2M456 529h1M465 529h2M469 529h1M482 529h1M493 529h2M497 529h1M522 529h1M525 529h1M551 529h1M554 529h1M564 529h1M567 529h1M581 529h1M594 529h1M638 529h1M676 529h1M679 529h1M736 529h1M739 529h1M48 530h1M51 530h5M61 530h1M64 530h5M74 530h1M77 530h2M81 530h1M85 530h1M94 530h1M98 530h1M102 530h1M105 530h2M111 530h1M117 530h5M124 530h1M128 530h5M142 530h5M151 530h1M155 530h1M161 530h1M164 530h3M174 530h4M185 530h5M192 530h1M196 530h1M202 530h1M205 530h1M209 530h1M215 530h1M217 530h1M220 530h5M234 530h5M242 530h1M245 530h5M255 530h1M258 530h2M262 530h1M266 530h1M275 530h1M279 530h1M283 530h1M286 530h2M292 530h1M298 530h5M305 530h1M307 530h1M311 530h1M317 530h1M327 530h4M336 530h1M340 530h1M347 530h3M352 530h2M356 530h1M360 530h1M366 530h1M369 530h1M373 530h3M379 530h1M382 530h2M386 530h1M392 530h1M395 530h2M399 530h1M405 530h1M413 530h1M417 530h1M421 530h1M423 530h1M426 530h5M438 530h4M445 530h1M452 530h2M456 530h1M460 530h1M464 530h1M466 530h1M469 530h2M479 530h1M482 530h2M488 530h5M494 530h1M497 530h5M505 530h1M508 530h2M512 530h1M518 530h5M525 530h1M527 530h1M531 530h1M537 530h1M545 530h1M549 530h1M551 530h1M554 530h2M560 530h5M567 530h1M569 530h1M577 530h1M580 530h2M584 530h1M590 530h1M593 530h2M597 530h3M603 530h1M607 530h1M610 530h2M616 530h1M620 530h1M623 530h2M629 530h1M637 530h2M641 530h1M647 530h1M649 530h1M652 530h3M658 530h1M668 530h5M676 530h1M679 530h5M689 530h1M692 530h2M696 530h1M700 530h1M709 530h1M713 530h1M717 530h1M720 530h2M726 530h1M732 530h5M739 530h1M741 530h1M745 530h1M751 530h1M49 531h1M57 531h1M62 531h2M70 531h1M93 531h1M107 531h1M115 531h1M122 531h2M126 531h1M140 531h1M147 531h1M161 531h1M168 531h1M172 531h1M179 531h1M183 531h1M190 531h1M218 531h2M232 531h1M240 531h1M243 531h2M251 531h1M274 531h1M288 531h1M296 531h1M303 531h2M325 531h1M345 531h1M354 531h1M381 531h1M394 531h1M419 531h1M424 531h2M432 531h1M436 531h1M452 531h2M466 531h1M471 531h1M484 531h1M486 531h1M495 531h2M510 531h1M516 531h1M523 531h2M551 531h1M556 531h1M558 531h1M565 531h2M571 531h1M579 531h1M592 531h1M612 531h1M625 531h1M636 531h1M650 531h2M666 531h1M674 531h1M677 531h2M685 531h1M708 531h1M722 531h1M730 531h1M737 531h2M63 532h1M93 532h1M107 532h1M122 532h1M147 532h1M161 532h1M190 532h1M219 532h1M244 532h1M274 532h1M288 532h1M303 532h1M354 532h1M381 532h1M394 532h1M425 532h1M452 532h2M466 532h1M471 532h1M484 532h1M496 532h1M510 532h1M523 532h1M551 532h1M556 532h1M565 532h1M579 532h1M592 532h1M612 532h1M625 532h1M636 532h1M651 532h1M678 532h1M708 532h1M722 532h1M737 532h1M51 533h5M64 533h5M74 533h12M94 533h5M102 533h5M109 533h3M117 533h5M128 533h5M142 533h5M151 533h5M161 533h1M164 533h3M174 533h4M185 533h5M192 533h5M200 533h3M205 533h5M213 533h3M220 533h5M234 533h5M245 533h5M255 533h12M275 533h5M283 533h5M290 533h3M298 533h5M307 533h5M315 533h3M327 533h4M336 533h5M347 533h7M356 533h5M364 533h3M369 533h9M382 533h5M390 533h3M395 533h5M403 533h3M413 533h5M421 533h1M426 533h5M438 533h4M445 533h3M451 533h1M454 533h3M460 533h5M467 533h4M479 533h5M488 533h5M497 533h5M505 533h5M512 533h1M518 533h5M527 533h5M535 533h3M545 533h5M552 533h4M560 533h5M569 533h1M575 533h3M580 533h5M588 533h3M593 533h9M607 533h5M614 533h3M620 533h5M627 533h3M637 533h5M645 533h3M652 533h7M668 533h5M679 533h5M689 533h12M709 533h5M717 533h5M724 533h3M732 533h5M741 533h5M749 533h3M160 534h2M164 534h1M159 535h1M379 535h1M603 535h1M151 540h1M159 540h1M108 542h1M104 543h1M48 547h1M79 547h1M104 547h1M118 547h1M132 547h1M137 547h1M146 547h1M179 547h1M190 547h1M202 547h1M217 547h1M235 547h1M132 548h1M235 548h1M46 549h1M49 549h1M61 549h1M64 549h1M77 549h1M88 549h1M102 549h1M105 549h1M116 549h1M132 549h1M135 549h1M145 549h1M148 549h1M174 549h1M177 549h1M188 549h1M204 549h1M215 549h1M218 549h1M232 549h1M235 549h1M244 549h1M46 550h1M49 550h1M60 550h2M64 550h2M77 550h1M88 550h1M102 550h1M135 550h1M145 550h1M148 550h1M174 550h1M177 550h1M188 550h1M204 550h1M215 550h1M244 550h1M46 551h1M49 551h1M61 551h1M64 551h1M77 551h1M88 551h1M102 551h1M135 551h1M145 551h1M148 551h1M174 551h1M177 551h1M188 551h1M204 551h1M215 551h1M244 551h1M46 552h1M49 552h1M61 552h1M64 552h1M73 552h1M77 552h1M88 552h1M102 552h1M135 552h1M145 552h1M148 552h1M174 552h1M177 552h1M188 552h1M204 552h1M215 552h1M46 553h1M49 553h5M61 553h1M64 553h1M72 553h3M77 553h2M83 553h3M88 553h2M92 553h1M100 553h1M102 553h1M105 553h5M113 553h1M116 553h2M122 553h1M126 553h1M130 553h1M132 553h1M135 553h2M141 553h5M148 553h1M150 553h1M154 553h1M160 553h1M168 553h1M172 553h1M174 553h1M177 553h2M181 553h1M188 553h2M194 553h3M200 553h1M203 553h2M207 553h1M213 553h1M215 553h1M218 553h5M228 553h1M232 553h1M239 553h5M246 553h2M47 554h2M55 554h1M79 554h1M81 554h1M90 554h1M94 554h1M103 554h2M118 554h1M132 554h1M137 554h1M139 554h1M146 554h2M174 554h1M179 554h1M183 554h1M190 554h1M192 554h1M202 554h1M216 554h2M233 554h1M237 554h1M244 554h2M248 554h1M48 555h1M79 555h1M90 555h1M104 555h1M118 555h1M132 555h1M137 555h1M146 555h1M174 555h1M179 555h1M190 555h1M202 555h1M217 555h1M233 555h1M244 555h2M248 555h1M49 556h5M61 556h4M72 556h5M79 556h1M83 556h7M92 556h1M98 556h3M105 556h5M113 556h5M120 556h3M126 556h5M133 556h4M141 556h5M150 556h5M158 556h3M168 556h5M175 556h4M181 556h1M187 556h3M194 556h7M203 556h5M211 556h3M218 556h5M228 556h5M239 556h5M246 556h2M76 557h1M79 557h1M70 558h1M77 558h2" />
<path stroke="rgba(119,175,179,0.8)" d="M51 517h5M64 517h7M245 517h7M309 517h1M315 517h1M529 517h1M535 517h1M679 517h7M743 517h1M749 517h1M50 518h1M308 518h1M316 518h1M528 518h1M536 518h1M742 518h1M750 518h1M49 519h1M57 519h1M62 519h2M243 519h2M311 519h3M531 519h3M677 519h2M745 519h3M314 520h1M534 520h1M748 520h1M56 521h1M310 521h1M530 521h1M744 521h1M60 522h1M60 523h1M69 523h1M86 523h1M116 523h1M131 523h1M141 523h1M167 523h1M184 523h1M197 523h1M210 523h1M250 523h1M267 523h1M297 523h1M312 523h1M346 523h1M361 523h1M374 523h1M389 523h1M393 523h1M402 523h1M406 523h1M416 523h1M418 523h1M431 523h1M444 523h1M459 523h1M472 523h1M491 523h1M502 523h1M517 523h1M532 523h1M544 523h1M559 523h1M587 523h1M591 523h1M600 523h1M604 523h1M644 523h1M648 523h1M684 523h1M701 523h1M731 523h1M746 523h1M60 524h1M80 524h1M95 524h1M108 524h1M127 524h1M148 524h1M158 524h1M188 524h1M191 524h1M203 524h2M216 524h1M233 524h1M239 524h1M261 524h1M276 524h1M289 524h1M306 524h1M318 524h1M333 524h1M343 524h1M350 524h1M355 524h1M367 524h2M380 524h1M412 524h1M422 524h1M450 524h1M465 524h1M478 524h1M487 524h1M526 524h1M538 524h1M568 524h1M578 524h1M613 524h1M626 524h1M667 524h1M673 524h1M695 524h1M710 524h1M723 524h1M740 524h1M752 524h1M60 525h1M71 525h1M86 525h1M95 525h1M108 525h1M114 525h1M139 525h1M148 525h1M158 525h1M169 525h1M182 525h1M197 525h1M225 525h1M252 525h1M267 525h1M276 525h1M289 525h1M295 525h1M333 525h1M343 525h1M346 525h1M361 525h1M374 525h1M393 525h1M406 525h1M433 525h1M444 525h1M450 525h1M459 525h1M472 525h1M515 525h1M544 525h1M557 525h1M591 525h1M604 525h1M648 525h1M657 525h1M686 525h1M701 525h1M710 525h1M723 525h1M729 525h1M60 526h1M82 526h1M95 526h1M108 526h1M125 526h1M133 526h1M148 526h1M158 526h1M173 526h1M178 526h1M193 526h1M201 526h1M206 526h1M214 526h1M223 526h1M231 526h1M241 526h1M263 526h1M276 526h1M289 526h1M308 526h1M316 526h1M326 526h1M333 526h1M343 526h1M357 526h1M365 526h1M370 526h1M378 526h1M387 526h1M400 526h1M414 526h1M420 526h1M437 526h1M450 526h1M463 526h1M476 526h1M485 526h1M493 526h1M500 526h1M528 526h1M536 526h1M548 526h1M570 526h1M576 526h1M585 526h1M655 526h1M665 526h1M675 526h1M697 526h1M710 526h1M723 526h1M742 526h1M750 526h1M60 527h1M82 527h1M125 527h1M133 527h1M146 527h1M149 527h1M157 527h1M173 527h1M178 527h1M193 527h1M201 527h1M206 527h1M211 527h1M214 527h1M231 527h1M241 527h1M263 527h1M308 527h1M313 527h1M316 527h1M326 527h1M330 527h1M334 527h1M342 527h1M357 527h1M365 527h1M370 527h1M378 527h1M388 527h1M401 527h1M414 527h1M419 527h1M437 527h1M441 527h1M449 527h1M452 527h2M466 527h1M485 527h1M493 527h1M501 527h1M510 527h1M528 527h1M533 527h1M536 527h1M548 527h1M570 527h1M576 527h1M586 527h1M612 527h1M625 527h1M665 527h1M675 527h1M697 527h1M742 527h1M747 527h1M750 527h1M60 528h1M82 528h1M125 528h1M133 528h1M173 528h1M178 528h1M193 528h1M201 528h1M206 528h1M214 528h1M231 528h1M241 528h1M263 528h1M308 528h1M316 528h1M326 528h1M357 528h1M365 528h1M370 528h1M378 528h1M414 528h1M437 528h1M448 528h1M465 528h1M485 528h1M493 528h1M528 528h1M536 528h1M548 528h1M570 528h1M576 528h1M613 528h1M626 528h1M665 528h1M675 528h1M697 528h1M742 528h1M750 528h1M47 529h2M59 529h1M77 529h2M82 529h1M91 529h4M105 529h3M125 529h1M128 529h5M173 529h1M178 529h1M185 529h5M193 529h1M196 529h3M201 529h1M206 529h1M209 529h1M214 529h1M220 529h5M231 529h1M241 529h1M258 529h2M263 529h1M272 529h4M286 529h3M308 529h1M311 529h1M316 529h1M326 529h1M347 529h3M357 529h1M360 529h3M365 529h1M370 529h1M378 529h1M386 529h1M399 529h1M414 529h1M417 529h1M437 529h1M448 529h1M464 529h1M475 529h5M485 529h1M488 529h5M508 529h2M528 529h1M531 529h1M536 529h1M548 529h1M570 529h1M576 529h1M584 529h1M610 529h2M613 529h1M623 529h2M626 529h1M641 529h3M652 529h3M665 529h1M675 529h1M692 529h2M697 529h1M706 529h4M720 529h3M742 529h1M745 529h1M750 529h1M82 530h1M95 530h1M108 530h1M125 530h1M173 530h1M178 530h1M193 530h1M201 530h1M206 530h1M214 530h1M231 530h1M241 530h1M263 530h1M276 530h1M289 530h1M308 530h1M316 530h1M326 530h1M357 530h1M365 530h1M370 530h1M378 530h1M414 530h1M420 530h1M437 530h1M448 530h1M463 530h1M485 530h1M528 530h1M536 530h1M548 530h1M570 530h1M576 530h1M613 530h1M626 530h1M655 530h1M665 530h1M675 530h1M697 530h1M710 530h1M723 530h1M742 530h1M750 530h1M50 531h1M108 531h1M127 531h1M133 531h1M150 531h1M156 531h1M191 531h1M203 531h2M216 531h1M233 531h1M239 531h1M289 531h1M306 531h1M318 531h1M335 531h1M341 531h1M355 531h1M367 531h2M380 531h1M412 531h1M422 531h1M448 531h1M465 531h1M487 531h1M493 531h1M511 531h1M526 531h1M538 531h1M550 531h1M568 531h1M578 531h1M613 531h1M626 531h1M667 531h1M673 531h1M723 531h1M740 531h1M752 531h1M50 532h1M108 532h1M127 532h1M133 532h1M150 532h1M156 532h1M191 532h1M203 532h2M216 532h1M233 532h1M239 532h1M289 532h1M306 532h1M318 532h1M335 532h1M341 532h1M355 532h1M367 532h2M380 532h1M412 532h1M422 532h1M448 532h1M465 532h1M487 532h1M493 532h1M511 532h1M526 532h1M538 532h1M550 532h1M568 532h1M578 532h1M613 532h1M626 532h1M667 532h1M673 532h1M723 532h1M740 532h1M752 532h1M380 533h1M380 534h1M152 540h1M158 540h1M151 541h1M159 541h1M105 542h1M109 542h1M154 542h3M108 543h1M157 543h1M110 544h1M153 544h1M54 546h1M69 546h1M82 546h1M125 546h1M140 546h1M155 546h1M167 546h1M180 546h1M197 546h1M210 546h1M214 546h1M225 546h1M238 546h1M86 547h1M91 547h1M101 547h1M119 547h1M131 547h1M149 547h1M161 547h1M193 547h1M242 547h1M56 548h1M69 548h1M82 548h1M110 548h1M119 548h1M125 548h1M138 548h1M167 548h1M180 548h1M214 548h1M223 548h1M236 548h1M60 549h1M65 549h1M73 549h1M93 549h1M99 549h1M108 549h1M119 549h1M129 549h1M151 549h1M159 549h1M171 549h1M184 549h1M199 549h1M221 549h1M231 549h1M59 550h1M66 550h1M73 550h1M93 550h1M99 550h1M151 550h1M156 550h1M159 550h1M171 550h1M184 550h1M199 550h1M226 550h1M231 550h1M233 550h2M73 551h1M93 551h1M99 551h1M151 551h1M159 551h1M171 551h1M184 551h1M193 551h1M199 551h1M231 551h1M72 552h1M83 552h3M93 552h1M99 552h1M105 552h5M116 552h3M130 552h3M151 552h1M154 552h1M159 552h1M171 552h1M184 552h1M194 552h3M199 552h1M207 552h3M218 552h5M231 552h1M239 552h5M93 553h1M99 553h1M119 553h1M129 553h1M151 553h1M159 553h1M171 553h1M184 553h1M191 553h1M199 553h1M231 553h1M91 554h1M101 554h1M119 554h1M131 554h1M149 554h1M161 554h1M173 554h1M193 554h1M201 554h1M91 555h1M101 555h1M119 555h1M131 555h1M149 555h1M161 555h1M173 555h1M193 555h1M201 555h1" />
<path stroke="rgba(151,208,212,0.7411764705882353)" d="M56 517h1M71 517h1M252 517h1M310 517h1M530 517h1M686 517h1M744 517h1M58 519h1M60 521h1M314 521h1M534 521h1M748 521h1M80 523h1M95 523h1M108 523h1M127 523h1M148 523h1M158 523h1M188 523h1M191 523h1M203 523h2M216 523h1M233 523h1M239 523h1M261 523h1M276 523h1M289 523h1M306 523h1M318 523h1M333 523h1M343 523h1M350 523h1M355 523h1M367 523h2M380 523h1M412 523h1M422 523h1M450 523h1M465 523h1M478 523h1M487 523h1M526 523h1M538 523h1M568 523h1M578 523h1M613 523h1M626 523h1M667 523h1M673 523h1M695 523h1M710 523h1M723 523h1M740 523h1M752 523h1M80 525h1M125 525h1M133 525h1M191 525h1M203 525h2M216 525h1M231 525h1M241 525h1M261 525h1M306 525h1M318 525h1M355 525h1M367 525h2M380 525h1M412 525h1M422 525h1M478 525h1M485 525h1M493 525h1M526 525h1M538 525h1M568 525h1M578 525h1M665 525h1M675 525h1M695 525h1M740 525h1M752 525h1M502 527h1M210 529h1M225 529h1M312 529h1M474 529h1M532 529h1M746 529h1M153 540h1M110 542h1M108 544h1M157 544h1M86 546h1M91 546h1M101 546h1M119 546h1M131 546h1M149 546h1M161 546h1M193 546h1M242 546h1M91 548h1M101 548h1M131 548h1M149 548h1M161 548h1M193 548h1M199 548h1M225 550h1M227 550h1M110 552h1M155 552h1M223 552h1" />
<path stroke="rgba(131,187,190,0.7803921568627451)" d="M314 517h1M534 517h1M748 517h1M308 519h1M316 519h1M528 519h1M536 519h1M742 519h1M750 519h1M145 527h1M150 527h1M156 527h1M331 527h1M335 527h1M341 527h1M442 527h1M511 527h1M90 529h1M271 529h1M387 529h1M400 529h1M420 529h1M585 529h1M705 529h1M157 540h1M106 542h1M151 542h1M159 542h1M58 550h1M67 550h1M193 550h1M191 552h1" />
<path stroke="#00383e" d="M51 518h5M64 518h7M245 518h7M309 518h1M315 518h1M529 518h1M535 518h1M679 518h7M743 518h1M749 518h1M49 520h1M57 520h1M62 520h2M243 520h2M311 520h3M531 520h3M677 520h2M745 520h3M62 521h2M243 521h2M677 521h2M47 522h2M59 522h1M62 522h2M243 522h2M677 522h2M47 523h2M59 523h1M62 523h2M243 523h2M677 523h2M47 524h2M59 524h1M62 524h7M74 524h5M81 524h5M89 524h5M96 524h3M102 524h5M109 524h3M117 524h5M128 524h3M142 524h5M149 524h9M160 524h7M174 524h4M185 524h3M192 524h5M200 524h3M205 524h5M213 524h3M220 524h3M234 524h5M243 524h7M255 524h5M262 524h5M270 524h5M277 524h3M283 524h5M290 524h3M298 524h5M307 524h5M315 524h3M327 524h4M334 524h9M347 524h3M356 524h5M364 524h3M369 524h5M377 524h3M382 524h5M390 524h3M395 524h5M403 524h3M413 524h3M419 524h3M426 524h5M438 524h4M445 524h5M452 524h5M460 524h5M467 524h4M473 524h5M480 524h4M488 524h3M497 524h5M505 524h3M510 524h3M518 524h5M527 524h5M535 524h3M545 524h11M560 524h5M569 524h9M580 524h5M588 524h3M593 524h5M601 524h3M607 524h5M614 524h3M620 524h5M627 524h3M637 524h5M645 524h3M652 524h3M668 524h5M677 524h7M689 524h5M696 524h5M704 524h5M711 524h3M717 524h5M724 524h3M732 524h5M741 524h5M749 524h3M47 525h2M59 525h1M62 525h2M76 525h1M83 525h1M91 525h1M96 525h1M104 525h1M109 525h1M146 525h1M149 525h1M153 525h1M157 525h1M162 525h1M194 525h1M200 525h1M207 525h1M213 525h1M243 525h2M257 525h1M264 525h1M272 525h1M277 525h1M285 525h1M290 525h1M309 525h1M315 525h1M330 525h1M334 525h1M338 525h1M342 525h1M358 525h1M364 525h1M371 525h1M377 525h1M384 525h1M390 525h1M397 525h1M403 525h1M415 525h1M419 525h1M441 525h1M447 525h3M452 525h4M462 525h1M467 525h2M475 525h1M480 525h2M501 525h1M507 525h1M510 525h1M529 525h1M535 525h1M547 525h1M552 525h2M571 525h1M575 525h1M582 525h1M588 525h1M595 525h1M601 525h1M609 525h1M614 525h1M622 525h1M627 525h1M639 525h1M645 525h1M677 525h2M691 525h1M698 525h1M706 525h1M711 525h1M719 525h1M724 525h1M743 525h1M749 525h1M47 526h2M59 526h1M62 526h2M70 526h1M76 526h1M83 526h1M91 526h1M96 526h1M104 526h1M109 526h1M115 526h1M122 526h2M126 526h1M132 526h1M140 526h1M146 526h1M149 526h1M153 526h1M157 526h1M162 526h1M168 526h1M172 526h1M179 526h1M183 526h1M189 526h1M194 526h1M200 526h1M207 526h1M211 526h3M218 526h2M224 526h1M232 526h1M240 526h1M243 526h2M251 526h1M257 526h1M264 526h1M272 526h1M277 526h1M285 526h1M290 526h1M296 526h1M303 526h2M309 526h1M313 526h3M325 526h1M330 526h1M334 526h1M338 526h1M342 526h1M351 526h1M358 526h1M364 526h1M371 526h1M377 526h1M384 526h1M388 526h3M397 526h1M401 526h3M415 526h1M419 526h1M424 526h2M432 526h1M436 526h1M441 526h1M447 526h3M452 526h4M462 526h1M466 526h3M475 526h1M480 526h2M486 526h1M492 526h1M495 526h2M501 526h1M507 526h1M510 526h1M516 526h1M523 526h2M529 526h1M533 526h3M547 526h1M552 526h2M558 526h1M565 526h2M571 526h1M575 526h1M582 526h1M586 526h3M595 526h1M601 526h1M609 526h1M612 526h3M622 526h1M625 526h3M639 526h1M645 526h1M656 526h1M666 526h1M674 526h1M677 526h2M685 526h1M691 526h1M698 526h1M706 526h1M711 526h1M719 526h1M724 526h1M730 526h1M737 526h2M743 526h1M747 526h3M47 527h2M59 527h1M62 527h2M70 527h1M76 527h1M83 527h1M91 527h1M96 527h1M104 527h1M109 527h1M115 527h1M122 527h2M126 527h1M132 527h1M140 527h1M153 527h1M162 527h1M168 527h1M172 527h1M179 527h1M183 527h1M189 527h1M194 527h1M200 527h1M207 527h1M213 527h1M218 527h2M224 527h1M232 527h1M240 527h1M243 527h2M251 527h1M257 527h1M264 527h1M272 527h1M277 527h1M285 527h1M290 527h1M296 527h1M303 527h2M309 527h1M315 527h1M325 527h1M338 527h1M351 527h1M358 527h1M364 527h1M371 527h1M377 527h1M384 527h1M390 527h1M397 527h1M403 527h1M415 527h1M424 527h2M432 527h1M436 527h1M447 527h1M454 527h2M462 527h1M467 527h2M475 527h1M480 527h2M486 527h1M492 527h1M495 527h2M507 527h1M516 527h1M523 527h2M529 527h1M535 527h1M547 527h1M552 527h2M558 527h1M565 527h2M571 527h1M575 527h1M582 527h1M588 527h1M595 527h1M601 527h1M609 527h1M614 527h1M622 527h1M627 527h1M639 527h1M645 527h1M656 527h1M666 527h1M674 527h1M677 527h2M685 527h1M691 527h1M698 527h1M706 527h1M711 527h1M719 527h1M724 527h1M730 527h1M737 527h2M743 527h1M749 527h1M47 528h2M59 528h1M62 528h2M70 528h1M76 528h4M83 528h1M91 528h6M104 528h6M115 528h1M122 528h2M126 528h7M140 528h1M153 528h1M162 528h1M168 528h1M172 528h1M179 528h1M183 528h7M194 528h7M207 528h3M213 528h1M218 528h7M232 528h1M240 528h1M243 528h2M251 528h1M257 528h4M264 528h1M272 528h6M285 528h6M296 528h1M303 528h2M309 528h3M315 528h1M325 528h1M338 528h1M347 528h5M358 528h7M371 528h1M377 528h1M384 528h3M390 528h1M397 528h3M403 528h1M415 528h3M424 528h2M432 528h1M436 528h1M447 528h1M451 528h1M454 528h2M462 528h3M467 528h2M475 528h7M486 528h7M495 528h2M507 528h3M516 528h1M523 528h2M529 528h3M535 528h1M547 528h1M552 528h2M558 528h1M565 528h2M571 528h1M575 528h1M582 528h3M588 528h1M595 528h1M601 528h1M609 528h3M614 528h1M622 528h3M627 528h1M639 528h7M652 528h5M666 528h1M674 528h1M677 528h2M685 528h1M691 528h4M698 528h1M706 528h6M719 528h6M730 528h1M737 528h2M743 528h3M749 528h1M62 529h2M70 529h1M76 529h1M79 529h1M83 529h1M96 529h1M104 529h1M109 529h1M115 529h1M122 529h2M126 529h1M140 529h1M153 529h1M162 529h1M168 529h1M172 529h1M179 529h1M183 529h1M194 529h1M200 529h1M207 529h1M213 529h1M218 529h2M232 529h1M240 529h1M243 529h2M251 529h1M257 529h1M260 529h1M264 529h1M277 529h1M285 529h1M290 529h1M296 529h1M303 529h2M309 529h1M315 529h1M325 529h1M338 529h1M351 529h1M358 529h1M364 529h1M371 529h1M377 529h1M384 529h1M390 529h1M397 529h1M403 529h1M415 529h1M424 529h2M432 529h1M436 529h1M447 529h1M451 529h1M454 529h2M462 529h1M467 529h2M480 529h2M486 529h1M495 529h2M507 529h1M516 529h1M523 529h2M529 529h1M535 529h1M547 529h1M552 529h2M558 529h1M565 529h2M571 529h1M575 529h1M582 529h1M588 529h1M595 529h1M601 529h1M609 529h1M614 529h1M622 529h1M627 529h1M639 529h1M645 529h1M656 529h1M666 529h1M674 529h1M677 529h2M685 529h1M691 529h1M694 529h1M698 529h1M711 529h1M719 529h1M724 529h1M730 529h1M737 529h2M743 529h1M749 529h1M49 530h1M57 530h1M62 530h2M70 530h1M76 530h1M79 530h1M83 530h1M96 530h1M104 530h1M109 530h1M115 530h1M122 530h2M126 530h1M140 530h1M153 530h1M162 530h1M168 530h1M172 530h1M179 530h1M183 530h1M194 530h1M200 530h1M207 530h1M213 530h1M218 530h2M232 530h1M240 530h1M243 530h2M251 530h1M257 530h1M260 530h1M264 530h1M277 530h1M285 530h1M290 530h1M296 530h1M303 530h2M309 530h1M315 530h1M325 530h1M338 530h1M345 530h1M351 530h1M358 530h1M364 530h1M371 530h1M377 530h1M384 530h1M390 530h1M397 530h1M403 530h1M415 530h1M419 530h1M424 530h2M432 530h1M436 530h1M447 530h1M451 530h1M454 530h2M462 530h1M467 530h2M480 530h2M486 530h1M495 530h2M507 530h1M510 530h1M516 530h1M523 530h2M529 530h1M535 530h1M547 530h1M552 530h2M558 530h1M565 530h2M571 530h1M575 530h1M582 530h1M588 530h1M595 530h1M601 530h1M609 530h1M614 530h1M622 530h1M627 530h1M639 530h1M645 530h1M650 530h2M656 530h1M666 530h1M674 530h1M677 530h2M685 530h1M691 530h1M694 530h1M698 530h1M711 530h1M719 530h1M724 530h1M730 530h1M737 530h2M743 530h1M749 530h1M51 531h5M64 531h5M74 531h12M94 531h5M102 531h5M109 531h3M117 531h5M128 531h5M142 531h5M151 531h5M162 531h5M174 531h4M185 531h5M192 531h5M200 531h3M205 531h5M213 531h3M220 531h5M234 531h5M245 531h5M255 531h12M275 531h5M283 531h5M290 531h3M298 531h5M307 531h5M315 531h3M327 531h4M336 531h5M347 531h7M356 531h5M364 531h3M369 531h11M382 531h5M390 531h3M395 531h5M403 531h3M413 531h5M421 531h1M426 531h5M438 531h4M445 531h3M451 531h1M454 531h3M460 531h5M467 531h4M479 531h5M488 531h5M497 531h5M505 531h5M512 531h1M518 531h5M527 531h5M535 531h3M545 531h5M552 531h4M560 531h5M569 531h1M575 531h3M580 531h5M588 531h3M593 531h11M607 531h5M614 531h3M620 531h5M627 531h3M637 531h5M645 531h3M652 531h7M668 531h5M679 531h5M689 531h12M709 531h5M717 531h5M724 531h3M732 531h5M741 531h5M749 531h3M51 532h5M64 532h5M74 532h12M94 532h5M102 532h5M109 532h3M117 532h5M128 532h5M142 532h5M151 532h5M162 532h5M174 532h4M185 532h5M192 532h5M200 532h3M205 532h5M213 532h3M220 532h5M234 532h5M245 532h5M255 532h12M275 532h5M283 532h5M290 532h3M298 532h5M307 532h5M315 532h3M327 532h4M336 532h5M347 532h7M356 532h5M364 532h3M369 532h11M382 532h5M390 532h3M395 532h5M403 532h3M413 532h5M421 532h1M426 532h5M438 532h4M445 532h3M451 532h1M454 532h3M460 532h5M467 532h4M479 532h5M488 532h5M497 532h5M505 532h5M512 532h1M518 532h5M527 532h5M535 532h3M545 532h5M552 532h4M560 532h5M569 532h1M575 532h3M580 532h5M588 532h3M593 532h11M607 532h5M614 532h3M620 532h5M627 532h3M637 532h5M645 532h3M652 532h7M668 532h5M679 532h5M689 532h12M709 532h5M717 532h5M724 532h3M732 532h5M741 532h5M749 532h3M162 533h1M379 533h1M603 533h1M162 534h1M379 534h1M603 534h1M160 535h5M152 541h1M158 541h1M105 543h1M109 543h1M154 543h3M49 547h5M59 547h8M70 547h9M83 547h3M92 547h9M105 547h3M113 547h5M120 547h3M126 547h5M133 547h4M141 547h5M150 547h5M158 547h3M168 547h11M181 547h9M194 547h3M203 547h5M211 547h3M218 547h3M226 547h9M239 547h3M59 548h1M62 548h2M66 548h1M72 548h1M76 548h1M94 548h1M98 548h1M115 548h1M120 548h1M128 548h1M133 548h2M152 548h1M158 548h1M170 548h1M175 548h2M183 548h1M187 548h1M205 548h1M211 548h1M226 548h1M230 548h1M233 548h2M47 549h2M55 549h1M59 549h1M62 549h2M66 549h1M72 549h1M76 549h1M87 549h1M94 549h1M98 549h1M103 549h2M109 549h1M115 549h1M120 549h1M128 549h1M133 549h2M139 549h1M146 549h2M152 549h1M156 549h3M170 549h1M175 549h2M183 549h1M187 549h1M198 549h1M205 549h1M211 549h1M216 549h2M222 549h1M226 549h1M230 549h1M233 549h2M237 549h1M243 549h1M47 550h2M55 550h1M62 550h2M72 550h1M76 550h1M87 550h1M94 550h1M98 550h1M103 550h2M109 550h1M115 550h1M120 550h1M128 550h1M133 550h2M139 550h1M146 550h2M152 550h1M158 550h1M170 550h1M175 550h2M183 550h1M187 550h1M198 550h1M205 550h1M211 550h1M216 550h2M222 550h1M230 550h1M237 550h1M243 550h1M47 551h2M55 551h1M62 551h2M72 551h1M76 551h1M83 551h5M94 551h1M98 551h1M103 551h7M115 551h6M128 551h7M139 551h1M146 551h2M152 551h3M158 551h1M170 551h1M175 551h2M183 551h1M187 551h1M194 551h5M205 551h7M216 551h7M230 551h1M237 551h7M47 552h2M55 552h1M62 552h2M76 552h1M87 552h1M94 552h1M98 552h1M103 552h2M115 552h1M120 552h1M128 552h1M133 552h2M139 552h1M146 552h2M152 552h1M158 552h1M170 552h1M175 552h2M183 552h1M187 552h1M198 552h1M205 552h1M211 552h1M216 552h2M230 552h1M237 552h1M47 553h2M55 553h1M62 553h2M70 553h1M76 553h1M81 553h1M87 553h1M94 553h1M98 553h1M103 553h2M115 553h1M120 553h1M128 553h1M133 553h2M139 553h1M146 553h2M152 553h1M158 553h1M170 553h1M175 553h2M183 553h1M187 553h1M192 553h1M198 553h1M205 553h1M211 553h1M216 553h2M230 553h1M237 553h1M49 554h5M61 554h4M70 554h9M83 554h7M92 554h1M98 554h3M105 554h5M113 554h5M120 554h3M126 554h5M133 554h4M141 554h5M150 554h5M158 554h3M168 554h5M175 554h4M181 554h1M187 554h3M194 554h7M203 554h5M211 554h3M218 554h5M228 554h5M239 554h5M246 554h2M49 555h5M61 555h4M70 555h9M83 555h7M92 555h1M98 555h3M105 555h5M113 555h5M120 555h3M126 555h5M133 555h4M141 555h5M150 555h5M158 555h3M168 555h5M175 555h4M181 555h1M187 555h3M194 555h7M203 555h5M211 555h3M218 555h5M228 555h5M239 555h5M246 555h2M70 556h1M77 556h2M70 557h1M77 557h2" />
<path stroke="rgba(86,141,147,0.8627450980392157)" d="M56 518h1M71 518h1M252 518h1M310 518h1M530 518h1M686 518h1M744 518h1M56 519h1M310 519h1M530 519h1M744 519h1M56 520h1M58 520h1M310 520h1M530 520h1M744 520h1M47 521h3M57 521h3M311 521h3M531 521h3M745 521h3M58 522h1M58 523h1M64 523h5M74 523h5M81 523h5M89 523h5M96 523h3M102 523h5M109 523h3M117 523h5M128 523h3M142 523h5M149 523h9M160 523h7M174 523h4M185 523h3M192 523h5M200 523h3M205 523h5M213 523h3M220 523h3M234 523h5M245 523h5M255 523h5M262 523h5M270 523h5M277 523h3M283 523h5M290 523h3M298 523h5M307 523h5M315 523h3M327 523h4M334 523h9M347 523h3M356 523h5M364 523h3M369 523h5M377 523h3M382 523h5M390 523h3M395 523h5M403 523h3M413 523h3M419 523h3M426 523h5M438 523h4M445 523h5M452 523h5M460 523h5M467 523h4M473 523h5M480 523h4M488 523h3M497 523h5M505 523h3M510 523h3M518 523h5M527 523h5M535 523h3M545 523h11M560 523h5M569 523h9M580 523h5M588 523h3M593 523h5M601 523h3M607 523h5M614 523h3M620 523h5M627 523h3M637 523h5M645 523h3M652 523h3M668 523h5M679 523h5M689 523h5M696 523h5M704 523h5M711 523h3M717 523h5M724 523h3M732 523h5M741 523h5M749 523h3M58 524h1M69 524h1M86 524h1M116 524h1M131 524h1M141 524h1M167 524h1M184 524h1M197 524h1M210 524h1M250 524h1M267 524h1M297 524h1M312 524h1M346 524h1M361 524h1M374 524h1M389 524h1M393 524h1M402 524h1M406 524h1M416 524h1M418 524h1M431 524h1M444 524h1M459 524h1M472 524h1M491 524h1M502 524h1M517 524h1M532 524h1M544 524h1M559 524h1M587 524h1M591 524h1M600 524h1M604 524h1M644 524h1M648 524h1M684 524h1M701 524h1M731 524h1M746 524h1M58 525h1M64 525h7M74 525h1M77 525h2M81 525h1M85 525h1M89 525h1M92 525h2M98 525h1M102 525h1M105 525h2M111 525h1M115 525h9M126 525h7M140 525h5M151 525h1M155 525h1M160 525h2M164 525h5M172 525h8M183 525h7M192 525h1M196 525h1M202 525h1M205 525h1M209 525h3M215 525h1M218 525h7M232 525h9M245 525h7M255 525h1M258 525h2M262 525h1M266 525h1M270 525h1M273 525h2M279 525h1M283 525h1M286 525h2M292 525h1M296 525h9M307 525h1M311 525h3M317 525h1M325 525h5M336 525h1M340 525h1M347 525h5M356 525h1M360 525h1M366 525h1M369 525h1M373 525h1M379 525h1M382 525h2M386 525h3M392 525h1M395 525h2M399 525h3M405 525h1M413 525h1M416 525h1M418 525h1M421 525h1M424 525h9M436 525h5M445 525h1M456 525h1M460 525h1M464 525h3M469 525h2M473 525h1M477 525h1M482 525h2M486 525h7M495 525h5M502 525h1M505 525h1M512 525h1M516 525h9M527 525h1M531 525h3M537 525h1M545 525h1M549 525h3M554 525h2M558 525h9M569 525h1M573 525h1M577 525h1M580 525h2M584 525h3M590 525h1M593 525h2M597 525h1M600 525h1M603 525h1M607 525h1M610 525h3M616 525h1M620 525h1M623 525h3M629 525h1M637 525h2M641 525h1M644 525h1M647 525h1M652 525h5M666 525h9M679 525h7M689 525h1M692 525h2M696 525h1M700 525h1M704 525h1M707 525h2M713 525h1M717 525h1M720 525h2M726 525h1M730 525h9M741 525h1M745 525h3M751 525h1M58 526h1M69 526h1M71 526h1M114 526h1M116 526h1M131 526h1M139 526h1M141 526h1M152 526h1M154 526h1M167 526h1M169 526h1M182 526h1M184 526h1M195 526h1M208 526h1M210 526h1M225 526h1M250 526h1M252 526h1M295 526h1M297 526h1M310 526h1M312 526h1M337 526h1M339 526h1M359 526h1M372 526h1M391 526h1M404 526h1M416 526h1M418 526h1M431 526h1M433 526h1M446 526h1M461 526h1M474 526h1M491 526h1M502 526h1M515 526h1M517 526h1M530 526h1M532 526h1M546 526h1M557 526h1M559 526h1M572 526h1M574 526h1M589 526h1M600 526h1M602 526h1M644 526h1M646 526h1M657 526h1M684 526h1M686 526h1M729 526h1M731 526h1M744 526h1M746 526h1M58 527h1M69 527h1M71 527h1M114 527h1M116 527h1M139 527h1M141 527h1M152 527h1M154 527h1M167 527h1M169 527h1M182 527h1M210 527h1M225 527h1M250 527h1M252 527h1M295 527h1M297 527h1M312 527h1M337 527h1M339 527h1M372 527h1M391 527h1M404 527h1M418 527h1M431 527h1M433 527h1M446 527h1M461 527h1M474 527h1M515 527h1M517 527h1M532 527h1M546 527h1M557 527h1M559 527h1M572 527h1M574 527h1M589 527h1M600 527h1M602 527h1M646 527h1M657 527h1M684 527h1M686 527h1M729 527h1M731 527h1M746 527h1M58 528h1M69 528h1M71 528h1M114 528h1M116 528h1M139 528h1M141 528h1M152 528h1M154 528h1M167 528h1M169 528h1M182 528h1M210 528h1M225 528h1M250 528h1M252 528h1M295 528h1M297 528h1M312 528h1M337 528h1M339 528h1M346 528h1M372 528h1M389 528h1M391 528h1M402 528h1M404 528h1M418 528h1M431 528h1M433 528h1M446 528h1M461 528h1M474 528h1M515 528h1M517 528h1M532 528h1M546 528h1M557 528h1M559 528h1M572 528h1M574 528h1M587 528h1M589 528h1M600 528h1M602 528h1M646 528h1M657 528h1M684 528h1M686 528h1M729 528h1M731 528h1M746 528h1M58 529h1M69 529h1M71 529h1M114 529h1M116 529h1M139 529h1M141 529h1M152 529h1M154 529h1M167 529h1M169 529h1M182 529h1M250 529h1M252 529h1M295 529h1M297 529h1M337 529h1M339 529h1M346 529h1M372 529h1M389 529h1M391 529h1M402 529h1M404 529h1M418 529h1M431 529h1M433 529h1M446 529h1M461 529h1M515 529h1M517 529h1M546 529h1M557 529h1M559 529h1M572 529h1M574 529h1M587 529h1M589 529h1M600 529h1M602 529h1M646 529h1M657 529h1M684 529h1M686 529h1M729 529h1M731 529h1M56 530h1M58 530h1M69 530h1M71 530h1M114 530h1M116 530h1M139 530h1M141 530h1M152 530h1M154 530h1M167 530h1M169 530h1M182 530h1M184 530h1M195 530h1M208 530h1M250 530h1M252 530h1M295 530h1M297 530h1M310 530h1M337 530h1M339 530h1M344 530h1M346 530h1M359 530h1M372 530h1M389 530h1M391 530h1M402 530h1M404 530h1M416 530h1M418 530h1M431 530h1M433 530h1M446 530h1M461 530h1M515 530h1M517 530h1M530 530h1M546 530h1M557 530h1M559 530h1M572 530h1M574 530h1M587 530h1M589 530h1M600 530h1M602 530h1M644 530h1M646 530h1M657 530h1M684 530h1M686 530h1M729 530h1M731 530h1M744 530h1M56 531h1M69 531h1M86 531h1M116 531h1M141 531h1M167 531h1M184 531h1M197 531h1M210 531h1M225 531h1M250 531h1M267 531h1M297 531h1M312 531h1M346 531h1M361 531h1M389 531h1M393 531h1M402 531h1M406 531h1M418 531h1M431 531h1M444 531h1M459 531h1M502 531h1M517 531h1M532 531h1M544 531h1M559 531h1M574 531h1M587 531h1M591 531h1M604 531h1M644 531h1M648 531h1M659 531h1M684 531h1M701 531h1M731 531h1M746 531h1M56 532h1M69 532h1M86 532h1M116 532h1M141 532h1M167 532h1M184 532h1M197 532h1M210 532h1M225 532h1M250 532h1M267 532h1M297 532h1M312 532h1M346 532h1M361 532h1M389 532h1M393 532h1M402 532h1M406 532h1M418 532h1M431 532h1M444 532h1M459 532h1M502 532h1M517 532h1M532 532h1M544 532h1M559 532h1M574 532h1M587 532h1M591 532h1M604 532h1M644 532h1M648 532h1M659 532h1M684 532h1M701 532h1M731 532h1M746 532h1M602 533h1M604 533h1M602 534h1M604 534h1M153 541h1M153 542h1M110 543h1M153 543h1M105 544h1M109 544h1M154 544h3M49 546h5M59 546h8M70 546h9M83 546h3M92 546h9M105 546h3M113 546h5M120 546h3M126 546h5M133 546h4M141 546h5M150 546h5M158 546h3M168 546h11M181 546h9M194 546h3M203 546h5M211 546h3M218 546h3M226 546h9M239 546h3M54 547h1M69 547h1M82 547h1M125 547h1M140 547h1M155 547h1M167 547h1M180 547h1M197 547h1M210 547h1M214 547h1M225 547h1M238 547h1M47 548h9M61 548h1M64 548h1M70 548h1M74 548h1M77 548h2M83 548h5M92 548h1M96 548h1M100 548h1M103 548h7M113 548h1M116 548h2M122 548h1M126 548h1M130 548h1M135 548h2M139 548h9M150 548h1M154 548h3M160 548h1M168 548h1M172 548h3M177 548h2M181 548h1M185 548h1M188 548h2M194 548h5M203 548h2M207 548h1M210 548h1M213 548h1M216 548h7M225 548h1M228 548h1M232 548h1M237 548h7M54 549h1M56 549h1M71 549h1M95 549h1M97 549h1M110 549h1M127 549h1M138 549h1M140 549h1M153 549h1M155 549h1M169 549h1M182 549h1M197 549h1M210 549h1M212 549h1M223 549h1M225 549h1M227 549h1M236 549h1M238 549h1M54 550h1M56 550h1M71 550h1M95 550h1M97 550h1M110 550h1M127 550h1M138 550h1M140 550h1M155 550h1M169 550h1M182 550h1M212 550h1M223 550h1M236 550h1M54 551h1M56 551h1M71 551h1M82 551h1M95 551h1M97 551h1M110 551h1M127 551h1M138 551h1M140 551h1M155 551h1M169 551h1M182 551h1M212 551h1M223 551h1M236 551h1M54 552h1M56 552h1M71 552h1M82 552h1M95 552h1M97 552h1M127 552h1M138 552h1M140 552h1M169 552h1M182 552h1M212 552h1M236 552h1M54 553h1M56 553h1M69 553h1M71 553h1M80 553h1M82 553h1M95 553h1M97 553h1M127 553h1M138 553h1M140 553h1M153 553h1M169 553h1M182 553h1M197 553h1M210 553h1M212 553h1M236 553h1M238 553h1M54 554h1M69 554h1M82 554h1M97 554h1M110 554h1M125 554h1M140 554h1M155 554h1M167 554h1M180 554h1M182 554h1M210 554h1M214 554h1M223 554h1M227 554h1M238 554h1M54 555h1M69 555h1M82 555h1M97 555h1M110 555h1M125 555h1M140 555h1M155 555h1M167 555h1M180 555h1M182 555h1M210 555h1M214 555h1M223 555h1M227 555h1M238 555h1M69 556h1M71 556h1M69 557h1M71 557h1" />
<path stroke="rgba(38,96,105,0.9411764705882353)" d="M314 518h1M534 518h1M748 518h1M51 519h5M64 519h7M245 519h7M309 519h1M315 519h1M529 519h1M535 519h1M679 519h7M743 519h1M749 519h1M50 520h1M73 524h1M88 524h1M99 524h1M101 524h1M112 524h1M173 524h1M178 524h1M199 524h1M212 524h1M223 524h1M254 524h1M269 524h1M280 524h1M282 524h1M293 524h1M314 524h1M326 524h1M331 524h1M363 524h1M376 524h1M387 524h1M400 524h1M437 524h1M442 524h1M457 524h1M504 524h1M513 524h1M534 524h1M585 524h1M598 524h1M606 524h1M617 524h1M619 524h1M630 524h1M642 524h1M655 524h1M688 524h1M703 524h1M714 524h1M716 524h1M727 524h1M748 524h1M199 525h1M331 525h1M363 525h1M376 525h1M442 525h1M75 526h1M84 526h1M90 526h1M97 526h1M103 526h1M110 526h1M127 526h1M145 526h1M150 526h1M156 526h1M163 526h1M171 526h1M180 526h1M188 526h1M199 526h1M233 526h1M239 526h1M256 526h1M265 526h1M271 526h1M278 526h1M284 526h1M291 526h1M324 526h1M331 526h1M335 526h1M341 526h1M350 526h1M363 526h1M376 526h1M385 526h1M398 526h1M435 526h1M442 526h1M465 526h1M487 526h1M506 526h1M511 526h1M583 526h1M596 526h1M608 526h1M615 526h1M621 526h1M628 526h1M640 526h1M667 526h1M673 526h1M690 526h1M699 526h1M705 526h1M712 526h1M718 526h1M725 526h1M75 527h1M77 527h3M84 527h1M90 527h1M92 527h4M97 527h1M103 527h1M105 527h4M110 527h1M128 527h3M163 527h1M171 527h1M180 527h1M185 527h3M196 527h3M209 527h1M212 527h1M220 527h4M233 527h1M239 527h1M256 527h1M258 527h3M265 527h1M271 527h1M273 527h4M278 527h1M284 527h1M286 527h4M291 527h1M311 527h1M314 527h1M324 527h1M347 527h3M360 527h3M376 527h1M386 527h1M399 527h1M417 527h1M435 527h1M451 527h1M463 527h2M476 527h4M488 527h3M506 527h1M508 527h2M531 527h1M534 527h1M584 527h1M596 527h1M608 527h1M610 527h2M615 527h1M621 527h1M623 527h2M628 527h1M641 527h3M652 527h4M667 527h1M673 527h1M690 527h1M692 527h3M699 527h1M705 527h1M707 527h4M712 527h1M718 527h1M720 527h4M725 527h1M745 527h1M748 527h1M75 528h1M80 528h1M84 528h1M90 528h1M97 528h1M103 528h1M110 528h1M163 528h1M171 528h1M180 528h1M212 528h1M233 528h1M239 528h1M256 528h1M261 528h1M265 528h1M271 528h1M278 528h1M284 528h1M291 528h1M314 528h1M324 528h1M376 528h1M387 528h1M400 528h1M435 528h1M450 528h1M506 528h1M534 528h1M585 528h1M596 528h1M608 528h1M615 528h1M621 528h1M628 528h1M667 528h1M673 528h1M690 528h1M695 528h1M699 528h1M705 528h1M712 528h1M718 528h1M725 528h1M748 528h1M49 529h1M57 529h1M75 529h1M80 529h1M84 529h1M97 529h1M103 529h1M110 529h1M127 529h1M163 529h1M171 529h1M180 529h1M199 529h1M212 529h1M233 529h1M239 529h1M256 529h1M261 529h1M265 529h1M278 529h1M284 529h1M291 529h1M314 529h1M324 529h1M345 529h1M350 529h1M363 529h1M376 529h1M385 529h1M398 529h1M419 529h1M435 529h1M450 529h1M487 529h1M506 529h1M510 529h1M534 529h1M583 529h1M596 529h1M608 529h1M615 529h1M621 529h1M628 529h1M640 529h1M650 529h2M667 529h1M673 529h1M690 529h1M695 529h1M699 529h1M712 529h1M718 529h1M725 529h1M748 529h1M50 530h1M75 530h1M80 530h1M84 530h1M97 530h1M103 530h1M110 530h1M127 530h1M163 530h1M171 530h1M180 530h1M199 530h1M212 530h1M233 530h1M239 530h1M256 530h1M261 530h1M265 530h1M278 530h1M284 530h1M291 530h1M314 530h1M324 530h1M350 530h1M363 530h1M376 530h1M385 530h1M398 530h1M435 530h1M450 530h1M487 530h1M506 530h1M511 530h1M534 530h1M583 530h1M596 530h1M608 530h1M615 530h1M621 530h1M628 530h1M640 530h1M667 530h1M673 530h1M690 530h1M695 530h1M699 530h1M712 530h1M718 530h1M725 530h1M748 530h1M73 531h1M99 531h1M101 531h1M112 531h1M173 531h1M178 531h1M199 531h1M212 531h1M254 531h1M280 531h1M282 531h1M293 531h1M314 531h1M326 531h1M331 531h1M363 531h1M387 531h1M400 531h1M420 531h1M437 531h1M442 531h1M450 531h1M457 531h1M478 531h1M504 531h1M513 531h1M534 531h1M570 531h1M585 531h1M606 531h1M617 531h1M619 531h1M630 531h1M642 531h1M688 531h1M714 531h1M716 531h1M727 531h1M748 531h1M73 532h1M99 532h1M101 532h1M112 532h1M173 532h1M178 532h1M199 532h1M212 532h1M254 532h1M280 532h1M282 532h1M293 532h1M314 532h1M326 532h1M331 532h1M363 532h1M387 532h1M400 532h1M420 532h1M437 532h1M442 532h1M450 532h1M457 532h1M478 532h1M504 532h1M513 532h1M534 532h1M570 532h1M585 532h1M606 532h1M617 532h1M619 532h1M630 532h1M642 532h1M688 532h1M714 532h1M716 532h1M727 532h1M748 532h1M163 533h1M378 533h1M163 534h1M378 534h1M165 535h1M160 536h5M157 541h1M152 542h1M158 542h1M106 543h1M58 547h1M67 547h1M108 547h1M112 547h1M123 547h1M157 547h1M208 547h1M221 547h1M58 548h1M67 548h1M58 549h1M67 549h1M75 549h1M86 549h1M114 549h1M121 549h1M186 549h1M206 549h1M229 549h1M242 549h1M75 550h1M83 550h3M105 550h4M114 550h1M116 550h4M121 550h1M129 550h4M154 550h1M157 550h1M186 550h1M194 550h3M207 550h3M218 550h4M229 550h1M239 550h3M75 551h1M114 551h1M121 551h1M157 551h1M186 551h1M229 551h1M70 552h1M75 552h1M81 552h1M86 552h1M114 552h1M121 552h1M157 552h1M186 552h1M192 552h1M206 552h1M229 552h1M75 553h1M86 553h1M114 553h1M121 553h1M157 553h1M186 553h1M193 553h1M206 553h1M229 553h1M60 554h1M65 554h1M93 554h1M112 554h1M123 554h1M157 554h1M186 554h1M208 554h1M60 555h1M65 555h1M93 555h1M112 555h1M123 555h1M157 555h1M186 555h1M208 555h1" />
<path stroke="rgba(179,169,185,0.5686274509803921)" d="M821 518h1M23 519h1M821 519h1M23 520h1M821 520h1M23 521h1M821 521h1M23 522h1M821 522h1M23 523h1M821 523h1M23 524h1M821 524h1M23 525h1M821 525h1M23 526h1M821 526h1M23 527h1M821 527h1M23 528h1M821 528h1M23 529h1M821 529h1M23 530h1M821 530h1M23 531h1M821 531h1M23 532h1M821 532h1M23 533h1M821 533h1M23 534h1M821 534h1M23 535h1M821 535h1M23 536h1M821 536h1M23 537h1M821 537h1M23 538h1M821 538h1M23 539h1M23 540h1M23 541h1M23 542h1M23 543h1M23 544h1M23 545h1M23 546h1M23 547h1M23 548h1" />
<path stroke="rgba(97,153,158,0.8392156862745098)" d="M50 519h1M71 519h1M252 519h1M686 519h1M50 521h1M73 523h1M88 523h1M99 523h1M101 523h1M112 523h1M173 523h1M178 523h1M199 523h1M212 523h1M223 523h1M254 523h1M269 523h1M280 523h1M282 523h1M293 523h1M314 523h1M326 523h1M331 523h1M363 523h1M376 523h1M387 523h1M400 523h1M437 523h1M442 523h1M457 523h1M504 523h1M513 523h1M534 523h1M585 523h1M598 523h1M606 523h1M617 523h1M619 523h1M630 523h1M642 523h1M655 523h1M688 523h1M703 523h1M714 523h1M716 523h1M727 523h1M748 523h1M73 525h1M88 525h1M99 525h1M101 525h1M112 525h1M171 525h1M180 525h1M254 525h1M269 525h1M280 525h1M282 525h1M293 525h1M324 525h1M435 525h1M457 525h1M504 525h1M513 525h1M598 525h1M606 525h1M617 525h1M619 525h1M630 525h1M642 525h1M688 525h1M703 525h1M714 525h1M716 525h1M727 525h1M346 527h1M448 527h1M465 527h1M613 527h1M626 527h1M56 529h1M95 529h1M108 529h1M276 529h1M289 529h1M344 529h1M463 529h1M655 529h1M710 529h1M723 529h1M106 544h1M58 546h1M67 546h1M108 546h1M112 546h1M123 546h1M157 546h1M208 546h1M221 546h1M112 548h1M123 548h1M208 548h1M82 550h1M69 552h1M80 552h1M119 552h1M129 552h1" />
<path stroke="rgba(65,118,128,0.9019607843137255)" d="M314 519h1M534 519h1M748 519h1M82 525h1M193 525h1M201 525h1M206 525h1M214 525h1M263 525h1M308 525h1M316 525h1M357 525h1M365 525h1M370 525h1M378 525h1M414 525h1M420 525h1M463 525h1M476 525h1M500 525h1M528 525h1M536 525h1M548 525h1M570 525h1M576 525h1M613 525h1M626 525h1M697 525h1M742 525h1M750 525h1M387 527h1M389 527h1M400 527h1M402 527h1M450 527h1M585 527h1M587 527h1M184 529h1M195 529h1M208 529h1M310 529h1M359 529h1M416 529h1M530 529h1M644 529h1M744 529h1M157 542h1M60 548h1M65 548h1M73 548h1M93 548h1M99 548h1M129 548h1M151 548h1M159 548h1M171 548h1M184 548h1M231 548h1M153 552h1M193 552h1M197 552h1M210 552h1M238 552h1" />
<path stroke="rgba(179,167,183,0.25098039215686274)" d="M822 520h1M822 521h1M822 522h1M822 523h1M22 524h1M822 524h1M22 525h1M822 525h1M22 526h1M822 526h1M22 527h1M822 527h1M22 528h1M822 528h1M22 529h1M822 529h1M22 530h1M822 530h1M22 531h1M822 531h1M22 532h1M822 532h1M22 533h1M822 533h1M22 534h1M822 534h1M22 535h1M822 535h1M22 536h1M822 536h1M22 537h1M822 537h1M22 538h1M822 538h1M22 539h1M822 539h1M22 540h1M822 540h1M22 541h1M822 541h1M22 542h1M822 542h1M22 543h1M822 543h1M22 544h1M822 544h1M22 545h1M822 545h1M22 546h1M822 546h1M22 547h1M822 547h1M22 548h1M822 548h1M22 549h1" />
<path stroke="rgba(24,83,93,0.9607843137254902)" d="M75 525h1M84 525h1M90 525h1M97 525h1M103 525h1M110 525h1M145 525h1M150 525h1M156 525h1M163 525h1M212 525h1M256 525h1M265 525h1M271 525h1M278 525h1M284 525h1M291 525h1M314 525h1M335 525h1M341 525h1M385 525h1M398 525h1M506 525h1M511 525h1M534 525h1M583 525h1M596 525h1M608 525h1M615 525h1M621 525h1M628 525h1M640 525h1M690 525h1M699 525h1M705 525h1M712 525h1M718 525h1M725 525h1M748 525h1M131 527h1M184 527h1M195 527h1M208 527h1M310 527h1M359 527h1M416 527h1M491 527h1M530 527h1M644 527h1M744 527h1M75 548h1M114 548h1M121 548h1M157 548h1M186 548h1M206 548h1M229 548h1M153 550h1M197 550h1M210 550h1M238 550h1" />
<path stroke="rgba(52,106,114,0.9215686274509803)" d="M152 525h1M154 525h1M195 525h1M208 525h1M310 525h1M337 525h1M339 525h1M359 525h1M372 525h1M389 525h1M391 525h1M402 525h1M404 525h1M446 525h1M461 525h1M474 525h1M530 525h1M546 525h1M572 525h1M574 525h1M587 525h1M589 525h1M602 525h1M646 525h1M744 525h1M71 548h1M95 548h1M97 548h1M127 548h1M153 548h1M169 548h1M182 548h1M212 548h1M227 548h1" />
<path stroke="rgba(228,244,247,0.8549019607843137)" d="M780 525h5M796 525h5M780 526h5M796 526h5M778 527h2M785 527h2M794 527h2M778 528h2M785 528h2M794 528h2M778 529h2M787 529h2M792 529h2M778 530h2M787 530h2M792 530h2M778 531h2M789 531h3M780 532h2M789 532h3M780 533h2M782 534h2M782 535h2M784 536h2M784 537h2M784 538h2M782 539h2M782 540h2M780 541h2M780 542h2M778 543h2M778 544h2M778 545h2M778 546h2M778 547h2" />
<path stroke="rgba(75,129,138,0.8823529411764706)" d="M80 527h1M261 527h1M695 527h1M50 529h1M511 529h1M165 536h1" />
<path stroke="rgba(7,72,81,0.9803921568627451)" d="M127 527h1M188 527h1M199 527h1M350 527h1M363 527h1M385 527h1M398 527h1M487 527h1M583 527h1M640 527h1M86 550h1M206 550h1M242 550h1" />
<path stroke="#53587e" d="M780 527h5M796 527h5M780 528h5M796 528h5M780 529h7M794 529h7M780 530h7M794 530h7M780 531h9M792 531h9M782 532h7M792 532h7M782 533h17M784 534h13M784 535h13M786 536h9M786 537h9M786 538h9M784 539h13M784 540h13M782 541h17M782 542h7M792 542h7M780 543h9M792 543h9M780 544h7M794 544h7M780 545h7M794 545h7M780 546h5M796 546h5M780 547h5M796 547h5" />
</svg>