<svg xmlns="http://www.w3.org/2000/svg" viewBox="0 -0.5 851 600" shape-rendering="crispEdges">
<metadata>Made with Pixels to Svg https://codepen.io/shshaw/pen/XbxvNj</metadata>
<path stroke="rgba(163,183,187,0.25098039215686274)" d="M27 503h791M26 504h1M818 504h1M25 505h1M819 505h1M24 506h1M820 506h1M23 507h1M821 507h1M22 508h1M822 508h1M22 509h1M822 509h1M22 510h1M822 510h1M22 511h1M822 511h1M22 512h1M822 512h1M22 513h1M822 513h1M22 514h1M822 514h1M22 515h1M822 515h1M22 516h1M822 516h1M22 517h1M822 517h1M22 518h1M822 518h1M22 519h1M822 519h1M22 520h1M22 521h1M22 522h1M22 523h1M822 549h1M22 550h1M822 550h1M22 551h1M822 551h1M22 552h1M822 552h1M22 553h1M822 553h1M22 554h1M822 554h1M22 555h1M822 555h1M22 556h1M822 556h1M22 557h1M822 557h1M22 558h1M822 558h1M22 559h1M822 559h1M22 560h1M822 560h1M22 561h1M822 561h1M22 562h1M822 562h1M22 563h1M822 563h1M22 564h1M822 564h1M22 565h1M822 565h1M22 566h1M822 566h1M22 567h1M822 567h1M23 568h1M821 568h1M24 569h1M820 569h1M25 570h1M819 570h1M26 571h1M818 571h1M27 572h791" />
<path stroke="rgba(165,181,186,0.5686274509803921)" d="M27 504h791M26 505h1M818 505h1M25 506h1M819 506h1M24 507h1M820 507h1M23 508h1M821 508h1M23 509h1M821 509h1M23 510h1M821 510h1M23 511h1M821 511h1M23 512h1M821 512h1M23 513h1M821 513h1M23 514h1M821 514h1M23 515h1M821 515h1M23 516h1M821 516h1M23 517h1M821 517h1M23 518h1M821 539h1M821 540h1M821 541h1M821 542h1M821 543h1M821 544h1M821 545h1M821 546h1M821 547h1M821 548h1M23 549h1M821 549h1M23 550h1M821 550h1M23 551h1M821 551h1M23 552h1M821 552h1M23 553h1M821 553h1M23 554h1M821 554h1M23 555h1M821 555h1M23 556h1M821 556h1M23 557h1M821 557h1M23 558h1M821 558h1M23 559h1M821 559h1M23 560h1M821 560h1M23 561h1M821 561h1M23 562h1M821 562h1M23 563h1M821 563h1M23 564h1M821 564h1M23 565h1M821 565h1M23 566h1M821 566h1M23 567h1M821 567h1M24 568h1M820 568h1M25 569h1M819 569h1M26 570h1M818 570h1M27 571h791" />
<path stroke="#032c37" d="M27 505h791M26 506h1M818 506h1M25 507h1M819 507h1M24 508h1M29 508h787M820 508h1M24 509h1M28 509h2M815 509h2M820 509h1M24 510h1M27 510h2M816 510h2M820 510h1M24 511h1M27 511h1M817 511h1M820 511h1M24 512h1M27 512h1M817 512h1M820 512h1M24 513h1M27 513h1M817 513h1M820 513h1M24 514h1M27 514h1M817 514h1M820 514h1M24 515h1M27 515h1M817 515h1M820 515h1M24 516h1M27 516h1M817 516h1M820 516h1M24 517h1M27 517h1M817 517h1M820 517h1M24 518h1M27 518h1M817 518h1M820 518h1M24 519h1M27 519h1M817 519h1M820 519h1M24 520h1M27 520h1M817 520h1M820 520h1M24 521h1M27 521h1M817 521h1M820 521h1M24 522h1M27 522h1M817 522h1M820 522h1M24 523h1M27 523h1M817 523h1M820 523h1M24 524h1M27 524h1M817 524h1M820 524h1M24 525h1M27 525h1M817 525h1M820 525h1M24 526h1M27 526h1M817 526h1M820 526h1M24 527h1M27 527h1M817 527h1M820 527h1M24 528h1M27 528h1M817 528h1M820 528h1M24 529h1M27 529h1M817 529h1M820 529h1M24 530h1M27 530h1M817 530h1M820 530h1M24 531h1M27 531h1M817 531h1M820 531h1M24 532h1M27 532h1M817 532h1M820 532h1M24 533h1M27 533h1M817 533h1M820 533h1M24 534h1M27 534h1M817 534h1M820 534h1M24 535h1M27 535h1M817 535h1M820 535h1M24 536h1M27 536h1M817 536h1M820 536h1M24 537h1M27 537h1M817 537h1M820 537h1M24 538h1M27 538h1M817 538h1M820 538h1M24 539h1M27 539h1M817 539h1M820 539h1M24 540h1M27 540h1M817 540h1M820 540h1M24 541h1M27 541h1M817 541h1M820 541h1M24 542h1M27 542h1M817 542h1M820 542h1M24 543h1M27 543h1M817 543h1M820 543h1M24 544h1M27 544h1M817 544h1M820 544h1M24 545h1M27 545h1M817 545h1M820 545h1M24 546h1M27 546h1M817 546h1M820 546h1M24 547h1M27 547h1M817 547h1M820 547h1M24 548h1M27 548h1M817 548h1M820 548h1M24 549h1M27 549h1M817 549h1M820 549h1M24 550h1M27 550h1M817 550h1M820 550h1M24 551h1M27 551h1M817 551h1M820 551h1M24 552h1M27 552h1M817 552h1M820 552h1M24 553h1M27 553h1M817 553h1M820 553h1M24 554h1M27 554h1M817 554h1M820 554h1M24 555h1M27 555h1M817 555h1M820 555h1M24 556h1M27 556h1M817 556h1M820 556h1M24 557h1M27 557h1M817 557h1M820 557h1M24 558h1M27 558h1M817 558h1M820 558h1M24 559h1M27 559h1M817 559h1M820 559h1M24 560h1M27 560h1M817 560h1M820 560h1M24 561h1M27 561h1M817 561h1M820 561h1M24 562h1M27 562h1M817 562h1M820 562h1M24 563h1M27 563h1M817 563h1M820 563h1M24 564h1M27 564h1M817 564h1M820 564h1M24 565h1M27 565h2M816 565h2M820 565h1M24 566h1M28 566h2M815 566h2M820 566h1M24 567h1M29 567h787M820 567h1M25 568h1M819 568h1M26 569h1M818 569h1M27 570h791" />
<path stroke="#044858" d="M27 506h791M26 507h1M818 507h1M25 508h1M27 508h2M816 508h2M819 508h1M25 509h1M27 509h1M817 509h1M819 509h1M25 510h1M819 510h1M25 511h1M819 511h1M25 512h1M819 512h1M25 513h1M819 513h1M25 514h1M819 514h1M25 515h1M819 515h1M25 516h1M819 516h1M25 517h1M819 517h1M25 518h1M819 518h1M25 519h1M819 519h1M25 520h1M819 520h1M25 521h1M819 521h1M25 522h1M819 522h1M25 523h1M819 523h1M25 524h1M819 524h1M25 525h1M819 525h1M25 526h1M819 526h1M25 527h1M819 527h1M25 528h1M819 528h1M25 529h1M819 529h1M25 530h1M819 530h1M25 531h1M819 531h1M25 532h1M819 532h1M25 533h1M819 533h1M25 534h1M819 534h1M25 535h1M819 535h1M25 536h1M819 536h1M25 537h1M819 537h1M25 538h1M819 538h1M25 539h1M819 539h1M25 540h1M819 540h1M25 541h1M819 541h1M25 542h1M819 542h1M25 543h1M819 543h1M25 544h1M819 544h1M25 545h1M819 545h1M25 546h1M819 546h1M25 547h1M819 547h1M25 548h1M819 548h1M25 549h1M819 549h1M25 550h1M819 550h1M25 551h1M819 551h1M25 552h1M819 552h1M25 553h1M819 553h1M25 554h1M819 554h1M25 555h1M819 555h1M25 556h1M819 556h1M25 557h1M819 557h1M25 558h1M819 558h1M25 559h1M819 559h1M25 560h1M819 560h1M25 561h1M819 561h1M25 562h1M819 562h1M25 563h1M819 563h1M25 564h1M819 564h1M25 565h1M819 565h1M25 566h1M27 566h1M817 566h1M819 566h1M25 567h1M27 567h2M816 567h2M819 567h1M26 568h1M818 568h1M27 569h791" />
<path stroke="#7fc4cb" d="M27 507h791M26 508h1M818 508h1M26 509h1M818 509h1M26 510h1M818 510h1M26 511h1M818 511h1M26 512h1M818 512h1M26 513h1M818 513h1M26 514h1M818 514h1M26 515h1M818 515h1M26 516h1M818 516h1M26 517h1M818 517h1M26 518h1M818 518h1M26 519h1M818 519h1M26 520h1M818 520h1M26 521h1M818 521h1M26 522h1M818 522h1M26 523h1M818 523h1M26 524h1M818 524h1M26 525h1M818 525h1M26 526h1M818 526h1M26 527h1M818 527h1M26 528h1M818 528h1M26 529h1M818 529h1M26 530h1M818 530h1M26 531h1M818 531h1M26 532h1M818 532h1M26 533h1M818 533h1M26 534h1M818 534h1M26 535h1M818 535h1M26 536h1M818 536h1M26 537h1M818 537h1M26 538h1M818 538h1M26 539h1M818 539h1M26 540h1M818 540h1M26 541h1M818 541h1M26 542h1M818 542h1M26 543h1M818 543h1M26 544h1M818 544h1M26 545h1M818 545h1M26 546h1M818 546h1M26 547h1M818 547h1M26 548h1M818 548h1M26 549h1M818 549h1M26 550h1M818 550h1M26 551h1M818 551h1M26 552h1M818 552h1M26 553h1M818 553h1M26 554h1M818 554h1M26 555h1M818 555h1M26 556h1M818 556h1M26 557h1M818 557h1M26 558h1M818 558h1M26 559h1M818 559h1M26 560h1M818 560h1M26 561h1M818 561h1M26 562h1M818 562h1M26 563h1M818 563h1M26 564h1M818 564h1M26 565h1M818 565h1M26 566h1M818 566h1M26 567h1M818 567h1M27 568h791" />
<path stroke="rgba(175,228,232,0.7019607843137254)" d="M30 509h785M29 510h787M28 511h789M28 512h789M28 513h789M28 514h789M28 515h789M28 516h789M28 517h19M53 517h5M64 517h54M125 517h1M132 517h168M308 517h45M361 517h102M471 517h346M28 518h18M53 518h5M65 518h53M125 518h1M133 518h167M308 518h45M361 518h102M471 518h346M28 519h19M53 519h5M64 519h54M125 519h1M132 519h166M308 519h43M361 519h100M471 519h346M28 520h20M53 520h5M63 520h57M123 520h5M131 520h167M301 520h50M354 520h107M464 520h353M28 521h20M53 521h5M63 521h57M123 521h5M131 521h167M301 521h50M354 521h107M464 521h353M28 522h20M53 522h5M63 522h57M123 522h5M131 522h167M301 522h50M354 522h107M464 522h353M28 523h20M55 523h1M63 523h2M70 523h1M78 523h3M87 523h3M96 523h3M107 523h13M131 523h4M140 523h5M157 523h3M164 523h5M177 523h3M187 523h1M192 523h1M200 523h1M211 523h1M217 523h5M232 523h3M242 523h3M255 523h1M260 523h2M264 523h1M270 523h3M277 523h3M287 523h1M292 523h6M306 523h3M315 523h1M323 523h1M334 523h8M348 523h3M359 523h8M373 523h3M386 523h3M395 523h3M405 523h1M412 523h6M430 523h3M439 523h3M449 523h3M456 523h5M469 523h5M480 523h3M494 523h1M501 523h1M507 523h1M518 523h1M525 523h5M536 523h4M548 523h11M565 523h1M571 523h3M580 523h13M605 523h3M615 523h2M622 523h1M628 523h3M637 523h3M644 523h2M648 523h1M654 523h3M661 523h156M28 524h20M51 524h1M55 524h1M59 524h1M63 524h2M70 524h1M78 524h2M87 524h3M96 524h3M108 524h12M131 524h4M140 524h4M157 524h3M165 524h4M177 524h3M200 524h1M211 524h1M217 524h5M233 524h2M242 524h2M255 524h1M264 524h1M270 524h3M278 524h2M293 524h5M306 524h3M323 524h1M334 524h7M348 524h3M359 524h7M373 524h3M387 524h2M396 524h2M405 524h1M413 524h5M431 524h2M440 524h2M449 524h2M456 524h5M469 524h5M481 524h2M501 524h1M518 524h1M526 524h4M537 524h2M548 524h11M571 524h3M580 524h13M606 524h2M615 524h2M622 524h1M628 524h2M637 524h3M648 524h1M654 524h3M662 524h155M28 525h20M51 525h1M55 525h1M59 525h1M63 525h2M70 525h1M78 525h1M87 525h1M98 525h1M109 525h11M131 525h4M142 525h3M157 525h3M166 525h3M179 525h1M192 525h1M211 525h1M217 525h5M232 525h1M244 525h1M255 525h1M264 525h1M270 525h1M279 525h1M292 525h6M308 525h1M315 525h1M323 525h1M334 525h6M350 525h1M361 525h6M375 525h1M397 525h1M405 525h1M412 525h6M430 525h1M441 525h1M449 525h3M458 525h3M471 525h1M482 525h1M494 525h1M518 525h1M525 525h3M537 525h2M548 525h11M565 525h1M571 525h1M582 525h11M605 525h1M622 525h1M628 525h1M639 525h1M648 525h1M654 525h1M663 525h117M785 525h11M801 525h16M28 526h20M51 526h1M55 526h1M59 526h1M63 526h4M70 526h3M76 526h2M82 526h2M87 526h1M91 526h4M98 526h3M104 526h2M110 526h10M123 526h5M131 526h8M142 526h4M149 526h3M155 526h8M166 526h5M174 526h2M179 526h3M185 526h2M191 526h4M198 526h1M204 526h4M211 526h1M215 526h9M227 526h1M231 526h2M236 526h5M244 526h2M249 526h1M253 526h5M264 526h1M268 526h3M274 526h2M279 526h3M285 526h2M291 526h7M301 526h4M308 526h3M314 526h4M321 526h5M332 526h7M343 526h4M350 526h1M354 526h4M361 526h11M375 526h1M379 526h1M390 526h4M398 526h2M405 526h1M411 526h9M423 526h2M429 526h2M434 526h4M442 526h4M449 526h6M458 526h3M464 526h4M471 526h1M475 526h4M486 526h1M490 526h1M494 526h2M499 526h1M505 526h2M514 526h1M518 526h3M524 526h4M531 526h3M537 526h2M542 526h1M546 526h15M564 526h2M569 526h3M575 526h4M582 526h13M598 526h2M604 526h2M609 526h5M617 526h2M622 526h1M626 526h2M632 526h4M639 526h3M648 526h1M652 526h3M658 526h2M663 526h117M785 526h11M801 526h16M28 527h20M51 527h1M55 527h1M59 527h1M63 527h4M70 527h1M76 527h2M82 527h2M87 527h1M91 527h4M98 527h3M104 527h2M110 527h10M123 527h5M131 527h4M142 527h4M149 527h3M155 527h5M166 527h5M174 527h2M179 527h3M191 527h4M204 527h4M215 527h9M227 527h1M231 527h2M236 527h5M244 527h2M249 527h1M253 527h5M268 527h3M279 527h3M291 527h7M301 527h4M308 527h3M317 527h1M321 527h5M332 527h7M343 527h4M350 527h1M354 527h4M361 527h8M375 527h1M379 527h1M383 527h1M386 527h1M390 527h4M398 527h2M411 527h9M423 527h2M429 527h2M434 527h4M442 527h2M449 527h3M458 527h3M464 527h4M471 527h1M475 527h4M486 527h1M490 527h1M494 527h2M505 527h3M510 527h1M514 527h1M518 527h3M527 527h1M531 527h3M536 527h4M546 527h15M569 527h3M575 527h4M582 527h13M598 527h2M604 527h2M609 527h5M617 527h2M626 527h2M632 527h4M639 527h3M652 527h3M663 527h115M787 527h7M801 527h16M28 528h20M51 528h1M55 528h1M59 528h1M63 528h4M70 528h1M74 528h4M82 528h6M91 528h4M98 528h3M104 528h2M110 528h10M123 528h5M131 528h4M142 528h4M149 528h3M155 528h5M166 528h5M174 528h2M179 528h3M191 528h4M200 528h1M204 528h4M213 528h11M227 528h1M231 528h2M236 528h5M244 528h2M249 528h1M253 528h6M266 528h5M279 528h3M291 528h7M301 528h4M308 528h3M317 528h1M321 528h5M332 528h7M343 528h4M350 528h1M354 528h4M361 528h7M375 528h5M383 528h4M390 528h4M398 528h2M403 528h1M407 528h1M411 528h9M423 528h2M429 528h2M434 528h4M442 528h2M447 528h4M458 528h3M464 528h4M471 528h1M475 528h4M483 528h4M490 528h6M501 528h1M505 528h6M514 528h7M527 528h1M531 528h10M546 528h15M569 528h3M575 528h4M582 528h13M598 528h2M604 528h2M609 528h5M617 528h4M624 528h4M632 528h4M639 528h4M650 528h5M663 528h115M787 528h7M801 528h16M28 529h20M51 529h1M59 529h1M63 529h4M74 529h4M82 529h6M91 529h4M98 529h3M104 529h2M110 529h10M123 529h5M131 529h2M142 529h4M149 529h3M155 529h3M166 529h5M174 529h2M179 529h3M191 529h4M200 529h1M204 529h4M215 529h7M227 529h1M231 529h2M236 529h5M244 529h2M249 529h1M253 529h5M268 529h3M279 529h3M291 529h7M301 529h4M308 529h3M317 529h1M321 529h5M332 529h7M343 529h4M350 529h1M354 529h4M361 529h8M375 529h5M383 529h4M390 529h4M398 529h2M403 529h1M407 529h1M411 529h9M423 529h2M429 529h2M434 529h4M442 529h2M449 529h1M458 529h3M464 529h4M471 529h1M475 529h4M483 529h4M490 529h6M501 529h1M505 529h6M514 529h7M527 529h1M531 529h9M546 529h15M569 529h3M575 529h4M582 529h13M598 529h2M604 529h2M609 529h5M617 529h2M626 529h2M632 529h4M639 529h3M652 529h3M663 529h115M789 529h3M801 529h16M28 530h19M52 530h2M57 530h2M64 530h5M74 530h4M86 530h2M98 530h3M110 530h1M112 530h7M124 530h3M132 530h1M143 530h2M150 530h2M156 530h2M167 530h4M179 530h2M186 530h1M192 530h2M199 530h2M205 530h2M216 530h6M232 530h1M244 530h1M249 530h1M254 530h3M264 530h1M269 530h2M278 530h3M286 530h1M292 530h6M308 530h2M322 530h3M333 530h6M350 530h1M361 530h6M375 530h4M384 530h3M398 530h1M403 530h1M407 530h1M412 530h7M424 530h1M430 530h1M442 530h1M459 530h2M471 530h1M483 530h3M491 530h4M500 530h2M506 530h4M515 530h5M527 530h1M536 530h2M542 530h1M547 530h2M552 530h8M565 530h1M570 530h2M582 530h2M587 530h7M599 530h1M605 530h1M617 530h1M622 530h1M627 530h1M639 530h2M648 530h1M653 530h2M662 530h3M668 530h110M789 530h3M801 530h16M28 531h18M53 531h1M57 531h1M65 531h4M73 531h6M87 531h2M97 531h4M109 531h1M113 531h5M125 531h1M133 531h1M151 531h1M157 531h2M168 531h3M178 531h2M200 531h1M217 531h5M233 531h1M243 531h1M248 531h2M255 531h1M264 531h1M270 531h2M279 531h1M293 531h6M307 531h2M323 531h1M328 531h1M334 531h6M349 531h3M360 531h6M374 531h4M385 531h3M397 531h1M403 531h1M407 531h1M413 531h5M431 531h1M441 531h1M449 531h1M460 531h2M470 531h3M482 531h3M492 531h2M501 531h1M507 531h2M516 531h3M527 531h2M542 531h1M553 531h6M571 531h2M581 531h2M588 531h5M606 531h1M616 531h1M622 531h1M628 531h1M638 531h2M648 531h1M654 531h2M663 531h1M669 531h109M801 531h16M28 532h18M53 532h1M57 532h1M65 532h4M72 532h8M87 532h3M96 532h5M108 532h2M113 532h5M125 532h1M133 532h2M151 532h1M157 532h3M168 532h3M177 532h3M200 532h1M213 532h1M217 532h5M233 532h2M242 532h2M248 532h2M255 532h1M264 532h1M270 532h3M279 532h1M293 532h7M306 532h3M323 532h1M327 532h2M334 532h7M348 532h5M359 532h7M373 532h5M385 532h4M396 532h2M403 532h1M407 532h1M413 532h5M431 532h2M440 532h2M449 532h2M460 532h3M469 532h5M481 532h4M492 532h2M501 532h1M507 532h2M516 532h3M527 532h3M542 532h1M553 532h6M571 532h3M580 532h3M588 532h5M606 532h2M615 532h2M622 532h1M628 532h2M637 532h3M648 532h1M654 532h3M663 532h1M669 532h111M799 532h18M28 533h19M52 533h3M56 533h3M64 533h5M72 533h9M86 533h5M95 533h6M107 533h4M112 533h7M124 533h3M132 533h4M143 533h2M150 533h3M156 533h5M167 533h4M176 533h5M186 533h2M192 533h2M199 533h3M205 533h2M212 533h3M216 533h6M233 533h3M241 533h4M247 533h4M254 533h3M260 533h2M263 533h3M269 533h5M278 533h3M286 533h2M292 533h9M305 533h5M322 533h3M326 533h4M333 533h9M347 533h7M358 533h9M372 533h7M384 533h6M395 533h4M402 533h3M406 533h3M412 533h7M424 533h2M430 533h4M439 533h4M448 533h4M459 533h5M468 533h7M480 533h6M491 533h4M500 533h3M506 533h4M515 533h5M526 533h5M536 533h2M541 533h3M547 533h2M553 533h7M565 533h2M570 533h5M579 533h5M588 533h6M599 533h2M605 533h4M614 533h4M621 533h3M627 533h4M636 533h5M644 533h2M647 533h3M653 533h5M662 533h3M669 533h111M799 533h18M28 534h38M72 534h28M105 534h65M175 534h47M225 534h4M233 534h316M553 534h31M588 534h77M669 534h113M797 534h20M28 535h37M71 535h28M106 535h63M176 535h47M224 535h6M232 535h316M552 535h31M587 535h77M668 535h114M797 535h20M28 536h37M70 536h29M106 536h63M175 536h374M551 536h32M586 536h78M667 536h117M795 536h22M28 537h756M795 537h22M28 538h756M795 538h22M28 539h754M797 539h20M28 540h754M797 540h20M28 541h752M799 541h18M28 542h752M789 542h3M799 542h18M28 543h750M789 543h3M801 543h16M28 544h750M787 544h7M801 544h16M28 545h750M787 545h7M801 545h16M28 546h19M53 546h1M59 546h3M66 546h10M82 546h1M95 546h1M104 546h5M114 546h4M127 546h1M134 546h1M140 546h1M151 546h3M160 546h3M172 546h606M785 546h11M801 546h16M28 547h18M53 547h1M59 547h2M66 547h9M82 547h1M95 547h1M105 547h4M114 547h4M134 547h1M140 547h1M151 547h3M161 547h2M172 547h606M785 547h11M801 547h16M28 548h19M53 548h1M59 548h1M68 548h6M82 548h1M95 548h1M106 548h3M115 548h3M127 548h1M140 548h1M151 548h1M161 548h2M172 548h645M28 549h20M51 549h3M57 549h2M63 549h2M68 549h5M77 549h2M82 549h3M88 549h2M93 549h5M101 549h2M107 549h6M116 549h4M123 549h1M127 549h2M132 549h1M138 549h5M149 549h3M155 549h3M161 549h2M166 549h1M170 549h647M28 550h20M57 550h2M68 550h5M77 550h2M82 550h3M88 550h2M93 550h5M101 550h2M107 550h2M116 550h4M127 550h2M138 550h5M149 550h3M155 550h3M160 550h3M170 550h647M28 551h20M57 551h2M68 551h5M77 551h8M88 551h2M93 551h5M101 551h2M107 551h2M116 551h4M125 551h4M134 551h1M138 551h5M149 551h3M155 551h10M170 551h647M28 552h20M57 552h2M68 552h5M77 552h8M88 552h2M93 552h5M101 552h2M116 552h4M127 552h2M134 552h1M138 552h5M149 552h3M155 552h8M170 552h647M28 553h19M52 553h2M58 553h1M67 553h6M81 553h3M89 553h1M94 553h4M117 553h2M127 553h1M133 553h2M139 553h3M150 553h2M160 553h2M166 553h1M171 553h2M175 553h642M28 554h18M53 554h1M59 554h1M68 554h6M82 554h1M95 554h3M106 554h2M134 554h1M140 554h1M145 554h1M151 554h2M166 554h1M176 554h641M28 555h18M53 555h1M59 555h2M68 555h7M82 555h1M95 555h3M105 555h4M134 555h1M140 555h1M144 555h2M151 555h3M166 555h1M176 555h641M28 556h19M52 556h3M58 556h4M67 556h9M81 556h3M89 556h2M94 556h4M104 556h6M117 556h2M126 556h2M133 556h3M139 556h3M143 556h4M150 556h5M160 556h2M165 556h3M171 556h2M175 556h642M28 557h69M102 557h715M28 558h68M103 558h714M28 559h68M103 559h714M28 560h789M28 561h789M28 562h789M28 563h789M28 564h789M29 565h787M30 566h785" />
<path stroke="rgba(119,175,179,0.8)" d="M47 517h5M59 517h5M119 517h5M127 517h5M301 517h6M354 517h6M464 517h6M118 518h1M299 519h1M352 519h1M462 519h1M62 520h1M120 520h1M130 520h1M300 520h1M353 520h1M463 520h1M62 521h1M120 521h1M130 521h1M300 521h1M353 521h1M463 521h1M62 522h1M120 522h1M130 522h1M300 522h1M353 522h1M463 522h1M54 523h1M56 523h1M62 523h1M69 523h1M71 523h1M86 523h1M99 523h1M120 523h1M130 523h1M139 523h1M156 523h1M180 523h1M199 523h1M210 523h1M212 523h1M222 523h1M254 523h1M269 523h1M280 523h1M322 523h1M347 523h1M376 523h1M389 523h1M404 523h1M418 523h1M433 523h1M448 523h1M474 523h1M502 523h1M506 523h1M517 523h1M530 523h1M547 523h1M593 523h1M621 523h1M623 523h1M636 523h1M653 523h1M52 524h1M62 524h1M65 524h1M77 524h1M120 524h1M130 524h1M135 524h1M186 524h1M193 524h1M205 524h2M216 524h1M235 524h1M241 524h1M265 524h1M286 524h1M316 524h1M398 524h1M442 524h1M483 524h1M493 524h1M566 524h1M608 524h1M614 524h1M617 524h1M627 524h1M649 524h1M52 525h1M62 525h1M71 525h1M99 525h1M120 525h1M130 525h1M156 525h1M180 525h1M222 525h1M254 525h1M265 525h1M269 525h1M280 525h1M322 525h1M349 525h1M374 525h1M387 525h1M418 525h1M431 525h1M457 525h1M472 525h1M483 525h1M493 525h1M506 525h1M528 525h1M547 525h1M566 525h1M593 525h1M638 525h1M649 525h1M653 525h1M52 526h1M62 526h1M67 526h1M75 526h1M84 526h1M90 526h1M95 526h1M103 526h1M120 526h1M130 526h1M141 526h1M176 526h1M184 526h1M195 526h1M203 526h1M208 526h1M214 526h1M226 526h1M233 526h1M243 526h1M250 526h1M265 526h1M273 526h1M284 526h1M300 526h1M305 526h1M318 526h1M353 526h1M358 526h1M372 526h1M382 526h1M400 526h1M410 526h1M422 526h1M455 526h1M463 526h1M468 526h1M483 526h1M493 526h1M500 526h1M511 526h1M543 526h1M566 526h1M574 526h1M579 526h1M597 526h1M606 526h1M616 526h1M619 526h1M625 526h1M649 526h1M657 526h1M52 527h1M62 527h1M67 527h1M74 527h1M85 527h1M90 527h1M95 527h1M103 527h1M120 527h1M130 527h1M141 527h1M176 527h1M195 527h1M200 527h1M203 527h1M208 527h1M213 527h1M226 527h1M233 527h1M243 527h1M250 527h1M259 527h1M266 527h1M300 527h1M305 527h1M318 527h1M353 527h1M358 527h1M377 527h1M382 527h1M384 527h2M400 527h1M403 527h1M407 527h1M410 527h1M422 527h1M447 527h1M463 527h1M468 527h1M484 527h1M492 527h1M501 527h1M508 527h2M511 527h1M516 527h1M535 527h1M540 527h1M574 527h1M579 527h1M597 527h1M606 527h1M616 527h1M620 527h1M624 527h1M643 527h1M650 527h1M52 528h1M62 528h1M67 528h1M73 528h1M90 528h1M95 528h1M103 528h1M120 528h1M130 528h1M135 528h1M141 528h1M176 528h1M195 528h1M203 528h1M208 528h1M226 528h1M233 528h1M243 528h1M250 528h1M300 528h1M305 528h1M318 528h1M353 528h1M358 528h1M382 528h1M400 528h1M406 528h1M410 528h1M422 528h1M444 528h1M463 528h1M468 528h1M511 528h1M541 528h1M574 528h1M579 528h1M597 528h1M606 528h1M616 528h1M53 529h1M57 529h1M62 529h1M68 529h1M73 529h1M90 529h1M95 529h1M103 529h1M120 529h1M130 529h1M136 529h3M141 529h1M161 529h3M176 529h1M185 529h3M195 529h1M198 529h1M203 529h1M208 529h1M211 529h1M225 529h1M233 529h1M243 529h1M250 529h1M260 529h2M264 529h1M274 529h4M285 529h3M300 529h1M305 529h1M313 529h2M318 529h1M353 529h1M358 529h1M369 529h3M382 529h1M400 529h1M406 529h1M410 529h1M422 529h1M445 529h1M452 529h3M463 529h1M468 529h1M499 529h1M511 529h1M523 529h2M542 529h1M563 529h3M574 529h1M579 529h1M597 529h1M606 529h1M616 529h1M622 529h1M644 529h2M648 529h1M658 529h4M62 530h1M73 530h1M90 530h1M95 530h1M103 530h1M120 530h1M130 530h1M133 530h1M141 530h1M160 530h1M176 530h1M184 530h1M195 530h1M203 530h1M208 530h1M214 530h1M233 530h1M243 530h1M250 530h1M265 530h1M273 530h1M284 530h1M300 530h1M305 530h1M318 530h1M353 530h1M358 530h1M372 530h1M382 530h1M400 530h1M406 530h1M410 530h1M422 530h1M455 530h1M463 530h1M468 530h1M511 530h1M543 530h1M566 530h1M574 530h1M579 530h1M597 530h1M606 530h1M616 530h1M619 530h1M625 530h1M649 530h1M657 530h1M110 531h1M118 531h1M135 531h1M143 531h1M186 531h1M193 531h1M205 531h2M216 531h1M235 531h1M241 531h1M250 531h1M265 531h1M286 531h1M326 531h1M398 531h1M406 531h1M424 531h1M442 531h1M485 531h1M491 531h1M543 531h1M566 531h1M587 531h1M599 531h1M608 531h1M614 531h1M617 531h1M627 531h1M649 531h1M668 531h1M110 532h1M118 532h1M135 532h1M143 532h1M186 532h1M193 532h1M205 532h2M216 532h1M235 532h1M241 532h1M250 532h1M265 532h1M286 532h1M326 532h1M398 532h1M406 532h1M424 532h1M442 532h1M485 532h1M491 532h1M543 532h1M566 532h1M587 532h1M599 532h1M608 532h1M614 532h1M617 532h1M627 532h1M649 532h1M668 532h1M103 533h1M587 533h1M668 533h1M103 534h1M587 534h1M668 534h1M65 535h1M105 535h1M54 546h1M58 546h1M81 546h1M96 546h1M109 546h1M135 546h1M139 546h1M154 546h1M113 547h1M118 547h1M126 547h1M163 547h1M171 547h1M58 548h1M67 548h1M96 548h1M109 548h1M126 548h1M139 548h1M152 548h1M163 548h1M65 549h1M79 549h1M90 549h1M100 549h1M120 549h1M126 549h1M133 549h1M163 549h1M169 549h1M80 550h1M90 550h1M100 550h1M120 550h1M125 550h1M134 550h1M159 550h1M164 550h1M169 550h1M90 551h1M100 551h1M120 551h1M169 551h1M51 552h3M62 552h5M90 552h1M100 552h1M110 552h3M120 552h1M123 552h1M132 552h1M166 552h1M169 552h1M90 553h1M100 553h1M120 553h1M126 553h1M163 553h1M169 553h1M90 554h1M118 554h1M126 554h1M143 554h1M161 554h1M171 554h1M90 555h1M118 555h1M126 555h1M143 555h1M161 555h1M171 555h1M100 556h1M100 557h1M102 558h1" />
<path stroke="rgba(131,187,190,0.7803921568627451)" d="M52 517h1M126 517h1M300 517h1M307 517h1M353 517h1M360 517h1M463 517h1M470 517h1M118 519h1M298 519h1M351 519h1M461 519h1M135 527h1M258 527h1M267 527h1M444 527h1M485 527h1M491 527h1M534 527h1M642 527h1M651 527h1M133 529h1M214 529h1M278 529h1M500 529h1M619 529h1M625 529h1M662 529h1M65 536h1M105 536h1M158 550h1M126 552h1M133 552h1M163 552h1M102 559h1" />
<path stroke="rgba(151,208,212,0.7411764705882353)" d="M58 517h1M124 517h1M65 523h1M77 523h1M135 523h1M186 523h1M193 523h1M205 523h2M216 523h1M235 523h1M241 523h1M265 523h1M286 523h1M316 523h1M398 523h1M442 523h1M483 523h1M493 523h1M566 523h1M608 523h1M614 523h1M617 523h1M627 523h1M649 523h1M65 525h1M77 525h1M135 525h1M141 525h1M186 525h1M193 525h1M205 525h2M216 525h1M233 525h1M243 525h1M286 525h1M316 525h1M398 525h1M442 525h1M606 525h1M616 525h2M627 525h1M86 527h1M376 527h1M378 527h1M448 527h1M515 527h1M517 527h1M58 529h1M199 529h1M113 546h1M118 546h1M126 546h1M163 546h1M171 546h1M118 548h1M171 548h1M81 550h1M67 552h1" />
<path stroke="rgba(162,218,222,0.7215686274509804)" d="M118 517h1M46 518h1M64 518h1M132 518h1M48 520h1M48 521h1M48 522h1M48 523h1M48 524h1M80 524h1M107 524h1M144 524h1M164 524h1M187 524h1M192 524h1M232 524h1M244 524h1M260 524h2M277 524h1M287 524h1M292 524h1M315 524h1M341 524h1M366 524h1M386 524h1M395 524h1M412 524h1M430 524h1M439 524h1M451 524h1M480 524h1M494 524h1M507 524h1M525 524h1M536 524h1M539 524h1M565 524h1M605 524h1M630 524h1M644 524h2M661 524h1M48 525h1M187 525h1M260 525h2M287 525h1M386 525h1M507 525h1M536 525h1M539 525h1M644 525h2M48 526h1M78 526h1M81 526h1M106 526h1M109 526h1M146 526h1M163 526h1M173 526h1M187 526h1M190 526h1M230 526h1M246 526h1M260 526h2M276 526h1M287 526h1M290 526h1M313 526h1M328 526h2M339 526h1M342 526h1M383 526h1M386 526h1M394 526h1M397 526h1M425 526h1M428 526h1M438 526h1M441 526h1M479 526h1M482 526h1M496 526h1M507 526h1M510 526h1M523 526h1M536 526h1M539 526h1M563 526h1M600 526h1M603 526h1M628 526h1M631 526h1M644 526h2M660 526h1M48 527h1M75 527h1M78 527h1M81 527h1M84 527h1M106 527h1M109 527h1M146 527h1M173 527h1M190 527h1M214 527h1M230 527h1M246 527h1M290 527h1M328 527h2M339 527h1M342 527h1M394 527h1M397 527h1M425 527h1M428 527h1M438 527h1M441 527h1M479 527h1M482 527h2M493 527h1M496 527h1M600 527h1M603 527h1M619 527h1M625 527h1M628 527h1M631 527h1M48 528h1M78 528h1M81 528h1M106 528h1M109 528h1M146 528h1M173 528h1M190 528h1M230 528h1M246 528h1M259 528h1M290 528h1M328 528h2M339 528h1M342 528h1M368 528h1M394 528h1M397 528h1M425 528h1M428 528h1M438 528h1M441 528h1M451 528h1M479 528h1M482 528h1M496 528h1M600 528h1M603 528h1M628 528h1M631 528h1M643 528h1M48 529h1M52 529h1M67 529h1M78 529h1M81 529h1M106 529h1M109 529h1M146 529h1M173 529h1M190 529h1M226 529h1M230 529h1M246 529h1M290 529h1M328 529h2M339 529h1M342 529h1M394 529h1M397 529h1M425 529h1M428 529h1M438 529h1M441 529h1M444 529h1M479 529h1M482 529h1M496 529h1M600 529h1M603 529h1M628 529h1M631 529h1M47 530h2M51 530h1M59 530h1M63 530h1M78 530h1M81 530h5M91 530h4M104 530h3M109 530h1M111 530h1M119 530h1M123 530h1M127 530h1M131 530h1M136 530h3M142 530h1M145 530h2M149 530h1M155 530h1M161 530h3M166 530h1M173 530h3M181 530h1M185 530h1M187 530h1M190 530h2M194 530h1M198 530h1M204 530h1M207 530h1M211 530h1M215 530h1M225 530h3M230 530h2M236 530h5M245 530h2M253 530h1M257 530h1M260 530h2M268 530h1M274 530h4M281 530h1M285 530h1M287 530h1M290 530h2M301 530h4M310 530h1M313 530h2M317 530h1M321 530h1M325 530h1M328 530h2M332 530h1M339 530h1M342 530h5M354 530h4M367 530h5M379 530h1M383 530h1M390 530h5M397 530h1M399 530h1M411 530h1M419 530h1M423 530h1M425 530h1M428 530h2M434 530h5M441 530h1M443 530h3M449 530h1M452 530h3M458 530h1M464 530h4M475 530h5M482 530h1M486 530h1M490 530h1M495 530h2M499 530h1M505 530h1M510 530h1M514 530h1M520 530h1M523 530h2M531 530h5M538 530h2M546 530h1M549 530h3M560 530h1M563 530h2M569 530h1M575 530h4M584 530h3M594 530h1M598 530h1M600 530h1M603 530h2M609 530h5M618 530h1M626 530h1M628 530h1M631 530h5M641 530h1M644 530h2M652 530h1M658 530h4M665 530h3M46 531h1M64 531h1M72 531h1M79 531h2M89 531h1M96 531h1M107 531h2M132 531h1M134 531h1M144 531h1M159 531h1M177 531h1M187 531h1M192 531h1M213 531h1M232 531h1M234 531h1M242 531h1M244 531h1M247 531h1M260 531h2M272 531h1M287 531h1M292 531h1M299 531h1M306 531h1M327 531h1M329 531h1M340 531h2M348 531h1M352 531h1M359 531h1M366 531h1M373 531h1M384 531h1M388 531h1M395 531h2M412 531h1M425 531h1M430 531h1M432 531h1M439 531h2M450 531h2M462 531h1M469 531h1M473 531h1M480 531h2M494 531h1M509 531h1M529 531h1M536 531h2M548 531h1M565 531h1M573 531h1M580 531h1M600 531h1M605 531h1M607 531h1M615 531h1M629 531h2M637 531h1M644 531h2M656 531h1M46 532h1M64 532h1M80 532h1M107 532h1M132 532h1M144 532h1M187 532h1M192 532h1M232 532h1M244 532h1M247 532h1M260 532h2M287 532h1M292 532h1M329 532h1M341 532h1M366 532h1M384 532h1M395 532h1M412 532h1M425 532h1M430 532h1M439 532h1M451 532h1M480 532h1M494 532h1M509 532h1M536 532h2M548 532h1M565 532h1M600 532h1M605 532h1M630 532h1M644 532h2M47 533h5M55 533h1M59 533h5M81 533h5M91 533h4M104 533h3M111 533h1M119 533h5M127 533h5M136 533h7M145 533h5M153 533h3M161 533h6M173 533h3M181 533h5M188 533h4M194 533h5M202 533h3M207 533h5M215 533h1M225 533h5M232 533h1M236 533h5M245 533h2M251 533h3M257 533h3M262 533h1M266 533h3M274 533h4M281 533h5M288 533h4M301 533h4M310 533h12M325 533h1M330 533h3M342 533h5M354 533h4M367 533h5M379 533h5M390 533h5M399 533h3M405 533h1M409 533h3M419 533h5M426 533h4M434 533h5M443 533h5M452 533h7M464 533h4M475 533h5M486 533h5M495 533h5M503 533h3M510 533h5M520 533h6M531 533h5M538 533h3M544 533h3M549 533h2M560 533h5M567 533h3M575 533h4M584 533h1M594 533h5M601 533h4M609 533h5M618 533h3M624 533h3M631 533h5M641 533h3M646 533h1M650 533h3M658 533h4M665 533h1M66 534h3M100 534h1M104 534h1M170 534h1M173 534h2M229 534h1M232 534h1M549 534h2M584 534h1M665 534h1M70 535h1M175 535h1M223 535h1M230 535h2M548 535h1M551 535h1M586 535h1M667 535h1M46 547h1M61 547h1M75 547h1M104 547h1M127 547h1M160 547h1M160 548h1M48 549h1M59 549h1M62 549h1M73 549h1M76 549h1M87 549h1M103 549h1M106 549h1M115 549h1M129 549h1M145 549h2M160 549h1M48 550h1M59 550h1M73 550h1M76 550h1M79 550h1M87 550h1M103 550h1M106 550h1M115 550h1M126 550h1M129 550h1M145 550h2M163 550h1M48 551h1M59 551h1M73 551h1M76 551h1M87 551h1M103 551h1M106 551h1M115 551h1M129 551h1M145 551h2M48 552h1M59 552h1M73 552h1M76 552h1M87 552h1M103 552h1M106 552h1M115 552h1M129 552h1M145 552h2M47 553h2M51 553h1M57 553h1M59 553h1M62 553h5M73 553h1M76 553h5M84 553h1M87 553h2M93 553h1M101 553h3M106 553h1M110 553h3M115 553h2M119 553h1M123 553h1M128 553h2M132 553h1M138 553h1M142 553h1M145 553h2M149 553h1M155 553h5M162 553h1M170 553h1M173 553h2M46 554h1M60 554h2M74 554h2M89 554h1M104 554h2M108 554h1M117 554h1M127 554h1M144 554h1M146 554h1M153 554h1M160 554h1M172 554h1M175 554h1M46 555h1M61 555h1M75 555h1M89 555h1M104 555h1M117 555h1M127 555h1M146 555h1M160 555h1M172 555h1M175 555h1M47 556h5M55 556h3M62 556h5M76 556h5M84 556h5M91 556h3M101 556h3M110 556h7M119 556h7M128 556h5M136 556h3M142 556h1M147 556h3M155 556h5M162 556h3M168 556h3M173 556h2M97 557h1M101 557h1" />
<path stroke="#00383e" d="M47 518h5M59 518h5M119 518h5M127 518h5M301 518h6M354 518h6M464 518h6M49 519h3M59 519h3M121 519h1M129 519h1M49 520h3M59 520h3M121 520h1M129 520h1M299 520h1M352 520h1M462 520h1M49 521h3M59 521h3M121 521h1M129 521h1M299 521h1M352 521h1M462 521h1M49 522h3M59 522h3M121 522h1M129 522h1M299 522h1M352 522h1M462 522h1M49 523h1M61 523h1M121 523h1M129 523h1M299 523h1M352 523h1M462 523h1M49 524h1M53 524h1M57 524h1M61 524h1M66 524h3M72 524h5M81 524h5M91 524h4M100 524h7M121 524h9M136 524h3M145 524h11M161 524h3M170 524h6M181 524h5M188 524h4M194 524h5M202 524h3M207 524h3M213 524h3M223 524h9M236 524h5M245 524h9M257 524h3M262 524h1M266 524h3M274 524h3M281 524h5M288 524h4M299 524h6M310 524h5M317 524h5M325 524h8M342 524h5M352 524h6M367 524h5M377 524h9M390 524h5M399 524h5M407 524h5M419 524h11M434 524h5M443 524h5M452 524h3M462 524h6M475 524h5M484 524h9M495 524h5M503 524h3M508 524h9M520 524h5M531 524h5M540 524h7M560 524h5M567 524h3M575 524h4M594 524h11M609 524h5M618 524h3M624 524h3M631 524h5M641 524h3M646 524h1M650 524h3M658 524h3M49 525h1M53 525h1M57 525h1M61 525h1M68 525h1M74 525h1M85 525h1M102 525h1M121 525h1M129 525h1M147 525h1M153 525h1M172 525h1M183 525h1M188 525h2M196 525h1M202 525h1M209 525h1M213 525h1M225 525h1M229 525h1M247 525h1M251 525h1M259 525h1M262 525h1M266 525h1M283 525h1M288 525h2M299 525h1M312 525h1M319 525h1M327 525h1M330 525h1M352 525h1M377 525h1M381 525h1M384 525h2M401 525h3M407 525h3M421 525h1M426 525h2M447 525h1M462 525h1M484 525h1M488 525h1M492 525h1M497 525h1M503 525h1M508 525h2M512 525h1M516 525h1M522 525h1M535 525h1M540 525h1M544 525h1M562 525h1M567 525h1M596 525h1M601 525h2M620 525h1M624 525h1M643 525h1M646 525h1M650 525h1M49 526h1M53 526h1M57 526h1M61 526h1M68 526h1M74 526h1M79 526h2M85 526h1M89 526h1M96 526h1M102 526h1M107 526h2M121 526h1M129 526h1M140 526h1M147 526h1M153 526h1M164 526h1M172 526h1M177 526h1M183 526h1M188 526h2M196 526h1M200 526h3M209 526h1M213 526h1M225 526h1M229 526h1M234 526h1M242 526h1M247 526h1M251 526h1M259 526h1M262 526h1M266 526h1M272 526h1M277 526h1M283 526h1M288 526h2M299 526h1M306 526h1M312 526h1M319 526h1M327 526h1M330 526h1M340 526h2M348 526h1M352 526h1M359 526h1M373 526h1M377 526h1M381 526h1M384 526h2M388 526h1M395 526h2M401 526h3M407 526h3M421 526h1M426 526h2M432 526h1M439 526h2M447 526h1M456 526h1M462 526h1M469 526h1M473 526h1M480 526h2M484 526h1M488 526h1M492 526h1M497 526h1M501 526h3M508 526h2M512 526h1M516 526h1M522 526h1M529 526h1M535 526h1M540 526h1M544 526h1M562 526h1M567 526h1M573 526h1M580 526h1M596 526h1M601 526h2M607 526h1M615 526h1M620 526h1M624 526h1M629 526h2M637 526h1M643 526h1M646 526h1M650 526h1M656 526h1M661 526h1M49 527h1M53 527h1M57 527h1M61 527h1M68 527h1M79 527h2M89 527h1M96 527h1M102 527h1M107 527h2M121 527h1M129 527h1M140 527h1M147 527h1M153 527h1M164 527h1M172 527h1M177 527h1M183 527h1M188 527h2M196 527h1M202 527h1M209 527h1M225 527h1M229 527h1M234 527h1M242 527h1M247 527h1M251 527h1M262 527h1M272 527h1M277 527h1M283 527h1M288 527h2M299 527h1M306 527h1M312 527h1M319 527h1M327 527h1M330 527h1M340 527h2M348 527h1M352 527h1M359 527h1M373 527h1M381 527h1M388 527h1M395 527h2M401 527h1M409 527h1M421 527h1M426 527h2M432 527h1M439 527h2M456 527h1M462 527h1M469 527h1M473 527h1M480 527h2M488 527h1M497 527h1M503 527h1M512 527h1M522 527h1M529 527h1M544 527h1M562 527h1M567 527h1M573 527h1M580 527h1M596 527h1M601 527h2M607 527h1M615 527h1M629 527h2M637 527h1M646 527h1M656 527h1M661 527h1M49 528h1M53 528h1M57 528h1M61 528h1M68 528h1M72 528h1M79 528h2M89 528h1M96 528h1M102 528h1M107 528h2M121 528h1M129 528h1M136 528h5M147 528h1M153 528h1M161 528h4M172 528h1M177 528h1M183 528h7M196 528h3M202 528h1M209 528h3M225 528h1M229 528h1M234 528h1M242 528h1M247 528h1M251 528h1M260 528h5M272 528h6M283 528h7M299 528h1M306 528h1M312 528h4M319 528h1M327 528h1M330 528h1M340 528h2M348 528h1M352 528h1M359 528h1M369 528h5M381 528h1M388 528h1M395 528h2M401 528h1M405 528h1M409 528h1M421 528h1M426 528h2M432 528h1M439 528h2M445 528h1M452 528h5M462 528h1M469 528h1M473 528h1M480 528h2M488 528h1M497 528h3M503 528h1M512 528h1M522 528h4M529 528h1M542 528h3M562 528h6M573 528h1M580 528h1M596 528h1M601 528h2M607 528h1M615 528h1M622 528h1M629 528h2M637 528h1M644 528h5M656 528h6M49 529h1M61 529h1M72 529h1M79 529h2M89 529h1M96 529h1M102 529h1M107 529h2M121 529h1M129 529h1M140 529h1M147 529h1M153 529h1M164 529h1M172 529h1M177 529h1M183 529h1M188 529h2M196 529h1M202 529h1M209 529h1M229 529h1M234 529h1M242 529h1M247 529h1M251 529h1M262 529h1M272 529h1M283 529h1M288 529h2M299 529h1M306 529h1M312 529h1M315 529h1M319 529h1M327 529h1M330 529h1M340 529h2M348 529h1M352 529h1M359 529h1M373 529h1M381 529h1M388 529h1M395 529h2M401 529h1M405 529h1M409 529h1M421 529h1M426 529h2M432 529h1M439 529h2M456 529h1M462 529h1M469 529h1M473 529h1M480 529h2M488 529h1M497 529h1M503 529h1M512 529h1M522 529h1M525 529h1M529 529h1M544 529h1M562 529h1M567 529h1M573 529h1M580 529h1M596 529h1M601 529h2M607 529h1M615 529h1M629 529h2M637 529h1M646 529h1M656 529h1M49 530h1M55 530h1M61 530h1M70 530h3M79 530h2M89 530h1M96 530h1M102 530h1M107 530h2M121 530h1M129 530h1M134 530h1M140 530h1M147 530h1M153 530h1M159 530h1M164 530h1M172 530h1M177 530h1M183 530h1M188 530h2M196 530h1M202 530h1M209 530h1M213 530h1M223 530h1M229 530h1M234 530h1M242 530h1M247 530h1M251 530h1M259 530h1M262 530h1M266 530h1M272 530h1M283 530h1M288 530h2M299 530h1M306 530h1M312 530h1M315 530h1M319 530h1M327 530h1M330 530h1M340 530h2M348 530h1M352 530h1M359 530h1M373 530h1M381 530h1M388 530h1M395 530h2M401 530h1M405 530h1M409 530h1M421 530h1M426 530h2M432 530h1M439 530h2M447 530h1M450 530h2M456 530h1M462 530h1M469 530h1M473 530h1M480 530h2M488 530h1M497 530h1M503 530h1M512 530h1M522 530h1M525 530h1M529 530h1M540 530h1M544 530h1M562 530h1M567 530h1M573 530h1M580 530h1M596 530h1M601 530h2M607 530h1M615 530h1M620 530h1M624 530h1M629 530h2M637 530h1M643 530h1M646 530h1M650 530h1M656 530h1M47 531h5M55 531h1M59 531h5M70 531h1M81 531h5M91 531h4M102 531h5M111 531h1M119 531h5M127 531h5M136 531h7M145 531h5M153 531h3M161 531h6M172 531h4M181 531h5M188 531h4M194 531h5M202 531h3M207 531h5M215 531h1M223 531h9M236 531h5M245 531h2M251 531h3M257 531h3M262 531h1M266 531h3M274 531h4M281 531h5M288 531h4M301 531h4M310 531h12M325 531h1M330 531h3M342 531h5M354 531h4M367 531h5M379 531h5M390 531h5M399 531h3M405 531h1M409 531h3M419 531h5M426 531h4M434 531h5M443 531h5M452 531h7M464 531h4M475 531h5M486 531h5M495 531h5M503 531h3M510 531h5M520 531h6M531 531h5M538 531h3M544 531h3M549 531h3M560 531h5M567 531h3M575 531h4M584 531h3M594 531h5M601 531h4M609 531h5M618 531h3M624 531h3M631 531h5M641 531h3M646 531h1M650 531h3M658 531h4M665 531h3M47 532h5M55 532h1M59 532h5M70 532h1M81 532h5M91 532h4M102 532h5M111 532h1M119 532h5M127 532h5M136 532h7M145 532h5M153 532h3M161 532h6M172 532h4M181 532h5M188 532h4M194 532h5M202 532h3M207 532h5M215 532h1M223 532h9M236 532h5M245 532h2M251 532h3M257 532h3M262 532h1M266 532h3M274 532h4M281 532h5M288 532h4M301 532h4M310 532h12M325 532h1M330 532h3M342 532h5M354 532h4M367 532h5M379 532h5M390 532h5M399 532h3M405 532h1M409 532h3M419 532h5M426 532h4M434 532h5M443 532h5M452 532h7M464 532h4M475 532h5M486 532h5M495 532h5M503 532h3M510 532h5M520 532h6M531 532h5M538 532h3M544 532h3M549 532h3M560 532h5M567 532h3M575 532h4M584 532h3M594 532h5M601 532h4M609 532h5M618 532h3M624 532h3M631 532h5M641 532h3M646 532h1M650 532h3M658 532h4M665 532h3M70 533h1M102 533h1M172 533h1M223 533h1M230 533h2M551 533h1M586 533h1M667 533h1M70 534h1M102 534h1M172 534h1M223 534h1M230 534h2M551 534h1M586 534h1M667 534h1M66 535h3M100 535h5M170 535h5M549 535h2M584 535h1M665 535h1M47 547h5M55 547h3M62 547h3M76 547h5M84 547h10M97 547h7M110 547h3M119 547h7M128 547h5M136 547h3M142 547h8M155 547h5M164 547h7M49 548h1M55 548h1M80 548h1M86 548h1M91 548h1M99 548h1M121 548h1M125 548h1M130 548h1M136 548h1M144 548h1M147 548h1M159 548h1M164 548h1M168 548h1M49 549h1M55 549h1M60 549h2M66 549h1M74 549h2M80 549h1M86 549h1M91 549h1M99 549h1M104 549h2M114 549h1M121 549h1M125 549h1M130 549h1M134 549h3M144 549h1M147 549h1M153 549h1M159 549h1M164 549h1M168 549h1M49 550h1M55 550h1M60 550h2M66 550h1M74 550h2M86 550h1M91 550h1M99 550h1M104 550h2M114 550h1M121 550h1M130 550h1M136 550h1M144 550h1M147 550h1M153 550h1M168 550h1M49 551h7M60 551h7M74 551h2M86 551h1M91 551h1M99 551h1M104 551h2M110 551h5M121 551h3M130 551h3M136 551h1M144 551h1M147 551h1M153 551h1M166 551h3M49 552h1M55 552h1M60 552h2M74 552h2M86 552h1M91 552h1M99 552h1M104 552h2M114 552h1M121 552h1M130 552h1M136 552h1M144 552h1M147 552h1M153 552h1M168 552h1M49 553h1M55 553h1M60 553h2M74 553h2M86 553h1M91 553h1M99 553h1M104 553h2M108 553h1M114 553h1M121 553h1M125 553h1M130 553h1M136 553h1M144 553h1M147 553h1M153 553h1M164 553h1M168 553h1M47 554h5M55 554h3M62 554h5M76 554h5M84 554h5M91 554h3M99 554h5M110 554h7M119 554h7M128 554h5M136 554h3M142 554h1M147 554h3M155 554h5M162 554h3M168 554h3M173 554h2M47 555h5M55 555h3M62 555h5M76 555h5M84 555h5M91 555h3M99 555h5M110 555h7M119 555h7M128 555h5M136 555h3M142 555h1M147 555h3M155 555h5M162 555h3M168 555h3M173 555h2M99 556h1M99 557h1M97 558h5" />
<path stroke="rgba(38,96,105,0.9411764705882353)" d="M52 518h1M126 518h1M300 518h1M307 518h1M353 518h1M360 518h1M463 518h1M470 518h1M47 519h2M52 519h1M62 519h2M119 519h2M123 519h1M127 519h1M130 519h2M301 519h6M354 519h6M464 519h6M52 520h1M128 520h1M298 520h1M351 520h1M461 520h1M52 521h1M128 521h1M298 521h1M351 521h1M461 521h1M52 522h1M128 522h1M298 522h1M351 522h1M461 522h1M298 523h1M351 523h1M461 523h1M50 524h1M60 524h1M90 524h1M95 524h1M160 524h1M169 524h1M176 524h1M201 524h1M256 524h1M263 524h1M273 524h1M298 524h1M305 524h1M309 524h1M324 524h1M333 524h1M351 524h1M358 524h1M372 524h1M406 524h1M455 524h1M461 524h1M468 524h1M500 524h1M519 524h1M559 524h1M570 524h1M574 524h1M579 524h1M640 524h1M647 524h1M657 524h1M50 525h1M60 525h1M263 525h1M298 525h1M351 525h1M406 525h1M461 525h1M647 525h1M50 526h1M60 526h1M73 526h1M88 526h1M97 526h1M128 526h1M148 526h1M165 526h1M171 526h1M178 526h1M228 526h1M235 526h1M241 526h1M248 526h1M258 526h1M263 526h1M267 526h1M271 526h1M278 526h1M298 526h1M307 526h1M311 526h1M320 526h1M326 526h1M331 526h1M351 526h1M360 526h1M380 526h1M406 526h1M461 526h1M470 526h1M485 526h1M491 526h1M498 526h1M513 526h1M521 526h1M534 526h1M541 526h1M561 526h1M568 526h1M572 526h1M581 526h1M608 526h1M614 526h1M642 526h1M647 526h1M651 526h1M655 526h1M662 526h1M50 527h1M60 527h1M72 527h1M88 527h1M97 527h1M128 527h1M136 527h3M148 527h1M161 527h3M165 527h1M171 527h1M178 527h1M184 527h4M198 527h1M201 527h1M211 527h1M228 527h1M235 527h1M241 527h1M248 527h1M260 527h2M264 527h1M271 527h1M273 527h4M278 527h1M284 527h4M298 527h1M307 527h1M311 527h1M313 527h3M320 527h1M326 527h1M331 527h1M351 527h1M360 527h1M369 527h4M380 527h1M405 527h1M408 527h1M445 527h1M452 527h4M461 527h1M470 527h1M499 527h1M513 527h1M521 527h1M523 527h3M542 527h2M561 527h1M563 527h4M568 527h1M572 527h1M581 527h1M608 527h1M614 527h1M622 527h1M644 527h2M648 527h1M655 527h1M657 527h4M662 527h1M50 528h1M60 528h1M88 528h1M97 528h1M128 528h1M148 528h1M160 528h1M165 528h1M171 528h1M178 528h1M201 528h1M228 528h1M235 528h1M241 528h1M248 528h1M265 528h1M271 528h1M278 528h1M298 528h1M307 528h1M311 528h1M316 528h1M320 528h1M326 528h1M331 528h1M351 528h1M360 528h1M380 528h1M408 528h1M461 528h1M470 528h1M500 528h1M513 528h1M521 528h1M526 528h1M561 528h1M568 528h1M572 528h1M581 528h1M608 528h1M614 528h1M649 528h1M655 528h1M662 528h1M50 529h1M55 529h1M60 529h1M70 529h1M88 529h1M97 529h1M128 529h1M134 529h1M148 529h1M159 529h1M165 529h1M171 529h1M178 529h1M201 529h1M213 529h1M223 529h1M228 529h1M235 529h1M241 529h1M248 529h1M259 529h1M263 529h1M266 529h1M271 529h1M298 529h1M307 529h1M311 529h1M316 529h1M320 529h1M326 529h1M331 529h1M351 529h1M360 529h1M380 529h1M408 529h1M447 529h1M450 529h2M461 529h1M470 529h1M498 529h1M513 529h1M521 529h1M526 529h1M540 529h1M561 529h1M568 529h1M572 529h1M581 529h1M608 529h1M614 529h1M620 529h1M624 529h1M643 529h1M647 529h1M650 529h1M655 529h1M50 530h1M60 530h1M88 530h1M97 530h1M128 530h1M135 530h1M148 530h1M158 530h1M165 530h1M171 530h1M178 530h1M201 530h1M228 530h1M235 530h1M241 530h1M248 530h1M258 530h1M263 530h1M267 530h1M271 530h1M298 530h1M307 530h1M311 530h1M316 530h1M320 530h1M326 530h1M331 530h1M351 530h1M360 530h1M380 530h1M408 530h1M461 530h1M470 530h1M498 530h1M513 530h1M521 530h1M526 530h1M541 530h1M561 530h1M568 530h1M572 530h1M581 530h1M608 530h1M614 530h1M642 530h1M647 530h1M651 530h1M655 530h1M52 531h1M90 531h1M95 531h1M112 531h1M126 531h1M150 531h1M160 531h1M167 531h1M171 531h1M176 531h1M201 531h1M214 531h1M256 531h1M263 531h1M273 531h1M278 531h1M300 531h1M305 531h1M309 531h1M324 531h1M333 531h1M353 531h1M358 531h1M372 531h1M408 531h1M463 531h1M468 531h1M500 531h1M519 531h1M526 531h1M541 531h1M552 531h1M559 531h1M570 531h1M574 531h1M579 531h1M640 531h1M647 531h1M657 531h1M662 531h1M52 532h1M90 532h1M95 532h1M112 532h1M126 532h1M150 532h1M160 532h1M167 532h1M171 532h1M176 532h1M201 532h1M214 532h1M256 532h1M263 532h1M273 532h1M278 532h1M300 532h1M305 532h1M309 532h1M324 532h1M333 532h1M353 532h1M358 532h1M372 532h1M408 532h1M463 532h1M468 532h1M500 532h1M519 532h1M526 532h1M541 532h1M552 532h1M559 532h1M570 532h1M574 532h1M579 532h1M640 532h1M647 532h1M657 532h1M662 532h1M171 533h1M552 533h1M171 534h1M552 534h1M169 535h1M66 536h3M100 536h5M170 536h5M549 536h2M584 536h1M665 536h1M52 547h1M65 547h1M83 547h1M94 547h1M133 547h1M141 547h1M150 547h1M50 549h1M85 549h1M92 549h1M113 549h1M131 549h1M143 549h1M148 549h1M158 549h1M51 550h3M62 550h4M85 550h1M92 550h1M110 550h3M123 550h1M132 550h1M143 550h1M148 550h1M166 550h1M85 551h1M92 551h1M133 551h1M143 551h1M148 551h1M50 552h1M85 552h1M92 552h1M108 552h1M113 552h1M125 552h1M131 552h1M143 552h1M148 552h1M164 552h1M50 553h1M85 553h1M92 553h1M113 553h1M131 553h1M143 553h1M148 553h1M52 554h1M83 554h1M94 554h1M133 554h1M141 554h1M150 554h1M52 555h1M83 555h1M94 555h1M133 555h1M141 555h1M150 555h1M97 559h5" />
<path stroke="rgba(86,141,147,0.8627450980392157)" d="M58 518h1M124 518h1M58 519h1M58 520h1M122 520h1M58 521h1M122 521h1M58 522h1M122 522h1M51 523h3M57 523h3M66 523h3M72 523h5M81 523h5M91 523h4M100 523h7M123 523h5M136 523h3M145 523h11M161 523h3M170 523h6M181 523h5M188 523h4M194 523h5M202 523h3M207 523h3M213 523h3M223 523h9M236 523h5M245 523h9M257 523h3M262 523h1M266 523h3M274 523h3M281 523h5M288 523h4M301 523h4M310 523h5M317 523h5M325 523h8M342 523h5M354 523h4M367 523h5M377 523h9M390 523h5M399 523h5M407 523h5M419 523h11M434 523h5M443 523h5M452 523h3M464 523h4M475 523h5M484 523h9M495 523h5M503 523h3M508 523h9M520 523h5M531 523h5M540 523h7M560 523h5M567 523h3M575 523h4M594 523h11M609 523h5M618 523h3M624 523h3M631 523h5M641 523h3M646 523h1M650 523h3M658 523h3M54 524h1M56 524h1M58 524h1M69 524h1M71 524h1M86 524h1M99 524h1M139 524h1M156 524h1M180 524h1M199 524h1M210 524h1M212 524h1M222 524h1M254 524h1M269 524h1M280 524h1M322 524h1M347 524h1M376 524h1M389 524h1M404 524h1M418 524h1M433 524h1M448 524h1M474 524h1M502 524h1M506 524h1M517 524h1M530 524h1M547 524h1M593 524h1M621 524h1M623 524h1M636 524h1M653 524h1M54 525h1M56 525h1M58 525h1M66 525h1M69 525h1M72 525h1M76 525h1M79 525h5M86 525h1M89 525h8M100 525h1M104 525h5M123 525h5M136 525h5M145 525h2M149 525h3M155 525h1M161 525h4M170 525h1M173 525h5M181 525h1M185 525h1M190 525h2M194 525h1M198 525h3M204 525h1M207 525h1M210 525h1M212 525h1M215 525h1M223 525h1M227 525h1M230 525h2M234 525h9M245 525h2M249 525h1M253 525h1M257 525h1M268 525h1M272 525h6M281 525h1M285 525h1M290 525h2M301 525h6M310 525h1M313 525h2M317 525h1M321 525h1M325 525h1M328 525h2M332 525h1M340 525h9M354 525h6M367 525h7M376 525h1M379 525h1M383 525h1M388 525h9M399 525h1M404 525h1M411 525h1M419 525h1M423 525h3M428 525h2M432 525h9M443 525h3M448 525h1M452 525h5M464 525h6M473 525h9M486 525h1M490 525h1M495 525h2M499 525h3M505 525h1M510 525h1M514 525h1M517 525h1M520 525h1M523 525h2M529 525h5M542 525h1M546 525h1M560 525h1M563 525h2M569 525h1M573 525h8M594 525h1M598 525h3M603 525h2M607 525h9M618 525h1M621 525h1M623 525h1M626 525h1M629 525h9M641 525h1M652 525h1M656 525h6M54 526h1M56 526h1M58 526h1M69 526h1M86 526h1M101 526h1M122 526h1M139 526h1M152 526h1M154 526h1M182 526h1M197 526h1M199 526h1M210 526h1M212 526h1M224 526h1M252 526h1M282 526h1M347 526h1M349 526h1M374 526h1M376 526h1M378 526h1M387 526h1M389 526h1M404 526h1M420 526h1M431 526h1M433 526h1M446 526h1M448 526h1M457 526h1M472 526h1M474 526h1M487 526h1M489 526h1M504 526h1M515 526h1M517 526h1M528 526h1M530 526h1M545 526h1M595 526h1M621 526h1M623 526h1M636 526h1M638 526h1M54 527h1M56 527h1M58 527h1M69 527h1M101 527h1M122 527h1M152 527h1M154 527h1M182 527h1M199 527h1M212 527h1M224 527h1M252 527h1M282 527h1M347 527h1M349 527h1M374 527h1M387 527h1M389 527h1M404 527h1M420 527h1M431 527h1M433 527h1M446 527h1M457 527h1M472 527h1M474 527h1M487 527h1M489 527h1M504 527h1M528 527h1M530 527h1M545 527h1M595 527h1M621 527h1M623 527h1M636 527h1M638 527h1M54 528h1M56 528h1M58 528h1M69 528h1M71 528h1M101 528h1M122 528h1M152 528h1M154 528h1M182 528h1M199 528h1M212 528h1M224 528h1M252 528h1M282 528h1M347 528h1M349 528h1M374 528h1M387 528h1M389 528h1M402 528h1M404 528h1M420 528h1M431 528h1M433 528h1M446 528h1M457 528h1M472 528h1M474 528h1M487 528h1M489 528h1M502 528h1M504 528h1M528 528h1M530 528h1M545 528h1M595 528h1M621 528h1M623 528h1M636 528h1M638 528h1M54 529h1M56 529h1M69 529h1M101 529h1M122 529h1M152 529h1M154 529h1M182 529h1M212 529h1M224 529h1M252 529h1M282 529h1M347 529h1M349 529h1M374 529h1M387 529h1M389 529h1M402 529h1M404 529h1M420 529h1M431 529h1M433 529h1M446 529h1M457 529h1M472 529h1M474 529h1M487 529h1M489 529h1M502 529h1M504 529h1M528 529h1M530 529h1M545 529h1M595 529h1M621 529h1M623 529h1M636 529h1M638 529h1M54 530h1M56 530h1M69 530h1M101 530h1M122 530h1M139 530h1M152 530h1M154 530h1M182 530h1M197 530h1M210 530h1M212 530h1M222 530h1M224 530h1M252 530h1M282 530h1M347 530h1M349 530h1M374 530h1M387 530h1M389 530h1M402 530h1M404 530h1M420 530h1M431 530h1M433 530h1M446 530h1M448 530h1M457 530h1M472 530h1M474 530h1M487 530h1M489 530h1M502 530h1M504 530h1M528 530h1M530 530h1M545 530h1M595 530h1M621 530h1M623 530h1M636 530h1M638 530h1M54 531h1M56 531h1M58 531h1M69 531h1M71 531h1M86 531h1M101 531h1M124 531h1M152 531h1M156 531h1M180 531h1M199 531h1M212 531h1M222 531h1M254 531h1M269 531h1M280 531h1M322 531h1M347 531h1M378 531h1M389 531h1M402 531h1M404 531h1M418 531h1M433 531h1M448 531h1M459 531h1M474 531h1M502 531h1M506 531h1M515 531h1M530 531h1M547 531h1M583 531h1M593 531h1M621 531h1M623 531h1M636 531h1M653 531h1M664 531h1M54 532h1M56 532h1M58 532h1M69 532h1M71 532h1M86 532h1M101 532h1M124 532h1M152 532h1M156 532h1M180 532h1M199 532h1M212 532h1M222 532h1M254 532h1M269 532h1M280 532h1M322 532h1M347 532h1M378 532h1M389 532h1M402 532h1M404 532h1M418 532h1M433 532h1M448 532h1M459 532h1M474 532h1M502 532h1M506 532h1M515 532h1M530 532h1M547 532h1M583 532h1M593 532h1M621 532h1M623 532h1M636 532h1M653 532h1M664 532h1M69 533h1M71 533h1M101 533h1M222 533h1M224 533h1M585 533h1M666 533h1M69 534h1M71 534h1M101 534h1M222 534h1M224 534h1M585 534h1M666 534h1M69 535h1M99 535h1M583 535h1M585 535h1M664 535h1M666 535h1M47 546h5M55 546h3M62 546h3M76 546h5M84 546h10M97 546h7M110 546h3M119 546h7M128 546h5M136 546h3M142 546h8M155 546h5M164 546h7M54 547h1M58 547h1M81 547h1M96 547h1M109 547h1M135 547h1M139 547h1M154 547h1M47 548h2M51 548h1M54 548h1M57 548h1M60 548h7M74 548h5M81 548h1M84 548h1M87 548h3M93 548h1M97 548h1M101 548h5M110 548h5M119 548h1M123 548h1M128 548h2M132 548h3M138 548h1M142 548h1M145 548h2M149 548h1M153 548h5M166 548h1M170 548h1M54 549h1M56 549h1M67 549h1M81 549h1M98 549h1M122 549h1M124 549h1M137 549h1M152 549h1M154 549h1M165 549h1M167 549h1M56 550h1M67 550h1M98 550h1M124 550h1M137 550h1M152 550h1M154 550h1M165 550h1M56 551h1M67 551h1M98 551h1M109 551h1M124 551h1M135 551h1M137 551h1M152 551h1M154 551h1M165 551h1M56 552h1M98 552h1M109 552h1M124 552h1M135 552h1M137 552h1M152 552h1M154 552h1M165 552h1M54 553h1M56 553h1M98 553h1M107 553h1M109 553h1M122 553h1M124 553h1M135 553h1M137 553h1M152 553h1M154 553h1M165 553h1M167 553h1M54 554h1M58 554h1M67 554h1M81 554h1M98 554h1M109 554h1M135 554h1M139 554h1M154 554h1M165 554h1M167 554h1M54 555h1M58 555h1M67 555h1M81 555h1M98 555h1M109 555h1M135 555h1M139 555h1M154 555h1M165 555h1M167 555h1M98 556h1M98 557h1M96 558h1" />
<path stroke="rgba(179,169,185,0.5686274509803921)" d="M821 518h1M23 519h1M821 519h1M23 520h1M821 520h1M23 521h1M821 521h1M23 522h1M821 522h1M23 523h1M821 523h1M23 524h1M821 524h1M23 525h1M821 525h1M23 526h1M821 526h1M23 527h1M821 527h1M23 528h1M821 528h1M23 529h1M821 529h1M23 530h1M821 530h1M23 531h1M821 531h1M23 532h1M821 532h1M23 533h1M821 533h1M23 534h1M821 534h1M23 535h1M821 535h1M23 536h1M821 536h1M23 537h1M821 537h1M23 538h1M821 538h1M23 539h1M23 540h1M23 541h1M23 542h1M23 543h1M23 544h1M23 545h1M23 546h1M23 547h1M23 548h1" />
<path stroke="rgba(24,83,93,0.9607843137254902)" d="M122 519h1M50 523h1M60 523h1M128 523h1M73 525h1M128 525h1M148 525h1M171 525h1M201 525h1M228 525h1M248 525h1M258 525h1M267 525h1M311 525h1M320 525h1M326 525h1M331 525h1M380 525h1M485 525h1M491 525h1M498 525h1M513 525h1M521 525h1M534 525h1M541 525h1M561 525h1M568 525h1M642 525h1M651 525h1M139 527h1M197 527h1M210 527h1M71 529h1M50 548h1M85 548h1M92 548h1M131 548h1M143 548h1M148 548h1M158 548h1M54 550h1M122 550h1M167 550h1" />
<path stroke="rgba(97,153,158,0.8392156862745098)" d="M124 519h1M90 523h1M95 523h1M160 523h1M169 523h1M176 523h1M201 523h1M256 523h1M263 523h1M273 523h1M305 523h1M309 523h1M324 523h1M333 523h1M358 523h1M372 523h1M406 523h1M455 523h1M468 523h1M500 523h1M519 523h1M559 523h1M570 523h1M574 523h1M579 523h1M640 523h1M647 523h1M657 523h1M88 525h1M97 525h1M160 525h1M165 525h1M169 525h1M178 525h1M256 525h1M271 525h1M278 525h1M307 525h1M309 525h1M324 525h1M333 525h1M360 525h1M470 525h1M519 525h1M559 525h1M570 525h1M572 525h1M581 525h1M640 525h1M655 525h1M662 525h1M71 527h1M73 527h1M406 527h1M541 527h1M160 529h1M184 529h1M222 529h1M265 529h1M273 529h1M284 529h1M372 529h1M448 529h1M455 529h1M543 529h1M566 529h1M649 529h1M657 529h1M69 536h1M99 536h1M583 536h1M585 536h1M664 536h1M666 536h1M52 546h1M65 546h1M83 546h1M94 546h1M133 546h1M141 546h1M150 546h1M52 548h1M83 548h1M94 548h1M141 548h1M150 548h1M109 550h1M107 552h1M96 559h1" />
<path stroke="rgba(75,129,138,0.8823529411764706)" d="M126 519h1M307 519h1M360 519h1M470 519h1M160 527h1M316 527h1M526 527h1M158 529h1M258 529h1M267 529h1M642 529h1M651 529h1M169 536h1" />
<path stroke="rgba(7,72,81,0.9803921568627451)" d="M128 519h1M263 527h1M498 527h1M647 527h1M50 550h1M113 550h1M131 550h1" />
<path stroke="rgba(65,118,128,0.9019607843137255)" d="M300 519h1M353 519h1M463 519h1M300 523h1M353 523h1M463 523h1M67 525h1M75 525h1M84 525h1M103 525h1M184 525h1M195 525h1M203 525h1M208 525h1M214 525h1M226 525h1M250 525h1M284 525h1M300 525h1M318 525h1M353 525h1M382 525h1M400 525h1M410 525h1M422 525h1M463 525h1M511 525h1M543 525h1M597 525h1M619 525h1M625 525h1M265 527h1M402 527h1M500 527h1M502 527h1M649 527h1M135 529h1M139 529h1M197 529h1M210 529h1M541 529h1M79 548h1M90 548h1M100 548h1M120 548h1M169 548h1M133 550h1M135 550h1M54 552h1M122 552h1M167 552h1" />
<path stroke="rgba(179,167,183,0.25098039215686274)" d="M822 520h1M822 521h1M822 522h1M822 523h1M22 524h1M822 524h1M22 525h1M822 525h1M22 526h1M822 526h1M22 527h1M822 527h1M22 528h1M822 528h1M22 529h1M822 529h1M22 530h1M822 530h1M22 531h1M822 531h1M22 532h1M822 532h1M22 533h1M822 533h1M22 534h1M822 534h1M22 535h1M822 535h1M22 536h1M822 536h1M22 537h1M822 537h1M22 538h1M822 538h1M22 539h1M822 539h1M22 540h1M822 540h1M22 541h1M822 541h1M22 542h1M822 542h1M22 543h1M822 543h1M22 544h1M822 544h1M22 545h1M822 545h1M22 546h1M822 546h1M22 547h1M822 547h1M22 548h1M822 548h1M22 549h1" />
<path stroke="rgba(52,106,114,0.9215686274509803)" d="M122 523h1M101 525h1M122 525h1M152 525h1M154 525h1M182 525h1M197 525h1M224 525h1M252 525h1M282 525h1M378 525h1M420 525h1M446 525h1M487 525h1M489 525h1M502 525h1M504 525h1M515 525h1M545 525h1M595 525h1M56 548h1M98 548h1M122 548h1M124 548h1M135 548h1M137 548h1M165 548h1M167 548h1" />
<path stroke="rgba(228,244,247,0.8549019607843137)" d="M780 525h5M796 525h5M780 526h5M796 526h5M778 527h2M785 527h2M794 527h2M778 528h2M785 528h2M794 528h2M778 529h2M787 529h2M792 529h2M778 530h2M787 530h2M792 530h2M778 531h2M789 531h3M780 532h2M789 532h3M780 533h2M782 534h2M782 535h2M784 536h2M784 537h2M784 538h2M782 539h2M782 540h2M780 541h2M780 542h2M778 543h2M778 544h2M778 545h2M778 546h2M778 547h2" />
<path stroke="#53587e" d="M780 527h5M796 527h5M780 528h5M796 528h5M780 529h7M794 529h7M780 530h7M794 530h7M780 531h9M792 531h9M782 532h7M792 532h7M782 533h17M784 534h13M784 535h13M786 536h9M786 537h9M786 538h9M784 539h13M784 540h13M782 541h17M782 542h7M792 542h7M780 543h9M792 543h9M780 544h7M794 544h7M780 545h7M794 545h7M780 546h5M796 546h5M780 547h5M796 547h5" />
</svg>