<svg xmlns="http://www.w3.org/2000/svg" viewBox="0 -0.5 851 600" shape-rendering="crispEdges">
<metadata>Made with Pixels to Svg https://codepen.io/shshaw/pen/XbxvNj</metadata>
<path stroke="#3a4247" d="M0 0h851M0 1h851M0 2h851M0 3h851M0 4h851M0 5h851M0 6h851M0 7h851M0 8h851M0 9h851M0 10h851M0 11h851M0 12h851M0 13h851M0 14h851M0 15h851M0 16h851M0 17h851M0 18h851M0 19h851M0 20h851M0 21h851M0 22h851M0 23h851M0 24h851M0 25h851M0 26h851M0 27h851M0 28h851M0 29h851M0 30h851M0 31h851M0 32h851M0 33h851M0 34h851M0 35h851M0 36h851M0 37h851M0 38h851M0 39h851M0 40h851M0 41h851M0 42h851M0 43h851M0 44h851M0 45h851M0 46h851M0 47h851M0 48h851M0 49h851M0 50h851M0 51h851M0 52h851M0 53h851M0 54h851M0 55h851M0 56h851M0 57h851M0 58h851M0 59h851M0 60h851M0 61h851M0 62h851M0 63h851M0 64h851M0 65h851M0 66h851M0 67h851M0 68h851M0 69h851M0 70h851M0 71h851M0 72h851M0 73h851M0 74h851M0 75h851M0 76h851M0 77h851M0 78h851M0 79h851M0 80h851M0 81h851M0 82h851M0 83h851M0 84h851M0 85h851M0 86h851M0 87h851M0 88h851M0 89h851M0 90h851M0 91h851M0 92h851M0 93h851M0 94h851M0 95h851M0 96h851M0 97h851M0 98h851M0 99h851M0 100h851M0 101h851M0 102h851M0 103h851M0 104h851M0 105h851M0 106h851M0 107h851M0 108h851M0 109h851M0 110h851M0 111h851M0 112h851M0 113h851M0 114h851M0 115h851M0 116h851M0 117h851M0 118h851M0 119h851M0 120h851M0 121h851M0 122h851M0 123h851M0 124h851M0 125h851M0 126h851M0 127h851M0 128h851M0 129h851M0 130h851M0 131h851M0 132h851M0 133h851M0 134h851M0 135h851M0 136h851M0 137h851M0 138h851M0 139h851M0 140h851M0 141h851M0 142h851M0 143h851M0 144h851M0 145h851M0 146h851M0 147h851M0 148h851M0 149h851M0 150h851M0 151h851M0 152h851M0 153h851M0 154h851M0 155h851M0 156h851M0 157h851M0 158h851M0 159h851M0 160h851M0 161h851M0 162h851M0 163h851M0 164h851M0 165h851M0 166h851M0 167h851M0 168h851M0 169h851M0 170h851M0 171h851M0 172h851M0 173h851M0 174h851M0 175h851M0 176h851M0 177h851M0 178h851M0 179h851M0 180h851M0 181h851M0 182h851M0 183h851M0 184h851M0 185h851M0 186h851M0 187h851M0 188h851M0 189h851M0 190h851M0 191h851M0 192h851M0 193h851M0 194h851M0 195h851M0 196h851M0 197h851M0 198h851M0 199h851M0 200h851M0 201h851M0 202h851M0 203h851M0 204h851M0 205h851M0 206h851M0 207h851M0 208h851M0 209h851M0 210h851M0 211h851M0 212h851M0 213h851M0 214h851M0 215h851M0 216h851M0 217h851M0 218h851M0 219h851M0 220h851M0 221h851M0 222h851M0 223h851M0 224h851M0 225h851M0 226h851M0 227h851M0 228h851M0 229h851M0 230h851M0 231h851M0 232h851M0 233h851M0 234h851M0 235h851M0 236h851M0 237h851M0 238h851M0 239h851M0 240h851M0 241h851M0 242h851M0 243h851M0 244h851M0 245h851M0 246h851M0 247h851M0 248h851M0 249h851M0 250h851M0 251h851M0 252h851M0 253h851M0 254h851M0 255h851M0 256h851M0 257h851M0 258h851M0 259h851M0 260h851M0 261h851M0 262h851M0 263h851M0 264h851M0 265h851M0 266h851M0 267h851M0 268h851M0 269h851M0 270h851M0 271h851M0 272h851M0 273h851M0 274h851M0 275h851M0 276h851M0 277h851M0 278h851M0 279h851M0 280h851M0 281h851M0 282h851M0 283h851M0 284h851M0 285h851M0 286h851M0 287h851M0 288h851M0 289h851M0 290h851M0 291h851M0 292h851M0 293h851M0 294h851M0 295h851M0 296h851M0 297h851M0 298h851M0 299h851M0 300h851M0 301h851M0 302h851M0 303h851M0 304h851M0 305h851M0 306h851M0 307h851M0 308h851M0 309h851M0 310h851M0 311h851M0 312h851M0 313h851M0 314h851M0 315h851M0 316h851M0 317h851M0 318h851M0 319h851M0 320h851M0 321h851M0 322h851M0 323h851M0 324h851M0 325h851M0 326h851M0 327h851M0 328h851M0 329h851M0 330h851M0 331h851M0 332h851M0 333h851M0 334h851M0 335h851M0 336h851M0 337h851M0 338h851M0 339h851M0 340h851M0 341h851M0 342h851M0 343h851M0 344h851M0 345h851M0 346h851M0 347h851M0 348h851M0 349h851M0 350h851M0 351h851M0 352h851M0 353h851M0 354h851M0 355h851M0 356h851M0 357h851M0 358h851M0 359h851M0 360h851M0 361h851M0 362h851M0 363h851M0 364h851M0 365h851M0 366h851M0 367h851M0 368h851M0 369h851M0 370h851M0 371h851M0 372h851M0 373h851M0 374h851M0 375h851M0 376h851M0 377h851M0 378h851M0 379h851M0 380h851M0 381h851M0 382h851M0 383h851M0 384h851M0 385h851M0 386h851M0 387h851M0 388h851M0 389h851M0 390h851M0 391h851M0 392h851M0 393h851M0 394h851M0 395h851M0 396h851M0 397h851M0 398h851M0 399h851M0 400h851M0 401h851M0 402h851M0 403h851M0 404h851M0 405h851M0 406h851M0 407h851M0 408h851M0 409h851M0 410h851M0 411h851M0 412h851M0 413h851M0 414h851M0 415h851M0 416h851M0 417h851M0 418h851M0 419h851M0 420h851M0 421h851M0 422h851M0 423h851M0 424h851M0 425h851M0 426h851M0 427h851M0 428h851M0 429h851M0 430h851M0 431h851M0 432h851M0 433h851M0 434h851M0 435h851M0 436h851M0 437h851M0 438h851M0 439h851M0 440h851M0 441h851M0 442h851M0 443h851M0 444h851M0 445h851M0 446h851M0 447h851M0 448h851M0 449h851M0 450h851M0 451h851M0 452h851M0 453h851M0 454h851M0 455h851M0 456h851M0 457h851M0 458h851M0 459h851M0 460h851M0 461h851M0 462h851M0 463h851M0 464h851M0 465h851M0 466h851M0 467h851M0 468h851M0 469h851M0 470h851M0 471h851M0 472h851M0 473h851M0 474h851M0 475h851M0 476h851M0 477h851M0 478h851M0 479h851M0 480h851M0 481h851M0 482h851M0 483h851M0 484h851M0 485h851M0 486h851M0 487h851M0 488h851M0 489h851M0 490h851M0 491h851M0 492h851M0 493h851M0 494h851M0 495h851M0 496h851M0 497h851M0 498h851M0 499h851M0 500h851M0 501h851M0 502h851M0 503h851M0 504h851M0 505h851M0 506h851M0 507h851M0 508h851M0 509h851M0 510h851M0 511h851M0 512h851M0 513h851M0 514h851M0 515h851M0 516h851M0 517h851M0 518h851M0 519h851M0 520h851M0 521h851M0 522h851M0 523h851M0 524h851M0 525h851M0 526h851M0 527h851M0 528h851M0 529h851M0 530h851M0 531h851M0 532h851M0 533h851M0 534h851M0 535h851M0 536h851M0 537h851M0 538h851M0 539h851M0 540h851M0 541h851M0 542h851M0 543h851M0 544h851M0 545h851M0 546h851M0 547h851M0 548h851M0 549h851M0 550h851M0 551h851M0 552h851M0 553h851M0 554h851M0 555h851M0 556h851M0 557h851M0 558h851M0 559h851M0 560h851M0 561h851M0 562h851M0 563h851M0 564h851M0 565h851M0 566h851M0 567h851M0 568h851M0 569h851M0 570h851M0 571h851M0 572h851M0 573h851M0 574h851M0 575h851M0 576h851M0 577h851M0 578h851M0 579h851M0 580h851M0 581h851M0 582h851M0 583h851M0 584h851M0 585h851M0 586h851M0 587h851M0 588h851M0 589h851M0 590h851M0 591h851M0 592h851M0 593h851M0 594h851M0 595h851M0 596h851M0 597h851M0 598h851M0 599h851" />
</svg>