<svg xmlns="http://www.w3.org/2000/svg" viewBox="0 -0.5 851 600" shape-rendering="crispEdges">
<metadata>Made with Pixels to Svg https://codepen.io/shshaw/pen/XbxvNj</metadata>
<path stroke="rgba(163,183,187,0.25098039215686274)" d="M27 503h791M26 504h1M818 504h1M25 505h1M819 505h1M24 506h1M820 506h1M23 507h1M821 507h1M22 508h1M822 508h1M22 509h1M822 509h1M22 510h1M822 510h1M22 511h1M822 511h1M22 512h1M822 512h1M22 513h1M822 513h1M22 514h1M822 514h1M22 515h1M822 515h1M22 516h1M822 516h1M22 517h1M822 517h1M22 518h1M822 518h1M22 519h1M822 519h1M22 520h1M22 521h1M22 522h1M22 523h1M822 549h1M22 550h1M822 550h1M22 551h1M822 551h1M22 552h1M822 552h1M22 553h1M822 553h1M22 554h1M822 554h1M22 555h1M822 555h1M22 556h1M822 556h1M22 557h1M822 557h1M22 558h1M822 558h1M22 559h1M822 559h1M22 560h1M822 560h1M22 561h1M822 561h1M22 562h1M822 562h1M22 563h1M822 563h1M22 564h1M822 564h1M22 565h1M822 565h1M22 566h1M822 566h1M22 567h1M822 567h1M23 568h1M821 568h1M24 569h1M820 569h1M25 570h1M819 570h1M26 571h1M818 571h1M27 572h791" />
<path stroke="rgba(165,181,186,0.5686274509803921)" d="M27 504h791M26 505h1M818 505h1M25 506h1M819 506h1M24 507h1M820 507h1M23 508h1M821 508h1M23 509h1M821 509h1M23 510h1M821 510h1M23 511h1M821 511h1M23 512h1M821 512h1M23 513h1M821 513h1M23 514h1M821 514h1M23 515h1M821 515h1M23 516h1M821 516h1M23 517h1M821 517h1M23 518h1M821 539h1M821 540h1M821 541h1M821 542h1M821 543h1M821 544h1M821 545h1M821 546h1M821 547h1M821 548h1M23 549h1M821 549h1M23 550h1M821 550h1M23 551h1M821 551h1M23 552h1M821 552h1M23 553h1M821 553h1M23 554h1M821 554h1M23 555h1M821 555h1M23 556h1M821 556h1M23 557h1M821 557h1M23 558h1M821 558h1M23 559h1M821 559h1M23 560h1M821 560h1M23 561h1M821 561h1M23 562h1M821 562h1M23 563h1M821 563h1M23 564h1M821 564h1M23 565h1M821 565h1M23 566h1M821 566h1M23 567h1M821 567h1M24 568h1M820 568h1M25 569h1M819 569h1M26 570h1M818 570h1M27 571h791" />
<path stroke="#032c37" d="M27 505h791M26 506h1M818 506h1M25 507h1M819 507h1M24 508h1M29 508h787M820 508h1M24 509h1M28 509h2M815 509h2M820 509h1M24 510h1M27 510h2M816 510h2M820 510h1M24 511h1M27 511h1M817 511h1M820 511h1M24 512h1M27 512h1M817 512h1M820 512h1M24 513h1M27 513h1M817 513h1M820 513h1M24 514h1M27 514h1M817 514h1M820 514h1M24 515h1M27 515h1M817 515h1M820 515h1M24 516h1M27 516h1M817 516h1M820 516h1M24 517h1M27 517h1M817 517h1M820 517h1M24 518h1M27 518h1M817 518h1M820 518h1M24 519h1M27 519h1M817 519h1M820 519h1M24 520h1M27 520h1M817 520h1M820 520h1M24 521h1M27 521h1M817 521h1M820 521h1M24 522h1M27 522h1M817 522h1M820 522h1M24 523h1M27 523h1M817 523h1M820 523h1M24 524h1M27 524h1M817 524h1M820 524h1M24 525h1M27 525h1M817 525h1M820 525h1M24 526h1M27 526h1M817 526h1M820 526h1M24 527h1M27 527h1M817 527h1M820 527h1M24 528h1M27 528h1M817 528h1M820 528h1M24 529h1M27 529h1M817 529h1M820 529h1M24 530h1M27 530h1M817 530h1M820 530h1M24 531h1M27 531h1M817 531h1M820 531h1M24 532h1M27 532h1M817 532h1M820 532h1M24 533h1M27 533h1M817 533h1M820 533h1M24 534h1M27 534h1M817 534h1M820 534h1M24 535h1M27 535h1M817 535h1M820 535h1M24 536h1M27 536h1M817 536h1M820 536h1M24 537h1M27 537h1M817 537h1M820 537h1M24 538h1M27 538h1M817 538h1M820 538h1M24 539h1M27 539h1M817 539h1M820 539h1M24 540h1M27 540h1M817 540h1M820 540h1M24 541h1M27 541h1M817 541h1M820 541h1M24 542h1M27 542h1M817 542h1M820 542h1M24 543h1M27 543h1M817 543h1M820 543h1M24 544h1M27 544h1M817 544h1M820 544h1M24 545h1M27 545h1M817 545h1M820 545h1M24 546h1M27 546h1M817 546h1M820 546h1M24 547h1M27 547h1M817 547h1M820 547h1M24 548h1M27 548h1M817 548h1M820 548h1M24 549h1M27 549h1M817 549h1M820 549h1M24 550h1M27 550h1M817 550h1M820 550h1M24 551h1M27 551h1M817 551h1M820 551h1M24 552h1M27 552h1M817 552h1M820 552h1M24 553h1M27 553h1M817 553h1M820 553h1M24 554h1M27 554h1M817 554h1M820 554h1M24 555h1M27 555h1M817 555h1M820 555h1M24 556h1M27 556h1M817 556h1M820 556h1M24 557h1M27 557h1M817 557h1M820 557h1M24 558h1M27 558h1M817 558h1M820 558h1M24 559h1M27 559h1M817 559h1M820 559h1M24 560h1M27 560h1M817 560h1M820 560h1M24 561h1M27 561h1M817 561h1M820 561h1M24 562h1M27 562h1M817 562h1M820 562h1M24 563h1M27 563h1M817 563h1M820 563h1M24 564h1M27 564h1M817 564h1M820 564h1M24 565h1M27 565h2M816 565h2M820 565h1M24 566h1M28 566h2M815 566h2M820 566h1M24 567h1M29 567h787M820 567h1M25 568h1M819 568h1M26 569h1M818 569h1M27 570h791" />
<path stroke="#044858" d="M27 506h791M26 507h1M818 507h1M25 508h1M27 508h2M816 508h2M819 508h1M25 509h1M27 509h1M817 509h1M819 509h1M25 510h1M819 510h1M25 511h1M819 511h1M25 512h1M819 512h1M25 513h1M819 513h1M25 514h1M819 514h1M25 515h1M819 515h1M25 516h1M819 516h1M25 517h1M819 517h1M25 518h1M819 518h1M25 519h1M819 519h1M25 520h1M819 520h1M25 521h1M819 521h1M25 522h1M819 522h1M25 523h1M819 523h1M25 524h1M819 524h1M25 525h1M819 525h1M25 526h1M819 526h1M25 527h1M819 527h1M25 528h1M819 528h1M25 529h1M819 529h1M25 530h1M819 530h1M25 531h1M819 531h1M25 532h1M819 532h1M25 533h1M819 533h1M25 534h1M819 534h1M25 535h1M819 535h1M25 536h1M819 536h1M25 537h1M819 537h1M25 538h1M819 538h1M25 539h1M819 539h1M25 540h1M819 540h1M25 541h1M819 541h1M25 542h1M819 542h1M25 543h1M819 543h1M25 544h1M819 544h1M25 545h1M819 545h1M25 546h1M819 546h1M25 547h1M819 547h1M25 548h1M819 548h1M25 549h1M819 549h1M25 550h1M819 550h1M25 551h1M819 551h1M25 552h1M819 552h1M25 553h1M819 553h1M25 554h1M819 554h1M25 555h1M819 555h1M25 556h1M819 556h1M25 557h1M819 557h1M25 558h1M819 558h1M25 559h1M819 559h1M25 560h1M819 560h1M25 561h1M819 561h1M25 562h1M819 562h1M25 563h1M819 563h1M25 564h1M819 564h1M25 565h1M819 565h1M25 566h1M27 566h1M817 566h1M819 566h1M25 567h1M27 567h2M816 567h2M819 567h1M26 568h1M818 568h1M27 569h791" />
<path stroke="#7fc4cb" d="M27 507h791M26 508h1M818 508h1M26 509h1M818 509h1M26 510h1M818 510h1M26 511h1M818 511h1M26 512h1M818 512h1M26 513h1M818 513h1M26 514h1M818 514h1M26 515h1M818 515h1M26 516h1M818 516h1M26 517h1M818 517h1M26 518h1M818 518h1M26 519h1M818 519h1M26 520h1M818 520h1M26 521h1M818 521h1M26 522h1M818 522h1M26 523h1M818 523h1M26 524h1M818 524h1M26 525h1M818 525h1M26 526h1M818 526h1M26 527h1M818 527h1M26 528h1M818 528h1M26 529h1M818 529h1M26 530h1M818 530h1M26 531h1M818 531h1M26 532h1M818 532h1M26 533h1M818 533h1M26 534h1M818 534h1M26 535h1M818 535h1M26 536h1M818 536h1M26 537h1M818 537h1M26 538h1M818 538h1M26 539h1M818 539h1M26 540h1M818 540h1M26 541h1M818 541h1M26 542h1M818 542h1M26 543h1M818 543h1M26 544h1M818 544h1M26 545h1M818 545h1M26 546h1M818 546h1M26 547h1M818 547h1M26 548h1M818 548h1M26 549h1M818 549h1M26 550h1M818 550h1M26 551h1M818 551h1M26 552h1M818 552h1M26 553h1M818 553h1M26 554h1M818 554h1M26 555h1M818 555h1M26 556h1M818 556h1M26 557h1M818 557h1M26 558h1M818 558h1M26 559h1M818 559h1M26 560h1M818 560h1M26 561h1M818 561h1M26 562h1M818 562h1M26 563h1M818 563h1M26 564h1M818 564h1M26 565h1M818 565h1M26 566h1M818 566h1M26 567h1M818 567h1M27 568h791" />
<path stroke="rgba(175,228,232,0.7019607843137254)" d="M30 509h785M29 510h787M28 511h789M28 512h789M28 513h789M28 514h789M28 515h789M28 516h789M28 517h19M61 517h74M137 517h3M143 517h32M183 517h145M330 517h3M336 517h75M420 517h397M28 518h18M61 518h73M137 518h3M143 518h32M183 518h144M330 518h3M336 518h75M420 518h397M28 519h19M61 519h74M143 519h30M183 519h145M336 519h73M420 519h397M28 520h20M51 520h5M59 520h77M141 520h32M176 520h153M334 520h75M412 520h5M420 520h397M28 521h20M51 521h5M59 521h77M141 521h32M176 521h153M334 521h73M412 521h5M420 521h397M28 522h20M51 522h5M59 522h114M176 522h231M410 522h407M28 523h20M51 523h5M59 523h5M70 523h3M79 523h1M85 523h1M96 523h3M105 523h3M117 523h1M124 523h1M132 523h1M139 523h1M145 523h5M159 523h5M170 523h3M181 523h5M192 523h3M205 523h6M215 523h2M219 523h1M225 523h1M236 523h3M244 523h2M257 523h5M270 523h4M280 523h3M293 523h3M302 523h3M313 523h3M323 523h3M332 523h1M338 523h7M352 523h3M365 523h1M372 523h1M378 523h3M385 523h3M398 523h9M410 523h12M429 523h3M438 523h1M446 523h1M453 523h1M459 523h3M466 523h3M477 523h3M485 523h5M496 523h1M502 523h5M513 523h1M520 523h13M540 523h1M545 523h1M557 523h3M566 523h7M582 523h1M589 523h1M597 523h5M609 523h1M614 523h1M633 523h1M639 523h5M652 523h3M660 523h5M671 523h1M675 523h1M681 523h136M28 524h20M51 524h5M59 524h4M70 524h3M85 524h1M96 524h3M106 524h2M124 524h1M139 524h1M145 524h5M159 524h4M170 524h3M181 524h5M192 524h3M206 524h5M219 524h1M225 524h1M236 524h3M244 524h2M257 524h5M271 524h2M280 524h3M293 524h3M302 524h3M314 524h2M323 524h2M332 524h1M338 524h7M352 524h2M365 524h1M378 524h3M386 524h2M399 524h8M410 524h12M429 524h2M438 524h1M453 524h1M459 524h2M466 524h3M478 524h2M485 524h4M496 524h1M502 524h4M513 524h1M521 524h12M557 524h2M566 524h7M589 524h1M597 524h5M633 524h1M639 524h5M653 524h2M660 524h4M671 524h1M675 524h1M681 524h136M28 525h20M51 525h5M59 525h3M72 525h1M79 525h1M85 525h1M96 525h1M107 525h1M117 525h1M124 525h1M132 525h1M145 525h5M161 525h1M172 525h1M183 525h1M194 525h1M206 525h5M219 525h1M225 525h1M236 525h1M245 525h1M257 525h5M271 525h1M282 525h1M293 525h1M304 525h1M325 525h1M338 525h5M365 525h1M372 525h1M378 525h1M387 525h1M399 525h8M410 525h10M431 525h1M438 525h1M446 525h1M453 525h1M459 525h1M468 525h1M478 525h2M487 525h3M504 525h1M513 525h1M520 525h13M545 525h1M557 525h1M568 525h5M582 525h1M589 525h1M597 525h5M614 525h1M639 525h5M653 525h2M662 525h3M671 525h1M675 525h1M681 525h99M785 525h11M801 525h16M28 526h20M51 526h5M59 526h2M65 526h4M72 526h3M78 526h2M83 526h3M96 526h1M100 526h4M108 526h2M113 526h1M117 526h2M122 526h5M130 526h4M137 526h1M143 526h9M155 526h3M165 526h4M172 526h1M176 526h4M183 526h1M187 526h4M194 526h1M198 526h1M206 526h7M219 526h1M223 526h5M234 526h3M240 526h3M249 526h1M253 526h1M257 526h7M267 526h1M275 526h4M282 526h3M291 526h3M297 526h4M304 526h3M310 526h1M317 526h5M325 526h2M330 526h1M336 526h7M346 526h5M361 526h1M365 526h3M371 526h2M376 526h3M382 526h2M387 526h1M391 526h1M399 526h8M410 526h10M423 526h5M431 526h2M438 526h1M444 526h4M451 526h3M457 526h2M463 526h2M468 526h3M474 526h1M478 526h6M487 526h4M494 526h1M498 526h3M508 526h2M513 526h3M519 526h16M538 526h2M544 526h2M549 526h1M553 526h1M561 526h4M568 526h7M578 526h1M582 526h2M587 526h5M595 526h9M607 526h1M613 526h4M620 526h1M624 526h4M631 526h1M637 526h9M649 526h1M653 526h6M662 526h4M669 526h3M675 526h1M679 526h101M785 526h11M801 526h16M28 527h20M51 527h5M59 527h2M65 527h4M72 527h3M83 527h3M96 527h1M100 527h4M108 527h2M117 527h2M126 527h1M130 527h4M143 527h9M155 527h3M165 527h4M172 527h1M176 527h4M183 527h1M187 527h4M194 527h1M198 527h1M202 527h1M205 527h8M223 527h5M234 527h3M249 527h1M253 527h1M257 527h7M267 527h1M270 527h1M275 527h4M282 527h3M291 527h3M297 527h4M304 527h3M313 527h1M317 527h5M325 527h2M336 527h7M346 527h5M354 527h1M357 527h1M361 527h1M365 527h3M376 527h3M387 527h1M391 527h1M395 527h1M398 527h9M410 527h10M423 527h5M431 527h2M444 527h4M457 527h2M468 527h3M477 527h3M487 527h4M498 527h3M508 527h2M513 527h3M522 527h13M544 527h2M549 527h1M553 527h1M561 527h4M568 527h7M582 527h2M591 527h1M595 527h9M613 527h4M620 527h1M624 527h4M637 527h9M652 527h3M662 527h4M669 527h3M675 527h1M679 527h99M787 527h7M801 527h16M28 528h20M51 528h5M59 528h2M65 528h4M72 528h3M83 528h6M93 528h4M100 528h4M108 528h2M115 528h4M126 528h1M130 528h4M139 528h1M143 528h9M155 528h3M165 528h4M172 528h1M176 528h4M183 528h1M187 528h4M194 528h5M202 528h12M221 528h7M234 528h3M246 528h4M253 528h11M267 528h4M275 528h4M282 528h3M291 528h3M297 528h4M304 528h3M312 528h2M317 528h5M325 528h2M332 528h1M336 528h7M346 528h5M354 528h4M361 528h7M376 528h3M387 528h5M395 528h12M410 528h10M423 528h5M431 528h2M436 528h1M440 528h1M444 528h4M457 528h2M468 528h3M476 528h4M487 528h4M498 528h3M508 528h8M522 528h13M544 528h6M553 528h4M561 528h4M568 528h7M580 528h4M591 528h1M595 528h9M613 528h4M620 528h1M624 528h4M633 528h1M637 528h9M651 528h4M662 528h4M669 528h3M675 528h1M679 528h99M787 528h7M801 528h16M28 529h20M51 529h5M59 529h2M65 529h4M72 529h3M83 529h6M93 529h4M100 529h4M108 529h2M117 529h2M126 529h1M130 529h4M139 529h1M143 529h9M155 529h3M165 529h4M172 529h1M176 529h4M183 529h1M187 529h4M194 529h5M202 529h11M223 529h3M230 529h1M234 529h3M245 529h5M253 529h11M267 529h4M275 529h4M282 529h1M287 529h1M291 529h3M297 529h4M304 529h3M313 529h1M317 529h5M325 529h2M332 529h1M336 529h7M346 529h5M354 529h4M361 529h7M376 529h3M387 529h5M395 529h12M412 529h5M423 529h5M431 529h2M436 529h1M440 529h1M444 529h4M457 529h2M468 529h3M477 529h1M487 529h4M498 529h3M508 529h8M522 529h13M544 529h6M553 529h4M561 529h4M568 529h7M582 529h2M591 529h1M595 529h9M613 529h4M620 529h1M624 529h4M633 529h1M637 529h9M652 529h1M662 529h4M669 529h3M675 529h1M679 529h99M789 529h3M801 529h16M28 530h19M52 530h3M60 530h1M72 530h7M84 530h5M93 530h4M108 530h1M117 530h1M131 530h2M138 530h2M144 530h8M172 530h1M183 530h1M194 530h4M203 530h9M219 530h1M224 530h2M235 530h2M245 530h4M254 530h9M268 530h3M282 530h1M292 530h2M304 530h2M325 530h1M331 530h2M337 530h6M354 530h3M362 530h10M377 530h2M386 530h5M396 530h4M401 530h8M431 530h1M436 530h1M440 530h1M445 530h2M452 530h2M458 530h1M467 530h3M488 530h2M512 530h3M522 530h2M527 530h13M545 530h4M554 530h3M568 530h6M582 530h1M596 530h7M608 530h1M614 530h2M620 530h1M625 530h2M632 530h2M638 530h7M663 530h2M680 530h98M789 530h3M801 530h16M28 531h18M53 531h1M61 531h1M71 531h7M85 531h3M94 531h4M107 531h1M139 531h1M145 531h7M160 531h2M171 531h3M182 531h3M193 531h4M204 531h7M219 531h1M225 531h1M236 531h2M246 531h2M255 531h7M269 531h3M281 531h2M293 531h2M303 531h2M314 531h1M324 531h1M332 531h1M338 531h6M353 531h3M363 531h8M378 531h2M387 531h3M397 531h2M402 531h8M419 531h2M430 531h1M436 531h1M440 531h1M453 531h1M459 531h1M468 531h1M478 531h1M503 531h2M513 531h1M522 531h1M528 531h11M546 531h2M555 531h3M567 531h6M597 531h5M619 531h2M633 531h1M639 531h5M653 531h1M681 531h97M801 531h16M28 532h18M53 532h1M61 532h2M70 532h8M85 532h3M94 532h5M106 532h2M139 532h1M145 532h7M159 532h4M170 532h5M181 532h5M192 532h5M204 532h7M219 532h1M225 532h1M236 532h3M246 532h2M255 532h7M269 532h4M280 532h3M293 532h3M302 532h3M314 532h2M323 532h2M332 532h1M338 532h7M352 532h4M363 532h8M378 532h3M387 532h3M397 532h2M402 532h9M418 532h4M429 532h2M436 532h1M440 532h1M453 532h1M459 532h2M468 532h1M478 532h2M496 532h1M502 532h4M513 532h1M522 532h1M528 532h11M546 532h2M555 532h4M566 532h7M597 532h5M618 532h3M633 532h1M639 532h5M653 532h2M681 532h99M799 532h18M28 533h19M52 533h3M60 533h4M69 533h10M84 533h5M93 533h7M105 533h4M116 533h2M131 533h2M138 533h3M144 533h8M158 533h6M169 533h7M180 533h7M191 533h7M203 533h9M215 533h2M218 533h3M224 533h2M236 533h4M245 533h4M254 533h9M268 533h6M279 533h4M293 533h4M301 533h5M313 533h4M322 533h4M331 533h3M337 533h9M351 533h6M362 533h10M377 533h5M386 533h5M396 533h4M401 533h11M417 533h6M428 533h4M435 533h3M439 533h3M445 533h2M452 533h3M458 533h4M467 533h3M477 533h4M488 533h2M495 533h3M501 533h6M512 533h3M521 533h3M528 533h12M545 533h4M554 533h6M565 533h9M581 533h2M596 533h7M608 533h2M614 533h2M617 533h5M625 533h2M632 533h3M638 533h7M652 533h4M663 533h2M680 533h100M799 533h18M28 534h123M156 534h70M229 534h4M236 534h47M286 534h4M293 534h231M528 534h254M797 534h20M28 535h122M157 535h70M228 535h6M235 535h49M285 535h6M292 535h231M527 535h255M797 535h20M28 536h122M157 536h366M526 536h258M795 536h22M28 537h756M795 537h22M28 538h756M795 538h22M28 539h754M797 539h20M28 540h268M306 540h16M330 540h452M797 540h20M28 541h267M306 541h16M330 541h450M799 541h18M28 542h268M308 542h12M330 542h450M789 542h3M799 542h18M28 543h269M300 543h5M308 543h12M323 543h455M789 543h3M801 543h16M28 544h269M300 544h5M308 544h12M323 544h455M787 544h7M801 544h16M28 545h269M300 545h5M308 545h12M323 545h455M787 545h7M801 545h16M28 546h19M53 546h1M59 546h3M66 546h5M83 546h3M91 546h4M104 546h2M113 546h1M119 546h1M126 546h1M132 546h1M137 546h1M143 546h7M155 546h3M166 546h3M175 546h8M189 546h3M197 546h4M214 546h3M223 546h3M236 546h1M243 546h1M249 546h1M257 546h1M262 546h1M273 546h1M281 546h1M287 546h10M300 546h5M308 546h3M317 546h3M328 546h5M339 546h3M353 546h1M358 546h1M366 546h5M393 546h3M402 546h1M408 546h1M419 546h3M426 546h3M439 546h3M449 546h3M460 546h6M476 546h3M485 546h3M498 546h1M507 546h3M517 546h7M529 546h1M532 546h2M538 546h1M549 546h3M557 546h4M572 546h1M579 546h199M785 546h11M801 546h16M28 547h18M53 547h1M59 547h2M66 547h5M83 547h3M91 547h4M104 547h2M113 547h1M126 547h1M137 547h1M143 547h7M155 547h3M166 547h3M176 547h7M190 547h2M197 547h4M214 547h2M223 547h3M236 547h1M249 547h1M281 547h1M287 547h10M300 547h5M308 547h3M317 547h3M328 547h5M340 547h2M358 547h1M366 547h5M393 547h2M402 547h1M419 547h3M427 547h2M440 547h2M449 547h2M460 547h5M476 547h2M485 547h3M498 547h1M508 547h2M517 547h7M529 547h1M538 547h1M550 547h2M557 547h4M579 547h199M785 547h11M801 547h16M28 548h19M53 548h1M59 548h3M68 548h3M83 548h3M92 548h3M113 548h1M119 548h1M132 548h1M137 548h1M143 548h5M157 548h1M166 548h1M177 548h6M190 548h2M198 548h3M214 548h1M225 548h1M236 548h1M243 548h1M249 548h1M262 548h1M273 548h1M287 548h10M308 548h1M319 548h1M330 548h1M341 548h1M353 548h1M358 548h1M366 548h5M395 548h1M408 548h1M419 548h1M428 548h1M449 548h2M460 548h6M476 548h1M487 548h1M498 548h1M519 548h5M529 548h1M538 548h1M549 548h3M559 548h2M572 548h1M579 548h238M28 549h20M51 549h3M57 549h8M68 549h5M76 549h2M81 549h9M93 549h4M100 549h3M106 549h2M111 549h3M117 549h4M124 549h1M130 549h4M137 549h1M141 549h7M151 549h3M157 549h3M166 549h1M170 549h4M178 549h8M190 549h6M199 549h4M206 549h3M212 549h2M218 549h4M225 549h3M234 549h5M242 549h2M247 549h5M255 549h1M261 549h4M268 549h1M272 549h4M279 549h1M285 549h12M306 549h3M312 549h4M319 549h1M323 549h4M330 549h1M334 549h4M345 549h1M349 549h1M353 549h2M358 549h3M364 549h9M376 549h3M382 549h4M389 549h3M395 549h2M400 549h1M406 549h4M413 549h1M417 549h3M423 549h2M428 549h1M432 549h1M443 549h3M449 549h2M454 549h1M458 549h9M470 549h1M474 549h2M480 549h4M487 549h3M496 549h5M504 549h1M511 549h5M519 549h7M529 549h1M537 549h4M544 549h1M548 549h8M559 549h2M564 549h1M568 549h1M572 549h2M577 549h240M28 550h20M57 550h5M68 550h5M76 550h2M81 550h5M93 550h4M100 550h3M106 550h2M117 550h4M130 550h4M141 550h7M157 550h3M163 550h1M166 550h1M170 550h4M178 550h7M189 550h3M199 550h4M206 550h3M212 550h2M218 550h4M225 550h3M234 550h5M247 550h5M261 550h4M268 550h1M272 550h4M285 550h12M306 550h3M312 550h4M319 550h1M323 550h4M330 550h1M334 550h4M345 550h1M349 550h1M353 550h2M358 550h1M364 550h9M376 550h3M382 550h4M389 550h3M395 550h2M406 550h4M413 550h1M417 550h3M428 550h1M432 550h1M436 550h1M439 550h1M443 550h3M449 550h3M458 550h9M470 550h1M474 550h2M480 550h4M487 550h3M496 550h5M504 550h1M507 550h1M511 550h5M519 550h7M536 550h5M544 550h1M548 550h4M559 550h2M564 550h1M568 550h1M572 550h2M581 550h236M28 551h20M57 551h4M68 551h5M76 551h2M81 551h5M93 551h4M100 551h3M106 551h2M117 551h4M126 551h1M130 551h4M139 551h9M157 551h3M163 551h4M170 551h4M178 551h7M188 551h4M199 551h4M206 551h3M212 551h2M218 551h4M225 551h3M234 551h5M247 551h5M261 551h4M268 551h1M272 551h4M281 551h1M285 551h12M300 551h9M312 551h4M319 551h1M323 551h4M330 551h1M334 551h4M342 551h4M349 551h6M358 551h1M362 551h11M376 551h3M382 551h4M389 551h3M395 551h2M402 551h1M406 551h4M413 551h1M417 551h3M428 551h5M436 551h4M443 551h10M458 551h9M470 551h1M474 551h2M480 551h4M487 551h3M496 551h5M504 551h4M511 551h5M519 551h9M535 551h6M544 551h1M548 551h4M559 551h6M568 551h6M581 551h236M28 552h20M57 552h3M68 552h5M76 552h2M81 552h3M93 552h4M100 552h3M106 552h2M117 552h4M126 552h1M130 552h4M141 552h7M157 552h3M163 552h4M170 552h4M178 552h7M189 552h1M199 552h4M206 552h3M212 552h2M218 552h4M225 552h3M234 552h5M247 552h5M261 552h4M268 552h1M272 552h4M281 552h1M285 552h12M300 552h9M312 552h4M319 552h1M323 552h4M330 552h1M334 552h4M342 552h4M349 552h7M362 552h11M376 552h3M382 552h4M389 552h3M395 552h2M402 552h1M406 552h3M413 552h1M417 552h3M428 552h5M436 552h4M443 552h9M458 552h8M470 552h1M474 552h2M480 552h4M487 552h3M496 552h5M504 552h4M511 552h5M519 552h7M536 552h3M544 552h1M548 552h2M559 552h6M568 552h6M581 552h236M28 553h19M52 553h2M58 553h1M69 553h3M77 553h1M82 553h2M94 553h3M106 553h1M112 553h2M118 553h2M125 553h2M131 553h2M142 553h6M156 553h3M164 553h3M178 553h6M200 553h2M207 553h2M213 553h1M225 553h2M235 553h3M243 553h1M248 553h3M256 553h1M262 553h2M268 553h1M273 553h2M280 553h2M286 553h2M290 553h6M301 553h8M319 553h1M330 553h1M342 553h3M350 553h7M362 553h10M377 553h2M383 553h3M395 553h1M401 553h2M407 553h1M418 553h2M427 553h5M437 553h3M448 553h2M454 553h1M459 553h6M475 553h1M487 553h2M497 553h3M505 553h3M519 553h6M529 553h1M537 553h2M549 553h1M560 553h4M569 553h4M581 553h2M584 553h233M28 554h18M53 554h1M59 554h1M70 554h1M83 554h2M95 554h2M105 554h1M113 554h1M126 554h1M143 554h6M157 554h1M165 554h3M177 554h6M190 554h1M208 554h1M214 554h1M224 554h2M230 554h1M236 554h1M249 554h1M267 554h2M281 554h1M291 554h4M302 554h8M318 554h3M329 554h3M341 554h3M351 554h6M361 554h10M378 554h1M384 554h2M394 554h1M402 554h1M419 554h2M428 554h3M438 554h3M454 554h1M460 554h5M476 554h1M486 554h2M492 554h1M498 554h1M506 554h3M518 554h6M529 554h1M538 554h1M550 554h1M561 554h2M570 554h2M581 554h1M585 554h232M28 555h18M53 555h1M59 555h2M70 555h1M83 555h3M95 555h2M104 555h2M113 555h1M126 555h1M139 555h1M143 555h7M157 555h1M165 555h4M176 555h7M190 555h2M208 555h1M214 555h2M223 555h3M229 555h2M236 555h1M249 555h1M266 555h3M281 555h1M291 555h4M302 555h9M317 555h5M328 555h5M340 555h4M351 555h6M360 555h11M378 555h1M384 555h2M393 555h2M402 555h1M419 555h3M428 555h3M438 555h4M454 555h1M460 555h5M476 555h2M485 555h3M491 555h2M498 555h1M506 555h4M517 555h7M529 555h1M538 555h1M550 555h2M561 555h2M570 555h2M581 555h1M585 555h232M28 556h19M52 556h3M58 556h4M69 556h3M77 556h2M82 556h5M94 556h3M103 556h4M112 556h3M118 556h2M125 556h3M131 556h2M138 556h3M142 556h9M156 556h3M164 556h6M175 556h9M189 556h4M200 556h2M207 556h3M213 556h4M222 556h5M228 556h4M235 556h3M243 556h2M248 556h3M256 556h2M262 556h2M265 556h5M273 556h2M280 556h3M286 556h2M290 556h6M301 556h11M316 556h7M327 556h7M339 556h6M350 556h7M360 556h12M377 556h3M383 556h3M392 556h4M401 556h3M407 556h1M419 556h4M427 556h5M437 556h6M448 556h2M453 556h3M459 556h6M476 556h3M484 556h5M490 556h4M497 556h3M505 556h6M516 556h9M528 556h3M532 556h2M537 556h2M550 556h3M560 556h4M569 556h4M580 556h3M584 556h233M28 557h68M101 557h253M360 557h25M390 557h18M412 557h4M419 557h46M469 557h4M476 557h63M542 557h4M550 557h267M28 558h67M102 558h251M359 558h25M391 558h18M411 558h6M418 558h48M468 558h6M475 558h65M541 558h6M549 558h268M28 559h67M102 559h252M358 559h26M391 559h426M28 560h789M28 561h789M28 562h789M28 563h789M28 564h789M29 565h787M30 566h785" />
<path stroke="rgba(119,175,179,0.8)" d="M47 517h13M135 517h1M141 517h1M176 517h6M328 517h1M334 517h1M412 517h7M60 518h1M419 518h1M137 519h3M174 519h1M330 519h3M410 519h1M419 519h1M136 520h1M175 520h1M329 520h1M409 520h1M419 520h1M140 521h1M175 521h1M333 521h1M411 521h1M175 522h1M407 522h1M69 523h1M99 523h1M125 523h1M140 523h1M144 523h1M169 523h1M195 523h1M224 523h1M239 523h1M262 523h1M279 523h1M305 523h1M333 523h1M337 523h1M364 523h1M388 523h1M407 523h1M439 523h1M454 523h1M458 523h1M469 523h1M484 523h1M497 523h1M501 523h1M512 523h1M533 523h1M565 523h1M590 523h1M602 523h1M632 523h1M644 523h1M659 523h1M672 523h1M674 523h1M676 523h1M80 524h1M108 524h1M116 524h1M131 524h1M150 524h1M158 524h1M220 524h1M243 524h1M246 524h1M256 524h1M316 524h1M322 524h1M345 524h1M351 524h1M373 524h1M407 524h1M422 524h1M428 524h1M445 524h1M480 524h1M539 524h1M546 524h1M556 524h1M573 524h1M581 524h1M596 524h1M608 524h1M615 524h1M625 524h2M638 524h1M655 524h1M680 524h1M71 525h1M80 525h1M97 525h1M116 525h1M125 525h1M144 525h1M171 525h1M220 525h1M224 525h1M237 525h1M246 525h1M256 525h1M262 525h1M281 525h1M305 525h1M337 525h1M373 525h1M407 525h1M458 525h1M467 525h1M469 525h1M533 525h1M546 525h1M556 525h1M567 525h1M581 525h1M590 525h1M602 525h1M644 525h1M80 526h1M88 526h1M93 526h1M110 526h1M116 526h1M138 526h1M152 526h1M160 526h1M175 526h1M180 526h1M186 526h1M191 526h1M201 526h1M220 526h1M246 526h1M256 526h1M266 526h1M296 526h1M301 526h1M309 526h1M314 526h1M324 526h1M331 526h1M343 526h1M353 526h1M358 526h1M373 526h1M381 526h1M394 526h1M407 526h1M420 526h1M430 526h1M465 526h1M473 526h1M486 526h1M495 526h1M503 526h1M510 526h1M537 526h1M546 526h1M556 526h1M575 526h1M581 526h1M606 526h1M617 526h1M623 526h1M628 526h1M636 526h1M648 526h1M661 526h1M678 526h1M87 527h1M94 527h1M110 527h1M115 527h1M139 527h1M152 527h1M160 527h1M175 527h1M180 527h1M186 527h1M191 527h1M196 527h1M201 527h1M203 527h2M214 527h1M221 527h1M247 527h1M255 527h1M266 527h1M269 527h1M296 527h1M301 527h1M312 527h1M314 527h1M324 527h1M332 527h1M343 527h1M353 527h1M355 527h2M358 527h1M363 527h1M389 527h1M394 527h1M396 527h2M407 527h1M420 527h1M430 527h1M436 527h1M440 527h1M476 527h1M486 527h1M503 527h1M511 527h1M547 527h1M555 527h1M575 527h1M580 527h1M609 527h1M617 527h1M623 527h1M628 527h1M633 527h1M636 527h1M651 527h1M661 527h1M678 527h1M110 528h1M152 528h1M160 528h1M175 528h1M180 528h1M186 528h1M191 528h1M201 528h1M266 528h1M296 528h1M301 528h1M311 528h1M314 528h1M324 528h1M343 528h1M353 528h1M358 528h1M394 528h1M407 528h1M420 528h1M430 528h1M437 528h1M475 528h1M480 528h1M486 528h1M503 528h1M575 528h1M608 528h1M617 528h1M623 528h1M628 528h1M636 528h1M650 528h1M655 528h1M661 528h1M678 528h1M76 529h4M110 529h1M113 529h1M122 529h1M137 529h1M152 529h1M160 529h1M175 529h1M180 529h1M186 529h1M191 529h1M201 529h1M215 529h2M219 529h1M229 529h1M240 529h5M266 529h1M286 529h1M296 529h1M301 529h1M310 529h1M314 529h1M324 529h1M330 529h1M343 529h1M353 529h1M358 529h1M369 529h4M382 529h4M394 529h1M408 529h1M420 529h1M430 529h1M437 529h1M451 529h3M462 529h5M474 529h1M481 529h3M486 529h1M494 529h1M503 529h1M518 529h2M536 529h5M575 529h1M578 529h1M587 529h1M607 529h1M617 529h1M623 529h1M628 529h1M631 529h1M636 529h1M649 529h1M656 529h3M661 529h1M678 529h1M80 530h1M110 530h1M116 530h1M123 530h1M152 530h1M160 530h1M175 530h1M180 530h1M186 530h1M191 530h1M201 530h1M220 530h1M228 530h1M266 530h1M285 530h1M296 530h1M301 530h1M309 530h1M314 530h1M324 530h1M343 530h1M353 530h1M358 530h1M373 530h1M381 530h1M394 530h1M409 530h1M419 530h2M430 530h1M437 530h1M473 530h1M478 530h1M486 530h1M495 530h1M503 530h1M575 530h1M581 530h1M588 530h1M606 530h1M617 530h1M623 530h1M628 530h1M636 530h1M648 530h1M653 530h1M661 530h1M678 530h1M60 531h1M108 531h1M116 531h1M131 531h1M152 531h1M158 531h1M220 531h1M248 531h1M254 531h1M268 531h1M316 531h1M322 531h1M345 531h1M351 531h1M417 531h1M422 531h1M428 531h1M437 531h1M445 531h1M480 531h1M488 531h1M527 531h1M548 531h1M554 531h1M573 531h1M581 531h1M596 531h1M608 531h1M615 531h1M625 531h2M638 531h1M655 531h1M663 531h1M680 531h1M60 532h1M108 532h1M116 532h1M131 532h1M152 532h1M158 532h1M220 532h1M248 532h1M254 532h1M268 532h1M316 532h1M322 532h1M345 532h1M351 532h1M417 532h1M422 532h1M428 532h1M437 532h1M445 532h1M480 532h1M488 532h1M527 532h1M548 532h1M554 532h1M573 532h1M581 532h1M596 532h1M608 532h1M615 532h1M625 532h2M638 532h1M655 532h1M663 532h1M680 532h1M152 533h1M228 533h1M233 533h1M285 533h1M290 533h1M527 533h1M152 534h1M228 534h1M233 534h1M285 534h1M290 534h1M527 534h1M150 535h1M296 540h9M323 540h6M306 542h1M321 542h1M322 543h1M322 544h1M322 545h1M54 546h1M58 546h1M86 546h1M112 546h1M127 546h1M131 546h1M142 546h1M154 546h1M169 546h1M192 546h1M222 546h1M250 546h1M263 546h1M280 546h1M333 546h1M365 546h1M403 546h1M407 546h1M418 546h1M429 546h1M459 546h1M475 546h1M484 546h1M499 546h1M524 546h1M539 546h1M556 546h1M90 547h1M95 547h1M103 547h1M106 547h1M118 547h1M138 547h1M150 547h1M196 547h1M201 547h1M213 547h1M244 547h1M256 547h1M274 547h1M286 547h1M342 547h1M352 547h1M359 547h1M371 547h1M383 547h2M392 547h1M442 547h1M448 547h1M510 547h1M516 547h1M528 547h1M552 547h1M561 547h1M571 547h1M58 548h1M67 548h1M86 548h1M112 548h1M131 548h1M138 548h1M142 548h1M167 548h1M192 548h1M224 548h1M244 548h1M250 548h1M263 548h1M307 548h1M331 548h1M342 548h1M352 548h1M365 548h1M407 548h1M418 548h1M448 548h1M459 548h1M475 548h1M486 548h1M499 548h1M524 548h1M528 548h1M539 548h1M561 548h1M571 548h1M65 549h1M78 549h1M97 549h1M105 549h1M108 549h1M116 549h1M125 549h1M138 549h1M148 549h1M156 549h1M203 549h1M211 549h1M244 549h1M254 549h1M267 549h1M276 549h1M284 549h1M311 549h1M316 549h1M322 549h1M327 549h1M342 549h1M352 549h1M373 549h1M381 549h1M386 549h1M394 549h1M401 549h1M414 549h1M422 549h1M435 549h1M440 549h1M448 549h1M455 549h1M471 549h1M503 549h1M508 549h1M518 549h1M528 549h1M543 549h1M558 549h1M561 549h1M571 549h1M78 550h1M97 550h1M105 550h1M108 550h1M116 550h1M126 550h1M139 550h1M148 550h1M156 550h1M164 550h1M187 550h2M203 550h1M211 550h1M257 550h1M267 550h1M276 550h1M281 550h1M284 550h1M300 550h5M311 550h1M316 550h1M322 550h1M327 550h1M343 550h1M351 550h1M362 550h1M373 550h1M381 550h1M386 550h1M394 550h1M402 550h1M414 550h1M430 550h1M435 550h1M437 550h2M440 550h1M447 550h1M452 550h1M471 550h1M503 550h1M506 550h1M508 550h1M518 550h1M527 550h1M534 550h2M543 550h1M558 550h1M562 550h1M570 550h1M78 551h1M97 551h1M105 551h1M108 551h1M116 551h1M148 551h1M156 551h1M203 551h1M211 551h1M256 551h1M267 551h1M276 551h1M284 551h1M311 551h1M316 551h1M322 551h1M327 551h1M359 551h1M373 551h1M381 551h1M386 551h1M394 551h1M414 551h1M435 551h1M440 551h1M453 551h1M471 551h1M503 551h1M508 551h1M518 551h1M543 551h1M552 551h1M558 551h1M51 552h3M62 552h3M78 552h1M87 552h3M97 552h1M105 552h1M108 552h1M111 552h3M116 552h1M124 552h1M137 552h1M148 552h1M151 552h5M186 552h1M193 552h3M203 552h1M211 552h1M241 552h3M255 552h1M267 552h1M276 552h1M279 552h1M284 552h1M311 552h1M316 552h1M322 552h1M327 552h1M356 552h1M373 552h1M381 552h1M386 552h1M394 552h1M400 552h1M411 552h1M414 552h1M423 552h4M435 552h1M440 552h1M454 552h1M468 552h1M471 552h1M503 552h1M508 552h1M518 552h1M529 552h1M532 552h2M542 552h1M553 552h3M558 552h1M577 552h1M65 553h1M78 553h1M97 553h1M105 553h1M108 553h1M116 553h1M138 553h1M148 553h1M203 553h1M211 553h1M244 553h1M254 553h1M267 553h1M276 553h1M284 553h1M311 553h1M316 553h1M322 553h1M327 553h1M357 553h1M373 553h1M381 553h1M386 553h1M394 553h1M414 553h1M422 553h1M435 553h1M440 553h1M455 553h1M471 553h1M503 553h1M508 553h1M518 553h1M528 553h1M550 553h1M558 553h1M578 553h1M78 554h1M97 554h1M103 554h1M106 554h1M118 554h1M150 554h1M156 554h1M201 554h1M213 554h1M228 554h1M244 554h1M256 554h1M274 554h1M286 554h1M344 554h1M350 554h1M357 554h1M371 554h1M383 554h1M386 554h1M392 554h1M442 554h1M448 554h1M455 554h1M490 554h1M505 554h1M510 554h1M516 554h1M528 554h1M552 554h1M560 554h1M563 554h1M569 554h1M584 554h1M78 555h1M97 555h1M103 555h1M106 555h1M118 555h1M150 555h1M156 555h1M201 555h1M213 555h1M228 555h1M244 555h1M256 555h1M274 555h1M286 555h1M344 555h1M350 555h1M357 555h1M371 555h1M383 555h1M386 555h1M392 555h1M442 555h1M448 555h1M455 555h1M490 555h1M505 555h1M510 555h1M516 555h1M528 555h1M552 555h1M560 555h1M563 555h1M569 555h1M584 555h1M97 556h1M357 556h1M386 556h1M97 557h1M357 557h1M386 557h1M95 558h1M384 558h1" />
<path stroke="rgba(162,218,222,0.7215686274509804)" d="M60 517h1M419 517h1M46 518h1M134 518h1M327 518h1M409 519h1M48 520h1M48 521h1M48 522h1M48 523h1M48 524h1M63 524h1M79 524h1M105 524h1M117 524h1M132 524h1M163 524h1M205 524h1M215 524h2M270 524h1M273 524h1M313 524h1M325 524h1M354 524h1M372 524h1M385 524h1M398 524h1M431 524h1M446 524h1M461 524h1M477 524h1M489 524h1M506 524h1M520 524h1M540 524h1M545 524h1M559 524h1M582 524h1M609 524h1M614 524h1M652 524h1M664 524h1M48 525h1M205 525h1M215 525h2M270 525h1M313 525h1M354 525h1M398 525h1M477 525h1M540 525h1M652 525h1M48 526h1M61 526h1M64 526h1M77 526h1M89 526h1M92 526h1M104 526h1M107 526h1M119 526h1M134 526h1M161 526h1M164 526h1M202 526h1M205 526h1M215 526h2M230 526h2M245 526h1M270 526h2M274 526h1M287 526h2M313 526h1M327 526h1M354 526h1M357 526h1M370 526h1M384 526h1M395 526h1M398 526h1M433 526h1M448 526h1M459 526h1M462 526h1M477 526h1M491 526h1M504 526h1M507 526h1M518 526h1M540 526h1M543 526h1M557 526h1M560 526h1M584 526h1M612 526h1M652 526h1M666 526h1M48 527h1M61 527h1M64 527h1M88 527h2M92 527h2M104 527h1M107 527h1M116 527h1M119 527h1M134 527h1M161 527h1M164 527h1M230 527h2M245 527h2M256 527h1M271 527h1M274 527h1M287 527h2M327 527h1M433 527h1M448 527h1M459 527h1M491 527h1M504 527h1M507 527h1M510 527h1M543 527h1M546 527h1M556 527h2M560 527h1M581 527h1M584 527h1M612 527h1M666 527h1M48 528h1M61 528h1M64 528h1M89 528h1M92 528h1M104 528h1M107 528h1M119 528h1M134 528h1M161 528h1M164 528h1M214 528h1M230 528h2M245 528h1M271 528h1M274 528h1M287 528h2M327 528h1M433 528h1M448 528h1M459 528h1M491 528h1M504 528h1M507 528h1M543 528h1M557 528h1M560 528h1M584 528h1M609 528h1M612 528h1M666 528h1M48 529h1M61 529h1M64 529h1M89 529h1M92 529h1M104 529h1M107 529h1M119 529h1M134 529h1M161 529h1M164 529h1M231 529h1M271 529h1M274 529h1M288 529h1M327 529h1M407 529h1M433 529h1M448 529h1M459 529h1M491 529h1M504 529h1M507 529h1M543 529h1M557 529h1M560 529h1M584 529h1M608 529h2M612 529h1M666 529h1M47 530h2M51 530h1M55 530h1M59 530h1M61 530h1M64 530h5M79 530h1M83 530h1M89 530h1M92 530h1M100 530h5M107 530h1M109 530h1M113 530h1M118 530h2M122 530h1M126 530h1M130 530h1M133 530h2M137 530h1M143 530h1M155 530h3M161 530h1M164 530h5M176 530h4M187 530h4M198 530h1M202 530h1M212 530h1M215 530h2M223 530h1M229 530h3M234 530h1M240 530h5M249 530h1M253 530h1M263 530h1M267 530h1M271 530h1M274 530h5M286 530h3M291 530h1M297 530h4M306 530h1M310 530h1M313 530h1M317 530h5M326 530h2M330 530h1M336 530h1M346 530h5M357 530h1M361 530h1M372 530h1M376 530h1M382 530h4M391 530h1M395 530h1M400 530h1M412 530h5M423 530h5M432 530h2M444 530h1M447 530h2M451 530h1M457 530h1M459 530h1M462 530h5M470 530h1M474 530h1M477 530h1M481 530h3M487 530h1M490 530h2M494 530h1M498 530h3M504 530h1M507 530h5M515 530h1M518 530h2M524 530h3M540 530h1M543 530h2M549 530h1M553 530h1M557 530h1M560 530h5M574 530h1M578 530h1M583 530h2M587 530h1M591 530h1M595 530h1M603 530h1M607 530h1M609 530h1M612 530h2M616 530h1M624 530h1M627 530h1M631 530h1M637 530h1M645 530h1M649 530h1M652 530h1M656 530h3M662 530h1M665 530h2M669 530h3M675 530h1M679 530h1M46 531h1M62 531h2M70 531h1M78 531h1M98 531h1M105 531h2M117 531h1M132 531h1M159 531h1M162 531h2M170 531h1M174 531h1M181 531h1M185 531h1M192 531h1M203 531h1M215 531h2M238 531h1M245 531h1M272 531h2M280 531h1M295 531h1M302 531h1M313 531h1M315 531h1M323 531h1M325 531h1M344 531h1M352 531h1M356 531h1M371 531h1M380 531h1M396 531h1M410 531h1M418 531h1M421 531h1M429 531h1M431 531h1M446 531h1M460 531h2M477 531h1M479 531h1M489 531h1M496 531h1M502 531h1M505 531h2M545 531h1M558 531h2M566 531h1M582 531h1M609 531h1M614 531h1M618 531h1M652 531h1M654 531h1M664 531h1M46 532h1M63 532h1M78 532h1M105 532h1M117 532h1M132 532h1M163 532h1M203 532h1M215 532h2M245 532h1M273 532h1M313 532h1M325 532h1M356 532h1M371 532h1M396 532h1M431 532h1M446 532h1M461 532h1M477 532h1M489 532h1M506 532h1M545 532h1M559 532h1M582 532h1M609 532h1M614 532h1M652 532h1M664 532h1M47 533h5M55 533h5M64 533h5M79 533h5M89 533h4M100 533h5M109 533h7M118 533h13M133 533h5M141 533h3M155 533h3M164 533h5M176 533h4M187 533h4M198 533h5M212 533h3M217 533h1M221 533h3M229 533h4M240 533h5M249 533h5M263 533h5M274 533h5M286 533h4M297 533h4M306 533h7M317 533h5M326 533h5M334 533h3M346 533h5M357 533h5M372 533h5M382 533h4M391 533h5M400 533h1M412 533h5M423 533h5M432 533h3M438 533h1M442 533h3M447 533h5M455 533h3M462 533h5M470 533h7M481 533h7M490 533h5M498 533h3M507 533h5M515 533h6M524 533h1M540 533h5M549 533h5M560 533h5M574 533h7M583 533h13M603 533h5M610 533h4M616 533h1M622 533h3M627 533h5M635 533h3M645 533h7M656 533h7M665 533h15M151 534h1M155 534h1M524 534h1M227 535h1M234 535h1M284 535h1M291 535h1M526 535h1M295 541h1M297 543h1M297 544h1M297 545h1M297 546h1M46 547h1M61 547h1M119 547h1M132 547h1M175 547h1M189 547h1M216 547h1M243 547h1M257 547h1M262 547h1M273 547h1M297 547h1M339 547h1M353 547h1M395 547h1M408 547h1M426 547h1M439 547h1M451 547h1M465 547h1M478 547h1M507 547h1M532 547h2M549 547h1M572 547h1M189 548h1M297 548h1M439 548h1M451 548h1M507 548h1M532 548h2M48 549h1M75 549h1M92 549h1M121 549h1M134 549h1M162 549h2M174 549h1M177 549h1M186 549h1M189 549h1M198 549h1M214 549h1M217 549h1M230 549h2M241 549h1M260 549h1M271 549h1M297 549h1M338 549h1M341 549h1M355 549h1M397 549h1M410 549h1M425 549h1M436 549h1M439 549h1M451 549h1M467 549h1M476 549h1M479 549h1M492 549h2M507 549h1M532 549h2M536 549h1M547 549h1M574 549h1M48 550h1M75 550h1M92 550h1M121 550h1M134 550h1M162 550h1M174 550h1M177 550h1M198 550h1M214 550h1M217 550h1M230 550h2M260 550h1M271 550h1M297 550h1M338 550h1M341 550h2M352 550h1M355 550h1M397 550h1M410 550h1M448 550h1M467 550h1M476 550h1M479 550h1M492 550h2M547 550h1M561 550h1M571 550h1M574 550h1M48 551h1M61 551h1M75 551h1M92 551h1M121 551h1M134 551h1M162 551h1M174 551h1M177 551h1M187 551h1M198 551h1M214 551h1M217 551h1M230 551h2M257 551h1M260 551h1M271 551h1M297 551h1M338 551h1M341 551h1M355 551h1M397 551h1M410 551h1M467 551h1M476 551h1M479 551h1M492 551h2M534 551h1M547 551h1M574 551h1M48 552h1M75 552h1M92 552h1M121 552h1M134 552h1M156 552h1M162 552h1M174 552h1M177 552h1M198 552h1M214 552h1M217 552h1M230 552h2M256 552h2M260 552h1M271 552h1M297 552h1M338 552h1M341 552h1M397 552h1M476 552h1M479 552h1M492 552h2M543 552h1M547 552h1M574 552h1M47 553h2M51 553h1M57 553h1M59 553h1M62 553h3M68 553h1M72 553h1M75 553h2M81 553h1M87 553h3M92 553h2M100 553h3M107 553h1M111 553h1M117 553h1M120 553h2M124 553h1M130 553h1M133 553h2M137 553h1M141 553h1M151 553h5M159 553h1M162 553h2M170 553h5M177 553h1M184 553h3M189 553h1M193 553h3M198 553h2M202 553h1M206 553h1M212 553h1M214 553h1M217 553h5M227 553h1M230 553h2M234 553h1M238 553h1M241 553h2M247 553h1M251 553h1M255 553h1M257 553h1M260 553h2M264 553h1M271 553h2M275 553h1M279 553h1M285 553h1M288 553h2M296 553h2M300 553h1M312 553h4M323 553h4M334 553h5M341 553h1M345 553h1M349 553h1M372 553h1M376 553h1M382 553h1M389 553h3M396 553h2M400 553h1M406 553h1M408 553h1M411 553h3M417 553h1M423 553h4M432 553h1M436 553h1M443 553h5M450 553h2M458 553h1M465 553h1M468 553h3M474 553h1M476 553h1M479 553h5M489 553h1M492 553h2M496 553h1M500 553h1M504 553h1M511 553h5M525 553h1M532 553h2M536 553h1M542 553h3M547 553h2M553 553h3M559 553h1M564 553h1M568 553h1M573 553h2M577 553h1M583 553h1M46 554h1M60 554h2M77 554h1M85 554h1M94 554h1M104 554h1M119 554h1M132 554h1M139 554h1M149 554h1M164 554h1M168 554h1M175 554h2M189 554h1M191 554h1M200 554h1M215 554h2M223 554h1M229 554h1M231 554h1M243 554h1M257 554h1M262 554h1M266 554h1M273 554h1M287 554h1M290 554h1M295 554h1M310 554h1M317 554h1M321 554h1M328 554h1M332 554h1M339 554h2M360 554h1M393 554h1M395 554h1M408 554h1M421 554h1M437 554h1M441 554h1M449 554h1M465 554h1M477 554h2M485 554h1M491 554h1M493 554h1M509 554h1M517 554h1M532 554h2M549 554h1M551 554h1M572 554h1M46 555h1M61 555h1M77 555h1M94 555h1M119 555h1M132 555h1M164 555h1M175 555h1M189 555h1M200 555h1M216 555h1M231 555h1M243 555h1M257 555h1M262 555h1M273 555h1M287 555h1M290 555h1M295 555h1M339 555h1M395 555h1M408 555h1M437 555h1M449 555h1M465 555h1M478 555h1M493 555h1M532 555h2M549 555h1M572 555h1M47 556h5M55 556h3M62 556h7M72 556h5M79 556h3M87 556h7M100 556h3M107 556h5M115 556h3M120 556h5M128 556h3M133 556h5M141 556h1M151 556h5M159 556h5M170 556h5M184 556h5M193 556h7M202 556h5M210 556h3M217 556h5M227 556h1M232 556h3M238 556h5M245 556h3M251 556h5M258 556h4M264 556h1M270 556h3M275 556h5M283 556h3M288 556h2M296 556h5M312 556h4M323 556h4M334 556h5M345 556h5M372 556h5M380 556h3M389 556h3M396 556h5M404 556h3M408 556h1M411 556h5M423 556h4M432 556h5M443 556h5M450 556h3M456 556h3M465 556h1M468 556h5M479 556h5M489 556h1M494 556h3M500 556h5M511 556h5M525 556h3M531 556h1M534 556h3M542 556h5M549 556h1M553 556h7M564 556h5M573 556h7M583 556h1M96 557h1M100 557h1M354 557h3M385 557h1M389 557h1M408 557h1M411 557h1M465 557h1M468 557h1M546 557h1M549 557h1M353 558h1M358 558h1M409 558h2M417 558h1M466 558h2M474 558h1M540 558h1M547 558h2" />
<path stroke="rgba(131,187,190,0.7803921568627451)" d="M136 517h1M175 517h1M182 517h1M329 517h1M60 519h1M173 519h1M86 527h1M95 527h1M213 527h1M222 527h1M248 527h1M254 527h1M268 527h1M480 527h1M548 527h1M554 527h1M655 527h1M75 529h1M116 529h1M138 529h1M331 529h1M368 529h1M386 529h1M419 529h1M478 529h1M581 529h1M653 529h1M150 536h1M322 540h1M329 540h1M320 542h1M165 550h1M344 550h1M350 550h1M359 550h1M505 550h1M552 550h1M563 550h1M569 550h1M125 552h1M185 552h1M401 552h1M412 552h1M427 552h1M469 552h1M550 552h1M95 559h1M384 559h1" />
<path stroke="rgba(151,208,212,0.7411764705882353)" d="M140 517h1M142 517h1M333 517h1M335 517h1M411 517h1M136 521h1M329 521h1M407 521h1M419 521h1M80 523h1M108 523h1M116 523h1M131 523h1M150 523h1M158 523h1M220 523h1M243 523h1M246 523h1M256 523h1M316 523h1M322 523h1M345 523h1M351 523h1M373 523h1M422 523h1M428 523h1M445 523h1M480 523h1M539 523h1M546 523h1M556 523h1M573 523h1M581 523h1M596 523h1M608 523h1M615 523h1M625 523h2M638 523h1M655 523h1M680 523h1M108 525h1M131 525h1M150 525h1M160 525h1M314 525h1M324 525h1M343 525h1M353 525h1M420 525h1M430 525h1M445 525h1M480 525h1M486 525h1M503 525h1M539 525h1M573 525h1M596 525h1M615 525h1M625 525h2M638 525h1M655 525h1M661 525h1M680 525h1M195 527h1M197 527h1M362 527h1M364 527h1M388 527h1M390 527h1M512 527h1M467 529h1M535 529h1M632 529h1M305 540h1M307 542h1M90 546h1M95 546h1M103 546h1M106 546h1M118 546h1M138 546h1M150 546h1M196 546h1M201 546h1M213 546h1M244 546h1M256 546h1M274 546h1M286 546h1M342 546h1M352 546h1M359 546h1M371 546h1M383 546h2M392 546h1M442 546h1M448 546h1M510 546h1M516 546h1M528 546h1M552 546h1M561 546h1M571 546h1M95 548h1M105 548h2M118 548h1M148 548h1M156 548h1M201 548h1M213 548h1M274 548h1M286 548h1M359 548h1M371 548h1M383 548h2M394 548h1M440 548h1M508 548h1M518 548h1M552 548h1M558 548h1M140 550h1M305 550h1M363 550h1M429 550h1M431 550h1M446 550h1M526 550h1M280 552h1" />
<path stroke="#00383e" d="M47 518h13M135 518h1M141 518h1M176 518h6M328 518h1M334 518h1M412 518h7M49 519h1M57 519h1M418 519h1M49 520h1M57 520h1M137 520h3M174 520h1M330 520h3M410 520h1M418 520h1M49 521h1M57 521h1M174 521h1M49 522h1M57 522h1M174 522h1M408 522h1M49 523h1M57 523h1M174 523h1M408 523h1M49 524h1M57 524h1M64 524h5M74 524h5M81 524h3M87 524h8M100 524h5M109 524h7M118 524h5M126 524h5M133 524h5M141 524h3M151 524h7M164 524h5M174 524h6M187 524h4M196 524h9M212 524h3M217 524h1M221 524h3M227 524h8M240 524h3M247 524h9M263 524h7M274 524h5M284 524h8M297 524h4M306 524h7M317 524h5M326 524h5M334 524h3M346 524h5M355 524h9M367 524h5M374 524h3M382 524h3M389 524h9M408 524h1M423 524h5M432 524h5M440 524h5M447 524h5M455 524h3M462 524h3M470 524h7M481 524h3M490 524h5M498 524h3M507 524h5M515 524h5M534 524h5M541 524h4M547 524h9M560 524h5M574 524h7M583 524h5M591 524h5M603 524h5M610 524h4M616 524h9M627 524h5M635 524h3M645 524h7M656 524h3M665 524h5M673 524h1M677 524h3M49 525h1M57 525h1M76 525h1M81 525h1M87 525h1M90 525h2M94 525h1M111 525h1M115 525h1M120 525h1M128 525h1M135 525h1M141 525h1M153 525h1M174 525h1M196 525h1M200 525h1M203 525h2M214 525h1M217 525h1M221 525h1M229 525h1M232 525h1M247 525h1M251 525h1M255 525h1M265 525h1M269 525h1M286 525h1M289 525h1M308 525h1M312 525h1M328 525h1M334 525h1M355 525h2M359 525h1M363 525h1M369 525h1M374 525h1M389 525h1M393 525h1M396 525h2M408 525h1M434 525h3M440 525h3M449 525h1M455 525h1M472 525h1M476 525h1M492 525h1M511 525h1M517 525h1M536 525h1M541 525h2M547 525h1M551 525h1M555 525h1M576 525h1M580 525h1M585 525h1M593 525h1M605 525h1M610 525h2M618 525h1M622 525h1M629 525h1M635 525h1M647 525h1M651 525h1M667 525h1M673 525h1M677 525h1M49 526h1M57 526h1M62 526h2M70 526h1M76 526h1M81 526h1M87 526h1M90 526h2M94 526h1M98 526h1M105 526h2M111 526h1M115 526h1M120 526h1M128 526h1M135 526h1M139 526h3M153 526h1M159 526h1M162 526h2M170 526h1M174 526h1M181 526h1M185 526h1M192 526h1M196 526h1M200 526h1M203 526h2M214 526h1M217 526h1M221 526h1M229 526h1M232 526h1M238 526h1M244 526h1M247 526h1M251 526h1M255 526h1M265 526h1M269 526h1M272 526h2M280 526h1M286 526h1M289 526h1M295 526h1M302 526h1M308 526h1M312 526h1M315 526h1M323 526h1M328 526h1M332 526h3M344 526h1M352 526h1M355 526h2M359 526h1M363 526h1M369 526h1M374 526h1M380 526h1M385 526h1M389 526h1M393 526h1M396 526h2M408 526h1M421 526h1M429 526h1M434 526h3M440 526h3M449 526h1M455 526h1M460 526h2M466 526h1M472 526h1M476 526h1M485 526h1M492 526h1M496 526h1M502 526h1M505 526h2M511 526h1M517 526h1M536 526h1M541 526h2M547 526h1M551 526h1M555 526h1M558 526h2M566 526h1M576 526h1M580 526h1M585 526h1M593 526h1M605 526h1M609 526h3M618 526h1M622 526h1M629 526h1M633 526h3M647 526h1M651 526h1M660 526h1M667 526h1M673 526h1M677 526h1M49 527h1M57 527h1M62 527h2M70 527h1M76 527h1M81 527h1M90 527h2M98 527h1M105 527h2M111 527h1M120 527h1M128 527h1M135 527h1M141 527h1M153 527h1M159 527h1M162 527h2M170 527h1M174 527h1M181 527h1M185 527h1M192 527h1M200 527h1M217 527h1M229 527h1M232 527h1M238 527h1M244 527h1M251 527h1M265 527h1M272 527h2M280 527h1M286 527h1M289 527h1M295 527h1M302 527h1M308 527h1M315 527h1M323 527h1M328 527h1M334 527h1M344 527h1M352 527h1M359 527h1M369 527h1M374 527h1M380 527h1M385 527h1M393 527h1M408 527h1M421 527h1M429 527h1M434 527h1M442 527h1M449 527h1M455 527h1M460 527h2M466 527h1M472 527h1M485 527h1M492 527h1M496 527h1M502 527h1M505 527h2M517 527h1M536 527h1M541 527h2M551 527h1M558 527h2M566 527h1M576 527h1M585 527h1M593 527h1M605 527h1M610 527h2M618 527h1M622 527h1M629 527h1M635 527h1M647 527h1M660 527h1M667 527h1M673 527h1M677 527h1M49 528h1M57 528h1M62 528h2M70 528h1M76 528h6M90 528h2M98 528h1M105 528h2M111 528h3M120 528h5M128 528h1M135 528h3M141 528h1M153 528h1M159 528h1M162 528h2M170 528h1M174 528h1M181 528h1M185 528h1M192 528h1M200 528h1M215 528h5M229 528h1M232 528h1M238 528h7M251 528h1M265 528h1M272 528h2M280 528h1M286 528h1M289 528h1M295 528h1M302 528h1M308 528h3M315 528h1M323 528h1M328 528h3M334 528h1M344 528h1M352 528h1M359 528h1M369 528h6M380 528h6M393 528h1M408 528h1M421 528h1M429 528h1M434 528h1M438 528h1M442 528h1M449 528h7M460 528h7M472 528h3M481 528h5M492 528h5M502 528h1M505 528h2M517 528h4M536 528h7M551 528h1M558 528h2M566 528h1M576 528h3M585 528h5M593 528h1M605 528h3M610 528h2M618 528h1M622 528h1M629 528h3M635 528h1M647 528h3M656 528h5M667 528h1M673 528h1M677 528h1M49 529h1M57 529h1M62 529h2M70 529h1M81 529h1M90 529h2M98 529h1M105 529h2M111 529h1M120 529h1M124 529h1M128 529h1M135 529h1M141 529h1M153 529h1M159 529h1M162 529h2M170 529h1M174 529h1M181 529h1M185 529h1M192 529h1M200 529h1M217 529h1M232 529h1M238 529h1M251 529h1M265 529h1M272 529h2M280 529h1M289 529h1M295 529h1M302 529h1M308 529h1M315 529h1M323 529h1M328 529h1M334 529h1M344 529h1M352 529h1M359 529h1M374 529h1M380 529h1M393 529h1M421 529h1M429 529h1M434 529h1M438 529h1M442 529h1M449 529h1M455 529h1M460 529h2M472 529h1M485 529h1M492 529h1M496 529h1M502 529h1M505 529h2M517 529h1M520 529h1M541 529h2M551 529h1M558 529h2M566 529h1M576 529h1M585 529h1M589 529h1M593 529h1M605 529h1M610 529h2M618 529h1M622 529h1M629 529h1M635 529h1M647 529h1M660 529h1M667 529h1M673 529h1M677 529h1M49 530h1M57 530h1M62 530h2M70 530h1M81 530h1M90 530h2M98 530h1M105 530h2M111 530h1M115 530h1M120 530h1M124 530h1M128 530h1M135 530h1M141 530h1M153 530h1M159 530h1M162 530h2M170 530h1M174 530h1M181 530h1M185 530h1M192 530h1M200 530h1M214 530h1M217 530h1M221 530h1M227 530h1M232 530h1M238 530h1M251 530h1M265 530h1M272 530h2M280 530h1M284 530h1M289 530h1M295 530h1M302 530h1M308 530h1M312 530h1M315 530h1M323 530h1M328 530h1M334 530h1M344 530h1M352 530h1M359 530h1M374 530h1M380 530h1M393 530h1M410 530h1M418 530h1M421 530h1M429 530h1M434 530h1M438 530h1M442 530h1M449 530h1M455 530h1M460 530h2M472 530h1M476 530h1M479 530h1M485 530h1M492 530h1M496 530h1M502 530h1M505 530h2M517 530h1M520 530h1M541 530h2M551 530h1M558 530h2M566 530h1M576 530h1M580 530h1M585 530h1M589 530h1M593 530h1M605 530h1M610 530h2M618 530h1M622 530h1M629 530h1M635 530h1M647 530h1M651 530h1M654 530h1M660 530h1M667 530h1M673 530h1M677 530h1M47 531h5M55 531h5M64 531h5M79 531h5M89 531h4M100 531h5M109 531h7M118 531h13M133 531h5M141 531h3M153 531h5M164 531h5M176 531h4M187 531h4M198 531h5M212 531h3M217 531h1M221 531h3M227 531h8M240 531h5M249 531h5M263 531h5M274 531h5M284 531h8M297 531h4M306 531h7M317 531h5M326 531h5M334 531h3M346 531h5M357 531h5M372 531h5M382 531h4M391 531h5M400 531h1M412 531h5M423 531h5M432 531h3M438 531h1M442 531h3M447 531h5M455 531h3M462 531h5M470 531h7M481 531h7M490 531h5M498 531h3M507 531h5M515 531h6M524 531h3M540 531h5M549 531h5M560 531h5M574 531h7M583 531h13M603 531h5M610 531h4M616 531h1M622 531h3M627 531h5M635 531h3M645 531h7M656 531h7M665 531h15M47 532h5M55 532h5M64 532h5M79 532h5M89 532h4M100 532h5M109 532h7M118 532h13M133 532h5M141 532h3M153 532h5M164 532h5M176 532h4M187 532h4M198 532h5M212 532h3M217 532h1M221 532h3M227 532h8M240 532h5M249 532h5M263 532h5M274 532h5M284 532h8M297 532h4M306 532h7M317 532h5M326 532h5M334 532h3M346 532h5M357 532h5M372 532h5M382 532h4M391 532h5M400 532h1M412 532h5M423 532h5M432 532h3M438 532h1M442 532h3M447 532h5M455 532h3M462 532h5M470 532h7M481 532h7M490 532h5M498 532h3M507 532h5M515 532h6M524 532h3M540 532h5M549 532h5M560 532h5M574 532h7M583 532h13M603 532h5M610 532h4M616 532h1M622 532h3M627 532h5M635 532h3M645 532h7M656 532h7M665 532h15M153 533h1M227 533h1M234 533h1M284 533h1M291 533h1M526 533h1M153 534h1M227 534h1M234 534h1M284 534h1M291 534h1M526 534h1M151 535h5M524 535h1M296 541h9M323 541h6M298 542h1M298 543h1M306 543h1M321 543h1M298 544h1M306 544h1M321 544h1M298 545h1M306 545h1M321 545h1M298 546h1M306 546h1M321 546h1M47 547h5M55 547h3M62 547h3M72 547h10M87 547h3M96 547h7M107 547h5M115 547h3M120 547h5M128 547h3M133 547h3M139 547h3M151 547h3M159 547h6M170 547h5M184 547h5M193 547h3M202 547h11M217 547h5M227 547h8M238 547h5M245 547h3M251 547h5M258 547h4M264 547h9M275 547h5M283 547h3M298 547h1M306 547h1M312 547h4M321 547h6M334 547h5M343 547h9M354 547h3M360 547h5M372 547h11M385 547h7M396 547h5M404 547h3M409 547h9M423 547h3M430 547h9M443 547h5M452 547h7M466 547h9M479 547h5M489 547h8M500 547h7M511 547h5M525 547h3M531 547h1M534 547h3M540 547h9M553 547h3M562 547h9M573 547h5M49 548h1M55 548h1M74 548h1M79 548h1M98 548h1M109 548h1M115 548h1M122 548h1M128 548h1M135 548h1M139 548h1M161 548h1M164 548h1M187 548h2M204 548h1M210 548h1M229 548h1M232 548h1M240 548h1M245 548h1M253 548h1M258 548h2M266 548h1M270 548h1M277 548h1M283 548h1M298 548h1M321 548h1M343 548h1M347 548h1M351 548h1M356 548h1M362 548h1M374 548h1M380 548h1M387 548h1M398 548h1M404 548h1M411 548h1M415 548h1M430 548h1M434 548h1M437 548h2M447 548h1M452 548h1M456 548h1M468 548h1M472 548h1M491 548h1M494 548h1M502 548h1M506 548h1M527 548h1M531 548h1M534 548h2M542 548h1M546 548h1M562 548h1M566 548h1M570 548h1M575 548h1M49 549h1M55 549h1M66 549h1M74 549h1M79 549h1M91 549h1M98 549h1M104 549h1M109 549h1M115 549h1M122 549h1M126 549h3M135 549h1M139 549h1M149 549h1M155 549h1M161 549h1M164 549h1M168 549h1M175 549h2M187 549h2M197 549h1M204 549h1M210 549h1M215 549h2M223 549h1M229 549h1M232 549h1M240 549h1M245 549h1M253 549h1M257 549h3M266 549h1M270 549h1M277 549h1M281 549h3M298 549h7M310 549h1M317 549h1M321 549h1M328 549h1M332 549h1M339 549h2M343 549h1M347 549h1M351 549h1M356 549h1M362 549h1M374 549h1M380 549h1M387 549h1M393 549h1M398 549h1M402 549h3M411 549h1M415 549h1M421 549h1M426 549h1M430 549h1M434 549h1M437 549h2M441 549h1M447 549h1M452 549h1M456 549h1M468 549h1M472 549h1M477 549h2M485 549h1M491 549h1M494 549h1M502 549h1M506 549h1M509 549h1M517 549h1M527 549h1M531 549h1M534 549h2M542 549h1M546 549h1M557 549h1M562 549h1M566 549h1M570 549h1M575 549h1M49 550h1M55 550h1M66 550h1M74 550h1M79 550h1M91 550h1M98 550h1M104 550h1M109 550h1M115 550h1M122 550h1M128 550h1M135 550h1M149 550h1M155 550h1M161 550h1M168 550h1M175 550h2M197 550h1M204 550h1M210 550h1M215 550h2M223 550h1M229 550h1M232 550h1M240 550h1M245 550h1M253 550h1M258 550h2M266 550h1M270 550h1M277 550h1M283 550h1M298 550h1M310 550h1M317 550h1M321 550h1M328 550h1M332 550h1M339 550h2M347 550h1M356 550h1M374 550h1M380 550h1M387 550h1M393 550h1M398 550h1M404 550h1M411 550h1M415 550h1M421 550h1M426 550h1M434 550h1M441 550h1M456 550h1M468 550h1M472 550h1M477 550h2M485 550h1M491 550h1M494 550h1M502 550h1M509 550h1M517 550h1M531 550h1M542 550h1M546 550h1M557 550h1M566 550h1M575 550h1M49 551h7M62 551h5M74 551h1M79 551h1M87 551h5M98 551h1M104 551h1M109 551h7M122 551h3M128 551h1M135 551h3M149 551h7M161 551h1M168 551h1M175 551h2M186 551h1M193 551h5M204 551h1M210 551h1M215 551h2M223 551h1M229 551h1M232 551h1M240 551h6M253 551h3M258 551h2M266 551h1M270 551h1M277 551h3M283 551h1M298 551h1M310 551h1M317 551h1M321 551h1M328 551h1M332 551h1M339 551h2M347 551h1M356 551h1M360 551h1M374 551h1M380 551h1M387 551h1M393 551h1M398 551h3M404 551h1M411 551h1M415 551h1M421 551h6M434 551h1M441 551h1M454 551h3M468 551h1M472 551h1M477 551h2M485 551h1M491 551h1M494 551h1M502 551h1M509 551h1M517 551h1M529 551h5M542 551h1M546 551h1M553 551h5M566 551h1M575 551h5M49 552h1M55 552h1M66 552h1M74 552h1M79 552h1M91 552h1M98 552h1M104 552h1M109 552h1M115 552h1M122 552h1M128 552h1M135 552h1M149 552h1M161 552h1M168 552h1M175 552h2M197 552h1M204 552h1M210 552h1M215 552h2M223 552h1M229 552h1M232 552h1M240 552h1M245 552h1M253 552h1M258 552h2M266 552h1M270 552h1M277 552h1M283 552h1M298 552h1M310 552h1M317 552h1M321 552h1M328 552h1M332 552h1M339 552h2M347 552h1M360 552h1M374 552h1M380 552h1M387 552h1M393 552h1M398 552h1M404 552h1M415 552h1M421 552h1M434 552h1M441 552h1M456 552h1M472 552h1M477 552h2M485 552h1M491 552h1M494 552h1M502 552h1M509 552h1M517 552h1M531 552h1M546 552h1M557 552h1M566 552h1M575 552h1M579 552h1M49 553h1M55 553h1M60 553h2M66 553h1M74 553h1M79 553h1M85 553h1M91 553h1M98 553h1M104 553h1M109 553h1M115 553h1M122 553h1M128 553h1M135 553h1M139 553h1M149 553h1M161 553h1M168 553h1M175 553h2M187 553h2M191 553h1M197 553h1M204 553h1M210 553h1M215 553h2M223 553h1M229 553h1M232 553h1M240 553h1M245 553h1M253 553h1M258 553h2M266 553h1M270 553h1M277 553h1M283 553h1M298 553h1M310 553h1M317 553h1M321 553h1M328 553h1M332 553h1M339 553h2M347 553h1M358 553h3M374 553h1M380 553h1M387 553h1M393 553h1M398 553h1M404 553h1M409 553h2M415 553h1M421 553h1M434 553h1M441 553h1M452 553h1M456 553h1M466 553h2M472 553h1M477 553h2M485 553h1M491 553h1M494 553h1M502 553h1M509 553h1M517 553h1M527 553h1M531 553h1M534 553h2M540 553h1M546 553h1M551 553h1M557 553h1M566 553h1M575 553h1M579 553h1M47 554h5M55 554h3M62 554h7M72 554h5M79 554h3M87 554h7M98 554h5M107 554h5M115 554h3M120 554h5M128 554h3M133 554h5M141 554h1M151 554h5M159 554h5M170 554h5M184 554h5M193 554h7M202 554h5M210 554h3M217 554h5M227 554h1M232 554h3M238 554h5M245 554h3M251 554h5M258 554h4M264 554h1M270 554h3M275 554h5M283 554h3M288 554h2M296 554h5M312 554h4M323 554h4M334 554h5M345 554h5M358 554h1M372 554h5M380 554h3M387 554h5M396 554h5M404 554h3M409 554h9M423 554h4M432 554h5M443 554h5M450 554h3M456 554h3M466 554h9M479 554h5M489 554h1M494 554h3M500 554h5M511 554h5M525 554h3M531 554h1M534 554h3M540 554h9M553 554h7M564 554h5M573 554h7M583 554h1M47 555h5M55 555h3M62 555h7M72 555h5M79 555h3M87 555h7M98 555h5M107 555h5M115 555h3M120 555h5M128 555h3M133 555h5M141 555h1M151 555h5M159 555h5M170 555h5M184 555h5M193 555h7M202 555h5M210 555h3M217 555h5M227 555h1M232 555h3M238 555h5M245 555h3M251 555h5M258 555h4M264 555h1M270 555h3M275 555h5M283 555h3M288 555h2M296 555h5M312 555h4M323 555h4M334 555h5M345 555h5M358 555h1M372 555h5M380 555h3M387 555h5M396 555h5M404 555h3M409 555h9M423 555h4M432 555h5M443 555h5M450 555h3M456 555h3M466 555h9M479 555h5M489 555h1M494 555h3M500 555h5M511 555h5M525 555h3M531 555h1M534 555h3M540 555h9M553 555h7M564 555h5M573 555h7M583 555h1M98 556h1M358 556h1M387 556h1M409 556h2M417 556h1M466 556h2M474 556h1M540 556h1M547 556h2M98 557h1M358 557h1M387 557h1M409 557h2M417 557h1M466 557h2M474 557h1M540 557h1M547 557h2M96 558h5M354 558h3M385 558h5" />
<path stroke="rgba(38,96,105,0.9411764705882353)" d="M136 518h1M175 518h1M182 518h1M329 518h1M47 519h2M51 519h5M59 519h1M135 519h1M141 519h1M176 519h6M328 519h1M334 519h1M412 519h5M50 520h1M173 520h1M417 520h1M50 521h1M173 521h1M50 522h1M173 522h1M409 522h1M50 523h1M173 523h1M409 523h1M50 524h1M73 524h1M84 524h1M86 524h1M95 524h1M123 524h1M138 524h1M173 524h1M180 524h1M186 524h1M191 524h1M211 524h1M218 524h1M226 524h1M235 524h1M283 524h1M292 524h1M296 524h1M301 524h1M331 524h1M366 524h1M377 524h1M381 524h1M409 524h1M437 524h1M452 524h1M465 524h1M495 524h1M514 524h1M588 524h1M634 524h1M670 524h1M50 525h1M86 525h1M95 525h1M173 525h1M218 525h1M409 525h1M437 525h1M50 526h1M75 526h1M82 526h1M86 526h1M95 526h1M121 526h1M136 526h1M158 526h1M173 526h1M182 526h1M184 526h1M193 526h1M199 526h1M213 526h1M218 526h1M222 526h1M228 526h1M233 526h1M243 526h1M248 526h1M254 526h1M268 526h1M285 526h1M290 526h1M294 526h1M303 526h1M311 526h1M316 526h1M322 526h1M329 526h1M345 526h1M351 526h1M360 526h1M368 526h1M375 526h1M379 526h1M386 526h1M392 526h1M409 526h1M422 526h1M428 526h1M437 526h1M450 526h1M475 526h1M493 526h1M516 526h1M548 526h1M554 526h1M586 526h1M608 526h1M650 526h1M668 526h1M50 527h1M75 527h1M77 527h4M82 527h1M113 527h1M122 527h3M137 527h1M158 527h1M173 527h1M182 527h1M184 527h1M193 527h1M199 527h1M215 527h2M219 527h1M228 527h1M233 527h1M240 527h3M285 527h1M290 527h1M294 527h1M303 527h1M309 527h2M316 527h1M322 527h1M330 527h1M345 527h1M351 527h1M360 527h1M368 527h1M370 527h4M375 527h1M379 527h1M381 527h4M386 527h1M392 527h1M409 527h1M422 527h1M428 527h1M435 527h1M438 527h1M451 527h3M462 527h4M473 527h2M481 527h3M494 527h2M516 527h1M518 527h3M537 527h4M578 527h1M587 527h3M606 527h2M631 527h1M634 527h1M648 527h2M656 527h3M668 527h1M50 528h1M75 528h1M82 528h1M138 528h1M158 528h1M173 528h1M182 528h1M184 528h1M193 528h1M199 528h1M220 528h1M228 528h1M233 528h1M285 528h1M290 528h1M294 528h1M303 528h1M316 528h1M322 528h1M331 528h1M345 528h1M351 528h1M360 528h1M368 528h1M375 528h1M379 528h1M386 528h1M392 528h1M409 528h1M422 528h1M428 528h1M435 528h1M516 528h1M521 528h1M634 528h1M668 528h1M50 529h1M82 529h1M115 529h1M121 529h1M136 529h1M158 529h1M173 529h1M182 529h1M184 529h1M193 529h1M199 529h1M214 529h1M218 529h1M221 529h1M227 529h1M233 529h1M284 529h1M290 529h1M294 529h1M303 529h1M312 529h1M316 529h1M322 529h1M329 529h1M345 529h1M351 529h1M360 529h1M375 529h1M379 529h1M392 529h1M410 529h1M418 529h1M422 529h1M428 529h1M435 529h1M450 529h1M476 529h1M479 529h1M493 529h1M516 529h1M521 529h1M580 529h1M586 529h1M634 529h1M651 529h1M654 529h1M668 529h1M50 530h1M82 530h1M121 530h1M136 530h1M158 530h1M173 530h1M182 530h1M184 530h1M193 530h1M199 530h1M213 530h1M218 530h1M222 530h1M226 530h1M233 530h1M283 530h1M290 530h1M294 530h1M303 530h1M311 530h1M316 530h1M322 530h1M329 530h1M345 530h1M351 530h1M360 530h1M375 530h1M379 530h1M392 530h1M417 530h1M422 530h1M428 530h1M435 530h1M450 530h1M475 530h1M480 530h1M493 530h1M516 530h1M521 530h1M586 530h1M634 530h1M650 530h1M655 530h1M668 530h1M52 531h1M84 531h1M88 531h1M93 531h1M138 531h1M175 531h1M180 531h1M186 531h1M191 531h1M211 531h1M218 531h1M226 531h1M235 531h1M283 531h1M292 531h1M296 531h1M301 531h1M331 531h1M377 531h1M381 531h1M386 531h1M435 531h1M452 531h1M495 531h1M514 531h1M521 531h1M539 531h1M617 531h1M634 531h1M52 532h1M84 532h1M88 532h1M93 532h1M138 532h1M175 532h1M180 532h1M186 532h1M191 532h1M211 532h1M218 532h1M226 532h1M235 532h1M283 532h1M292 532h1M296 532h1M301 532h1M331 532h1M377 532h1M381 532h1M386 532h1M435 532h1M452 532h1M495 532h1M514 532h1M521 532h1M539 532h1M617 532h1M634 532h1M226 533h1M235 533h1M283 533h1M292 533h1M226 534h1M235 534h1M283 534h1M292 534h1M151 536h5M524 536h1M322 541h1M329 541h1M296 542h2M300 542h5M323 542h6M299 543h1M320 543h1M299 544h1M320 544h1M299 545h1M320 545h1M299 546h1M320 546h1M52 547h1M65 547h1M71 547h1M82 547h1M114 547h1M125 547h1M136 547h1M158 547h1M165 547h1M183 547h1M226 547h1M235 547h1M237 547h1M248 547h1M282 547h1M299 547h1M311 547h1M316 547h1M320 547h1M327 547h1M357 547h1M401 547h1M422 547h1M488 547h1M497 547h1M530 547h1M537 547h1M578 547h1M114 548h1M136 548h1M165 548h1M320 548h1M357 548h1M530 548h1M50 549h1M73 549h1M80 549h1M90 549h1M103 549h1M114 549h1M123 549h1M136 549h1M150 549h1M160 549h1M165 549h1M196 549h1M209 549h1M228 549h1M233 549h1M239 549h1M246 549h1M256 549h1M269 549h1M309 549h1M318 549h1M320 549h1M329 549h1M344 549h1M350 549h1M357 549h1M379 549h1M392 549h1M399 549h1M412 549h1M420 549h1M427 549h1M433 549h1M442 549h1M453 549h1M469 549h1M490 549h1M495 549h1M505 549h1M510 549h1M516 549h1M530 549h1M545 549h1M563 549h1M569 549h1M576 549h1M51 550h3M62 550h4M73 550h1M80 550h1M87 550h3M103 550h1M111 550h3M124 550h1M137 550h1M151 550h3M160 550h1M186 550h1M193 550h3M209 550h1M228 550h1M233 550h1M239 550h1M241 550h4M246 550h1M254 550h2M269 550h1M279 550h1M282 550h1M299 550h1M309 550h1M318 550h1M320 550h1M329 550h1M357 550h1M360 550h1M379 550h1M392 550h1M400 550h1M412 550h1M420 550h1M422 550h4M427 550h1M433 550h1M442 550h1M454 550h2M469 550h1M490 550h1M495 550h1M510 550h1M516 550h1M529 550h1M532 550h2M545 550h1M553 550h3M577 550h3M73 551h1M80 551h1M103 551h1M125 551h1M138 551h1M160 551h1M185 551h1M209 551h1M228 551h1M233 551h1M239 551h1M246 551h1M269 551h1M282 551h1M299 551h1M309 551h1M318 551h1M320 551h1M329 551h1M357 551h1M379 551h1M392 551h1M401 551h1M412 551h1M420 551h1M427 551h1M433 551h1M442 551h1M469 551h1M490 551h1M495 551h1M510 551h1M516 551h1M528 551h1M545 551h1M50 552h1M60 552h2M73 552h1M80 552h1M85 552h1M90 552h1M103 552h1M114 552h1M123 552h1M136 552h1M139 552h1M150 552h1M160 552h1M187 552h2M191 552h1M196 552h1M209 552h1M228 552h1M233 552h1M239 552h1M246 552h1M269 552h1M282 552h1M299 552h1M309 552h1M318 552h1M320 552h1M329 552h1M358 552h2M379 552h1M392 552h1M399 552h1M409 552h2M420 552h1M433 552h1M442 552h1M452 552h1M466 552h2M490 552h1M495 552h1M510 552h1M516 552h1M527 552h1M530 552h1M534 552h2M540 552h1M545 552h1M551 552h1M576 552h1M50 553h1M73 553h1M80 553h1M90 553h1M103 553h1M114 553h1M123 553h1M136 553h1M150 553h1M160 553h1M196 553h1M209 553h1M228 553h1M233 553h1M239 553h1M246 553h1M269 553h1M282 553h1M299 553h1M309 553h1M318 553h1M320 553h1M329 553h1M379 553h1M392 553h1M399 553h1M420 553h1M433 553h1M442 553h1M453 553h1M490 553h1M495 553h1M510 553h1M516 553h1M530 553h1M545 553h1M552 553h1M576 553h1M52 554h1M71 554h1M82 554h1M114 554h1M125 554h1M138 554h1M158 554h1M183 554h1M209 554h1M226 554h1M235 554h1M237 554h1M248 554h1M269 554h1M282 554h1M301 554h1M311 554h1M316 554h1M322 554h1M327 554h1M359 554h1M379 554h1M401 554h1M422 554h1M427 554h1M453 554h1M488 554h1M497 554h1M530 554h1M537 554h1M582 554h1M52 555h1M71 555h1M82 555h1M114 555h1M125 555h1M138 555h1M158 555h1M183 555h1M209 555h1M226 555h1M235 555h1M237 555h1M248 555h1M269 555h1M282 555h1M301 555h1M311 555h1M316 555h1M322 555h1M327 555h1M359 555h1M379 555h1M401 555h1M422 555h1M427 555h1M453 555h1M488 555h1M497 555h1M530 555h1M537 555h1M582 555h1M359 556h1M359 557h1M357 558h1M96 559h5M354 559h3M385 559h5" />
<path stroke="rgba(86,141,147,0.8627450980392157)" d="M140 518h1M142 518h1M333 518h1M335 518h1M411 518h1M140 519h1M333 519h1M411 519h1M56 520h1M58 520h1M140 520h1M333 520h1M411 520h1M56 521h1M58 521h1M137 521h3M330 521h3M408 521h3M418 521h1M56 522h1M58 522h1M56 523h1M58 523h1M64 523h5M74 523h5M81 523h3M87 523h8M100 523h5M109 523h7M118 523h5M126 523h5M133 523h5M141 523h3M151 523h7M164 523h5M176 523h4M187 523h4M196 523h9M212 523h3M217 523h1M221 523h3M227 523h8M240 523h3M247 523h9M263 523h7M274 523h5M284 523h8M297 523h4M306 523h7M317 523h5M326 523h5M334 523h3M346 523h5M355 523h9M367 523h5M374 523h3M382 523h3M389 523h9M423 523h5M432 523h5M440 523h5M447 523h5M455 523h3M462 523h3M470 523h7M481 523h3M490 523h5M498 523h3M507 523h5M515 523h5M534 523h5M541 523h4M547 523h9M560 523h5M574 523h7M583 523h5M591 523h5M603 523h5M610 523h4M616 523h9M627 523h5M635 523h3M645 523h7M656 523h3M665 523h5M673 523h1M677 523h3M56 524h1M58 524h1M69 524h1M99 524h1M125 524h1M140 524h1M144 524h1M169 524h1M195 524h1M224 524h1M239 524h1M262 524h1M279 524h1M305 524h1M333 524h1M337 524h1M364 524h1M388 524h1M439 524h1M454 524h1M458 524h1M469 524h1M484 524h1M497 524h1M501 524h1M512 524h1M533 524h1M565 524h1M590 524h1M602 524h1M632 524h1M644 524h1M659 524h1M672 524h1M674 524h1M676 524h1M56 525h1M58 525h1M62 525h9M74 525h1M77 525h2M83 525h1M89 525h1M92 525h1M98 525h9M109 525h1M113 525h1M118 525h2M122 525h1M126 525h1M130 525h1M133 525h2M137 525h3M143 525h1M151 525h1M155 525h5M162 525h9M176 525h6M185 525h8M195 525h1M198 525h1M202 525h1M212 525h1M223 525h1M227 525h1M230 525h2M234 525h1M238 525h7M249 525h1M253 525h1M263 525h1M267 525h1M272 525h9M284 525h1M287 525h2M291 525h1M295 525h8M306 525h1M310 525h1M315 525h9M326 525h2M330 525h3M336 525h1M344 525h9M357 525h1M361 525h1M364 525h1M367 525h1M370 525h2M376 525h1M380 525h6M388 525h1M391 525h1M395 525h1M421 525h9M432 525h2M439 525h1M444 525h1M447 525h2M451 525h1M454 525h1M457 525h1M460 525h7M470 525h1M474 525h1M481 525h5M490 525h2M494 525h9M505 525h5M512 525h1M515 525h1M518 525h2M534 525h1M538 525h1M543 525h2M549 525h1M553 525h1M558 525h9M574 525h1M578 525h1M583 525h2M587 525h1M591 525h1M595 525h1M603 525h1M607 525h3M612 525h2M616 525h1M620 525h1M624 525h1M627 525h1M631 525h3M637 525h1M645 525h1M649 525h1M656 525h5M665 525h2M669 525h1M672 525h1M674 525h1M676 525h1M679 525h1M56 526h1M58 526h1M69 526h1M71 526h1M97 526h1M99 526h1M112 526h1M114 526h1M127 526h1M129 526h1M142 526h1M154 526h1M169 526h1M171 526h1M195 526h1M197 526h1M237 526h1M239 526h1M250 526h1M252 526h1M264 526h1M279 526h1M281 526h1M307 526h1M335 526h1M362 526h1M364 526h1M388 526h1M390 526h1M439 526h1M443 526h1M454 526h1M456 526h1M467 526h1M471 526h1M484 526h1M497 526h1M501 526h1M512 526h1M535 526h1M550 526h1M552 526h1M565 526h1M567 526h1M577 526h1M579 526h1M592 526h1M594 526h1M604 526h1M619 526h1M621 526h1M630 526h1M632 526h1M646 526h1M659 526h1M672 526h1M674 526h1M676 526h1M56 527h1M58 527h1M69 527h1M71 527h1M97 527h1M99 527h1M114 527h1M127 527h1M129 527h1M142 527h1M154 527h1M169 527h1M171 527h1M237 527h1M250 527h1M252 527h1M264 527h1M279 527h1M281 527h1M307 527h1M335 527h1M439 527h1M443 527h1M456 527h1M467 527h1M471 527h1M497 527h1M501 527h1M535 527h1M550 527h1M552 527h1M565 527h1M567 527h1M579 527h1M592 527h1M594 527h1M604 527h1M619 527h1M621 527h1M632 527h1M646 527h1M672 527h1M674 527h1M676 527h1M56 528h1M58 528h1M69 528h1M71 528h1M97 528h1M99 528h1M114 528h1M125 528h1M127 528h1M129 528h1M140 528h1M142 528h1M154 528h1M169 528h1M171 528h1M237 528h1M250 528h1M252 528h1M264 528h1M279 528h1M281 528h1M307 528h1M333 528h1M335 528h1M439 528h1M441 528h1M443 528h1M456 528h1M467 528h1M471 528h1M497 528h1M501 528h1M535 528h1M550 528h1M552 528h1M565 528h1M567 528h1M579 528h1M590 528h1M592 528h1M594 528h1M604 528h1M619 528h1M621 528h1M632 528h1M646 528h1M672 528h1M674 528h1M676 528h1M56 529h1M58 529h1M69 529h1M71 529h1M97 529h1M99 529h1M114 529h1M125 529h1M127 529h1M129 529h1M140 529h1M142 529h1M154 529h1M169 529h1M171 529h1M237 529h1M250 529h1M252 529h1M264 529h1M279 529h1M281 529h1M307 529h1M333 529h1M335 529h1M439 529h1M441 529h1M443 529h1M456 529h1M471 529h1M497 529h1M501 529h1M550 529h1M552 529h1M565 529h1M567 529h1M579 529h1M590 529h1M592 529h1M594 529h1M604 529h1M619 529h1M621 529h1M646 529h1M672 529h1M674 529h1M676 529h1M56 530h1M58 530h1M69 530h1M71 530h1M97 530h1M99 530h1M112 530h1M114 530h1M125 530h1M127 530h1M129 530h1M140 530h1M142 530h1M154 530h1M169 530h1M171 530h1M237 530h1M239 530h1M250 530h1M252 530h1M264 530h1M279 530h1M281 530h1M307 530h1M333 530h1M335 530h1M411 530h1M439 530h1M441 530h1M443 530h1M454 530h1M456 530h1M471 530h1M484 530h1M497 530h1M501 530h1M550 530h1M552 530h1M565 530h1M567 530h1M577 530h1M579 530h1M590 530h1M592 530h1M594 530h1M604 530h1M619 530h1M621 530h1M630 530h1M646 530h1M659 530h1M672 530h1M674 530h1M676 530h1M54 531h1M69 531h1M99 531h1M140 531h1M144 531h1M169 531h1M197 531h1M224 531h1M239 531h1M262 531h1M279 531h1M305 531h1M333 531h1M337 531h1M362 531h1M390 531h1M399 531h1M401 531h1M411 531h1M439 531h1M441 531h1M454 531h1M458 531h1M467 531h1M469 531h1M497 531h1M501 531h1M512 531h1M523 531h1M565 531h1M602 531h1M621 531h1M632 531h1M644 531h1M54 532h1M69 532h1M99 532h1M140 532h1M144 532h1M169 532h1M197 532h1M224 532h1M239 532h1M262 532h1M279 532h1M305 532h1M333 532h1M337 532h1M362 532h1M390 532h1M399 532h1M401 532h1M411 532h1M439 532h1M441 532h1M454 532h1M458 532h1M467 532h1M469 532h1M497 532h1M501 532h1M512 532h1M523 532h1M565 532h1M602 532h1M621 532h1M632 532h1M644 532h1M154 533h1M525 533h1M154 534h1M525 534h1M156 535h1M523 535h1M525 535h1M305 541h1M305 542h1M305 543h1M307 543h1M305 544h1M307 544h1M305 545h1M307 545h1M47 546h5M55 546h3M62 546h3M72 546h10M87 546h3M96 546h7M107 546h5M115 546h3M120 546h5M128 546h3M133 546h3M139 546h3M151 546h3M159 546h6M170 546h5M184 546h5M193 546h3M202 546h11M217 546h5M227 546h8M238 546h5M245 546h3M251 546h5M258 546h4M264 546h9M275 546h5M283 546h3M305 546h1M307 546h1M312 546h4M323 546h4M334 546h5M343 546h9M354 546h3M360 546h5M372 546h11M385 546h7M396 546h5M404 546h3M409 546h9M423 546h3M430 546h9M443 546h5M452 546h7M466 546h9M479 546h5M489 546h8M500 546h7M511 546h5M525 546h3M531 546h1M534 546h3M540 546h9M553 546h3M562 546h9M573 546h5M54 547h1M58 547h1M86 547h1M112 547h1M127 547h1M131 547h1M142 547h1M154 547h1M169 547h1M192 547h1M222 547h1M250 547h1M263 547h1M280 547h1M305 547h1M307 547h1M333 547h1M365 547h1M403 547h1M407 547h1M418 547h1M429 547h1M459 547h1M475 547h1M484 547h1M499 547h1M524 547h1M539 547h1M556 547h1M47 548h2M51 548h1M54 548h1M57 548h1M62 548h5M72 548h1M75 548h3M81 548h1M87 548h5M96 548h1M100 548h5M107 548h1M111 548h1M117 548h1M120 548h2M124 548h3M130 548h1M133 548h2M141 548h1M149 548h7M159 548h1M162 548h2M168 548h9M184 548h3M193 548h5M202 548h1M206 548h3M212 548h1M215 548h9M227 548h1M230 548h2M234 548h1M238 548h1M241 548h2M247 548h1M251 548h1M255 548h3M260 548h2M264 548h1M268 548h1M271 548h2M275 548h1M279 548h3M285 548h1M300 548h7M310 548h8M323 548h6M332 548h9M345 548h1M349 548h1M354 548h2M360 548h1M364 548h1M372 548h1M376 548h3M382 548h1M385 548h1M389 548h5M396 548h2M400 548h3M406 548h1M409 548h2M413 548h1M417 548h1M421 548h6M429 548h1M432 548h1M436 548h1M441 548h5M454 548h1M458 548h1M466 548h2M470 548h1M474 548h1M477 548h9M489 548h1M492 548h2M496 548h1M500 548h1M504 548h1M509 548h9M525 548h1M536 548h1M540 548h1M544 548h1M547 548h2M553 548h5M564 548h1M568 548h1M573 548h2M577 548h1M54 549h1M56 549h1M67 549h1M99 549h1M110 549h1M129 549h1M140 549h1M154 549h1M167 549h1M169 549h1M205 549h1M222 549h1M224 549h1M252 549h1M265 549h1M278 549h1M280 549h1M305 549h1M331 549h1M333 549h1M346 549h1M348 549h1M361 549h1M363 549h1M375 549h1M388 549h1M405 549h1M416 549h1M429 549h1M431 549h1M446 549h1M457 549h1M473 549h1M484 549h1M486 549h1M501 549h1M526 549h1M541 549h1M556 549h1M565 549h1M567 549h1M56 550h1M67 550h1M99 550h1M129 550h1M167 550h1M169 550h1M205 550h1M222 550h1M224 550h1M252 550h1M265 550h1M280 550h1M331 550h1M333 550h1M346 550h1M348 550h1M361 550h1M375 550h1M388 550h1M405 550h1M416 550h1M457 550h1M473 550h1M484 550h1M486 550h1M501 550h1M541 550h1M565 550h1M567 550h1M56 551h1M67 551h1M86 551h1M99 551h1M127 551h1M129 551h1M167 551h1M169 551h1M192 551h1M205 551h1M222 551h1M224 551h1M252 551h1M265 551h1M280 551h1M331 551h1M333 551h1M346 551h1M348 551h1M361 551h1M375 551h1M388 551h1M403 551h1M405 551h1M416 551h1M457 551h1M473 551h1M484 551h1M486 551h1M501 551h1M541 551h1M565 551h1M567 551h1M580 551h1M56 552h1M67 552h1M86 552h1M99 552h1M127 552h1M129 552h1M167 552h1M169 552h1M192 552h1M205 552h1M222 552h1M224 552h1M252 552h1M265 552h1M331 552h1M333 552h1M346 552h1M348 552h1M361 552h1M375 552h1M388 552h1M403 552h1M405 552h1M416 552h1M457 552h1M473 552h1M484 552h1M486 552h1M501 552h1M541 552h1M565 552h1M567 552h1M580 552h1M54 553h1M56 553h1M67 553h1M84 553h1M86 553h1M99 553h1M110 553h1M127 553h1M129 553h1M140 553h1M167 553h1M169 553h1M190 553h1M192 553h1M205 553h1M222 553h1M224 553h1M252 553h1M265 553h1M278 553h1M331 553h1M333 553h1M346 553h1M348 553h1M361 553h1M375 553h1M388 553h1M403 553h1M405 553h1M416 553h1M457 553h1M473 553h1M484 553h1M486 553h1M501 553h1M526 553h1M539 553h1M541 553h1M556 553h1M565 553h1M567 553h1M580 553h1M54 554h1M58 554h1M69 554h1M86 554h1M112 554h1M127 554h1M131 554h1M140 554h1M142 554h1M169 554h1M192 554h1M207 554h1M222 554h1M250 554h1M263 554h1M265 554h1M280 554h1M333 554h1M377 554h1M403 554h1M407 554h1M418 554h1M431 554h1M459 554h1M475 554h1M484 554h1M499 554h1M524 554h1M539 554h1M580 554h1M54 555h1M58 555h1M69 555h1M86 555h1M112 555h1M127 555h1M131 555h1M140 555h1M142 555h1M169 555h1M192 555h1M207 555h1M222 555h1M250 555h1M263 555h1M265 555h1M280 555h1M333 555h1M377 555h1M403 555h1M407 555h1M418 555h1M431 555h1M459 555h1M475 555h1M484 555h1M499 555h1M524 555h1M539 555h1M580 555h1M99 556h1M388 556h1M416 556h1M418 556h1M473 556h1M475 556h1M539 556h1M541 556h1M99 557h1M388 557h1M416 557h1M418 557h1M473 557h1M475 557h1M539 557h1M541 557h1M101 558h1M390 558h1" />
<path stroke="rgba(179,169,185,0.5686274509803921)" d="M821 518h1M23 519h1M821 519h1M23 520h1M821 520h1M23 521h1M821 521h1M23 522h1M821 522h1M23 523h1M821 523h1M23 524h1M821 524h1M23 525h1M821 525h1M23 526h1M821 526h1M23 527h1M821 527h1M23 528h1M821 528h1M23 529h1M821 529h1M23 530h1M821 530h1M23 531h1M821 531h1M23 532h1M821 532h1M23 533h1M821 533h1M23 534h1M821 534h1M23 535h1M821 535h1M23 536h1M821 536h1M23 537h1M821 537h1M23 538h1M821 538h1M23 539h1M23 540h1M23 541h1M23 542h1M23 543h1M23 544h1M23 545h1M23 546h1M23 547h1M23 548h1" />
<path stroke="rgba(7,72,81,0.9803921568627451)" d="M50 519h1M417 519h1M121 527h1M136 527h1M218 527h1M243 527h1M329 527h1M450 527h1M493 527h1M586 527h1M299 542h1M50 550h1M90 550h1M114 550h1M123 550h1M136 550h1M150 550h1M196 550h1M399 550h1M530 550h1M576 550h1" />
<path stroke="rgba(24,83,93,0.9607843137254902)" d="M56 519h1M58 519h1M75 525h1M82 525h1M121 525h1M136 525h1M199 525h1M213 525h1M222 525h1M228 525h1M233 525h1M248 525h1M254 525h1M268 525h1M285 525h1M290 525h1M311 525h1M329 525h1M360 525h1M368 525h1M375 525h1M392 525h1M450 525h1M475 525h1M493 525h1M516 525h1M548 525h1M554 525h1M586 525h1M634 525h1M650 525h1M668 525h1M112 527h1M239 527h1M454 527h1M484 527h1M577 527h1M630 527h1M659 527h1M50 548h1M73 548h1M80 548h1M123 548h1M160 548h1M209 548h1M228 548h1M233 548h1M239 548h1M246 548h1M269 548h1M282 548h1M299 548h1M344 548h1M350 548h1M379 548h1M399 548h1M412 548h1M433 548h1M453 548h1M469 548h1M490 548h1M495 548h1M505 548h1M545 548h1M563 548h1M569 548h1M576 548h1M54 550h1M110 550h1M154 550h1M278 550h1M556 550h1" />
<path stroke="rgba(65,118,128,0.9019607843137255)" d="M136 519h1M175 519h1M329 519h1M175 523h1M88 525h1M93 525h1M110 525h1M152 525h1M175 525h1M201 525h1M266 525h1M309 525h1M358 525h1M394 525h1M473 525h1M510 525h1M537 525h1M575 525h1M606 525h1M617 525h1M623 525h1M628 525h1M636 525h1M648 525h1M678 525h1M138 527h1M140 527h1M220 527h1M331 527h1M333 527h1M441 527h1M112 529h1M239 529h1M311 529h1M454 529h1M475 529h1M480 529h1M484 529h1M577 529h1M630 529h1M650 529h1M655 529h1M659 529h1M322 542h1M322 546h1M78 548h1M97 548h1M108 548h1M116 548h1M203 548h1M211 548h1M254 548h1M267 548h1M276 548h1M284 548h1M322 548h1M373 548h1M381 548h1M386 548h1M414 548h1M435 548h1M455 548h1M471 548h1M503 548h1M543 548h1M125 550h1M127 550h1M138 550h1M401 550h1M403 550h1M528 550h1M54 552h1M110 552h1M278 552h1M453 552h1M552 552h1M556 552h1" />
<path stroke="rgba(97,153,158,0.8392156862745098)" d="M142 519h1M335 519h1M417 521h1M73 523h1M84 523h1M86 523h1M95 523h1M123 523h1M138 523h1M180 523h1M186 523h1M191 523h1M211 523h1M218 523h1M226 523h1M235 523h1M283 523h1M292 523h1M296 523h1M301 523h1M331 523h1M366 523h1M377 523h1M381 523h1M437 523h1M452 523h1M465 523h1M495 523h1M514 523h1M588 523h1M634 523h1M670 523h1M73 525h1M84 525h1M123 525h1M182 525h1M184 525h1M193 525h1M211 525h1M226 525h1M235 525h1M283 525h1M292 525h1M294 525h1M303 525h1M366 525h1M377 525h1M379 525h1M386 525h1M452 525h1M514 525h1M588 525h1M670 525h1M125 527h1M311 527h1M437 527h1M475 527h1M590 527h1M608 527h1M650 527h1M80 529h1M123 529h1M220 529h1M228 529h1M285 529h1M309 529h1M373 529h1M381 529h1M409 529h1M411 529h1M473 529h1M495 529h1M588 529h1M606 529h1M648 529h1M156 536h1M523 536h1M525 536h1M52 546h1M65 546h1M71 546h1M82 546h1M114 546h1M125 546h1M136 546h1M158 546h1M165 546h1M183 546h1M226 546h1M235 546h1M237 546h1M248 546h1M282 546h1M311 546h1M316 546h1M327 546h1M357 546h1M401 546h1M422 546h1M488 546h1M497 546h1M530 546h1M537 546h1M578 546h1M52 548h1M71 548h1M82 548h1M158 548h1M183 548h1M226 548h1M235 548h1M237 548h1M248 548h1M309 548h1M318 548h1M329 548h1M420 548h1M427 548h1M488 548h1M497 548h1M537 548h1M578 548h1M86 550h1M192 550h1M256 550h1M453 550h1M580 550h1M65 552h1M84 552h1M138 552h1M140 552h1M190 552h1M244 552h1M254 552h1M357 552h1M422 552h1M455 552h1M526 552h1M528 552h1M539 552h1M578 552h1M101 559h1M390 559h1" />
<path stroke="rgba(75,129,138,0.8823529411764706)" d="M182 519h1M521 527h1M213 529h1M222 529h1M226 529h1M283 529h1M417 529h1M329 542h1M185 550h1M357 559h1" />
<path stroke="rgba(179,167,183,0.25098039215686274)" d="M822 520h1M822 521h1M822 522h1M822 523h1M22 524h1M822 524h1M22 525h1M822 525h1M22 526h1M822 526h1M22 527h1M822 527h1M22 528h1M822 528h1M22 529h1M822 529h1M22 530h1M822 530h1M22 531h1M822 531h1M22 532h1M822 532h1M22 533h1M822 533h1M22 534h1M822 534h1M22 535h1M822 535h1M22 536h1M822 536h1M22 537h1M822 537h1M22 538h1M822 538h1M22 539h1M822 539h1M22 540h1M822 540h1M22 541h1M822 541h1M22 542h1M822 542h1M22 543h1M822 543h1M22 544h1M822 544h1M22 545h1M822 545h1M22 546h1M822 546h1M22 547h1M822 547h1M22 548h1M822 548h1M22 549h1" />
<path stroke="rgba(52,106,114,0.9215686274509803)" d="M112 525h1M114 525h1M127 525h1M129 525h1M140 525h1M142 525h1M154 525h1M197 525h1M250 525h1M252 525h1M264 525h1M307 525h1M333 525h1M335 525h1M362 525h1M390 525h1M443 525h1M456 525h1M471 525h1M535 525h1M550 525h1M552 525h1M577 525h1M579 525h1M592 525h1M594 525h1M604 525h1M619 525h1M621 525h1M630 525h1M646 525h1M56 548h1M99 548h1M110 548h1M127 548h1M129 548h1M140 548h1M205 548h1M252 548h1M265 548h1M278 548h1M346 548h1M348 548h1M361 548h1M363 548h1M375 548h1M388 548h1M403 548h1M405 548h1M416 548h1M431 548h1M446 548h1M457 548h1M473 548h1M501 548h1M526 548h1M541 548h1M565 548h1M567 548h1" />
<path stroke="rgba(228,244,247,0.8549019607843137)" d="M780 525h5M796 525h5M780 526h5M796 526h5M778 527h2M785 527h2M794 527h2M778 528h2M785 528h2M794 528h2M778 529h2M787 529h2M792 529h2M778 530h2M787 530h2M792 530h2M778 531h2M789 531h3M780 532h2M789 532h3M780 533h2M782 534h2M782 535h2M784 536h2M784 537h2M784 538h2M782 539h2M782 540h2M780 541h2M780 542h2M778 543h2M778 544h2M778 545h2M778 546h2M778 547h2" />
<path stroke="#53587e" d="M780 527h5M796 527h5M780 528h5M796 528h5M780 529h7M794 529h7M780 530h7M794 530h7M780 531h9M792 531h9M782 532h7M792 532h7M782 533h17M784 534h13M784 535h13M786 536h9M786 537h9M786 538h9M784 539h13M784 540h13M782 541h17M782 542h7M792 542h7M780 543h9M792 543h9M780 544h7M794 544h7M780 545h7M794 545h7M780 546h5M796 546h5M780 547h5M796 547h5" />
</svg>