<svg xmlns="http://www.w3.org/2000/svg" viewBox="0 -0.5 851 600" shape-rendering="crispEdges">
<metadata>Made with Pixels to Svg https://codepen.io/shshaw/pen/XbxvNj</metadata>
<path stroke="#250d29" d="M0 0h851M0 1h851M0 2h851M0 3h851M0 4h851M0 5h851M0 6h851M0 7h851M0 8h851M0 9h851M0 10h851M0 11h851M0 12h851M0 13h851M0 14h851M0 15h851M0 16h851M0 17h851M0 18h851M0 19h851M0 20h851M0 21h851M0 22h851M0 23h851M0 24h851M0 25h851M0 26h851M0 27h851M0 28h851M0 29h851M0 30h851M0 31h851M0 32h851M0 33h851M0 34h851M0 35h851M0 36h851M0 37h851M0 38h851M0 39h851M0 40h851M0 41h851M0 42h851M0 43h851M0 44h851M0 45h851M0 46h851M0 47h851M0 48h851M0 49h851M0 50h851M0 51h851M0 52h851M0 53h851M0 54h851M0 55h851M0 56h851M0 57h851M0 58h851M0 59h851M0 60h851M0 61h851M0 62h851M0 63h851M0 64h851M0 65h851M0 66h851M0 67h851M0 68h851M0 69h851M0 70h851M0 71h851M0 72h851M0 73h851M0 74h851M0 75h851M0 76h851M0 77h851M0 78h851M0 79h851M0 80h851M0 81h851M0 82h851M0 83h851M0 84h851M0 85h851M0 86h851M0 87h851M0 88h851M0 89h851M0 90h851M0 91h851M0 92h851M0 93h851M0 94h851M0 95h851M0 96h851M0 97h851M0 98h851M0 99h851M0 100h851M0 101h851M0 102h851M0 103h851M0 104h851M0 105h851M0 106h851M0 107h851M0 108h851M0 109h851M0 110h851M0 111h851M0 112h851M0 113h851M0 114h851M0 115h851M0 116h851M0 117h851M0 118h851M0 119h851M0 120h851M0 121h851M0 122h851M0 123h851M0 124h851M0 125h851M0 126h851M0 127h851M0 128h851M0 129h851M0 130h851M0 131h851M0 132h851M0 133h3M5 133h3M10 133h3M15 133h3M20 133h3M25 133h3M30 133h3M35 133h3M40 133h3M45 133h3M50 133h3M55 133h3M60 133h3M65 133h3M70 133h3M75 133h3M80 133h3M85 133h3M90 133h3M95 133h3M100 133h3M105 133h3M110 133h3M115 133h3M120 133h3M125 133h3M130 133h3M135 133h3M140 133h3M145 133h3M150 133h3M155 133h3M160 133h3M165 133h3M170 133h3M175 133h3M180 133h3M185 133h3M190 133h3M195 133h3M200 133h3M205 133h3M210 133h3M215 133h3M220 133h3M225 133h3M230 133h3M235 133h3M240 133h3M245 133h3M250 133h3M255 133h3M260 133h3M265 133h3M270 133h3M275 133h3M280 133h3M285 133h3M290 133h3M295 133h3M300 133h3M305 133h3M310 133h3M315 133h3M320 133h3M325 133h3M330 133h3M335 133h3M340 133h3M345 133h3M350 133h3M355 133h3M360 133h3M365 133h3M370 133h3M375 133h3M380 133h3M385 133h3M390 133h3M395 133h3M400 133h3M405 133h3M410 133h3M415 133h3M420 133h3M425 133h3M430 133h3M435 133h3M440 133h3M445 133h3M450 133h3M455 133h3M460 133h3M465 133h3M470 133h3M475 133h3M480 133h3M485 133h3M490 133h3M495 133h3M500 133h3M505 133h3M510 133h3M515 133h3M520 133h3M525 133h3M530 133h3M535 133h3M540 133h3M545 133h3M550 133h3M555 133h3M560 133h3M565 133h3M570 133h3M575 133h3M580 133h3M585 133h3M590 133h3M595 133h3M600 133h3M605 133h3M610 133h3M615 133h3M620 133h3M625 133h3M630 133h3M635 133h3M640 133h3M645 133h3M650 133h3M655 133h3M660 133h3M665 133h3M670 133h3M675 133h3M680 133h3M685 133h3M690 133h3M695 133h3M700 133h3M705 133h3M710 133h3M715 133h3M720 133h3M725 133h3M730 133h3M735 133h3M740 133h3M745 133h3M750 133h3M755 133h3M760 133h3M765 133h3M770 133h3M775 133h3M780 133h3M785 133h3M790 133h3M795 133h3M800 133h3M805 133h3M810 133h3M815 133h3M820 133h3M825 133h3M830 133h3M835 133h3M840 133h3M845 133h3M850 133h1M1 134h1M3 134h2M6 134h1M8 134h2M11 134h1M13 134h2M16 134h1M18 134h2M21 134h1M23 134h2M26 134h1M28 134h2M31 134h1M33 134h2M36 134h1M38 134h2M41 134h1M43 134h2M46 134h1M48 134h2M51 134h1M53 134h2M56 134h1M58 134h2M61 134h1M63 134h2M66 134h1M68 134h2M71 134h1M73 134h2M76 134h1M78 134h2M81 134h1M83 134h2M86 134h1M88 134h2M91 134h1M93 134h2M96 134h1M98 134h2M101 134h1M103 134h2M106 134h1M108 134h2M111 134h1M113 134h2M116 134h1M118 134h2M121 134h1M123 134h2M126 134h1M128 134h2M131 134h1M133 134h2M136 134h1M138 134h2M141 134h1M143 134h2M146 134h1M148 134h2M151 134h1M153 134h2M156 134h1M158 134h2M161 134h1M163 134h2M166 134h1M168 134h2M171 134h1M173 134h2M176 134h1M178 134h2M181 134h1M183 134h2M186 134h1M188 134h2M191 134h1M193 134h2M196 134h1M198 134h2M201 134h1M203 134h2M206 134h1M208 134h2M211 134h1M213 134h2M216 134h1M218 134h2M221 134h1M223 134h2M226 134h1M228 134h2M231 134h1M233 134h2M236 134h1M238 134h2M241 134h1M243 134h2M246 134h1M248 134h2M251 134h1M253 134h2M256 134h1M258 134h2M261 134h1M263 134h2M266 134h1M268 134h2M271 134h1M273 134h2M276 134h1M278 134h2M281 134h1M283 134h2M286 134h1M288 134h2M291 134h1M293 134h2M296 134h1M298 134h2M301 134h1M303 134h2M306 134h1M308 134h2M311 134h1M313 134h2M316 134h1M318 134h2M321 134h1M323 134h2M326 134h1M328 134h2M331 134h1M333 134h2M336 134h1M338 134h2M341 134h1M343 134h2M346 134h1M348 134h2M351 134h1M353 134h2M356 134h1M358 134h2M361 134h1M363 134h2M366 134h1M368 134h2M371 134h1M373 134h2M376 134h1M378 134h2M381 134h1M383 134h2M386 134h1M388 134h2M391 134h1M393 134h2M396 134h1M398 134h2M401 134h1M403 134h2M406 134h1M408 134h2M411 134h1M413 134h2M416 134h1M418 134h2M421 134h1M423 134h2M426 134h1M428 134h2M431 134h1M433 134h2M436 134h1M438 134h2M441 134h1M443 134h2M446 134h1M448 134h2M451 134h1M453 134h2M456 134h1M458 134h2M461 134h1M463 134h2M466 134h1M468 134h2M471 134h1M473 134h2M476 134h1M478 134h2M481 134h1M483 134h2M486 134h1M488 134h2M491 134h1M493 134h2M496 134h1M498 134h2M501 134h1M503 134h2M506 134h1M508 134h2M511 134h1M513 134h2M516 134h1M518 134h2M521 134h1M523 134h2M526 134h1M528 134h2M531 134h1M533 134h2M536 134h1M538 134h2M541 134h1M543 134h2M546 134h1M548 134h2M551 134h1M553 134h2M556 134h1M558 134h2M561 134h1M563 134h2M566 134h1M568 134h2M571 134h1M573 134h2M576 134h1M578 134h2M581 134h1M583 134h2M586 134h1M588 134h2M591 134h1M593 134h2M596 134h1M598 134h2M601 134h1M603 134h2M606 134h1M608 134h2M611 134h1M613 134h2M616 134h1M618 134h2M621 134h1M623 134h2M626 134h1M628 134h2M631 134h1M633 134h2M636 134h1M638 134h2M641 134h1M643 134h2M646 134h1M648 134h2M651 134h1M653 134h2M656 134h1M658 134h2M661 134h1M663 134h2M666 134h1M668 134h2M671 134h1M673 134h2M676 134h1M678 134h2M681 134h1M683 134h2M686 134h1M688 134h2M691 134h1M693 134h2M696 134h1M698 134h2M701 134h1M703 134h2M706 134h1M708 134h2M711 134h1M713 134h2M716 134h1M718 134h2M721 134h1M723 134h2M726 134h1M728 134h2M731 134h1M733 134h2M736 134h1M738 134h2M741 134h1M743 134h2M746 134h1M748 134h2M751 134h1M753 134h2M756 134h1M758 134h2M761 134h1M763 134h2M766 134h1M768 134h2M771 134h1M773 134h2M776 134h1M778 134h2M781 134h1M783 134h2M786 134h1M788 134h2M791 134h1M793 134h2M796 134h1M798 134h2M801 134h1M803 134h2M806 134h1M808 134h2M811 134h1M813 134h2M816 134h1M818 134h2M821 134h1M823 134h2M826 134h1M828 134h2M831 134h1M833 134h2M836 134h1M838 134h2M841 134h1M843 134h2M846 134h1M848 134h2M0 135h1M2 135h4M7 135h4M12 135h4M17 135h4M22 135h4M27 135h4M32 135h4M37 135h4M42 135h4M47 135h4M52 135h4M57 135h4M62 135h4M67 135h4M72 135h4M77 135h4M82 135h4M87 135h4M92 135h4M97 135h4M102 135h4M107 135h4M112 135h4M117 135h4M122 135h4M127 135h4M132 135h4M137 135h4M142 135h4M147 135h4M152 135h4M157 135h4M162 135h4M167 135h4M172 135h4M177 135h4M182 135h4M187 135h4M192 135h4M197 135h4M202 135h4M207 135h4M212 135h4M217 135h4M222 135h4M227 135h4M232 135h4M237 135h4M242 135h4M247 135h4M252 135h4M257 135h4M262 135h4M267 135h4M272 135h4M277 135h4M282 135h4M287 135h4M292 135h4M297 135h4M302 135h4M307 135h4M312 135h4M317 135h4M322 135h4M327 135h4M332 135h4M337 135h4M342 135h4M347 135h4M352 135h4M357 135h4M362 135h4M367 135h4M372 135h4M377 135h4M382 135h4M387 135h4M392 135h4M397 135h4M402 135h4M407 135h4M412 135h4M417 135h4M422 135h4M427 135h4M432 135h4M437 135h4M442 135h4M447 135h4M452 135h4M457 135h4M462 135h4M467 135h4M472 135h4M477 135h4M482 135h4M487 135h4M492 135h4M497 135h4M502 135h4M507 135h4M512 135h4M517 135h4M522 135h4M527 135h4M532 135h4M537 135h4M542 135h4M547 135h4M552 135h4M557 135h4M562 135h4M567 135h4M572 135h4M577 135h4M582 135h4M587 135h4M592 135h4M597 135h4M602 135h4M607 135h4M612 135h4M617 135h4M622 135h4M627 135h4M632 135h4M637 135h4M642 135h4M647 135h4M652 135h4M657 135h4M662 135h4M667 135h4M672 135h4M677 135h4M682 135h4M687 135h4M692 135h4M697 135h4M702 135h4M707 135h4M712 135h4M717 135h4M722 135h4M727 135h4M732 135h4M737 135h4M742 135h4M747 135h4M752 135h4M757 135h4M762 135h4M767 135h4M772 135h4M777 135h4M782 135h4M787 135h4M792 135h4M797 135h4M802 135h4M807 135h4M812 135h4M817 135h4M822 135h4M827 135h4M832 135h4M837 135h4M842 135h4M847 135h4M1 136h1M3 136h2M6 136h1M8 136h2M11 136h1M13 136h2M16 136h1M18 136h2M21 136h1M23 136h2M26 136h1M28 136h2M31 136h1M33 136h2M36 136h1M38 136h2M41 136h1M43 136h2M46 136h1M48 136h2M51 136h1M53 136h2M56 136h1M58 136h2M61 136h1M63 136h2M66 136h1M68 136h2M71 136h1M73 136h2M76 136h1M78 136h2M81 136h1M83 136h2M86 136h1M88 136h2M91 136h1M93 136h2M96 136h1M98 136h2M101 136h1M103 136h2M106 136h1M108 136h2M111 136h1M113 136h2M116 136h1M118 136h2M121 136h1M123 136h2M126 136h1M128 136h2M131 136h1M133 136h2M136 136h1M138 136h2M141 136h1M143 136h2M146 136h1M148 136h2M151 136h1M153 136h2M156 136h1M158 136h2M161 136h1M163 136h2M166 136h1M168 136h2M171 136h1M173 136h2M176 136h1M178 136h2M181 136h1M183 136h2M186 136h1M188 136h2M191 136h1M193 136h2M196 136h1M198 136h2M201 136h1M203 136h2M206 136h1M208 136h2M211 136h1M213 136h2M216 136h1M218 136h2M221 136h1M223 136h2M226 136h1M228 136h2M231 136h1M233 136h2M236 136h1M238 136h2M241 136h1M243 136h2M246 136h1M248 136h2M251 136h1M253 136h2M256 136h1M258 136h2M261 136h1M263 136h2M266 136h1M268 136h2M271 136h1M273 136h2M276 136h1M278 136h2M281 136h1M283 136h2M286 136h1M288 136h2M291 136h1M293 136h2M296 136h1M298 136h2M301 136h1M303 136h2M306 136h1M308 136h2M311 136h1M313 136h2M316 136h1M318 136h2M321 136h1M323 136h2M326 136h1M328 136h2M331 136h1M333 136h2M336 136h1M338 136h2M341 136h1M343 136h2M346 136h1M348 136h2M351 136h1M353 136h2M356 136h1M358 136h2M361 136h1M363 136h2M366 136h1M368 136h2M371 136h1M373 136h2M376 136h1M378 136h2M381 136h1M383 136h2M386 136h1M388 136h2M391 136h1M393 136h2M396 136h1M398 136h2M401 136h1M403 136h2M406 136h1M408 136h2M411 136h1M413 136h2M416 136h1M418 136h2M421 136h1M423 136h2M426 136h1M428 136h2M431 136h1M433 136h2M436 136h1M438 136h2M441 136h1M443 136h2M446 136h1M448 136h2M451 136h1M453 136h2M456 136h1M458 136h2M461 136h1M463 136h2M466 136h1M468 136h2M471 136h1M473 136h2M476 136h1M478 136h2M481 136h1M483 136h2M486 136h1M488 136h2M491 136h1M493 136h2M496 136h1M498 136h2M501 136h1M503 136h2M506 136h1M508 136h2M511 136h1M513 136h2M516 136h1M518 136h2M521 136h1M523 136h2M526 136h1M528 136h2M531 136h1M533 136h2M536 136h1M538 136h2M541 136h1M543 136h2M546 136h1M548 136h2M551 136h1M553 136h2M556 136h1M558 136h2M561 136h1M563 136h2M566 136h1M568 136h2M571 136h1M573 136h2M576 136h1M578 136h2M581 136h1M583 136h2M586 136h1M588 136h2M591 136h1M593 136h2M596 136h1M598 136h2M601 136h1M603 136h2M606 136h1M608 136h2M611 136h1M613 136h2M616 136h1M618 136h2M621 136h1M623 136h2M626 136h1M628 136h2M631 136h1M633 136h2M636 136h1M638 136h2M641 136h1M643 136h2M646 136h1M648 136h2M651 136h1M653 136h2M656 136h1M658 136h2M661 136h1M663 136h2M666 136h1M668 136h2M671 136h1M673 136h2M676 136h1M678 136h2M681 136h1M683 136h2M686 136h1M688 136h2M691 136h1M693 136h2M696 136h1M698 136h2M701 136h1M703 136h2M706 136h1M708 136h2M711 136h1M713 136h2M716 136h1M718 136h2M721 136h1M723 136h2M726 136h1M728 136h2M731 136h1M733 136h2M736 136h1M738 136h2M741 136h1M743 136h2M746 136h1M748 136h2M751 136h1M753 136h2M756 136h1M758 136h2M761 136h1M763 136h2M766 136h1M768 136h2M771 136h1M773 136h2M776 136h1M778 136h2M781 136h1M783 136h2M786 136h1M788 136h2M791 136h1M793 136h2M796 136h1M798 136h2M801 136h1M803 136h2M806 136h1M808 136h2M811 136h1M813 136h2M816 136h1M818 136h2M821 136h1M823 136h2M826 136h1M828 136h2M831 136h1M833 136h2M836 136h1M838 136h2M841 136h1M843 136h2M846 136h1M848 136h2M0 137h3M5 137h3M10 137h3M15 137h3M20 137h3M25 137h3M30 137h3M35 137h3M40 137h3M45 137h3M50 137h3M55 137h3M60 137h3M65 137h3M70 137h3M75 137h3M80 137h3M85 137h3M90 137h3M95 137h3M100 137h3M105 137h3M110 137h3M115 137h3M120 137h3M125 137h3M130 137h3M135 137h3M140 137h3M145 137h3M150 137h3M155 137h3M160 137h3M165 137h3M170 137h3M175 137h3M180 137h3M185 137h3M190 137h3M195 137h3M200 137h3M205 137h3M210 137h3M215 137h3M220 137h3M225 137h3M230 137h3M235 137h3M240 137h3M245 137h3M250 137h3M255 137h3M260 137h3M265 137h3M270 137h3M275 137h3M280 137h3M285 137h3M290 137h3M295 137h3M300 137h3M305 137h3M310 137h3M315 137h3M320 137h3M325 137h3M330 137h3M335 137h3M340 137h3M345 137h3M350 137h3M355 137h3M360 137h3M365 137h3M370 137h3M375 137h3M380 137h3M385 137h3M390 137h3M395 137h3M400 137h3M405 137h3M410 137h3M415 137h3M420 137h3M425 137h3M430 137h3M435 137h3M440 137h3M445 137h3M450 137h3M455 137h3M460 137h3M465 137h3M470 137h3M475 137h3M480 137h3M485 137h3M490 137h3M495 137h3M500 137h3M505 137h3M510 137h3M515 137h3M520 137h3M525 137h3M530 137h3M535 137h3M540 137h3M545 137h3M550 137h3M555 137h3M560 137h3M565 137h3M570 137h3M575 137h3M580 137h3M585 137h3M590 137h3M595 137h3M600 137h3M605 137h3M610 137h3M615 137h3M620 137h3M625 137h3M630 137h3M635 137h3M640 137h3M645 137h3M650 137h3M655 137h3M660 137h3M665 137h3M670 137h3M675 137h3M680 137h3M685 137h3M690 137h3M695 137h3M700 137h3M705 137h3M710 137h3M715 137h3M720 137h3M725 137h3M730 137h3M735 137h3M740 137h3M745 137h3M750 137h3M755 137h3M760 137h3M765 137h3M770 137h3M775 137h3M780 137h3M785 137h3M790 137h3M795 137h3M800 137h3M805 137h3M810 137h3M815 137h3M820 137h3M825 137h3M830 137h3M835 137h3M840 137h3M845 137h3M850 137h1M0 138h1M2 138h4M7 138h4M12 138h4M17 138h4M22 138h4M27 138h4M32 138h4M37 138h4M42 138h4M47 138h4M52 138h4M57 138h4M62 138h4M67 138h4M72 138h4M77 138h4M82 138h4M87 138h4M92 138h4M97 138h4M102 138h4M107 138h4M112 138h4M117 138h4M122 138h4M127 138h4M132 138h4M137 138h4M142 138h4M147 138h4M152 138h4M157 138h4M162 138h4M167 138h4M172 138h4M177 138h4M182 138h4M187 138h4M192 138h4M197 138h4M202 138h4M207 138h4M212 138h4M217 138h4M222 138h4M227 138h4M232 138h4M237 138h4M242 138h4M247 138h4M252 138h4M257 138h4M262 138h4M267 138h4M272 138h4M277 138h4M282 138h4M287 138h4M292 138h4M297 138h4M302 138h4M307 138h4M312 138h4M317 138h4M322 138h4M327 138h4M332 138h4M337 138h4M342 138h4M347 138h4M352 138h4M357 138h4M362 138h4M367 138h4M372 138h4M377 138h4M382 138h4M387 138h4M392 138h4M397 138h4M402 138h4M407 138h4M412 138h4M417 138h4M422 138h4M427 138h4M432 138h4M437 138h4M442 138h4M447 138h4M452 138h4M457 138h4M462 138h4M467 138h4M472 138h4M477 138h4M482 138h4M487 138h4M492 138h4M497 138h4M502 138h4M507 138h4M512 138h4M517 138h4M522 138h4M527 138h4M532 138h4M537 138h4M542 138h4M547 138h4M552 138h4M557 138h4M562 138h4M567 138h4M572 138h4M577 138h4M582 138h4M587 138h4M592 138h4M597 138h4M602 138h4M607 138h4M612 138h4M617 138h4M622 138h4M627 138h4M632 138h4M637 138h4M642 138h4M647 138h4M652 138h4M657 138h4M662 138h4M667 138h4M672 138h4M677 138h4M682 138h4M687 138h4M692 138h4M697 138h4M702 138h4M707 138h4M712 138h4M717 138h4M722 138h4M727 138h4M732 138h4M737 138h4M742 138h4M747 138h4M752 138h4M757 138h4M762 138h4M767 138h4M772 138h4M777 138h4M782 138h4M787 138h4M792 138h4M797 138h4M802 138h4M807 138h4M812 138h4M817 138h4M822 138h4M827 138h4M832 138h4M837 138h4M842 138h4M847 138h4M3 139h2M8 139h2M13 139h2M18 139h2M23 139h2M28 139h2M33 139h2M38 139h2M43 139h2M48 139h2M53 139h2M58 139h2M63 139h2M68 139h2M73 139h2M78 139h2M83 139h2M88 139h2M93 139h2M98 139h2M103 139h2M108 139h2M113 139h2M118 139h2M123 139h2M128 139h2M133 139h2M138 139h2M143 139h2M148 139h2M153 139h2M158 139h2M163 139h2M168 139h2M173 139h2M178 139h2M183 139h2M188 139h2M193 139h2M198 139h2M203 139h2M208 139h2M213 139h2M218 139h2M223 139h2M228 139h2M233 139h2M238 139h2M243 139h2M248 139h2M253 139h2M258 139h2M263 139h2M268 139h2M273 139h2M278 139h2M283 139h2M288 139h2M293 139h2M298 139h2M303 139h2M308 139h2M313 139h2M318 139h2M323 139h2M328 139h2M333 139h2M338 139h2M343 139h2M348 139h2M353 139h2M358 139h2M363 139h2M368 139h2M373 139h2M378 139h2M383 139h2M388 139h2M393 139h2M398 139h2M403 139h2M408 139h2M413 139h2M418 139h2M423 139h2M428 139h2M433 139h2M438 139h2M443 139h2M448 139h2M453 139h2M458 139h2M463 139h2M468 139h2M473 139h2M478 139h2M483 139h2M488 139h2M493 139h2M498 139h2M503 139h2M508 139h2M513 139h2M518 139h2M523 139h2M528 139h2M533 139h2M538 139h2M543 139h2M548 139h2M553 139h2M558 139h2M563 139h2M568 139h2M573 139h2M578 139h2M583 139h2M588 139h2M593 139h2M598 139h2M603 139h2M608 139h2M613 139h2M618 139h2M623 139h2M628 139h2M633 139h2M638 139h2M643 139h2M648 139h2M653 139h2M658 139h2M663 139h2M668 139h2M673 139h2M678 139h2M683 139h2M688 139h2M693 139h2M698 139h2M703 139h2M708 139h2M713 139h2M718 139h2M723 139h2M728 139h2M733 139h2M738 139h2M743 139h2M748 139h2M753 139h2M758 139h2M763 139h2M768 139h2M773 139h2M778 139h2M783 139h2M788 139h2M793 139h2M798 139h2M803 139h2M808 139h2M813 139h2M818 139h2M823 139h2M828 139h2M833 139h2M838 139h2M843 139h2M848 139h2M0 140h851M0 141h851M0 142h851M0 143h851M0 144h851M0 145h851M0 146h851M0 147h851M0 148h851M0 149h851M0 150h851M0 151h851M0 152h851M0 153h851M0 154h851M0 155h851M0 156h851M0 157h851M0 158h851M0 159h851M0 160h851M0 161h851M0 162h851M0 163h851M0 164h851M0 165h851M0 178h851M0 179h851M0 180h851M0 181h851M0 182h851M0 183h851M0 187h3M5 187h3M10 187h3M15 187h3M20 187h3M25 187h3M30 187h3M35 187h3M40 187h3M45 187h3M50 187h3M55 187h3M60 187h3M65 187h3M70 187h3M75 187h3M80 187h3M85 187h3M90 187h3M95 187h3M100 187h3M105 187h3M110 187h3M115 187h3M120 187h3M125 187h3M130 187h3M135 187h3M140 187h3M145 187h3M150 187h3M155 187h3M160 187h3M165 187h3M170 187h3M175 187h3M180 187h3M185 187h3M190 187h3M195 187h3M200 187h3M205 187h3M210 187h3M215 187h3M220 187h3M225 187h3M230 187h3M235 187h3M240 187h3M245 187h3M250 187h3M255 187h3M260 187h3M265 187h3M270 187h3M275 187h3M280 187h3M285 187h3M290 187h3M295 187h3M300 187h3M305 187h3M310 187h3M315 187h3M320 187h3M325 187h3M330 187h3M335 187h3M340 187h3M345 187h3M350 187h3M355 187h3M360 187h3M365 187h3M370 187h3M375 187h3M380 187h3M385 187h3M390 187h3M395 187h3M400 187h3M405 187h3M410 187h3M415 187h3M420 187h3M425 187h3M430 187h3M435 187h3M440 187h3M445 187h3M450 187h3M455 187h3M460 187h3M465 187h3M470 187h3M475 187h3M480 187h3M485 187h3M490 187h3M495 187h3M500 187h3M505 187h3M510 187h3M515 187h3M520 187h3M525 187h3M530 187h3M535 187h3M540 187h3M545 187h3M550 187h3M555 187h3M560 187h3M565 187h3M570 187h3M575 187h3M580 187h3M585 187h3M590 187h3M595 187h3M600 187h3M605 187h3M610 187h3M615 187h3M620 187h3M625 187h3M630 187h3M635 187h3M640 187h3M645 187h3M650 187h3M655 187h3M660 187h3M665 187h3M670 187h3M675 187h3M680 187h3M685 187h3M690 187h3M695 187h3M700 187h3M705 187h3M710 187h3M715 187h3M720 187h3M725 187h3M730 187h3M735 187h3M740 187h3M745 187h3M750 187h3M755 187h3M760 187h3M765 187h3M770 187h3M775 187h3M780 187h3M785 187h3M790 187h3M795 187h3M800 187h3M805 187h3M810 187h3M815 187h3M820 187h3M825 187h3M830 187h3M835 187h3M840 187h3M845 187h3M850 187h1M1 188h1M3 188h2M6 188h1M8 188h2M11 188h1M13 188h2M16 188h1M18 188h2M21 188h1M23 188h2M26 188h1M28 188h2M31 188h1M33 188h2M36 188h1M38 188h2M41 188h1M43 188h2M46 188h1M48 188h2M51 188h1M53 188h2M56 188h1M58 188h2M61 188h1M63 188h2M66 188h1M68 188h2M71 188h1M73 188h2M76 188h1M78 188h2M81 188h1M83 188h2M86 188h1M88 188h2M91 188h1M93 188h2M96 188h1M98 188h2M101 188h1M103 188h2M106 188h1M108 188h2M111 188h1M113 188h2M116 188h1M118 188h2M121 188h1M123 188h2M126 188h1M128 188h2M131 188h1M133 188h2M136 188h1M138 188h2M141 188h1M143 188h2M146 188h1M148 188h2M151 188h1M153 188h2M156 188h1M158 188h2M161 188h1M163 188h2M166 188h1M168 188h2M171 188h1M173 188h2M176 188h1M178 188h2M181 188h1M183 188h2M186 188h1M188 188h2M191 188h1M193 188h2M196 188h1M198 188h2M201 188h1M203 188h2M206 188h1M208 188h2M211 188h1M213 188h2M216 188h1M218 188h2M221 188h1M223 188h2M226 188h1M228 188h2M231 188h1M233 188h2M236 188h1M238 188h2M241 188h1M243 188h2M246 188h1M248 188h2M251 188h1M253 188h2M256 188h1M258 188h2M261 188h1M263 188h2M266 188h1M268 188h2M271 188h1M273 188h2M276 188h1M278 188h2M281 188h1M283 188h2M286 188h1M288 188h2M291 188h1M293 188h2M296 188h1M298 188h2M301 188h1M303 188h2M306 188h1M308 188h2M311 188h1M313 188h2M316 188h1M318 188h2M321 188h1M323 188h2M326 188h1M328 188h2M331 188h1M333 188h2M336 188h1M338 188h2M341 188h1M343 188h2M346 188h1M348 188h2M351 188h1M353 188h2M356 188h1M358 188h2M361 188h1M363 188h2M366 188h1M368 188h2M371 188h1M373 188h2M376 188h1M378 188h2M381 188h1M383 188h2M386 188h1M388 188h2M391 188h1M393 188h2M396 188h1M398 188h2M401 188h1M403 188h2M406 188h1M408 188h2M411 188h1M413 188h2M416 188h1M418 188h2M421 188h1M423 188h2M426 188h1M428 188h2M431 188h1M433 188h2M436 188h1M438 188h2M441 188h1M443 188h2M446 188h1M448 188h2M451 188h1M453 188h2M456 188h1M458 188h2M461 188h1M463 188h2M466 188h1M468 188h2M471 188h1M473 188h2M476 188h1M478 188h2M481 188h1M483 188h2M486 188h1M488 188h2M491 188h1M493 188h2M496 188h1M498 188h2M501 188h1M503 188h2M506 188h1M508 188h2M511 188h1M513 188h2M516 188h1M518 188h2M521 188h1M523 188h2M526 188h1M528 188h2M531 188h1M533 188h2M536 188h1M538 188h2M541 188h1M543 188h2M546 188h1M548 188h2M551 188h1M553 188h2M556 188h1M558 188h2M561 188h1M563 188h2M566 188h1M568 188h2M571 188h1M573 188h2M576 188h1M578 188h2M581 188h1M583 188h2M586 188h1M588 188h2M591 188h1M593 188h2M596 188h1M598 188h2M601 188h1M603 188h2M606 188h1M608 188h2M611 188h1M613 188h2M616 188h1M618 188h2M621 188h1M623 188h2M626 188h1M628 188h2M631 188h1M633 188h2M636 188h1M638 188h2M641 188h1M643 188h2M646 188h1M648 188h2M651 188h1M653 188h2M656 188h1M658 188h2M661 188h1M663 188h2M666 188h1M668 188h2M671 188h1M673 188h2M676 188h1M678 188h2M681 188h1M683 188h2M686 188h1M688 188h2M691 188h1M693 188h2M696 188h1M698 188h2M701 188h1M703 188h2M706 188h1M708 188h2M711 188h1M713 188h2M716 188h1M718 188h2M721 188h1M723 188h2M726 188h1M728 188h2M731 188h1M733 188h2M736 188h1M738 188h2M741 188h1M743 188h2M746 188h1M748 188h2M751 188h1M753 188h2M756 188h1M758 188h2M761 188h1M763 188h2M766 188h1M768 188h2M771 188h1M773 188h2M776 188h1M778 188h2M781 188h1M783 188h2M786 188h1M788 188h2M791 188h1M793 188h2M796 188h1M798 188h2M801 188h1M803 188h2M806 188h1M808 188h2M811 188h1M813 188h2M816 188h1M818 188h2M821 188h1M823 188h2M826 188h1M828 188h2M831 188h1M833 188h2M836 188h1M838 188h2M841 188h1M843 188h2M846 188h1M848 188h2M0 189h1M2 189h4M7 189h4M12 189h4M17 189h4M22 189h4M27 189h4M32 189h4M37 189h4M42 189h4M47 189h4M52 189h4M57 189h4M62 189h4M67 189h4M72 189h4M77 189h4M82 189h4M87 189h4M92 189h4M97 189h4M102 189h4M107 189h4M112 189h4M117 189h4M122 189h4M127 189h4M132 189h4M137 189h4M142 189h4M147 189h4M152 189h4M157 189h4M162 189h4M167 189h4M172 189h4M177 189h4M182 189h4M187 189h4M192 189h4M197 189h4M202 189h4M207 189h4M212 189h4M217 189h4M222 189h4M227 189h4M232 189h4M237 189h4M242 189h4M247 189h4M252 189h4M257 189h4M262 189h4M267 189h4M272 189h4M277 189h4M282 189h4M287 189h4M292 189h4M297 189h4M302 189h4M307 189h4M312 189h4M317 189h4M322 189h4M327 189h4M332 189h4M337 189h4M342 189h4M347 189h4M352 189h4M357 189h4M362 189h4M367 189h4M372 189h4M377 189h4M382 189h4M387 189h4M392 189h4M397 189h4M402 189h4M407 189h4M412 189h4M417 189h4M422 189h4M427 189h4M432 189h4M437 189h4M442 189h4M447 189h4M452 189h4M457 189h4M462 189h4M467 189h4M472 189h4M477 189h4M482 189h4M487 189h4M492 189h4M497 189h4M502 189h4M507 189h4M512 189h4M517 189h4M522 189h4M527 189h4M532 189h4M537 189h4M542 189h4M547 189h4M552 189h4M557 189h4M562 189h4M567 189h4M572 189h4M577 189h4M582 189h4M587 189h4M592 189h4M597 189h4M602 189h4M607 189h4M612 189h4M617 189h4M622 189h4M627 189h4M632 189h4M637 189h4M642 189h4M647 189h4M652 189h4M657 189h4M662 189h4M667 189h4M672 189h4M677 189h4M682 189h4M687 189h4M692 189h4M697 189h4M702 189h4M707 189h4M712 189h4M717 189h4M722 189h4M727 189h4M732 189h4M737 189h4M742 189h4M747 189h4M752 189h4M757 189h4M762 189h4M767 189h4M772 189h4M777 189h4M782 189h4M787 189h4M792 189h4M797 189h4M802 189h4M807 189h4M812 189h4M817 189h4M822 189h4M827 189h4M832 189h4M837 189h4M842 189h4M847 189h4M1 190h1M3 190h2M6 190h1M8 190h2M11 190h1M13 190h2M16 190h1M18 190h2M21 190h1M23 190h2M26 190h1M28 190h2M31 190h1M33 190h2M36 190h1M38 190h2M41 190h1M43 190h2M46 190h1M48 190h2M51 190h1M53 190h2M56 190h1M58 190h2M61 190h1M63 190h2M66 190h1M68 190h2M71 190h1M73 190h2M76 190h1M78 190h2M81 190h1M83 190h2M86 190h1M88 190h2M91 190h1M93 190h2M96 190h1M98 190h2M101 190h1M103 190h2M106 190h1M108 190h2M111 190h1M113 190h2M116 190h1M118 190h2M121 190h1M123 190h2M126 190h1M128 190h2M131 190h1M133 190h2M136 190h1M138 190h2M141 190h1M143 190h2M146 190h1M148 190h2M151 190h1M153 190h2M156 190h1M158 190h2M161 190h1M163 190h2M166 190h1M168 190h2M171 190h1M173 190h2M176 190h1M178 190h2M181 190h1M183 190h2M186 190h1M188 190h2M191 190h1M193 190h2M196 190h1M198 190h2M201 190h1M203 190h2M206 190h1M208 190h2M211 190h1M213 190h2M216 190h1M218 190h2M221 190h1M223 190h2M226 190h1M228 190h2M231 190h1M233 190h2M236 190h1M238 190h2M241 190h1M243 190h2M246 190h1M248 190h2M251 190h1M253 190h2M256 190h1M258 190h2M261 190h1M263 190h2M266 190h1M268 190h2M271 190h1M273 190h2M276 190h1M278 190h2M281 190h1M283 190h2M286 190h1M288 190h2M291 190h1M293 190h2M296 190h1M298 190h2M301 190h1M303 190h2M306 190h1M308 190h2M311 190h1M313 190h2M316 190h1M318 190h2M321 190h1M323 190h2M326 190h1M328 190h2M331 190h1M333 190h2M336 190h1M338 190h2M341 190h1M343 190h2M346 190h1M348 190h2M351 190h1M353 190h2M356 190h1M358 190h2M361 190h1M363 190h2M366 190h1M368 190h2M371 190h1M373 190h2M376 190h1M378 190h2M381 190h1M383 190h2M386 190h1M388 190h2M391 190h1M393 190h2M396 190h1M398 190h2M401 190h1M403 190h2M406 190h1M408 190h2M411 190h1M413 190h2M416 190h1M418 190h2M421 190h1M423 190h2M426 190h1M428 190h2M431 190h1M433 190h2M436 190h1M438 190h2M441 190h1M443 190h2M446 190h1M448 190h2M451 190h1M453 190h2M456 190h1M458 190h2M461 190h1M463 190h2M466 190h1M468 190h2M471 190h1M473 190h2M476 190h1M478 190h2M481 190h1M483 190h2M486 190h1M488 190h2M491 190h1M493 190h2M496 190h1M498 190h2M501 190h1M503 190h2M506 190h1M508 190h2M511 190h1M513 190h2M516 190h1M518 190h2M521 190h1M523 190h2M526 190h1M528 190h2M531 190h1M533 190h2M536 190h1M538 190h2M541 190h1M543 190h2M546 190h1M548 190h2M551 190h1M553 190h2M556 190h1M558 190h2M561 190h1M563 190h2M566 190h1M568 190h2M571 190h1M573 190h2M576 190h1M578 190h2M581 190h1M583 190h2M586 190h1M588 190h2M591 190h1M593 190h2M596 190h1M598 190h2M601 190h1M603 190h2M606 190h1M608 190h2M611 190h1M613 190h2M616 190h1M618 190h2M621 190h1M623 190h2M626 190h1M628 190h2M631 190h1M633 190h2M636 190h1M638 190h2M641 190h1M643 190h2M646 190h1M648 190h2M651 190h1M653 190h2M656 190h1M658 190h2M661 190h1M663 190h2M666 190h1M668 190h2M671 190h1M673 190h2M676 190h1M678 190h2M681 190h1M683 190h2M686 190h1M688 190h2M691 190h1M693 190h2M696 190h1M698 190h2M701 190h1M703 190h2M706 190h1M708 190h2M711 190h1M713 190h2M716 190h1M718 190h2M721 190h1M723 190h2M726 190h1M728 190h2M731 190h1M733 190h2M736 190h1M738 190h2M741 190h1M743 190h2M746 190h1M748 190h2M751 190h1M753 190h2M756 190h1M758 190h2M761 190h1M763 190h2M766 190h1M768 190h2M771 190h1M773 190h2M776 190h1M778 190h2M781 190h1M783 190h2M786 190h1M788 190h2M791 190h1M793 190h2M796 190h1M798 190h2M801 190h1M803 190h2M806 190h1M808 190h2M811 190h1M813 190h2M816 190h1M818 190h2M821 190h1M823 190h2M826 190h1M828 190h2M831 190h1M833 190h2M836 190h1M838 190h2M841 190h1M843 190h2M846 190h1M848 190h2M0 191h3M5 191h3M10 191h3M15 191h3M20 191h3M25 191h3M30 191h3M35 191h3M40 191h3M45 191h3M50 191h3M55 191h3M60 191h3M65 191h3M70 191h3M75 191h3M80 191h3M85 191h3M90 191h3M95 191h3M100 191h3M105 191h3M110 191h3M115 191h3M120 191h3M125 191h3M130 191h3M135 191h3M140 191h3M145 191h3M150 191h3M155 191h3M160 191h3M165 191h3M170 191h3M175 191h3M180 191h3M185 191h3M190 191h3M195 191h3M200 191h3M205 191h3M210 191h3M215 191h3M220 191h3M225 191h3M230 191h3M235 191h3M240 191h3M245 191h3M250 191h3M255 191h3M260 191h3M265 191h3M270 191h3M275 191h3M280 191h3M285 191h3M290 191h3M295 191h3M300 191h3M305 191h3M310 191h3M315 191h3M320 191h3M325 191h3M330 191h3M335 191h3M340 191h3M345 191h3M350 191h3M355 191h3M360 191h3M365 191h3M370 191h3M375 191h3M380 191h3M385 191h3M390 191h3M395 191h3M400 191h3M405 191h3M410 191h3M415 191h3M420 191h3M425 191h3M430 191h3M435 191h3M440 191h3M445 191h3M450 191h3M455 191h3M460 191h3M465 191h3M470 191h3M475 191h3M480 191h3M485 191h3M490 191h3M495 191h3M500 191h3M505 191h3M510 191h3M515 191h3M520 191h3M525 191h3M530 191h3M535 191h3M540 191h3M545 191h3M550 191h3M555 191h3M560 191h3M565 191h3M570 191h3M575 191h3M580 191h3M585 191h3M590 191h3M595 191h3M600 191h3M605 191h3M610 191h3M615 191h3M620 191h3M625 191h3M630 191h3M635 191h3M640 191h3M645 191h3M650 191h3M655 191h3M660 191h3M665 191h3M670 191h3M675 191h3M680 191h3M685 191h3M690 191h3M695 191h3M700 191h3M705 191h3M710 191h3M715 191h3M720 191h3M725 191h3M730 191h3M735 191h3M740 191h3M745 191h3M750 191h3M755 191h3M760 191h3M765 191h3M770 191h3M775 191h3M780 191h3M785 191h3M790 191h3M795 191h3M800 191h3M805 191h3M810 191h3M815 191h3M820 191h3M825 191h3M830 191h3M835 191h3M840 191h3M845 191h3M850 191h1M0 192h1M2 192h4M7 192h4M12 192h4M17 192h4M22 192h4M27 192h4M32 192h4M37 192h4M42 192h4M47 192h4M52 192h4M57 192h4M62 192h4M67 192h4M72 192h4M77 192h4M82 192h4M87 192h4M92 192h4M97 192h4M102 192h4M107 192h4M112 192h4M117 192h4M122 192h4M127 192h4M132 192h4M137 192h4M142 192h4M147 192h4M152 192h4M157 192h4M162 192h4M167 192h4M172 192h4M177 192h4M182 192h4M187 192h4M192 192h4M197 192h4M202 192h4M207 192h4M212 192h4M217 192h4M222 192h4M227 192h4M232 192h4M237 192h4M242 192h4M247 192h4M252 192h4M257 192h4M262 192h4M267 192h4M272 192h4M277 192h4M282 192h4M287 192h4M292 192h4M297 192h4M302 192h4M307 192h4M312 192h4M317 192h4M322 192h4M327 192h4M332 192h4M337 192h4M342 192h4M347 192h4M352 192h4M357 192h4M362 192h4M367 192h4M372 192h4M377 192h4M382 192h4M387 192h4M392 192h4M397 192h4M402 192h4M407 192h4M412 192h4M417 192h4M422 192h4M427 192h4M432 192h4M437 192h4M442 192h4M447 192h4M452 192h4M457 192h4M462 192h4M467 192h4M472 192h4M477 192h4M482 192h4M487 192h4M492 192h4M497 192h4M502 192h4M507 192h4M512 192h4M517 192h4M522 192h4M527 192h4M532 192h4M537 192h4M542 192h4M547 192h4M552 192h4M557 192h4M562 192h4M567 192h4M572 192h4M577 192h4M582 192h4M587 192h4M592 192h4M597 192h4M602 192h4M607 192h4M612 192h4M617 192h4M622 192h4M627 192h4M632 192h4M637 192h4M642 192h4M647 192h4M652 192h4M657 192h4M662 192h4M667 192h4M672 192h4M677 192h4M682 192h4M687 192h4M692 192h4M697 192h4M702 192h4M707 192h4M712 192h4M717 192h4M722 192h4M727 192h4M732 192h4M737 192h4M742 192h4M747 192h4M752 192h4M757 192h4M762 192h4M767 192h4M772 192h4M777 192h4M782 192h4M787 192h4M792 192h4M797 192h4M802 192h4M807 192h4M812 192h4M817 192h4M822 192h4M827 192h4M832 192h4M837 192h4M842 192h4M847 192h4M3 193h2M8 193h2M13 193h2M18 193h2M23 193h2M28 193h2M33 193h2M38 193h2M43 193h2M48 193h2M53 193h2M58 193h2M63 193h2M68 193h2M73 193h2M78 193h2M83 193h2M88 193h2M93 193h2M98 193h2M103 193h2M108 193h2M113 193h2M118 193h2M123 193h2M128 193h2M133 193h2M138 193h2M143 193h2M148 193h2M153 193h2M158 193h2M163 193h2M168 193h2M173 193h2M178 193h2M183 193h2M188 193h2M193 193h2M198 193h2M203 193h2M208 193h2M213 193h2M218 193h2M223 193h2M228 193h2M233 193h2M238 193h2M243 193h2M248 193h2M253 193h2M258 193h2M263 193h2M268 193h2M273 193h2M278 193h2M283 193h2M288 193h2M293 193h2M298 193h2M303 193h2M308 193h2M313 193h2M318 193h2M323 193h2M328 193h2M333 193h2M338 193h2M343 193h2M348 193h2M353 193h2M358 193h2M363 193h2M368 193h2M373 193h2M378 193h2M383 193h2M388 193h2M393 193h2M398 193h2M403 193h2M408 193h2M413 193h2M418 193h2M423 193h2M428 193h2M433 193h2M438 193h2M443 193h2M448 193h2M453 193h2M458 193h2M463 193h2M468 193h2M473 193h2M478 193h2M483 193h2M488 193h2M493 193h2M498 193h2M503 193h2M508 193h2M513 193h2M518 193h2M523 193h2M528 193h2M533 193h2M538 193h2M543 193h2M548 193h2M553 193h2M558 193h2M563 193h2M568 193h2M573 193h2M578 193h2M583 193h2M588 193h2M593 193h2M598 193h2M603 193h2M608 193h2M613 193h2M618 193h2M623 193h2M628 193h2M633 193h2M638 193h2M643 193h2M648 193h2M653 193h2M658 193h2M663 193h2M668 193h2M673 193h2M678 193h2M683 193h2M688 193h2M693 193h2M698 193h2M703 193h2M708 193h2M713 193h2M718 193h2M723 193h2M728 193h2M733 193h2M738 193h2M743 193h2M748 193h2M753 193h2M758 193h2M763 193h2M768 193h2M773 193h2M778 193h2M783 193h2M788 193h2M793 193h2M798 193h2M803 193h2M808 193h2M813 193h2M818 193h2M823 193h2M828 193h2M833 193h2M838 193h2M843 193h2M848 193h2" />
<path stroke="#231555" d="M3 133h2M8 133h2M13 133h2M18 133h2M23 133h2M28 133h2M33 133h2M38 133h2M43 133h2M48 133h2M53 133h2M58 133h2M63 133h2M68 133h2M73 133h2M78 133h2M83 133h2M88 133h2M93 133h2M98 133h2M103 133h2M108 133h2M113 133h2M118 133h2M123 133h2M128 133h2M133 133h2M138 133h2M143 133h2M148 133h2M153 133h2M158 133h2M163 133h2M168 133h2M173 133h2M178 133h2M183 133h2M188 133h2M193 133h2M198 133h2M203 133h2M208 133h2M213 133h2M218 133h2M223 133h2M228 133h2M233 133h2M238 133h2M243 133h2M248 133h2M253 133h2M258 133h2M263 133h2M268 133h2M273 133h2M278 133h2M283 133h2M288 133h2M293 133h2M298 133h2M303 133h2M308 133h2M313 133h2M318 133h2M323 133h2M328 133h2M333 133h2M338 133h2M343 133h2M348 133h2M353 133h2M358 133h2M363 133h2M368 133h2M373 133h2M378 133h2M383 133h2M388 133h2M393 133h2M398 133h2M403 133h2M408 133h2M413 133h2M418 133h2M423 133h2M428 133h2M433 133h2M438 133h2M443 133h2M448 133h2M453 133h2M458 133h2M463 133h2M468 133h2M473 133h2M478 133h2M483 133h2M488 133h2M493 133h2M498 133h2M503 133h2M508 133h2M513 133h2M518 133h2M523 133h2M528 133h2M533 133h2M538 133h2M543 133h2M548 133h2M553 133h2M558 133h2M563 133h2M568 133h2M573 133h2M578 133h2M583 133h2M588 133h2M593 133h2M598 133h2M603 133h2M608 133h2M613 133h2M618 133h2M623 133h2M628 133h2M633 133h2M638 133h2M643 133h2M648 133h2M653 133h2M658 133h2M663 133h2M668 133h2M673 133h2M678 133h2M683 133h2M688 133h2M693 133h2M698 133h2M703 133h2M708 133h2M713 133h2M718 133h2M723 133h2M728 133h2M733 133h2M738 133h2M743 133h2M748 133h2M753 133h2M758 133h2M763 133h2M768 133h2M773 133h2M778 133h2M783 133h2M788 133h2M793 133h2M798 133h2M803 133h2M808 133h2M813 133h2M818 133h2M823 133h2M828 133h2M833 133h2M838 133h2M843 133h2M848 133h2M0 134h1M2 134h1M5 134h1M7 134h1M10 134h1M12 134h1M15 134h1M17 134h1M20 134h1M22 134h1M25 134h1M27 134h1M30 134h1M32 134h1M35 134h1M37 134h1M40 134h1M42 134h1M45 134h1M47 134h1M50 134h1M52 134h1M55 134h1M57 134h1M60 134h1M62 134h1M65 134h1M67 134h1M70 134h1M72 134h1M75 134h1M77 134h1M80 134h1M82 134h1M85 134h1M87 134h1M90 134h1M92 134h1M95 134h1M97 134h1M100 134h1M102 134h1M105 134h1M107 134h1M110 134h1M112 134h1M115 134h1M117 134h1M120 134h1M122 134h1M125 134h1M127 134h1M130 134h1M132 134h1M135 134h1M137 134h1M140 134h1M142 134h1M145 134h1M147 134h1M150 134h1M152 134h1M155 134h1M157 134h1M160 134h1M162 134h1M165 134h1M167 134h1M170 134h1M172 134h1M175 134h1M177 134h1M180 134h1M182 134h1M185 134h1M187 134h1M190 134h1M192 134h1M195 134h1M197 134h1M200 134h1M202 134h1M205 134h1M207 134h1M210 134h1M212 134h1M215 134h1M217 134h1M220 134h1M222 134h1M225 134h1M227 134h1M230 134h1M232 134h1M235 134h1M237 134h1M240 134h1M242 134h1M245 134h1M247 134h1M250 134h1M252 134h1M255 134h1M257 134h1M260 134h1M262 134h1M265 134h1M267 134h1M270 134h1M272 134h1M275 134h1M277 134h1M280 134h1M282 134h1M285 134h1M287 134h1M290 134h1M292 134h1M295 134h1M297 134h1M300 134h1M302 134h1M305 134h1M307 134h1M310 134h1M312 134h1M315 134h1M317 134h1M320 134h1M322 134h1M325 134h1M327 134h1M330 134h1M332 134h1M335 134h1M337 134h1M340 134h1M342 134h1M345 134h1M347 134h1M350 134h1M352 134h1M355 134h1M357 134h1M360 134h1M362 134h1M365 134h1M367 134h1M370 134h1M372 134h1M375 134h1M377 134h1M380 134h1M382 134h1M385 134h1M387 134h1M390 134h1M392 134h1M395 134h1M397 134h1M400 134h1M402 134h1M405 134h1M407 134h1M410 134h1M412 134h1M415 134h1M417 134h1M420 134h1M422 134h1M425 134h1M427 134h1M430 134h1M432 134h1M435 134h1M437 134h1M440 134h1M442 134h1M445 134h1M447 134h1M450 134h1M452 134h1M455 134h1M457 134h1M460 134h1M462 134h1M465 134h1M467 134h1M470 134h1M472 134h1M475 134h1M477 134h1M480 134h1M482 134h1M485 134h1M487 134h1M490 134h1M492 134h1M495 134h1M497 134h1M500 134h1M502 134h1M505 134h1M507 134h1M510 134h1M512 134h1M515 134h1M517 134h1M520 134h1M522 134h1M525 134h1M527 134h1M530 134h1M532 134h1M535 134h1M537 134h1M540 134h1M542 134h1M545 134h1M547 134h1M550 134h1M552 134h1M555 134h1M557 134h1M560 134h1M562 134h1M565 134h1M567 134h1M570 134h1M572 134h1M575 134h1M577 134h1M580 134h1M582 134h1M585 134h1M587 134h1M590 134h1M592 134h1M595 134h1M597 134h1M600 134h1M602 134h1M605 134h1M607 134h1M610 134h1M612 134h1M615 134h1M617 134h1M620 134h1M622 134h1M625 134h1M627 134h1M630 134h1M632 134h1M635 134h1M637 134h1M640 134h1M642 134h1M645 134h1M647 134h1M650 134h1M652 134h1M655 134h1M657 134h1M660 134h1M662 134h1M665 134h1M667 134h1M670 134h1M672 134h1M675 134h1M677 134h1M680 134h1M682 134h1M685 134h1M687 134h1M690 134h1M692 134h1M695 134h1M697 134h1M700 134h1M702 134h1M705 134h1M707 134h1M710 134h1M712 134h1M715 134h1M717 134h1M720 134h1M722 134h1M725 134h1M727 134h1M730 134h1M732 134h1M735 134h1M737 134h1M740 134h1M742 134h1M745 134h1M747 134h1M750 134h1M752 134h1M755 134h1M757 134h1M760 134h1M762 134h1M765 134h1M767 134h1M770 134h1M772 134h1M775 134h1M777 134h1M780 134h1M782 134h1M785 134h1M787 134h1M790 134h1M792 134h1M795 134h1M797 134h1M800 134h1M802 134h1M805 134h1M807 134h1M810 134h1M812 134h1M815 134h1M817 134h1M820 134h1M822 134h1M825 134h1M827 134h1M830 134h1M832 134h1M835 134h1M837 134h1M840 134h1M842 134h1M845 134h1M847 134h1M850 134h1M1 135h1M6 135h1M11 135h1M16 135h1M21 135h1M26 135h1M31 135h1M36 135h1M41 135h1M46 135h1M51 135h1M56 135h1M61 135h1M66 135h1M71 135h1M76 135h1M81 135h1M86 135h1M91 135h1M96 135h1M101 135h1M106 135h1M111 135h1M116 135h1M121 135h1M126 135h1M131 135h1M136 135h1M141 135h1M146 135h1M151 135h1M156 135h1M161 135h1M166 135h1M171 135h1M176 135h1M181 135h1M186 135h1M191 135h1M196 135h1M201 135h1M206 135h1M211 135h1M216 135h1M221 135h1M226 135h1M231 135h1M236 135h1M241 135h1M246 135h1M251 135h1M256 135h1M261 135h1M266 135h1M271 135h1M276 135h1M281 135h1M286 135h1M291 135h1M296 135h1M301 135h1M306 135h1M311 135h1M316 135h1M321 135h1M326 135h1M331 135h1M336 135h1M341 135h1M346 135h1M351 135h1M356 135h1M361 135h1M366 135h1M371 135h1M376 135h1M381 135h1M386 135h1M391 135h1M396 135h1M401 135h1M406 135h1M411 135h1M416 135h1M421 135h1M426 135h1M431 135h1M436 135h1M441 135h1M446 135h1M451 135h1M456 135h1M461 135h1M466 135h1M471 135h1M476 135h1M481 135h1M486 135h1M491 135h1M496 135h1M501 135h1M506 135h1M511 135h1M516 135h1M521 135h1M526 135h1M531 135h1M536 135h1M541 135h1M546 135h1M551 135h1M556 135h1M561 135h1M566 135h1M571 135h1M576 135h1M581 135h1M586 135h1M591 135h1M596 135h1M601 135h1M606 135h1M611 135h1M616 135h1M621 135h1M626 135h1M631 135h1M636 135h1M641 135h1M646 135h1M651 135h1M656 135h1M661 135h1M666 135h1M671 135h1M676 135h1M681 135h1M686 135h1M691 135h1M696 135h1M701 135h1M706 135h1M711 135h1M716 135h1M721 135h1M726 135h1M731 135h1M736 135h1M741 135h1M746 135h1M751 135h1M756 135h1M761 135h1M766 135h1M771 135h1M776 135h1M781 135h1M786 135h1M791 135h1M796 135h1M801 135h1M806 135h1M811 135h1M816 135h1M821 135h1M826 135h1M831 135h1M836 135h1M841 135h1M846 135h1M0 136h1M2 136h1M5 136h1M7 136h1M10 136h1M12 136h1M15 136h1M17 136h1M20 136h1M22 136h1M25 136h1M27 136h1M30 136h1M32 136h1M35 136h1M37 136h1M40 136h1M42 136h1M45 136h1M47 136h1M50 136h1M52 136h1M55 136h1M57 136h1M60 136h1M62 136h1M65 136h1M67 136h1M70 136h1M72 136h1M75 136h1M77 136h1M80 136h1M82 136h1M85 136h1M87 136h1M90 136h1M92 136h1M95 136h1M97 136h1M100 136h1M102 136h1M105 136h1M107 136h1M110 136h1M112 136h1M115 136h1M117 136h1M120 136h1M122 136h1M125 136h1M127 136h1M130 136h1M132 136h1M135 136h1M137 136h1M140 136h1M142 136h1M145 136h1M147 136h1M150 136h1M152 136h1M155 136h1M157 136h1M160 136h1M162 136h1M165 136h1M167 136h1M170 136h1M172 136h1M175 136h1M177 136h1M180 136h1M182 136h1M185 136h1M187 136h1M190 136h1M192 136h1M195 136h1M197 136h1M200 136h1M202 136h1M205 136h1M207 136h1M210 136h1M212 136h1M215 136h1M217 136h1M220 136h1M222 136h1M225 136h1M227 136h1M230 136h1M232 136h1M235 136h1M237 136h1M240 136h1M242 136h1M245 136h1M247 136h1M250 136h1M252 136h1M255 136h1M257 136h1M260 136h1M262 136h1M265 136h1M267 136h1M270 136h1M272 136h1M275 136h1M277 136h1M280 136h1M282 136h1M285 136h1M287 136h1M290 136h1M292 136h1M295 136h1M297 136h1M300 136h1M302 136h1M305 136h1M307 136h1M310 136h1M312 136h1M315 136h1M317 136h1M320 136h1M322 136h1M325 136h1M327 136h1M330 136h1M332 136h1M335 136h1M337 136h1M340 136h1M342 136h1M345 136h1M347 136h1M350 136h1M352 136h1M355 136h1M357 136h1M360 136h1M362 136h1M365 136h1M367 136h1M370 136h1M372 136h1M375 136h1M377 136h1M380 136h1M382 136h1M385 136h1M387 136h1M390 136h1M392 136h1M395 136h1M397 136h1M400 136h1M402 136h1M405 136h1M407 136h1M410 136h1M412 136h1M415 136h1M417 136h1M420 136h1M422 136h1M425 136h1M427 136h1M430 136h1M432 136h1M435 136h1M437 136h1M440 136h1M442 136h1M445 136h1M447 136h1M450 136h1M452 136h1M455 136h1M457 136h1M460 136h1M462 136h1M465 136h1M467 136h1M470 136h1M472 136h1M475 136h1M477 136h1M480 136h1M482 136h1M485 136h1M487 136h1M490 136h1M492 136h1M495 136h1M497 136h1M500 136h1M502 136h1M505 136h1M507 136h1M510 136h1M512 136h1M515 136h1M517 136h1M520 136h1M522 136h1M525 136h1M527 136h1M530 136h1M532 136h1M535 136h1M537 136h1M540 136h1M542 136h1M545 136h1M547 136h1M550 136h1M552 136h1M555 136h1M557 136h1M560 136h1M562 136h1M565 136h1M567 136h1M570 136h1M572 136h1M575 136h1M577 136h1M580 136h1M582 136h1M585 136h1M587 136h1M590 136h1M592 136h1M595 136h1M597 136h1M600 136h1M602 136h1M605 136h1M607 136h1M610 136h1M612 136h1M615 136h1M617 136h1M620 136h1M622 136h1M625 136h1M627 136h1M630 136h1M632 136h1M635 136h1M637 136h1M640 136h1M642 136h1M645 136h1M647 136h1M650 136h1M652 136h1M655 136h1M657 136h1M660 136h1M662 136h1M665 136h1M667 136h1M670 136h1M672 136h1M675 136h1M677 136h1M680 136h1M682 136h1M685 136h1M687 136h1M690 136h1M692 136h1M695 136h1M697 136h1M700 136h1M702 136h1M705 136h1M707 136h1M710 136h1M712 136h1M715 136h1M717 136h1M720 136h1M722 136h1M725 136h1M727 136h1M730 136h1M732 136h1M735 136h1M737 136h1M740 136h1M742 136h1M745 136h1M747 136h1M750 136h1M752 136h1M755 136h1M757 136h1M760 136h1M762 136h1M765 136h1M767 136h1M770 136h1M772 136h1M775 136h1M777 136h1M780 136h1M782 136h1M785 136h1M787 136h1M790 136h1M792 136h1M795 136h1M797 136h1M800 136h1M802 136h1M805 136h1M807 136h1M810 136h1M812 136h1M815 136h1M817 136h1M820 136h1M822 136h1M825 136h1M827 136h1M830 136h1M832 136h1M835 136h1M837 136h1M840 136h1M842 136h1M845 136h1M847 136h1M850 136h1M3 137h2M8 137h2M13 137h2M18 137h2M23 137h2M28 137h2M33 137h2M38 137h2M43 137h2M48 137h2M53 137h2M58 137h2M63 137h2M68 137h2M73 137h2M78 137h2M83 137h2M88 137h2M93 137h2M98 137h2M103 137h2M108 137h2M113 137h2M118 137h2M123 137h2M128 137h2M133 137h2M138 137h2M143 137h2M148 137h2M153 137h2M158 137h2M163 137h2M168 137h2M173 137h2M178 137h2M183 137h2M188 137h2M193 137h2M198 137h2M203 137h2M208 137h2M213 137h2M218 137h2M223 137h2M228 137h2M233 137h2M238 137h2M243 137h2M248 137h2M253 137h2M258 137h2M263 137h2M268 137h2M273 137h2M278 137h2M283 137h2M288 137h2M293 137h2M298 137h2M303 137h2M308 137h2M313 137h2M318 137h2M323 137h2M328 137h2M333 137h2M338 137h2M343 137h2M348 137h2M353 137h2M358 137h2M363 137h2M368 137h2M373 137h2M378 137h2M383 137h2M388 137h2M393 137h2M398 137h2M403 137h2M408 137h2M413 137h2M418 137h2M423 137h2M428 137h2M433 137h2M438 137h2M443 137h2M448 137h2M453 137h2M458 137h2M463 137h2M468 137h2M473 137h2M478 137h2M483 137h2M488 137h2M493 137h2M498 137h2M503 137h2M508 137h2M513 137h2M518 137h2M523 137h2M528 137h2M533 137h2M538 137h2M543 137h2M548 137h2M553 137h2M558 137h2M563 137h2M568 137h2M573 137h2M578 137h2M583 137h2M588 137h2M593 137h2M598 137h2M603 137h2M608 137h2M613 137h2M618 137h2M623 137h2M628 137h2M633 137h2M638 137h2M643 137h2M648 137h2M653 137h2M658 137h2M663 137h2M668 137h2M673 137h2M678 137h2M683 137h2M688 137h2M693 137h2M698 137h2M703 137h2M708 137h2M713 137h2M718 137h2M723 137h2M728 137h2M733 137h2M738 137h2M743 137h2M748 137h2M753 137h2M758 137h2M763 137h2M768 137h2M773 137h2M778 137h2M783 137h2M788 137h2M793 137h2M798 137h2M803 137h2M808 137h2M813 137h2M818 137h2M823 137h2M828 137h2M833 137h2M838 137h2M843 137h2M848 137h2M1 138h1M6 138h1M11 138h1M16 138h1M21 138h1M26 138h1M31 138h1M36 138h1M41 138h1M46 138h1M51 138h1M56 138h1M61 138h1M66 138h1M71 138h1M76 138h1M81 138h1M86 138h1M91 138h1M96 138h1M101 138h1M106 138h1M111 138h1M116 138h1M121 138h1M126 138h1M131 138h1M136 138h1M141 138h1M146 138h1M151 138h1M156 138h1M161 138h1M166 138h1M171 138h1M176 138h1M181 138h1M186 138h1M191 138h1M196 138h1M201 138h1M206 138h1M211 138h1M216 138h1M221 138h1M226 138h1M231 138h1M236 138h1M241 138h1M246 138h1M251 138h1M256 138h1M261 138h1M266 138h1M271 138h1M276 138h1M281 138h1M286 138h1M291 138h1M296 138h1M301 138h1M306 138h1M311 138h1M316 138h1M321 138h1M326 138h1M331 138h1M336 138h1M341 138h1M346 138h1M351 138h1M356 138h1M361 138h1M366 138h1M371 138h1M376 138h1M381 138h1M386 138h1M391 138h1M396 138h1M401 138h1M406 138h1M411 138h1M416 138h1M421 138h1M426 138h1M431 138h1M436 138h1M441 138h1M446 138h1M451 138h1M456 138h1M461 138h1M466 138h1M471 138h1M476 138h1M481 138h1M486 138h1M491 138h1M496 138h1M501 138h1M506 138h1M511 138h1M516 138h1M521 138h1M526 138h1M531 138h1M536 138h1M541 138h1M546 138h1M551 138h1M556 138h1M561 138h1M566 138h1M571 138h1M576 138h1M581 138h1M586 138h1M591 138h1M596 138h1M601 138h1M606 138h1M611 138h1M616 138h1M621 138h1M626 138h1M631 138h1M636 138h1M641 138h1M646 138h1M651 138h1M656 138h1M661 138h1M666 138h1M671 138h1M676 138h1M681 138h1M686 138h1M691 138h1M696 138h1M701 138h1M706 138h1M711 138h1M716 138h1M721 138h1M726 138h1M731 138h1M736 138h1M741 138h1M746 138h1M751 138h1M756 138h1M761 138h1M766 138h1M771 138h1M776 138h1M781 138h1M786 138h1M791 138h1M796 138h1M801 138h1M806 138h1M811 138h1M816 138h1M821 138h1M826 138h1M831 138h1M836 138h1M841 138h1M846 138h1M0 139h3M5 139h3M10 139h3M15 139h3M20 139h3M25 139h3M30 139h3M35 139h3M40 139h3M45 139h3M50 139h3M55 139h3M60 139h3M65 139h3M70 139h3M75 139h3M80 139h3M85 139h3M90 139h3M95 139h3M100 139h3M105 139h3M110 139h3M115 139h3M120 139h3M125 139h3M130 139h3M135 139h3M140 139h3M145 139h3M150 139h3M155 139h3M160 139h3M165 139h3M170 139h3M175 139h3M180 139h3M185 139h3M190 139h3M195 139h3M200 139h3M205 139h3M210 139h3M215 139h3M220 139h3M225 139h3M230 139h3M235 139h3M240 139h3M245 139h3M250 139h3M255 139h3M260 139h3M265 139h3M270 139h3M275 139h3M280 139h3M285 139h3M290 139h3M295 139h3M300 139h3M305 139h3M310 139h3M315 139h3M320 139h3M325 139h3M330 139h3M335 139h3M340 139h3M345 139h3M350 139h3M355 139h3M360 139h3M365 139h3M370 139h3M375 139h3M380 139h3M385 139h3M390 139h3M395 139h3M400 139h3M405 139h3M410 139h3M415 139h3M420 139h3M425 139h3M430 139h3M435 139h3M440 139h3M445 139h3M450 139h3M455 139h3M460 139h3M465 139h3M470 139h3M475 139h3M480 139h3M485 139h3M490 139h3M495 139h3M500 139h3M505 139h3M510 139h3M515 139h3M520 139h3M525 139h3M530 139h3M535 139h3M540 139h3M545 139h3M550 139h3M555 139h3M560 139h3M565 139h3M570 139h3M575 139h3M580 139h3M585 139h3M590 139h3M595 139h3M600 139h3M605 139h3M610 139h3M615 139h3M620 139h3M625 139h3M630 139h3M635 139h3M640 139h3M645 139h3M650 139h3M655 139h3M660 139h3M665 139h3M670 139h3M675 139h3M680 139h3M685 139h3M690 139h3M695 139h3M700 139h3M705 139h3M710 139h3M715 139h3M720 139h3M725 139h3M730 139h3M735 139h3M740 139h3M745 139h3M750 139h3M755 139h3M760 139h3M765 139h3M770 139h3M775 139h3M780 139h3M785 139h3M790 139h3M795 139h3M800 139h3M805 139h3M810 139h3M815 139h3M820 139h3M825 139h3M830 139h3M835 139h3M840 139h3M845 139h3M850 139h1M0 166h851M0 167h851M0 168h851M0 169h851M0 170h851M0 171h851M0 172h851M0 173h851M0 174h851M0 175h851M0 176h851M0 177h851M0 184h851M0 185h851M0 186h851M3 187h2M8 187h2M13 187h2M18 187h2M23 187h2M28 187h2M33 187h2M38 187h2M43 187h2M48 187h2M53 187h2M58 187h2M63 187h2M68 187h2M73 187h2M78 187h2M83 187h2M88 187h2M93 187h2M98 187h2M103 187h2M108 187h2M113 187h2M118 187h2M123 187h2M128 187h2M133 187h2M138 187h2M143 187h2M148 187h2M153 187h2M158 187h2M163 187h2M168 187h2M173 187h2M178 187h2M183 187h2M188 187h2M193 187h2M198 187h2M203 187h2M208 187h2M213 187h2M218 187h2M223 187h2M228 187h2M233 187h2M238 187h2M243 187h2M248 187h2M253 187h2M258 187h2M263 187h2M268 187h2M273 187h2M278 187h2M283 187h2M288 187h2M293 187h2M298 187h2M303 187h2M308 187h2M313 187h2M318 187h2M323 187h2M328 187h2M333 187h2M338 187h2M343 187h2M348 187h2M353 187h2M358 187h2M363 187h2M368 187h2M373 187h2M378 187h2M383 187h2M388 187h2M393 187h2M398 187h2M403 187h2M408 187h2M413 187h2M418 187h2M423 187h2M428 187h2M433 187h2M438 187h2M443 187h2M448 187h2M453 187h2M458 187h2M463 187h2M468 187h2M473 187h2M478 187h2M483 187h2M488 187h2M493 187h2M498 187h2M503 187h2M508 187h2M513 187h2M518 187h2M523 187h2M528 187h2M533 187h2M538 187h2M543 187h2M548 187h2M553 187h2M558 187h2M563 187h2M568 187h2M573 187h2M578 187h2M583 187h2M588 187h2M593 187h2M598 187h2M603 187h2M608 187h2M613 187h2M618 187h2M623 187h2M628 187h2M633 187h2M638 187h2M643 187h2M648 187h2M653 187h2M658 187h2M663 187h2M668 187h2M673 187h2M678 187h2M683 187h2M688 187h2M693 187h2M698 187h2M703 187h2M708 187h2M713 187h2M718 187h2M723 187h2M728 187h2M733 187h2M738 187h2M743 187h2M748 187h2M753 187h2M758 187h2M763 187h2M768 187h2M773 187h2M778 187h2M783 187h2M788 187h2M793 187h2M798 187h2M803 187h2M808 187h2M813 187h2M818 187h2M823 187h2M828 187h2M833 187h2M838 187h2M843 187h2M848 187h2M0 188h1M2 188h1M5 188h1M7 188h1M10 188h1M12 188h1M15 188h1M17 188h1M20 188h1M22 188h1M25 188h1M27 188h1M30 188h1M32 188h1M35 188h1M37 188h1M40 188h1M42 188h1M45 188h1M47 188h1M50 188h1M52 188h1M55 188h1M57 188h1M60 188h1M62 188h1M65 188h1M67 188h1M70 188h1M72 188h1M75 188h1M77 188h1M80 188h1M82 188h1M85 188h1M87 188h1M90 188h1M92 188h1M95 188h1M97 188h1M100 188h1M102 188h1M105 188h1M107 188h1M110 188h1M112 188h1M115 188h1M117 188h1M120 188h1M122 188h1M125 188h1M127 188h1M130 188h1M132 188h1M135 188h1M137 188h1M140 188h1M142 188h1M145 188h1M147 188h1M150 188h1M152 188h1M155 188h1M157 188h1M160 188h1M162 188h1M165 188h1M167 188h1M170 188h1M172 188h1M175 188h1M177 188h1M180 188h1M182 188h1M185 188h1M187 188h1M190 188h1M192 188h1M195 188h1M197 188h1M200 188h1M202 188h1M205 188h1M207 188h1M210 188h1M212 188h1M215 188h1M217 188h1M220 188h1M222 188h1M225 188h1M227 188h1M230 188h1M232 188h1M235 188h1M237 188h1M240 188h1M242 188h1M245 188h1M247 188h1M250 188h1M252 188h1M255 188h1M257 188h1M260 188h1M262 188h1M265 188h1M267 188h1M270 188h1M272 188h1M275 188h1M277 188h1M280 188h1M282 188h1M285 188h1M287 188h1M290 188h1M292 188h1M295 188h1M297 188h1M300 188h1M302 188h1M305 188h1M307 188h1M310 188h1M312 188h1M315 188h1M317 188h1M320 188h1M322 188h1M325 188h1M327 188h1M330 188h1M332 188h1M335 188h1M337 188h1M340 188h1M342 188h1M345 188h1M347 188h1M350 188h1M352 188h1M355 188h1M357 188h1M360 188h1M362 188h1M365 188h1M367 188h1M370 188h1M372 188h1M375 188h1M377 188h1M380 188h1M382 188h1M385 188h1M387 188h1M390 188h1M392 188h1M395 188h1M397 188h1M400 188h1M402 188h1M405 188h1M407 188h1M410 188h1M412 188h1M415 188h1M417 188h1M420 188h1M422 188h1M425 188h1M427 188h1M430 188h1M432 188h1M435 188h1M437 188h1M440 188h1M442 188h1M445 188h1M447 188h1M450 188h1M452 188h1M455 188h1M457 188h1M460 188h1M462 188h1M465 188h1M467 188h1M470 188h1M472 188h1M475 188h1M477 188h1M480 188h1M482 188h1M485 188h1M487 188h1M490 188h1M492 188h1M495 188h1M497 188h1M500 188h1M502 188h1M505 188h1M507 188h1M510 188h1M512 188h1M515 188h1M517 188h1M520 188h1M522 188h1M525 188h1M527 188h1M530 188h1M532 188h1M535 188h1M537 188h1M540 188h1M542 188h1M545 188h1M547 188h1M550 188h1M552 188h1M555 188h1M557 188h1M560 188h1M562 188h1M565 188h1M567 188h1M570 188h1M572 188h1M575 188h1M577 188h1M580 188h1M582 188h1M585 188h1M587 188h1M590 188h1M592 188h1M595 188h1M597 188h1M600 188h1M602 188h1M605 188h1M607 188h1M610 188h1M612 188h1M615 188h1M617 188h1M620 188h1M622 188h1M625 188h1M627 188h1M630 188h1M632 188h1M635 188h1M637 188h1M640 188h1M642 188h1M645 188h1M647 188h1M650 188h1M652 188h1M655 188h1M657 188h1M660 188h1M662 188h1M665 188h1M667 188h1M670 188h1M672 188h1M675 188h1M677 188h1M680 188h1M682 188h1M685 188h1M687 188h1M690 188h1M692 188h1M695 188h1M697 188h1M700 188h1M702 188h1M705 188h1M707 188h1M710 188h1M712 188h1M715 188h1M717 188h1M720 188h1M722 188h1M725 188h1M727 188h1M730 188h1M732 188h1M735 188h1M737 188h1M740 188h1M742 188h1M745 188h1M747 188h1M750 188h1M752 188h1M755 188h1M757 188h1M760 188h1M762 188h1M765 188h1M767 188h1M770 188h1M772 188h1M775 188h1M777 188h1M780 188h1M782 188h1M785 188h1M787 188h1M790 188h1M792 188h1M795 188h1M797 188h1M800 188h1M802 188h1M805 188h1M807 188h1M810 188h1M812 188h1M815 188h1M817 188h1M820 188h1M822 188h1M825 188h1M827 188h1M830 188h1M832 188h1M835 188h1M837 188h1M840 188h1M842 188h1M845 188h1M847 188h1M850 188h1M1 189h1M6 189h1M11 189h1M16 189h1M21 189h1M26 189h1M31 189h1M36 189h1M41 189h1M46 189h1M51 189h1M56 189h1M61 189h1M66 189h1M71 189h1M76 189h1M81 189h1M86 189h1M91 189h1M96 189h1M101 189h1M106 189h1M111 189h1M116 189h1M121 189h1M126 189h1M131 189h1M136 189h1M141 189h1M146 189h1M151 189h1M156 189h1M161 189h1M166 189h1M171 189h1M176 189h1M181 189h1M186 189h1M191 189h1M196 189h1M201 189h1M206 189h1M211 189h1M216 189h1M221 189h1M226 189h1M231 189h1M236 189h1M241 189h1M246 189h1M251 189h1M256 189h1M261 189h1M266 189h1M271 189h1M276 189h1M281 189h1M286 189h1M291 189h1M296 189h1M301 189h1M306 189h1M311 189h1M316 189h1M321 189h1M326 189h1M331 189h1M336 189h1M341 189h1M346 189h1M351 189h1M356 189h1M361 189h1M366 189h1M371 189h1M376 189h1M381 189h1M386 189h1M391 189h1M396 189h1M401 189h1M406 189h1M411 189h1M416 189h1M421 189h1M426 189h1M431 189h1M436 189h1M441 189h1M446 189h1M451 189h1M456 189h1M461 189h1M466 189h1M471 189h1M476 189h1M481 189h1M486 189h1M491 189h1M496 189h1M501 189h1M506 189h1M511 189h1M516 189h1M521 189h1M526 189h1M531 189h1M536 189h1M541 189h1M546 189h1M551 189h1M556 189h1M561 189h1M566 189h1M571 189h1M576 189h1M581 189h1M586 189h1M591 189h1M596 189h1M601 189h1M606 189h1M611 189h1M616 189h1M621 189h1M626 189h1M631 189h1M636 189h1M641 189h1M646 189h1M651 189h1M656 189h1M661 189h1M666 189h1M671 189h1M676 189h1M681 189h1M686 189h1M691 189h1M696 189h1M701 189h1M706 189h1M711 189h1M716 189h1M721 189h1M726 189h1M731 189h1M736 189h1M741 189h1M746 189h1M751 189h1M756 189h1M761 189h1M766 189h1M771 189h1M776 189h1M781 189h1M786 189h1M791 189h1M796 189h1M801 189h1M806 189h1M811 189h1M816 189h1M821 189h1M826 189h1M831 189h1M836 189h1M841 189h1M846 189h1M0 190h1M2 190h1M5 190h1M7 190h1M10 190h1M12 190h1M15 190h1M17 190h1M20 190h1M22 190h1M25 190h1M27 190h1M30 190h1M32 190h1M35 190h1M37 190h1M40 190h1M42 190h1M45 190h1M47 190h1M50 190h1M52 190h1M55 190h1M57 190h1M60 190h1M62 190h1M65 190h1M67 190h1M70 190h1M72 190h1M75 190h1M77 190h1M80 190h1M82 190h1M85 190h1M87 190h1M90 190h1M92 190h1M95 190h1M97 190h1M100 190h1M102 190h1M105 190h1M107 190h1M110 190h1M112 190h1M115 190h1M117 190h1M120 190h1M122 190h1M125 190h1M127 190h1M130 190h1M132 190h1M135 190h1M137 190h1M140 190h1M142 190h1M145 190h1M147 190h1M150 190h1M152 190h1M155 190h1M157 190h1M160 190h1M162 190h1M165 190h1M167 190h1M170 190h1M172 190h1M175 190h1M177 190h1M180 190h1M182 190h1M185 190h1M187 190h1M190 190h1M192 190h1M195 190h1M197 190h1M200 190h1M202 190h1M205 190h1M207 190h1M210 190h1M212 190h1M215 190h1M217 190h1M220 190h1M222 190h1M225 190h1M227 190h1M230 190h1M232 190h1M235 190h1M237 190h1M240 190h1M242 190h1M245 190h1M247 190h1M250 190h1M252 190h1M255 190h1M257 190h1M260 190h1M262 190h1M265 190h1M267 190h1M270 190h1M272 190h1M275 190h1M277 190h1M280 190h1M282 190h1M285 190h1M287 190h1M290 190h1M292 190h1M295 190h1M297 190h1M300 190h1M302 190h1M305 190h1M307 190h1M310 190h1M312 190h1M315 190h1M317 190h1M320 190h1M322 190h1M325 190h1M327 190h1M330 190h1M332 190h1M335 190h1M337 190h1M340 190h1M342 190h1M345 190h1M347 190h1M350 190h1M352 190h1M355 190h1M357 190h1M360 190h1M362 190h1M365 190h1M367 190h1M370 190h1M372 190h1M375 190h1M377 190h1M380 190h1M382 190h1M385 190h1M387 190h1M390 190h1M392 190h1M395 190h1M397 190h1M400 190h1M402 190h1M405 190h1M407 190h1M410 190h1M412 190h1M415 190h1M417 190h1M420 190h1M422 190h1M425 190h1M427 190h1M430 190h1M432 190h1M435 190h1M437 190h1M440 190h1M442 190h1M445 190h1M447 190h1M450 190h1M452 190h1M455 190h1M457 190h1M460 190h1M462 190h1M465 190h1M467 190h1M470 190h1M472 190h1M475 190h1M477 190h1M480 190h1M482 190h1M485 190h1M487 190h1M490 190h1M492 190h1M495 190h1M497 190h1M500 190h1M502 190h1M505 190h1M507 190h1M510 190h1M512 190h1M515 190h1M517 190h1M520 190h1M522 190h1M525 190h1M527 190h1M530 190h1M532 190h1M535 190h1M537 190h1M540 190h1M542 190h1M545 190h1M547 190h1M550 190h1M552 190h1M555 190h1M557 190h1M560 190h1M562 190h1M565 190h1M567 190h1M570 190h1M572 190h1M575 190h1M577 190h1M580 190h1M582 190h1M585 190h1M587 190h1M590 190h1M592 190h1M595 190h1M597 190h1M600 190h1M602 190h1M605 190h1M607 190h1M610 190h1M612 190h1M615 190h1M617 190h1M620 190h1M622 190h1M625 190h1M627 190h1M630 190h1M632 190h1M635 190h1M637 190h1M640 190h1M642 190h1M645 190h1M647 190h1M650 190h1M652 190h1M655 190h1M657 190h1M660 190h1M662 190h1M665 190h1M667 190h1M670 190h1M672 190h1M675 190h1M677 190h1M680 190h1M682 190h1M685 190h1M687 190h1M690 190h1M692 190h1M695 190h1M697 190h1M700 190h1M702 190h1M705 190h1M707 190h1M710 190h1M712 190h1M715 190h1M717 190h1M720 190h1M722 190h1M725 190h1M727 190h1M730 190h1M732 190h1M735 190h1M737 190h1M740 190h1M742 190h1M745 190h1M747 190h1M750 190h1M752 190h1M755 190h1M757 190h1M760 190h1M762 190h1M765 190h1M767 190h1M770 190h1M772 190h1M775 190h1M777 190h1M780 190h1M782 190h1M785 190h1M787 190h1M790 190h1M792 190h1M795 190h1M797 190h1M800 190h1M802 190h1M805 190h1M807 190h1M810 190h1M812 190h1M815 190h1M817 190h1M820 190h1M822 190h1M825 190h1M827 190h1M830 190h1M832 190h1M835 190h1M837 190h1M840 190h1M842 190h1M845 190h1M847 190h1M850 190h1M3 191h2M8 191h2M13 191h2M18 191h2M23 191h2M28 191h2M33 191h2M38 191h2M43 191h2M48 191h2M53 191h2M58 191h2M63 191h2M68 191h2M73 191h2M78 191h2M83 191h2M88 191h2M93 191h2M98 191h2M103 191h2M108 191h2M113 191h2M118 191h2M123 191h2M128 191h2M133 191h2M138 191h2M143 191h2M148 191h2M153 191h2M158 191h2M163 191h2M168 191h2M173 191h2M178 191h2M183 191h2M188 191h2M193 191h2M198 191h2M203 191h2M208 191h2M213 191h2M218 191h2M223 191h2M228 191h2M233 191h2M238 191h2M243 191h2M248 191h2M253 191h2M258 191h2M263 191h2M268 191h2M273 191h2M278 191h2M283 191h2M288 191h2M293 191h2M298 191h2M303 191h2M308 191h2M313 191h2M318 191h2M323 191h2M328 191h2M333 191h2M338 191h2M343 191h2M348 191h2M353 191h2M358 191h2M363 191h2M368 191h2M373 191h2M378 191h2M383 191h2M388 191h2M393 191h2M398 191h2M403 191h2M408 191h2M413 191h2M418 191h2M423 191h2M428 191h2M433 191h2M438 191h2M443 191h2M448 191h2M453 191h2M458 191h2M463 191h2M468 191h2M473 191h2M478 191h2M483 191h2M488 191h2M493 191h2M498 191h2M503 191h2M508 191h2M513 191h2M518 191h2M523 191h2M528 191h2M533 191h2M538 191h2M543 191h2M548 191h2M553 191h2M558 191h2M563 191h2M568 191h2M573 191h2M578 191h2M583 191h2M588 191h2M593 191h2M598 191h2M603 191h2M608 191h2M613 191h2M618 191h2M623 191h2M628 191h2M633 191h2M638 191h2M643 191h2M648 191h2M653 191h2M658 191h2M663 191h2M668 191h2M673 191h2M678 191h2M683 191h2M688 191h2M693 191h2M698 191h2M703 191h2M708 191h2M713 191h2M718 191h2M723 191h2M728 191h2M733 191h2M738 191h2M743 191h2M748 191h2M753 191h2M758 191h2M763 191h2M768 191h2M773 191h2M778 191h2M783 191h2M788 191h2M793 191h2M798 191h2M803 191h2M808 191h2M813 191h2M818 191h2M823 191h2M828 191h2M833 191h2M838 191h2M843 191h2M848 191h2M1 192h1M6 192h1M11 192h1M16 192h1M21 192h1M26 192h1M31 192h1M36 192h1M41 192h1M46 192h1M51 192h1M56 192h1M61 192h1M66 192h1M71 192h1M76 192h1M81 192h1M86 192h1M91 192h1M96 192h1M101 192h1M106 192h1M111 192h1M116 192h1M121 192h1M126 192h1M131 192h1M136 192h1M141 192h1M146 192h1M151 192h1M156 192h1M161 192h1M166 192h1M171 192h1M176 192h1M181 192h1M186 192h1M191 192h1M196 192h1M201 192h1M206 192h1M211 192h1M216 192h1M221 192h1M226 192h1M231 192h1M236 192h1M241 192h1M246 192h1M251 192h1M256 192h1M261 192h1M266 192h1M271 192h1M276 192h1M281 192h1M286 192h1M291 192h1M296 192h1M301 192h1M306 192h1M311 192h1M316 192h1M321 192h1M326 192h1M331 192h1M336 192h1M341 192h1M346 192h1M351 192h1M356 192h1M361 192h1M366 192h1M371 192h1M376 192h1M381 192h1M386 192h1M391 192h1M396 192h1M401 192h1M406 192h1M411 192h1M416 192h1M421 192h1M426 192h1M431 192h1M436 192h1M441 192h1M446 192h1M451 192h1M456 192h1M461 192h1M466 192h1M471 192h1M476 192h1M481 192h1M486 192h1M491 192h1M496 192h1M501 192h1M506 192h1M511 192h1M516 192h1M521 192h1M526 192h1M531 192h1M536 192h1M541 192h1M546 192h1M551 192h1M556 192h1M561 192h1M566 192h1M571 192h1M576 192h1M581 192h1M586 192h1M591 192h1M596 192h1M601 192h1M606 192h1M611 192h1M616 192h1M621 192h1M626 192h1M631 192h1M636 192h1M641 192h1M646 192h1M651 192h1M656 192h1M661 192h1M666 192h1M671 192h1M676 192h1M681 192h1M686 192h1M691 192h1M696 192h1M701 192h1M706 192h1M711 192h1M716 192h1M721 192h1M726 192h1M731 192h1M736 192h1M741 192h1M746 192h1M751 192h1M756 192h1M761 192h1M766 192h1M771 192h1M776 192h1M781 192h1M786 192h1M791 192h1M796 192h1M801 192h1M806 192h1M811 192h1M816 192h1M821 192h1M826 192h1M831 192h1M836 192h1M841 192h1M846 192h1M0 193h3M5 193h3M10 193h3M15 193h3M20 193h3M25 193h3M30 193h3M35 193h3M40 193h3M45 193h3M50 193h3M55 193h3M60 193h3M65 193h3M70 193h3M75 193h3M80 193h3M85 193h3M90 193h3M95 193h3M100 193h3M105 193h3M110 193h3M115 193h3M120 193h3M125 193h3M130 193h3M135 193h3M140 193h3M145 193h3M150 193h3M155 193h3M160 193h3M165 193h3M170 193h3M175 193h3M180 193h3M185 193h3M190 193h3M195 193h3M200 193h3M205 193h3M210 193h3M215 193h3M220 193h3M225 193h3M230 193h3M235 193h3M240 193h3M245 193h3M250 193h3M255 193h3M260 193h3M265 193h3M270 193h3M275 193h3M280 193h3M285 193h3M290 193h3M295 193h3M300 193h3M305 193h3M310 193h3M315 193h3M320 193h3M325 193h3M330 193h3M335 193h3M340 193h3M345 193h3M350 193h3M355 193h3M360 193h3M365 193h3M370 193h3M375 193h3M380 193h3M385 193h3M390 193h3M395 193h3M400 193h3M405 193h3M410 193h3M415 193h3M420 193h3M425 193h3M430 193h3M435 193h3M440 193h3M445 193h3M450 193h3M455 193h3M460 193h3M465 193h3M470 193h3M475 193h3M480 193h3M485 193h3M490 193h3M495 193h3M500 193h3M505 193h3M510 193h3M515 193h3M520 193h3M525 193h3M530 193h3M535 193h3M540 193h3M545 193h3M550 193h3M555 193h3M560 193h3M565 193h3M570 193h3M575 193h3M580 193h3M585 193h3M590 193h3M595 193h3M600 193h3M605 193h3M610 193h3M615 193h3M620 193h3M625 193h3M630 193h3M635 193h3M640 193h3M645 193h3M650 193h3M655 193h3M660 193h3M665 193h3M670 193h3M675 193h3M680 193h3M685 193h3M690 193h3M695 193h3M700 193h3M705 193h3M710 193h3M715 193h3M720 193h3M725 193h3M730 193h3M735 193h3M740 193h3M745 193h3M750 193h3M755 193h3M760 193h3M765 193h3M770 193h3M775 193h3M780 193h3M785 193h3M790 193h3M795 193h3M800 193h3M805 193h3M810 193h3M815 193h3M820 193h3M825 193h3M830 193h3M835 193h3M840 193h3M845 193h3M850 193h1M0 194h851M0 195h851M0 196h851M0 197h851M0 198h851M0 199h851M0 200h851M0 201h851M0 202h851M0 203h851M0 204h851M0 205h851M0 206h851M0 207h851M0 210h851M0 211h851M0 212h851M0 213h851M0 214h851M0 215h851M0 216h851M0 217h851M0 218h851M0 219h851M0 220h851M0 221h851M0 226h851M0 227h851M0 229h851M0 230h851M0 231h851M0 232h851M0 233h851" />
<path stroke="#371573" d="M0 208h851M0 209h851M0 222h851M0 223h851M0 224h851M0 225h851M0 228h851M0 234h851M0 235h3M5 235h3M10 235h3M15 235h3M20 235h3M25 235h3M30 235h3M35 235h3M40 235h3M45 235h3M50 235h3M55 235h3M60 235h3M65 235h3M70 235h3M75 235h3M80 235h3M85 235h3M90 235h3M95 235h3M100 235h3M105 235h3M110 235h3M115 235h3M120 235h3M125 235h3M130 235h3M135 235h3M140 235h3M145 235h3M150 235h3M155 235h3M160 235h3M165 235h3M170 235h3M175 235h3M180 235h3M185 235h3M190 235h3M195 235h3M200 235h3M205 235h3M210 235h3M215 235h3M220 235h3M225 235h3M230 235h3M235 235h3M240 235h3M245 235h3M250 235h3M255 235h3M260 235h3M265 235h3M270 235h3M275 235h3M280 235h3M285 235h3M290 235h3M295 235h3M300 235h3M305 235h3M310 235h3M315 235h3M320 235h3M325 235h3M330 235h3M335 235h3M340 235h3M345 235h3M350 235h3M355 235h3M360 235h3M365 235h3M370 235h3M375 235h3M380 235h3M385 235h3M390 235h3M395 235h3M400 235h3M405 235h3M410 235h3M415 235h3M420 235h3M425 235h3M430 235h3M435 235h3M440 235h3M445 235h3M450 235h3M455 235h3M460 235h3M465 235h3M470 235h3M475 235h3M480 235h3M485 235h3M490 235h3M495 235h3M500 235h3M505 235h3M510 235h3M515 235h3M520 235h3M525 235h3M530 235h3M535 235h3M540 235h3M545 235h3M550 235h3M555 235h3M560 235h3M565 235h3M570 235h3M575 235h3M580 235h3M585 235h3M590 235h3M595 235h3M600 235h3M605 235h3M610 235h3M615 235h3M620 235h3M625 235h3M630 235h3M635 235h3M640 235h3M645 235h3M650 235h3M655 235h3M660 235h3M665 235h3M670 235h3M675 235h3M680 235h3M685 235h3M690 235h3M695 235h3M700 235h3M705 235h3M710 235h3M715 235h3M720 235h3M725 235h3M730 235h3M735 235h3M740 235h3M745 235h3M750 235h3M755 235h3M760 235h3M765 235h3M770 235h3M775 235h3M780 235h3M785 235h3M790 235h3M795 235h3M800 235h3M805 235h3M810 235h3M815 235h3M820 235h3M825 235h3M830 235h3M835 235h3M840 235h3M845 235h3M850 235h1M1 236h1M3 236h2M6 236h1M8 236h2M11 236h1M13 236h2M16 236h1M18 236h2M21 236h1M23 236h2M26 236h1M28 236h2M31 236h1M33 236h2M36 236h1M38 236h2M41 236h1M43 236h2M46 236h1M48 236h2M51 236h1M53 236h2M56 236h1M58 236h2M61 236h1M63 236h2M66 236h1M68 236h2M71 236h1M73 236h2M76 236h1M78 236h2M81 236h1M83 236h2M86 236h1M88 236h2M91 236h1M93 236h2M96 236h1M98 236h2M101 236h1M103 236h2M106 236h1M108 236h2M111 236h1M113 236h2M116 236h1M118 236h2M121 236h1M123 236h2M126 236h1M128 236h2M131 236h1M133 236h2M136 236h1M138 236h2M141 236h1M143 236h2M146 236h1M148 236h2M151 236h1M153 236h2M156 236h1M158 236h2M161 236h1M163 236h2M166 236h1M168 236h2M171 236h1M173 236h2M176 236h1M178 236h2M181 236h1M183 236h2M186 236h1M188 236h2M191 236h1M193 236h2M196 236h1M198 236h2M201 236h1M203 236h2M206 236h1M208 236h2M211 236h1M213 236h2M216 236h1M218 236h2M221 236h1M223 236h2M226 236h1M228 236h2M231 236h1M233 236h2M236 236h1M238 236h2M241 236h1M243 236h2M246 236h1M248 236h2M251 236h1M253 236h2M256 236h1M258 236h2M261 236h1M263 236h2M266 236h1M268 236h2M271 236h1M273 236h2M276 236h1M278 236h2M281 236h1M283 236h2M286 236h1M288 236h2M291 236h1M293 236h2M296 236h1M298 236h2M301 236h1M303 236h2M306 236h1M308 236h2M311 236h1M313 236h2M316 236h1M318 236h2M321 236h1M323 236h2M326 236h1M328 236h2M331 236h1M333 236h2M336 236h1M338 236h2M341 236h1M343 236h2M346 236h1M348 236h2M351 236h1M353 236h2M356 236h1M358 236h2M361 236h1M363 236h2M366 236h1M368 236h2M371 236h1M373 236h2M376 236h1M378 236h2M381 236h1M383 236h2M386 236h1M388 236h2M391 236h1M393 236h2M396 236h1M398 236h2M401 236h1M403 236h2M406 236h1M408 236h2M411 236h1M413 236h2M416 236h1M418 236h2M421 236h1M423 236h2M426 236h1M428 236h2M431 236h1M433 236h2M436 236h1M438 236h2M441 236h1M443 236h2M446 236h1M448 236h2M451 236h1M453 236h2M456 236h1M458 236h2M461 236h1M463 236h2M466 236h1M468 236h2M471 236h1M473 236h2M476 236h1M478 236h2M481 236h1M483 236h2M486 236h1M488 236h2M491 236h1M493 236h2M496 236h1M498 236h2M501 236h1M503 236h2M506 236h1M508 236h2M511 236h1M513 236h2M516 236h1M518 236h2M521 236h1M523 236h2M526 236h1M528 236h2M531 236h1M533 236h2M536 236h1M538 236h2M541 236h1M543 236h2M546 236h1M548 236h2M551 236h1M553 236h2M556 236h1M558 236h2M561 236h1M563 236h2M566 236h1M568 236h2M571 236h1M573 236h2M576 236h1M578 236h2M581 236h1M583 236h2M586 236h1M588 236h2M591 236h1M593 236h2M596 236h1M598 236h2M601 236h1M603 236h2M606 236h1M608 236h2M611 236h1M613 236h2M616 236h1M618 236h2M621 236h1M623 236h2M626 236h1M628 236h2M631 236h1M633 236h2M636 236h1M638 236h2M641 236h1M643 236h2M646 236h1M648 236h2M651 236h1M653 236h2M656 236h1M658 236h2M661 236h1M663 236h2M666 236h1M668 236h2M671 236h1M673 236h2M676 236h1M678 236h2M681 236h1M683 236h2M686 236h1M688 236h2M691 236h1M693 236h2M696 236h1M698 236h2M701 236h1M703 236h2M706 236h1M708 236h2M711 236h1M713 236h2M716 236h1M718 236h2M721 236h1M723 236h2M726 236h1M728 236h2M731 236h1M733 236h2M736 236h1M738 236h2M741 236h1M743 236h2M746 236h1M748 236h2M751 236h1M753 236h2M756 236h1M758 236h2M761 236h1M763 236h2M766 236h1M768 236h2M771 236h1M773 236h2M776 236h1M778 236h2M781 236h1M783 236h2M786 236h1M788 236h2M791 236h1M793 236h2M796 236h1M798 236h2M801 236h1M803 236h2M806 236h1M808 236h2M811 236h1M813 236h2M816 236h1M818 236h2M821 236h1M823 236h2M826 236h1M828 236h2M831 236h1M833 236h2M836 236h1M838 236h2M841 236h1M843 236h2M846 236h1M848 236h2M0 237h1M2 237h4M7 237h4M12 237h4M17 237h4M22 237h4M27 237h4M32 237h4M37 237h4M42 237h4M47 237h4M52 237h4M57 237h4M62 237h4M67 237h4M72 237h4M77 237h4M82 237h4M87 237h4M92 237h4M97 237h4M102 237h4M107 237h4M112 237h4M117 237h4M122 237h4M127 237h4M132 237h4M137 237h4M142 237h4M147 237h4M152 237h4M157 237h4M162 237h4M167 237h4M172 237h4M177 237h4M182 237h4M187 237h4M192 237h4M197 237h4M202 237h4M207 237h4M212 237h4M217 237h4M222 237h4M227 237h4M232 237h4M237 237h4M242 237h4M247 237h4M252 237h4M257 237h4M262 237h4M267 237h4M272 237h4M277 237h4M282 237h4M287 237h4M292 237h4M297 237h4M302 237h4M307 237h4M312 237h4M317 237h4M322 237h4M327 237h4M332 237h4M337 237h4M342 237h4M347 237h4M352 237h4M357 237h4M362 237h4M367 237h4M372 237h4M377 237h4M382 237h4M387 237h4M392 237h4M397 237h4M402 237h4M407 237h4M412 237h4M417 237h4M422 237h4M427 237h4M432 237h4M437 237h4M442 237h4M447 237h4M452 237h4M457 237h4M462 237h4M467 237h4M472 237h4M477 237h4M482 237h4M487 237h4M492 237h4M497 237h4M502 237h4M507 237h4M512 237h4M517 237h4M522 237h4M527 237h4M532 237h4M537 237h4M542 237h4M547 237h4M552 237h4M557 237h4M562 237h4M567 237h4M572 237h4M577 237h4M582 237h4M587 237h4M592 237h4M597 237h4M602 237h4M607 237h4M612 237h4M617 237h4M622 237h4M627 237h4M632 237h4M637 237h4M642 237h4M647 237h4M652 237h4M657 237h4M662 237h4M667 237h4M672 237h4M677 237h4M682 237h4M687 237h4M692 237h4M697 237h4M702 237h4M707 237h4M712 237h4M717 237h4M722 237h4M727 237h4M732 237h4M737 237h4M742 237h4M747 237h4M752 237h4M757 237h4M762 237h4M767 237h4M772 237h4M777 237h4M782 237h4M787 237h4M792 237h4M797 237h4M802 237h4M807 237h4M812 237h4M817 237h4M822 237h4M827 237h4M832 237h4M837 237h4M842 237h4M847 237h4M1 238h1M3 238h2M6 238h1M8 238h2M11 238h1M13 238h2M16 238h1M18 238h2M21 238h1M23 238h2M26 238h1M28 238h2M31 238h1M33 238h2M36 238h1M38 238h2M41 238h1M43 238h2M46 238h1M48 238h2M51 238h1M53 238h2M56 238h1M58 238h2M61 238h1M63 238h2M66 238h1M68 238h2M71 238h1M73 238h2M76 238h1M78 238h2M81 238h1M83 238h2M86 238h1M88 238h2M91 238h1M93 238h2M96 238h1M98 238h2M101 238h1M103 238h2M106 238h1M108 238h2M111 238h1M113 238h2M116 238h1M118 238h2M121 238h1M123 238h2M126 238h1M128 238h2M131 238h1M133 238h2M136 238h1M138 238h2M141 238h1M143 238h2M146 238h1M148 238h2M151 238h1M153 238h2M156 238h1M158 238h2M161 238h1M163 238h2M166 238h1M168 238h2M171 238h1M173 238h2M176 238h1M178 238h2M181 238h1M183 238h2M186 238h1M188 238h2M191 238h1M193 238h2M196 238h1M198 238h2M201 238h1M203 238h2M206 238h1M208 238h2M211 238h1M213 238h2M216 238h1M218 238h2M221 238h1M223 238h2M226 238h1M228 238h2M231 238h1M233 238h2M236 238h1M238 238h2M241 238h1M243 238h2M246 238h1M248 238h2M251 238h1M253 238h2M256 238h1M258 238h2M261 238h1M263 238h2M266 238h1M268 238h2M271 238h1M273 238h2M276 238h1M278 238h2M281 238h1M283 238h2M286 238h1M288 238h2M291 238h1M293 238h2M296 238h1M298 238h2M301 238h1M303 238h2M306 238h1M308 238h2M311 238h1M313 238h2M316 238h1M318 238h2M321 238h1M323 238h2M326 238h1M328 238h2M331 238h1M333 238h2M336 238h1M338 238h2M341 238h1M343 238h2M346 238h1M348 238h2M351 238h1M353 238h2M356 238h1M358 238h2M361 238h1M363 238h2M366 238h1M368 238h2M371 238h1M373 238h2M376 238h1M378 238h2M381 238h1M383 238h2M386 238h1M388 238h2M391 238h1M393 238h2M396 238h1M398 238h2M401 238h1M403 238h2M406 238h1M408 238h2M411 238h1M413 238h2M416 238h1M418 238h2M421 238h1M423 238h2M426 238h1M428 238h2M431 238h1M433 238h2M436 238h1M438 238h2M441 238h1M443 238h2M446 238h1M448 238h2M451 238h1M453 238h2M456 238h1M458 238h2M461 238h1M463 238h2M466 238h1M468 238h2M471 238h1M473 238h2M476 238h1M478 238h2M481 238h1M483 238h2M486 238h1M488 238h2M491 238h1M493 238h2M496 238h1M498 238h2M501 238h1M503 238h2M506 238h1M508 238h2M511 238h1M513 238h2M516 238h1M518 238h2M521 238h1M523 238h2M526 238h1M528 238h2M531 238h1M533 238h2M536 238h1M538 238h2M541 238h1M543 238h2M546 238h1M548 238h2M551 238h1M553 238h2M556 238h1M558 238h2M561 238h1M563 238h2M566 238h1M568 238h2M571 238h1M573 238h2M576 238h1M578 238h2M581 238h1M583 238h2M586 238h1M588 238h2M591 238h1M593 238h2M596 238h1M598 238h2M601 238h1M603 238h2M606 238h1M608 238h2M611 238h1M613 238h2M616 238h1M618 238h2M621 238h1M623 238h2M626 238h1M628 238h2M631 238h1M633 238h2M636 238h1M638 238h2M641 238h1M643 238h2M646 238h1M648 238h2M651 238h1M653 238h2M656 238h1M658 238h2M661 238h1M663 238h2M666 238h1M668 238h2M671 238h1M673 238h2M676 238h1M678 238h2M681 238h1M683 238h2M686 238h1M688 238h2M691 238h1M693 238h2M696 238h1M698 238h2M701 238h1M703 238h2M706 238h1M708 238h2M711 238h1M713 238h2M716 238h1M718 238h2M721 238h1M723 238h2M726 238h1M728 238h2M731 238h1M733 238h2M736 238h1M738 238h2M741 238h1M743 238h2M746 238h1M748 238h2M751 238h1M753 238h2M756 238h1M758 238h2M761 238h1M763 238h2M766 238h1M768 238h2M771 238h1M773 238h2M776 238h1M778 238h2M781 238h1M783 238h2M786 238h1M788 238h2M791 238h1M793 238h2M796 238h1M798 238h2M801 238h1M803 238h2M806 238h1M808 238h2M811 238h1M813 238h2M816 238h1M818 238h2M821 238h1M823 238h2M826 238h1M828 238h2M831 238h1M833 238h2M836 238h1M838 238h2M841 238h1M843 238h2M846 238h1M848 238h2M0 239h3M5 239h3M10 239h3M15 239h3M20 239h3M25 239h3M30 239h3M35 239h3M40 239h3M45 239h3M50 239h3M55 239h3M60 239h3M65 239h3M70 239h3M75 239h3M80 239h3M85 239h3M90 239h3M95 239h3M100 239h3M105 239h3M110 239h3M115 239h3M120 239h3M125 239h3M130 239h3M135 239h3M140 239h3M145 239h3M150 239h3M155 239h3M160 239h3M165 239h3M170 239h3M175 239h3M180 239h3M185 239h3M190 239h3M195 239h3M200 239h3M205 239h3M210 239h3M215 239h3M220 239h3M225 239h3M230 239h3M235 239h3M240 239h3M245 239h3M250 239h3M255 239h3M260 239h3M265 239h3M270 239h3M275 239h3M280 239h3M285 239h3M290 239h3M295 239h3M300 239h3M305 239h3M310 239h3M315 239h3M320 239h3M325 239h3M330 239h3M335 239h3M340 239h3M345 239h3M350 239h3M355 239h3M360 239h3M365 239h3M370 239h3M375 239h3M380 239h3M385 239h3M390 239h3M395 239h3M400 239h3M405 239h3M410 239h3M415 239h3M420 239h3M425 239h3M430 239h3M435 239h3M440 239h3M445 239h3M450 239h3M455 239h3M460 239h3M465 239h3M470 239h3M475 239h3M480 239h3M485 239h3M490 239h3M495 239h3M500 239h3M505 239h3M510 239h3M515 239h3M520 239h3M525 239h3M530 239h3M535 239h3M540 239h3M545 239h3M550 239h3M555 239h3M560 239h3M565 239h3M570 239h3M575 239h3M580 239h3M585 239h3M590 239h3M595 239h3M600 239h3M605 239h3M610 239h3M615 239h3M620 239h3M625 239h3M630 239h3M635 239h3M640 239h3M645 239h3M650 239h3M655 239h3M660 239h3M665 239h3M670 239h3M675 239h3M680 239h3M685 239h3M690 239h3M695 239h3M700 239h3M705 239h3M710 239h3M715 239h3M720 239h3M725 239h3M730 239h3M735 239h3M740 239h3M745 239h3M750 239h3M755 239h3M760 239h3M765 239h3M770 239h3M775 239h3M780 239h3M785 239h3M790 239h3M795 239h3M800 239h3M805 239h3M810 239h3M815 239h3M820 239h3M825 239h3M830 239h3M835 239h3M840 239h3M845 239h3M850 239h1M0 240h1M2 240h4M7 240h4M12 240h4M17 240h4M22 240h4M27 240h4M32 240h4M37 240h4M42 240h4M47 240h4M52 240h4M57 240h4M62 240h4M67 240h4M72 240h4M77 240h4M82 240h4M87 240h4M92 240h4M97 240h4M102 240h4M107 240h4M112 240h4M117 240h4M122 240h4M127 240h4M132 240h4M137 240h4M142 240h4M147 240h4M152 240h4M157 240h4M162 240h4M167 240h4M172 240h4M177 240h4M182 240h4M187 240h4M192 240h4M197 240h4M202 240h4M207 240h4M212 240h4M217 240h4M222 240h4M227 240h4M232 240h4M237 240h4M242 240h4M247 240h4M252 240h4M257 240h4M262 240h4M267 240h4M272 240h4M277 240h4M282 240h4M287 240h4M292 240h4M297 240h4M302 240h4M307 240h4M312 240h4M317 240h4M322 240h4M327 240h4M332 240h4M337 240h4M342 240h4M347 240h4M352 240h4M357 240h4M362 240h4M367 240h4M372 240h4M377 240h4M382 240h4M387 240h4M392 240h4M397 240h4M402 240h4M407 240h4M412 240h4M417 240h4M422 240h4M427 240h4M432 240h4M437 240h4M442 240h4M447 240h4M452 240h4M457 240h4M462 240h4M467 240h4M472 240h4M477 240h4M482 240h4M487 240h4M492 240h4M497 240h4M502 240h4M507 240h4M512 240h4M517 240h4M522 240h4M527 240h4M532 240h4M537 240h4M542 240h4M547 240h4M552 240h4M557 240h4M562 240h4M567 240h4M572 240h4M577 240h4M582 240h4M587 240h4M592 240h4M597 240h4M602 240h4M607 240h4M612 240h4M617 240h4M622 240h4M627 240h4M632 240h4M637 240h4M642 240h4M647 240h4M652 240h4M657 240h4M662 240h4M667 240h4M672 240h4M677 240h4M682 240h4M687 240h4M692 240h4M697 240h4M702 240h4M707 240h4M712 240h4M717 240h4M722 240h4M727 240h4M732 240h4M737 240h4M742 240h4M747 240h4M752 240h4M757 240h4M762 240h4M767 240h4M772 240h4M777 240h4M782 240h4M787 240h4M792 240h4M797 240h4M802 240h4M807 240h4M812 240h4M817 240h4M822 240h4M827 240h4M832 240h4M837 240h4M842 240h4M847 240h4M3 241h2M8 241h2M13 241h2M18 241h2M23 241h2M28 241h2M33 241h2M38 241h2M43 241h2M48 241h2M53 241h2M58 241h2M63 241h2M68 241h2M73 241h2M78 241h2M83 241h2M88 241h2M93 241h2M98 241h2M103 241h2M108 241h2M113 241h2M118 241h2M123 241h2M128 241h2M133 241h2M138 241h2M143 241h2M148 241h2M153 241h2M158 241h2M163 241h2M168 241h2M173 241h2M178 241h2M183 241h2M188 241h2M193 241h2M198 241h2M203 241h2M208 241h2M213 241h2M218 241h2M223 241h2M228 241h2M233 241h2M238 241h2M243 241h2M248 241h2M253 241h2M258 241h2M263 241h2M268 241h2M273 241h2M278 241h2M283 241h2M288 241h2M293 241h2M298 241h2M303 241h2M308 241h2M313 241h2M318 241h2M323 241h2M328 241h2M333 241h2M338 241h2M343 241h2M348 241h2M353 241h2M358 241h2M363 241h2M368 241h2M373 241h2M378 241h2M383 241h2M388 241h2M393 241h2M398 241h2M403 241h2M408 241h2M413 241h2M418 241h2M423 241h2M428 241h2M433 241h2M438 241h2M443 241h2M448 241h2M453 241h2M458 241h2M463 241h2M468 241h2M473 241h2M478 241h2M483 241h2M488 241h2M493 241h2M498 241h2M503 241h2M508 241h2M513 241h2M518 241h2M523 241h2M528 241h2M533 241h2M538 241h2M543 241h2M548 241h2M553 241h2M558 241h2M563 241h2M568 241h2M573 241h2M578 241h2M583 241h2M588 241h2M593 241h2M598 241h2M603 241h2M608 241h2M613 241h2M618 241h2M623 241h2M628 241h2M633 241h2M638 241h2M643 241h2M648 241h2M653 241h2M658 241h2M663 241h2M668 241h2M673 241h2M678 241h2M683 241h2M688 241h2M693 241h2M698 241h2M703 241h2M708 241h2M713 241h2M718 241h2M723 241h2M728 241h2M733 241h2M738 241h2M743 241h2M748 241h2M753 241h2M758 241h2M763 241h2M768 241h2M773 241h2M778 241h2M783 241h2M788 241h2M793 241h2M798 241h2M803 241h2M808 241h2M813 241h2M818 241h2M823 241h2M828 241h2M833 241h2M838 241h2M843 241h2M848 241h2M0 242h851M0 243h851M0 244h851M0 245h851M0 246h851M0 247h851M0 248h851M0 249h851M0 250h851M0 251h851M0 252h851M0 253h851M0 254h851M0 255h851M0 256h851M0 257h851M0 258h851M0 259h851M0 260h851M0 261h851M0 262h851M0 263h851M0 264h851M0 265h851M0 266h851M0 267h851M0 268h851M0 269h851M0 270h851M0 271h851M0 272h851M0 273h851M0 274h851M0 275h851M0 276h851M0 277h851M0 278h851M0 279h851M0 280h851M0 281h851M0 284h523M524 284h327M0 285h851M0 286h851M0 287h851M0 288h851M0 293h851M0 294h851M0 297h851M0 298h851M0 299h851M0 305h851" />
<path stroke="#281762" d="M3 235h2M8 235h2M13 235h2M18 235h2M23 235h2M28 235h2M33 235h2M38 235h2M43 235h2M48 235h2M53 235h2M58 235h2M63 235h2M68 235h2M73 235h2M78 235h2M83 235h2M88 235h2M93 235h2M98 235h2M103 235h2M108 235h2M113 235h2M118 235h2M123 235h2M128 235h2M133 235h2M138 235h2M143 235h2M148 235h2M153 235h2M158 235h2M163 235h2M168 235h2M173 235h2M178 235h2M183 235h2M188 235h2M193 235h2M198 235h2M203 235h2M208 235h2M213 235h2M218 235h2M223 235h2M228 235h2M233 235h2M238 235h2M243 235h2M248 235h2M253 235h2M258 235h2M263 235h2M268 235h2M273 235h2M278 235h2M283 235h2M288 235h2M293 235h2M298 235h2M303 235h2M308 235h2M313 235h2M318 235h2M323 235h2M328 235h2M333 235h2M338 235h2M343 235h2M348 235h2M353 235h2M358 235h2M363 235h2M368 235h2M373 235h2M378 235h2M383 235h2M388 235h2M393 235h2M398 235h2M403 235h2M408 235h2M413 235h2M418 235h2M423 235h2M428 235h2M433 235h2M438 235h2M443 235h2M448 235h2M453 235h2M458 235h2M463 235h2M468 235h2M473 235h2M478 235h2M483 235h2M488 235h2M493 235h2M498 235h2M503 235h2M508 235h2M513 235h2M518 235h2M523 235h2M528 235h2M533 235h2M538 235h2M543 235h2M548 235h2M553 235h2M558 235h2M563 235h2M568 235h2M573 235h2M578 235h2M583 235h2M588 235h2M593 235h2M598 235h2M603 235h2M608 235h2M613 235h2M618 235h2M623 235h2M628 235h2M633 235h2M638 235h2M643 235h2M648 235h2M653 235h2M658 235h2M663 235h2M668 235h2M673 235h2M678 235h2M683 235h2M688 235h2M693 235h2M698 235h2M703 235h2M708 235h2M713 235h2M718 235h2M723 235h2M728 235h2M733 235h2M738 235h2M743 235h2M748 235h2M753 235h2M758 235h2M763 235h2M768 235h2M773 235h2M778 235h2M783 235h2M788 235h2M793 235h2M798 235h2M803 235h2M808 235h2M813 235h2M818 235h2M823 235h2M828 235h2M833 235h2M838 235h2M843 235h2M848 235h2M0 236h1M2 236h1M5 236h1M7 236h1M10 236h1M12 236h1M15 236h1M17 236h1M20 236h1M22 236h1M25 236h1M27 236h1M30 236h1M32 236h1M35 236h1M37 236h1M40 236h1M42 236h1M45 236h1M47 236h1M50 236h1M52 236h1M55 236h1M57 236h1M60 236h1M62 236h1M65 236h1M67 236h1M70 236h1M72 236h1M75 236h1M77 236h1M80 236h1M82 236h1M85 236h1M87 236h1M90 236h1M92 236h1M95 236h1M97 236h1M100 236h1M102 236h1M105 236h1M107 236h1M110 236h1M112 236h1M115 236h1M117 236h1M120 236h1M122 236h1M125 236h1M127 236h1M130 236h1M132 236h1M135 236h1M137 236h1M140 236h1M142 236h1M145 236h1M147 236h1M150 236h1M152 236h1M155 236h1M157 236h1M160 236h1M162 236h1M165 236h1M167 236h1M170 236h1M172 236h1M175 236h1M177 236h1M180 236h1M182 236h1M185 236h1M187 236h1M190 236h1M192 236h1M195 236h1M197 236h1M200 236h1M202 236h1M205 236h1M207 236h1M210 236h1M212 236h1M215 236h1M217 236h1M220 236h1M222 236h1M225 236h1M227 236h1M230 236h1M232 236h1M235 236h1M237 236h1M240 236h1M242 236h1M245 236h1M247 236h1M250 236h1M252 236h1M255 236h1M257 236h1M260 236h1M262 236h1M265 236h1M267 236h1M270 236h1M272 236h1M275 236h1M277 236h1M280 236h1M282 236h1M285 236h1M287 236h1M290 236h1M292 236h1M295 236h1M297 236h1M300 236h1M302 236h1M305 236h1M307 236h1M310 236h1M312 236h1M315 236h1M317 236h1M320 236h1M322 236h1M325 236h1M327 236h1M330 236h1M332 236h1M335 236h1M337 236h1M340 236h1M342 236h1M345 236h1M347 236h1M350 236h1M352 236h1M355 236h1M357 236h1M360 236h1M362 236h1M365 236h1M367 236h1M370 236h1M372 236h1M375 236h1M377 236h1M380 236h1M382 236h1M385 236h1M387 236h1M390 236h1M392 236h1M395 236h1M397 236h1M400 236h1M402 236h1M405 236h1M407 236h1M410 236h1M412 236h1M415 236h1M417 236h1M420 236h1M422 236h1M425 236h1M427 236h1M430 236h1M432 236h1M435 236h1M437 236h1M440 236h1M442 236h1M445 236h1M447 236h1M450 236h1M452 236h1M455 236h1M457 236h1M460 236h1M462 236h1M465 236h1M467 236h1M470 236h1M472 236h1M475 236h1M477 236h1M480 236h1M482 236h1M485 236h1M487 236h1M490 236h1M492 236h1M495 236h1M497 236h1M500 236h1M502 236h1M505 236h1M507 236h1M510 236h1M512 236h1M515 236h1M517 236h1M520 236h1M522 236h1M525 236h1M527 236h1M530 236h1M532 236h1M535 236h1M537 236h1M540 236h1M542 236h1M545 236h1M547 236h1M550 236h1M552 236h1M555 236h1M557 236h1M560 236h1M562 236h1M565 236h1M567 236h1M570 236h1M572 236h1M575 236h1M577 236h1M580 236h1M582 236h1M585 236h1M587 236h1M590 236h1M592 236h1M595 236h1M597 236h1M600 236h1M602 236h1M605 236h1M607 236h1M610 236h1M612 236h1M615 236h1M617 236h1M620 236h1M622 236h1M625 236h1M627 236h1M630 236h1M632 236h1M635 236h1M637 236h1M640 236h1M642 236h1M645 236h1M647 236h1M650 236h1M652 236h1M655 236h1M657 236h1M660 236h1M662 236h1M665 236h1M667 236h1M670 236h1M672 236h1M675 236h1M677 236h1M680 236h1M682 236h1M685 236h1M687 236h1M690 236h1M692 236h1M695 236h1M697 236h1M700 236h1M702 236h1M705 236h1M707 236h1M710 236h1M712 236h1M715 236h1M717 236h1M720 236h1M722 236h1M725 236h1M727 236h1M730 236h1M732 236h1M735 236h1M737 236h1M740 236h1M742 236h1M745 236h1M747 236h1M750 236h1M752 236h1M755 236h1M757 236h1M760 236h1M762 236h1M765 236h1M767 236h1M770 236h1M772 236h1M775 236h1M777 236h1M780 236h1M782 236h1M785 236h1M787 236h1M790 236h1M792 236h1M795 236h1M797 236h1M800 236h1M802 236h1M805 236h1M807 236h1M810 236h1M812 236h1M815 236h1M817 236h1M820 236h1M822 236h1M825 236h1M827 236h1M830 236h1M832 236h1M835 236h1M837 236h1M840 236h1M842 236h1M845 236h1M847 236h1M850 236h1M1 237h1M6 237h1M11 237h1M16 237h1M21 237h1M26 237h1M31 237h1M36 237h1M41 237h1M46 237h1M51 237h1M56 237h1M61 237h1M66 237h1M71 237h1M76 237h1M81 237h1M86 237h1M91 237h1M96 237h1M101 237h1M106 237h1M111 237h1M116 237h1M121 237h1M126 237h1M131 237h1M136 237h1M141 237h1M146 237h1M151 237h1M156 237h1M161 237h1M166 237h1M171 237h1M176 237h1M181 237h1M186 237h1M191 237h1M196 237h1M201 237h1M206 237h1M211 237h1M216 237h1M221 237h1M226 237h1M231 237h1M236 237h1M241 237h1M246 237h1M251 237h1M256 237h1M261 237h1M266 237h1M271 237h1M276 237h1M281 237h1M286 237h1M291 237h1M296 237h1M301 237h1M306 237h1M311 237h1M316 237h1M321 237h1M326 237h1M331 237h1M336 237h1M341 237h1M346 237h1M351 237h1M356 237h1M361 237h1M366 237h1M371 237h1M376 237h1M381 237h1M386 237h1M391 237h1M396 237h1M401 237h1M406 237h1M411 237h1M416 237h1M421 237h1M426 237h1M431 237h1M436 237h1M441 237h1M446 237h1M451 237h1M456 237h1M461 237h1M466 237h1M471 237h1M476 237h1M481 237h1M486 237h1M491 237h1M496 237h1M501 237h1M506 237h1M511 237h1M516 237h1M521 237h1M526 237h1M531 237h1M536 237h1M541 237h1M546 237h1M551 237h1M556 237h1M561 237h1M566 237h1M571 237h1M576 237h1M581 237h1M586 237h1M591 237h1M596 237h1M601 237h1M606 237h1M611 237h1M616 237h1M621 237h1M626 237h1M631 237h1M636 237h1M641 237h1M646 237h1M651 237h1M656 237h1M661 237h1M666 237h1M671 237h1M676 237h1M681 237h1M686 237h1M691 237h1M696 237h1M701 237h1M706 237h1M711 237h1M716 237h1M721 237h1M726 237h1M731 237h1M736 237h1M741 237h1M746 237h1M751 237h1M756 237h1M761 237h1M766 237h1M771 237h1M776 237h1M781 237h1M786 237h1M791 237h1M796 237h1M801 237h1M806 237h1M811 237h1M816 237h1M821 237h1M826 237h1M831 237h1M836 237h1M841 237h1M846 237h1M0 238h1M2 238h1M5 238h1M7 238h1M10 238h1M12 238h1M15 238h1M17 238h1M20 238h1M22 238h1M25 238h1M27 238h1M30 238h1M32 238h1M35 238h1M37 238h1M40 238h1M42 238h1M45 238h1M47 238h1M50 238h1M52 238h1M55 238h1M57 238h1M60 238h1M62 238h1M65 238h1M67 238h1M70 238h1M72 238h1M75 238h1M77 238h1M80 238h1M82 238h1M85 238h1M87 238h1M90 238h1M92 238h1M95 238h1M97 238h1M100 238h1M102 238h1M105 238h1M107 238h1M110 238h1M112 238h1M115 238h1M117 238h1M120 238h1M122 238h1M125 238h1M127 238h1M130 238h1M132 238h1M135 238h1M137 238h1M140 238h1M142 238h1M145 238h1M147 238h1M150 238h1M152 238h1M155 238h1M157 238h1M160 238h1M162 238h1M165 238h1M167 238h1M170 238h1M172 238h1M175 238h1M177 238h1M180 238h1M182 238h1M185 238h1M187 238h1M190 238h1M192 238h1M195 238h1M197 238h1M200 238h1M202 238h1M205 238h1M207 238h1M210 238h1M212 238h1M215 238h1M217 238h1M220 238h1M222 238h1M225 238h1M227 238h1M230 238h1M232 238h1M235 238h1M237 238h1M240 238h1M242 238h1M245 238h1M247 238h1M250 238h1M252 238h1M255 238h1M257 238h1M260 238h1M262 238h1M265 238h1M267 238h1M270 238h1M272 238h1M275 238h1M277 238h1M280 238h1M282 238h1M285 238h1M287 238h1M290 238h1M292 238h1M295 238h1M297 238h1M300 238h1M302 238h1M305 238h1M307 238h1M310 238h1M312 238h1M315 238h1M317 238h1M320 238h1M322 238h1M325 238h1M327 238h1M330 238h1M332 238h1M335 238h1M337 238h1M340 238h1M342 238h1M345 238h1M347 238h1M350 238h1M352 238h1M355 238h1M357 238h1M360 238h1M362 238h1M365 238h1M367 238h1M370 238h1M372 238h1M375 238h1M377 238h1M380 238h1M382 238h1M385 238h1M387 238h1M390 238h1M392 238h1M395 238h1M397 238h1M400 238h1M402 238h1M405 238h1M407 238h1M410 238h1M412 238h1M415 238h1M417 238h1M420 238h1M422 238h1M425 238h1M427 238h1M430 238h1M432 238h1M435 238h1M437 238h1M440 238h1M442 238h1M445 238h1M447 238h1M450 238h1M452 238h1M455 238h1M457 238h1M460 238h1M462 238h1M465 238h1M467 238h1M470 238h1M472 238h1M475 238h1M477 238h1M480 238h1M482 238h1M485 238h1M487 238h1M490 238h1M492 238h1M495 238h1M497 238h1M500 238h1M502 238h1M505 238h1M507 238h1M510 238h1M512 238h1M515 238h1M517 238h1M520 238h1M522 238h1M525 238h1M527 238h1M530 238h1M532 238h1M535 238h1M537 238h1M540 238h1M542 238h1M545 238h1M547 238h1M550 238h1M552 238h1M555 238h1M557 238h1M560 238h1M562 238h1M565 238h1M567 238h1M570 238h1M572 238h1M575 238h1M577 238h1M580 238h1M582 238h1M585 238h1M587 238h1M590 238h1M592 238h1M595 238h1M597 238h1M600 238h1M602 238h1M605 238h1M607 238h1M610 238h1M612 238h1M615 238h1M617 238h1M620 238h1M622 238h1M625 238h1M627 238h1M630 238h1M632 238h1M635 238h1M637 238h1M640 238h1M642 238h1M645 238h1M647 238h1M650 238h1M652 238h1M655 238h1M657 238h1M660 238h1M662 238h1M665 238h1M667 238h1M670 238h1M672 238h1M675 238h1M677 238h1M680 238h1M682 238h1M685 238h1M687 238h1M690 238h1M692 238h1M695 238h1M697 238h1M700 238h1M702 238h1M705 238h1M707 238h1M710 238h1M712 238h1M715 238h1M717 238h1M720 238h1M722 238h1M725 238h1M727 238h1M730 238h1M732 238h1M735 238h1M737 238h1M740 238h1M742 238h1M745 238h1M747 238h1M750 238h1M752 238h1M755 238h1M757 238h1M760 238h1M762 238h1M765 238h1M767 238h1M770 238h1M772 238h1M775 238h1M777 238h1M780 238h1M782 238h1M785 238h1M787 238h1M790 238h1M792 238h1M795 238h1M797 238h1M800 238h1M802 238h1M805 238h1M807 238h1M810 238h1M812 238h1M815 238h1M817 238h1M820 238h1M822 238h1M825 238h1M827 238h1M830 238h1M832 238h1M835 238h1M837 238h1M840 238h1M842 238h1M845 238h1M847 238h1M850 238h1M3 239h2M8 239h2M13 239h2M18 239h2M23 239h2M28 239h2M33 239h2M38 239h2M43 239h2M48 239h2M53 239h2M58 239h2M63 239h2M68 239h2M73 239h2M78 239h2M83 239h2M88 239h2M93 239h2M98 239h2M103 239h2M108 239h2M113 239h2M118 239h2M123 239h2M128 239h2M133 239h2M138 239h2M143 239h2M148 239h2M153 239h2M158 239h2M163 239h2M168 239h2M173 239h2M178 239h2M183 239h2M188 239h2M193 239h2M198 239h2M203 239h2M208 239h2M213 239h2M218 239h2M223 239h2M228 239h2M233 239h2M238 239h2M243 239h2M248 239h2M253 239h2M258 239h2M263 239h2M268 239h2M273 239h2M278 239h2M283 239h2M288 239h2M293 239h2M298 239h2M303 239h2M308 239h2M313 239h2M318 239h2M323 239h2M328 239h2M333 239h2M338 239h2M343 239h2M348 239h2M353 239h2M358 239h2M363 239h2M368 239h2M373 239h2M378 239h2M383 239h2M388 239h2M393 239h2M398 239h2M403 239h2M408 239h2M413 239h2M418 239h2M423 239h2M428 239h2M433 239h2M438 239h2M443 239h2M448 239h2M453 239h2M458 239h2M463 239h2M468 239h2M473 239h2M478 239h2M483 239h2M488 239h2M493 239h2M498 239h2M503 239h2M508 239h2M513 239h2M518 239h2M523 239h2M528 239h2M533 239h2M538 239h2M543 239h2M548 239h2M553 239h2M558 239h2M563 239h2M568 239h2M573 239h2M578 239h2M583 239h2M588 239h2M593 239h2M598 239h2M603 239h2M608 239h2M613 239h2M618 239h2M623 239h2M628 239h2M633 239h2M638 239h2M643 239h2M648 239h2M653 239h2M658 239h2M663 239h2M668 239h2M673 239h2M678 239h2M683 239h2M688 239h2M693 239h2M698 239h2M703 239h2M708 239h2M713 239h2M718 239h2M723 239h2M728 239h2M733 239h2M738 239h2M743 239h2M748 239h2M753 239h2M758 239h2M763 239h2M768 239h2M773 239h2M778 239h2M783 239h2M788 239h2M793 239h2M798 239h2M803 239h2M808 239h2M813 239h2M818 239h2M823 239h2M828 239h2M833 239h2M838 239h2M843 239h2M848 239h2M1 240h1M6 240h1M11 240h1M16 240h1M21 240h1M26 240h1M31 240h1M36 240h1M41 240h1M46 240h1M51 240h1M56 240h1M61 240h1M66 240h1M71 240h1M76 240h1M81 240h1M86 240h1M91 240h1M96 240h1M101 240h1M106 240h1M111 240h1M116 240h1M121 240h1M126 240h1M131 240h1M136 240h1M141 240h1M146 240h1M151 240h1M156 240h1M161 240h1M166 240h1M171 240h1M176 240h1M181 240h1M186 240h1M191 240h1M196 240h1M201 240h1M206 240h1M211 240h1M216 240h1M221 240h1M226 240h1M231 240h1M236 240h1M241 240h1M246 240h1M251 240h1M256 240h1M261 240h1M266 240h1M271 240h1M276 240h1M281 240h1M286 240h1M291 240h1M296 240h1M301 240h1M306 240h1M311 240h1M316 240h1M321 240h1M326 240h1M331 240h1M336 240h1M341 240h1M346 240h1M351 240h1M356 240h1M361 240h1M366 240h1M371 240h1M376 240h1M381 240h1M386 240h1M391 240h1M396 240h1M401 240h1M406 240h1M411 240h1M416 240h1M421 240h1M426 240h1M431 240h1M436 240h1M441 240h1M446 240h1M451 240h1M456 240h1M461 240h1M466 240h1M471 240h1M476 240h1M481 240h1M486 240h1M491 240h1M496 240h1M501 240h1M506 240h1M511 240h1M516 240h1M521 240h1M526 240h1M531 240h1M536 240h1M541 240h1M546 240h1M551 240h1M556 240h1M561 240h1M566 240h1M571 240h1M576 240h1M581 240h1M586 240h1M591 240h1M596 240h1M601 240h1M606 240h1M611 240h1M616 240h1M621 240h1M626 240h1M631 240h1M636 240h1M641 240h1M646 240h1M651 240h1M656 240h1M661 240h1M666 240h1M671 240h1M676 240h1M681 240h1M686 240h1M691 240h1M696 240h1M701 240h1M706 240h1M711 240h1M716 240h1M721 240h1M726 240h1M731 240h1M736 240h1M741 240h1M746 240h1M751 240h1M756 240h1M761 240h1M766 240h1M771 240h1M776 240h1M781 240h1M786 240h1M791 240h1M796 240h1M801 240h1M806 240h1M811 240h1M816 240h1M821 240h1M826 240h1M831 240h1M836 240h1M841 240h1M846 240h1M0 241h3M5 241h3M10 241h3M15 241h3M20 241h3M25 241h3M30 241h3M35 241h3M40 241h3M45 241h3M50 241h3M55 241h3M60 241h3M65 241h3M70 241h3M75 241h3M80 241h3M85 241h3M90 241h3M95 241h3M100 241h3M105 241h3M110 241h3M115 241h3M120 241h3M125 241h3M130 241h3M135 241h3M140 241h3M145 241h3M150 241h3M155 241h3M160 241h3M165 241h3M170 241h3M175 241h3M180 241h3M185 241h3M190 241h3M195 241h3M200 241h3M205 241h3M210 241h3M215 241h3M220 241h3M225 241h3M230 241h3M235 241h3M240 241h3M245 241h3M250 241h3M255 241h3M260 241h3M265 241h3M270 241h3M275 241h3M280 241h3M285 241h3M290 241h3M295 241h3M300 241h3M305 241h3M310 241h3M315 241h3M320 241h3M325 241h3M330 241h3M335 241h3M340 241h3M345 241h3M350 241h3M355 241h3M360 241h3M365 241h3M370 241h3M375 241h3M380 241h3M385 241h3M390 241h3M395 241h3M400 241h3M405 241h3M410 241h3M415 241h3M420 241h3M425 241h3M430 241h3M435 241h3M440 241h3M445 241h3M450 241h3M455 241h3M460 241h3M465 241h3M470 241h3M475 241h3M480 241h3M485 241h3M490 241h3M495 241h3M500 241h3M505 241h3M510 241h3M515 241h3M520 241h3M525 241h3M530 241h3M535 241h3M540 241h3M545 241h3M550 241h3M555 241h3M560 241h3M565 241h3M570 241h3M575 241h3M580 241h3M585 241h3M590 241h3M595 241h3M600 241h3M605 241h3M610 241h3M615 241h3M620 241h3M625 241h3M630 241h3M635 241h3M640 241h3M645 241h3M650 241h3M655 241h3M660 241h3M665 241h3M670 241h3M675 241h3M680 241h3M685 241h3M690 241h3M695 241h3M700 241h3M705 241h3M710 241h3M715 241h3M720 241h3M725 241h3M730 241h3M735 241h3M740 241h3M745 241h3M750 241h3M755 241h3M760 241h3M765 241h3M770 241h3M775 241h3M780 241h3M785 241h3M790 241h3M795 241h3M800 241h3M805 241h3M810 241h3M815 241h3M820 241h3M825 241h3M830 241h3M835 241h3M840 241h3M845 241h3M850 241h1" />
<path stroke="#5f3886" d="M0 282h851M0 283h851M523 284h1M0 289h851M0 290h851M0 291h851M0 292h851M0 295h851M0 296h851M0 300h851M0 301h851M0 302h851M0 303h851M0 304h851M0 306h851M0 307h851M0 308h851M0 309h851M0 310h851M0 311h851M0 312h851M0 313h851M0 314h851M0 315h851M0 316h851M0 317h851M0 318h851M0 319h851M0 320h851M0 321h851M0 322h851M0 323h851M0 324h851M0 325h851M0 326h851M0 327h851M0 328h851M0 329h851M0 330h851M0 331h851M0 332h851M0 333h851M0 334h851M0 335h851M0 336h851M0 337h851M0 338h851M0 339h851M0 340h851M0 341h851M0 342h851M0 343h851M0 344h851M0 345h851M0 346h851M0 347h851M0 348h851M0 349h851M0 350h851M0 351h851M0 352h851M0 353h851M0 354h851M0 355h851M0 356h851M0 357h851M0 358h851M0 359h851M0 360h851M0 361h851M0 362h851M0 363h851M0 364h851M0 365h851M0 366h851M0 367h851M0 368h851M0 369h851M0 370h851M0 371h851M0 372h851M0 373h851M0 374h851M0 375h851M0 376h851M0 377h851M0 378h851M0 379h851M0 380h851M0 381h851M0 382h851M0 383h851M0 384h851M0 385h851M0 386h851M0 387h851M0 388h851M0 389h851M0 390h851M0 391h851M0 392h851M0 393h851M0 394h851M0 395h851M0 396h851M0 397h851M0 398h851M0 399h851M0 400h851M0 401h851M0 402h851M0 403h851M0 404h851M0 405h851M0 406h851M0 407h851M0 408h851M0 409h851M0 410h851M0 411h851M0 412h851M0 413h851M0 414h851M0 415h851M0 416h851M0 417h851M0 418h851M0 419h851M0 420h851M0 421h851M0 422h851M0 423h851M0 424h851M0 425h851M0 426h851M0 427h851M0 428h851M0 429h851M0 430h851M0 431h851M0 432h851M0 433h851M0 434h851M0 435h851M0 436h851M0 437h837M0 438h830M0 439h819M0 440h801M0 441h783M0 442h765M0 443h747M0 444h729M0 445h711M0 446h704M0 447h693M0 448h675M0 449h657M0 450h639M0 451h621M0 452h603M0 453h585M0 454h567M2 455h547M8 456h534M9 457h522M10 458h503M10 459h485M11 460h466M11 461h448M12 462h429M12 463h411M13 464h392M13 465h378M14 466h372M14 467h366M15 468h359M16 469h352M16 470h346M17 471h339M17 472h333M18 473h326M18 474h320M19 475h313M20 476h306M20 477h300M21 478h288M22 479h280M22 480h269M23 481h261M24 482h249M24 483h242M25 484h235M26 485h228M27 486h221M27 487h210M28 488h202M28 489h191M30 490h182M30 491h171M31 492h152M32 493h144M33 494h132M33 495h126M34 496h114M36 497h105M40 498h90M45 499h78M51 500h61M57 501h48M68 502h26" />
<path stroke="#643885" d="M837 437h14M830 438h21M824 439h27M824 440h27M823 441h28M823 442h28M822 443h29M821 444h30M821 445h30M820 446h31M819 447h32M819 448h32M818 449h33M817 450h34M817 451h34M816 452h35M815 453h36M814 454h37M814 455h37M813 456h38M813 457h38M811 458h40M811 459h40M810 460h41M809 461h42M808 462h43M808 463h43M807 464h44M806 465h45M805 466h46M804 467h47M803 468h48M802 469h49M802 470h49M801 471h50M800 472h51M799 473h52M797 474h54M796 475h55M795 476h56M794 477h57M794 478h57M793 479h58M792 480h59M791 481h60M789 482h62M788 483h63M787 484h64M786 485h65M785 486h66M784 487h67M782 488h69M781 489h70M780 490h71M778 491h73M183 492h20M778 492h73M176 493h30M776 493h75M165 494h44M774 494h77M159 495h53M773 495h78M148 496h67M772 496h79M35 497h1M141 497h78M770 497h81M36 498h4M130 498h92M769 498h82M37 499h8M123 499h103M767 499h84M38 500h13M112 500h119M766 500h85M39 501h18M105 501h132M764 501h87M39 502h29M94 502h149M763 502h88M40 503h214M280 503h46M761 503h90M41 504h357M759 504h92M42 505h392M460 505h10M757 505h94" />
<path stroke="#633987" d="M819 439h5M801 440h23M783 441h40M765 442h58M747 443h75M729 444h92M711 445h110M704 446h116M693 447h126M675 448h144M657 449h161M639 450h178M621 451h196M603 452h213M585 453h230M567 454h247M549 455h265M542 456h271M531 457h282M513 458h298M495 459h316M477 460h333M459 461h350M441 462h367M423 463h385M405 464h402M391 465h415M386 466h419M380 467h424M374 468h429M368 469h434M362 470h440M356 471h445M350 472h450M344 473h455M338 474h459M332 475h464M326 476h469M320 477h474M309 478h485M302 479h491M291 480h501M284 481h507M273 482h516M266 483h522M260 484h527M254 485h532M248 486h537M237 487h547M230 488h552M219 489h562M212 490h568M201 491h577M203 492h575M206 493h570M209 494h565M212 495h561M215 496h557M219 497h551M222 498h547M226 499h541M231 500h535M237 501h527M243 502h520M254 503h26M326 503h435M398 504h361M434 505h26M470 505h287" />
<path stroke="#4d327e" d="M0 455h2M0 456h8M0 457h9M0 458h10M0 459h10M0 460h11M0 461h11M0 462h12M0 463h12M0 464h13M0 465h13M0 466h14M0 467h14M0 468h15M0 469h16M0 470h16M0 471h17M0 472h17M0 473h18M0 474h18M0 475h19M0 476h20M0 477h20M0 478h21M0 479h22M0 480h22M0 481h23M0 482h24M0 483h24M1 484h24M3 485h23M5 486h22M7 487h20M9 488h19M12 489h16M15 490h15M17 491h13M20 492h11M23 493h9M26 494h7M29 495h4M33 496h1" />
<path stroke="#50327e" d="M0 484h1M0 485h3M0 486h5M0 487h7M0 488h9M0 489h12M0 490h15M0 491h17M0 492h20M0 493h23M0 494h26M0 495h29M0 496h33M0 497h35M0 498h36M0 499h37M0 500h38M0 501h39M0 502h39M0 503h40M0 504h41M0 505h42" />
<path stroke="#5d4b80" d="M0 506h851M0 507h851M0 508h851M0 509h851M0 510h851M0 511h851M0 512h851M0 513h851M0 514h851M0 515h851M0 516h851M0 517h851M0 518h851M0 519h851M0 520h851M0 521h851M0 522h851M0 523h851M0 524h851M0 525h851M0 526h851M0 527h851M0 528h851M0 529h851M0 530h851M0 531h851M0 532h851M0 533h851M0 534h851M0 535h851M0 536h851M0 537h851M0 538h851M0 539h851M0 540h851M0 541h851M0 542h851M0 543h851M0 544h851M0 545h851M0 546h851M0 547h851M0 548h851M0 549h851M0 550h851M0 551h851M0 552h851M0 553h851M0 554h851M0 555h851M0 556h851M0 557h851M0 558h851M0 559h851M0 560h851M0 561h851M0 562h851M0 563h851M0 564h851M0 565h851M0 566h851M0 567h851M0 568h851M0 569h851M0 570h851M0 571h851M0 572h851M0 573h851M0 574h851M0 575h851M0 576h851M0 577h851M0 578h851M0 579h851M0 580h851M0 581h851M0 582h851M0 583h851M0 584h851M0 585h851M0 586h851M0 587h851M0 588h851M0 589h851M0 590h851M0 591h851M0 592h851M0 593h851M0 594h851M0 595h851M0 596h851M0 597h851M0 598h851M0 599h851" />
</svg>