<svg xmlns="http://www.w3.org/2000/svg" viewBox="0 -0.5 851 600" shape-rendering="crispEdges">
<metadata>Made with Pixels to Svg https://codepen.io/shshaw/pen/XbxvNj</metadata>
<path stroke="rgba(163,183,187,0.25098039215686274)" d="M27 503h791M26 504h1M818 504h1M25 505h1M819 505h1M24 506h1M820 506h1M23 507h1M821 507h1M22 508h1M822 508h1M22 509h1M822 509h1M22 510h1M822 510h1M22 511h1M822 511h1M22 512h1M822 512h1M22 513h1M822 513h1M22 514h1M822 514h1M22 515h1M822 515h1M22 516h1M822 516h1M22 517h1M822 517h1M22 518h1M822 518h1M22 519h1M822 519h1M22 520h1M22 521h1M22 522h1M22 523h1M822 549h1M22 550h1M822 550h1M22 551h1M822 551h1M22 552h1M822 552h1M22 553h1M822 553h1M22 554h1M822 554h1M22 555h1M822 555h1M22 556h1M822 556h1M22 557h1M822 557h1M22 558h1M822 558h1M22 559h1M822 559h1M22 560h1M822 560h1M22 561h1M822 561h1M22 562h1M822 562h1M22 563h1M822 563h1M22 564h1M822 564h1M22 565h1M822 565h1M22 566h1M822 566h1M22 567h1M822 567h1M23 568h1M821 568h1M24 569h1M820 569h1M25 570h1M819 570h1M26 571h1M818 571h1M27 572h791" />
<path stroke="rgba(165,181,186,0.5686274509803921)" d="M27 504h791M26 505h1M818 505h1M25 506h1M819 506h1M24 507h1M820 507h1M23 508h1M821 508h1M23 509h1M821 509h1M23 510h1M821 510h1M23 511h1M821 511h1M23 512h1M821 512h1M23 513h1M821 513h1M23 514h1M821 514h1M23 515h1M821 515h1M23 516h1M821 516h1M23 517h1M821 517h1M23 518h1M821 539h1M821 540h1M821 541h1M821 542h1M821 543h1M821 544h1M821 545h1M821 546h1M821 547h1M821 548h1M23 549h1M821 549h1M23 550h1M821 550h1M23 551h1M821 551h1M23 552h1M821 552h1M23 553h1M821 553h1M23 554h1M821 554h1M23 555h1M821 555h1M23 556h1M821 556h1M23 557h1M821 557h1M23 558h1M821 558h1M23 559h1M821 559h1M23 560h1M821 560h1M23 561h1M821 561h1M23 562h1M821 562h1M23 563h1M821 563h1M23 564h1M821 564h1M23 565h1M821 565h1M23 566h1M821 566h1M23 567h1M821 567h1M24 568h1M820 568h1M25 569h1M819 569h1M26 570h1M818 570h1M27 571h791" />
<path stroke="#032c37" d="M27 505h791M26 506h1M818 506h1M25 507h1M819 507h1M24 508h1M29 508h787M820 508h1M24 509h1M28 509h2M815 509h2M820 509h1M24 510h1M27 510h2M816 510h2M820 510h1M24 511h1M27 511h1M817 511h1M820 511h1M24 512h1M27 512h1M817 512h1M820 512h1M24 513h1M27 513h1M817 513h1M820 513h1M24 514h1M27 514h1M817 514h1M820 514h1M24 515h1M27 515h1M817 515h1M820 515h1M24 516h1M27 516h1M817 516h1M820 516h1M24 517h1M27 517h1M817 517h1M820 517h1M24 518h1M27 518h1M817 518h1M820 518h1M24 519h1M27 519h1M817 519h1M820 519h1M24 520h1M27 520h1M817 520h1M820 520h1M24 521h1M27 521h1M817 521h1M820 521h1M24 522h1M27 522h1M817 522h1M820 522h1M24 523h1M27 523h1M817 523h1M820 523h1M24 524h1M27 524h1M817 524h1M820 524h1M24 525h1M27 525h1M817 525h1M820 525h1M24 526h1M27 526h1M817 526h1M820 526h1M24 527h1M27 527h1M817 527h1M820 527h1M24 528h1M27 528h1M817 528h1M820 528h1M24 529h1M27 529h1M817 529h1M820 529h1M24 530h1M27 530h1M817 530h1M820 530h1M24 531h1M27 531h1M817 531h1M820 531h1M24 532h1M27 532h1M817 532h1M820 532h1M24 533h1M27 533h1M817 533h1M820 533h1M24 534h1M27 534h1M817 534h1M820 534h1M24 535h1M27 535h1M817 535h1M820 535h1M24 536h1M27 536h1M817 536h1M820 536h1M24 537h1M27 537h1M817 537h1M820 537h1M24 538h1M27 538h1M817 538h1M820 538h1M24 539h1M27 539h1M817 539h1M820 539h1M24 540h1M27 540h1M817 540h1M820 540h1M24 541h1M27 541h1M817 541h1M820 541h1M24 542h1M27 542h1M817 542h1M820 542h1M24 543h1M27 543h1M817 543h1M820 543h1M24 544h1M27 544h1M817 544h1M820 544h1M24 545h1M27 545h1M817 545h1M820 545h1M24 546h1M27 546h1M817 546h1M820 546h1M24 547h1M27 547h1M817 547h1M820 547h1M24 548h1M27 548h1M817 548h1M820 548h1M24 549h1M27 549h1M817 549h1M820 549h1M24 550h1M27 550h1M817 550h1M820 550h1M24 551h1M27 551h1M817 551h1M820 551h1M24 552h1M27 552h1M817 552h1M820 552h1M24 553h1M27 553h1M817 553h1M820 553h1M24 554h1M27 554h1M817 554h1M820 554h1M24 555h1M27 555h1M817 555h1M820 555h1M24 556h1M27 556h1M817 556h1M820 556h1M24 557h1M27 557h1M817 557h1M820 557h1M24 558h1M27 558h1M817 558h1M820 558h1M24 559h1M27 559h1M817 559h1M820 559h1M24 560h1M27 560h1M817 560h1M820 560h1M24 561h1M27 561h1M817 561h1M820 561h1M24 562h1M27 562h1M817 562h1M820 562h1M24 563h1M27 563h1M817 563h1M820 563h1M24 564h1M27 564h1M817 564h1M820 564h1M24 565h1M27 565h2M816 565h2M820 565h1M24 566h1M28 566h2M815 566h2M820 566h1M24 567h1M29 567h787M820 567h1M25 568h1M819 568h1M26 569h1M818 569h1M27 570h791" />
<path stroke="#044858" d="M27 506h791M26 507h1M818 507h1M25 508h1M27 508h2M816 508h2M819 508h1M25 509h1M27 509h1M817 509h1M819 509h1M25 510h1M819 510h1M25 511h1M819 511h1M25 512h1M819 512h1M25 513h1M819 513h1M25 514h1M819 514h1M25 515h1M819 515h1M25 516h1M819 516h1M25 517h1M819 517h1M25 518h1M819 518h1M25 519h1M819 519h1M25 520h1M819 520h1M25 521h1M819 521h1M25 522h1M819 522h1M25 523h1M819 523h1M25 524h1M819 524h1M25 525h1M819 525h1M25 526h1M819 526h1M25 527h1M819 527h1M25 528h1M819 528h1M25 529h1M819 529h1M25 530h1M819 530h1M25 531h1M819 531h1M25 532h1M819 532h1M25 533h1M819 533h1M25 534h1M819 534h1M25 535h1M819 535h1M25 536h1M819 536h1M25 537h1M819 537h1M25 538h1M819 538h1M25 539h1M819 539h1M25 540h1M819 540h1M25 541h1M819 541h1M25 542h1M819 542h1M25 543h1M819 543h1M25 544h1M819 544h1M25 545h1M819 545h1M25 546h1M819 546h1M25 547h1M819 547h1M25 548h1M819 548h1M25 549h1M819 549h1M25 550h1M819 550h1M25 551h1M819 551h1M25 552h1M819 552h1M25 553h1M819 553h1M25 554h1M819 554h1M25 555h1M819 555h1M25 556h1M819 556h1M25 557h1M819 557h1M25 558h1M819 558h1M25 559h1M819 559h1M25 560h1M819 560h1M25 561h1M819 561h1M25 562h1M819 562h1M25 563h1M819 563h1M25 564h1M819 564h1M25 565h1M819 565h1M25 566h1M27 566h1M817 566h1M819 566h1M25 567h1M27 567h2M816 567h2M819 567h1M26 568h1M818 568h1M27 569h791" />
<path stroke="#7fc4cb" d="M27 507h791M26 508h1M818 508h1M26 509h1M818 509h1M26 510h1M818 510h1M26 511h1M818 511h1M26 512h1M818 512h1M26 513h1M818 513h1M26 514h1M818 514h1M26 515h1M818 515h1M26 516h1M818 516h1M26 517h1M818 517h1M26 518h1M818 518h1M26 519h1M818 519h1M26 520h1M818 520h1M26 521h1M818 521h1M26 522h1M818 522h1M26 523h1M818 523h1M26 524h1M818 524h1M26 525h1M818 525h1M26 526h1M818 526h1M26 527h1M818 527h1M26 528h1M818 528h1M26 529h1M818 529h1M26 530h1M818 530h1M26 531h1M818 531h1M26 532h1M818 532h1M26 533h1M818 533h1M26 534h1M818 534h1M26 535h1M818 535h1M26 536h1M818 536h1M26 537h1M818 537h1M26 538h1M818 538h1M26 539h1M818 539h1M26 540h1M818 540h1M26 541h1M818 541h1M26 542h1M818 542h1M26 543h1M818 543h1M26 544h1M818 544h1M26 545h1M818 545h1M26 546h1M818 546h1M26 547h1M818 547h1M26 548h1M818 548h1M26 549h1M818 549h1M26 550h1M818 550h1M26 551h1M818 551h1M26 552h1M818 552h1M26 553h1M818 553h1M26 554h1M818 554h1M26 555h1M818 555h1M26 556h1M818 556h1M26 557h1M818 557h1M26 558h1M818 558h1M26 559h1M818 559h1M26 560h1M818 560h1M26 561h1M818 561h1M26 562h1M818 562h1M26 563h1M818 563h1M26 564h1M818 564h1M26 565h1M818 565h1M26 566h1M818 566h1M26 567h1M818 567h1M27 568h791" />
<path stroke="rgba(175,228,232,0.7019607843137254)" d="M30 509h785M29 510h787M28 511h789M28 512h789M28 513h789M28 514h789M28 515h789M28 516h789M28 517h14M53 517h448M503 517h3M509 517h60M581 517h236M28 518h14M53 518h447M503 518h3M509 518h60M582 518h235M28 519h14M55 519h446M509 519h60M581 519h236M28 520h16M47 520h5M55 520h447M507 520h64M574 520h3M580 520h237M28 521h16M47 521h5M55 521h447M507 521h64M574 521h3M580 521h237M28 522h16M47 522h5M55 522h516M574 522h3M580 522h237M28 523h16M47 523h5M55 523h2M62 523h6M75 523h1M86 523h1M93 523h1M99 523h1M110 523h3M118 523h3M131 523h1M138 523h3M148 523h1M153 523h3M162 523h5M174 523h1M185 523h1M192 523h8M206 523h1M212 523h3M219 523h5M230 523h1M236 523h1M243 523h1M249 523h1M256 523h1M262 523h3M270 523h6M281 523h3M294 523h3M303 523h3M314 523h18M338 523h1M344 523h3M353 523h8M367 523h3M380 523h3M389 523h8M403 523h1M409 523h3M417 523h7M428 523h2M434 523h3M443 523h3M455 523h4M466 523h3M475 523h1M479 523h1M485 523h1M492 523h1M498 523h1M505 523h1M511 523h5M523 523h1M530 523h1M536 523h3M543 523h5M553 523h1M558 523h13M574 523h3M580 523h4M589 523h5M604 523h1M611 523h3M621 523h1M624 523h2M630 523h3M638 523h7M655 523h1M661 523h1M668 523h1M676 523h1M681 523h1M689 523h1M693 523h1M698 523h3M706 523h7M720 523h1M725 523h3M733 523h7M747 523h1M752 523h1M763 523h1M775 523h1M782 523h1M788 523h29M28 524h16M47 524h5M55 524h2M62 524h6M86 524h1M99 524h1M111 524h2M118 524h2M138 524h3M154 524h2M163 524h4M185 524h1M193 524h6M206 524h1M212 524h3M220 524h3M230 524h1M236 524h1M249 524h1M262 524h3M270 524h6M281 524h2M294 524h2M303 524h3M315 524h17M344 524h3M353 524h7M367 524h3M380 524h3M390 524h7M409 524h3M417 524h7M434 524h3M444 524h2M455 524h4M466 524h2M475 524h1M479 524h1M492 524h1M505 524h1M511 524h5M523 524h1M536 524h3M544 524h4M553 524h1M559 524h12M574 524h3M580 524h4M589 524h4M604 524h1M612 524h2M630 524h3M638 524h7M655 524h1M661 524h1M689 524h1M693 524h1M699 524h2M706 524h7M726 524h2M733 524h7M782 524h1M788 524h29M28 525h16M55 525h2M63 525h3M86 525h1M99 525h1M119 525h2M131 525h1M138 525h3M153 525h1M164 525h1M185 525h1M192 525h8M206 525h1M212 525h3M221 525h3M230 525h1M236 525h1M249 525h1M256 525h1M262 525h3M271 525h3M282 525h1M294 525h1M303 525h3M314 525h18M338 525h1M344 525h1M355 525h6M369 525h1M380 525h1M391 525h6M403 525h1M409 525h1M418 525h6M434 525h1M445 525h1M468 525h1M475 525h1M479 525h1M485 525h1M498 525h1M511 525h5M523 525h1M530 525h1M536 525h3M545 525h3M553 525h1M558 525h13M574 525h3M580 525h4M591 525h3M604 525h1M611 525h3M630 525h1M639 525h6M655 525h1M661 525h1M668 525h1M681 525h1M689 525h1M693 525h1M698 525h1M707 525h6M725 525h1M734 525h6M752 525h1M763 525h1M775 525h1M788 525h29M28 526h16M53 526h8M64 526h2M69 526h3M82 526h1M86 526h3M97 526h3M103 526h1M114 526h3M120 526h2M125 526h1M129 526h4M136 526h7M146 526h2M152 526h2M157 526h4M168 526h3M181 526h1M185 526h3M191 526h10M204 526h3M210 526h8M221 526h4M228 526h3M234 526h5M247 526h5M255 526h2M260 526h9M272 526h2M277 526h3M290 526h1M298 526h2M303 526h3M309 526h1M313 526h21M337 526h2M342 526h3M348 526h4M355 526h11M369 526h1M380 526h1M384 526h4M392 526h7M402 526h2M407 526h3M413 526h3M419 526h7M432 526h3M438 526h4M446 526h2M451 526h3M460 526h5M468 526h2M473 526h3M479 526h1M483 526h4M490 526h1M496 526h4M503 526h1M509 526h11M523 526h3M529 526h2M534 526h8M545 526h5M553 526h1M557 526h14M574 526h3M580 526h8M591 526h4M598 526h1M602 526h5M610 526h6M619 526h2M628 526h3M634 526h3M640 526h7M653 526h5M661 526h2M667 526h4M674 526h2M680 526h4M687 526h3M693 526h1M697 526h2M702 526h3M708 526h7M718 526h2M724 526h2M729 526h3M735 526h7M745 526h1M751 526h4M758 526h1M762 526h2M767 526h1M771 526h1M775 526h2M780 526h1M786 526h31M28 527h16M53 527h4M64 527h2M69 527h3M75 527h1M78 527h1M82 527h1M86 527h3M97 527h3M103 527h1M107 527h1M110 527h1M120 527h2M125 527h1M129 527h4M140 527h3M152 527h2M157 527h4M168 527h3M174 527h1M177 527h1M181 527h1M185 527h3M194 527h7M210 527h5M221 527h4M234 527h5M247 527h5M260 527h5M272 527h2M283 527h1M286 527h1M290 527h1M298 527h2M303 527h3M313 527h7M326 527h8M342 527h3M348 527h4M355 527h8M369 527h1M380 527h1M384 527h4M392 527h7M407 527h3M419 527h7M432 527h3M438 527h4M446 527h2M451 527h3M460 527h5M468 527h2M473 527h3M479 527h1M483 527h4M496 527h4M509 527h9M523 527h3M534 527h5M545 527h5M556 527h15M574 527h3M580 527h4M591 527h4M598 527h1M602 527h5M613 527h3M619 527h2M628 527h3M640 527h7M653 527h5M661 527h1M666 527h5M680 527h4M687 527h3M693 527h1M697 527h2M708 527h7M724 527h2M735 527h7M751 527h4M758 527h1M762 527h2M767 527h1M771 527h1M775 527h2M786 527h31M28 528h16M47 528h10M64 528h2M69 528h10M82 528h7M97 528h7M107 528h4M120 528h2M125 528h1M129 528h4M140 528h3M152 528h2M157 528h4M168 528h10M181 528h7M194 528h7M210 528h5M221 528h4M234 528h5M247 528h5M260 528h5M272 528h2M283 528h4M290 528h4M298 528h10M313 528h7M327 528h7M342 528h3M348 528h4M355 528h7M369 528h4M377 528h4M384 528h4M392 528h7M407 528h3M419 528h8M431 528h4M438 528h4M446 528h2M451 528h3M460 528h5M468 528h2M473 528h3M479 528h1M483 528h4M492 528h1M496 528h4M505 528h1M509 528h9M521 528h5M534 528h5M545 528h5M555 528h16M574 528h3M580 528h4M591 528h4M598 528h1M602 528h5M613 528h3M619 528h2M628 528h3M640 528h7M653 528h5M661 528h1M665 528h6M680 528h4M687 528h3M693 528h1M697 528h2M708 528h7M724 528h2M735 528h7M751 528h4M758 528h1M762 528h6M771 528h6M782 528h1M786 528h31M28 529h16M47 529h8M64 529h2M69 529h10M82 529h7M93 529h1M97 529h7M107 529h4M119 529h3M125 529h1M129 529h4M140 529h3M152 529h2M157 529h4M168 529h10M181 529h7M194 529h7M210 529h3M221 529h5M234 529h5M243 529h1M247 529h5M260 529h3M272 529h2M282 529h5M290 529h4M298 529h8M313 529h7M326 529h8M342 529h3M348 529h4M355 529h8M369 529h4M377 529h4M384 529h4M392 529h7M407 529h3M418 529h8M432 529h3M438 529h4M446 529h2M451 529h3M460 529h5M468 529h2M473 529h3M479 529h1M483 529h4M492 529h1M496 529h4M505 529h1M509 529h9M523 529h3M534 529h3M545 529h5M556 529h13M574 529h3M580 529h2M591 529h4M598 529h1M602 529h5M613 529h3M619 529h2M628 529h3M639 529h8M653 529h5M665 529h6M680 529h4M687 529h3M693 529h1M697 529h2M707 529h8M724 529h2M734 529h8M751 529h2M758 529h1M762 529h6M771 529h6M782 529h1M786 529h31M28 530h15M48 530h7M65 530h1M74 530h4M83 530h5M93 530h1M98 530h5M108 530h3M119 530h2M125 530h1M130 530h2M140 530h2M147 530h1M153 530h1M173 530h4M182 530h5M194 530h6M205 530h2M211 530h2M222 530h8M235 530h3M243 530h1M248 530h3M256 530h1M261 530h2M273 530h1M282 530h4M291 530h3M302 530h3M309 530h1M314 530h19M338 530h1M343 530h2M355 530h6M369 530h4M377 530h4M392 530h6M403 530h1M408 530h2M418 530h7M433 530h2M446 530h2M468 530h1M484 530h2M491 530h2M497 530h2M504 530h2M510 530h7M523 530h2M530 530h1M535 530h2M546 530h3M558 530h2M561 530h7M581 530h1M592 530h2M598 530h1M603 530h3M613 530h2M629 530h2M639 530h7M654 530h6M665 530h11M681 530h2M698 530h1M707 530h7M719 530h1M725 530h1M734 530h7M746 530h1M752 530h1M763 530h4M772 530h4M781 530h2M787 530h2M791 530h26M28 531h14M49 531h7M66 531h1M75 531h2M84 531h3M99 531h3M109 531h3M124 531h2M140 531h1M154 531h1M164 531h2M174 531h2M183 531h3M194 531h5M206 531h1M212 531h2M223 531h6M236 531h1M249 531h1M262 531h2M274 531h1M283 531h2M292 531h3M303 531h1M309 531h1M315 531h17M344 531h2M354 531h6M368 531h4M378 531h4M391 531h6M409 531h2M419 531h5M434 531h2M445 531h3M456 531h2M467 531h1M492 531h1M505 531h1M511 531h5M523 531h1M536 531h2M547 531h1M562 531h5M582 531h1M597 531h2M604 531h1M613 531h1M630 531h2M640 531h5M649 531h1M655 531h5M664 531h11M699 531h1M708 531h5M726 531h1M735 531h5M764 531h2M773 531h2M782 531h1M792 531h25M28 532h14M49 532h8M66 532h2M75 532h2M84 532h3M99 532h3M109 532h4M124 532h2M140 532h1M154 532h2M163 532h4M174 532h2M183 532h3M194 532h5M206 532h1M212 532h3M223 532h6M236 532h1M249 532h1M262 532h3M274 532h2M283 532h2M292 532h4M303 532h1M309 532h1M315 532h17M344 532h3M353 532h7M367 532h5M378 532h5M390 532h7M409 532h3M419 532h5M434 532h3M444 532h4M455 532h4M466 532h2M492 532h1M505 532h1M511 532h5M523 532h1M536 532h3M547 532h1M562 532h5M582 532h2M597 532h2M604 532h1M613 532h1M630 532h3M640 532h5M648 532h2M655 532h5M663 532h12M699 532h2M708 532h5M726 532h2M735 532h5M764 532h2M773 532h2M782 532h1M792 532h25M28 533h15M48 533h10M65 533h4M74 533h4M83 533h5M93 533h2M98 533h5M108 533h6M119 533h2M123 533h4M130 533h2M139 533h3M147 533h2M153 533h4M162 533h6M173 533h4M182 533h5M193 533h7M205 533h3M211 533h5M222 533h8M235 533h3M243 533h2M248 533h3M256 533h2M261 533h5M273 533h4M282 533h4M291 533h6M302 533h3M308 533h3M314 533h19M338 533h2M343 533h5M352 533h9M366 533h7M377 533h7M389 533h9M403 533h2M408 533h5M418 533h7M428 533h2M433 533h5M443 533h5M454 533h6M465 533h4M484 533h2M491 533h3M497 533h2M504 533h3M510 533h7M522 533h3M530 533h2M535 533h5M546 533h3M554 533h2M558 533h2M561 533h6M582 533h3M592 533h2M596 533h4M603 533h3M612 533h3M629 533h5M639 533h7M647 533h4M654 533h6M663 533h13M681 533h2M698 533h4M707 533h7M719 533h2M725 533h4M734 533h7M746 533h2M752 533h1M764 533h3M772 533h4M781 533h3M787 533h2M791 533h26M28 534h419M452 534h115M570 534h9M582 534h75M663 534h90M756 534h4M764 534h53M28 535h418M453 535h114M570 535h9M582 535h74M662 535h92M755 535h6M763 535h54M28 536h418M453 536h114M570 536h9M581 536h75M661 536h156M28 537h789M28 538h789M28 539h789M28 540h14M53 540h163M221 540h7M240 540h243M491 540h326M28 541h14M53 541h163M221 541h7M240 541h242M491 541h326M28 542h14M55 542h159M222 542h6M240 542h241M491 542h326M28 543h16M47 543h5M55 543h159M217 543h3M223 543h7M233 543h4M240 543h240M484 543h333M28 544h16M47 544h5M55 544h159M217 544h3M223 544h7M233 544h1M236 544h1M240 544h240M484 544h333M28 545h16M47 545h5M55 545h165M223 545h7M236 545h244M484 545h333M28 546h16M62 546h1M68 546h1M79 546h1M86 546h1M92 546h1M103 546h3M111 546h7M124 546h3M145 546h1M151 546h5M163 546h1M168 546h1M177 546h4M185 546h3M198 546h1M206 546h1M213 546h5M222 546h8M236 546h5M248 546h1M251 546h2M257 546h3M264 546h8M284 546h3M293 546h3M306 546h6M316 546h2M322 546h1M330 546h1M335 546h1M346 546h3M356 546h3M365 546h1M373 546h3M380 546h3M393 546h1M402 546h5M412 546h9M428 546h1M433 546h8M447 546h3M456 546h1M462 546h1M470 546h1M475 546h5M489 546h3M496 546h2M504 546h1M515 546h1M521 546h1M528 546h1M540 546h5M553 546h1M561 546h1M568 546h1M576 546h1M580 546h1M585 546h3M593 546h7M608 546h3M616 546h7M629 546h6M641 546h1M647 546h3M654 546h9M674 546h1M683 546h3M690 546h8M706 546h3M715 546h3M729 546h3M738 546h3M749 546h1M757 546h1M764 546h53M28 547h16M53 547h2M62 547h1M79 547h1M92 547h1M103 547h3M111 547h7M125 547h2M145 547h1M151 547h5M178 547h2M185 547h3M198 547h1M213 547h5M221 547h9M236 547h5M257 547h3M265 547h7M284 547h3M293 547h3M307 547h5M322 547h1M347 547h2M356 547h2M365 547h1M373 547h2M380 547h3M393 547h1M403 547h4M412 547h9M434 547h6M447 547h3M462 547h1M476 547h4M489 547h3M504 547h1M521 547h1M540 547h5M561 547h1M576 547h1M580 547h1M586 547h2M593 547h7M609 547h2M616 547h6M629 547h5M641 547h1M647 547h2M654 547h9M683 547h3M691 547h7M706 547h3M716 547h2M729 547h2M738 547h2M749 547h1M764 547h53M28 548h16M68 548h1M79 548h1M92 548h1M103 548h1M112 548h6M126 548h1M151 548h5M168 548h1M178 548h1M187 548h1M198 548h1M206 548h1M213 548h3M221 548h9M236 548h5M257 548h1M266 548h6M284 548h1M295 548h1M306 548h6M322 548h1M335 548h1M346 548h1M358 548h1M365 548h1M373 548h1M382 548h1M393 548h1M404 548h3M414 548h7M433 548h6M449 548h1M456 548h1M462 548h1M475 548h5M491 548h1M497 548h1M504 548h1M515 548h1M521 548h1M528 548h1M540 548h5M561 548h1M568 548h1M576 548h1M580 548h1M585 548h1M595 548h5M609 548h2M618 548h3M629 548h6M641 548h1M647 548h3M656 548h7M674 548h1M683 548h1M692 548h6M706 548h1M717 548h1M729 548h1M740 548h1M749 548h1M757 548h1M764 548h53M28 549h16M47 549h5M55 549h2M60 549h1M66 549h4M73 549h1M77 549h5M90 549h3M103 549h1M107 549h3M113 549h10M126 549h1M130 549h1M134 549h1M138 549h2M143 549h1M149 549h9M161 549h2M167 549h4M174 549h1M182 549h2M187 549h1M198 549h3M204 549h4M212 549h4M219 549h11M236 549h7M246 549h2M255 549h3M261 549h2M266 549h8M277 549h2M282 549h3M288 549h4M295 549h3M301 549h1M305 549h9M320 549h5M328 549h1M334 549h4M341 549h1M345 549h2M350 549h5M358 549h2M365 549h1M371 549h2M377 549h2M382 549h1M393 549h3M399 549h2M405 549h6M414 549h9M426 549h1M432 549h6M442 549h4M449 549h3M455 549h2M460 549h5M468 549h1M474 549h6M484 549h4M491 549h3M497 549h2M502 549h5M510 549h1M514 549h4M521 549h2M527 549h2M532 549h1M536 549h1M540 549h7M550 549h1M554 549h2M559 549h5M567 549h4M574 549h3M580 549h1M584 549h2M589 549h3M595 549h7M605 549h1M609 549h6M618 549h2M624 549h2M629 549h7M639 549h3M645 549h8M656 549h9M668 549h1M672 549h4M679 549h1M683 549h1M687 549h2M692 549h8M706 549h1M710 549h4M718 549h2M723 549h1M727 549h2M733 549h4M740 549h2M745 549h1M749 549h3M755 549h4M763 549h54M28 550h16M47 550h5M55 550h2M66 550h4M73 550h1M77 550h5M90 550h3M103 550h1M113 550h7M126 550h1M130 550h1M134 550h1M138 550h2M149 550h9M161 550h2M167 550h4M177 550h1M187 550h1M198 550h3M207 550h1M212 550h4M219 550h11M233 550h1M236 550h7M246 550h2M255 550h3M266 550h8M277 550h2M282 550h3M288 550h4M295 550h3M301 550h1M305 550h9M320 550h5M334 550h4M341 550h1M345 550h2M350 550h5M358 550h2M371 550h2M382 550h1M393 550h3M399 550h2M405 550h2M414 550h9M432 550h6M442 550h4M449 550h3M460 550h5M474 550h6M484 550h4M491 550h3M497 550h1M502 550h5M510 550h1M514 550h4M521 550h1M526 550h3M532 550h1M536 550h1M540 550h7M553 550h3M563 550h1M567 550h4M574 550h3M580 550h1M584 550h2M595 550h7M608 550h3M618 550h2M624 550h2M629 550h7M645 550h5M656 550h9M668 550h1M672 550h4M683 550h1M692 550h8M703 550h1M706 550h1M710 550h4M718 550h2M723 550h1M727 550h2M733 550h4M740 550h2M749 550h3M758 550h1M763 550h54M28 551h16M47 551h5M55 551h2M62 551h1M66 551h4M73 551h1M77 551h5M90 551h6M100 551h4M113 551h7M126 551h5M134 551h6M145 551h1M149 551h9M161 551h2M167 551h4M176 551h2M187 551h4M195 551h6M212 551h4M219 551h11M233 551h10M246 551h2M255 551h3M266 551h8M277 551h2M282 551h3M288 551h4M295 551h3M301 551h1M305 551h9M319 551h6M334 551h4M341 551h1M345 551h2M350 551h5M358 551h2M363 551h1M367 551h1M371 551h2M382 551h4M390 551h6M399 551h2M405 551h2M414 551h9M432 551h6M442 551h4M449 551h3M460 551h5M474 551h6M484 551h4M491 551h3M500 551h7M510 551h1M514 551h4M521 551h1M525 551h8M536 551h11M552 551h4M563 551h1M567 551h4M574 551h3M580 551h1M584 551h2M595 551h7M607 551h4M618 551h2M624 551h12M645 551h4M656 551h9M668 551h1M672 551h4M681 551h3M692 551h8M703 551h4M710 551h4M718 551h2M723 551h1M727 551h2M733 551h4M740 551h2M747 551h5M763 551h54M28 552h16M47 552h5M55 552h2M62 552h1M66 552h3M73 552h1M77 552h5M86 552h1M90 552h6M100 552h4M112 552h8M126 552h5M134 552h6M145 552h1M149 552h9M161 552h2M167 552h4M177 552h1M187 552h4M195 552h6M212 552h4M219 552h11M233 552h4M240 552h3M246 552h2M255 552h3M266 552h8M277 552h2M282 552h3M288 552h4M295 552h3M301 552h1M305 552h9M320 552h5M334 552h4M341 552h1M345 552h2M350 552h5M358 552h2M363 552h1M367 552h1M371 552h2M382 552h4M390 552h6M399 552h2M414 552h9M432 552h6M442 552h4M449 552h3M460 552h5M474 552h6M484 552h4M491 552h3M500 552h5M510 552h1M514 552h4M525 552h8M536 552h11M553 552h3M563 552h1M567 552h4M574 552h3M580 552h1M584 552h2M595 552h7M608 552h1M618 552h2M624 552h12M645 552h3M656 552h7M668 552h1M672 552h4M683 552h1M692 552h8M703 552h4M710 552h4M718 552h2M723 552h1M727 552h2M733 552h4M740 552h2M749 552h3M763 552h54M28 553h15M55 553h1M61 553h2M67 553h1M78 553h3M86 553h1M91 553h5M100 553h4M112 553h7M126 553h4M135 553h4M144 553h2M150 553h7M168 553h2M186 553h5M195 553h5M212 553h5M218 553h11M240 553h2M256 553h2M265 553h8M278 553h1M283 553h2M295 553h2M301 553h1M306 553h7M321 553h3M329 553h1M335 553h2M341 553h1M346 553h1M358 553h1M363 553h1M367 553h1M372 553h1M381 553h5M390 553h6M415 553h7M427 553h1M433 553h5M449 553h2M456 553h1M461 553h3M469 553h1M475 553h5M491 553h4M500 553h5M515 553h5M525 553h7M537 553h9M554 553h1M568 553h2M585 553h1M594 553h7M619 553h1M628 553h7M640 553h2M646 553h1M657 553h6M673 553h2M683 553h1M691 553h8M704 553h3M718 553h1M723 553h1M728 553h1M740 553h1M749 553h2M763 553h3M767 553h50M28 554h14M54 554h1M62 554h1M79 554h1M92 554h3M101 554h4M113 554h5M125 554h4M136 554h2M145 554h1M151 554h5M178 554h1M187 554h3M196 554h3M213 554h3M219 554h9M240 554h1M257 554h2M266 554h6M284 554h2M294 554h2M300 554h2M307 554h5M322 554h1M340 554h2M347 554h1M357 554h1M363 554h1M367 554h1M373 554h1M382 554h3M391 554h5M404 554h2M416 554h5M434 554h5M448 554h2M462 554h1M476 554h5M490 554h5M499 554h6M516 554h4M524 554h7M538 554h7M586 554h1M595 554h5M609 554h1M620 554h1M629 554h5M641 554h1M647 554h1M658 554h5M683 554h2M692 554h6M705 554h3M717 554h1M722 554h2M729 554h1M739 554h1M749 554h1M764 554h1M768 554h49M28 555h14M53 555h2M62 555h1M79 555h1M92 555h3M101 555h5M113 555h5M125 555h4M136 555h2M145 555h1M151 555h5M178 555h2M187 555h3M196 555h3M213 555h3M219 555h9M240 555h1M257 555h3M266 555h6M284 555h3M293 555h3M299 555h3M307 555h5M322 555h1M339 555h3M347 555h2M356 555h2M363 555h1M367 555h1M373 555h2M382 555h3M391 555h5M403 555h4M416 555h5M434 555h6M447 555h3M462 555h1M476 555h6M489 555h6M499 555h6M516 555h4M523 555h8M538 555h7M586 555h2M595 555h5M609 555h2M620 555h2M629 555h5M641 555h1M647 555h2M658 555h5M683 555h3M692 555h6M705 555h4M716 555h2M721 555h3M729 555h2M738 555h2M749 555h1M764 555h1M768 555h49M28 556h15M52 556h4M61 556h3M67 556h1M79 556h2M86 556h2M91 556h5M100 556h7M112 556h7M124 556h6M135 556h4M144 556h3M150 556h7M169 556h1M177 556h4M186 556h5M195 556h5M212 556h5M218 556h11M239 556h3M257 556h4M265 556h8M278 556h2M283 556h5M292 556h5M298 556h5M306 556h7M318 556h2M321 556h3M329 556h2M335 556h2M338 556h5M346 556h4M355 556h4M362 556h3M366 556h3M372 556h4M381 556h5M390 556h6M402 556h6M415 556h7M427 556h2M433 556h8M446 556h5M456 556h2M461 556h3M469 556h2M475 556h8M488 556h7M499 556h6M516 556h4M523 556h9M537 556h9M553 556h2M568 556h2M585 556h4M594 556h7M608 556h4M619 556h4M628 556h7M640 556h3M646 556h4M657 556h6M674 556h1M682 556h5M691 556h8M704 556h6M715 556h4M720 556h5M728 556h4M737 556h4M748 556h3M763 556h3M767 556h50M28 557h40M72 557h4M79 557h86M169 557h85M257 557h138M400 557h93M499 557h6M508 557h4M516 557h1M523 557h140M666 557h5M674 557h143M28 558h41M71 558h6M78 558h88M168 558h87M256 558h138M401 558h91M498 558h8M507 558h6M515 558h1M522 558h142M665 558h7M673 558h144M28 559h366M401 559h91M496 559h20M521 559h296M28 560h789M28 561h789M28 562h789M28 563h789M28 564h789M29 565h787M30 566h785" />
<path stroke="rgba(162,218,222,0.7215686274509804)" d="M42 517h1M52 517h1M569 517h1M500 518h1M581 518h1M54 519h1M75 524h1M93 524h1M110 524h1M120 524h1M131 524h1M148 524h1M153 524h1M162 524h1M174 524h1M192 524h1M199 524h1M219 524h1M223 524h1M243 524h1M256 524h1M283 524h1M296 524h1M314 524h1M338 524h1M360 524h1M389 524h1M403 524h1M428 524h2M443 524h1M468 524h1M485 524h1M498 524h1M530 524h1M543 524h1M558 524h1M593 524h1M611 524h1M621 524h1M624 524h2M668 524h1M676 524h1M681 524h1M698 524h1M720 524h1M725 524h1M747 524h1M752 524h1M763 524h1M775 524h1M75 525h1M110 525h1M148 525h1M174 525h1M283 525h1M428 525h2M621 525h1M624 525h2M676 525h1M720 525h1M63 526h1M75 526h1M78 526h1M91 526h2M107 526h1M110 526h1M119 526h1M122 526h1M133 526h1M148 526h1M151 526h1M161 526h1M164 526h1M174 526h1M177 526h1M190 526h1M201 526h1M218 526h1M225 526h1M241 526h2M254 526h1M271 526h1M282 526h2M286 526h1M294 526h1M297 526h1M312 526h1M336 526h1M373 526h1M376 526h1M388 526h1M391 526h1M401 526h1M418 526h1M428 526h2M442 526h1M445 526h1M470 526h1M487 526h1M500 526h1M528 526h1M542 526h1M556 526h1M595 526h1M609 526h1M621 526h1M624 526h2M639 526h1M649 526h2M663 526h1M666 526h1M676 526h1M679 526h1M696 526h1M707 526h1M720 526h1M723 526h1M734 526h1M750 526h1M761 526h1M777 526h1M52 527h1M63 527h1M74 527h1M119 527h1M122 527h1M133 527h1M151 527h1M161 527h1M164 527h1M173 527h1M201 527h1M225 527h1M271 527h1M282 527h1M294 527h1M297 527h1M300 527h1M312 527h1M372 527h2M376 527h2M388 527h1M391 527h1M418 527h1M442 527h1M445 527h1M470 527h1M487 527h1M500 527h1M595 527h1M621 527h1M624 527h2M639 527h1M649 527h2M679 527h1M696 527h1M707 527h1M723 527h1M734 527h1M750 527h1M761 527h1M764 527h1M774 527h1M777 527h1M63 528h1M93 528h1M119 528h1M122 528h1M133 528h1M151 528h1M161 528h1M164 528h1M201 528h1M225 528h1M243 528h1M271 528h1M282 528h1M294 528h1M297 528h1M312 528h1M326 528h1M362 528h1M373 528h1M376 528h1M388 528h1M391 528h1M418 528h1M427 528h1M430 528h1M442 528h1M445 528h1M470 528h1M487 528h1M500 528h1M595 528h1M621 528h1M624 528h2M639 528h1M649 528h2M664 528h1M679 528h1M696 528h1M707 528h1M723 528h1M734 528h1M747 528h1M750 528h1M761 528h1M777 528h1M63 529h1M122 529h1M133 529h1M151 529h1M161 529h1M164 529h1M201 529h1M271 529h1M294 529h1M297 529h1M312 529h1M373 529h1M376 529h1M388 529h1M391 529h1M442 529h1M445 529h1M470 529h1M487 529h1M500 529h1M518 529h1M595 529h1M621 529h1M624 529h2M649 529h2M664 529h1M679 529h1M696 529h1M723 529h1M746 529h2M750 529h1M757 529h1M761 529h1M777 529h1M43 530h1M47 530h1M58 530h3M63 530h2M69 530h5M78 530h1M82 530h1M88 530h1M91 530h2M97 530h1M103 530h1M107 530h1M114 530h5M121 530h2M129 530h1M132 530h2M136 530h1M142 530h1M146 530h1M148 530h1M151 530h2M157 530h5M164 530h1M168 530h5M177 530h1M181 530h1M187 530h1M190 530h2M200 530h2M204 530h1M210 530h1M216 530h3M221 530h1M230 530h1M234 530h1M238 530h1M241 530h2M247 530h1M251 530h1M254 530h2M260 530h1M266 530h3M271 530h2M277 530h5M286 530h1M290 530h1M294 530h1M297 530h5M305 530h1M312 530h2M333 530h1M336 530h2M342 530h1M348 530h4M361 530h5M373 530h1M376 530h1M384 530h5M391 530h1M398 530h1M401 530h2M407 530h1M413 530h5M425 530h1M428 530h2M432 530h1M438 530h5M445 530h1M451 530h3M460 530h5M469 530h2M473 530h3M479 530h1M483 530h1M486 530h2M490 530h1M496 530h1M499 530h2M503 530h1M509 530h1M517 530h3M525 530h1M528 530h2M534 530h1M540 530h3M545 530h1M549 530h1M553 530h1M556 530h2M560 530h1M568 530h1M572 530h5M580 530h1M585 530h3M591 530h1M594 530h2M602 530h1M606 530h1M609 530h2M615 530h1M619 530h3M624 530h2M628 530h1M634 530h5M646 530h1M649 530h2M653 530h1M664 530h1M676 530h1M679 530h2M683 530h1M687 530h3M693 530h1M696 530h2M702 530h5M714 530h1M718 530h1M720 530h1M723 530h2M729 530h5M741 530h1M745 530h1M747 530h1M750 530h2M756 530h3M761 530h2M767 530h1M771 530h1M776 530h2M780 530h1M786 530h1M789 530h2M56 531h1M65 531h1M67 531h1M77 531h1M93 531h1M108 531h1M112 531h1M119 531h2M123 531h1M131 531h1M148 531h1M153 531h1M155 531h1M162 531h2M166 531h1M176 531h1M199 531h1M214 531h1M243 531h1M256 531h1M264 531h1M273 531h1M275 531h1M282 531h1M285 531h1M295 531h2M314 531h1M338 531h1M346 531h1M353 531h1M360 531h1M367 531h1M382 531h1M389 531h2M403 531h1M411 531h1M418 531h1M428 531h2M436 531h1M443 531h2M455 531h1M458 531h1M466 531h1M468 531h1M485 531h1M498 531h1M530 531h1M538 531h1M555 531h1M558 531h1M581 531h1M583 531h1M593 531h1M596 531h1M632 531h1M639 531h1M648 531h1M650 531h1M663 531h1M681 531h1M698 531h1M700 531h1M707 531h1M720 531h1M725 531h1M727 531h1M734 531h1M747 531h1M752 531h1M763 531h1M775 531h1M788 531h1M791 531h1M65 532h1M77 532h1M93 532h1M108 532h1M119 532h2M123 532h1M131 532h1M148 532h1M153 532h1M162 532h1M176 532h1M199 532h1M243 532h1M256 532h1M273 532h1M282 532h1M285 532h1M296 532h1M314 532h1M338 532h1M360 532h1M389 532h1M403 532h1M418 532h1M428 532h2M443 532h1M468 532h1M485 532h1M498 532h1M530 532h1M555 532h1M558 532h1M581 532h1M593 532h1M596 532h1M639 532h1M650 532h1M681 532h1M698 532h1M707 532h1M720 532h1M725 532h1M734 532h1M747 532h1M752 532h1M763 532h1M775 532h1M788 532h1M791 532h1M43 533h5M58 533h7M69 533h5M78 533h5M88 533h5M95 533h3M103 533h5M114 533h5M121 533h2M127 533h3M132 533h7M142 533h5M149 533h4M157 533h5M168 533h5M177 533h5M187 533h6M200 533h5M208 533h3M216 533h6M230 533h5M238 533h5M245 533h3M251 533h5M258 533h3M266 533h7M277 533h5M286 533h5M297 533h5M305 533h3M311 533h3M333 533h5M340 533h3M348 533h4M361 533h5M373 533h4M384 533h5M398 533h5M405 533h3M413 533h5M425 533h3M430 533h3M438 533h5M451 533h3M460 533h5M469 533h15M486 533h5M494 533h3M499 533h5M507 533h3M517 533h5M525 533h5M532 533h3M540 533h6M549 533h5M556 533h2M560 533h1M570 533h9M581 533h1M585 533h7M594 533h2M600 533h3M606 533h6M615 533h14M634 533h5M646 533h1M651 533h3M676 533h5M683 533h15M702 533h5M714 533h5M721 533h4M729 533h5M741 533h5M748 533h4M756 533h5M763 533h1M767 533h5M776 533h5M784 533h3M789 533h2M447 534h1M451 534h1M581 534h1M657 534h3M760 534h1M763 534h1M581 535h1M661 535h1M754 535h1M761 535h2M42 540h1M52 540h1M220 540h1M482 541h1M54 542h1M222 543h1M232 543h1M480 543h1M483 543h1M222 544h1M232 544h1M480 544h1M483 544h1M222 545h1M232 545h2M480 545h1M483 545h1M480 546h1M68 547h1M86 547h1M124 547h1M163 547h1M168 547h1M177 547h1M180 547h1M206 547h1M248 547h1M251 547h2M264 547h1M306 547h1M316 547h2M330 547h1M335 547h1M346 547h1M358 547h1M375 547h1M402 547h1M428 547h1M433 547h1M440 547h1M456 547h1M470 547h1M475 547h1M480 547h1M496 547h2M515 547h1M528 547h1M553 547h1M568 547h1M585 547h1M608 547h1M622 547h1M634 547h1M649 547h1M674 547h1M690 547h1M715 547h1M731 547h1M740 547h1M757 547h1M163 548h1M177 548h1M248 548h1M251 548h2M316 548h2M480 548h1M496 548h1M553 548h1M608 548h1M70 549h1M84 549h2M96 549h1M99 549h1M112 549h1M123 549h1M163 549h1M166 549h1M177 549h2M181 549h1M191 549h1M194 549h1M208 549h1M211 549h1M232 549h2M248 549h1M251 549h2M263 549h1M276 549h1M304 549h1M316 549h2M333 549h1M344 549h1M360 549h1M373 549h1M376 549h1M386 549h1M389 549h1M401 549h1M404 549h1M431 549h1M438 549h1M441 549h1M454 549h1M473 549h1M480 549h1M483 549h1M496 549h1M513 549h1M523 549h1M526 549h1M553 549h1M583 549h1M608 549h1M620 549h1M623 549h1M636 549h1M676 549h1M689 549h1M702 549h2M714 549h1M717 549h1M729 549h1M732 549h1M742 549h1M759 549h1M762 549h1M70 550h1M95 550h2M99 550h2M112 550h1M127 550h1M137 550h1M163 550h1M166 550h1M178 550h1M190 550h2M194 550h2M208 550h1M211 550h1M232 550h1M248 550h1M251 550h2M276 550h1M304 550h1M333 550h1M344 550h1M360 550h1M373 550h1M385 550h2M389 550h2M401 550h1M404 550h1M431 550h1M438 550h1M441 550h1M473 550h1M480 550h1M483 550h1M496 550h1M513 550h1M529 550h1M539 550h1M583 550h1M620 550h1M623 550h1M626 550h1M636 550h1M676 550h1M702 550h1M714 550h1M717 550h1M729 550h1M732 550h1M742 550h1M759 550h1M762 550h1M70 551h1M86 551h1M96 551h1M99 551h1M112 551h1M163 551h1M166 551h1M178 551h1M191 551h1M194 551h1M207 551h2M211 551h1M232 551h1M248 551h1M251 551h2M276 551h1M304 551h1M318 551h1M330 551h1M333 551h1M344 551h1M360 551h1M373 551h1M386 551h1M389 551h1M401 551h1M404 551h1M428 551h1M431 551h1M438 551h1M441 551h1M470 551h1M473 551h1M480 551h1M483 551h1M496 551h2M513 551h1M524 551h1M583 551h1M620 551h1M623 551h1M636 551h1M649 551h1M676 551h1M702 551h1M714 551h1M717 551h1M729 551h1M732 551h1M742 551h1M758 551h2M762 551h1M96 552h1M99 552h1M163 552h1M166 552h1M178 552h1M191 552h1M194 552h1M207 552h2M211 552h1M218 552h1M232 552h1M248 552h1M251 552h2M276 552h1M304 552h1M329 552h2M333 552h1M344 552h1M360 552h1M373 552h1M386 552h1M389 552h1M401 552h1M404 552h1M427 552h2M431 552h1M438 552h1M441 552h1M469 552h2M473 552h1M480 552h1M483 552h1M509 552h1M513 552h1M524 552h1M583 552h1M594 552h1M620 552h1M623 552h1M636 552h1M676 552h1M702 552h1M714 552h1M717 552h1M729 552h1M732 552h1M742 552h1M758 552h2M762 552h1M43 553h1M47 553h5M56 553h1M60 553h1M66 553h1M68 553h1M71 553h3M77 553h1M81 553h1M84 553h2M90 553h1M96 553h1M99 553h1M107 553h5M119 553h5M130 553h1M134 553h1M139 553h1M143 553h1M149 553h1M157 553h1M161 553h3M166 553h2M170 553h1M174 553h1M177 553h2M181 553h5M191 553h1M194 553h1M200 553h1M204 553h1M207 553h2M211 553h1M217 553h1M229 553h1M232 553h5M242 553h1M246 553h3M251 553h2M255 553h1M261 553h4M273 553h1M276 553h2M282 553h1M288 553h4M297 553h1M304 553h2M313 553h1M316 553h2M320 553h1M324 553h1M328 553h1M330 553h1M333 553h2M337 553h1M344 553h2M350 553h5M359 553h2M371 553h1M373 553h1M376 553h5M386 553h1M389 553h1M399 553h3M404 553h1M408 553h3M414 553h1M422 553h1M426 553h1M428 553h1M431 553h2M438 553h1M441 553h5M451 553h1M454 553h2M460 553h1M464 553h1M468 553h1M470 553h1M473 553h2M480 553h1M483 553h5M495 553h1M508 553h3M513 553h2M524 553h1M532 553h1M536 553h1M546 553h1M550 553h1M553 553h1M555 553h1M559 553h1M563 553h1M567 553h1M570 553h1M574 553h3M580 553h1M583 553h2M589 553h5M601 553h1M605 553h1M608 553h1M612 553h3M618 553h1M620 553h1M623 553h5M635 553h2M639 553h1M645 553h1M647 553h1M650 553h3M656 553h1M666 553h3M672 553h1M675 553h2M679 553h1M687 553h4M699 553h1M702 553h2M710 553h5M717 553h1M719 553h1M727 553h1M729 553h1M732 553h5M741 553h2M745 553h1M751 553h1M755 553h1M758 553h2M762 553h1M766 553h1M53 554h1M68 554h1M86 554h1M105 554h1M112 554h1M124 554h1M168 554h1M177 554h1M179 554h2M259 554h1M278 554h1M286 554h1M293 554h1M299 554h1M306 554h1M318 554h1M330 554h1M335 554h1M339 554h1M346 554h1M348 554h1M356 554h1M358 554h1M374 554h2M402 554h2M406 554h1M428 554h1M433 554h1M439 554h2M447 554h1M456 554h1M470 554h1M475 554h1M481 554h2M489 554h1M495 554h1M498 554h1M515 554h1M523 554h1M553 554h1M568 554h1M585 554h1M587 554h1M608 554h1M610 554h1M621 554h2M634 554h1M648 554h2M674 554h1M685 554h1M704 554h1M708 554h1M715 554h2M721 554h1M730 554h2M738 554h1M740 554h1M68 555h1M86 555h1M112 555h1M124 555h1M168 555h1M177 555h1M180 555h1M278 555h1M306 555h1M318 555h1M330 555h1M335 555h1M346 555h1M358 555h1M375 555h1M402 555h1M428 555h1M433 555h1M440 555h1M456 555h1M470 555h1M475 555h1M482 555h1M495 555h1M498 555h1M515 555h1M553 555h1M568 555h1M585 555h1M608 555h1M622 555h1M634 555h1M649 555h1M674 555h1M704 555h1M715 555h1M731 555h1M740 555h1M43 556h9M56 556h5M64 556h3M68 556h1M71 556h5M81 556h5M88 556h3M96 556h4M107 556h5M119 556h5M130 556h5M139 556h5M147 556h3M157 556h9M168 556h1M170 556h7M181 556h5M191 556h4M200 556h12M217 556h1M229 556h10M242 556h12M261 556h4M273 556h5M280 556h3M288 556h4M297 556h1M303 556h3M313 556h5M320 556h1M324 556h5M331 556h4M337 556h1M343 556h3M350 556h5M359 556h3M365 556h1M369 556h3M376 556h5M386 556h4M399 556h3M408 556h7M422 556h5M429 556h4M441 556h5M451 556h5M458 556h3M464 556h5M471 556h4M483 556h5M495 556h1M498 556h1M508 556h5M515 556h1M532 556h5M546 556h7M555 556h13M570 556h15M589 556h5M601 556h7M612 556h7M623 556h5M635 556h5M643 556h3M650 556h7M666 556h5M675 556h7M687 556h4M699 556h5M710 556h5M719 556h1M725 556h3M732 556h5M741 556h7M751 556h12M766 556h1M68 557h1M71 557h1M165 557h1M168 557h1M395 557h1M399 557h1M493 557h3M498 557h1M512 557h1M515 557h1M517 557h3M69 558h2M77 558h1M166 558h2M255 558h1M496 558h2M506 558h1M513 558h2M521 558h1M664 558h1M672 558h1" />
<path stroke="rgba(119,175,179,0.8)" d="M43 517h9M501 517h1M507 517h1M570 517h11M42 518h1M52 518h1M569 518h1M53 519h1M503 519h3M44 520h1M54 520h1M502 520h1M579 520h1M44 521h1M54 521h1M506 521h1M579 521h1M44 522h1M54 522h1M579 522h1M44 523h1M54 523h1M57 523h1M85 523h1M100 523h1M113 523h1M130 523h1M141 523h1M156 523h1M184 523h1M207 523h1M211 523h1M231 523h1M235 523h1M265 523h1M276 523h1M293 523h1M302 523h1M306 523h1M383 523h1M412 523h1M437 523h1M476 523h1M478 523h1M480 523h1M493 523h1M497 523h1M506 523h1M510 523h1M522 523h1M548 523h1M579 523h1M588 523h1M603 523h1M614 523h1M633 523h1M656 523h1M669 523h1M688 523h1M701 523h1M713 523h1M728 523h1M740 523h1M753 523h1M783 523h1M787 523h1M44 524h1M54 524h1M61 524h1M68 524h1M74 524h1M94 524h1M117 524h1M147 524h1M167 524h1M173 524h1M244 524h1M257 524h1M269 524h1M280 524h1M339 524h1M404 524h1M416 524h1M446 524h1M454 524h1M459 524h1M465 524h1M484 524h1M516 524h1M531 524h1M552 524h1M579 524h1M584 524h1M620 524h1M637 524h1M660 524h1M675 524h1M682 524h1M692 524h1M705 524h1M719 524h1M732 524h1M746 524h1M764 524h1M774 524h1M44 525h1M57 525h1M74 525h1M111 525h1M130 525h1M141 525h1M154 525h1M173 525h1M211 525h1M235 525h1M257 525h1M265 525h1M274 525h1M339 525h1M368 525h1M381 525h1M404 525h1M410 525h1M435 525h1M497 525h1M510 525h1M531 525h1M548 525h1M552 525h1M579 525h1M603 525h1M614 525h1M631 525h1M656 525h1M660 525h1M669 525h1M688 525h1M692 525h1M699 525h1M713 525h1M726 525h1M740 525h1M753 525h1M764 525h1M774 525h1M787 525h1M44 526h1M52 526h1M66 526h1M74 526h1M79 526h1M106 526h1M126 526h1M145 526h1M165 526h1M173 526h1M178 526h1M257 526h1M287 526h1M300 526h1M308 526h1M339 526h1M347 526h1M352 526h1M366 526h1M372 526h1M377 526h1M404 526h1M448 526h1M456 526h2M467 526h1M482 526h1M491 526h1M504 526h1M531 526h1M552 526h1M579 526h1M590 526h1M599 526h1M618 526h1M660 526h1M673 526h1M684 526h1M692 526h1M717 526h1M744 526h1M757 526h1M764 526h1M774 526h1M781 526h1M44 527h1M47 527h5M66 527h1M73 527h1M76 527h2M79 527h1M84 527h1M93 527h1M101 527h1M106 527h1M108 527h2M126 527h1M165 527h1M172 527h1M175 527h2M178 527h1M183 527h1M243 527h1M284 527h2M287 527h1M292 527h1M301 527h1M307 527h1M347 527h1M352 527h1M371 527h1M378 527h1M427 527h1M430 527h1M448 527h1M456 527h2M467 527h1M482 527h1M492 527h1M505 527h1M521 527h1M555 527h1M579 527h1M590 527h1M599 527h1M618 527h1M660 527h1M664 527h2M684 527h1M692 527h1M747 527h1M757 527h1M765 527h1M773 527h1M782 527h1M44 528h1M66 528h1M79 528h1M94 528h1M106 528h1M126 528h1M165 528h1M178 528h1M244 528h1M287 528h1M347 528h1M352 528h1M448 528h1M456 528h2M467 528h1M482 528h1M518 528h1M554 528h1M579 528h1M584 528h1M590 528h1M599 528h1M618 528h1M660 528h1M684 528h1M692 528h1M746 528h1M757 528h1M44 529h1M58 529h3M66 529h1M79 529h1M91 529h2M94 529h1M106 529h1M114 529h5M126 529h1M136 529h1M146 529h3M165 529h1M178 529h1M190 529h2M204 529h3M216 529h3M226 529h5M241 529h2M244 529h1M254 529h3M266 529h3M277 529h5M287 529h1M309 529h1M321 529h5M336 529h3M347 529h1M352 529h1M363 529h3M401 529h3M413 529h5M428 529h2M448 529h1M456 529h2M467 529h1M482 529h1M490 529h1M503 529h1M519 529h1M528 529h3M540 529h3M553 529h1M572 529h1M579 529h1M585 529h3M590 529h1M599 529h1M609 529h2M618 529h1M634 529h5M659 529h1M672 529h5M684 529h1M692 529h1M702 529h5M718 529h3M729 529h5M745 529h1M756 529h1M780 529h1M44 530h1M66 530h1M79 530h1M94 530h1M106 530h1M126 530h1M137 530h1M145 530h1M165 530h1M178 530h1M215 530h1M244 530h1M257 530h1M287 530h1M308 530h1M339 530h1M347 530h1M352 530h1M366 530h1M404 530h1M448 530h1M456 530h2M467 530h1M482 530h1M531 530h1M539 530h1M552 530h1M569 530h1M579 530h1M582 530h1M590 530h1M599 530h1M618 530h1M684 530h1M692 530h1M717 530h1M744 530h1M42 531h1M68 531h1M74 531h1M94 531h1M126 531h1M147 531h1M167 531h1M173 531h1M229 531h1M244 531h1M257 531h1M308 531h1M339 531h1M404 531h1M448 531h1M454 531h1M459 531h1M465 531h1M484 531h1M516 531h1M531 531h1M554 531h1M559 531h1M567 531h1M584 531h1M592 531h1M599 531h1M647 531h1M662 531h1M682 531h1M719 531h1M746 531h1M766 531h1M772 531h1M42 532h1M68 532h1M74 532h1M94 532h1M126 532h1M147 532h1M167 532h1M173 532h1M229 532h1M244 532h1M257 532h1M308 532h1M339 532h1M404 532h1M448 532h1M454 532h1M459 532h1M465 532h1M484 532h1M516 532h1M531 532h1M554 532h1M559 532h1M567 532h1M584 532h1M592 532h1M599 532h1M647 532h1M662 532h1M682 532h1M719 532h1M746 532h1M766 532h1M772 532h1M448 533h1M567 533h1M662 533h1M448 534h1M567 534h1M662 534h1M446 535h1M567 535h1M660 535h1M43 540h9M217 540h3M229 540h10M483 540h7M42 541h1M52 541h1M220 541h1M53 542h1M215 542h1M221 542h1M481 542h2M44 543h1M54 543h1M237 543h1M44 544h1M54 544h1M214 544h1M216 544h1M44 545h1M54 545h1M44 546h1M61 546h1M78 546h1M106 546h1M144 546h1M156 546h1M169 546h1M199 546h1M241 546h1M296 546h1M323 546h1M336 546h1M366 546h1M394 546h1M411 546h1M421 546h1M446 546h1M463 546h1M488 546h1M505 546h1M516 546h1M545 546h1M560 546h1M575 546h1M592 546h1M600 546h1M615 546h1M628 546h1M642 546h1M646 546h1M682 546h1M709 546h1M737 546h1M748 546h1M750 546h1M44 547h1M52 547h1M55 547h1M67 547h1M87 547h1M110 547h1M127 547h1M137 547h2M150 547h1M162 547h1M205 547h1M220 547h1M247 547h1M329 547h1M349 547h1M355 547h1M372 547h1M407 547h1M427 547h1M457 547h1M469 547h1M520 547h1M529 547h1M539 547h1M554 547h1M569 547h1M579 547h1M588 547h1M611 547h1M663 547h1M673 547h1M718 547h1M728 547h1M756 547h1M44 548h1M78 548h1M104 548h1M127 548h1M137 548h1M156 548h1M169 548h1M186 548h1M199 548h1M216 548h1M241 548h1M296 548h1M323 548h1M336 548h1M381 548h1M394 548h1M421 548h1M448 548h1M457 548h1M463 548h1M490 548h1M505 548h1M516 548h1M520 548h1M529 548h1M539 548h1M545 548h1M560 548h1M575 548h1M579 548h1M600 548h1M646 548h1M655 548h1M707 548h1M739 548h1M750 548h1M44 549h1M54 549h1M57 549h1M65 549h1M74 549h1M95 549h1M100 549h1M127 549h1M137 549h1M140 549h1M148 549h1M160 549h1M173 549h1M184 549h1M190 549h1M195 549h1M203 549h1M218 549h1M245 549h1M260 549h1M279 549h1M287 549h1M292 549h1M300 549h1M327 549h1M340 549h1M347 549h1M357 549h1M379 549h1M385 549h1M390 549h1M398 549h1M413 549h1M425 549h1M457 549h1M467 549h1M499 549h1M509 549h1M520 549h1M529 549h1M539 549h1M549 549h1M556 549h1M566 549h1M571 549h1M579 549h1M586 549h1M594 549h1M604 549h1M617 549h1M626 549h1M653 549h1M665 549h1M671 549h1M680 549h1M686 549h1M720 549h1M726 549h1M746 549h1M754 549h1M44 550h1M54 550h1M57 550h1M62 550h1M65 550h1M74 550h1M86 550h1M94 550h1M101 550h1M128 550h1M136 550h1M140 550h1M145 550h1M148 550h1M160 550h1M176 550h1M189 550h1M196 550h1M218 550h1M234 550h1M245 550h1M279 550h1M287 550h1M292 550h1M300 550h1M318 550h1M330 550h1M340 550h1M347 550h1M357 550h1M363 550h1M367 550h1M384 550h1M391 550h1M398 550h1M413 550h1M428 550h1M470 550h1M500 550h1M509 550h1M520 550h1M524 550h2M530 550h1M538 550h1M552 550h1M556 550h1M566 550h1M571 550h1M579 550h1M586 550h1M594 550h1M607 550h1M617 550h1M627 550h1M665 550h1M671 550h1M681 550h1M704 550h1M720 550h1M726 550h1M747 550h1M44 551h1M54 551h1M57 551h1M65 551h1M74 551h1M87 551h1M140 551h1M148 551h1M160 551h1M175 551h1M218 551h1M245 551h1M279 551h1M287 551h1M292 551h1M300 551h1M329 551h1M340 551h1M347 551h1M357 551h1M364 551h1M398 551h1M407 551h1M413 551h1M427 551h1M469 551h1M509 551h1M520 551h1M551 551h1M556 551h1M562 551h1M566 551h1M571 551h1M579 551h1M586 551h1M594 551h1M606 551h1M611 551h1M617 551h1M665 551h1M671 551h1M720 551h1M726 551h1M44 552h1M54 552h1M57 552h1M60 552h1M65 552h1M71 552h1M74 552h1M84 552h2M87 552h1M107 552h5M121 552h3M140 552h1M143 552h1M148 552h1M160 552h1M174 552h1M181 552h5M204 552h1M217 552h1M245 552h1M261 552h4M279 552h1M287 552h1M292 552h1M300 552h1M316 552h2M328 552h1M340 552h1M347 552h1M357 552h1M364 552h1M376 552h5M398 552h1M408 552h3M413 552h1M426 552h1M454 552h3M468 552h1M495 552h1M508 552h1M519 552h1M550 552h1M556 552h1M559 552h1M562 552h1M566 552h1M571 552h1M579 552h1M586 552h1M589 552h5M605 552h1M612 552h3M617 552h1M639 552h3M650 552h3M666 552h1M671 552h1M679 552h1M687 552h4M720 552h1M726 552h1M745 552h1M755 552h1M44 553h1M54 553h1M57 553h1M65 553h1M74 553h1M87 553h1M140 553h1M148 553h1M160 553h1M173 553h1M203 553h1M237 553h1M245 553h1M260 553h1M279 553h1M287 553h1M292 553h1M300 553h1M327 553h1M340 553h1M347 553h1M357 553h1M364 553h1M398 553h1M405 553h1M413 553h1M425 553h1M457 553h1M467 553h1M549 553h1M556 553h1M562 553h1M566 553h1M571 553h1M579 553h1M586 553h1M604 553h1M609 553h1M617 553h1M653 553h1M663 553h1M671 553h1M680 553h1M686 553h1M720 553h1M726 553h1M746 553h1M754 553h1M42 554h1M52 554h1M55 554h1M67 554h1M87 554h1M129 554h1M135 554h1M138 554h1M150 554h1M218 554h1M279 554h1M319 554h1M329 554h1M349 554h1M355 554h1M364 554h1M372 554h1M407 554h1M415 554h1M427 554h1M457 554h1M469 554h1M522 554h1M531 554h1M537 554h1M554 554h1M569 554h1M588 554h1M594 554h1M611 554h1M619 554h1M663 554h1M673 554h1M718 554h1M728 554h1M42 555h1M52 555h1M55 555h1M67 555h1M87 555h1M129 555h1M135 555h1M138 555h1M150 555h1M218 555h1M279 555h1M319 555h1M329 555h1M349 555h1M355 555h1M364 555h1M372 555h1M407 555h1M415 555h1M427 555h1M457 555h1M469 555h1M522 555h1M531 555h1M537 555h1M554 555h1M569 555h1M588 555h1M594 555h1M611 555h1M619 555h1M663 555h1M673 555h1M718 555h1M728 555h1M254 556h1M398 556h1M522 556h1M663 556h1M673 556h1M254 557h1M398 557h1M522 557h1M663 557h1M673 557h1M400 558h1M520 558h1" />
<path stroke="rgba(131,187,190,0.7803921568627451)" d="M502 517h1M42 519h1M569 519h1M370 527h1M379 527h1M426 527h1M431 527h1M518 527h1M584 527h1M766 527h1M772 527h1M320 529h1M491 529h1M504 529h1M569 529h1M582 529h1M781 529h1M446 536h1M567 536h1M660 536h1M228 540h1M239 540h1M42 542h1M93 550h1M102 550h1M129 550h1M135 550h1M188 550h1M197 550h1M235 550h1M319 550h1M383 550h1M392 550h1M407 550h1M501 550h1M531 550h1M537 550h1M562 550h1M611 550h1M705 550h1M72 552h1M120 552h1M237 552h1M265 552h1M405 552h1M494 552h1M609 552h1M663 552h1M691 552h1M400 559h1M520 559h1" />
<path stroke="rgba(151,208,212,0.7411764705882353)" d="M506 517h1M508 517h1M502 521h1M61 523h1M68 523h1M74 523h1M94 523h1M117 523h1M147 523h1M167 523h1M173 523h1M244 523h1M257 523h1M269 523h1M280 523h1M339 523h1M404 523h1M416 523h1M446 523h1M454 523h1M459 523h1M465 523h1M484 523h1M516 523h1M531 523h1M552 523h1M584 523h1M620 523h1M637 523h1M660 523h1M675 523h1M682 523h1M692 523h1M705 523h1M719 523h1M732 523h1M746 523h1M764 523h1M774 523h1M54 525h1M66 525h1M147 525h1M165 525h1M446 525h1M456 525h2M467 525h1M484 525h1M516 525h1M584 525h1M590 525h1M620 525h1M675 525h1M682 525h1M719 525h1M72 527h1M83 527h1M85 527h1M100 527h1M102 527h1M171 527h1M182 527h1M184 527h1M291 527h1M293 527h1M302 527h1M306 527h1M522 527h1M573 529h1M658 529h1M671 529h1M216 540h1M490 540h1M214 542h1M237 544h1M54 546h2M67 546h1M87 546h1M110 546h1M127 546h1M137 546h2M150 546h1M162 546h1M205 546h1M247 546h1M329 546h1M349 546h1M355 546h1M372 546h1M407 546h1M427 546h1M457 546h1M469 546h1M520 546h1M529 546h1M539 546h1M554 546h1M569 546h1M579 546h1M588 546h1M611 546h1M663 546h1M673 546h1M718 546h1M728 546h1M756 546h1M54 548h2M67 548h1M138 548h1M150 548h1M162 548h1M205 548h1M220 548h1M247 548h1M347 548h1M357 548h1M372 548h1M407 548h1M413 548h1M554 548h1M569 548h1M586 548h1M594 548h1M611 548h1M617 548h1M663 548h1M673 548h1M718 548h1M728 548h1M756 548h1M628 550h1M682 550h1M748 550h1M61 552h1M144 552h1M186 552h1M216 552h1M381 552h1M518 552h1M667 552h1" />
<path stroke="#00383e" d="M43 518h9M501 518h1M507 518h1M570 518h11M45 519h1M572 519h1M578 519h1M45 520h1M53 520h1M503 520h3M572 520h1M578 520h1M45 521h1M53 521h1M572 521h1M578 521h1M45 522h1M53 522h1M572 522h1M578 522h1M45 523h1M53 523h1M572 523h1M578 523h1M45 524h1M53 524h1M58 524h3M69 524h5M76 524h9M88 524h5M95 524h3M101 524h9M114 524h3M121 524h9M132 524h5M142 524h5M149 524h4M157 524h5M168 524h5M175 524h9M187 524h5M200 524h5M208 524h3M216 524h3M224 524h5M232 524h3M238 524h5M245 524h3M251 524h5M258 524h3M266 524h3M277 524h3M284 524h9M297 524h5M307 524h7M333 524h5M340 524h3M348 524h4M361 524h5M371 524h8M384 524h5M398 524h5M405 524h3M413 524h3M425 524h3M430 524h3M438 524h5M447 524h7M460 524h5M469 524h5M477 524h1M481 524h3M486 524h5M494 524h3M499 524h5M507 524h3M517 524h5M525 524h5M532 524h3M540 524h3M549 524h3M555 524h3M572 524h1M578 524h1M585 524h3M594 524h9M606 524h5M615 524h5M622 524h2M626 524h3M634 524h3M646 524h8M657 524h3M663 524h5M670 524h5M677 524h4M683 524h5M691 524h1M695 524h3M702 524h3M714 524h5M721 524h4M729 524h3M741 524h5M748 524h4M754 524h9M765 524h9M776 524h5M784 524h3M45 525h1M73 525h1M76 525h2M80 525h1M84 525h1M90 525h1M95 525h1M101 525h1M105 525h1M108 525h2M123 525h1M127 525h1M134 525h1M144 525h1M149 525h2M172 525h1M175 525h2M179 525h1M183 525h1M189 525h1M202 525h1M208 525h1M226 525h1M232 525h1M240 525h1M245 525h1M253 525h1M258 525h1M284 525h2M288 525h1M292 525h1M301 525h1M307 525h1M311 525h1M335 525h1M340 525h1M371 525h1M374 525h2M378 525h1M400 525h1M405 525h1M427 525h1M430 525h1M449 525h1M471 525h1M477 525h1M481 525h1M488 525h1M494 525h1M501 525h1M507 525h1M521 525h1M527 525h1M532 525h1M551 525h1M555 525h1M572 525h1M578 525h1M596 525h1M600 525h1M608 525h1M617 525h1M622 525h2M626 525h1M648 525h1M651 525h1M659 525h1M664 525h2M672 525h1M677 525h2M685 525h1M691 525h1M695 525h1M716 525h1M721 525h2M743 525h1M748 525h2M756 525h1M760 525h1M765 525h1M769 525h1M773 525h1M778 525h1M784 525h1M45 526h7M62 526h1M67 526h1M73 526h1M76 526h2M80 526h1M84 526h1M90 526h1M93 526h3M101 526h1M105 526h1M108 526h2M112 526h1M118 526h1M123 526h1M127 526h1M134 526h1M144 526h1M149 526h2M155 526h1M162 526h2M166 526h1M172 526h1M175 526h2M179 526h1M183 526h1M189 526h1M202 526h1M208 526h1M219 526h1M226 526h1M232 526h1M240 526h1M243 526h3M253 526h1M258 526h1M270 526h1M275 526h1M281 526h1M284 526h2M288 526h1M292 526h1M295 526h2M301 526h1M307 526h1M311 526h1M335 526h1M340 526h1M346 526h1M353 526h1M367 526h1M371 526h1M374 526h2M378 526h1M382 526h1M389 526h2M400 526h1M405 526h1M411 526h1M417 526h1M427 526h1M430 526h1M436 526h1M443 526h2M449 526h1M455 526h1M458 526h1M466 526h1M471 526h1M477 526h1M481 526h1M488 526h1M492 526h3M501 526h1M505 526h3M521 526h1M527 526h1M532 526h1M543 526h1M551 526h1M555 526h1M572 526h1M578 526h1M589 526h1M596 526h1M600 526h1M608 526h1M617 526h1M622 526h2M626 526h1M632 526h1M638 526h1M648 526h1M651 526h1M659 526h1M664 526h2M672 526h1M677 526h2M685 526h1M691 526h1M695 526h1M700 526h1M706 526h1M716 526h1M721 526h2M727 526h1M733 526h1M743 526h1M747 526h3M756 526h1M760 526h1M765 526h1M769 526h1M773 526h1M778 526h1M782 526h3M45 527h1M62 527h1M67 527h1M80 527h1M90 527h1M95 527h1M105 527h1M112 527h1M118 527h1M123 527h1M127 527h1M134 527h1M144 527h1M149 527h2M155 527h1M162 527h2M166 527h1M179 527h1M189 527h1M202 527h1M208 527h1M219 527h1M226 527h1M232 527h1M240 527h1M245 527h1M253 527h1M258 527h1M270 527h1M275 527h1M281 527h1M288 527h1M295 527h2M311 527h1M335 527h1M340 527h1M346 527h1M353 527h1M367 527h1M374 527h2M382 527h1M389 527h2M400 527h1M405 527h1M411 527h1M417 527h1M436 527h1M443 527h2M449 527h1M455 527h1M458 527h1M466 527h1M471 527h1M477 527h1M481 527h1M488 527h1M494 527h1M501 527h1M507 527h1M527 527h1M532 527h1M543 527h1M551 527h1M572 527h1M578 527h1M589 527h1M596 527h1M600 527h1M608 527h1M617 527h1M622 527h2M626 527h1M632 527h1M638 527h1M648 527h1M651 527h1M659 527h1M672 527h1M677 527h2M685 527h1M691 527h1M695 527h1M700 527h1M706 527h1M716 527h1M721 527h2M727 527h1M733 527h1M743 527h1M748 527h2M756 527h1M760 527h1M769 527h1M778 527h1M784 527h1M45 528h1M58 528h5M67 528h1M80 528h1M90 528h3M95 528h1M105 528h1M112 528h7M123 528h1M127 528h1M134 528h5M144 528h7M155 528h1M162 528h2M166 528h1M179 528h1M189 528h4M202 528h7M216 528h4M226 528h7M240 528h3M245 528h1M253 528h6M266 528h5M275 528h7M288 528h1M295 528h2M309 528h3M321 528h5M335 528h6M346 528h1M353 528h1M363 528h5M374 528h2M382 528h1M389 528h2M400 528h6M411 528h7M428 528h2M436 528h1M443 528h2M449 528h1M455 528h1M458 528h1M466 528h1M471 528h1M477 528h1M481 528h1M488 528h3M494 528h1M501 528h3M507 528h1M519 528h1M527 528h6M540 528h4M551 528h3M572 528h1M578 528h1M585 528h5M596 528h1M600 528h1M608 528h4M617 528h1M622 528h2M626 528h1M632 528h7M648 528h1M651 528h1M659 528h1M663 528h1M672 528h7M685 528h1M691 528h1M695 528h1M700 528h7M716 528h7M727 528h7M743 528h3M748 528h2M756 528h1M760 528h1M769 528h1M778 528h3M784 528h1M45 529h1M62 529h1M67 529h1M80 529h1M90 529h1M95 529h1M105 529h1M112 529h1M123 529h1M127 529h1M134 529h1M138 529h1M144 529h1M149 529h2M155 529h1M162 529h2M166 529h1M179 529h1M189 529h1M192 529h1M202 529h1M208 529h1M219 529h1M232 529h1M240 529h1M245 529h1M253 529h1M258 529h1M270 529h1M275 529h1M288 529h1M295 529h2M311 529h1M335 529h1M340 529h1M346 529h1M353 529h1M367 529h1M374 529h2M382 529h1M389 529h2M400 529h1M405 529h1M411 529h1M436 529h1M443 529h2M449 529h1M455 529h1M458 529h1M466 529h1M471 529h1M477 529h1M481 529h1M488 529h1M494 529h1M501 529h1M507 529h1M527 529h1M532 529h1M543 529h1M551 529h1M578 529h1M589 529h1M596 529h1M600 529h1M608 529h1M611 529h1M617 529h1M622 529h2M626 529h1M632 529h1M648 529h1M651 529h1M663 529h1M677 529h2M685 529h1M691 529h1M695 529h1M700 529h1M716 529h1M721 529h2M727 529h1M743 529h1M748 529h2M760 529h1M769 529h1M778 529h1M784 529h1M45 530h1M56 530h1M62 530h1M67 530h1M80 530h1M90 530h1M95 530h1M105 530h1M112 530h1M123 530h1M127 530h1M134 530h1M138 530h1M144 530h1M149 530h2M155 530h1M162 530h2M166 530h1M179 530h1M189 530h1M192 530h1M202 530h1M208 530h1M214 530h1M219 530h1M232 530h1M240 530h1M245 530h1M253 530h1M258 530h1M264 530h1M270 530h1M275 530h1M288 530h1M295 530h2M307 530h1M311 530h1M335 530h1M340 530h1M346 530h1M353 530h1M367 530h1M374 530h2M382 530h1M389 530h2M400 530h1M405 530h1M411 530h1M427 530h1M430 530h1M436 530h1M443 530h2M449 530h1M455 530h1M458 530h1M466 530h1M471 530h1M477 530h1M481 530h1M488 530h1M494 530h1M501 530h1M507 530h1M521 530h1M527 530h1M532 530h1M538 530h1M543 530h1M551 530h1M555 530h1M570 530h1M578 530h1M583 530h1M589 530h1M596 530h1M600 530h1M608 530h1M611 530h1M617 530h1M622 530h2M626 530h1M632 530h1M648 530h1M651 530h1M661 530h3M677 530h2M685 530h1M691 530h1M695 530h1M700 530h1M716 530h1M721 530h2M727 530h1M743 530h1M748 530h2M754 530h1M760 530h1M769 530h1M778 530h1M784 530h1M43 531h5M58 531h7M69 531h5M78 531h5M88 531h5M95 531h3M103 531h5M114 531h5M121 531h2M127 531h3M132 531h7M142 531h5M149 531h4M157 531h5M168 531h5M177 531h5M187 531h6M200 531h5M208 531h3M216 531h6M230 531h5M238 531h5M245 531h3M251 531h5M258 531h3M266 531h7M277 531h5M286 531h5M297 531h5M305 531h3M311 531h3M333 531h5M340 531h3M348 531h4M361 531h5M373 531h4M384 531h5M398 531h5M405 531h3M413 531h5M425 531h3M430 531h3M438 531h5M449 531h5M460 531h5M469 531h15M486 531h5M494 531h3M499 531h5M507 531h3M517 531h5M525 531h5M532 531h3M540 531h6M549 531h5M556 531h2M560 531h1M568 531h13M585 531h7M594 531h2M600 531h3M606 531h6M615 531h14M634 531h5M646 531h1M651 531h3M661 531h1M676 531h5M683 531h15M702 531h5M714 531h5M721 531h4M729 531h5M741 531h5M748 531h4M754 531h9M767 531h5M776 531h5M784 531h3M789 531h2M43 532h5M58 532h7M69 532h5M78 532h5M88 532h5M95 532h3M103 532h5M114 532h5M121 532h2M127 532h3M132 532h7M142 532h5M149 532h4M157 532h5M168 532h5M177 532h5M187 532h6M200 532h5M208 532h3M216 532h6M230 532h5M238 532h5M245 532h3M251 532h5M258 532h3M266 532h7M277 532h5M286 532h5M297 532h5M305 532h3M311 532h3M333 532h5M340 532h3M348 532h4M361 532h5M373 532h4M384 532h5M398 532h5M405 532h3M413 532h5M425 532h3M430 532h3M438 532h5M449 532h5M460 532h5M469 532h15M486 532h5M494 532h3M499 532h5M507 532h3M517 532h5M525 532h5M532 532h3M540 532h6M549 532h5M556 532h2M560 532h1M568 532h13M585 532h7M594 532h2M600 532h3M606 532h6M615 532h14M634 532h5M646 532h1M651 532h3M661 532h1M676 532h5M683 532h15M702 532h5M714 532h5M721 532h4M729 532h5M741 532h5M748 532h4M754 532h9M767 532h5M776 532h5M784 532h3M789 532h2M449 533h1M568 533h1M580 533h1M661 533h1M754 533h1M761 533h2M449 534h1M568 534h1M580 534h1M661 534h1M754 534h1M761 534h2M447 535h5M568 535h1M580 535h1M657 535h3M43 541h9M217 541h3M229 541h10M483 541h7M45 542h1M231 542h1M238 542h1M45 543h1M53 543h1M215 543h1M221 543h1M231 543h1M238 543h1M481 543h2M45 544h1M53 544h1M221 544h1M231 544h1M481 544h2M45 545h1M53 545h1M221 545h1M231 545h1M234 545h1M481 545h2M45 546h1M231 546h1M234 546h1M481 546h2M45 547h7M56 547h5M64 547h3M69 547h9M81 547h5M88 547h3M94 547h8M107 547h3M119 547h5M128 547h9M139 547h5M147 547h3M157 547h5M164 547h4M170 547h7M181 547h3M189 547h8M200 547h5M207 547h5M219 547h1M231 547h4M242 547h5M249 547h2M253 547h3M261 547h3M273 547h10M288 547h4M297 547h9M313 547h3M318 547h3M324 547h5M331 547h4M337 547h9M350 547h5M359 547h5M367 547h5M376 547h3M384 547h8M395 547h7M408 547h3M422 547h5M429 547h4M441 547h5M451 547h5M458 547h3M464 547h5M471 547h4M481 547h7M493 547h3M498 547h5M506 547h9M517 547h3M523 547h5M530 547h9M546 547h7M555 547h5M563 547h5M570 547h5M578 547h1M582 547h3M589 547h3M601 547h7M612 547h3M623 547h5M635 547h5M643 547h3M650 547h3M664 547h9M675 547h7M687 547h3M699 547h6M710 547h5M719 547h9M732 547h5M741 547h7M751 547h5M758 547h5M45 548h1M58 548h1M64 548h1M71 548h1M75 548h1M83 548h1M88 548h1M94 548h1M97 548h2M101 548h1M128 548h1M132 548h1M136 548h1M141 548h1M147 548h1M159 548h1M164 548h2M172 548h1M176 548h1M189 548h1M192 548h2M196 548h1M202 548h1M209 548h2M231 548h1M234 548h1M244 548h1M249 548h2M253 548h1M275 548h1M280 548h1M299 548h1M303 548h1M315 548h1M318 548h1M326 548h1M331 548h2M339 548h1M343 548h1M361 548h3M367 548h3M384 548h1M387 548h2M391 548h1M397 548h1M424 548h1M429 548h2M453 548h1M458 548h1M466 548h1M471 548h2M481 548h2M495 548h1M500 548h1M508 548h1M512 548h1M519 548h1M524 548h2M530 548h1M534 548h1M538 548h1M548 548h1M552 548h1M557 548h1M565 548h1M572 548h1M578 548h1M582 548h1M603 548h1M607 548h1M627 548h1M637 548h1M643 548h1M666 548h1M670 548h1M677 548h1M681 548h1M701 548h1M704 548h1M721 548h1M725 548h1M743 548h1M747 548h1M753 548h1M760 548h2M45 549h1M53 549h1M58 549h1M62 549h3M71 549h1M75 549h1M83 549h1M86 549h3M94 549h1M97 549h2M101 549h1M105 549h1M111 549h1M124 549h1M128 549h1M132 549h1M136 549h1M141 549h1M145 549h3M159 549h1M164 549h2M172 549h1M176 549h1M179 549h2M185 549h1M189 549h1M192 549h2M196 549h1M202 549h1M209 549h2M217 549h1M231 549h1M234 549h1M244 549h1M249 549h2M253 549h1M259 549h1M264 549h1M275 549h1M280 549h1M286 549h1M293 549h1M299 549h1M303 549h1M315 549h1M318 549h1M326 549h1M330 549h3M339 549h1M343 549h1M348 549h1M356 549h1M361 549h3M367 549h3M374 549h2M380 549h1M384 549h1M387 549h2M391 549h1M397 549h1M402 549h2M412 549h1M424 549h1M428 549h3M439 549h2M447 549h1M453 549h1M458 549h1M466 549h1M470 549h3M481 549h2M489 549h1M495 549h1M500 549h1M508 549h1M512 549h1M519 549h1M524 549h2M530 549h1M534 549h1M538 549h1M548 549h1M552 549h1M557 549h1M565 549h1M572 549h1M578 549h1M582 549h1M587 549h1M593 549h1M603 549h1M607 549h1M616 549h1M621 549h2M627 549h1M637 549h1M643 549h1M654 549h1M666 549h1M670 549h1M677 549h1M681 549h1M685 549h1M690 549h1M701 549h1M704 549h1M708 549h1M715 549h2M721 549h1M725 549h1M730 549h2M738 549h1M743 549h1M747 549h1M753 549h1M760 549h2M45 550h1M53 550h1M58 550h1M64 550h1M71 550h1M75 550h1M83 550h1M88 550h1M97 550h2M105 550h1M111 550h1M124 550h1M132 550h1M141 550h1M147 550h1M159 550h1M164 550h2M172 550h1M179 550h2M185 550h1M192 550h2M202 550h1M209 550h2M217 550h1M231 550h1M244 550h1M249 550h2M253 550h1M259 550h1M264 550h1M275 550h1M280 550h1M286 550h1M293 550h1M299 550h1M303 550h1M315 550h1M326 550h1M331 550h2M339 550h1M343 550h1M348 550h1M356 550h1M361 550h1M369 550h1M374 550h2M380 550h1M387 550h2M397 550h1M402 550h2M412 550h1M424 550h1M429 550h2M439 550h2M447 550h1M453 550h1M458 550h1M466 550h1M471 550h2M481 550h2M489 550h1M495 550h1M508 550h1M512 550h1M519 550h1M534 550h1M548 550h1M557 550h1M565 550h1M572 550h1M578 550h1M582 550h1M587 550h1M593 550h1M603 550h1M616 550h1M621 550h2M637 550h1M643 550h1M654 550h1M666 550h1M670 550h1M677 550h1M685 550h1M690 550h1M701 550h1M708 550h1M715 550h2M721 550h1M725 550h1M730 550h2M738 550h1M743 550h1M753 550h1M760 550h2M45 551h1M53 551h1M58 551h3M64 551h1M71 551h1M75 551h1M83 551h3M88 551h1M97 551h2M105 551h7M121 551h4M132 551h1M141 551h3M147 551h1M159 551h1M164 551h2M172 551h3M179 551h7M192 551h2M202 551h5M209 551h2M217 551h1M231 551h1M244 551h1M249 551h2M253 551h1M259 551h6M275 551h1M280 551h1M286 551h1M293 551h1M299 551h1M303 551h1M315 551h3M326 551h3M331 551h2M339 551h1M343 551h1M348 551h1M356 551h1M361 551h1M365 551h1M369 551h1M374 551h7M387 551h2M397 551h1M402 551h2M408 551h5M424 551h3M429 551h2M439 551h2M447 551h1M453 551h6M466 551h3M471 551h2M481 551h2M489 551h1M495 551h1M498 551h1M508 551h1M512 551h1M519 551h1M523 551h1M534 551h1M548 551h3M557 551h5M565 551h1M572 551h1M578 551h1M582 551h1M587 551h7M603 551h3M612 551h5M621 551h2M637 551h7M650 551h5M666 551h1M670 551h1M677 551h3M685 551h6M701 551h1M708 551h1M715 551h2M721 551h1M725 551h1M730 551h2M738 551h1M743 551h3M753 551h5M760 551h2M45 552h1M53 552h1M58 552h1M64 552h1M75 552h1M83 552h1M88 552h1M97 552h2M105 552h1M124 552h1M132 552h1M141 552h1M147 552h1M159 552h1M164 552h2M172 552h1M179 552h2M192 552h2M202 552h1M206 552h1M209 552h2M231 552h1M244 552h1M249 552h2M253 552h1M259 552h1M275 552h1M280 552h1M286 552h1M293 552h1M299 552h1M303 552h1M315 552h1M326 552h1M331 552h2M339 552h1M343 552h1M348 552h1M356 552h1M361 552h1M365 552h1M369 552h1M374 552h2M387 552h2M397 552h1M402 552h2M412 552h1M424 552h1M429 552h2M439 552h2M447 552h1M453 552h1M458 552h1M466 552h1M471 552h2M481 552h2M489 552h1M498 552h1M512 552h1M523 552h1M534 552h1M548 552h1M557 552h1M561 552h1M565 552h1M572 552h1M578 552h1M582 552h1M587 552h1M603 552h1M616 552h1M621 552h2M637 552h1M643 552h1M654 552h1M670 552h1M677 552h1M685 552h1M701 552h1M708 552h1M715 552h2M721 552h1M725 552h1M730 552h2M738 552h1M743 552h1M753 552h1M757 552h1M760 552h2M45 553h1M53 553h1M58 553h1M64 553h1M69 553h2M75 553h1M83 553h1M88 553h1M97 553h2M105 553h1M124 553h1M132 553h1M141 553h1M147 553h1M159 553h1M164 553h2M172 553h1M176 553h1M179 553h2M192 553h2M202 553h1M206 553h1M209 553h2M231 553h1M238 553h1M244 553h1M249 553h2M253 553h1M259 553h1M275 553h1M280 553h1M286 553h1M293 553h1M299 553h1M303 553h1M315 553h1M318 553h1M326 553h1M331 553h2M339 553h1M343 553h1M348 553h1M356 553h1M361 553h1M365 553h1M369 553h1M374 553h2M387 553h2M397 553h1M402 553h2M406 553h1M412 553h1M424 553h1M429 553h2M439 553h2M447 553h1M453 553h1M458 553h1M466 553h1M471 553h2M481 553h2M489 553h1M496 553h3M506 553h1M512 553h1M521 553h3M534 553h1M548 553h1M552 553h1M557 553h1M561 553h1M565 553h1M572 553h1M578 553h1M582 553h1M587 553h1M603 553h1M607 553h1M610 553h1M616 553h1M621 553h2M637 553h1M643 553h1M648 553h2M654 553h1M664 553h1M670 553h1M677 553h1M681 553h1M685 553h1M701 553h1M708 553h1M715 553h2M721 553h1M725 553h1M730 553h2M738 553h1M743 553h1M747 553h1M753 553h1M757 553h1M760 553h2M43 554h9M56 554h5M64 554h3M69 554h9M81 554h5M88 554h3M96 554h4M107 554h5M119 554h5M130 554h5M139 554h5M147 554h3M157 554h11M170 554h7M181 554h5M191 554h4M200 554h12M217 554h1M229 554h10M242 554h14M261 554h4M273 554h5M280 554h3M288 554h4M297 554h1M303 554h3M313 554h5M320 554h1M324 554h5M331 554h4M337 554h1M343 554h3M350 554h5M359 554h3M365 554h1M369 554h3M376 554h5M386 554h4M397 554h5M408 554h7M422 554h5M429 554h4M441 554h5M451 554h5M458 554h3M464 554h5M471 554h4M483 554h5M496 554h2M506 554h9M521 554h1M532 554h5M546 554h7M555 554h13M570 554h15M589 554h5M601 554h7M612 554h7M623 554h5M635 554h5M643 554h3M650 554h7M664 554h9M675 554h7M687 554h4M699 554h5M710 554h5M719 554h1M725 554h3M732 554h5M741 554h7M751 554h12M766 554h1M43 555h9M56 555h5M64 555h3M69 555h9M81 555h5M88 555h3M96 555h4M107 555h5M119 555h5M130 555h5M139 555h5M147 555h3M157 555h11M170 555h7M181 555h5M191 555h4M200 555h12M217 555h1M229 555h10M242 555h14M261 555h4M273 555h5M280 555h3M288 555h4M297 555h1M303 555h3M313 555h5M320 555h1M324 555h5M331 555h4M337 555h1M343 555h3M350 555h5M359 555h3M365 555h1M369 555h3M376 555h5M386 555h4M397 555h5M408 555h7M422 555h5M429 555h4M441 555h5M451 555h5M458 555h3M464 555h5M471 555h4M483 555h5M496 555h2M506 555h9M521 555h1M532 555h5M546 555h7M555 555h13M570 555h15M589 555h5M601 555h7M612 555h7M623 555h5M635 555h5M643 555h3M650 555h7M664 555h9M675 555h7M687 555h4M699 555h5M710 555h5M719 555h1M725 555h3M732 555h5M741 555h7M751 555h12M766 555h1M69 556h2M77 556h1M166 556h2M255 556h1M397 556h1M496 556h2M506 556h1M513 556h2M521 556h1M664 556h1M672 556h1M69 557h2M77 557h1M166 557h2M255 557h1M397 557h1M496 557h2M506 557h1M513 557h2M521 557h1M664 557h1M672 557h1M395 558h5M493 558h3M517 558h3" />
<path stroke="rgba(38,96,105,0.9411764705882353)" d="M502 518h1M43 519h2M47 519h5M501 519h1M507 519h1M570 519h1M574 519h3M579 519h2M52 520h1M577 520h1M52 521h1M577 521h1M52 522h1M577 522h1M52 523h1M577 523h1M52 524h1M87 524h1M98 524h1M137 524h1M186 524h1M205 524h1M215 524h1M229 524h1M237 524h1M248 524h1M250 524h1M261 524h1M332 524h1M343 524h1M347 524h1M352 524h1M366 524h1M370 524h1M379 524h1M397 524h1M408 524h1M424 524h1M433 524h1M474 524h1M491 524h1M504 524h1M524 524h1M535 524h1M539 524h1M554 524h1M577 524h1M605 524h1M629 524h1M645 524h1M654 524h1M662 524h1M690 524h1M694 524h1M781 524h1M370 525h1M379 525h1M554 525h1M577 525h1M690 525h1M694 525h1M61 526h1M68 526h1M81 526h1M89 526h1M96 526h1M104 526h1M117 526h1M124 526h1M135 526h1M167 526h1M180 526h1M188 526h1M203 526h1M220 526h1M227 526h1M239 526h1M246 526h1M252 526h1M259 526h1M269 526h1M280 526h1M289 526h1M310 526h1M334 526h1M341 526h1M345 526h1M354 526h1M370 526h1M379 526h1M399 526h1M406 526h1M416 526h1M426 526h1M431 526h1M454 526h1M459 526h1M465 526h1M472 526h1M489 526h1M502 526h1M526 526h1M533 526h1M544 526h1M554 526h1M577 526h1M597 526h1M607 526h1M627 526h1M637 526h1M647 526h1M652 526h1M690 526h1M694 526h1M705 526h1M732 526h1M746 526h1M759 526h1M766 526h1M772 526h1M779 526h1M58 527h3M68 527h1M81 527h1M89 527h1M91 527h2M96 527h1M104 527h1M114 527h3M124 527h1M136 527h3M145 527h4M167 527h1M180 527h1M188 527h1M190 527h3M204 527h3M216 527h3M220 527h1M228 527h3M239 527h1M241 527h2M246 527h1M252 527h1M254 527h4M259 527h1M266 527h3M277 527h3M289 527h1M309 527h1M321 527h5M334 527h1M336 527h4M341 527h1M345 527h1M354 527h1M363 527h4M399 527h1M401 527h4M406 527h1M413 527h3M428 527h2M454 527h1M459 527h1M465 527h1M472 527h1M490 527h1M503 527h1M519 527h1M526 527h1M528 527h4M533 527h1M540 527h3M544 527h1M552 527h2M577 527h1M585 527h3M597 527h1M607 527h1M609 527h3M627 527h1M634 527h3M647 527h1M652 527h1M663 527h1M673 527h4M690 527h1M694 527h1M702 527h3M717 527h4M729 527h3M744 527h2M759 527h1M780 527h1M68 528h1M81 528h1M89 528h1M96 528h1M104 528h1M124 528h1M167 528h1M180 528h1M188 528h1M193 528h1M215 528h1M220 528h1M239 528h1M246 528h1M252 528h1M259 528h1M289 528h1M308 528h1M320 528h1M334 528h1M341 528h1M345 528h1M354 528h1M399 528h1M406 528h1M454 528h1M459 528h1M465 528h1M472 528h1M491 528h1M504 528h1M526 528h1M533 528h1M539 528h1M544 528h1M577 528h1M597 528h1M607 528h1M612 528h1M627 528h1M647 528h1M652 528h1M662 528h1M690 528h1M694 528h1M759 528h1M781 528h1M56 529h1M61 529h1M68 529h1M81 529h1M89 529h1M96 529h1M104 529h1M124 529h1M135 529h1M167 529h1M180 529h1M188 529h1M193 529h1M203 529h1M214 529h1M220 529h1M239 529h1M246 529h1M252 529h1M259 529h1M264 529h1M269 529h1M289 529h1M307 529h1M310 529h1M334 529h1M341 529h1M345 529h1M354 529h1M399 529h1M406 529h1M427 529h1M430 529h1M454 529h1M459 529h1M465 529h1M472 529h1M489 529h1M502 529h1M521 529h1M526 529h1M533 529h1M538 529h1M544 529h1M555 529h1M570 529h1M577 529h1M583 529h1M597 529h1M607 529h1M612 529h1M627 529h1M647 529h1M652 529h1M661 529h1M690 529h1M694 529h1M754 529h1M759 529h1M779 529h1M61 530h1M68 530h1M81 530h1M89 530h1M96 530h1M104 530h1M124 530h1M135 530h1M167 530h1M180 530h1M188 530h1M193 530h1M203 530h1M213 530h1M220 530h1M239 530h1M246 530h1M252 530h1M259 530h1M269 530h1M289 530h1M310 530h1M334 530h1M341 530h1M345 530h1M354 530h1M399 530h1M406 530h1M426 530h1M431 530h1M454 530h1M459 530h1M465 530h1M472 530h1M489 530h1M502 530h1M526 530h1M533 530h1M537 530h1M544 530h1M554 530h1M577 530h1M584 530h1M597 530h1M607 530h1M612 530h1M627 530h1M647 530h1M652 530h1M660 530h1M690 530h1M694 530h1M759 530h1M779 530h1M87 531h1M98 531h1M186 531h1M193 531h1M205 531h1M215 531h1M222 531h1M237 531h1M248 531h1M250 531h1M261 531h1M310 531h1M332 531h1M343 531h1M347 531h1M352 531h1M366 531h1M372 531h1M377 531h1M397 531h1M408 531h1M424 531h1M433 531h1M491 531h1M504 531h1M524 531h1M535 531h1M539 531h1M546 531h1M561 531h1M605 531h1M612 531h1M629 531h1M645 531h1M654 531h1M660 531h1M675 531h1M781 531h1M87 532h1M98 532h1M186 532h1M193 532h1M205 532h1M215 532h1M222 532h1M237 532h1M248 532h1M250 532h1M261 532h1M310 532h1M332 532h1M343 532h1M347 532h1M352 532h1M366 532h1M372 532h1M377 532h1M397 532h1M408 532h1M424 532h1M433 532h1M491 532h1M504 532h1M524 532h1M535 532h1M539 532h1M546 532h1M561 532h1M605 532h1M612 532h1M629 532h1M645 532h1M654 532h1M660 532h1M675 532h1M781 532h1M569 533h1M579 533h1M660 533h1M569 534h1M579 534h1M660 534h1M569 535h1M579 535h1M447 536h5M568 536h1M580 536h1M657 536h3M228 541h1M239 541h1M43 542h2M47 542h5M217 542h3M229 542h1M232 542h6M239 542h1M483 542h7M52 543h1M220 543h1M230 543h1M239 543h1M52 544h1M220 544h1M230 544h1M52 545h1M220 545h1M230 545h1M235 545h1M230 546h1M235 546h1M63 547h1M80 547h1M91 547h1M93 547h1M102 547h1M118 547h1M146 547h1M184 547h1M188 547h1M197 547h1M212 547h1M218 547h1M230 547h1M235 547h1M256 547h1M260 547h1M272 547h1M283 547h1M287 547h1M292 547h1M312 547h1M321 547h1M364 547h1M379 547h1M383 547h1M392 547h1M450 547h1M461 547h1M492 547h1M503 547h1M522 547h1M562 547h1M577 547h1M581 547h1M640 547h1M653 547h1M686 547h1M698 547h1M705 547h1M763 547h1M93 548h1M102 548h1M188 548h1M197 548h1M230 548h1M235 548h1M364 548h1M383 548h1M392 548h1M577 548h1M581 548h1M705 548h1M52 549h1M72 549h1M82 549h1M89 549h1M93 549h1M102 549h1M110 549h1M125 549h1M129 549h1M135 549h1M175 549h1M188 549h1M197 549h1M230 549h1M235 549h1M254 549h1M258 549h1M265 549h1M274 549h1M281 549h1M285 549h1M294 549h1M302 549h1M314 549h1M319 549h1M329 549h1M342 549h1M349 549h1M355 549h1M364 549h1M383 549h1M392 549h1M427 549h1M452 549h1M459 549h1M469 549h1M494 549h1M501 549h1M511 549h1M531 549h1M537 549h1M551 549h1M564 549h1M577 549h1M581 549h1M588 549h1M606 549h1M638 549h1M678 549h1M684 549h1M691 549h1M700 549h1M705 549h1M744 549h1M52 550h1M60 550h1M63 550h1M72 550h1M82 550h1M84 550h2M89 550h1M107 550h3M121 550h3M125 550h1M143 550h1M146 550h1M173 550h2M181 550h4M203 550h4M230 550h1M254 550h1M258 550h1M260 550h4M265 550h1M274 550h1M281 550h1M285 550h1M294 550h1M302 550h1M314 550h1M316 550h2M327 550h2M342 550h1M349 550h1M355 550h1M362 550h1M365 550h1M376 550h4M408 550h3M425 550h2M452 550h1M454 550h4M459 550h1M467 550h2M494 550h1M498 550h1M511 550h1M523 550h1M549 550h2M559 550h3M564 550h1M577 550h1M581 550h1M589 550h3M604 550h2M612 550h3M639 550h3M650 550h4M679 550h1M684 550h1M686 550h4M691 550h1M700 550h1M745 550h1M754 550h4M52 551h1M63 551h1M72 551h1M82 551h1M89 551h1M120 551h1M125 551h1M146 551h1M230 551h1M254 551h1M258 551h1M265 551h1M274 551h1M281 551h1M285 551h1M294 551h1M302 551h1M314 551h1M342 551h1M349 551h1M355 551h1M362 551h1M452 551h1M459 551h1M494 551h1M499 551h1M511 551h1M522 551h1M564 551h1M577 551h1M581 551h1M680 551h1M684 551h1M691 551h1M700 551h1M746 551h1M52 552h1M63 552h1M69 552h2M82 552h1M89 552h1M125 552h1M146 552h1M176 552h1M205 552h1M230 552h1M238 552h1M254 552h1M258 552h1M274 552h1M281 552h1M285 552h1M294 552h1M302 552h1M314 552h1M318 552h1M342 552h1M349 552h1M355 552h1M362 552h1M406 552h1M452 552h1M459 552h1M496 552h2M499 552h1M506 552h1M511 552h1M521 552h1M552 552h1M564 552h1M577 552h1M581 552h1M588 552h1M607 552h1M610 552h1M638 552h1M648 552h2M664 552h1M678 552h1M681 552h1M684 552h1M700 552h1M744 552h1M747 552h1M756 552h1M52 553h1M63 553h1M82 553h1M89 553h1M125 553h1M146 553h1M175 553h1M205 553h1M230 553h1M239 553h1M254 553h1M258 553h1M274 553h1M281 553h1M285 553h1M294 553h1M302 553h1M314 553h1M319 553h1M342 553h1M349 553h1M355 553h1M362 553h1M407 553h1M452 553h1M459 553h1M499 553h1M511 553h1M520 553h1M551 553h1M564 553h1M577 553h1M581 553h1M588 553h1M606 553h1M611 553h1M638 553h1M665 553h1M678 553h1M684 553h1M700 553h1M744 553h1M756 553h1M63 554h1M80 554h1M91 554h1M95 554h1M100 554h1M118 554h1M146 554h1M190 554h1M195 554h1M212 554h1M228 554h1M239 554h1M256 554h1M260 554h1M265 554h1M272 554h1M283 554h1M287 554h1M292 554h1M302 554h1M312 554h1M321 554h1M342 554h1M362 554h1M385 554h1M390 554h1M450 554h1M461 554h1M520 554h1M640 554h1M686 554h1M691 554h1M698 554h1M720 554h1M763 554h1M63 555h1M80 555h1M91 555h1M95 555h1M100 555h1M118 555h1M146 555h1M190 555h1M195 555h1M212 555h1M228 555h1M239 555h1M256 555h1M260 555h1M265 555h1M272 555h1M283 555h1M287 555h1M292 555h1M302 555h1M312 555h1M321 555h1M342 555h1M362 555h1M385 555h1M390 555h1M450 555h1M461 555h1M520 555h1M640 555h1M686 555h1M691 555h1M698 555h1M720 555h1M763 555h1M256 556h1M520 556h1M665 556h1M671 556h1M256 557h1M520 557h1M665 557h1M671 557h1M492 558h1M395 559h5M493 559h3M517 559h3" />
<path stroke="rgba(86,141,147,0.8627450980392157)" d="M506 518h1M508 518h1M506 519h1M46 520h1M506 520h1M571 520h1M573 520h1M46 521h1M503 521h3M571 521h1M573 521h1M46 522h1M571 522h1M573 522h1M46 523h1M58 523h3M69 523h5M76 523h9M88 523h5M95 523h3M101 523h9M114 523h3M121 523h9M132 523h5M142 523h5M149 523h4M157 523h5M168 523h5M175 523h9M187 523h5M200 523h5M208 523h3M216 523h3M224 523h5M232 523h3M238 523h5M245 523h3M251 523h5M258 523h3M266 523h3M277 523h3M284 523h9M297 523h5M307 523h7M333 523h5M340 523h3M348 523h4M361 523h5M371 523h8M384 523h5M398 523h5M405 523h3M413 523h3M425 523h3M430 523h3M438 523h5M447 523h7M460 523h5M469 523h5M477 523h1M481 523h3M486 523h5M494 523h3M499 523h5M507 523h3M517 523h5M525 523h5M532 523h3M540 523h3M549 523h3M555 523h3M571 523h1M573 523h1M585 523h3M594 523h9M606 523h5M615 523h5M622 523h2M626 523h3M634 523h3M646 523h8M657 523h3M663 523h5M670 523h5M677 523h4M683 523h5M691 523h1M695 523h3M702 523h3M714 523h5M721 523h4M729 523h3M741 523h5M748 523h4M754 523h9M765 523h9M776 523h5M784 523h3M46 524h1M57 524h1M85 524h1M100 524h1M113 524h1M130 524h1M141 524h1M156 524h1M184 524h1M207 524h1M211 524h1M231 524h1M235 524h1M265 524h1M276 524h1M293 524h1M302 524h1M306 524h1M383 524h1M412 524h1M437 524h1M476 524h1M478 524h1M480 524h1M493 524h1M497 524h1M506 524h1M510 524h1M522 524h1M548 524h1M571 524h1M573 524h1M588 524h1M603 524h1M614 524h1M633 524h1M656 524h1M669 524h1M688 524h1M701 524h1M713 524h1M728 524h1M740 524h1M753 524h1M783 524h1M787 524h1M47 525h7M58 525h5M67 525h5M78 525h1M82 525h1M85 525h1M88 525h1M91 525h3M97 525h1M100 525h1M103 525h1M107 525h1M112 525h7M121 525h2M125 525h1M129 525h1M132 525h2M136 525h1M142 525h1M146 525h1M151 525h2M155 525h9M166 525h5M177 525h1M181 525h1M184 525h1M187 525h1M190 525h2M200 525h2M204 525h1M207 525h1M210 525h1M216 525h4M224 525h2M228 525h1M231 525h1M234 525h1M238 525h1M241 525h3M247 525h1M251 525h1M254 525h2M260 525h1M266 525h5M275 525h7M286 525h1M290 525h1M293 525h1M295 525h5M302 525h1M306 525h1M309 525h1M312 525h2M333 525h1M336 525h2M342 525h1M346 525h8M361 525h7M373 525h1M376 525h1M382 525h9M398 525h1M401 525h2M407 525h1M411 525h7M425 525h1M432 525h1M436 525h9M447 525h1M451 525h5M458 525h9M469 525h2M473 525h1M476 525h1M478 525h1M480 525h1M483 525h1M486 525h2M490 525h3M496 525h1M499 525h2M503 525h3M509 525h1M517 525h3M522 525h1M525 525h1M528 525h2M534 525h1M540 525h4M549 525h1M556 525h2M571 525h1M573 525h1M585 525h5M594 525h2M598 525h1M602 525h1M606 525h1M609 525h2M615 525h1M619 525h1M628 525h1M632 525h7M646 525h1M649 525h2M653 525h1M657 525h1M663 525h1M666 525h2M670 525h1M674 525h1M679 525h2M683 525h1M687 525h1M696 525h2M700 525h7M714 525h1M718 525h1M723 525h2M727 525h7M741 525h1M745 525h3M750 525h2M754 525h1M758 525h1M761 525h2M767 525h1M771 525h1M776 525h2M780 525h3M786 525h1M72 526h1M83 526h1M85 526h1M100 526h1M102 526h1M111 526h1M113 526h1M128 526h1M143 526h1M154 526h1M156 526h1M171 526h1M182 526h1M184 526h1M207 526h1M209 526h1M231 526h1M233 526h1M274 526h1M276 526h1M291 526h1M293 526h1M302 526h1M306 526h1M368 526h1M381 526h1M383 526h1M410 526h1M412 526h1M435 526h1M437 526h1M450 526h1M476 526h1M478 526h1M480 526h1M495 526h1M508 526h1M520 526h1M522 526h1M550 526h1M571 526h1M573 526h1M588 526h1M601 526h1M616 526h1M631 526h1M633 526h1M658 526h1M671 526h1M686 526h1M699 526h1M701 526h1M715 526h1M726 526h1M728 526h1M742 526h1M755 526h1M768 526h1M770 526h1M785 526h1M111 527h1M128 527h1M143 527h1M154 527h1M156 527h1M209 527h1M233 527h1M274 527h1M368 527h1M381 527h1M383 527h1M410 527h1M435 527h1M437 527h1M450 527h1M476 527h1M478 527h1M480 527h1M495 527h1M508 527h1M520 527h1M550 527h1M571 527h1M573 527h1M601 527h1M616 527h1M631 527h1M658 527h1M671 527h1M686 527h1M699 527h1M715 527h1M726 527h1M742 527h1M755 527h1M768 527h1M770 527h1M785 527h1M46 528h1M57 528h1M111 528h1M128 528h1M139 528h1M143 528h1M154 528h1M156 528h1M209 528h1M233 528h1M265 528h1M274 528h1M368 528h1M381 528h1M383 528h1M410 528h1M435 528h1M437 528h1M450 528h1M476 528h1M478 528h1M480 528h1M493 528h1M495 528h1M506 528h1M508 528h1M520 528h1M550 528h1M571 528h1M573 528h1M601 528h1M616 528h1M631 528h1M658 528h1M671 528h1M686 528h1M699 528h1M715 528h1M726 528h1M742 528h1M755 528h1M768 528h1M770 528h1M783 528h1M785 528h1M46 529h1M57 529h1M111 529h1M128 529h1M139 529h1M143 529h1M154 529h1M156 529h1M209 529h1M233 529h1M265 529h1M274 529h1M368 529h1M381 529h1M383 529h1M410 529h1M435 529h1M437 529h1M450 529h1M476 529h1M478 529h1M480 529h1M493 529h1M495 529h1M506 529h1M508 529h1M520 529h1M550 529h1M571 529h1M601 529h1M616 529h1M631 529h1M686 529h1M699 529h1M715 529h1M726 529h1M742 529h1M755 529h1M768 529h1M770 529h1M783 529h1M785 529h1M46 530h1M55 530h1M57 530h1M111 530h1M113 530h1M128 530h1M139 530h1M143 530h1M154 530h1M156 530h1M207 530h1M209 530h1M231 530h1M233 530h1M263 530h1M265 530h1M274 530h1M276 530h1M306 530h1M368 530h1M381 530h1M383 530h1M410 530h1M412 530h1M435 530h1M437 530h1M450 530h1M476 530h1M478 530h1M480 530h1M493 530h1M495 530h1M506 530h1M508 530h1M520 530h1M522 530h1M550 530h1M571 530h1M588 530h1M601 530h1M616 530h1M631 530h1M633 530h1M686 530h1M699 530h1M701 530h1M715 530h1M726 530h1M728 530h1M742 530h1M753 530h1M755 530h1M768 530h1M770 530h1M783 530h1M785 530h1M48 531h1M57 531h1M83 531h1M102 531h1M113 531h1M130 531h1M139 531h1M141 531h1M156 531h1M182 531h1M207 531h1M211 531h1M235 531h1M265 531h1M276 531h1M291 531h1M302 531h1M304 531h1M383 531h1M412 531h1M437 531h1M493 531h1M497 531h1M506 531h1M510 531h1M522 531h1M548 531h1M603 531h1M614 531h1M633 531h1M701 531h1M713 531h1M728 531h1M740 531h1M753 531h1M783 531h1M787 531h1M48 532h1M57 532h1M83 532h1M102 532h1M113 532h1M130 532h1M139 532h1M141 532h1M156 532h1M182 532h1M207 532h1M211 532h1M235 532h1M265 532h1M276 532h1M291 532h1M302 532h1M304 532h1M383 532h1M412 532h1M437 532h1M493 532h1M497 532h1M506 532h1M510 532h1M522 532h1M548 532h1M603 532h1M614 532h1M633 532h1M701 532h1M713 532h1M728 532h1M740 532h1M753 532h1M783 532h1M787 532h1M450 533h1M753 533h1M755 533h1M450 534h1M753 534h1M755 534h1M452 535h1M656 535h1M216 541h1M490 541h1M216 542h1M46 543h1M214 543h1M216 543h1M46 544h1M215 544h1M234 544h1M238 544h1M46 545h1M47 546h7M56 546h5M64 546h3M69 546h9M81 546h5M88 546h3M94 546h8M107 546h3M119 546h5M128 546h9M139 546h5M147 546h3M157 546h5M164 546h4M170 546h7M181 546h3M189 546h8M200 546h5M207 546h5M219 546h3M232 546h2M242 546h5M249 546h2M253 546h3M261 546h3M273 546h10M288 546h4M297 546h9M313 546h3M318 546h3M324 546h5M331 546h4M337 546h9M350 546h5M359 546h5M367 546h5M376 546h3M384 546h8M395 546h7M408 546h3M422 546h5M429 546h4M441 546h5M451 546h5M458 546h3M464 546h5M471 546h4M483 546h5M493 546h3M498 546h5M506 546h9M517 546h3M523 546h5M530 546h9M546 546h7M555 546h5M563 546h5M570 546h5M578 546h1M582 546h3M589 546h3M601 546h7M612 546h3M623 546h5M635 546h5M643 546h3M650 546h3M664 546h9M675 546h7M687 546h3M699 546h6M710 546h5M719 546h9M732 546h5M741 546h7M751 546h5M758 546h5M61 547h1M78 547h1M106 547h1M144 547h1M156 547h1M169 547h1M199 547h1M241 547h1M296 547h1M323 547h1M336 547h1M366 547h1M394 547h1M411 547h1M421 547h1M446 547h1M463 547h1M488 547h1M505 547h1M516 547h1M545 547h1M560 547h1M575 547h1M592 547h1M600 547h1M615 547h1M628 547h1M642 547h1M646 547h1M682 547h1M709 547h1M737 547h1M748 547h1M750 547h1M47 548h7M56 548h1M60 548h3M66 548h1M69 548h2M73 548h1M77 548h1M81 548h1M84 548h3M90 548h1M96 548h1M99 548h1M105 548h7M119 548h6M130 548h1M134 548h1M139 548h1M143 548h3M149 548h1M157 548h1M161 548h1M166 548h2M170 548h1M174 548h1M179 548h7M191 548h1M194 548h1M200 548h1M204 548h1M207 548h2M211 548h1M217 548h3M232 548h2M242 548h1M246 548h1M255 548h1M259 548h6M273 548h1M276 548h3M282 548h1M286 548h8M297 548h1M301 548h1M304 548h2M313 548h1M320 548h1M324 548h1M328 548h3M333 548h2M337 548h1M341 548h1M344 548h2M348 548h9M359 548h2M366 548h1M371 548h1M374 548h7M386 548h1M389 548h1M395 548h1M399 548h5M408 548h5M422 548h1M426 548h3M431 548h2M439 548h9M451 548h1M454 548h2M460 548h1M464 548h1M468 548h3M473 548h2M483 548h7M493 548h1M498 548h1M502 548h1M506 548h1M510 548h1M513 548h2M517 548h1M523 548h1M526 548h2M532 548h1M536 548h1M546 548h1M550 548h1M555 548h1M559 548h1M563 548h1M567 548h1M570 548h1M574 548h1M583 548h2M587 548h7M601 548h1M605 548h1M612 548h5M621 548h5M628 548h1M635 548h2M639 548h1M642 548h1M645 548h1M650 548h5M664 548h1M668 548h1M672 548h1M675 548h2M679 548h1M682 548h1M685 548h6M699 548h1M702 548h2M708 548h9M719 548h1M723 548h1M727 548h1M730 548h9M741 548h2M745 548h1M748 548h1M751 548h1M755 548h1M758 548h2M762 548h1M46 549h1M59 549h1M61 549h1M76 549h1M104 549h1M106 549h1M131 549h1M133 549h1M142 549h1M144 549h1M158 549h1M171 549h1M186 549h1M201 549h1M216 549h1M243 549h1M298 549h1M325 549h1M338 549h1M366 549h1M370 549h1M381 549h1M396 549h1M411 549h1M423 549h1M446 549h1M448 549h1M465 549h1M488 549h1M490 549h1M507 549h1M518 549h1M533 549h1M535 549h1M547 549h1M558 549h1M573 549h1M592 549h1M602 549h1M615 549h1M628 549h1M642 549h1M644 549h1M655 549h1M667 549h1M669 549h1M682 549h1M707 549h1M709 549h1M722 549h1M724 549h1M737 549h1M739 549h1M748 549h1M752 549h1M46 550h1M61 550h1M76 550h1M104 550h1M131 550h1M133 550h1M144 550h1M158 550h1M171 550h1M186 550h1M201 550h1M216 550h1M243 550h1M298 550h1M325 550h1M338 550h1M366 550h1M370 550h1M381 550h1M396 550h1M423 550h1M446 550h1M448 550h1M465 550h1M488 550h1M490 550h1M507 550h1M518 550h1M533 550h1M535 550h1M547 550h1M573 550h1M602 550h1M644 550h1M655 550h1M667 550h1M669 550h1M707 550h1M709 550h1M722 550h1M724 550h1M737 550h1M739 550h1M752 550h1M46 551h1M61 551h1M76 551h1M104 551h1M131 551h1M133 551h1M144 551h1M158 551h1M171 551h1M186 551h1M201 551h1M216 551h1M243 551h1M298 551h1M325 551h1M338 551h1M366 551h1M368 551h1M370 551h1M381 551h1M396 551h1M423 551h1M446 551h1M448 551h1M465 551h1M488 551h1M490 551h1M507 551h1M518 551h1M533 551h1M535 551h1M547 551h1M573 551h1M602 551h1M644 551h1M655 551h1M667 551h1M669 551h1M707 551h1M709 551h1M722 551h1M724 551h1M737 551h1M739 551h1M752 551h1M46 552h1M76 552h1M104 552h1M131 552h1M133 552h1M158 552h1M171 552h1M201 552h1M243 552h1M298 552h1M325 552h1M338 552h1M366 552h1M368 552h1M370 552h1M396 552h1M423 552h1M446 552h1M448 552h1M465 552h1M488 552h1M490 552h1M507 552h1M533 552h1M535 552h1M547 552h1M573 552h1M602 552h1M644 552h1M655 552h1M669 552h1M707 552h1M709 552h1M722 552h1M724 552h1M737 552h1M739 552h1M752 552h1M46 553h1M59 553h1M76 553h1M104 553h1M106 553h1M131 553h1M133 553h1M142 553h1M158 553h1M171 553h1M201 553h1M243 553h1M298 553h1M325 553h1M338 553h1M366 553h1M368 553h1M370 553h1M396 553h1M411 553h1M423 553h1M446 553h1M448 553h1M465 553h1M488 553h1M490 553h1M505 553h1M507 553h1M533 553h1M535 553h1M547 553h1M558 553h1M560 553h1M573 553h1M602 553h1M615 553h1M642 553h1M644 553h1M655 553h1M669 553h1M682 553h1M707 553h1M709 553h1M722 553h1M724 553h1M737 553h1M739 553h1M748 553h1M752 553h1M61 554h1M78 554h1M106 554h1M144 554h1M156 554h1M169 554h1M186 554h1M199 554h1M216 554h1M241 554h1M296 554h1M298 554h1M323 554h1M336 554h1M338 554h1M366 554h1M368 554h1M381 554h1M396 554h1M421 554h1M446 554h1M463 554h1M488 554h1M505 554h1M545 554h1M600 554h1M628 554h1M642 554h1M646 554h1M657 554h1M682 554h1M709 554h1M724 554h1M737 554h1M748 554h1M750 554h1M765 554h1M767 554h1M61 555h1M78 555h1M106 555h1M144 555h1M156 555h1M169 555h1M186 555h1M199 555h1M216 555h1M241 555h1M296 555h1M298 555h1M323 555h1M336 555h1M338 555h1M366 555h1M368 555h1M381 555h1M396 555h1M421 555h1M446 555h1M463 555h1M488 555h1M505 555h1M545 555h1M600 555h1M628 555h1M642 555h1M646 555h1M657 555h1M682 555h1M709 555h1M724 555h1M737 555h1M748 555h1M750 555h1M765 555h1M767 555h1M76 556h1M78 556h1M396 556h1M505 556h1M507 556h1M76 557h1M78 557h1M396 557h1M505 557h1M507 557h1M394 558h1M516 558h1" />
<path stroke="rgba(179,169,185,0.5686274509803921)" d="M821 518h1M23 519h1M821 519h1M23 520h1M821 520h1M23 521h1M821 521h1M23 522h1M821 522h1M23 523h1M821 523h1M23 524h1M821 524h1M23 525h1M821 525h1M23 526h1M821 526h1M23 527h1M821 527h1M23 528h1M821 528h1M23 529h1M821 529h1M23 530h1M821 530h1M23 531h1M821 531h1M23 532h1M821 532h1M23 533h1M821 533h1M23 534h1M821 534h1M23 535h1M821 535h1M23 536h1M821 536h1M23 537h1M821 537h1M23 538h1M821 538h1M23 539h1M23 540h1M23 541h1M23 542h1M23 543h1M23 544h1M23 545h1M23 546h1M23 547h1M23 548h1" />
<path stroke="rgba(24,83,93,0.9607843137254902)" d="M46 519h1M571 519h1M573 519h1M81 525h1M89 525h1M96 525h1M104 525h1M124 525h1M135 525h1M180 525h1M188 525h1M203 525h1M227 525h1M239 525h1M246 525h1M252 525h1M259 525h1M289 525h1M310 525h1M334 525h1M341 525h1M399 525h1M406 525h1M426 525h1M431 525h1M472 525h1M489 525h1M502 525h1M526 525h1M533 525h1M597 525h1M607 525h1M627 525h1M647 525h1M652 525h1M759 525h1M766 525h1M772 525h1M779 525h1M113 527h1M207 527h1M231 527h1M276 527h1M412 527h1M588 527h1M633 527h1M701 527h1M728 527h1M46 542h1M63 548h1M72 548h1M82 548h1M89 548h1M129 548h1M135 548h1M146 548h1M175 548h1M254 548h1M274 548h1M281 548h1M302 548h1M314 548h1M319 548h1M342 548h1M452 548h1M459 548h1M494 548h1M501 548h1M511 548h1M531 548h1M537 548h1M551 548h1M564 548h1M606 548h1M638 548h1M678 548h1M700 548h1M744 548h1M59 550h1M106 550h1M142 550h1M411 550h1M558 550h1M592 550h1M615 550h1M642 550h1" />
<path stroke="rgba(97,153,158,0.8392156862745098)" d="M52 519h1M508 519h1M87 523h1M98 523h1M137 523h1M186 523h1M205 523h1M215 523h1M229 523h1M237 523h1M248 523h1M250 523h1M261 523h1M332 523h1M343 523h1M347 523h1M352 523h1M366 523h1M370 523h1M379 523h1M397 523h1M408 523h1M424 523h1M433 523h1M474 523h1M491 523h1M504 523h1M524 523h1M535 523h1M539 523h1M554 523h1M605 523h1M629 523h1M645 523h1M654 523h1M662 523h1M690 523h1M694 523h1M781 523h1M87 525h1M98 525h1M137 525h1M186 525h1M205 525h1M215 525h1M220 525h1M229 525h1M237 525h1M248 525h1M250 525h1M261 525h1M332 525h1M343 525h1M345 525h1M354 525h1M397 525h1M408 525h1M424 525h1M433 525h1M474 525h1M524 525h1M535 525h1M539 525h1M544 525h1M605 525h1M629 525h1M645 525h1M654 525h1M662 525h1M57 527h1M94 527h1M139 527h1M244 527h1M265 527h1M554 527h1M746 527h1M55 529h1M137 529h1M145 529h1M215 529h1M257 529h1M263 529h1M306 529h1M308 529h1M339 529h1M366 529h1M404 529h1M522 529h1M531 529h1M539 529h1M552 529h1M717 529h1M744 529h1M753 529h1M452 536h1M656 536h1M52 542h1M220 542h1M490 542h1M235 544h1M239 544h1M63 546h1M80 546h1M91 546h1M93 546h1M102 546h1M118 546h1M146 546h1M184 546h1M188 546h1M197 546h1M212 546h1M218 546h1M256 546h1M260 546h1M272 546h1M283 546h1M287 546h1M292 546h1M312 546h1M321 546h1M364 546h1M379 546h1M383 546h1M392 546h1M450 546h1M461 546h1M492 546h1M503 546h1M522 546h1M562 546h1M577 546h1M581 546h1M640 546h1M653 546h1M686 546h1M698 546h1M705 546h1M763 546h1M80 548h1M91 548h1M118 548h1M125 548h1M212 548h1M256 548h1M258 548h1M265 548h1M272 548h1M283 548h1M285 548h1M294 548h1M312 548h1M321 548h1M450 548h1M461 548h1M492 548h1M503 548h1M522 548h1M562 548h1M640 548h1M684 548h1M691 548h1M698 548h1M763 548h1M87 550h1M175 550h1M329 550h1M364 550h1M427 550h1M469 550h1M551 550h1M606 550h1M173 552h1M203 552h1M260 552h1M327 552h1M425 552h1M457 552h1M467 552h1M505 552h1M549 552h1M604 552h1M653 552h1M680 552h1M682 552h1M686 552h1M746 552h1M748 552h1M754 552h1M394 559h1M516 559h1" />
<path stroke="rgba(65,118,128,0.9019607843137255)" d="M502 519h1M79 525h1M94 525h1M106 525h1M126 525h1M145 525h1M178 525h1M244 525h1M287 525h1M300 525h1M308 525h1M372 525h1M377 525h1M448 525h1M482 525h1M599 525h1M618 525h1M673 525h1M684 525h1M717 525h1M744 525h1M757 525h1M46 527h1M308 527h1M491 527h1M493 527h1M504 527h1M506 527h1M781 527h1M783 527h1M113 529h1M207 529h1M231 529h1M276 529h1M412 529h1M554 529h1M584 529h1M588 529h1M633 529h1M660 529h1M701 529h1M728 529h1M57 548h1M65 548h1M74 548h1M87 548h1M95 548h1M100 548h1M140 548h1M148 548h1M160 548h1M173 548h1M190 548h1M195 548h1M203 548h1M245 548h1M279 548h1M300 548h1M327 548h1M340 548h1M385 548h1M390 548h1M398 548h1M425 548h1M467 548h1M499 548h1M509 548h1M549 548h1M556 548h1M566 548h1M571 548h1M604 548h1M626 548h1M665 548h1M671 548h1M680 548h1M720 548h1M726 548h1M746 548h1M754 548h1M368 550h1M499 550h1M680 550h1M746 550h1M59 552h1M106 552h1M142 552h1M175 552h1M407 552h1M411 552h1M520 552h1M551 552h1M558 552h1M560 552h1M606 552h1M611 552h1M615 552h1M642 552h1M665 552h1" />
<path stroke="rgba(7,72,81,0.9803921568627451)" d="M577 519h1M61 527h1M117 527h1M135 527h1M203 527h1M227 527h1M269 527h1M280 527h1M310 527h1M416 527h1M489 527h1M502 527h1M637 527h1M705 527h1M732 527h1M779 527h1M662 529h1M230 542h1M110 550h1M588 550h1M638 550h1M678 550h1M744 550h1M522 552h1" />
<path stroke="rgba(179,167,183,0.25098039215686274)" d="M822 520h1M822 521h1M822 522h1M822 523h1M22 524h1M822 524h1M22 525h1M822 525h1M22 526h1M822 526h1M22 527h1M822 527h1M22 528h1M822 528h1M22 529h1M822 529h1M22 530h1M822 530h1M22 531h1M822 531h1M22 532h1M822 532h1M22 533h1M822 533h1M22 534h1M822 534h1M22 535h1M822 535h1M22 536h1M822 536h1M22 537h1M822 537h1M22 538h1M822 538h1M22 539h1M822 539h1M22 540h1M822 540h1M22 541h1M822 541h1M22 542h1M822 542h1M22 543h1M822 543h1M22 544h1M822 544h1M22 545h1M822 545h1M22 546h1M822 546h1M22 547h1M822 547h1M22 548h1M822 548h1M22 549h1" />
<path stroke="rgba(52,106,114,0.9215686274509803)" d="M46 525h1M72 525h1M83 525h1M102 525h1M128 525h1M143 525h1M171 525h1M182 525h1M209 525h1M233 525h1M291 525h1M450 525h1M493 525h1M495 525h1M506 525h1M508 525h1M520 525h1M550 525h1M601 525h1M616 525h1M658 525h1M671 525h1M686 525h1M715 525h1M742 525h1M755 525h1M768 525h1M770 525h1M783 525h1M785 525h1M46 546h1M46 548h1M59 548h1M76 548h1M131 548h1M133 548h1M142 548h1M158 548h1M171 548h1M201 548h1M243 548h1M298 548h1M325 548h1M338 548h1M370 548h1M396 548h1M423 548h1M465 548h1M507 548h1M518 548h1M533 548h1M535 548h1M547 548h1M558 548h1M573 548h1M602 548h1M644 548h1M667 548h1M669 548h1M722 548h1M724 548h1M752 548h1" />
<path stroke="rgba(75,129,138,0.8823529411764706)" d="M193 527h1M215 527h1M320 527h1M539 527h1M612 527h1M662 527h1M213 529h1M426 529h1M431 529h1M537 529h1M569 536h1M579 536h1M228 542h1M120 550h1M522 550h1M239 552h1M319 552h1M492 559h1" />
</svg>