<svg xmlns="http://www.w3.org/2000/svg" viewBox="0 -0.5 77 111" shape-rendering="crispEdges">
<metadata>Made with Pixels to Svg https://codepen.io/shshaw/pen/XbxvNj</metadata>
<path stroke="#190f3a" d="M31 6h8M29 7h2M28 8h1M27 9h1M26 10h1M25 11h1M40 11h1M25 12h1M38 12h3M24 13h1M37 13h5M24 14h1M36 14h7M23 15h1M36 15h7M23 16h1M36 16h8M22 17h1M30 17h3M36 17h9M22 18h1M29 18h1M33 18h1M36 18h9M22 19h1M28 19h1M33 19h1M36 19h8M22 20h1M28 20h1M33 20h1M36 20h7M22 21h1M29 21h1M33 21h1M36 21h7M48 21h1M22 22h1M30 22h3M36 22h7M48 22h2M23 23h1M36 23h7M47 23h5M23 24h1M36 24h7M45 24h8M24 25h1M36 25h17M25 26h1M37 26h16M26 27h1M38 27h15M27 28h2M39 28h14M29 29h6M40 29h13M29 30h7M42 30h11M28 31h9M44 31h8M28 32h10M50 32h1M28 33h12M50 33h1M28 34h14M49 34h1M26 35h3M35 35h14M26 36h4M38 36h10M25 37h6M40 37h7M25 38h7M42 38h5M25 39h8M47 39h1M25 40h8M47 40h1M24 41h10M42 41h1M48 41h1M24 42h10M43 42h1M48 42h1M24 43h1M26 43h5M33 43h1M44 43h1M49 43h1M22 44h3M28 44h2M33 44h1M45 44h5M22 45h1M33 45h1M49 45h1M22 46h1M32 46h1M49 46h1M22 47h1M32 47h1M49 47h1M21 48h1M32 48h1M49 48h1M21 49h1M32 49h1M49 49h1M21 50h1M31 50h4M49 50h1M21 51h1M31 51h1M49 51h1M20 52h1M30 52h1M36 52h3M49 52h1M20 53h1M30 53h1M39 53h12M20 54h1M29 54h1M48 54h2M51 54h1M20 55h1M29 55h1M48 55h2M52 55h1M20 56h1M29 56h1M48 56h2M53 56h1M20 57h1M28 57h1M48 57h2M54 57h1M21 58h1M28 58h1M48 58h2M55 58h1M21 59h1M28 59h1M48 59h2M55 59h1M20 60h1M22 60h4M27 60h1M40 60h1M48 60h2M54 60h2M20 61h1M26 61h1M41 61h1M48 61h1M52 61h2M21 62h1M26 62h1M42 62h1M48 62h4M21 63h1M27 63h1M43 63h1M48 63h1M22 64h3M27 64h2M43 64h1M48 64h1M25 65h2M28 65h2M44 65h1M48 65h1M28 66h2M44 66h1M47 66h1M28 67h2M45 67h3M28 68h3M45 68h2M28 69h1M30 69h1M45 69h2M28 70h1M30 70h1M46 70h1M28 71h1M31 71h1M46 71h1M27 72h1M32 72h1M47 72h1M26 73h1M33 73h1M47 73h1M26 74h1M34 74h1M48 74h1M25 75h1M35 75h1M48 75h1M25 76h1M36 76h1M49 76h1M25 77h1M37 77h1M50 77h1M24 78h1M36 78h3M51 78h1M24 79h1M35 79h1M39 79h1M52 79h1M24 80h1M34 80h1M40 80h1M53 80h1M23 81h1M33 81h1M41 81h1M54 81h3M23 82h1M32 82h1M42 82h1M56 82h1M23 83h1M32 83h1M43 83h1M55 83h1M23 84h1M32 84h1M44 84h1M54 84h1M23 85h1M33 85h1M45 85h1M53 85h1M24 86h1M34 86h1M46 86h1M51 86h2M25 87h1M35 87h1M47 87h4M25 88h11" />
<path stroke="#281854" d="M39 6h4M43 7h2M45 8h1M46 9h1M42 10h6M41 11h8M41 12h9M42 13h9M43 14h9M43 15h9M44 16h9M45 17h2M48 17h5M48 18h5M48 19h5M48 20h5M49 21h4M50 22h3M52 23h1" />
<path stroke="#beb3e0" d="M31 7h3M29 8h5M28 9h6M27 10h7M26 11h8M26 12h8M25 13h9M25 14h9M24 15h10M24 16h10M23 17h7M33 17h1M23 18h6M30 18h3M23 19h5M30 19h3M23 20h5M30 20h3M23 21h6M31 21h2M23 22h7M33 22h1M24 23h10M24 24h10M25 25h10M26 26h9M27 27h9M29 28h8M35 29h3M36 30h3M37 31h3M38 32h3M40 33h3M42 34h7M35 36h3M34 37h6M33 38h6M40 38h2M33 39h5M39 39h1M42 39h1M33 40h4M38 40h1M34 41h2M37 41h1M34 42h3M31 43h2M34 43h2M30 44h2M34 44h2M27 45h4M34 45h2M26 46h4M33 46h3M25 47h4M33 47h3M24 48h4M33 48h3M24 49h3M33 49h3M24 50h3M35 50h1M24 51h2M23 52h3M23 53h3M38 53h1M23 54h3M35 54h1M37 54h5M23 55h3M34 55h1M36 55h3M40 55h1M23 56h3M35 56h3M39 56h1M23 57h3M34 57h3M38 57h1M23 58h3M33 58h3M37 58h1M23 59h3M32 59h3M36 59h1M21 60h1M31 60h5M21 61h2M31 61h4M22 62h1M31 62h4M22 63h1M31 63h4M32 64h3M32 65h3M32 66h3M32 67h3M32 68h3M32 69h4M32 70h5M32 71h6M33 72h6M34 73h6M35 74h6M36 75h6M37 76h6M38 77h6M32 78h4M39 78h6M31 79h4M40 79h6M30 80h4M41 80h6M29 81h4M42 81h6M28 82h4M43 82h3M28 83h4M46 83h4M45 84h6M28 85h5M46 85h6M29 86h5M47 86h4M30 87h5" />
<path stroke="#eceaf5" d="M34 7h9M34 8h7M34 9h6M34 10h5M34 11h4M34 12h4M34 13h3M34 14h2M34 15h2M34 16h2M34 17h2M34 18h2M34 19h2M34 20h2M34 21h2M34 22h2M34 23h2M34 24h2M35 25h1M35 26h2M36 27h2M37 28h2M38 29h2M39 30h3M40 31h2M41 32h3M43 33h4M32 44h1M31 45h2M30 46h2M29 47h3M28 48h4M27 49h5M27 50h4M26 51h5M26 52h4M26 53h4M26 54h3M42 54h4M26 55h3M39 55h1M41 55h5M26 56h3M38 56h1M40 56h6M26 57h2M37 57h1M39 57h7M26 58h2M36 58h1M38 58h8M26 59h2M35 59h1M37 59h9M26 60h1M36 60h4M41 60h5M35 61h6M42 61h4M35 62h6M43 62h3M35 63h7M44 63h2M35 64h7M44 64h2M35 65h8M45 65h1M35 66h8M45 66h1M35 67h8M35 68h9M36 69h8M37 70h7M38 71h7M39 72h7M40 73h6M41 74h5M42 75h5M43 76h5M44 77h4M45 78h4M46 79h4M47 80h4M48 81h4M52 82h1M50 83h4M51 84h3M52 85h1" />
<path stroke="#ffffff" d="M41 8h4M40 9h6M39 10h3M38 11h2M42 31h2M44 32h6M47 33h3M43 39h4M43 40h4M44 41h4M44 42h4M45 43h4M45 45h4M50 45h1M46 46h3M50 46h1M46 47h3M50 47h1M46 48h3M46 49h3M46 50h3M46 51h3M46 52h3M46 54h2M46 55h2M46 56h2M46 57h2M46 58h2M46 59h2M46 60h2M46 61h2M41 62h1M46 62h2M42 63h1M46 63h2M42 64h1M46 64h2M43 65h1M46 65h2M43 66h1M46 66h1M43 67h2M44 68h1M47 68h1M44 69h1M47 69h1M44 70h2M47 70h1M45 71h1M47 71h1M46 72h1M46 73h1M46 74h2M47 75h1M48 76h1M48 77h2M49 78h2M50 79h2M51 80h2M53 82h3M54 83h1" />
<path stroke="#740035" d="M47 17h1M45 18h3M44 19h1M47 19h1M43 20h1M47 20h1M43 21h1M47 21h1M43 22h1M47 22h1M43 23h1M46 23h1M43 24h2" />
<path stroke="#9664e0" d="M29 19h1M29 20h1M30 21h1M31 35h4M31 36h4M31 37h3M32 38h1M25 43h1M25 44h3M23 45h4M23 46h3M23 47h2M22 48h2M22 49h2M22 50h2M22 51h2M32 51h3M21 52h2M31 52h5M21 53h2M31 53h2M34 53h4M21 54h2M30 54h5M36 54h1M50 54h1M21 55h2M30 55h4M35 55h1M50 55h2M21 56h2M30 56h5M50 56h3M21 57h2M29 57h5M50 57h4M22 58h1M29 58h4M50 58h5M22 59h1M29 59h3M50 59h5M28 60h3M50 60h4M27 61h4M49 61h3M27 62h4M28 63h3M29 64h3M30 65h2M30 66h2M30 67h2M31 68h1M29 69h1M31 69h1M29 70h1M31 70h1M29 71h2M28 72h4M27 73h6M27 74h7M26 75h9M26 76h10M26 77h11M25 78h7M25 79h6M25 80h5M24 81h5M52 81h2M24 82h4M46 82h6M24 83h4M44 83h2M24 84h8M24 85h4M25 86h4M26 87h4" />
<path stroke="#c40013" d="M45 19h2M44 20h1M46 20h1M44 21h1M46 21h1M44 22h1M46 22h1M44 23h2" />
<path stroke="#ff4657" d="M45 20h1M45 21h1M45 22h1" />
<path stroke="rgba(26,13,64,0.0784313725490196)" d="M27 34h1" />
<path stroke="#221548" d="M29 35h1" />
<path stroke="#7049b0" d="M30 35h1" />
<path stroke="#1a103b" d="M30 36h1" />
<path stroke="#f0eef8" d="M39 38h1M38 39h1M40 39h2M37 40h1M39 40h4M36 41h1M38 41h4M43 41h1M37 42h6M36 43h8M36 44h9M36 45h9M36 46h10M36 47h10M36 48h10M36 49h10M36 50h10M36 51h10M39 52h7M25 61h1M24 62h2M24 63h3M25 64h2" />
<path stroke="#211643" d="M35 51h1" />
<path stroke="#9161d9" d="M33 53h1" />
<path stroke="#cec4ec" d="M23 61h2M23 62h1M23 63h1" />
<path stroke="#806384" d="M19 89h1M57 89h1M18 90h1M58 90h1M17 91h2M58 91h2M16 92h3M58 92h3M16 93h4M57 93h4M16 94h5M56 94h5M17 95h6M53 95h7M18 96h41M19 97h39M20 98h37M22 99h33M24 100h29" />
<path stroke="#6a526e" d="M20 89h37M19 90h39M19 91h39M19 92h39M20 93h37M21 94h35M23 95h30" />
</svg>