<svg xmlns="http://www.w3.org/2000/svg" viewBox="0 -0.5 77 111" shape-rendering="crispEdges">
<metadata>Made with Pixels to Svg https://codepen.io/shshaw/pen/XbxvNj</metadata>
<path stroke="#190f36" d="M31 6h7M29 7h2M28 8h1M27 9h1M26 10h1M25 11h1M25 12h1M38 12h2M24 13h1M37 13h4M24 14h1M36 14h6M23 15h1M36 15h6M23 16h1M36 16h7M22 17h1M30 17h3M36 17h8M22 18h1M29 18h1M33 18h1M36 18h9M22 19h1M28 19h1M33 19h1M36 19h8M22 20h1M28 20h1M33 20h1M36 20h7M22 21h1M29 21h1M33 21h1M36 21h7M22 22h1M30 22h3M36 22h7M48 22h1M23 23h1M36 23h7M47 23h4M23 24h1M36 24h7M45 24h7M24 25h1M36 25h17M25 26h1M37 26h16M26 27h1M38 27h15M27 28h2M39 28h14M29 29h6M40 29h13M28 30h8M42 30h11M28 31h9M44 31h8M28 32h10M50 32h1M28 33h12M50 33h1M26 34h16M49 34h1M26 35h3M35 35h14M25 36h5M38 36h10M24 37h7M40 37h7M24 38h8M42 38h5M24 39h9M47 39h1M24 40h10M47 40h1M24 41h8M33 41h1M42 41h1M48 41h1M24 42h7M33 42h1M43 42h1M48 42h1M24 43h1M26 43h4M33 43h1M44 43h1M49 43h1M24 44h1M33 44h1M45 44h5M23 45h2M33 45h1M49 45h1M23 46h1M33 46h1M49 46h1M23 47h1M33 47h1M49 47h1M23 48h1M33 48h1M49 48h1M23 49h1M33 49h1M49 49h1M23 50h1M33 50h2M49 50h1M23 51h1M33 51h1M35 51h1M49 51h1M23 52h1M32 52h1M36 52h3M49 52h1M23 53h1M32 53h1M39 53h11M23 54h1M32 54h1M48 54h2M23 55h2M32 55h1M48 55h2M24 56h1M32 56h1M48 56h2M24 57h1M32 57h1M48 57h2M24 58h1M32 58h1M48 58h2M25 59h1M31 59h1M48 59h2M25 60h6M48 60h1M25 61h1M31 61h1M42 61h1M48 61h1M25 62h1M32 62h1M42 62h1M48 62h1M26 63h1M32 63h1M41 63h1M48 63h1M27 64h5M41 64h1M48 64h1M29 65h1M41 65h1M48 65h1M28 66h1M40 66h1M48 66h1M28 67h1M40 67h1M48 67h1M28 68h1M40 68h1M48 68h1M28 69h1M39 69h1M48 69h1M28 70h1M39 70h1M48 70h1M28 71h1M39 71h1M48 71h1M28 72h1M38 72h1M48 72h1M28 73h1M38 73h1M48 73h1M28 74h1M38 74h1M48 74h1M28 75h1M38 75h1M48 75h1M28 76h1M38 76h1M48 76h1M28 77h1M38 77h1M48 77h1M28 78h1M38 78h1M48 78h1M28 79h1M37 79h2M48 79h1M28 80h1M37 80h1M39 80h1M48 80h1M28 81h1M37 81h1M39 81h1M48 81h1M28 82h1M37 82h1M40 82h1M48 82h1M28 83h1M37 83h1M40 83h1M49 83h1M28 84h1M38 84h1M41 84h1M50 84h1M28 85h1M39 85h1M42 85h2M50 85h1M28 86h1M40 86h1M44 86h7M29 87h1M40 87h1M30 88h11" />
<path stroke="#27184f" d="M38 6h5M43 7h2M45 8h1M46 9h1M42 10h6M40 11h9M40 12h10M41 13h10M42 14h10M42 15h10M43 16h10M44 17h3M48 17h5M48 18h5M48 19h5M48 20h5M48 21h5M49 22h4M51 23h2M52 24h1" />
<path stroke="#c1b5e0" d="M31 7h3M29 8h5M28 9h6M27 10h7M26 11h8M26 12h8M25 13h9M25 14h9M24 15h10M24 16h10M23 17h7M33 17h1M23 18h6M30 18h3M23 19h5M30 19h3M23 20h5M30 20h3M23 21h6M31 21h2M23 22h7M33 22h1M24 23h10M24 24h10M25 25h10M26 26h9M27 27h9M29 28h8M35 29h3M36 30h3M37 31h3M38 32h3M40 33h3M42 34h7M35 36h3M34 37h6M33 38h6M40 38h2M33 39h5M39 39h1M42 39h1M34 40h3M38 40h1M32 41h1M34 41h2M37 41h1M31 42h2M34 42h3M30 43h3M34 43h2M29 44h3M34 44h2M28 45h3M34 45h2M27 46h3M34 46h2M26 47h3M34 47h2M26 48h3M34 48h2M26 49h3M34 49h2M26 50h3M35 50h1M26 51h3M26 52h3M26 53h3M38 53h1M26 54h3M35 54h1M37 54h5M26 55h3M34 55h1M36 55h3M40 55h1M26 56h3M33 56h1M35 56h3M39 56h1M26 57h3M34 57h3M38 57h1M26 58h3M33 58h5M26 59h3M33 59h4M33 60h5M27 61h3M33 61h4M28 62h3M33 62h3M29 63h3M33 63h3M32 64h4M32 65h4M32 66h4M32 67h4M32 68h4M32 69h4M40 69h1M32 70h4M40 70h1M32 71h4M40 71h2M31 72h5M39 72h3M31 73h5M39 73h3M31 74h5M39 74h3M31 75h5M39 75h4M31 76h5M39 76h4M31 77h5M39 77h4M31 78h5M39 78h4M31 79h5M39 79h5M31 80h5M41 80h3M32 81h4M40 81h1M42 81h2M31 82h1M34 82h2M41 82h1M31 83h3M41 83h4M31 84h6M42 84h4M31 85h7M44 85h6M31 86h8M30 87h9" />
<path stroke="#e5e1f2" d="M34 7h9M34 8h7M34 9h6M34 10h5M34 11h4M34 12h3M34 13h3M34 14h2M34 15h2M34 16h2M34 17h2M34 18h2M34 19h2M34 20h2M34 21h2M34 22h2M34 23h2M34 24h2M35 25h1M35 26h2M36 27h2M37 28h2M38 29h2M39 30h3M40 31h2M41 32h3M43 33h4M39 38h1M38 39h1M40 39h2M37 40h1M39 40h4M36 41h1M38 41h4M43 41h1M37 42h6M36 43h8M32 44h1M36 44h9M31 45h2M36 45h9M30 46h3M36 46h10M29 47h4M36 47h10M29 48h4M36 48h10M29 49h4M36 49h10M29 50h4M36 50h10M29 51h4M36 51h10M29 52h3M39 52h7M29 53h3M29 54h3M42 54h4M29 55h3M39 55h1M41 55h5M29 56h3M38 56h1M40 56h6M29 57h3M37 57h1M39 57h7M29 58h3M38 58h8M29 59h2M37 59h9M38 60h8M30 61h1M37 61h5M43 61h3M31 62h1M36 62h6M43 62h3M36 63h5M42 63h4M36 64h5M42 64h4M36 65h5M42 65h4M36 66h4M41 66h5M36 67h4M41 67h5M36 68h4M41 68h5M36 69h3M41 69h5M36 70h3M41 70h5M36 71h3M42 71h4M36 72h2M42 72h4M36 73h2M42 73h4M36 74h2M42 74h4M36 75h2M43 75h3M36 76h2M43 76h3M36 77h2M43 77h3M36 78h2M43 78h3M36 79h1M44 79h2M36 80h1M44 80h2M36 81h1M44 81h2M36 82h1M45 83h2M37 84h1M46 84h3M38 85h1M39 86h1M39 87h1" />
<path stroke="#ffffff" d="M41 8h4M40 9h6M39 10h3M38 11h2M37 12h1M42 31h2M44 32h6M47 33h3M43 39h4M43 40h4M44 41h4M44 42h4M45 43h4M45 45h4M46 46h3M46 47h3M46 48h3M46 49h3M46 50h3M46 51h3M46 52h3M46 54h2M46 55h2M46 56h2M46 57h2M46 58h2M46 59h2M46 60h2M46 61h2M46 62h2M46 63h2M46 64h2M46 65h2M46 66h2M46 67h2M46 68h2M46 69h2M46 70h2M46 71h2M46 72h2M46 73h2M46 74h2M46 75h2M46 76h2M46 77h2M46 78h2M46 79h2M46 80h2M46 81h2M47 83h2M49 84h1" />
<path stroke="#750031" d="M47 17h1M45 18h3M44 19h1M47 19h1M43 20h1M47 20h1M43 21h1M47 21h1M43 22h1M47 22h1M43 23h1M46 23h1M43 24h2" />
<path stroke="#9966e0" d="M29 19h1M29 20h1M30 21h1M29 35h6M30 36h5M31 37h3M32 38h1M25 43h1M25 44h4M25 45h3M24 46h3M24 47h2M24 48h2M24 49h2M24 50h2M24 51h2M34 51h1M24 52h2M33 52h3M24 53h2M33 53h5M24 54h2M33 54h2M36 54h1M25 55h1M33 55h1M35 55h1M25 56h1M34 56h1M25 57h1M33 57h1M25 58h1M32 59h1M31 60h2M26 61h1M32 61h1M26 62h2M27 63h2M30 65h2M29 66h3M29 67h3M29 68h3M29 69h3M29 70h3M29 71h3M29 72h2M29 73h2M29 74h2M29 75h2M29 76h2M29 77h2M29 78h2M29 79h2M29 80h2M40 80h1M29 81h3M41 81h1M29 82h2M32 82h2M42 82h6M29 83h2M34 83h3M29 84h2M29 85h2M29 86h2" />
<path stroke="#c70012" d="M45 19h2M44 20h1M46 20h1M44 21h1M46 21h1M44 22h1M46 22h1M44 23h2" />
<path stroke="#ff4752" d="M45 20h1M45 21h1M45 22h1" />
<path stroke="rgba(128,102,128,0.6)" d="M19 89h1M57 89h1M18 90h1M58 90h1M17 91h2M58 91h2M16 92h3M58 92h3M16 93h4M57 93h4M16 94h5M56 94h5M17 95h6M53 95h7M18 96h41M19 97h39M20 98h37M22 99h33M24 100h29" />
<path stroke="rgba(107,83,105,0.6)" d="M20 89h37M19 90h39M19 91h39M19 92h39M20 93h37M21 94h35M23 95h30" />
</svg>