<svg xmlns="http://www.w3.org/2000/svg" viewBox="0 -0.5 77 111" shape-rendering="crispEdges">
<metadata>Made with Pixels to Svg https://codepen.io/shshaw/pen/XbxvNj</metadata>
<path stroke="#281854" d="M33 6h5M31 7h2M30 8h1M29 9h1M28 10h6M27 11h9M26 12h10M25 13h10M24 14h10M24 15h10M23 16h10M23 17h5M29 17h3M23 18h5M23 19h5M23 20h5M23 21h5M23 22h4M23 23h2M23 24h1" />
<path stroke="#190f3a" d="M38 6h7M45 7h2M47 8h1M48 9h1M49 10h1M50 11h1M36 12h2M50 12h1M35 13h4M51 13h1M34 14h6M51 14h1M34 15h6M52 15h1M33 16h7M52 16h1M32 17h8M43 17h3M53 17h1M31 18h9M42 18h1M46 18h1M53 18h1M32 19h8M42 19h1M47 19h1M53 19h1M33 20h7M42 20h1M47 20h1M53 20h1M33 21h7M42 21h1M46 21h1M53 21h1M27 22h1M33 22h7M43 22h3M53 22h1M25 23h4M33 23h7M52 23h1M24 24h7M33 24h7M52 24h1M23 25h17M51 25h1M23 26h16M50 26h1M23 27h15M49 27h1M23 28h14M47 28h2M23 29h13M41 29h6M23 30h11M40 30h8M24 31h8M39 31h9M25 32h1M38 32h10M25 33h1M36 33h12M26 34h1M34 34h16M27 35h14M47 35h3M28 36h10M46 36h5M29 37h7M45 37h7M29 38h5M44 38h8M28 39h1M43 39h9M28 40h1M42 40h10M27 41h1M33 41h1M42 41h1M44 41h8M27 42h1M32 42h1M42 42h1M45 42h7M26 43h1M31 43h1M42 43h1M46 43h4M51 43h1M26 44h5M42 44h1M51 44h1M26 45h1M42 45h1M51 45h2M26 46h1M42 46h1M52 46h1M26 47h1M42 47h1M52 47h1M26 48h1M42 48h1M52 48h1M26 49h1M42 49h1M52 49h1M26 50h1M41 50h2M52 50h1M26 51h1M40 51h1M42 51h1M52 51h1M26 52h1M37 52h3M43 52h1M52 52h1M26 53h11M43 53h1M52 53h1M26 54h2M43 54h1M52 54h1M26 55h2M43 55h1M51 55h2M26 56h2M43 56h1M51 56h1M26 57h2M43 57h1M51 57h1M26 58h2M43 58h1M51 58h1M26 59h2M44 59h1M50 59h1M27 60h1M45 60h6M27 61h1M33 61h1M44 61h1M50 61h1M27 62h1M33 62h1M43 62h1M50 62h1M27 63h1M34 63h1M43 63h1M49 63h1M27 64h1M34 64h1M44 64h5M27 65h1M34 65h1M46 65h1M27 66h1M35 66h1M47 66h1M27 67h1M35 67h1M47 67h1M27 68h1M35 68h1M47 68h1M27 69h1M36 69h1M47 69h1M27 70h1M36 70h1M47 70h1M27 71h1M36 71h1M47 71h1M27 72h1M37 72h1M47 72h1M27 73h1M37 73h1M47 73h1M27 74h1M37 74h1M47 74h1M27 75h1M37 75h1M47 75h1M27 76h1M37 76h1M47 76h1M27 77h1M37 77h1M47 77h1M27 78h1M37 78h1M47 78h1M27 79h1M37 79h2M47 79h1M27 80h1M36 80h1M38 80h1M47 80h1M27 81h1M36 81h1M38 81h1M47 81h1M27 82h1M35 82h1M38 82h1M47 82h1M26 83h1M35 83h1M38 83h1M47 83h1M25 84h1M34 84h1M37 84h1M47 84h1M25 85h1M32 85h2M36 85h1M47 85h1M25 86h7M35 86h1M47 86h1M35 87h1M46 87h1M35 88h11" />
<path stroke="#e3e0f2" d="M33 7h9M35 8h7M36 9h6M37 10h5M38 11h4M39 12h3M39 13h3M40 14h2M40 15h2M40 16h2M40 17h2M40 18h2M40 19h2M40 20h2M40 21h2M40 22h2M40 23h2M40 24h2M40 25h1M39 26h2M38 27h2M37 28h2M36 29h2M34 30h3M34 31h2M32 32h3M29 33h4M36 38h1M34 39h2M37 39h1M33 40h4M38 40h1M32 41h1M34 41h4M39 41h1M33 42h6M32 43h8M31 44h9M43 44h1M31 45h9M43 45h2M30 46h10M43 46h3M30 47h10M43 47h4M30 48h10M43 48h4M30 49h10M43 49h4M30 50h10M43 50h4M30 51h10M43 51h4M30 52h7M44 52h3M44 53h3M30 54h4M44 54h3M30 55h5M36 55h1M44 55h3M30 56h6M37 56h1M44 56h3M30 57h7M38 57h1M44 57h3M30 58h8M44 58h3M30 59h9M45 59h2M30 60h8M30 61h3M34 61h5M45 61h1M30 62h3M34 62h6M44 62h1M30 63h4M35 63h5M30 64h4M35 64h5M30 65h4M35 65h5M30 66h5M36 66h4M30 67h5M36 67h4M30 68h5M36 68h4M30 69h5M37 69h3M30 70h5M37 70h3M30 71h4M37 71h3M30 72h4M38 72h2M30 73h4M38 73h2M30 74h4M38 74h2M30 75h3M38 75h2M30 76h3M38 76h2M30 77h3M38 77h2M30 78h3M38 78h2M30 79h2M39 79h1M30 80h2M39 80h1M30 81h2M39 81h1M39 82h1M29 83h2M27 84h3M38 84h1M37 85h1M36 86h1M36 87h1" />
<path stroke="#beb3e0" d="M42 7h3M42 8h5M42 9h6M42 10h7M42 11h8M42 12h8M42 13h9M42 14h9M42 15h10M42 16h10M42 17h1M46 17h7M43 18h3M47 18h6M43 19h3M48 19h5M43 20h3M48 20h5M43 21h2M47 21h6M42 22h1M46 22h7M42 23h10M42 24h10M41 25h10M41 26h9M40 27h9M39 28h8M38 29h3M37 30h3M36 31h3M35 32h3M33 33h3M27 34h7M38 36h3M36 37h6M34 38h2M37 38h6M33 39h1M36 39h1M38 39h5M37 40h1M39 40h3M38 41h1M40 41h2M43 41h1M39 42h3M43 42h2M40 43h2M43 43h3M40 44h2M44 44h3M40 45h2M45 45h3M40 46h2M46 46h3M40 47h2M47 47h3M40 48h2M47 48h3M40 49h2M47 49h3M40 50h1M47 50h3M47 51h3M47 52h3M37 53h1M47 53h3M34 54h5M40 54h1M47 54h3M35 55h1M37 55h3M41 55h1M47 55h3M36 56h1M38 56h3M42 56h1M47 56h3M37 57h1M39 57h3M47 57h3M38 58h5M47 58h3M39 59h4M47 59h3M38 60h5M39 61h4M46 61h3M40 62h3M45 62h3M40 63h3M44 63h3M40 64h4M40 65h4M40 66h4M40 67h4M40 68h4M35 69h1M40 69h4M35 70h1M40 70h4M34 71h2M40 71h4M34 72h3M40 72h5M34 73h3M40 73h5M34 74h3M40 74h5M33 75h4M40 75h5M33 76h4M40 76h5M33 77h4M40 77h5M33 78h4M40 78h5M32 79h5M40 79h5M32 80h3M40 80h5M32 81h2M35 81h1M40 81h4M34 82h1M40 82h2M44 82h1M31 83h4M42 83h3M30 84h4M39 84h6M26 85h6M38 85h7M37 86h8M37 87h9" />
<path stroke="#ffffff" d="M31 8h4M30 9h6M34 10h3M36 11h2M38 12h1M32 31h2M26 32h6M26 33h3M29 39h4M29 40h4M28 41h4M28 42h4M27 43h4M27 45h4M27 46h3M27 47h3M27 48h3M27 49h3M27 50h3M27 51h3M27 52h3M28 54h2M28 55h2M28 56h2M28 57h2M28 58h2M28 59h2M28 60h2M28 61h2M28 62h2M28 63h2M28 64h2M28 65h2M28 66h2M28 67h2M28 68h2M28 69h2M28 70h2M28 71h2M28 72h2M28 73h2M28 74h2M28 75h2M28 76h2M28 77h2M28 78h2M28 79h2M28 80h2M28 81h2M27 83h2M26 84h1" />
<path stroke="#740035" d="M28 17h1M28 18h3M28 19h1M31 19h1M28 20h1M32 20h1M28 21h1M32 21h1M28 22h1M32 22h1M29 23h1M32 23h1M31 24h2" />
<path stroke="#c40013" d="M29 19h2M29 20h1M31 20h1M29 21h1M31 21h1M29 22h1M31 22h1M30 23h2" />
<path stroke="#9664e0" d="M46 19h1M46 20h1M45 21h1M41 35h6M41 36h5M42 37h3M43 38h1M50 43h1M47 44h4M48 45h3M49 46h3M50 47h2M50 48h2M50 49h2M50 50h2M41 51h1M50 51h2M40 52h3M50 52h2M38 53h5M50 53h2M39 54h1M41 54h2M50 54h2M40 55h1M42 55h1M50 55h1M41 56h1M50 56h1M42 57h1M50 57h1M50 58h1M43 59h1M43 60h2M43 61h1M49 61h1M48 62h2M47 63h2M44 65h2M44 66h3M44 67h3M44 68h3M44 69h3M44 70h3M44 71h3M45 72h2M45 73h2M45 74h2M45 75h2M45 76h2M45 77h2M45 78h2M45 79h2M35 80h1M45 80h2M34 81h1M44 81h3M28 82h6M42 82h2M45 82h2M39 83h3M45 83h2M45 84h2M45 85h2M45 86h2" />
<path stroke="#ff4657" d="M30 20h1M30 21h1M30 22h1" />
<path stroke="#806384" d="M19 89h1M57 89h1M18 90h1M58 90h1M17 91h2M58 91h2M16 92h3M58 92h3M16 93h4M57 93h4M16 94h5M56 94h5M17 95h6M53 95h7M18 96h41M19 97h39M20 98h37M22 99h33M24 100h29" />
<path stroke="#6a526e" d="M20 89h37M19 90h39M19 91h39M19 92h39M20 93h37M21 94h35M23 95h30" />
</svg>