<svg xmlns="http://www.w3.org/2000/svg" viewBox="0 -0.5 77 111" shape-rendering="crispEdges">
<metadata>Made with Pixels to Svg https://codepen.io/shshaw/pen/XbxvNj</metadata>
<path stroke="#190f36" d="M31 6h4M29 7h2M28 8h1M27 9h1M26 10h1M25 11h1M25 12h1M24 13h1M37 13h1M24 14h1M36 14h3M23 15h1M36 15h3M23 16h1M36 16h4M22 17h1M30 17h3M36 17h5M22 18h1M29 18h1M33 18h1M36 18h6M22 19h1M28 19h1M33 19h1M36 19h7M22 20h1M28 20h1M33 20h1M36 20h7M22 21h1M29 21h1M33 21h1M36 21h7M22 22h1M30 22h3M36 22h7M23 23h1M36 23h7M47 23h1M23 24h1M36 24h7M45 24h4M24 25h1M36 25h16M25 26h1M37 26h16M26 27h1M38 27h15M27 28h2M39 28h14M29 29h6M40 29h13M29 30h7M42 30h11M28 31h9M44 31h8M28 32h10M50 32h1M28 33h12M50 33h1M28 34h14M49 34h1M25 35h5M35 35h14M24 36h6M38 36h10M23 37h9M40 37h7M23 38h10M42 38h5M23 39h11M47 39h1M23 40h8M33 40h1M47 40h1M23 41h8M33 41h1M48 41h1M23 42h8M34 42h1M48 42h1M23 43h3M34 43h1M49 43h1M24 44h1M34 44h1M49 44h1M24 45h1M35 45h1M49 45h1M24 46h1M35 46h1M49 46h1M25 47h1M35 47h1M49 47h1M25 48h1M36 48h1M49 48h1M25 49h1M36 49h1M49 49h1M26 50h1M37 50h1M49 50h1M26 51h1M37 51h1M49 51h1M26 52h1M37 52h2M49 52h1M27 53h1M37 53h1M39 53h11M27 54h1M37 54h1M48 54h2M28 55h1M37 55h1M48 55h2M28 56h2M37 56h1M48 56h2M28 57h1M30 57h1M36 57h1M38 57h1M48 57h2M28 58h1M31 58h1M34 58h2M39 58h1M48 58h2M28 59h1M32 59h2M39 59h1M48 59h2M28 60h1M32 60h1M39 60h1M48 60h2M28 61h1M33 61h1M39 61h1M48 61h1M28 62h1M34 62h1M38 62h1M48 62h1M28 63h1M35 63h3M48 63h1M48 64h1M28 65h1M41 65h1M48 65h1M28 66h1M41 66h1M48 66h1M28 67h1M40 67h1M48 67h1M28 68h1M40 68h1M48 68h1M28 69h1M40 69h1M48 69h1M28 70h1M39 70h1M48 70h1M28 71h1M39 71h1M49 71h1M27 72h1M39 72h1M49 72h1M26 73h1M38 73h1M49 73h1M26 74h1M38 74h1M50 74h1M25 75h1M38 75h1M50 75h1M25 76h1M37 76h1M50 76h1M25 77h1M37 77h1M51 77h1M24 78h1M36 78h1M38 78h1M51 78h1M24 79h1M35 79h1M39 79h1M52 79h1M24 80h1M34 80h1M40 80h1M53 80h1M23 81h1M33 81h1M41 81h1M54 81h3M23 82h1M32 82h1M42 82h1M56 82h1M23 83h1M32 83h1M43 83h1M55 83h1M23 84h1M32 84h1M44 84h1M54 84h1M23 85h1M33 85h1M45 85h1M53 85h1M24 86h1M34 86h1M46 86h1M51 86h2M25 87h1M35 87h1M47 87h4M25 88h11" />
<path stroke="#27184f" d="M35 6h8M43 7h2M45 8h1M46 9h1M42 10h6M40 11h9M38 12h12M38 13h13M39 14h13M39 15h13M40 16h13M41 17h6M48 17h5M42 18h3M48 18h5M43 19h1M48 19h5M48 20h5M48 21h5M48 22h5M48 23h5M49 24h4M52 25h1" />
<path stroke="#c1b5e0" d="M31 7h3M29 8h5M28 9h6M27 10h7M26 11h8M26 12h8M25 13h9M25 14h9M24 15h10M24 16h10M23 17h7M33 17h1M23 18h6M30 18h3M23 19h5M30 19h3M23 20h5M30 20h3M23 21h6M31 21h2M23 22h7M33 22h1M24 23h10M24 24h10M25 25h10M26 26h9M27 27h9M29 28h8M35 29h3M36 30h3M37 31h3M38 32h3M40 33h3M42 34h7M35 36h3M34 37h6M33 38h6M40 38h2M34 39h4M39 39h1M42 39h1M34 40h3M38 40h1M34 41h2M37 41h1M32 42h1M35 42h2M31 43h2M35 43h1M30 44h2M35 44h1M29 45h2M34 45h1M28 46h3M28 47h3M29 48h2M29 49h2M30 50h2M30 51h2M31 52h2M31 53h2M38 53h1M32 54h2M38 54h4M33 55h2M38 55h1M40 55h1M34 56h1M39 56h1M34 57h2M34 59h2M33 60h4M34 61h4M35 62h3M34 63h1M33 64h2M33 65h2M32 66h3M32 67h3M32 68h3M32 69h3M32 70h2M32 71h3M32 72h2M32 73h3M39 73h1M32 74h2M39 74h1M32 75h3M39 75h2M31 76h3M38 76h4M31 77h3M38 77h5M30 78h3M39 78h5M30 79h3M40 79h5M29 80h3M41 80h5M29 81h3M42 81h5M28 82h3M43 82h3M28 83h3M46 83h3M45 84h5M28 85h3M46 85h5M29 86h3M47 86h4M30 87h2" />
<path stroke="#edeaf5" d="M34 7h9M34 8h7M34 9h6M34 10h5M34 11h4M34 12h4M34 13h3M34 14h2M34 15h2M34 16h2M34 17h2M34 18h2M34 19h2M34 20h2M34 21h2M34 22h2M34 23h2M34 24h2M35 25h1M35 26h2M36 27h2M37 28h2M38 29h2M39 30h3M40 31h2M41 32h3M43 33h4M33 42h1M33 43h1M32 44h2M31 45h3M31 46h2M34 46h1M31 47h4M31 48h5M31 49h5M33 50h3M32 51h5M33 52h4M39 52h3M34 53h3M34 54h3M42 54h4M35 55h2M39 55h1M41 55h5M35 56h2M38 56h1M40 56h6M37 57h1M39 57h7M36 58h3M40 58h6M36 59h3M41 59h5M37 60h2M40 60h6M38 61h1M40 61h6M39 62h7M38 63h8M35 64h11M35 65h6M42 65h4M35 66h6M42 66h4M35 67h5M41 67h5M35 68h5M41 68h5M35 69h5M41 69h5M34 70h5M40 70h6M35 71h4M40 71h6M34 72h5M40 72h6M35 73h3M40 73h6M35 74h3M40 74h6M36 75h2M41 75h6M34 76h2M42 76h6M34 77h3M43 77h5M33 78h3M44 78h5M33 79h2M45 79h5M32 80h2M46 80h5M32 81h1M47 81h5M31 82h1M52 82h1M31 83h1M49 83h5M50 84h4M31 85h2M51 85h2M32 86h2M32 87h3" />
<path stroke="#ffffff" d="M41 8h4M40 9h6M39 10h3M38 11h2M42 31h2M44 32h6M47 33h3M43 39h4M43 40h4M44 41h4M44 42h4M45 43h4M45 44h4M45 45h4M50 45h1M46 46h3M50 46h1M46 47h3M50 47h1M46 48h3M46 49h3M46 50h3M46 51h3M46 52h3M46 54h2M46 55h2M46 56h2M46 57h2M46 58h2M46 59h2M46 60h2M46 61h2M46 62h2M46 63h2M46 64h2M46 65h2M46 66h2M46 67h2M46 68h2M46 69h2M46 70h2M46 71h2M46 72h2M46 73h2M46 74h2M47 75h2M48 76h1M48 77h2M49 78h2M50 79h2M51 80h2M53 82h3M54 83h1" />
<path stroke="#750031" d="M47 17h1M45 18h3M44 19h1M47 19h1M43 20h1M47 20h1M43 21h1M47 21h1M43 22h1M47 22h1M43 23h1M46 23h1M43 24h2" />
<path stroke="#9966e0" d="M29 19h1M29 20h1M30 21h1M31 35h4M30 36h5M32 37h2M31 40h2M31 41h2M31 42h1M26 43h5M25 44h5M25 45h4M25 46h3M26 47h2M26 48h3M26 49h3M27 50h3M27 51h3M27 52h4M28 53h3M28 54h4M29 55h4M30 56h4M29 57h1M31 57h3M29 58h2M32 58h2M29 59h3M29 60h3M29 61h4M29 62h5M29 63h5M29 64h4M29 65h4M29 66h3M29 67h3M29 68h3M29 69h3M29 70h3M29 71h3M28 72h4M27 73h5M27 74h5M26 75h6M26 76h5M26 77h5M25 78h5M25 79h5M25 80h4M24 81h5M52 81h2M24 82h4M46 82h6M24 83h4M44 83h2M24 84h8M24 85h4M25 86h4M26 87h4" />
<path stroke="#c70012" d="M45 19h2M44 20h1M46 20h1M44 21h1M46 21h1M44 22h1M46 22h1M44 23h2" />
<path stroke="#ff4752" d="M45 20h1M45 21h1M45 22h1" />
<path stroke="rgba(26,13,51,0.0784313725490196)" d="M27 34h1M27 64h1" />
<path stroke="#9865df" d="M30 35h1" />
<path stroke="#f1eef8" d="M39 38h1M38 39h1M40 39h2M37 40h1M39 40h4M36 41h1M38 41h6M37 42h7M36 43h9M36 44h9M36 45h9M33 46h1M36 46h10M36 47h10M37 48h9M37 49h9M36 50h1M38 50h8M38 51h8M42 52h4" />
<path stroke="#e5e1f2" d="M32 50h1M34 74h1M35 75h1M36 76h1M37 78h1" />
<path stroke="#e6e1ef" d="M33 53h1" />
<path stroke="#dddae8" d="M40 59h1" />
<path stroke="rgba(25,15,54,0.9058823529411765)" d="M28 64h1" />
<path stroke="rgba(128,102,128,0.6)" d="M19 89h1M57 89h1M18 90h1M58 90h1M17 91h2M58 91h2M16 92h3M58 92h3M16 93h4M57 93h4M16 94h5M56 94h5M17 95h6M53 95h7M18 96h41M19 97h39M20 98h37M22 99h33M24 100h29" />
<path stroke="rgba(107,83,105,0.6)" d="M20 89h37M19 90h39M19 91h39M19 92h39M20 93h37M21 94h35M23 95h30" />
</svg>