<svg xmlns="http://www.w3.org/2000/svg" viewBox="0 -0.5 77 111" shape-rendering="crispEdges">
<metadata>Made with Pixels to Svg https://codepen.io/shshaw/pen/XbxvNj</metadata>
<path stroke="#281854" d="M33 6h4M31 7h2M30 8h1M29 9h1M28 10h6M27 11h8M26 12h9M25 13h9M24 14h9M24 15h9M23 16h9M23 17h5M29 17h2M23 18h5M23 19h5M23 20h5M23 21h4M23 22h3M23 23h1" />
<path stroke="#190f3a" d="M37 6h8M45 7h2M47 8h1M48 9h1M49 10h1M35 11h1M50 11h1M35 12h3M50 12h1M34 13h5M51 13h1M33 14h7M51 14h1M33 15h7M52 15h1M32 16h8M52 16h1M31 17h9M43 17h3M53 17h1M31 18h9M42 18h1M46 18h1M53 18h1M32 19h8M42 19h1M47 19h1M53 19h1M33 20h7M42 20h1M47 20h1M53 20h1M27 21h1M33 21h7M42 21h1M46 21h1M53 21h1M26 22h2M33 22h7M43 22h3M53 22h1M24 23h5M33 23h7M52 23h1M23 24h8M33 24h7M52 24h1M23 25h17M51 25h1M23 26h16M50 26h1M23 27h15M49 27h1M23 28h14M47 28h2M23 29h13M41 29h6M23 30h11M40 30h7M24 31h8M39 31h9M25 32h1M38 32h10M25 33h1M36 33h12M26 34h1M34 34h14M27 35h14M47 35h3M28 36h10M46 36h4M29 37h7M45 37h6M29 38h5M44 38h7M28 39h1M43 39h8M28 40h1M43 40h8M27 41h1M33 41h1M42 41h10M27 42h1M32 42h1M42 42h10M26 43h1M31 43h1M42 43h1M45 43h5M51 43h1M26 44h5M42 44h1M46 44h2M51 44h3M26 45h1M42 45h1M53 45h1M26 46h1M43 46h1M53 46h1M26 47h1M43 47h1M53 47h1M26 48h1M43 48h1M54 48h1M26 49h1M43 49h1M54 49h1M26 50h1M41 50h4M54 50h1M26 51h1M44 51h1M54 51h1M26 52h1M37 52h3M45 52h1M55 52h1M25 53h12M45 53h1M55 53h1M24 54h1M26 54h2M46 54h1M55 54h1M23 55h1M26 55h2M46 55h1M55 55h1M22 56h1M26 56h2M46 56h1M55 56h1M21 57h1M26 57h2M47 57h1M55 57h1M20 58h1M26 58h2M47 58h1M54 58h1M20 59h1M26 59h2M47 59h1M54 59h1M20 60h2M26 60h2M35 60h1M48 60h1M50 60h4M55 60h1M22 61h2M27 61h1M34 61h1M49 61h1M55 61h1M24 62h4M33 62h1M49 62h1M54 62h1M27 63h1M32 63h1M48 63h1M54 63h1M27 64h1M32 64h1M47 64h2M51 64h3M27 65h1M31 65h1M46 65h2M49 65h2M28 66h1M31 66h1M46 66h2M28 67h3M46 67h2M29 68h2M45 68h3M29 69h2M45 69h1M47 69h1M29 70h1M45 70h1M47 70h1M29 71h1M44 71h1M47 71h1M28 72h1M43 72h1M48 72h1M28 73h1M42 73h1M49 73h1M27 74h1M41 74h1M49 74h1M27 75h1M40 75h1M50 75h1M26 76h1M39 76h1M50 76h1M25 77h1M38 77h1M50 77h1M24 78h1M37 78h3M51 78h1M23 79h1M36 79h1M40 79h1M51 79h1M22 80h1M35 80h1M41 80h1M51 80h1M19 81h3M34 81h1M42 81h1M52 81h1M19 82h1M33 82h1M43 82h1M52 82h1M20 83h1M32 83h1M43 83h1M52 83h1M21 84h1M31 84h1M43 84h1M52 84h1M22 85h1M30 85h1M42 85h1M52 85h1M23 86h2M29 86h1M41 86h1M51 86h1M25 87h4M40 87h1M50 87h1M40 88h11" />
<path stroke="#eceaf5" d="M33 7h9M35 8h7M36 9h6M37 10h5M38 11h4M38 12h4M39 13h3M40 14h2M40 15h2M40 16h2M40 17h2M40 18h2M40 19h2M40 20h2M40 21h2M40 22h2M40 23h2M40 24h2M40 25h1M39 26h2M38 27h2M37 28h2M36 29h2M34 30h3M34 31h2M32 32h3M29 33h4M43 44h1M43 45h2M44 46h2M44 47h3M44 48h4M44 49h5M45 50h4M45 51h5M46 52h4M46 53h4M30 54h4M47 54h3M30 55h5M36 55h1M47 55h3M30 56h6M37 56h1M47 56h3M30 57h7M38 57h1M48 57h2M30 58h8M39 58h1M48 58h2M30 59h9M40 59h1M48 59h2M30 60h5M36 60h4M49 60h1M30 61h4M35 61h6M30 62h3M35 62h6M30 63h2M34 63h7M30 64h2M34 64h7M30 65h1M33 65h8M30 66h1M33 66h8M33 67h8M32 68h9M32 69h8M32 70h7M31 71h7M30 72h7M30 73h6M30 74h5M29 75h5M28 76h5M28 77h4M27 78h4M26 79h4M25 80h4M24 81h4M23 82h1M22 83h4M22 84h3M23 85h1" />
<path stroke="#beb3e0" d="M42 7h3M42 8h5M42 9h6M42 10h7M42 11h8M42 12h8M42 13h9M42 14h9M42 15h10M42 16h10M42 17h1M46 17h7M43 18h3M47 18h6M43 19h3M48 19h5M43 20h3M48 20h5M43 21h2M47 21h6M42 22h1M46 22h7M42 23h10M42 24h10M41 25h10M41 26h9M40 27h9M39 28h8M38 29h3M37 30h3M36 31h3M35 32h3M33 33h3M27 34h7M38 36h3M36 37h6M34 38h2M37 38h6M33 39h1M36 39h1M38 39h5M37 40h1M39 40h4M38 41h1M40 41h2M39 42h3M40 43h2M43 43h2M40 44h2M44 44h2M40 45h2M45 45h4M40 46h3M46 46h4M40 47h3M47 47h4M40 48h3M48 48h4M40 49h3M49 49h3M40 50h1M49 50h3M50 51h2M50 52h3M37 53h1M50 53h3M34 54h5M40 54h1M50 54h3M35 55h1M37 55h3M41 55h1M50 55h3M36 56h1M38 56h3M50 56h3M37 57h1M39 57h3M50 57h3M38 58h1M40 58h3M50 58h3M39 59h1M41 59h3M50 59h3M40 60h5M54 60h1M41 61h4M53 61h2M41 62h4M53 62h1M41 63h4M53 63h1M41 64h3M41 65h3M41 66h3M41 67h3M41 68h3M40 69h4M39 70h5M38 71h6M37 72h6M36 73h6M35 74h6M34 75h6M33 76h6M32 77h6M31 78h6M40 78h4M30 79h6M41 79h4M29 80h6M42 80h4M28 81h6M43 81h4M30 82h3M44 82h4M26 83h4M44 83h4M25 84h6M24 85h6M43 85h5M25 86h4M42 86h5M41 87h5" />
<path stroke="#ffffff" d="M31 8h4M30 9h6M34 10h3M36 11h2M32 31h2M26 32h6M26 33h3M29 39h4M29 40h4M28 41h4M28 42h4M27 43h4M25 45h1M27 45h4M25 46h1M27 46h3M25 47h1M27 47h3M27 48h3M27 49h3M27 50h3M27 51h3M27 52h3M28 54h2M28 55h2M28 56h2M28 57h2M28 58h2M28 59h2M28 60h2M28 61h2M28 62h2M34 62h1M28 63h2M33 63h1M28 64h2M33 64h1M28 65h2M32 65h1M29 66h1M32 66h1M31 67h2M28 68h1M31 68h1M28 69h1M31 69h1M28 70h1M30 70h2M28 71h1M30 71h1M29 72h1M29 73h1M28 74h2M28 75h1M27 76h1M26 77h2M25 78h2M24 79h2M23 80h2M20 82h3M21 83h1" />
<path stroke="#740035" d="M28 17h1M28 18h3M28 19h1M31 19h1M28 20h1M32 20h1M28 21h1M32 21h1M28 22h1M32 22h1M29 23h1M32 23h1M31 24h2" />
<path stroke="#c40013" d="M29 19h2M29 20h1M31 20h1M29 21h1M31 21h1M29 22h1M31 22h1M30 23h2" />
<path stroke="#9664e0" d="M46 19h1M46 20h1M45 21h1M41 35h4M41 36h4M42 37h3M43 38h1M50 43h1M48 44h3M49 45h4M50 46h3M51 47h2M52 48h2M52 49h2M52 50h2M41 51h3M52 51h2M40 52h5M53 52h2M38 53h4M43 53h2M53 53h2M25 54h1M39 54h1M41 54h5M53 54h2M24 55h2M40 55h1M42 55h4M53 55h2M23 56h3M41 56h5M53 56h2M22 57h4M42 57h5M53 57h2M21 58h5M43 58h4M53 58h1M21 59h5M44 59h3M53 59h1M22 60h4M45 60h3M24 61h3M45 61h4M45 62h4M45 63h3M44 64h3M44 65h2M44 66h2M44 67h2M44 68h1M44 69h1M46 69h1M44 70h1M46 70h1M45 71h2M44 72h4M43 73h6M42 74h7M41 75h9M40 76h10M39 77h11M44 78h7M45 79h6M46 80h5M22 81h2M47 81h5M24 82h6M48 82h4M30 83h2M48 83h4M44 84h8M48 85h4M47 86h4M46 87h4" />
<path stroke="#ff4657" d="M30 20h1M30 21h1M30 22h1" />
<path stroke="rgba(26,13,64,0.0784313725490196)" d="M48 34h1" />
<path stroke="#7049b0" d="M45 35h1" />
<path stroke="#221548" d="M46 35h1" />
<path stroke="#1a103b" d="M45 36h1" />
<path stroke="#f0eef8" d="M36 38h1M34 39h2M37 39h1M33 40h4M38 40h1M32 41h1M34 41h4M39 41h1M33 42h6M32 43h8M31 44h9M31 45h9M30 46h10M30 47h10M30 48h10M30 49h10M30 50h10M30 51h10M30 52h7M50 61h1M50 62h2M49 63h3M49 64h2" />
<path stroke="#211643" d="M40 51h1" />
<path stroke="#9161d9" d="M42 53h1" />
<path stroke="#cec4ec" d="M51 61h2M52 62h1M52 63h1" />
<path stroke="#806384" d="M19 89h1M57 89h1M18 90h1M58 90h1M17 91h2M58 91h2M16 92h3M58 92h3M16 93h4M57 93h4M16 94h5M56 94h5M17 95h6M53 95h7M18 96h41M19 97h39M20 98h37M22 99h33M24 100h29" />
<path stroke="#6a526e" d="M20 89h37M19 90h39M19 91h39M19 92h39M20 93h37M21 94h35M23 95h30" />
</svg>