<svg xmlns="http://www.w3.org/2000/svg" viewBox="0 -0.5 77 111" shape-rendering="crispEdges">
<metadata>Made with Pixels to Svg https://codepen.io/shshaw/pen/XbxvNj</metadata>
<path stroke="#281854" d="M33 6h8M31 7h2M30 8h1M29 9h1M28 10h6M27 11h9M26 12h12M25 13h13M24 14h13M24 15h13M23 16h13M23 17h5M29 17h6M23 18h5M31 18h3M23 19h5M32 19h1M23 20h5M23 21h5M23 22h5M23 23h5M23 24h4M23 25h1" />
<path stroke="#190f3a" d="M41 6h4M45 7h2M47 8h1M48 9h1M49 10h1M50 11h1M50 12h1M38 13h1M51 13h1M37 14h3M51 14h1M37 15h3M52 15h1M36 16h4M52 16h1M35 17h5M43 17h3M53 17h1M34 18h6M42 18h1M46 18h1M53 18h1M33 19h7M42 19h1M47 19h1M53 19h1M33 20h7M42 20h1M47 20h1M53 20h1M33 21h7M42 21h1M46 21h1M53 21h1M33 22h7M43 22h3M53 22h1M28 23h1M33 23h7M52 23h1M27 24h4M33 24h7M52 24h1M24 25h16M51 25h1M23 26h16M50 26h1M23 27h15M49 27h1M23 28h14M47 28h2M23 29h13M41 29h6M23 30h11M40 30h7M24 31h8M39 31h9M25 32h1M38 32h10M25 33h1M36 33h12M26 34h1M34 34h14M27 35h14M46 35h5M28 36h10M46 36h6M29 37h7M44 37h9M29 38h5M43 38h10M28 39h1M42 39h11M28 40h1M42 40h1M45 40h8M27 41h1M42 41h1M45 41h8M27 42h1M41 42h1M45 42h8M26 43h1M41 43h1M50 43h3M26 44h1M41 44h1M51 44h1M26 45h1M40 45h1M51 45h1M26 46h1M40 46h1M51 46h1M26 47h1M40 47h1M50 47h1M26 48h1M39 48h1M50 48h1M26 49h1M39 49h1M50 49h1M26 50h1M38 50h1M49 50h1M26 51h1M38 51h1M49 51h1M26 52h1M37 52h2M49 52h1M26 53h11M38 53h1M48 53h1M26 54h2M38 54h1M48 54h1M26 55h2M38 55h1M47 55h1M26 56h2M38 56h1M46 56h2M26 57h2M37 57h1M39 57h1M45 57h1M47 57h1M26 58h2M36 58h1M40 58h2M44 58h1M47 58h1M26 59h2M36 59h1M42 59h2M47 59h1M26 60h2M36 60h1M43 60h1M47 60h1M27 61h1M36 61h1M42 61h1M47 61h1M27 62h1M37 62h1M41 62h1M47 62h1M27 63h1M38 63h3M47 63h1M27 64h1M27 65h1M34 65h1M47 65h1M27 66h1M34 66h1M47 66h1M27 67h1M35 67h1M47 67h1M27 68h1M35 68h1M47 68h1M27 69h1M35 69h1M47 69h1M27 70h1M36 70h1M47 70h1M26 71h1M36 71h1M47 71h1M26 72h1M36 72h1M48 72h1M26 73h1M37 73h1M49 73h1M25 74h1M37 74h1M49 74h1M25 75h1M37 75h1M50 75h1M25 76h1M38 76h1M50 76h1M24 77h1M38 77h1M50 77h1M24 78h1M37 78h1M39 78h1M51 78h1M23 79h1M36 79h1M40 79h1M51 79h1M22 80h1M35 80h1M41 80h1M51 80h1M19 81h3M34 81h1M42 81h1M52 81h1M19 82h1M33 82h1M43 82h1M52 82h1M20 83h1M32 83h1M43 83h1M52 83h1M21 84h1M31 84h1M43 84h1M52 84h1M22 85h1M30 85h1M42 85h1M52 85h1M23 86h2M29 86h1M41 86h1M51 86h1M25 87h4M40 87h1M50 87h1M40 88h11" />
<path stroke="#eceaf5" d="M33 7h9M35 8h7M36 9h6M37 10h5M38 11h4M38 12h4M39 13h3M40 14h2M40 15h2M40 16h2M40 17h2M40 18h2M40 19h2M40 20h2M40 21h2M40 22h2M40 23h2M40 24h2M40 25h1M39 26h2M38 27h2M37 28h2M36 29h2M34 30h3M34 31h2M32 32h3M29 33h4M42 42h1M42 43h1M42 44h2M42 45h3M41 46h1M43 46h2M41 47h4M40 48h5M40 49h5M40 50h3M39 51h5M34 52h3M39 52h4M39 53h3M30 54h4M39 54h3M30 55h5M36 55h1M39 55h2M30 56h6M37 56h1M39 56h2M30 57h7M38 57h1M30 58h6M37 58h3M30 59h5M37 59h3M30 60h6M37 60h2M30 61h6M37 61h1M30 62h7M30 63h8M30 64h11M30 65h4M35 65h6M30 66h4M35 66h6M30 67h5M36 67h5M30 68h5M36 68h5M30 69h5M36 69h5M30 70h6M37 70h5M30 71h6M37 71h4M30 72h6M37 72h5M30 73h6M38 73h3M30 74h6M38 74h3M29 75h6M38 75h2M28 76h6M40 76h2M28 77h5M39 77h3M27 78h5M40 78h3M26 79h5M41 79h2M25 80h5M42 80h2M24 81h5M43 81h1M23 82h1M44 82h1M22 83h5M44 83h1M22 84h4M23 85h2M43 85h2M42 86h2M41 87h3" />
<path stroke="#beb3e0" d="M42 7h3M42 8h5M42 9h6M42 10h7M42 11h8M42 12h8M42 13h9M42 14h9M42 15h10M42 16h10M42 17h1M46 17h7M43 18h3M47 18h6M43 19h3M48 19h5M43 20h3M48 20h5M43 21h2M47 21h6M42 22h1M46 22h7M42 23h10M42 24h10M41 25h10M41 26h9M40 27h9M39 28h8M38 29h3M37 30h3M36 31h3M35 32h3M33 33h3M27 34h7M38 36h3M36 37h6M34 38h2M37 38h6M33 39h1M36 39h1M38 39h4M37 40h1M39 40h3M38 41h1M40 41h2M39 42h2M43 42h1M40 43h1M43 43h2M40 44h1M44 44h2M41 45h1M45 45h2M45 46h3M45 47h3M45 48h2M45 49h2M44 50h2M44 51h2M43 52h2M37 53h1M43 53h2M34 54h4M42 54h2M35 55h1M37 55h1M41 55h2M36 56h1M41 56h1M40 57h2M40 59h2M39 60h4M38 61h4M38 62h3M41 63h1M41 64h2M41 65h2M41 66h3M41 67h3M41 68h3M41 69h3M42 70h2M41 71h3M42 72h2M36 73h1M41 73h3M36 74h1M42 74h2M35 75h2M41 75h3M34 76h4M42 76h3M33 77h5M42 77h3M32 78h5M43 78h3M31 79h5M43 79h3M30 80h5M44 80h3M29 81h5M44 81h3M30 82h3M45 82h3M27 83h3M45 83h3M26 84h5M25 85h5M45 85h3M25 86h4M44 86h3M44 87h2" />
<path stroke="#ffffff" d="M31 8h4M30 9h6M34 10h3M36 11h2M32 31h2M26 32h6M26 33h3M29 39h4M29 40h4M28 41h4M28 42h4M27 43h4M27 44h4M25 45h1M27 45h4M25 46h1M27 46h3M25 47h1M27 47h3M27 48h3M27 49h3M27 50h3M27 51h3M27 52h3M28 54h2M28 55h2M28 56h2M28 57h2M28 58h2M28 59h2M28 60h2M28 61h2M28 62h2M28 63h2M28 64h2M28 65h2M28 66h2M28 67h2M28 68h2M28 69h2M28 70h2M28 71h2M28 72h2M28 73h2M28 74h2M27 75h2M27 76h1M26 77h2M25 78h2M24 79h2M23 80h2M20 82h3M21 83h1" />
<path stroke="#740035" d="M28 17h1M28 18h3M28 19h1M31 19h1M28 20h1M32 20h1M28 21h1M32 21h1M28 22h1M32 22h1M29 23h1M32 23h1M31 24h2" />
<path stroke="#c40013" d="M29 19h2M29 20h1M31 20h1M29 21h1M31 21h1M29 22h1M31 22h1M30 23h2" />
<path stroke="#9664e0" d="M46 19h1M46 20h1M45 21h1M41 35h4M41 36h5M42 37h2M43 40h2M43 41h2M44 42h1M45 43h5M46 44h5M47 45h4M48 46h3M48 47h2M47 48h3M47 49h3M46 50h3M46 51h3M45 52h4M45 53h3M44 54h4M43 55h4M42 56h4M42 57h3M46 57h1M42 58h2M45 58h2M44 59h3M44 60h3M43 61h4M42 62h5M42 63h5M43 64h4M43 65h4M44 66h3M44 67h3M44 68h3M44 69h3M44 70h3M44 71h3M44 72h4M44 73h5M44 74h5M44 75h6M45 76h5M45 77h5M46 78h5M46 79h5M47 80h4M22 81h2M47 81h5M24 82h6M48 82h4M30 83h2M48 83h4M44 84h8M48 85h4M47 86h4M46 87h4" />
<path stroke="#ff4657" d="M30 20h1M30 21h1M30 22h1" />
<path stroke="rgba(26,13,64,0.0784313725490196)" d="M48 34h1M48 64h1" />
<path stroke="#9663df" d="M45 35h1" />
<path stroke="#f0eef8" d="M36 38h1M34 39h2M37 39h1M33 40h4M38 40h1M32 41h6M39 41h1M32 42h7M31 43h9M31 44h9M31 45h9M30 46h10M42 46h1M30 47h10M30 48h9M30 49h9M30 50h8M39 50h1M30 51h8M30 52h4" />
<path stroke="#e3e0f2" d="M43 50h1M41 74h1M40 75h1M39 76h1M38 78h1" />
<path stroke="#e4e0ef" d="M42 53h1" />
<path stroke="#dbd9e8" d="M35 59h1" />
<path stroke="rgba(25,15,59,0.9058823529411765)" d="M47 64h1" />
<path stroke="#806384" d="M19 89h1M57 89h1M18 90h1M58 90h1M17 91h2M58 91h2M16 92h3M58 92h3M16 93h4M57 93h4M16 94h5M56 94h5M17 95h6M53 95h7M18 96h41M19 97h39M20 98h37M22 99h33M24 100h29" />
<path stroke="#6a526e" d="M20 89h37M19 90h39M19 91h39M19 92h39M20 93h37M21 94h35M23 95h30" />
</svg>