<svg xmlns="http://www.w3.org/2000/svg" viewBox="0 -0.5 960 600" shape-rendering="crispEdges">
<metadata>Made with Pixels to Svg https://codepen.io/shshaw/pen/XbxvNj</metadata>
<path stroke="#702fbe" d="M521 182h2M521 183h2M519 184h2M519 185h2M517 186h2M517 187h2M515 188h2M515 189h2M513 190h2M513 191h2M511 192h2M511 193h2M509 194h2M509 195h2M507 196h2M507 197h2M505 198h2M505 199h2" />
<path stroke="#c67ae6" d="M503 200h2M503 201h2M501 202h2M501 203h2M499 204h2M499 205h2" />
<path stroke="#eeb7fa" d="M497 206h2M498 207h1" />
<path stroke="#eaaffa" d="M497 207h1" />
</svg>