<svg xmlns="http://www.w3.org/2000/svg" viewBox="0 -0.5 960 600" shape-rendering="crispEdges">
<metadata>Made with Pixels to Svg https://codepen.io/shshaw/pen/XbxvNj</metadata>
<path stroke="#702fbe" d="M504 199h2M504 200h2M502 201h2M502 202h2M500 203h2M500 204h2M498 205h2M498 206h2M496 207h2M496 208h2M494 209h2M494 210h2M492 211h2M492 212h2M490 213h2M490 214h2M488 215h2M488 216h2M486 217h2M486 218h2" />
<path stroke="#c67ae6" d="M484 219h2M484 220h2M482 221h2M482 222h2M480 223h2M480 224h2M478 225h2M478 226h2M476 227h2M476 228h2M474 229h2M474 230h2M472 231h2M472 232h2" />
<path stroke="#eeb7fa" d="M470 233h2M470 234h2" />
</svg>