<svg xmlns="http://www.w3.org/2000/svg" viewBox="0 -0.5 960 600" shape-rendering="crispEdges">
<metadata>Made with Pixels to Svg https://codepen.io/shshaw/pen/XbxvNj</metadata>
<path stroke="#a249f1" d="M791 256h1M800 260h4M805 260h1M828 260h1M780 261h16M800 261h4M780 262h18M800 262h4M780 263h4M787 263h11M800 263h13M819 263h4M780 264h4M787 264h11M801 264h3M809 264h4M819 264h1M822 264h1M780 265h9M796 265h8M811 265h2M819 265h4M835 265h2M780 266h9M811 266h2M835 266h2M781 267h7M796 267h8M808 269h11M808 270h3M835 277h1M835 278h1M853 279h1M794 280h14M791 281h4M800 281h8M830 281h4M791 282h3M796 282h3M800 282h10M812 282h1M819 282h4M830 282h1M832 282h2M841 282h3M791 283h3M796 283h3M800 283h10M819 283h4M830 283h4M841 283h3M791 284h3M796 284h3M800 284h10M814 284h10M830 284h4M841 284h3M791 285h3M800 285h3M809 285h9M791 286h3M800 286h3M809 286h9M791 287h4M799 287h2M809 287h9M792 288h8M810 288h4M826 288h8M826 290h8M826 291h8" />
<path stroke="#141414" d="M763 257h17M780 258h1M781 259h1M782 260h1M724 261h7M736 261h9M723 262h2M721 264h1M721 265h1M721 266h1M721 267h1M721 268h1M783 268h5M721 269h1M721 270h1M721 271h1M721 272h1M721 273h1M721 274h1M721 275h1M721 276h1M721 277h1M721 278h1M721 279h1M792 279h4M721 280h1M792 280h2M721 281h1M796 281h4M722 282h1M724 284h1M796 285h1M782 286h9M794 286h2M782 287h1M728 288h26M780 288h2M779 289h15" />
<path stroke="#28283c" d="M762 258h1M761 259h2M760 260h3M759 261h4M725 262h38M722 263h1M743 263h20M742 264h4M747 264h2M750 264h2M753 264h2M756 264h4M762 264h2M741 265h4M746 265h2M749 265h2M752 265h2M755 265h4M763 265h2M740 266h4M745 266h2M748 266h2M751 266h2M754 266h4M764 266h2M740 267h17M765 267h2M766 268h17M754 269h29M788 269h1M722 270h33M789 270h1M746 271h2M752 271h2M789 271h1M746 272h1M751 272h2M788 272h2M745 273h2M750 273h2M787 273h2M744 274h2M749 274h2M786 274h2M722 275h28M785 275h2M722 276h28M784 276h2M749 277h2M783 277h2M750 278h2M782 278h2M751 279h2M781 279h2M752 280h2M780 280h12M753 281h3M779 281h4M755 282h27M723 283h1M757 283h1M762 283h1M768 283h1M773 283h1M778 283h3M756 284h1M761 284h1M767 284h1M772 284h1M777 284h3M725 285h1M755 285h1M760 285h1M766 285h1M771 285h1M776 285h3M726 286h1M754 286h1M759 286h1M765 286h1M770 286h1M775 286h7M727 287h1M753 287h1M758 287h1M764 287h1M769 287h1M774 287h8M754 288h10M768 288h1M773 288h7M763 289h16" />
<path stroke="#9a8eab" d="M763 258h17M763 259h18M763 260h19M723 263h18M722 264h18M722 265h17M722 266h16M722 267h15M783 269h5M755 270h34M754 271h35M740 272h6M747 272h4M753 272h32M787 272h1M739 273h6M747 273h3M752 273h31M722 274h22M746 274h3M751 274h12M766 274h2M783 281h8M795 281h1M782 282h9M781 283h6M789 283h1" />
<path stroke="#5e5d7d" d="M763 261h14M763 262h12M741 263h2M763 263h7M740 264h2M760 264h2M764 264h16M739 265h2M759 265h4M765 265h15M738 266h2M758 266h6M766 266h14M737 267h3M757 267h8M767 267h14M722 268h44M722 269h32M722 271h24M748 271h4M722 272h18M722 273h17M750 275h35M753 276h2M758 276h2M763 276h2M768 276h2M773 276h2M778 276h6M751 277h32M752 278h30M753 279h28M754 280h26M756 281h23M780 284h11M794 284h2M779 285h12M794 285h2" />
<path stroke="#d1c1d6" d="M777 261h3M775 262h5M770 263h10M785 272h2M783 273h4M763 274h3M768 274h18M794 282h2M787 283h2M790 283h1M794 283h2" />
<path stroke="#f77528" d="M720 264h1M746 264h1M749 264h1M752 264h1M755 264h1M720 265h1M745 265h1M748 265h1M751 265h1M754 265h1M720 266h1M744 266h1M747 266h1M750 266h1M753 266h1M720 267h1M720 268h1M720 269h1M720 270h1M720 271h1M720 272h1M720 273h1M720 274h1M720 275h1M720 276h1M750 276h3M755 276h3M760 276h3M765 276h3M770 276h3M775 276h3M720 277h1M720 278h1M720 279h1M720 280h1M720 281h1M740 284h1M742 284h1M744 284h1" />
<path stroke="#3c3c5c" d="M722 277h27M722 278h28M722 279h29M739 280h13M722 281h17M740 281h1M742 281h1M744 281h9M723 282h16M740 282h1M742 282h1M744 282h11M737 283h2M740 283h1M742 283h1M744 283h13M758 283h4M763 283h5M769 283h4M774 283h4M725 284h11M737 284h2M745 284h11M757 284h4M762 284h5M768 284h4M773 284h4M726 285h10M737 285h2M740 285h1M742 285h1M744 285h11M756 285h4M761 285h5M767 285h4M772 285h4M727 286h9M737 286h2M740 286h1M742 286h1M744 286h10M755 286h4M760 286h5M766 286h4M771 286h4M728 287h8M737 287h2M740 287h1M742 287h1M744 287h9M754 287h4M759 287h5M765 287h4M770 287h4M764 288h4M769 288h4" />
<path stroke="#1b1623" d="M722 280h17M739 281h1M741 281h1M743 281h1M739 282h1M741 282h1M743 282h1M724 283h13M739 283h1M741 283h1M743 283h1M736 284h1M739 284h1M741 284h1M743 284h1M736 285h1M739 285h1M741 285h1M743 285h1M736 286h1M739 286h1M741 286h1M743 286h1M736 287h1M739 287h1M741 287h1M743 287h1" />
</svg>