<svg xmlns="http://www.w3.org/2000/svg" viewBox="0 -0.5 960 600" shape-rendering="crispEdges">
<metadata>Made with Pixels to Svg https://codepen.io/shshaw/pen/XbxvNj</metadata>
<path stroke="#362135" d="M468 71h38M468 72h2M505 72h2M469 73h2M506 73h2M470 74h2M507 74h2M471 75h2M508 75h28M469 76h5M508 76h31M467 77h8M507 77h2M538 77h3M465 78h11M506 78h2M537 78h3M541 78h1M460 79h6M475 79h2M505 79h2M537 79h2M542 79h1M476 80h2M504 80h2M536 80h2M543 80h1M477 81h2M502 81h3M535 81h2M544 81h1M477 82h26M534 82h15M477 83h3M484 83h1M489 83h1M495 83h1M500 83h1M533 83h2M548 83h1M477 84h4M485 84h1M490 84h1M496 84h1M501 84h1M532 84h1M548 84h1M477 85h5M486 85h1M491 85h1M497 85h1M502 85h1M531 85h2M547 85h1M459 86h3M476 86h7M487 86h1M492 86h1M498 86h1M503 86h1M530 86h2M546 86h1M462 87h1M476 87h8M488 87h1M493 87h1M499 87h1M504 87h1M529 87h2M545 87h1M463 88h1M478 88h7M489 88h1M494 88h10M530 88h15" />
<path stroke="#694866" d="M470 72h1M475 75h2M480 75h2M485 75h2M490 75h2M495 75h2M500 75h2M505 75h2M474 76h34M475 77h32M476 78h30M477 79h28M478 80h26M461 81h14M479 81h23M461 82h15M468 83h1M471 83h6M461 84h16M461 85h16" />
<path stroke="#936a8a" d="M471 72h34M471 73h35M472 74h6M490 74h2M495 74h12M509 77h8M518 77h2M521 77h2M524 77h2M527 77h11M508 78h10M519 78h2M522 78h2M525 78h2M528 78h9M466 79h9M507 79h12M520 79h2M523 79h2M526 79h2M529 79h7M461 80h15M506 80h13M475 81h2M505 81h9M515 81h1M517 81h1M519 81h16M476 82h1M503 82h11M515 82h1M517 82h1M519 82h15M501 83h13M515 83h1M517 83h1M519 83h2M502 84h12M515 84h1M517 84h1M519 84h2M522 84h10" />
<path stroke="#bf97af" d="M478 74h12M492 74h3M539 79h2M538 80h4M537 81h6M461 83h7M469 83h2" />
<path stroke="#9eb827" d="M473 75h2M477 75h3M482 75h3M487 75h3M492 75h3M497 75h3M502 75h3M507 75h1M517 77h1M520 77h1M523 77h1M526 77h1M518 78h1M521 78h1M524 78h1M527 78h1M540 78h1M519 79h1M522 79h1M525 79h1M528 79h1M541 79h1M542 80h1M543 81h1" />
<path stroke="#a82782" d="M430 76h3M422 77h11M437 79h8M453 79h7M404 80h2M428 80h2M452 80h9M404 81h2M418 81h4M428 81h2M437 81h8M452 81h9M418 82h1M421 82h1M428 82h4M437 82h3M443 82h11M457 82h4M418 83h4M428 83h13M443 83h11M457 83h4M437 84h4M443 84h18M437 85h4M445 85h16M412 86h1M435 86h1M437 86h4M449 90h1" />
<path stroke="#20141a" d="M536 79h1M519 80h17M514 81h1M516 81h1M518 81h1M514 82h1M516 82h1M518 82h1M514 83h1M516 83h1M518 83h1M521 83h12M514 84h1M516 84h1M518 84h1M521 84h1M514 85h1M516 85h1M518 85h1M521 85h1M514 86h1M516 86h1M518 86h1M521 86h1M514 87h1M516 87h1M518 87h1M521 87h1" />
<path stroke="#4d2e4c" d="M480 83h4M485 83h4M490 83h5M496 83h4M535 83h13M481 84h4M486 84h4M491 84h5M497 84h4M534 84h14M482 85h4M487 85h4M492 85h5M498 85h4M503 85h11M515 85h1M517 85h1M519 85h2M522 85h9M533 85h14M483 86h4M488 86h4M493 86h5M499 86h4M504 86h10M515 86h1M517 86h1M519 86h2M522 86h8M532 86h14M463 87h12M484 87h4M489 87h4M494 87h5M500 87h4M505 87h9M515 87h1M517 87h1M519 87h2M522 87h7M531 87h14M464 88h12M485 88h4M490 88h4M495 89h4M484 90h14M483 91h14M482 92h14M481 93h14" />
<path stroke="#141414" d="M533 84h1M462 86h14M475 87h1M476 88h2M504 88h26M464 89h31M499 89h1M483 90h1M498 90h1M482 91h1M497 91h1M481 92h1M496 92h1M480 93h1M495 93h1M480 94h15" />
</svg>