<svg xmlns="http://www.w3.org/2000/svg" viewBox="0 -0.5 960 600" shape-rendering="crispEdges">
<metadata>Made with Pixels to Svg https://codepen.io/shshaw/pen/XbxvNj</metadata>
<path stroke="#287fa4" d="M869 57h1M867 59h1M871 59h1M869 61h1M661 154h1M658 157h1M664 157h1M661 160h1" />
<path stroke="#5faacf" d="M869 58h1M868 59h1M870 59h1M869 60h1M257 86h1M256 87h3M257 88h1M661 155h1M660 156h1M662 156h1M659 157h1M663 157h1M660 158h1M662 158h1M661 159h1" />
<path stroke="#9adedc" d="M869 59h1M661 156h1M660 157h3M661 158h1" />
</svg>