<svg xmlns="http://www.w3.org/2000/svg" viewBox="0 -0.5 960 600" shape-rendering="crispEdges">
<metadata>Made with Pixels to Svg https://codepen.io/shshaw/pen/XbxvNj</metadata>
<path stroke="#287fa4" d="M869 56h1M866 59h1M872 59h1M869 62h1M257 85h1M255 87h1M259 87h1M257 89h1" />
<path stroke="#5faacf" d="M869 57h1M868 58h1M870 58h1M867 59h1M871 59h1M868 60h1M870 60h1M869 61h1M257 86h1M256 87h1M258 87h1M257 88h1M661 157h1" />
<path stroke="#9adedc" d="M869 58h1M868 59h3M869 60h1M257 87h1" />
<path stroke="#164387" d="M661 156h1M660 157h1M662 157h1M661 158h1" />
</svg>