<svg xmlns="http://www.w3.org/2000/svg" viewBox="0 -0.5 960 600" shape-rendering="crispEdges">
<metadata>Made with Pixels to Svg https://codepen.io/shshaw/pen/XbxvNj</metadata>
<path stroke="rgba(255,128,255,0.01568627450980392)" d="M326 2h2M277 40h2M370 158h2" />
<path stroke="#db7aae" d="M113 3h1M105 5h1M539 7h1M597 12h1M470 24h1M411 28h1M779 30h1M137 34h1M197 39h1M861 42h1M448 43h1M209 45h1M107 51h1M147 52h1M514 54h1M542 56h1M770 57h1M618 60h1M883 62h1M451 65h1M653 67h1M429 68h1M684 70h1M202 75h1M479 78h1M558 78h1M378 83h1M601 88h1M38 93h1M837 93h1M908 93h1M652 97h1M165 100h1M785 102h1M298 103h1M873 106h1M875 108h1M101 112h1M435 114h1M377 116h1M415 116h1M68 117h1M377 117h1M659 119h1M565 121h1M216 122h1M167 125h1M199 127h2M305 130h1M869 131h1M582 132h1M648 135h1M97 136h1M510 136h1M494 141h1M466 142h1M765 149h1M71 153h1M233 153h1M314 156h1M127 158h1M643 168h1M686 169h1M779 171h1M445 173h1M839 180h1M838 181h1M621 185h1M232 187h1M591 189h1M483 190h1M700 192h1M515 195h1M905 197h1M490 202h1M421 203h1M138 208h1M471 213h1M89 216h1M747 219h1M422 224h1M425 227h1M566 230h1M920 260h1M149 261h1M534 262h1M774 262h1M448 269h1M467 269h1M914 271h1M867 277h1M811 279h1M661 291h1M843 301h1M910 310h1M620 324h1M774 326h1M808 339h1M503 353h1M305 361h1" />
<path stroke="rgba(243,157,250,0.7372549019607844)" d="M326 3h2M277 41h2M370 159h2" />
<path stroke="#79384d" d="M848 3h1M30 4h1M3 5h1M887 7h1M850 14h1M879 16h1M674 33h1M698 48h1M742 63h1M715 90h1M508 96h1M486 97h1M486 98h1M825 105h1M554 114h1M520 115h1M484 118h1M737 140h1M563 146h1M773 156h1M46 163h1M918 163h1M14 200h1M828 226h1" />
<path stroke="#769f94" d="M670 4h1M739 18h1M942 18h1M743 83h1" />
<path stroke="#b0ebdc" d="M783 8h1M850 62h1" />
<path stroke="#6b316d" d="M451 15h1M53 33h1M65 43h1M107 43h1M162 54h1M762 55h1M764 56h1M410 58h1M11 62h1M502 64h1M370 75h1M120 80h1M54 98h1M143 101h1M103 102h1M769 108h1M443 110h1M402 112h1M326 123h1M91 124h1M105 125h1M542 127h1M154 129h1M54 132h1M5 136h1M102 141h1M93 143h1M402 148h1M547 150h1M838 150h1M201 154h1M179 160h1M910 171h1M855 172h1M139 185h1M376 187h1M43 190h1M29 198h1M135 200h1M486 201h1M103 203h1M377 205h1M48 216h1M43 227h1M521 232h1M509 285h1" />
<path stroke="#a7cadf" d="M529 32h1M481 33h1M629 34h1M24 36h1M319 55h1M221 65h1M532 76h1M437 81h1M11 99h1M439 105h1M245 124h1M647 133h1M409 139h1M472 147h1M623 149h1M137 156h1M203 184h1M525 187h1M154 218h1M377 219h1M116 247h1M555 262h1M612 268h1M60 286h1M518 292h1M445 309h1M209 312h1M504 344h1" />
<path stroke="rgba(255,153,255,0.0392156862745098)" d="M830 34h1" />
<path stroke="#f39efa" d="M830 35h1" />
<path stroke="#9eb4ec" d="M950 47h1M927 54h1M935 107h1M895 123h1M798 125h1M730 138h1M950 147h1M855 148h1M926 166h1M880 173h1" />
<path stroke="rgba(243,157,249,0.5215686274509804)" d="M358 133h1" />
<path stroke="rgba(243,158,250,0.7490196078431373)" d="M358 134h1" />
<path stroke="rgba(242,158,251,0.4745098039215686)" d="M358 135h1" />
<path stroke="rgba(244,157,251,0.45098039215686275)" d="M321 165h2" />
<path stroke="rgba(243,159,250,0.41568627450980394)" d="M321 166h2" />
<path stroke="rgba(255,128,255,0.00784313725490196)" d="M318 271h2" />
<path stroke="rgba(243,158,251,0.48627450980392156)" d="M318 272h2" />
<path stroke="rgba(245,153,255,0.09803921568627451)" d="M548 304h1" />
<path stroke="#d293be" d="M353 307h1M590 319h1M523 325h1M413 331h1" />
<path stroke="#da7aae" d="M701 370h1M746 372h1M750 372h1M700 373h1M749 375h1M751 376h1M760 379h1" />
<path stroke="#da7bae" d="M582 382h1M583 384h1" />
<path stroke="#da7baf" d="M830 396h1M716 403h1M821 406h1" />
<path stroke="#d97bae" d="M870 412h1M872 413h1M876 413h1M843 414h1M841 415h1M844 415h1M874 415h1M872 416h1M879 416h1M875 418h1M133 430h1M137 435h1M135 436h1" />
<path stroke="#d87caf" d="M851 436h1M668 444h1" />
<path stroke="#d97cae" d="M136 438h1" />
</svg>