<svg xmlns="http://www.w3.org/2000/svg" viewBox="0 -0.5 960 600" shape-rendering="crispEdges">
<metadata>Made with Pixels to Svg https://codepen.io/shshaw/pen/XbxvNj</metadata>
<path stroke="#a7cadf" d="M513 2h1M52 6h1M607 26h1M151 29h1M550 32h1M189 58h1M337 58h1M172 120h1M583 128h1M607 144h1M46 177h1M492 201h1M256 211h1M311 237h1M59 240h1M589 243h1M441 244h1M489 245h1M569 313h1M271 343h1M510 348h1M583 365h1M122 369h1" />
<path stroke="rgba(122,52,109,0.7372549019607844)" d="M732 2h1" />
<path stroke="#db7aae" d="M656 3h1M184 15h1M806 15h1M862 17h1M909 23h1M443 25h1M462 25h1M529 32h1M769 32h1M915 34h1M526 47h1M385 50h1M382 53h1M707 58h1M124 60h1M431 64h1M173 68h1M381 74h1M475 82h1M551 88h1M267 89h1M581 92h1M798 96h1M799 97h1M900 97h1M739 106h1M646 108h1M162 118h1M106 123h1M268 123h1M725 128h1M454 136h1M132 140h1M608 142h1M542 145h1M829 146h1M202 151h1M619 158h1M103 159h1M297 162h1M136 164h1M835 169h1M745 175h1M200 176h1M612 180h1M73 183h1M797 184h1M290 189h1M561 189h1M338 194h1M439 199h1M518 199h1M237 201h1M903 201h1M644 207h1M389 209h1M613 210h1M411 212h1M733 213h1M578 217h1M201 219h1M730 220h1M200 221h1M502 221h1M916 221h1M202 222h1M474 223h1M182 224h1M142 225h1M198 227h1M244 231h1M878 232h1M408 234h1M821 235h1M232 237h1M172 242h1M908 243h1M739 247h1M371 249h1M886 251h1M320 252h1M430 253h1M781 254h1M895 261h1M557 265h1M499 270h1M143 273h1M648 273h1M151 275h1M647 275h1M825 278h1M765 284h1M271 285h1M766 287h1M226 288h1M370 296h1M568 304h1M873 318h1M839 331h1M685 333h1M908 356h1M726 366h1" />
<path stroke="rgba(124,50,108,0.25882352941176473)" d="M732 3h1" />
<path stroke="#6b316d" d="M504 9h1M481 45h1M78 49h1M83 60h1M337 72h1M138 73h1M170 76h1M64 78h1M10 79h1M78 86h1M10 90h1M336 90h1M174 91h1M850 122h1M905 123h1M798 127h1M128 133h1M137 135h1M43 142h1M89 144h1M189 147h1M140 151h1M126 152h1M9 153h1M729 169h1M138 174h1M178 175h1M89 178h1M155 196h1M327 200h1M462 213h1M46 214h1M370 219h1M724 221h1M197 222h1M722 222h1M100 233h1M142 233h1M32 243h1M88 243h1M411 262h1M574 372h1" />
<path stroke="rgba(204,255,255,0.0196078431372549)" d="M267 15h1M607 43h1M720 148h1M259 307h1" />
<path stroke="#f786c5" d="M947 15h1M951 35h1M845 69h1M940 77h1M930 101h1M895 167h1M946 175h1M946 176h1" />
<path stroke="rgba(184,237,250,0.9764705882352941)" d="M267 16h1M607 44h1M720 149h1M259 308h1" />
<path stroke="#e585bb" d="M340 20h1M183 28h1M228 50h2M228 51h2M166 79h3M166 80h3M166 81h3M357 93h2M357 94h2M461 145h1M384 185h3M384 186h3M384 187h3M439 213h2M439 214h2M222 217h2M222 218h2" />
<path stroke="rgba(121,51,109,0.49411764705882355)" d="M548 23h1M410 102h1M632 125h1M411 146h1M677 195h1" />
<path stroke="rgba(121,50,109,0.23921568627450981)" d="M549 23h1M411 102h1M633 125h1M412 146h1M678 195h1" />
<path stroke="rgba(122,52,110,0.17254901960784313)" d="M548 24h1M410 103h1M632 126h1M411 147h1M677 196h1" />
<path stroke="rgba(121,49,109,0.08235294117647059)" d="M549 24h1M411 103h1M633 126h1M412 147h1M678 196h1" />
<path stroke="rgba(123,51,110,0.23529411764705882)" d="M829 27h1M664 96h1M625 110h2M609 125h1M661 154h2M613 155h1M493 184h1" />
<path stroke="rgba(122,51,109,0.7607843137254902)" d="M829 28h1M664 97h1M625 111h2M609 126h1M661 155h2M613 156h1M493 185h1" />
<path stroke="#6c3872" d="M113 32h3M113 33h3M113 34h3M381 40h2M381 41h2M470 41h3M470 42h3M470 43h3M401 51h1M604 58h1M473 74h1M654 75h3M654 76h3M654 77h3M606 80h3M606 81h3M666 89h2M666 90h2M103 99h2M103 100h2M53 120h2M53 121h2M193 130h1M193 131h1M70 139h3M70 140h3M70 141h3M561 142h3M561 143h3M561 144h3M183 146h2M183 147h2M420 157h2M420 158h1M211 161h3M601 161h2M211 162h3M601 162h2M211 163h3M603 169h1M40 176h3M40 177h3M40 178h3" />
<path stroke="rgba(121,51,108,0.1568627450980392)" d="M215 34h1M561 78h1M455 108h1M574 133h1M571 134h1M634 155h1M452 161h1M338 281h1" />
<path stroke="rgba(121,54,107,0.07450980392156863)" d="M216 34h1M562 78h1M456 108h1M572 134h1M132 148h1M635 155h1M453 161h1M339 281h1" />
<path stroke="rgba(122,51,110,0.5098039215686274)" d="M215 35h1M561 79h1M455 109h1M571 135h1M131 149h1M634 156h1M452 162h1M338 282h1" />
<path stroke="rgba(121,53,109,0.24705882352941178)" d="M216 35h1M562 79h1M456 109h1M572 135h1M132 149h1M635 156h1M453 162h1M339 282h1" />
<path stroke="rgba(128,51,102,0.0392156862745098)" d="M253 39h1M41 42h1M139 44h1M552 122h1M657 149h1M358 155h1M210 161h1M272 245h1" />
<path stroke="rgba(122,51,107,0.19607843137254902)" d="M254 39h1M42 42h1M140 44h1M557 122h1M658 149h1M359 155h1M273 245h1" />
<path stroke="rgba(120,48,112,0.12549019607843137)" d="M253 40h1M41 43h1M139 45h1M552 123h1M657 150h1M358 156h1M210 162h1M272 246h1" />
<path stroke="rgba(123,51,108,0.6274509803921569)" d="M254 40h1M42 43h1M140 45h1M557 123h1M658 150h1M359 156h1M273 246h1" />
<path stroke="#79384d" d="M788 51h1M49 76h1M81 113h1M23 120h1M733 121h1M913 131h1M697 137h1M28 150h1M444 159h1M785 172h1M446 179h1M468 181h1M675 187h1M9 204h1M702 214h1M20 227h1M658 229h1M634 244h1M810 263h1M41 273h1M68 274h1M808 274h1M874 278h1M581 279h1M9 280h1M661 281h1M882 287h1M517 288h1M467 289h1M558 290h1M661 291h1" />
<path stroke="#9eb4ec" d="M806 56h1M955 128h1" />
<path stroke="rgba(184,238,249,0.5215686274509804)" d="M525 62h1" />
<path stroke="rgba(183,236,251,0.4745098039215686)" d="M525 63h1" />
<path stroke="rgba(123,49,107,0.12156862745098039)" d="M306 65h1M620 95h1M549 97h1M391 119h1M442 123h1M78 124h1M363 138h1M576 180h1M125 232h1" />
<path stroke="rgba(122,51,109,0.6078431372549019)" d="M307 65h1M621 95h1M550 97h1M392 119h1M443 123h1M79 124h1M364 138h1M577 180h1M126 232h1" />
<path stroke="rgba(116,46,116,0.043137254901960784)" d="M306 66h1M620 96h1M549 98h1M391 120h1M442 124h1M78 125h1M574 135h1M363 139h1M576 181h1M125 233h1" />
<path stroke="rgba(121,51,111,0.21568627450980393)" d="M307 66h1M621 96h1M550 98h1M392 120h1M443 124h1M79 125h1M364 139h1M577 181h1M126 233h1" />
<path stroke="rgba(185,236,251,0.25882352941176473)" d="M454 95h2M481 254h2M152 337h2M715 343h2" />
<path stroke="rgba(183,238,251,0.23529411764705882)" d="M454 96h2M481 255h2M152 338h2M715 344h2" />
<path stroke="rgba(122,51,109,0.7647058823529411)" d="M789 97h1" />
<path stroke="rgba(119,51,110,0.11764705882352941)" d="M790 97h1M761 100h2M750 194h2" />
<path stroke="rgba(122,51,109,0.5333333333333333)" d="M789 98h1" />
<path stroke="rgba(121,50,108,0.3803921568627451)" d="M790 98h1" />
<path stroke="rgba(122,50,109,0.3764705882352941)" d="M761 101h2M750 195h2" />
<path stroke="#b4ddea" d="M122 112h1M170 183h1M277 214h1" />
<path stroke="rgba(123,53,110,0.22745098039215686)" d="M553 122h4" />
<path stroke="rgba(122,50,110,0.6745098039215687)" d="M553 123h4" />
<path stroke="rgba(123,52,109,0.5215686274509804)" d="M575 133h1" />
<path stroke="rgba(123,47,113,0.10588235294117647)" d="M576 133h1" />
<path stroke="rgba(121,51,109,0.5686274509803921)" d="M574 134h1" />
<path stroke="rgba(123,51,109,0.8)" d="M575 134h1M131 148h1" />
<path stroke="rgba(128,57,113,0.07058823529411765)" d="M576 134h1" />
<path stroke="rgba(123,52,109,0.21176470588235294)" d="M575 135h1" />
<path stroke="#2e1829" d="M176 145h1M176 146h1M176 147h1" />
<path stroke="rgba(85,85,85,0.011764705882352941)" d="M130 147h1" />
<path stroke="rgba(123,53,106,0.11372549019607843)" d="M131 147h1" />
<path stroke="rgba(118,49,108,0.10196078431372549)" d="M130 148h1" />
<path stroke="rgba(121,52,110,0.36470588235294116)" d="M608 152h2M801 153h2M781 166h2M567 172h2" />
<path stroke="rgba(124,54,108,0.12941176470588237)" d="M608 153h2M801 154h2M781 167h2M567 173h2" />
<path stroke="#769f94" d="M703 194h1M699 259h1M630 273h1M937 276h1" />
<path stroke="#b0ebdc" d="M845 232h1M743 269h1" />
<path stroke="#d293be" d="M478 326h1M588 332h1M655 338h1M418 350h1" />
<path stroke="#da7aae" d="M254 378h1M876 378h1M932 380h1" />
<path stroke="#da7bae" d="M513 388h1M532 388h1" />
<path stroke="#a5cadf" d="M677 389h1M221 392h1M620 395h1" />
<path stroke="#da7baf" d="M599 395h1M839 395h1" />
<path stroke="#69316d" d="M551 408h1M148 412h1" />
<path stroke="#d97bae" d="M596 410h1M455 413h1M452 416h1M777 421h1M194 423h1M501 427h1" />
<path stroke="#78394e" d="M858 414h1M119 439h1" />
<path stroke="#a4cbe0" d="M259 421h1M407 421h1" />
<path stroke="#69336d" d="M153 423h1M80 442h1" />
<path stroke="#d87cae" d="M243 431h1" />
<path stroke="#69336e" d="M407 435h1M208 436h1M240 439h1M516 439h1M134 441h1M148 449h1M80 453h1" />
<path stroke="#d87caf" d="M451 437h1M520 438h1M545 445h1" />
<path stroke="#d77caf" d="M730 448h1M513 450h1M621 451h1M337 452h1" />
<path stroke="#68336e" d="M406 453h1M244 454h1" />
<path stroke="#a2cce0" d="M555 453h1M308 455h1" />
<path stroke="#d77daf" d="M651 455h1M868 459h1" />
<path stroke="#d77db0" d="M869 460h1" />
<path stroke="#d67daf" d="M475 467h1M809 469h1M716 471h1M673 472h1" />
<path stroke="#763a4f" d="M151 476h1" />
<path stroke="#673470" d="M284 479h1M306 485h1M920 485h1M577 490h1M113 505h1M79 516h1" />
<path stroke="#d57eaf" d="M232 481h1" />
<path stroke="#763a4e" d="M93 483h1" />
<path stroke="#a0cde1" d="M242 483h1" />
<path stroke="#753a4f" d="M803 484h1" />
<path stroke="#d57eb0" d="M176 486h1" />
<path stroke="#d47eb0" d="M338 486h1" />
<path stroke="#673471" d="M868 490h1M432 492h1M198 496h1M207 498h1" />
<path stroke="#9fcde1" d="M653 491h1M502 493h1" />
<path stroke="#d47fb0" d="M795 491h1" />
<path stroke="#753b50" d="M593 494h1M98 513h1" />
<path stroke="#d37fb0" d="M496 498h1" />
<path stroke="#d37fb1" d="M376 499h1M524 499h1M202 503h1" />
<path stroke="#743b50" d="M767 500h1" />
<path stroke="#9ecee1" d="M439 501h1M677 507h1" />
<path stroke="#d27fb1" d="M540 504h1M678 505h1" />
<path stroke="#673571" d="M159 507h1" />
<path stroke="#d280b1" d="M612 508h1M899 509h1M304 512h2" />
<path stroke="#663572" d="M259 510h1M572 513h1M210 514h1M196 515h1M58 553h1" />
<path stroke="#d180b1" d="M272 514h1" />
<path stroke="#9dcee1" d="M350 515h1" />
<path stroke="#d180b2" d="M321 517h1M595 519h1M689 521h1M173 522h1" />
<path stroke="#733c51" d="M514 522h1M550 525h1M584 526h1" />
<path stroke="#d181b2" d="M407 523h1M445 524h1M367 525h1M465 526h1M206 527h1M905 532h1" />
<path stroke="#653573" d="M432 528h1" />
<path stroke="#653673" d="M473 530h1M388 532h1M799 532h1M208 537h1M248 538h1M159 541h1" />
<path stroke="#9cd1e2" d="M469 535h1" />
<path stroke="#733c52" d="M855 535h1M79 567h1" />
<path stroke="#d081b3" d="M815 538h1M270 539h1M143 546h1" />
<path stroke="#9dd0e1" d="M116 540h1" />
<path stroke="#733d52" d="M516 542h1M538 544h1M745 550h1" />
<path stroke="#d082b3" d="M682 543h1" />
<path stroke="#cf82b3" d="M867 547h1M938 551h1M360 552h1M631 552h1" />
<path stroke="#cf82b4" d="M408 557h1" />
<path stroke="#70a79b" d="M773 557h1" />
<path stroke="#643674" d="M225 559h1M116 577h1" />
<path stroke="#9ad2e2" d="M467 559h1M562 564h1M326 574h1" />
<path stroke="#ce83b4" d="M509 562h1M588 562h1M307 564h1M714 570h1M459 572h1M683 573h1M481 575h1" />
<path stroke="#643675" d="M397 563h1M532 576h1" />
<path stroke="#723d53" d="M772 577h1M90 590h1" />
<path stroke="#cd83b3" d="M648 580h1M800 583h1M572 584h1M544 586h1M252 587h1M212 588h1" />
<path stroke="#643775" d="M440 582h1M794 584h1M267 585h1M792 585h1" />
<path stroke="#723e53" d="M728 592h1" />
<path stroke="#cd83b5" d="M314 594h1M948 595h1M478 597h1" />
<path stroke="#a1eee0" d="M915 595h1" />
<path stroke="#633775" d="M170 596h1M212 596h1" />
<path stroke="#cd84b4" d="M891 598h1" />
</svg>