<svg xmlns="http://www.w3.org/2000/svg" viewBox="0 -0.5 960 600" shape-rendering="crispEdges">
<metadata>Made with Pixels to Svg https://codepen.io/shshaw/pen/XbxvNj</metadata>
<path stroke="#431680" d="M404 17h1M401 20h1M407 20h1M113 21h1M112 22h1M114 22h1M113 23h1M404 23h1M100 27h1M829 27h2M99 28h1M101 28h1M829 28h2M100 29h1M106 30h2M106 31h2M144 33h1M813 35h3M141 36h1M147 36h1M813 36h1M815 36h1M813 37h3M236 38h1M144 39h1M236 39h1M236 40h1M499 40h1M235 41h1M237 41h1M414 41h3M232 42h2M238 42h3M293 42h1M414 42h1M416 42h1M235 43h1M237 43h1M293 43h1M414 43h3M496 43h1M502 43h1M236 44h1M291 44h2M294 44h2M808 44h1M236 45h1M293 45h1M808 45h1M236 46h1M293 46h1M499 46h1M806 46h2M809 46h2M243 47h1M808 47h1M243 48h1M808 48h1M241 49h2M244 49h2M862 49h1M243 50h1M861 50h1M863 50h1M243 51h1M862 51h1M549 54h1M548 55h1M550 55h1M849 55h1M549 56h1M848 56h1M850 56h1M849 57h1M855 58h2M855 59h2M884 59h1M562 60h1M561 61h1M563 61h1M562 62h1M881 62h1M887 62h1M555 63h2M509 64h3M555 64h2M20 65h1M509 65h1M511 65h1M884 65h1M450 66h1M509 66h3M449 67h1M451 67h1M17 68h1M23 68h1M196 68h1M450 68h1M196 69h1M194 70h2M197 70h2M643 70h1M760 70h1M20 71h1M196 71h1M760 71h1M815 71h1M196 72h1M437 72h1M759 72h1M761 72h1M815 72h1M436 73h1M438 73h1M640 73h1M646 73h1M758 73h1M762 73h1M813 73h2M816 73h2M934 73h1M437 74h1M756 74h2M763 74h2M815 74h1M933 74h1M935 74h1M443 75h2M758 75h1M762 75h1M815 75h1M934 75h1M443 76h2M643 76h1M759 76h1M761 76h1M760 77h1M760 78h1M70 79h1M947 79h1M69 80h1M71 80h1M946 80h1M948 80h1M70 81h1M190 81h3M546 81h1M947 81h1M190 82h1M192 82h1M477 82h1M546 82h1M940 82h2M190 83h3M546 83h1M894 83h3M940 83h2M545 84h1M547 84h1M693 84h1M894 84h1M896 84h1M83 85h1M542 85h3M549 85h2M692 85h1M694 85h1M894 85h3M82 86h1M84 86h1M545 86h1M547 86h1M693 86h1M764 86h1M83 87h1M546 87h1M764 87h1M76 88h2M508 88h2M546 88h1M30 89h3M76 89h2M508 89h2M546 89h1M30 90h1M32 90h1M539 90h1M706 90h1M30 91h3M215 91h1M539 91h1M705 91h1M707 91h1M214 92h1M216 92h1M537 92h2M540 92h2M706 92h1M215 93h1M453 93h1M539 93h1M699 93h2M453 94h1M539 94h1M653 94h3M699 94h2M453 95h1M653 95h1M655 95h1M452 96h1M454 96h1M492 96h3M653 96h3M202 97h1M449 97h2M455 97h3M492 97h1M494 97h1M201 98h1M203 98h1M452 98h1M454 98h1M492 98h3M202 99h1M453 99h1M208 100h2M453 100h1M931 100h1M208 101h2M453 101h1M931 101h1M460 102h1M931 102h1M246 103h1M460 103h1M873 103h1M930 103h1M932 103h1M458 104h2M461 104h2M873 104h1M927 104h3M934 104h2M460 105h1M487 105h1M572 105h1M872 105h1M874 105h1M930 105h1M932 105h1M67 106h1M243 106h1M249 106h1M460 106h1M487 106h1M871 106h1M875 106h1M931 106h1M67 107h1M485 107h2M488 107h2M869 107h2M876 107h2M931 107h1M67 108h1M487 108h1M871 108h1M875 108h1M931 108h1M66 109h1M68 109h1M246 109h1M487 109h1M872 109h1M874 109h1M924 109h1M63 110h3M70 110h2M873 110h1M924 110h1M66 111h1M68 111h1M690 111h1M873 111h1M922 111h2M925 111h2M67 112h1M148 112h1M690 112h1M924 112h1M67 113h1M690 113h1M924 113h1M67 114h1M262 114h1M689 114h1M691 114h1M60 115h1M145 115h1M151 115h1M262 115h1M479 115h1M686 115h3M693 115h2M60 116h1M260 116h2M263 116h2M479 116h1M689 116h1M691 116h1M58 117h2M61 117h2M262 117h1M478 117h1M480 117h1M690 117h1M60 118h1M148 118h1M218 118h1M262 118h1M477 118h1M481 118h1M690 118h1M60 119h1M218 119h1M475 119h2M482 119h2M690 119h1M869 119h1M218 120h1M477 120h1M481 120h1M683 120h1M869 120h1M217 121h1M219 121h1M478 121h1M480 121h1M683 121h1M214 122h2M220 122h3M479 122h1M681 122h2M684 122h2M217 123h1M219 123h1M479 123h1M642 123h1M683 123h1M218 124h1M270 124h1M683 124h1M957 124h1M218 125h1M270 125h1M98 126h1M218 126h1M269 126h1M271 126h1M639 126h1M645 126h1M97 127h1M99 127h1M225 127h1M256 127h3M268 127h1M272 127h1M98 128h1M225 128h1M256 128h1M258 128h1M266 128h2M273 128h2M734 128h1M223 129h2M226 129h2M256 129h3M268 129h1M272 129h1M642 129h1M734 129h1M93 130h1M225 130h1M269 130h1M271 130h1M734 130h1M225 131h1M270 131h1M483 131h1M733 131h1M735 131h1M85 132h1M270 132h1M483 132h1M494 132h1M730 132h2M736 132h3M791 132h1M84 133h1M86 133h1M494 133h1M733 133h1M735 133h1M791 133h1M85 134h1M492 134h2M495 134h2M734 134h1M789 134h2M792 134h2M494 135h1M734 135h1M791 135h1M136 136h3M494 136h1M734 136h1M791 136h1M136 137h1M138 137h1M741 137h1M136 138h3M741 138h1M739 139h2M742 139h2M266 140h1M741 140h1M255 141h1M266 141h1M741 141h1M255 142h1M253 143h2M256 143h2M255 144h1M255 145h1M694 158h1M694 159h1M692 160h2M695 160h2M694 161h1M108 162h1M694 162h1M108 163h1M106 164h2M109 164h2M108 165h1M108 166h1M688 171h3M688 172h1M690 172h1M688 173h3M427 174h1M427 175h1M427 176h1M75 177h1M426 177h1M428 177h1M423 178h2M429 178h3M426 179h1M428 179h1M427 180h1M427 181h1M427 182h1M434 183h1M434 184h1M432 185h2M435 185h2M434 186h1M434 187h1M280 198h1M279 199h1M281 199h1M280 200h1M367 203h1M267 204h1M367 204h1M266 205h1M268 205h1M366 205h1M368 205h1M267 206h1M365 206h1M369 206h1M273 207h2M363 207h2M370 207h2M273 208h2M365 208h1M369 208h1M366 209h1M368 209h1M311 210h1M367 210h1M367 211h1M382 212h1M308 213h1M314 213h1M382 213h1M380 214h2M383 214h2M382 215h1M311 216h1M382 216h1M363 219h1M363 220h1M360 256h1M360 257h1M358 258h2M361 258h2M360 259h1M360 260h1M354 269h3M354 270h1M356 270h1M354 271h3" />
<path stroke="#32279b" d="M404 18h1M404 19h1M402 20h2M405 20h2M404 21h1M113 22h1M100 28h1M144 34h1M144 35h1M142 36h2M145 36h2M144 37h1M236 41h1M499 41h1M235 42h1M237 42h1M499 42h1M236 43h1M497 43h2M500 43h2M293 44h1M499 44h1M808 46h1M243 49h1M862 50h1M549 55h1M849 56h1M884 60h1M562 61h1M884 61h1M882 62h2M885 62h2M884 63h1M20 66h1M20 67h1M450 67h1M18 68h2M21 68h2M20 69h1M196 70h1M643 71h1M643 72h1M760 72h1M437 73h1M641 73h2M644 73h2M759 73h1M761 73h1M815 73h1M643 74h1M758 74h1M762 74h1M934 74h1M759 75h1M761 75h1M760 76h1M70 80h1M947 80h1M546 84h1M545 85h1M547 85h1M693 85h1M83 86h1M546 86h1M706 91h1M215 92h1M539 92h1M453 96h1M452 97h1M454 97h1M202 98h1M453 98h1M931 103h1M246 104h1M460 104h1M930 104h1M932 104h1M246 105h1M873 105h1M931 105h1M244 106h2M247 106h2M872 106h1M874 106h1M246 107h1M487 107h1M871 107h1M875 107h1M872 108h1M874 108h1M67 109h1M873 109h1M66 110h1M68 110h1M67 111h1M924 111h1M148 113h1M148 114h1M690 114h1M146 115h2M149 115h2M689 115h1M691 115h1M148 116h1M262 116h1M690 116h1M60 117h1M479 117h1M478 118h1M480 118h1M477 119h1M481 119h1M478 120h1M480 120h1M218 121h1M479 121h1M217 122h1M219 122h1M683 122h1M218 123h1M642 124h1M642 125h1M270 126h1M640 126h2M643 126h2M98 127h1M269 127h1M271 127h1M642 127h1M268 128h1M272 128h1M225 129h1M269 129h1M271 129h1M270 130h1M734 131h1M733 132h1M735 132h1M85 133h1M734 133h1M494 134h1M791 134h1M741 139h1M255 143h1M694 160h1M108 164h1M427 177h1M426 178h1M428 178h1M427 179h1M434 185h1M280 199h1M267 205h1M367 205h1M366 206h1M368 206h1M365 207h1M369 207h1M366 208h1M368 208h1M367 209h1M311 211h1M311 212h1M309 213h2M312 213h2M311 214h1M382 214h1M360 258h1" />
<path stroke="#608dc5" d="M404 20h1M144 36h1M236 42h1M499 43h1M884 62h1M20 68h1M643 73h1M760 73h1M759 74h3M760 75h1M546 85h1M453 97h1M931 104h1M246 106h1M873 106h1M872 107h3M873 108h1M67 110h1M148 115h1M690 115h1M479 118h1M478 119h3M479 120h1M218 122h1M642 126h1M270 127h1M269 128h3M270 129h1M734 132h1M427 178h1M367 206h1M366 207h3M367 208h1M311 213h1" />
<path stroke="#894278" d="M365 224h1M425 231h1M604 239h1M748 256h1M436 259h1M619 259h1" />
<path stroke="#164387" d="M99 239h1M98 240h1M100 240h1M99 241h1M86 245h1M85 246h1M87 246h1M86 247h1M92 248h2M92 249h2M130 251h1M127 254h1M133 254h1M346 254h1M542 254h2M345 255h1M347 255h1M346 256h1M130 257h1M279 260h1M333 260h1M279 261h1M332 261h1M334 261h1M277 262h2M280 262h2M333 262h1M279 263h1M339 263h2M279 264h1M339 264h2M848 267h1M847 268h1M849 268h1M848 269h1M777 354h1M680 380h1M520 599h1" />
<path stroke="#287fa4" d="M99 240h1M86 246h1M130 252h1M130 253h1M128 254h2M131 254h2M130 255h1M346 255h1M333 261h1M279 262h1M848 268h1" />
<path stroke="#5fcfa5" d="M130 254h1" />
<path stroke="#c67fb0" d="M406 260h1M490 273h1" />
<path stroke="#723c89" d="M526 261h3M526 262h1M528 262h1M526 263h3M835 273h1M834 274h1M836 274h1M835 275h1M841 276h2M841 277h2M436 284h1M435 285h1M437 285h1M182 286h1M436 286h1M182 287h1M180 288h2M183 288h2M182 289h1M182 290h1M423 290h1M422 291h1M424 291h1M423 292h1M429 293h2M429 294h2M176 299h3M176 300h1M178 300h1M463 300h1M176 301h3M679 302h1M678 303h1M680 303h1M679 304h1M494 307h2M532 307h1M525 308h1M692 308h1M201 309h1M525 309h1M691 309h1M693 309h1M200 310h1M202 310h1M523 310h2M526 310h2M692 310h1M835 310h2M201 311h1M439 311h1M525 311h1M685 311h2M835 311h2M439 312h1M525 312h1M639 312h3M685 312h2M439 313h1M639 313h1M641 313h1M438 314h1M440 314h1M478 314h3M639 314h3M188 315h1M435 315h2M441 315h3M478 315h1M480 315h1M187 316h1M189 316h1M438 316h1M440 316h1M478 316h3M188 317h1M439 317h1M277 318h1M439 318h1M819 318h3M276 319h1M278 319h1M439 319h1M819 319h1M821 319h1M277 320h1M446 320h1M819 320h3M446 321h1M444 322h2M447 322h2M446 323h1M473 323h1M558 323h1M264 324h1M446 324h1M473 324h1M263 325h1M265 325h1M471 325h2M474 325h2M264 326h1M473 326h1M270 327h2M814 327h1M270 328h2M814 328h1M812 329h2M815 329h2M814 330h1M379 332h1M379 333h1M377 334h2M380 334h2M379 335h1M379 336h1M855 337h1M855 338h1M360 339h1M360 340h1M720 346h1M720 347h1M720 348h1M469 349h1M719 349h1M721 349h1M469 350h1M480 350h1M716 350h2M722 350h3M777 350h1M480 351h1M719 351h1M721 351h1M777 351h1M478 352h2M481 352h2M720 352h1M775 352h2M778 352h2M480 353h1M720 353h1M777 353h1M480 354h1M720 354h1M727 355h1M727 356h1M725 357h2M728 357h2M727 358h1M727 359h1" />
<path stroke="#874286" d="M498 271h1M687 273h1" />
<path stroke="#797ca6" d="M835 274h1M436 285h1M182 288h1M423 291h1M679 303h1M692 309h1M201 310h1M525 310h1M439 314h1M438 315h1M440 315h1M188 316h1M439 316h1M277 319h1M446 322h1M264 325h1M473 325h1M814 329h1M379 334h1M720 349h1M719 350h1M721 350h1M720 351h1M480 352h1M777 352h1M727 357h1" />
<path stroke="#bd3db0" d="M429 275h1M429 276h1" />
<path stroke="#7acfa7" d="M439 315h1M720 350h1" />
<path stroke="#164388" d="M674 389h3M674 390h1M676 390h1M674 391h3" />
<path stroke="#eb9ae4" d="M413 392h1M413 393h1M413 394h1M412 395h3M409 396h2M412 396h1M414 396h4M412 397h3M413 398h1M413 399h1M413 400h1M420 401h1M420 402h1M418 403h5M420 404h1M420 405h1" />
<path stroke="#edd2e2" d="M413 396h1" />
<path stroke="#174992" d="M520 598h1" />
</svg>