<svg xmlns="http://www.w3.org/2000/svg" viewBox="0 -0.5 960 600" shape-rendering="crispEdges">
<metadata>Made with Pixels to Svg https://codepen.io/shshaw/pen/XbxvNj</metadata>
<path stroke="#164387" d="M869 58h1M868 59h1M870 59h1M869 60h1" />
<path stroke="#5faacf" d="M869 59h1M257 85h1M256 86h1M258 86h1M255 87h1M259 87h1M256 88h1M258 88h1M257 89h1M661 156h1M660 157h3M661 158h1" />
<path stroke="#287fa4" d="M257 84h1M254 87h1M260 87h1M257 90h1" />
<path stroke="#9adedc" d="M257 86h1M256 87h3M257 88h1" />
</svg>